<svg id="Capa_1" data-name="Capa 1" xmlns="http://www.w3.org/2000/svg" viewBox="0 0 282.82 282.82"><defs><style>.cls-1{fill:#fff;}</style></defs><rect width="282.82" height="282.82"/><path class="cls-1" d="M122.67,177.17s20.3-1.51,20.3-25.32-16.61-35.43-37.61-35.43H36.07V249.49h69.29s42.28,1.34,42.28-39.28c0,0,1.84-33-24.92-33Zm-22.31-37.1h5s9.42,0,9.42,13.85-5.54,15.85-11.82,15.85H66.58v-29.7Zm3,85.77H66.58V190.28h38.78s14-.19,14,18.27C119.36,224.12,108.89,225.72,103.36,225.84ZM204,150.27c-51.18,0-51.13,51.14-51.13,51.14s-3.52,50.87,51.13,50.87c0,0,45.53,2.6,45.53-35.39H226.08s.78,14.3-21.33,14.3c0,0-23.42,1.57-23.42-23.15h68.95S257.83,150.27,204,150.27Zm-22.9,40s2.86-20.51,23.42-20.51,20.29,20.51,20.29,20.51Zm49.17-49.64H175.36V124.26h54.9v16.38Z" transform="translate(0 0)"/></svg>