<svg id="Capa_1" data-name="Capa 1" xmlns="http://www.w3.org/2000/svg" viewBox="0 0 284 284"><defs><style>.cls-1{fill:#fff;}</style></defs><rect width="284" height="284"/><path class="cls-1" d="M82.64,247.81V110.74H37.08V247.81ZM59.84,92c15.89,0,25.78-10.53,25.78-23.69-.29-13.45-9.89-23.68-25.47-23.68S34.4,54.9,34.4,68.35C34.4,81.51,44.28,92,59.58,92Zm48,155.77H153.4v-76.5c0-4.1.29-8.19,1.5-11.11,3.29-8.2,10.78-16.67,23.38-16.67,16.48,0,23.07,12.57,23.07,31V247.8h45.56V169.22c0-42.1-22.47-61.69-52.44-61.69-24.58,0-35.36,13.73-41.37,23.08h.31V110.74H107.84c.59,12.87,0,137.07,0,137.07Z" transform="translate(0 0)"/></svg>