<svg id="Capa_1" data-name="Capa 1" xmlns="http://www.w3.org/2000/svg" xmlns:xlink="http://www.w3.org/1999/xlink" viewBox="0 0 738.97 480.12"><defs><style>.cls-1,.cls-10,.cls-11,.cls-12,.cls-3,.cls-4,.cls-5,.cls-6,.cls-9{fill:none;}.cls-2{fill:#fff;}.cls-11,.cls-12,.cls-3,.cls-4,.cls-5,.cls-6{stroke:#1d1d1b;}.cls-10,.cls-11,.cls-12,.cls-3,.cls-4,.cls-5,.cls-6,.cls-9{stroke-width:1.5px;}.cls-3{stroke-dasharray:4.51 3.01;}.cls-4{stroke-dasharray:4.53 3.03;}.cls-6{stroke-dasharray:4.48 2.98;}.cls-7{fill:#1d1d1b;}.cls-8{clip-path:url(#clip-path);}.cls-9{stroke:#fff;}.cls-10{stroke:#000;}.cls-11{stroke-dasharray:4.56 3.06;}.cls-12{stroke-dasharray:4.55 3.05;}</style><clipPath id="clip-path" transform="translate(-38.83 -53.02)"><rect class="cls-1" x="143.48" y="68.9" width="595.58" height="457.48"/></clipPath></defs><rect class="cls-2" width="738.97" height="480.12"/><line class="cls-3" x1="392.98" y1="86.83" x2="392.98" y2="190.13"/><line class="cls-4" x1="397.31" y1="193.2" x2="618.49" y2="193.2"/><line class="cls-3" x1="621.58" y1="188.9" x2="621.58" y2="85.6"/><line class="cls-4" x1="617.26" y1="82.53" x2="396.07" y2="82.53"/><path class="cls-5" d="M433.66,135.55h-1.85v1.84m228.6,0v-1.84h-1.85m0,110.67h1.85v-1.84m-228.6,0v1.84h1.85" transform="translate(-38.83 -53.02)"/><line class="cls-3" x1="392.98" y1="213.66" x2="392.98" y2="316.96"/><line class="cls-4" x1="397.31" y1="320.03" x2="618.49" y2="320.03"/><line class="cls-3" x1="621.58" y1="315.73" x2="621.58" y2="212.43"/><line class="cls-4" x1="617.26" y1="209.36" x2="396.07" y2="209.36"/><path class="cls-5" d="M433.66,262.38h-1.85v1.84m228.6,0v-1.84h-1.85m0,110.67h1.85v-1.84m-228.6,0v1.84h1.85" transform="translate(-38.83 -53.02)"/><line class="cls-6" x1="392.98" y1="338.7" x2="392.98" y2="441.25"/><line class="cls-4" x1="397.31" y1="444.3" x2="618.49" y2="444.3"/><line class="cls-6" x1="621.58" y1="440.03" x2="621.58" y2="337.48"/><line class="cls-4" x1="617.26" y1="334.43" x2="396.07" y2="334.43"/><path class="cls-5" d="M433.66,387.45h-1.85v1.83m228.6,0v-1.83h-1.85m0,109.87h1.85v-1.83m-228.6,0v1.83h1.85" transform="translate(-38.83 -53.02)"/><polygon class="cls-2" points="516.1 455.73 516.1 173.1 503.69 173.1 503.69 455.73 493.41 455.73 509.94 470.9 526.38 455.73 516.1 455.73"/><polygon class="cls-5" points="516.1 455.73 516.1 173.1 503.69 173.1 503.69 455.73 493.41 455.73 509.94 470.9 526.38 455.73 516.1 455.73"/><rect class="cls-5" x="130.03" y="83.56" width="228.6" height="110.68"/><rect class="cls-2" x="313.75" y="133.48" width="126.44" height="12.43"/><rect class="cls-5" x="313.75" y="133.48" width="126.44" height="12.43"/><path class="cls-7" d="M170.24,74.94h7.14c4.58,0,7.41,3.48,7.41,8.56,0,4-1.72,9-7.51,9h-7Zm2.38,15.58h4.61c3.09,0,5.1-2.43,5.1-6.87s-2-6.68-5.27-6.68h-4.44Z" transform="translate(-38.83 -53.02)"/><path class="cls-7" d="M200.76,92.55h-13V74.94h12.83v2.11H190.13v5.39h9.64v2.11h-9.64v5.89h10.63Z" transform="translate(-38.83 -53.02)"/><path class="cls-7" d="M215.38,80.24c-.67-3.1-3.24-3.66-4.94-3.66-3.19,0-5.76,2.36-5.76,7,0,4.15,1.47,7.34,5.84,7.34,1.54,0,4.22-.74,5-4.83h2.3c-1,6.64-6.37,6.94-7.7,6.94-4,0-7.92-2.6-7.92-9.37,0-5.43,3.09-9.18,8.21-9.18,4.54,0,6.9,2.82,7.24,5.77Z" transform="translate(-38.83 -53.02)"/><path class="cls-7" d="M228.16,93c-6.58,0-8.59-5.47-8.59-9.28s2-9.27,8.59-9.27,8.58,5.47,8.58,9.27S234.73,93,228.16,93Zm0-16.44c-3.83,0-6.14,3-6.14,7.16s2.31,7.17,6.14,7.17,6.13-3,6.13-7.17S232,76.58,228.16,76.58Z" transform="translate(-38.83 -53.02)"/><path class="cls-7" d="M251.12,74.94h2.3V92.55h-2.67l-9-14.23h0V92.55h-2.31V74.94h2.82l8.81,14.23h.05Z" transform="translate(-38.83 -53.02)"/><path class="cls-7" d="M267.5,80.09c-.12-2.73-2.38-3.58-4.36-3.58-1.5,0-4,.41-4,3.09,0,1.49,1.06,2,2.09,2.23l5,1.15c2.28.54,4,1.92,4,4.71,0,4.18-3.88,5.33-6.9,5.33-3.26,0-4.54-1-5.32-1.69a5.42,5.42,0,0,1-1.79-4.47h2.23c0,3.19,2.6,4.12,4.86,4.12,1.72,0,4.61-.44,4.61-3,0-1.84-.86-2.43-3.75-3.11l-3.61-.84c-1.15-.27-3.75-1.08-3.75-4.14,0-2.75,1.79-5.45,6.06-5.45,6.16,0,6.77,3.68,6.87,5.62Z" transform="translate(-38.83 -53.02)"/><path class="cls-7" d="M271.23,74.94h14.31v2.11h-6v15.5h-2.38V77.05h-6Z" transform="translate(-38.83 -53.02)"/><path class="cls-7" d="M290,92.55h-2.38V74.94h8.15c2.89,0,5.79,1,5.79,4.73a4.33,4.33,0,0,1-2.45,4.22c1,.42,2,.86,2.11,3.31l.14,3.19c0,1,.15,1.35.89,1.77v.39H299.3a21.13,21.13,0,0,1-.42-4.41c0-1.45-.29-3.14-3.14-3.14H290ZM290,83h5.52c1.75,0,3.59-.44,3.59-3s-2-3-3.17-3H290Z" transform="translate(-38.83 -53.02)"/><path class="cls-7" d="M318.58,74.94V86.37c0,3.61-2.26,6.65-7.09,6.65s-6.77-3-6.77-6.33V74.94h2.38V86c0,3.82,2.33,4.88,4.46,4.88s4.64-1,4.64-4.83V74.94Z" transform="translate(-38.83 -53.02)"/><path class="cls-7" d="M334.45,80.24c-.66-3.1-3.24-3.66-4.93-3.66-3.19,0-5.77,2.36-5.77,7,0,4.15,1.48,7.34,5.84,7.34,1.55,0,4.22-.74,5-4.83h2.31c-1,6.64-6.38,6.94-7.71,6.94-4,0-7.92-2.6-7.92-9.37,0-5.43,3.09-9.18,8.22-9.18,4.54,0,6.89,2.82,7.24,5.77Z" transform="translate(-38.83 -53.02)"/><path class="cls-7" d="M337.83,74.94h14.31v2.11h-6v15.5h-2.38V77.05h-6Z" transform="translate(-38.83 -53.02)"/><path class="cls-7" d="M356.62,92.55h-2.38V74.94h2.38Z" transform="translate(-38.83 -53.02)"/><path class="cls-7" d="M368.06,93c-6.58,0-8.59-5.47-8.59-9.28s2-9.27,8.59-9.27,8.58,5.47,8.58,9.27S374.63,93,368.06,93Zm0-16.44c-3.83,0-6.14,3-6.14,7.16s2.31,7.17,6.14,7.17,6.13-3,6.13-7.17S371.88,76.58,368.06,76.58Z" transform="translate(-38.83 -53.02)"/><path class="cls-7" d="M391,74.94h2.31V92.55h-2.68L381.7,78.32h-.05V92.55h-2.31V74.94h2.82L391,89.17h0Z" transform="translate(-38.83 -53.02)"/><path class="cls-7" d="M434.74,74.94h7.14c4.58,0,7.41,3.48,7.41,8.56,0,4-1.72,9-7.51,9h-7Zm2.38,15.58h4.61c3.09,0,5.1-2.43,5.1-6.87s-2-6.68-5.27-6.68h-4.44Z" transform="translate(-38.83 -53.02)"/><path class="cls-7" d="M465.25,92.55h-13V74.94h12.83v2.11H454.63v5.39h9.64v2.11h-9.64v5.89h10.62Z" transform="translate(-38.83 -53.02)"/><path class="cls-7" d="M478.18,80.09c-.12-2.73-2.38-3.58-4.37-3.58-1.49,0-4,.41-4,3.09,0,1.49,1.06,2,2.09,2.23l5,1.15c2.28.54,4,1.92,4,4.71,0,4.18-3.88,5.33-6.9,5.33-3.26,0-4.54-1-5.32-1.69a5.42,5.42,0,0,1-1.79-4.47h2.23c0,3.19,2.6,4.12,4.86,4.12,1.71,0,4.61-.44,4.61-3,0-1.84-.86-2.43-3.75-3.11l-3.61-.84c-1.16-.27-3.76-1.08-3.76-4.14,0-2.75,1.8-5.45,6.06-5.45,6.16,0,6.78,3.68,6.88,5.62Z" transform="translate(-38.83 -53.02)"/><path class="cls-7" d="M486.28,92.55H483.9V74.94h2.38Z" transform="translate(-38.83 -53.02)"/><path class="cls-7" d="M497.64,83.13h7.72v9.42h-1.54l-.57-2.28A7.18,7.18,0,0,1,497.44,93a7,7,0,0,1-5.4-2,9.4,9.4,0,0,1-2.77-7.43c0-4.3,2.6-9.13,8.34-9.13,3.29,0,6.94,1.86,7.46,5.81h-2.31c-.76-3.06-3.33-3.7-5.27-3.7-3.17,0-5.77,2.53-5.77,7.14,0,3.58,1.18,7.26,5.87,7.26a5.59,5.59,0,0,0,3.6-1.13,5.38,5.38,0,0,0,1.94-4.68h-5.49Z" transform="translate(-38.83 -53.02)"/><path class="cls-7" d="M520.5,74.94h2.31V92.55h-2.68l-8.95-14.23h-.05V92.55h-2.31V74.94h2.82l8.81,14.23h0Z" transform="translate(-38.83 -53.02)"/><path class="cls-7" d="M528.94,92.55h-2.38V74.94h2.38Z" transform="translate(-38.83 -53.02)"/><path class="cls-7" d="M544.32,74.94h2.31V92.55H544l-9-14.23h0V92.55h-2.31V74.94h2.82l8.81,14.23h.05Z" transform="translate(-38.83 -53.02)"/><path class="cls-7" d="M557.83,83.13h7.73v9.42H564l-.57-2.28A7.18,7.18,0,0,1,557.64,93a7,7,0,0,1-5.4-2,9.4,9.4,0,0,1-2.77-7.43c0-4.3,2.6-9.13,8.34-9.13,3.29,0,6.94,1.86,7.46,5.81H563c-.76-3.06-3.33-3.7-5.27-3.7-3.17,0-5.77,2.53-5.77,7.14,0,3.58,1.18,7.26,5.87,7.26a5.59,5.59,0,0,0,3.6-1.13,5.38,5.38,0,0,0,1.94-4.68h-5.5Z" transform="translate(-38.83 -53.02)"/><path class="cls-7" d="M161.41,372.1v1.43H150.84V372.1Z" transform="translate(-38.83 -53.02)"/><path class="cls-7" d="M161.41,363.72V365h-4.74c-1.34,0-2,.38-2,1.65,0,.73.47,2,2.56,2h4.2V370h-7.7v-1.23h1.09v0a2.77,2.77,0,0,1-1.31-2.32,2.44,2.44,0,0,1,2.68-2.7Z" transform="translate(-38.83 -53.02)"/><path class="cls-7" d="M154.78,360.4h5c.6,0,.6-.52.6-.78v-.46h1c0,.47.1.84.1,1,0,1.29-.72,1.56-1.65,1.56h-5.08v1.05h-1.07v-1.05h-2.15V360.4h2.15v-1.24h1.07Z" transform="translate(-38.83 -53.02)"/><path class="cls-7" d="M159,351.59a3.21,3.21,0,0,1,2.64,3.47c0,2.16-1.64,3.44-3.86,3.44-2.38,0-4.28-1.15-4.28-3.7,0-2.22,1.76-3.31,4.49-3.31v5.63c1.6,0,2.53-.75,2.53-2.24a2,2,0,0,0-1.52-2Zm-2,1.24c-1.2.08-2.3.58-2.3,2.15a2.26,2.26,0,0,0,2.3,2.14Z" transform="translate(-38.83 -53.02)"/><path class="cls-7" d="M161.41,348.64v1.29h-7.7v-1.22H155v0a2.49,2.49,0,0,1-1.5-2.16,1.05,1.05,0,0,1,0-.34h1.34v.49a2,2,0,0,0,2.06,2Z" transform="translate(-38.83 -53.02)"/><path class="cls-7" d="M156.05,345.31c-1.84-.06-2.56-1.28-2.56-3.18,0-.62.17-2.85,2.15-2.85h4.43a.39.39,0,0,0,.45-.43,3.8,3.8,0,0,0-.05-.43h.94a2.34,2.34,0,0,1,.15.71c0,1.15-.59,1.32-1.18,1.37a3.51,3.51,0,0,1,1.25,2.78,2.23,2.23,0,0,1-2.22,2.42,2.33,2.33,0,0,1-2.42-2.35l-.26-2.13c0-.31-.15-.68-.92-.68s-1.25.59-1.25,1.81a1.53,1.53,0,0,0,1.49,1.77Zm1.43-4.74c.16.21.28.53.48,2.14.09.63.28,1.65,1.25,1.65a1.22,1.22,0,0,0,1.34-1.4c0-1.21-.78-2.39-1.81-2.39Z" transform="translate(-38.83 -53.02)"/><path class="cls-7" d="M156.3,332.42a1.71,1.71,0,0,0-1.65,1.82c0,1.61,1.53,2.12,2.9,2.12s3-.32,3-2.1a2,2,0,0,0-1.83-1.84v-1.25a3,3,0,0,1,2.95,3.13c0,2.17-1.64,3.45-3.86,3.45-2.38,0-4.28-1.15-4.28-3.7a2.77,2.77,0,0,1,2.81-2.88Z" transform="translate(-38.83 -53.02)"/><path class="cls-7" d="M154.78,328.25h5c.6,0,.6-.51.6-.78V327h1c0,.47.1.83.1,1,0,1.28-.72,1.56-1.65,1.56h-5.08v1h-1.07v-1h-2.15v-1.3h2.15V327h1.07Z" transform="translate(-38.83 -53.02)"/><path class="cls-7" d="M152.31,325.78h-1.47v-1.3h1.47Zm9.1-1.3v1.3h-7.7v-1.3Z" transform="translate(-38.83 -53.02)"/><path class="cls-7" d="M153.49,319.45c0-2.46,2.07-3.58,4.06-3.58s4.06,1.12,4.06,3.58-2.07,3.58-4.06,3.58S153.49,321.91,153.49,319.45Zm7,0c0-1.86-1.91-2.24-2.94-2.24s-3,.38-3,2.24,1.92,2.24,3,2.24S160.49,321.31,160.49,319.45Z" transform="translate(-38.83 -53.02)"/><path class="cls-7" d="M161.41,308.17v1.3h-4.74c-1.34,0-2,.38-2,1.65,0,.74.47,2,2.56,2h4.2v1.3h-7.7v-1.23h1.09v0a2.79,2.79,0,0,1-1.31-2.33,2.44,2.44,0,0,1,2.68-2.7Z" transform="translate(-38.83 -53.02)"/><path class="cls-7" d="M154,244.22a2.76,2.76,0,0,0-2.2,3c0,1.91,1.42,3.46,4.2,3.46,2.49,0,4.4-.88,4.4-3.5,0-.93-.44-2.54-2.9-3v-1.39a4.47,4.47,0,0,1,4.17,4.63c0,2.4-1.56,4.75-5.63,4.75-3.25,0-5.5-1.85-5.5-4.93,0-2.72,1.69-4.14,3.46-4.34Z" transform="translate(-38.83 -53.02)"/><path class="cls-7" d="M153.49,238.07c0-2.46,2.07-3.58,4.06-3.58s4.06,1.12,4.06,3.58-2.07,3.58-4.06,3.58S153.49,240.53,153.49,238.07Zm7,0c0-1.86-1.92-2.24-2.95-2.24s-2.94.38-2.94,2.24,1.91,2.24,2.94,2.24S160.5,239.93,160.5,238.07Z" transform="translate(-38.83 -53.02)"/><path class="cls-7" d="M161.41,226.79v1.3h-4.74c-1.34,0-2,.38-2,1.65,0,.74.47,2,2.56,2h4.2v1.3h-7.7v-1.23h1.09v0a2.79,2.79,0,0,1-1.31-2.33,2.44,2.44,0,0,1,2.68-2.7Z" transform="translate(-38.83 -53.02)"/><path class="cls-7" d="M154.78,223.47h5c.6,0,.6-.52.6-.78v-.46h1c0,.47.1.84.1,1,0,1.29-.72,1.57-1.65,1.57h-5.08v1h-1.07v-1h-2.15v-1.3h2.15v-1.24h1.07Z" transform="translate(-38.83 -53.02)"/><path class="cls-7" d="M159,214.67A3.3,3.3,0,0,1,161.1,216a3.39,3.39,0,0,1,.53,2.1c0,2.16-1.64,3.44-3.86,3.44-2.38,0-4.28-1.15-4.28-3.69,0-2.23,1.76-3.32,4.49-3.32v5.63c1.6,0,2.53-.75,2.53-2.24a2,2,0,0,0-1.52-2Zm-2,1.23c-1.2.08-2.3.58-2.3,2.15a2.26,2.26,0,0,0,2.3,2.14Z" transform="translate(-38.83 -53.02)"/><path class="cls-7" d="M161.41,207.1v1.65l-2.9,1.91,2.9,1.86v1.63l-4-2.71L153.71,214v-1.66l2.71-1.79-2.71-1.78V207.2l3.74,2.61Z" transform="translate(-38.83 -53.02)"/><path class="cls-7" d="M154.78,204.16h5c.6,0,.6-.52.6-.78v-.46h1c0,.47.1.84.1,1,0,1.28-.72,1.56-1.65,1.56h-5.08v1.05h-1.07v-1.05h-2.15v-1.29h2.15v-1.24h1.07Z" transform="translate(-38.83 -53.02)"/><path class="cls-7" d="M161.41,497.49v1.43H150.84v-4.76a2.88,2.88,0,0,1,3-3.13,3,3,0,0,1,3.14,3.13v3.33Zm-5.69,0v-2.84c0-1.28-.47-2.15-1.9-2.15s-1.76.91-1.76,2.09v2.9Z" transform="translate(-38.83 -53.02)"/><path class="cls-7" d="M161.41,488.31v1.29h-7.7v-1.22H155v0a2.5,2.5,0,0,1-1.5-2.16,1,1,0,0,1,0-.34h1.34v.48a2,2,0,0,0,2.06,2Z" transform="translate(-38.83 -53.02)"/><path class="cls-7" d="M153.49,481.83c0-2.46,2.07-3.58,4.06-3.58s4.06,1.12,4.06,3.58-2.07,3.58-4.06,3.58S153.49,484.29,153.49,481.83Zm7,0c0-1.86-1.91-2.24-2.94-2.24s-3,.38-3,2.24,1.92,2.24,3,2.24S160.49,483.68,160.49,481.83Z" transform="translate(-38.83 -53.02)"/><path class="cls-7" d="M161.41,470.39v1.22h-1.06v0a2.33,2.33,0,0,1,1.28,2.2c0,2.62-2.46,3.38-4.3,3.38-2.17,0-3.84-1.16-3.84-3.21a2.57,2.57,0,0,1,1.31-2.29l-.11,0h-3.85v-1.3Zm-.9,3.42c0-.83-.55-2.11-2.59-2.11-1.25,0-3.27.21-3.27,2.08s1.9,2.1,2.89,2.1C159.23,475.88,160.51,475.22,160.51,473.81Z" transform="translate(-38.83 -53.02)"/><path class="cls-7" d="M161.41,463.62h-1.12l0,0a2.53,2.53,0,0,1,1.37,2.44,2.28,2.28,0,0,1-2.39,2.51h-5.53v-1.3h5.11c1.26,0,1.69-.65,1.69-1.49,0-1.63-1.44-2.12-2.56-2.12h-4.24V462.4h7.7Z" transform="translate(-38.83 -53.02)"/><path class="cls-7" d="M156.3,455.64a1.72,1.72,0,0,0-1.65,1.83c0,1.6,1.53,2.12,2.9,2.12s3-.32,3-2.11a2,2,0,0,0-1.83-1.84v-1.25a3,3,0,0,1,2.95,3.14c0,2.16-1.64,3.44-3.86,3.44-2.38,0-4.28-1.14-4.28-3.69a2.78,2.78,0,0,1,2.81-2.89Z" transform="translate(-38.83 -53.02)"/><path class="cls-7" d="M154.78,451.48h5c.6,0,.6-.52.6-.78v-.46h1c0,.47.1.84.1,1,0,1.29-.72,1.56-1.65,1.56h-5.08v1.05h-1.07v-1.05h-2.15v-1.29h2.15v-1.24h1.07Z" transform="translate(-38.83 -53.02)"/><path class="cls-7" d="M172.74,125.7h-2.38V108.08h7.92c3.27,0,5.23,2.11,5.23,5a4.91,4.91,0,0,1-5.23,5.22h-5.54Zm0-9.47h4.73c2.14,0,3.59-.79,3.59-3.17s-1.52-2.94-3.49-2.94h-4.83Z" transform="translate(-38.83 -53.02)"/><path class="cls-7" d="M187.21,120.57l-1.84,5.13h-2.45l6.62-17.62h2.7l6.38,17.62H196l-1.74-5.13Zm6.21-2.11-2.6-7.75h0L188,118.46Z" transform="translate(-38.83 -53.02)"/><path class="cls-7" d="M210.79,113.23c-.12-2.72-2.38-3.58-4.37-3.58-1.5,0-4,.42-4,3.09,0,1.5,1,2,2.08,2.24l5,1.15c2.28.54,4,1.91,4,4.71,0,4.17-3.87,5.33-6.89,5.33-3.27,0-4.54-1-5.33-1.7A5.43,5.43,0,0,1,199.5,120h2.23c0,3.19,2.61,4.12,4.86,4.12,1.72,0,4.62-.44,4.62-3,0-1.84-.86-2.43-3.76-3.12l-3.61-.83c-1.15-.27-3.75-1.08-3.75-4.15,0-2.75,1.79-5.44,6.06-5.44,6.16,0,6.77,3.68,6.87,5.61Z" transform="translate(-38.83 -53.02)"/><path class="cls-7" d="M214.51,108.08h14.31v2.11h-6V125.7h-2.38V110.19h-6Z" transform="translate(-38.83 -53.02)"/><path class="cls-7" d="M437.24,125.7h-2.38V108.08h7.92c3.27,0,5.23,2.11,5.23,5a4.91,4.91,0,0,1-5.23,5.22h-5.54Zm0-9.47H442c2.14,0,3.59-.79,3.59-3.17s-1.52-2.94-3.49-2.94h-4.83Z" transform="translate(-38.83 -53.02)"/><path class="cls-7" d="M452.82,125.7h-2.38V108.08h8.14c2.9,0,5.79,1,5.79,4.74a4.33,4.33,0,0,1-2.45,4.22c1,.42,2,.86,2.11,3.31l.15,3.19c0,1,.14,1.35.88,1.77v.39h-2.92a21.86,21.86,0,0,1-.42-4.42c0-1.45-.29-3.14-3.14-3.14h-5.76Zm0-9.59h5.52c1.74,0,3.58-.45,3.58-3s-2-2.94-3.17-2.94h-5.93Z" transform="translate(-38.83 -53.02)"/><path class="cls-7" d="M480.81,125.7h-13V108.08h12.84v2.11H470.18v5.4h9.65v2.11h-9.65v5.89h10.63Z" transform="translate(-38.83 -53.02)"/><path class="cls-7" d="M493.74,113.23c-.13-2.72-2.38-3.58-4.37-3.58-1.5,0-4,.42-4,3.09,0,1.5,1.06,2,2.09,2.24l5,1.15c2.28.54,4,1.91,4,4.71,0,4.17-3.88,5.33-6.9,5.33-3.26,0-4.54-1-5.32-1.7a5.4,5.4,0,0,1-1.79-4.46h2.23c0,3.19,2.6,4.12,4.86,4.12,1.72,0,4.61-.44,4.61-3,0-1.84-.86-2.43-3.75-3.12l-3.61-.83c-1.15-.27-3.75-1.08-3.75-4.15,0-2.75,1.79-5.44,6.06-5.44,6.16,0,6.77,3.68,6.87,5.61Z" transform="translate(-38.83 -53.02)"/><path class="cls-7" d="M512.4,125.7h-13V108.08h12.83v2.11H501.78v5.4h9.64v2.11h-9.64v5.89H512.4Z" transform="translate(-38.83 -53.02)"/><path class="cls-7" d="M526.63,108.08h2.31V125.7h-2.68l-9-14.23h0V125.7H515V108.08h2.82l8.81,14.23h0Z" transform="translate(-38.83 -53.02)"/><path class="cls-7" d="M530.85,108.08h14.3v2.11h-6V125.7h-2.38V110.19h-6Z" transform="translate(-38.83 -53.02)"/><path class="cls-7" d="M545,126.17h-1.64l6-18.55H551Z" transform="translate(-38.83 -53.02)"/><path class="cls-7" d="M555,125.7h-2.38V108.08H564.8v2.11H555v5.4h8.63v2.11H555Z" transform="translate(-38.83 -53.02)"/><path class="cls-7" d="M580.77,108.08v11.44c0,3.6-2.25,6.65-7.09,6.65s-6.77-3-6.77-6.34V108.08h2.38v11.09c0,3.83,2.33,4.89,4.47,4.89s4.63-1,4.63-4.84V108.08Z" transform="translate(-38.83 -53.02)"/><path class="cls-7" d="M582.73,108.08H597v2.11h-6V125.7h-2.38V110.19h-6Z" transform="translate(-38.83 -53.02)"/><path class="cls-7" d="M612.86,108.08v11.44c0,3.6-2.26,6.65-7.09,6.65s-6.77-3-6.77-6.34V108.08h2.38v11.09c0,3.83,2.33,4.89,4.46,4.89s4.64-1,4.64-4.84V108.08Z" transform="translate(-38.83 -53.02)"/><path class="cls-7" d="M618.94,125.7h-2.38V108.08h8.15c2.89,0,5.79,1,5.79,4.74A4.34,4.34,0,0,1,628,117c1,.42,2,.86,2.11,3.31l.15,3.19c0,1,.15,1.35.88,1.77v.39h-2.92a21.78,21.78,0,0,1-.41-4.42c0-1.45-.3-3.14-3.14-3.14h-5.77Zm0-9.59h5.52c1.74,0,3.58-.45,3.58-3s-2-2.94-3.16-2.94h-5.94Z" transform="translate(-38.83 -53.02)"/><path class="cls-7" d="M646.93,125.7h-13V108.08h12.83v2.11H636.31v5.4H646v2.11h-9.64v5.89h10.62Z" transform="translate(-38.83 -53.02)"/><path class="cls-7" d="M211.77,323h-1.43V312.43h4.76a2.88,2.88,0,0,1,3.13,3,3,3,0,0,1-3.13,3.14h-3.33Zm0-5.68h2.84c1.28,0,2.15-.48,2.15-1.9s-.91-1.77-2.09-1.77h-2.9Z" transform="translate(-38.83 -53.02)"/><path class="cls-7" d="M221,323h-1.29v-7.7h1.22v1.28h0a2.49,2.49,0,0,1,2.16-1.5,1.05,1.05,0,0,1,.34,0v1.34h-.48a2,2,0,0,0-2,2.06Z" transform="translate(-38.83 -53.02)"/><path class="cls-7" d="M227.43,315.08c2.46,0,3.58,2.07,3.58,4.06s-1.12,4.07-3.58,4.07-3.58-2.08-3.58-4.07S225,315.08,227.43,315.08Zm0,7c1.85,0,2.24-1.92,2.24-2.95s-.39-2.94-2.24-2.94-2.24,1.91-2.24,2.94S225.57,322.09,227.43,322.09Z" transform="translate(-38.83 -53.02)"/><path class="cls-7" d="M238.87,323h-1.22v-1.06h0a2.32,2.32,0,0,1-2.2,1.28c-2.62,0-3.38-2.46-3.38-4.3,0-2.16,1.16-3.84,3.21-3.84a2.61,2.61,0,0,1,2.29,1.31l0-.1v-3.86h1.3Zm-3.42-.9c.83,0,2.11-.54,2.11-2.59,0-1.25-.21-3.27-2.08-3.27s-2.1,1.9-2.1,2.89C233.38,320.82,234,322.1,235.45,322.1Z" transform="translate(-38.83 -53.02)"/><path class="cls-7" d="M245.64,323v-1.12l0,0a2.55,2.55,0,0,1-2.45,1.37,2.26,2.26,0,0,1-2.5-2.38V315.3H242v5.11c0,1.26.64,1.69,1.48,1.69,1.64,0,2.12-1.44,2.12-2.56V315.3h1.3V323Z" transform="translate(-38.83 -53.02)"/><path class="cls-7" d="M253.62,317.89a1.72,1.72,0,0,0-1.83-1.65c-1.61,0-2.12,1.53-2.12,2.9s.32,3,2.1,3a2,2,0,0,0,1.85-1.82h1.25a3.05,3.05,0,0,1-3.14,2.94c-2.16,0-3.44-1.63-3.44-3.86,0-2.38,1.14-4.28,3.69-4.28a2.78,2.78,0,0,1,2.89,2.81Z" transform="translate(-38.83 -53.02)"/><path class="cls-7" d="M257.78,316.37v5c0,.6.51.6.78.6H259v1c-.48,0-.84.1-1,.1-1.28,0-1.56-.72-1.56-1.65v-5.08h-1V315.3h1v-2.15h1.3v2.15H259v1.07Z" transform="translate(-38.83 -53.02)"/><path class="cls-7" d="M322.87,312.43v6.86c0,2.16-1.36,4-4.26,4s-4.06-1.83-4.06-3.8v-7.05H316v6.65c0,2.3,1.4,2.93,2.68,2.93a2.57,2.57,0,0,0,2.78-2.9v-6.68Z" transform="translate(-38.83 -53.02)"/><path class="cls-7" d="M329.2,317.49c0-.48-.19-1.29-1.83-1.29-.4,0-1.53.13-1.53,1.09,0,.63.4.78,1.4,1l1.29.32c1.61.4,2.17,1,2.17,2,0,1.59-1.31,2.55-3.05,2.55-3,0-3.27-1.77-3.31-2.69h1.25c0,.6.22,1.57,2.05,1.57.92,0,1.76-.37,1.76-1.22,0-.62-.42-.83-1.53-1.1l-1.5-.37c-1.08-.27-1.78-.81-1.78-1.87,0-1.7,1.4-2.46,2.91-2.46,2.76,0,2.95,2,2.95,2.41Z" transform="translate(-38.83 -53.02)"/><path class="cls-7" d="M338.63,320.58a3.33,3.33,0,0,1-1.37,2.11,3.26,3.26,0,0,1-2.09.53c-2.16,0-3.44-1.63-3.44-3.86,0-2.38,1.15-4.28,3.69-4.28,2.23,0,3.32,1.76,3.32,4.49h-5.63c0,1.6.75,2.53,2.24,2.53a2,2,0,0,0,2-1.52Zm-1.23-2c-.08-1.19-.58-2.3-2.15-2.3a2.26,2.26,0,0,0-2.14,2.3Z" transform="translate(-38.83 -53.02)"/><path class="cls-7" d="M341.57,323h-1.29v-7.7h1.22v1.28h0a2.5,2.5,0,0,1,2.16-1.5,1,1,0,0,1,.34,0v1.34h-.48a2,2,0,0,0-2,2.06Z" transform="translate(-38.83 -53.02)"/><path class="cls-7" d="M476.69,323h-1.42V312.43H480a2.89,2.89,0,0,1,3.14,3,3,3,0,0,1-3.14,3.14h-3.33Zm0-5.68h2.85c1.28,0,2.15-.48,2.15-1.9s-.92-1.77-2.09-1.77h-2.91Z" transform="translate(-38.83 -53.02)"/><path class="cls-7" d="M485.88,323h-1.3v-7.7h1.22v1.28h0a2.51,2.51,0,0,1,2.17-1.5,1.09,1.09,0,0,1,.34,0v1.34h-.49a2,2,0,0,0-2,2.06Z" transform="translate(-38.83 -53.02)"/><path class="cls-7" d="M492.36,315.08c2.46,0,3.57,2.07,3.57,4.06s-1.11,4.07-3.57,4.07-3.58-2.08-3.58-4.07S489.9,315.08,492.36,315.08Zm0,7c1.85,0,2.23-1.92,2.23-2.95s-.38-2.94-2.23-2.94-2.24,1.91-2.24,2.94S490.5,322.09,492.36,322.09Z" transform="translate(-38.83 -53.02)"/><path class="cls-7" d="M503.79,323h-1.22v-1.06h0a2.31,2.31,0,0,1-2.19,1.28c-2.62,0-3.39-2.46-3.39-4.3,0-2.16,1.16-3.84,3.21-3.84a2.61,2.61,0,0,1,2.3,1.31l0-.1v-3.86h1.29Zm-3.41-.9c.82,0,2.1-.54,2.1-2.59,0-1.25-.2-3.27-2.07-3.27s-2.11,1.9-2.11,2.89C498.3,320.82,499,322.1,500.38,322.1Z" transform="translate(-38.83 -53.02)"/><path class="cls-7" d="M510.56,323v-1.12l0,0a2.55,2.55,0,0,1-2.45,1.37,2.26,2.26,0,0,1-2.5-2.38V315.3h1.29v5.11c0,1.26.65,1.69,1.49,1.69,1.63,0,2.12-1.44,2.12-2.56V315.3h1.3V323Z" transform="translate(-38.83 -53.02)"/><path class="cls-7" d="M518.54,317.89a1.71,1.71,0,0,0-1.82-1.65c-1.61,0-2.12,1.53-2.12,2.9s.32,3,2.1,3a2,2,0,0,0,1.84-1.82h1.25a3,3,0,0,1-3.13,2.94c-2.17,0-3.45-1.63-3.45-3.86,0-2.38,1.15-4.28,3.7-4.28a2.77,2.77,0,0,1,2.88,2.81Z" transform="translate(-38.83 -53.02)"/><path class="cls-7" d="M522.71,316.37v5c0,.6.51.6.78.6h.45v1c-.47,0-.84.1-1,.1-1.28,0-1.56-.72-1.56-1.65v-5.08h-1V315.3h1v-2.15h1.3v2.15h1.23v1.07Z" transform="translate(-38.83 -53.02)"/><path class="cls-7" d="M587.8,312.43v6.86c0,2.16-1.36,4-4.26,4s-4.06-1.83-4.06-3.8v-7.05h1.43v6.65c0,2.3,1.39,2.93,2.67,2.93a2.57,2.57,0,0,0,2.79-2.9v-6.68Z" transform="translate(-38.83 -53.02)"/><path class="cls-7" d="M594.12,317.49c0-.48-.19-1.29-1.82-1.29-.4,0-1.53.13-1.53,1.09,0,.63.39.78,1.4,1l1.29.32c1.61.4,2.16,1,2.16,2,0,1.59-1.31,2.55-3,2.55-3.05,0-3.27-1.77-3.32-2.69h1.26c0,.6.22,1.57,2,1.57.93,0,1.77-.37,1.77-1.22,0-.62-.43-.83-1.53-1.1l-1.5-.37c-1.08-.27-1.79-.81-1.79-1.87,0-1.7,1.4-2.46,2.92-2.46,2.75,0,3,2,3,2.41Z" transform="translate(-38.83 -53.02)"/><path class="cls-7" d="M603.56,320.58a3.33,3.33,0,0,1-1.37,2.11,3.26,3.26,0,0,1-2.09.53c-2.17,0-3.45-1.63-3.45-3.86,0-2.38,1.15-4.28,3.7-4.28,2.22,0,3.31,1.76,3.31,4.49H598c0,1.6.75,2.53,2.24,2.53a1.94,1.94,0,0,0,2-1.52Zm-1.24-2c-.07-1.19-.57-2.3-2.15-2.3a2.26,2.26,0,0,0-2.13,2.3Z" transform="translate(-38.83 -53.02)"/><path class="cls-7" d="M606.5,323h-1.29v-7.7h1.22v1.28h0a2.49,2.49,0,0,1,2.16-1.5,1.05,1.05,0,0,1,.34,0v1.34h-.49a2,2,0,0,0-2,2.06Z" transform="translate(-38.83 -53.02)"/><path class="cls-7" d="M177.14,236.77c.22,0,.45,0,.67,0,1,0,2-.39,2-1.69,0-.62-.37-1.63-1.92-1.63-1.84,0-2,1.5-2,2.22h-1.26c0-1.52.62-3.39,3.34-3.39,2,0,3.2,1.15,3.2,2.73a2.08,2.08,0,0,1-1.33,2.13v0a2.31,2.31,0,0,1,1.72,2.42c0,1.69-1.09,3.32-3.72,3.32a4.15,4.15,0,0,1-1.92-.45,3.37,3.37,0,0,1-1.54-3h1.34c0,1,.28,2.28,2.21,2.28a2,2,0,0,0,2.25-2c0-1.74-1.53-1.9-2.42-1.9h-.58Z" transform="translate(-38.83 -53.02)"/><path class="cls-7" d="M184.74,242.66h-1.53V241.1h1.53Z" transform="translate(-38.83 -53.02)"/><path class="cls-7" d="M174.62,362.25c0-3.37,2.46-3.71,3.57-3.71a3,3,0,0,1,3.24,3.09c0,1.86-1.22,2.64-2.76,3.47l-1.08.58c-1.41.78-1.72,1.59-1.78,2h5.62v1.22h-7.08a4.53,4.53,0,0,1,2.43-4.1l1.37-.8c1.1-.63,1.9-1.06,1.9-2.41a1.85,1.85,0,0,0-2.05-1.87c-2,0-2,1.82-2.09,2.54Z" transform="translate(-38.83 -53.02)"/><path class="cls-7" d="M184.88,368.89h-1.53v-1.56h1.53Z" transform="translate(-38.83 -53.02)"/><path class="cls-7" d="M179.25,493.22h-1.38v-7.34h-2.41v-1c1.67-.12,2.37-.28,2.78-2h1Z" transform="translate(-38.83 -53.02)"/><path class="cls-7" d="M183.93,493.22H182.4v-1.56h1.53Z" transform="translate(-38.83 -53.02)"/><path class="cls-7" d="M443.48,240.13v2.52h-1.3v-2.52h-4.52v-1.26l4.74-6.57h1.08V239H445v1.12ZM438.85,239h3.33v-4.69h0Z" transform="translate(-38.83 -53.02)"/><path class="cls-7" d="M448,242.65h-1.53v-1.56H448Z" transform="translate(-38.83 -53.02)"/><path class="cls-7" d="M439.46,362.86a3.15,3.15,0,0,1,2-.65,3.28,3.28,0,0,1,3.4,3.31,3.45,3.45,0,0,1-3.76,3.64,3,3,0,0,1-3.34-2.86h1.34a1.94,1.94,0,0,0,2.2,1.74,2.21,2.21,0,0,0,2.18-2.37,2.17,2.17,0,0,0-2.3-2.3,2.42,2.42,0,0,0-1.92,1l-1.11-.06.78-5.55h5.36V360H439.9Z" transform="translate(-38.83 -53.02)"/><path class="cls-7" d="M448.11,368.88h-1.53v-1.56h1.53Z" transform="translate(-38.83 -53.02)"/><path class="cls-7" d="M443.43,485.61a1.69,1.69,0,0,0-1.78-1.59c-2,0-2.46,2.74-2.46,3.83l0,0a2.67,2.67,0,0,1,2.46-1.27,3.15,3.15,0,0,1,3.24,3.29,3.49,3.49,0,0,1-1,2.59,3,3,0,0,1-2.62,1,3.17,3.17,0,0,1-2.66-1.5,6.69,6.69,0,0,1-.8-3.6c0-2.26.74-5.53,3.83-5.53a2.86,2.86,0,0,1,3,2.75Zm-1.88,6.72a2.11,2.11,0,0,0,2-2.37,2,2,0,0,0-2.09-2.18,2,2,0,0,0-2.12,2.25A2.14,2.14,0,0,0,441.55,492.33Z" transform="translate(-38.83 -53.02)"/><path class="cls-7" d="M448.14,493.21h-1.53v-1.56h1.53Z" transform="translate(-38.83 -53.02)"/><rect class="cls-5" x="130.03" y="209.36" width="228.6" height="110.68"/><rect class="cls-5" x="130.03" y="334.43" width="228.6" height="110.68"/><rect class="cls-2" x="238.44" y="175.42" width="12.43" height="297.33"/><g class="cls-8"><rect class="cls-5" x="238.44" y="175.42" width="12.43" height="297.33"/><path d="M283.49,459.2a16.41,16.41,0,1,0-16.42-16.41,16.41,16.41,0,0,0,16.42,16.41" transform="translate(-38.83 -53.02)"/><path d="M283.16,335.33a16.42,16.42,0,1,0-16.41-16.41,16.42,16.42,0,0,0,16.41,16.41" transform="translate(-38.83 -53.02)"/></g><line class="cls-9" x1="235.27" y1="266.08" x2="253.4" y2="266.08"/><polyline class="cls-9" points="238.98 269.53 235.27 266.08 238.98 262.63"/><polyline class="cls-9" points="249.69 262.63 253.4 266.08 249.69 269.53"/><rect class="cls-2" x="160.45" y="98.19" width="167.78" height="81.06"/><rect class="cls-5" x="160.45" y="98.19" width="167.78" height="81.06"/><path class="cls-7" d="M211.77,197h-1.43V186.45h4.76a2.88,2.88,0,0,1,3.13,3,2.94,2.94,0,0,1-3.13,3.14h-3.33Zm0-5.68h2.84c1.28,0,2.15-.47,2.15-1.9s-.91-1.77-2.09-1.77h-2.9Z" transform="translate(-38.83 -53.02)"/><path class="cls-7" d="M221,197h-1.29v-7.7h1.22v1.28h0a2.49,2.49,0,0,1,2.16-1.5,1.05,1.05,0,0,1,.34,0v1.34h-.48a2,2,0,0,0-2,2.06Z" transform="translate(-38.83 -53.02)"/><path class="cls-7" d="M227.43,189.1c2.46,0,3.58,2.07,3.58,4.06s-1.12,4.07-3.58,4.07-3.58-2.08-3.58-4.07S225,189.1,227.43,189.1Zm0,7c1.85,0,2.24-1.92,2.24-3s-.39-2.94-2.24-2.94-2.24,1.91-2.24,2.94S225.57,196.11,227.43,196.11Z" transform="translate(-38.83 -53.02)"/><path class="cls-7" d="M238.87,197h-1.22V196h0a2.32,2.32,0,0,1-2.2,1.28c-2.62,0-3.38-2.46-3.38-4.3,0-2.16,1.16-3.84,3.21-3.84a2.61,2.61,0,0,1,2.29,1.31l0-.1v-3.86h1.3Zm-3.42-.9c.83,0,2.11-.54,2.11-2.59,0-1.25-.21-3.27-2.08-3.27s-2.1,1.9-2.1,2.89C233.38,194.84,234,196.12,235.45,196.12Z" transform="translate(-38.83 -53.02)"/><path class="cls-7" d="M245.64,197V195.9l0,0a2.55,2.55,0,0,1-2.45,1.37,2.26,2.26,0,0,1-2.5-2.38v-5.54H242v5.11c0,1.27.64,1.69,1.48,1.69,1.64,0,2.12-1.44,2.12-2.56v-4.24h1.3V197Z" transform="translate(-38.83 -53.02)"/><path class="cls-7" d="M253.62,191.91a1.72,1.72,0,0,0-1.83-1.65c-1.61,0-2.12,1.53-2.12,2.9s.32,3,2.1,3a2,2,0,0,0,1.85-1.82h1.25a3.05,3.05,0,0,1-3.14,2.94c-2.16,0-3.44-1.63-3.44-3.86s1.14-4.28,3.69-4.28a2.78,2.78,0,0,1,2.89,2.81Z" transform="translate(-38.83 -53.02)"/><path class="cls-7" d="M257.78,190.39v5c0,.6.51.6.78.6H259v1c-.48,0-.84.1-1,.1-1.28,0-1.56-.72-1.56-1.65v-5.08h-1v-1.07h1v-2.15h1.3v2.15H259v1.07Z" transform="translate(-38.83 -53.02)"/><path class="cls-7" d="M322.87,186.45v6.86c0,2.16-1.36,4-4.26,4s-4.06-1.83-4.06-3.8v-7.05H316v6.65c0,2.3,1.4,2.93,2.68,2.93a2.57,2.57,0,0,0,2.78-2.9v-6.68Z" transform="translate(-38.83 -53.02)"/><path class="cls-7" d="M329.2,191.51c0-.48-.19-1.29-1.83-1.29-.4,0-1.53.13-1.53,1.09,0,.63.4.78,1.4,1l1.29.32c1.61.4,2.17,1,2.17,2,0,1.59-1.31,2.55-3.05,2.55-3,0-3.27-1.77-3.31-2.69h1.25c0,.6.22,1.57,2.05,1.57.92,0,1.76-.37,1.76-1.22,0-.62-.42-.82-1.53-1.1l-1.5-.37c-1.08-.27-1.78-.81-1.78-1.87,0-1.7,1.4-2.46,2.91-2.46,2.76,0,2.95,2,2.95,2.41Z" transform="translate(-38.83 -53.02)"/><path class="cls-7" d="M338.63,194.61a3.34,3.34,0,0,1-1.37,2.1,3.26,3.26,0,0,1-2.09.53c-2.16,0-3.44-1.63-3.44-3.86s1.15-4.28,3.69-4.28c2.23,0,3.32,1.77,3.32,4.49h-5.63c0,1.6.75,2.53,2.24,2.53a2,2,0,0,0,2-1.51Zm-1.23-2.05c-.08-1.19-.58-2.3-2.15-2.3a2.26,2.26,0,0,0-2.14,2.3Z" transform="translate(-38.83 -53.02)"/><path class="cls-7" d="M341.57,197h-1.29v-7.7h1.22v1.28h0a2.5,2.5,0,0,1,2.16-1.5,1,1,0,0,1,.34,0v1.34h-.48a2,2,0,0,0-2,2.06Z" transform="translate(-38.83 -53.02)"/><g class="cls-8"><path d="M283.49,208.15a16.42,16.42,0,1,0-16.42-16.41,16.41,16.41,0,0,0,16.42,16.41" transform="translate(-38.83 -53.02)"/></g><line class="cls-9" x1="235.59" y1="138.9" x2="253.73" y2="138.9"/><polyline class="cls-9" points="239.31 142.35 235.59 138.9 239.31 135.44"/><polyline class="cls-9" points="250.01 135.44 253.73 138.9 250.01 142.35"/><g class="cls-8"><path class="cls-2" d="M548.73,332.51a16.42,16.42,0,1,0-16.42-16.41,16.41,16.41,0,0,0,16.42,16.41" transform="translate(-38.83 -53.02)"/><circle class="cls-10" cx="548.73" cy="316.1" r="16.41" transform="translate(-122.26 225.75) rotate(-26.57)"/></g><line class="cls-10" x1="500.83" y1="263.26" x2="518.96" y2="263.26"/><polyline class="cls-10" points="504.55 266.71 500.83 263.26 504.55 259.81"/><polyline class="cls-10" points="515.25 259.81 518.96 263.26 515.25 266.71"/><g class="cls-8"><path class="cls-2" d="M548.73,455a16.42,16.42,0,1,0-16.42-16.42A16.42,16.42,0,0,0,548.73,455" transform="translate(-38.83 -53.02)"/><circle class="cls-10" cx="548.73" cy="438.57" r="16.41" transform="translate(-164.89 190.35) rotate(-22.5)"/></g><rect class="cls-2" x="426.01" y="97.4" width="167.78" height="81.06"/><line class="cls-11" x1="426.01" y1="101.77" x2="426.01" y2="175.34"/><line class="cls-12" x1="430.36" y1="178.46" x2="590.68" y2="178.46"/><line class="cls-11" x1="593.78" y1="174.09" x2="593.78" y2="100.52"/><line class="cls-12" x1="589.43" y1="97.4" x2="429.12" y2="97.4"/><path class="cls-5" d="M466.7,150.42h-1.86v1.87m167.77,0v-1.87h-1.86m0,81.06h1.86v-1.86m-167.77,0v1.86h1.86" transform="translate(-38.83 -53.02)"/><path class="cls-7" d="M476.69,197h-1.43V186.45H480a2.89,2.89,0,0,1,3.14,3,2.94,2.94,0,0,1-3.14,3.14h-3.33Zm0-5.68h2.84c1.28,0,2.15-.47,2.15-1.9s-.91-1.77-2.09-1.77h-2.9Z" transform="translate(-38.83 -53.02)"/><path class="cls-7" d="M485.88,197h-1.3v-7.7h1.22v1.28h0a2.5,2.5,0,0,1,2.17-1.5,1,1,0,0,1,.33,0v1.34h-.48a2,2,0,0,0-2,2.06Z" transform="translate(-38.83 -53.02)"/><path class="cls-7" d="M492.35,189.1c2.46,0,3.58,2.07,3.58,4.06s-1.12,4.07-3.58,4.07-3.57-2.08-3.57-4.07S489.89,189.1,492.35,189.1Zm0,7c1.86,0,2.24-1.92,2.24-3s-.38-2.94-2.24-2.94-2.23,1.91-2.23,2.94S490.5,196.11,492.35,196.11Z" transform="translate(-38.83 -53.02)"/><path class="cls-7" d="M503.79,197h-1.22V196h0a2.31,2.31,0,0,1-2.19,1.28c-2.63,0-3.39-2.46-3.39-4.3,0-2.16,1.16-3.84,3.21-3.84a2.61,2.61,0,0,1,2.3,1.31l0-.1v-3.86h1.29Zm-3.41-.9c.82,0,2.1-.54,2.1-2.59,0-1.25-.21-3.27-2.08-3.27s-2.1,1.9-2.1,2.89C498.3,194.84,499,196.12,500.38,196.12Z" transform="translate(-38.83 -53.02)"/><path class="cls-7" d="M510.56,197V195.9l0,0a2.53,2.53,0,0,1-2.44,1.37,2.27,2.27,0,0,1-2.51-2.38v-5.54h1.3v5.11c0,1.27.65,1.69,1.49,1.69,1.63,0,2.12-1.44,2.12-2.56v-4.24h1.29V197Z" transform="translate(-38.83 -53.02)"/><path class="cls-7" d="M518.54,191.91a1.72,1.72,0,0,0-1.83-1.65c-1.6,0-2.12,1.53-2.12,2.9s.33,3,2.11,3a2,2,0,0,0,1.84-1.82h1.25a3,3,0,0,1-3.14,2.94c-2.16,0-3.44-1.63-3.44-3.86s1.15-4.28,3.69-4.28a2.78,2.78,0,0,1,2.89,2.81Z" transform="translate(-38.83 -53.02)"/><path class="cls-7" d="M522.7,190.39v5c0,.6.52.6.78.6h.46v1c-.47,0-.84.1-1,.1-1.28,0-1.56-.72-1.56-1.65v-5.08h-1v-1.07h1v-2.15h1.29v2.15h1.24v1.07Z" transform="translate(-38.83 -53.02)"/><path class="cls-7" d="M587.79,186.45v6.86c0,2.16-1.35,4-4.25,4s-4.07-1.83-4.07-3.8v-7.05h1.43v6.65c0,2.3,1.4,2.93,2.68,2.93a2.58,2.58,0,0,0,2.79-2.9v-6.68Z" transform="translate(-38.83 -53.02)"/><path class="cls-7" d="M594.12,191.51c0-.48-.19-1.29-1.83-1.29-.39,0-1.53.13-1.53,1.09,0,.63.4.78,1.4,1l1.3.32c1.6.4,2.16,1,2.16,2,0,1.59-1.31,2.55-3,2.55-3,0-3.26-1.77-3.31-2.69h1.25c0,.6.22,1.57,2,1.57.93,0,1.77-.37,1.77-1.22,0-.62-.43-.82-1.54-1.1l-1.5-.37c-1.07-.27-1.78-.81-1.78-1.87,0-1.7,1.4-2.46,2.92-2.46,2.75,0,2.94,2,2.94,2.41Z" transform="translate(-38.83 -53.02)"/><path class="cls-7" d="M603.56,194.61a3.38,3.38,0,0,1-1.37,2.1,3.31,3.31,0,0,1-2.09.53c-2.17,0-3.45-1.63-3.45-3.86s1.15-4.28,3.7-4.28c2.22,0,3.31,1.77,3.31,4.49H598c0,1.6.76,2.53,2.24,2.53a2,2,0,0,0,2-1.51Zm-1.24-2.05c-.07-1.19-.57-2.3-2.15-2.3a2.27,2.27,0,0,0-2.14,2.3Z" transform="translate(-38.83 -53.02)"/><path class="cls-7" d="M606.5,197h-1.3v-7.7h1.22v1.28h0a2.51,2.51,0,0,1,2.17-1.5,1.09,1.09,0,0,1,.34,0v1.34h-.49a2,2,0,0,0-2,2.06Z" transform="translate(-38.83 -53.02)"/><g class="cls-8"><circle class="cls-10" cx="548.73" cy="191.74" r="16.41" transform="translate(-70.43 171.56) rotate(-22.5)"/></g><line class="cls-10" x1="500.83" y1="138.9" x2="518.96" y2="138.9"/><polyline class="cls-10" points="504.55 142.35 500.83 138.9 504.55 135.44"/><polyline class="cls-10" points="515.25 135.44 518.96 138.9 515.25 142.35"/><path class="cls-7" d="M545,448h-2.38V430.41h7.93c3.26,0,5.23,2.11,5.23,5a4.91,4.91,0,0,1-5.23,5.22H545Zm0-9.47h4.74c2.13,0,3.58-.79,3.58-3.17,0-2.23-1.52-2.94-3.48-2.94H545Z" transform="translate(-38.83 -53.02)"/><path class="cls-2" d="M281.15,452.47h-2.38V434.85h7.92c3.27,0,5.23,2.11,5.23,5a4.91,4.91,0,0,1-5.23,5.22h-5.54Zm0-9.47h4.73c2.14,0,3.59-.79,3.59-3.17,0-2.23-1.53-2.94-3.49-2.94h-4.83Z" transform="translate(-38.83 -53.02)"/></svg>