<svg id="Capa_1" data-name="Capa 1" xmlns="http://www.w3.org/2000/svg" xmlns:xlink="http://www.w3.org/1999/xlink" viewBox="0 0 985.57 378.71"><defs><style>.cls-1,.cls-3{fill:none;}.cls-2{fill:#fff;}.cls-3{stroke:#1d1d1b;stroke-width:1.5px;}.cls-4{clip-path:url(#clip-path);}.cls-5{isolation:isolate;}.cls-6{fill:#1d1d1b;}</style><clipPath id="clip-path" transform="translate(0 -3.36)"><rect class="cls-1" y="-4.03" width="1003.45" height="386.1"/></clipPath></defs><rect class="cls-2" x="465.77" y="275.17" width="45.26" height="27.01"/><rect class="cls-3" x="465.77" y="275.17" width="45.26" height="27.01"/><rect class="cls-2" x="748.62" y="237.74" width="236.2" height="90.92"/><rect class="cls-3" x="748.62" y="237.74" width="236.2" height="90.92"/><rect class="cls-2" x="0.75" y="7.84" width="202.41" height="120.95"/><g class="cls-4"><rect class="cls-3" x="0.75" y="7.84" width="202.41" height="120.95"/></g><g class="cls-5"><g class="cls-5"><path class="cls-6" d="M779.76,270.23c-.15-3.33-2.91-4.38-5.34-4.38-1.83,0-4.92.51-4.92,3.78,0,1.83,1.29,2.43,2.55,2.73l6.15,1.41c2.79.66,4.89,2.34,4.89,5.76,0,5.1-4.74,6.51-8.43,6.51-4,0-5.55-1.2-6.51-2.07a6.63,6.63,0,0,1-2.19-5.46h2.73c0,3.9,3.18,5,5.94,5,2.1,0,5.64-.54,5.64-3.63,0-2.25-1-3-4.59-3.81l-4.41-1c-1.41-.33-4.59-1.32-4.59-5.07,0-3.36,2.19-6.66,7.41-6.66,7.53,0,8.28,4.5,8.4,6.87Z" transform="translate(0 -3.36)"/></g><g class="cls-5"><path class="cls-6" d="M804.3,285.47V272.75c0-.63.06-3.36.06-5.37h-.06l-6.06,18.09h-2.88l-6.06-18.06h-.06c0,2,.06,4.71.06,5.34v12.72h-2.82V263.93h4.17l6.15,18.21h.06L803,263.93h4.14v21.54Z" transform="translate(0 -3.36)"/></g><g class="cls-5"><path class="cls-6" d="M814.65,279.2l-2.25,6.27h-3l8.1-21.54h3.3l7.8,21.54h-3.18l-2.13-6.27Zm7.59-2.58-3.18-9.48H819l-3.45,9.48Z" transform="translate(0 -3.36)"/></g><g class="cls-5"><path class="cls-6" d="M834,285.47h-2.91V263.93h10c3.54,0,7.08,1.23,7.08,5.79a5.31,5.31,0,0,1-3,5.16c1.23.51,2.46,1.05,2.58,4.05l.18,3.9c0,1.2.18,1.65,1.08,2.16v.48h-3.57a26.41,26.41,0,0,1-.51-5.4c0-1.77-.36-3.84-3.84-3.84H834Zm0-11.73h6.75c2.13,0,4.38-.54,4.38-3.72s-2.43-3.6-3.87-3.6H834Z" transform="translate(0 -3.36)"/></g><g class="cls-5"><path class="cls-6" d="M850.08,263.93h17.49v2.58h-7.29v19h-2.91v-19h-7.29Z" transform="translate(0 -3.36)"/></g><g class="cls-5"><path class="cls-6" d="M872.94,285.47H870V263.93h9.69c4,0,6.39,2.58,6.39,6.06,0,3-1.71,6.39-6.39,6.39h-6.78Zm0-11.58h5.79c2.61,0,4.38-1,4.38-3.87,0-2.73-1.86-3.6-4.26-3.6h-5.91Z" transform="translate(0 -3.36)"/></g><g class="cls-5"><path class="cls-6" d="M903.06,263.93H906v21.54h-2.91V275.42H891.81v10.05H888.9V263.93h2.91v8.91h11.25Z" transform="translate(0 -3.36)"/><path class="cls-6" d="M919.65,286c-8,0-10.5-6.69-10.5-11.34s2.46-11.34,10.5-11.34,10.5,6.69,10.5,11.34S927.69,286,919.65,286Zm0-20.1c-4.68,0-7.5,3.69-7.5,8.76s2.82,8.76,7.5,8.76,7.5-3.69,7.5-8.76S924.33,265.94,919.65,265.94Z" transform="translate(0 -3.36)"/></g><g class="cls-5"><path class="cls-6" d="M947.79,263.93h2.82v21.54h-3.27l-11-17.4h-.06v17.4h-2.82V263.93H937l10.77,17.4h.06Z" transform="translate(0 -3.36)"/></g><g class="cls-5"><path class="cls-6" d="M971,285.47h-15.9V263.93H970.8v2.58H958v6.6h11.79v2.58H958v7.2h13Z" transform="translate(0 -3.36)"/></g></g><g class="cls-4"><path class="cls-2" d="M100.88,381.32A89.31,89.31,0,1,0,11.56,292a89.32,89.32,0,0,0,89.32,89.31h0" transform="translate(0 -3.36)"/><ellipse class="cls-3" cx="100.88" cy="288.65" rx="89.32" ry="89.31"/></g><g class="cls-5"><g class="cls-5"><path class="cls-6" d="M54.34,273.18h2.82v21.54H53.89l-11-17.4h-.06v17.4H40.06V273.18h3.45l10.77,17.4h.06Z" transform="translate(0 -3.36)"/></g><g class="cls-5"><path class="cls-6" d="M64.6,294.72H61.69V273.18H76.6v2.58h-12v6.6H75.16v2.58H64.6Z" transform="translate(0 -3.36)"/></g><g class="cls-5"><path class="cls-6" d="M94,279.66c-.81-3.78-4-4.47-6-4.47-3.9,0-7,2.88-7,8.55,0,5.07,1.8,9,7.14,9,1.89,0,5.16-.9,6.15-5.91H97c-1.2,8.13-7.8,8.49-9.42,8.49-4.89,0-9.69-3.18-9.69-11.46,0-6.63,3.78-11.22,10-11.22,5.55,0,8.43,3.45,8.85,7.05Z" transform="translate(0 -3.36)"/></g><g class="cls-5"><path class="cls-6" d="M107,273.18h17.49v2.58h-7.29v19h-2.91v-19H107Z" transform="translate(0 -3.36)"/></g><g class="cls-5"><path class="cls-6" d="M127.6,288.45l-2.25,6.27h-3l8.1-21.54h3.3l7.8,21.54h-3.18l-2.13-6.27Zm7.59-2.58L132,276.39H132l-3.45,9.48Z" transform="translate(0 -3.36)"/></g><g class="cls-5"><path class="cls-6" d="M152.35,283.2h9.45v11.52h-1.89l-.69-2.79a8.79,8.79,0,0,1-7.11,3.36,8.63,8.63,0,0,1-6.6-2.43c-3.3-3.12-3.39-6.81-3.39-9.09,0-5.25,3.18-11.16,10.2-11.16,4,0,8.49,2.28,9.12,7.11h-2.82c-.93-3.75-4.08-4.53-6.45-4.53-3.87,0-7,3.09-7,8.73,0,4.38,1.44,8.88,7.17,8.88a6.85,6.85,0,0,0,4.41-1.38c1.89-1.5,2.37-3.42,2.37-5.73h-6.72Z" transform="translate(0 -3.36)"/></g></g><g class="cls-5"><g class="cls-5"><path class="cls-6" d="M62.92,306.44v-1.8H64.5v1.8Zm1.58,11.13H62.92v-9.42H64.5Z" transform="translate(0 -3.36)"/></g><g class="cls-5"><path class="cls-6" d="M74.42,317.57H72.84v-5.8c0-1.64-.47-2.46-2-2.46-.9,0-2.49.57-2.49,3.13v5.13H66.75v-9.42h1.5v1.34h0a3.41,3.41,0,0,1,2.85-1.61,3,3,0,0,1,3.29,3.28Z" transform="translate(0 -3.36)"/></g><g class="cls-5"><path class="cls-6" d="M83.54,309.47v6.12c0,.74.64.74,1,.74h.56v1.24c-.58.05-1,.13-1.19.13-1.57,0-1.91-.89-1.91-2v-6.21H80.68v-1.32H82v-2.63h1.58v2.63h1.52v1.32Z" transform="translate(0 -3.36)"/></g><g class="cls-5"><path class="cls-6" d="M94.2,317.57H92.62v-6.16c0-1.28-.36-2.1-1.88-2.1-1.29,0-2.63.75-2.63,3.13v5.13H86.53V304.64h1.58v4.77h0a3.33,3.33,0,0,1,2.76-1.53,3,3,0,0,1,3.29,3.28Z" transform="translate(0 -3.36)"/></g><g class="cls-5"><path class="cls-6" d="M104.44,314.62a3.92,3.92,0,0,1-4.23,3.22c-2.64,0-4.21-2-4.21-4.72,0-2.91,1.4-5.24,4.52-5.24,2.72,0,4,2.16,4,5.49H97.69c0,2,.92,3.1,2.74,3.1a2.39,2.39,0,0,0,2.43-1.85Zm-1.51-2.51c-.09-1.45-.7-2.8-2.63-2.8a2.76,2.76,0,0,0-2.61,2.8Z" transform="translate(0 -3.36)"/></g><g class="cls-5"><path class="cls-6" d="M119,317.57h-1.58v-6.16c0-1.28-.36-2.1-1.88-2.1-1.29,0-2.63.75-2.63,3.13v5.13H111.3V304.64h1.58v4.77h0a3.33,3.33,0,0,1,2.76-1.53,3,3,0,0,1,3.29,3.28Z" transform="translate(0 -3.36)"/></g><g class="cls-5"><path class="cls-6" d="M125.08,307.88c3,0,4.37,2.54,4.37,5s-1.37,5-4.37,5-4.38-2.54-4.38-5S122.07,307.88,125.08,307.88Zm0,8.57c2.26,0,2.73-2.34,2.73-3.6s-.47-3.6-2.73-3.6-2.74,2.34-2.74,3.6S122.81,316.45,125.08,316.45Z" transform="translate(0 -3.36)"/><path class="cls-6" d="M131.12,317.57V304.64h1.59v4.7h0a3.22,3.22,0,0,1,2.72-1.46c2.5,0,3.93,2.06,3.93,4.7,0,2.25-.94,5.26-4.14,5.26a2.83,2.83,0,0,1-2.6-1.44h0v1.17Zm4-8.26c-2.28,0-2.54,2.46-2.54,4,0,2.51,1.57,3.17,2.58,3.17,1.73,0,2.54-1.57,2.54-3.64C137.75,311.63,137.62,309.31,135.17,309.31Z" transform="translate(0 -3.36)"/></g></g><g class="cls-5"><g class="cls-5"><path class="cls-6" d="M808.31,311.33h-1.64L804,301.91h1.73l1.8,7.4h0l1.82-7.4h1.76l1.84,7.4h0l1.91-7.4h1.59l-2.74,9.42h-1.64L810.18,304h0Z" transform="translate(0 -3.36)"/></g><g class="cls-5"><path class="cls-6" d="M817.82,300.2v-1.8h1.58v1.8Zm1.58,11.13h-1.58v-9.42h1.58Z" transform="translate(0 -3.36)"/></g><g class="cls-5"><path class="cls-6" d="M823.6,303.23v6.12c0,.74.64.74,1,.74h.56v1.24c-.58.05-1,.13-1.19.13-1.57,0-1.91-.89-1.91-2v-6.21h-1.28v-1.32H822v-2.63h1.58v2.63h1.52v1.32Z" transform="translate(0 -3.36)"/></g><g class="cls-5"><path class="cls-6" d="M834.27,311.33h-1.58v-6.16c0-1.28-.36-2.1-1.88-2.1-1.29,0-2.63.75-2.63,3.13v5.13H826.6V298.4h1.58v4.77h0a3.33,3.33,0,0,1,2.76-1.53,3,3,0,0,1,3.29,3.28Z" transform="translate(0 -3.36)"/></g><g class="cls-5"><path class="cls-6" d="M850.38,298.4h1.69v12.93h-2l-6.57-10.44h0v10.44h-1.69V298.4h2.07l6.46,10.45h0Z" transform="translate(0 -3.36)"/></g><g class="cls-5"><path class="cls-6" d="M856.6,311.33h-1.74V298.4h8.95V300H856.6v4h6.34v1.55H856.6Z" transform="translate(0 -3.36)"/></g><g class="cls-5"><path class="cls-6" d="M874.31,302.29a3.36,3.36,0,0,0-3.62-2.68c-2.34,0-4.23,1.73-4.23,5.13,0,3,1.08,5.38,4.29,5.38,1.13,0,3.09-.54,3.69-3.54h1.69a5.45,5.45,0,0,1-5.65,5.09c-2.94,0-5.82-1.91-5.82-6.88,0-4,2.27-6.73,6-6.73,3.34,0,5.06,2.07,5.32,4.23Z" transform="translate(0 -3.36)"/></g><g class="cls-5"><path class="cls-6" d="M884.84,311.33h-1.58v-9.42h1.49v1.57h0a3.06,3.06,0,0,1,2.64-1.84,1.21,1.21,0,0,1,.42.06v1.64h-.6a2.39,2.39,0,0,0-2.41,2.52Z" transform="translate(0 -3.36)"/></g><g class="cls-5"><path class="cls-6" d="M896.86,308.38a3.92,3.92,0,0,1-4.23,3.22c-2.64,0-4.21-2-4.21-4.72,0-2.91,1.4-5.24,4.52-5.24,2.72,0,4,2.16,4,5.49h-6.88c0,2,.92,3.1,2.74,3.1a2.39,2.39,0,0,0,2.43-1.85Zm-1.51-2.51c-.09-1.45-.7-2.8-2.63-2.8a2.76,2.76,0,0,0-2.61,2.8Z" transform="translate(0 -3.36)"/></g><g class="cls-5"><path class="cls-6" d="M898.69,304.78c.07-2.25,1.56-3.14,3.89-3.14.75,0,3.49.22,3.49,2.63v5.42c0,.4.2.56.52.56a3.75,3.75,0,0,0,.52-.07v1.15a3,3,0,0,1-.86.18c-1.41,0-1.62-.72-1.68-1.44a4.25,4.25,0,0,1-3.4,1.53,2.71,2.71,0,0,1-2.95-2.72c0-.79.23-2.63,2.86-2.95l2.61-.33c.38,0,.83-.18.83-1.11s-.72-1.53-2.21-1.53a1.88,1.88,0,0,0-2.17,1.82Zm5.79,1.74c-.25.2-.64.34-2.61.6-.77.1-2,.34-2,1.53a1.49,1.49,0,0,0,1.71,1.64c1.47,0,2.91-1,2.91-2.22Z" transform="translate(0 -3.36)"/></g><g class="cls-5"><path class="cls-6" d="M916.33,311.33h-1.5V310h0a2.83,2.83,0,0,1-2.68,1.57c-3.2,0-4.14-3-4.14-5.26,0-2.65,1.42-4.7,3.93-4.7a3.14,3.14,0,0,1,2.8,1.61l0-.13V298.4h1.59Zm-4.18-1.1c1,0,2.57-.66,2.57-3.17,0-1.53-.25-4-2.54-4-2.45,0-2.57,2.32-2.57,3.52C909.61,308.66,910.42,310.23,912.15,310.23Z" transform="translate(0 -3.36)"/></g><g class="cls-5"><path class="cls-6" d="M926.51,308.38a3.92,3.92,0,0,1-4.23,3.22c-2.64,0-4.21-2-4.21-4.72,0-2.91,1.4-5.24,4.52-5.24,2.72,0,4,2.16,4,5.49h-6.88c0,2,.92,3.1,2.74,3.1a2.39,2.39,0,0,0,2.43-1.85ZM925,305.87c-.09-1.45-.7-2.8-2.63-2.8a2.77,2.77,0,0,0-2.61,2.8Z" transform="translate(0 -3.36)"/></g><g class="cls-5"><path class="cls-6" d="M930.13,311.33h-1.58v-9.42H930v1.57h0a3.06,3.06,0,0,1,2.64-1.84,1.21,1.21,0,0,1,.42.06v1.64h-.6a2.39,2.39,0,0,0-2.41,2.52Z" transform="translate(0 -3.36)"/></g></g><line class="cls-3" x1="520.53" y1="287.97" x2="727.22" y2="287.97"/><polyline class="cls-3" points="722.67 283.75 727.22 287.97 722.67 292.2"/><g class="cls-5"><g class="cls-5"><path class="cls-6" d="M414.77,291.07c0-.6-.24-1.59-2.23-1.59-.49,0-1.88.16-1.88,1.33,0,.78.49,1,1.71,1.26l1.59.4c2,.49,2.64,1.21,2.64,2.49,0,1.94-1.6,3.11-3.72,3.11-3.73,0-4-2.16-4.05-3.29h1.53c.05.73.27,1.92,2.5,1.92,1.13,0,2.16-.45,2.16-1.49,0-.76-.52-1-1.87-1.35l-1.84-.45c-1.31-.33-2.18-1-2.18-2.29,0-2.07,1.71-3,3.57-3,3.36,0,3.6,2.49,3.6,3Z" transform="translate(0 -3.36)"/></g><g class="cls-5"><path class="cls-6" d="M426.3,294.85a3.92,3.92,0,0,1-4.23,3.22c-2.64,0-4.21-2-4.21-4.72,0-2.91,1.4-5.24,4.52-5.24,2.72,0,4.05,2.16,4.05,5.5h-6.88c0,2,.92,3.09,2.74,3.09a2.39,2.39,0,0,0,2.43-1.85Zm-1.51-2.51c-.09-1.45-.7-2.8-2.63-2.8a2.77,2.77,0,0,0-2.61,2.8Z" transform="translate(0 -3.36)"/></g><g class="cls-5"><path class="cls-6" d="M435.9,297.8h-1.58V292c0-1.64-.47-2.46-2-2.46-.9,0-2.49.57-2.49,3.13v5.13h-1.58v-9.42h1.5v1.34h0a3.41,3.41,0,0,1,2.85-1.61,3,3,0,0,1,3.29,3.28Z" transform="translate(0 -3.36)"/></g><g class="cls-5"><path class="cls-6" d="M446,297.8h-1.5v-1.3h0a2.83,2.83,0,0,1-2.68,1.57c-3.2,0-4.14-3-4.14-5.26,0-2.64,1.42-4.7,3.93-4.7a3.16,3.16,0,0,1,2.8,1.61l0-.13v-4.72H446Zm-4.18-1.1c1,0,2.57-.66,2.57-3.17,0-1.53-.25-4-2.54-4-2.45,0-2.57,2.32-2.57,3.53C439.28,295.14,440.09,296.7,441.82,296.7Z" transform="translate(0 -3.36)"/><path class="cls-6" d="M453.54,291.07c0-.6-.24-1.59-2.24-1.59-.48,0-1.87.16-1.87,1.33,0,.78.49,1,1.71,1.26l1.59.4c2,.49,2.64,1.21,2.64,2.49,0,1.94-1.6,3.11-3.72,3.11-3.73,0-4-2.16-4.06-3.29h1.53c.06.73.27,1.92,2.51,1.92,1.13,0,2.16-.45,2.16-1.49,0-.76-.52-1-1.87-1.35l-1.84-.45c-1.32-.33-2.18-1-2.18-2.29,0-2.07,1.71-3,3.56-3,3.37,0,3.61,2.49,3.61,3Z" transform="translate(0 -3.36)"/><path class="cls-6" d="M480,297.8h-1.49v-1.3h0a2.83,2.83,0,0,1-2.68,1.57c-3.2,0-4.14-3-4.14-5.26,0-2.64,1.42-4.7,3.92-4.7a3.17,3.17,0,0,1,2.81,1.61l0-.13v-4.72H480Zm-4.17-1.1c1,0,2.57-.66,2.57-3.17,0-1.53-.25-4-2.54-4-2.45,0-2.57,2.32-2.57,3.53C473.3,295.14,474.11,296.7,475.84,296.7Z" transform="translate(0 -3.36)"/></g><g class="cls-5"><path class="cls-6" d="M482.16,291.25c.07-2.25,1.56-3.14,3.89-3.14.75,0,3.49.22,3.49,2.63v5.42c0,.4.2.56.52.56a3.75,3.75,0,0,0,.52-.07v1.15a3,3,0,0,1-.86.18c-1.41,0-1.62-.72-1.68-1.44a4.25,4.25,0,0,1-3.4,1.53,2.71,2.71,0,0,1-2.95-2.72c0-.79.23-2.63,2.86-3l2.61-.33c.38,0,.83-.18.83-1.11s-.72-1.53-2.21-1.53a1.89,1.89,0,0,0-2.17,1.82ZM488,293c-.25.2-.64.35-2.61.6-.77.1-2,.34-2,1.53a1.49,1.49,0,0,0,1.71,1.64c1.47,0,2.91-1,2.91-2.22Z" transform="translate(0 -3.36)"/></g><g class="cls-5"><path class="cls-6" d="M493.84,289.7v6.12c0,.74.64.74,1,.74h.56v1.24c-.58.05-1,.13-1.19.13-1.57,0-1.91-.89-1.91-2V289.7H491v-1.32h1.28v-2.63h1.58v2.63h1.52v1.32Z" transform="translate(0 -3.36)"/></g><g class="cls-5"><path class="cls-6" d="M496.83,291.25c.07-2.25,1.56-3.14,3.89-3.14.75,0,3.49.22,3.49,2.63v5.42c0,.4.2.56.52.56a3.56,3.56,0,0,0,.52-.07v1.15a3,3,0,0,1-.86.18c-1.41,0-1.62-.72-1.68-1.44a4.25,4.25,0,0,1-3.4,1.53,2.71,2.71,0,0,1-2.95-2.72c0-.79.23-2.63,2.86-3l2.61-.33c.38,0,.83-.18.83-1.11s-.72-1.53-2.21-1.53a1.87,1.87,0,0,0-2.16,1.82Zm5.79,1.74c-.25.2-.64.35-2.61.6-.77.1-2,.34-2,1.53a1.49,1.49,0,0,0,1.71,1.64c1.47,0,2.91-1,2.91-2.22Z" transform="translate(0 -3.36)"/></g></g><g class="cls-5"><g class="cls-5"><path class="cls-6" d="M25.25,52.76H22.34V31.22h2.91Z" transform="translate(0 -3.36)"/></g><g class="cls-5"><path class="cls-6" d="M44,31.22h2.82V52.76H43.58L32.63,35.36h-.06v17.4H29.75V31.22H33.2L44,48.62H44Z" transform="translate(0 -3.36)"/></g><g class="cls-5"><path class="cls-6" d="M51.29,31.22H60c5.61,0,9.06,4.26,9.06,10.47,0,4.83-2.1,11.07-9.18,11.07H51.29ZM54.2,50.27h5.64c3.78,0,6.24-3,6.24-8.4s-2.49-8.16-6.45-8.16H54.2Z" transform="translate(0 -3.36)"/></g><g class="cls-5"><path class="cls-6" d="M89.39,31.22v14c0,4.41-2.76,8.13-8.67,8.13s-8.28-3.72-8.28-7.74V31.22h2.91V44.78c0,4.68,2.85,6,5.46,6s5.67-1.23,5.67-5.91V31.22Z" transform="translate(0 -3.36)"/></g><g class="cls-5"><path class="cls-6" d="M108.77,37.7c-.81-3.78-4-4.47-6-4.47-3.9,0-7,2.88-7,8.55,0,5.07,1.8,9,7.14,9,1.89,0,5.16-.9,6.15-5.91h2.82c-1.2,8.13-7.8,8.49-9.42,8.49-4.89,0-9.69-3.18-9.69-11.46,0-6.63,3.78-11.22,10-11.22,5.55,0,8.43,3.45,8.85,7.05Z" transform="translate(0 -3.36)"/></g><g class="cls-5"><path class="cls-6" d="M112.88,31.22h17.49V33.8h-7.29v19h-2.91v-19h-7.29Z" transform="translate(0 -3.36)"/></g><g class="cls-5"><path class="cls-6" d="M135.8,52.76h-2.91V31.22h2.91Z" transform="translate(0 -3.36)"/></g><g class="cls-5"><path class="cls-6" d="M149.75,53.33c-8,0-10.5-6.69-10.5-11.34s2.46-11.34,10.5-11.34,10.5,6.69,10.5,11.34S157.79,53.33,149.75,53.33Zm0-20.1c-4.68,0-7.5,3.69-7.5,8.76s2.82,8.76,7.5,8.76,7.5-3.69,7.5-8.76S154.43,33.23,149.75,33.23Z" transform="translate(0 -3.36)"/></g><g class="cls-5"><path class="cls-6" d="M177.8,31.22h2.82V52.76h-3.27L166.4,35.36h-.06v17.4h-2.82V31.22H167l10.77,17.4h.06Z" transform="translate(0 -3.36)"/></g></g><g class="cls-5"><g class="cls-5"><path class="cls-6" d="M85.31,67.22h2.91V88.76H85.31V78.71H74.06V88.76H71.15V67.22h2.91v8.91H85.31Z" transform="translate(0 -3.36)"/></g><g class="cls-5"><path class="cls-6" d="M102,89.33c-8,0-10.5-6.69-10.5-11.34S94,66.65,102,66.65s10.5,6.69,10.5,11.34S110.06,89.33,102,89.33Zm0-20.1c-4.68,0-7.5,3.69-7.5,8.76s2.82,8.76,7.5,8.76,7.5-3.69,7.5-8.76S106.7,69.23,102,69.23Z" transform="translate(0 -3.36)"/></g><g class="cls-5"><path class="cls-6" d="M115.79,67.22h9.48c4,0,6.09,2.49,6.09,5.43a4.74,4.74,0,0,1-2.88,4.5c1.41.57,3.9,1.56,3.9,5.25,0,3.45-2.55,6.36-7.32,6.36h-9.27Zm2.91,9.12H124c2.79,0,4.5-.84,4.5-3.48,0-2-1.23-3.15-4.47-3.15H118.7Zm0,9.93h6.21c3,0,4.56-1.53,4.56-3.93,0-3-2.67-3.63-5-3.63H118.7Z" transform="translate(0 -3.36)"/></g></g><line class="cls-3" x1="101.95" y1="192.53" x2="101.95" y2="176.17"/><polyline class="cls-3" points="106.18 187.99 101.95 192.53 97.73 187.99"/><line class="cls-3" x1="489.06" y1="265.91" x2="489.06" y2="12.43"/><g class="cls-5"><g class="cls-5"><path class="cls-6" d="M509.76,18.63l-2.25,6.27h-3l8.1-21.54h3.3l7.8,21.54h-3.18l-2.13-6.27Zm7.59-2.58-3.18-9.48h-.06l-3.45,9.48Z" transform="translate(0 -3.36)"/></g><g class="cls-5"><path class="cls-6" d="M529.11,24.9H526.2V3.36h9.69c4,0,6.39,2.58,6.39,6.06,0,3-1.71,6.39-6.39,6.39h-6.78Zm0-11.58h5.79c2.61,0,4.38-1,4.38-3.87,0-2.73-1.86-3.6-4.26-3.6h-5.91Z" transform="translate(0 -3.36)"/></g><g class="cls-5"><path class="cls-6" d="M548.16,24.9h-2.91V3.36h9.69c4,0,6.39,2.58,6.39,6.06,0,3-1.71,6.39-6.39,6.39h-6.78Zm0-11.58H554c2.61,0,4.38-1,4.38-3.87,0-2.73-1.86-3.6-4.26-3.6h-5.91Z" transform="translate(0 -3.36)"/></g></g><g class="cls-5"><g class="cls-5"><path class="cls-6" d="M521.49,67.11c-.81-3.78-4-4.47-6-4.47-3.9,0-7.05,2.88-7.05,8.55,0,5.07,1.8,9,7.14,9,1.89,0,5.16-.9,6.15-5.91h2.82c-1.2,8.13-7.8,8.49-9.42,8.49-4.89,0-9.69-3.18-9.69-11.46,0-6.63,3.78-11.22,10.05-11.22,5.55,0,8.43,3.45,8.85,7Z" transform="translate(0 -3.36)"/></g><g class="cls-5"><path class="cls-6" d="M540.63,66.93c-.15-3.33-2.91-4.38-5.34-4.38-1.83,0-4.92.51-4.92,3.78,0,1.83,1.29,2.43,2.55,2.73l6.15,1.41c2.79.66,4.89,2.34,4.89,5.76,0,5.1-4.74,6.51-8.43,6.51-4,0-5.55-1.2-6.51-2.07a6.63,6.63,0,0,1-2.19-5.46h2.73c0,3.9,3.18,5,5.94,5,2.1,0,5.64-.54,5.64-3.63,0-2.25-1-3-4.59-3.81l-4.41-1c-1.41-.33-4.59-1.32-4.59-5.07,0-3.36,2.19-6.66,7.41-6.66,7.53,0,8.28,4.5,8.4,6.87Z" transform="translate(0 -3.36)"/></g><g class="cls-5"><path class="cls-6" d="M560.4,60.63h3.27l-7.86,21.54h-3.09l-7.86-21.54h3.24L554.25,79h.06Z" transform="translate(0 -3.36)"/></g></g><line class="cls-3" x1="488.31" y1="13.18" x2="497.57" y2="13.18"/><line class="cls-3" x1="489.06" y1="69.69" x2="498.32" y2="69.69"/><g class="cls-5"><g class="cls-5"><path class="cls-6" d="M572.34,15.16h-4.41V13.54h4.41Z" transform="translate(0 -3.36)"/><path class="cls-6" d="M583.14,9.65c3,0,4.38,2.54,4.38,5s-1.37,5-4.38,5-4.37-2.54-4.37-5S580.14,9.65,583.14,9.65Zm0,8.57c2.27,0,2.74-2.34,2.74-3.6s-.47-3.6-2.74-3.6-2.73,2.34-2.73,3.6S580.88,18.22,583.14,18.22Z" transform="translate(0 -3.36)"/></g><g class="cls-5"><path class="cls-6" d="M589.19,9.92h1.5v1.34h0a3.17,3.17,0,0,1,2.81-1.61c2.51,0,3.93,2.06,3.93,4.7,0,2.25-.94,5.26-4.14,5.26a2.81,2.81,0,0,1-2.5-1.26h0v4.72h-1.59Zm4.09,8.32c1.73,0,2.54-1.57,2.54-3.64,0-1.2-.13-3.52-2.57-3.52-2.29,0-2.54,2.46-2.54,4C590.71,17.58,592.27,18.24,593.28,18.24Z" transform="translate(0 -3.36)"/></g><g class="cls-5"><path class="cls-6" d="M607.24,16.39A3.92,3.92,0,0,1,603,19.61c-2.64,0-4.21-2-4.21-4.72,0-2.91,1.4-5.24,4.52-5.24,2.72,0,4,2.16,4,5.49h-6.88c0,2,.92,3.1,2.74,3.1a2.39,2.39,0,0,0,2.43-1.85Zm-1.51-2.51c-.09-1.45-.7-2.8-2.63-2.8a2.76,2.76,0,0,0-2.61,2.8Z" transform="translate(0 -3.36)"/><path class="cls-6" d="M616.93,19.34h-1.59v-5.8c0-1.64-.46-2.46-2-2.46-.9,0-2.49.57-2.49,3.13v5.13h-1.58V9.92h1.49v1.34h0a3.39,3.39,0,0,1,2.84-1.61,3,3,0,0,1,3.3,3.28Z" transform="translate(0 -3.36)"/></g><g class="cls-5"><path class="cls-6" d="M624.44,12.61c0-.6-.24-1.59-2.23-1.59-.49,0-1.88.16-1.88,1.33,0,.78.49,1,1.71,1.26l1.59.4c2,.49,2.64,1.21,2.64,2.49,0,1.94-1.6,3.11-3.72,3.11-3.73,0-4-2.16-4-3.3H620c.05.74.27,1.93,2.5,1.93,1.13,0,2.16-.45,2.16-1.49,0-.76-.52-1-1.87-1.35L621,15c-1.31-.33-2.18-1-2.18-2.29,0-2.07,1.71-3,3.57-3,3.36,0,3.6,2.49,3.6,3Z" transform="translate(0 -3.36)"/></g><g class="cls-5"><path class="cls-6" d="M635,11.24v6.12c0,.74.63.74,1,.74h.56v1.24c-.58.05-1,.13-1.19.13-1.57,0-1.91-.89-1.91-2V11.24h-1.28V9.92h1.28V7.29H635V9.92h1.51v1.32Z" transform="translate(0 -3.36)"/></g><g class="cls-5"><path class="cls-6" d="M645.69,19.34h-1.58V13.18c0-1.28-.36-2.1-1.88-2.1-1.29,0-2.63.75-2.63,3.13v5.13H638V6.41h1.58v4.77h0a3.33,3.33,0,0,1,2.76-1.53,3,3,0,0,1,3.29,3.28Z" transform="translate(0 -3.36)"/></g><g class="cls-5"><path class="cls-6" d="M655.93,16.39a3.92,3.92,0,0,1-4.23,3.22c-2.64,0-4.21-2-4.21-4.72,0-2.91,1.4-5.24,4.52-5.24,2.72,0,4,2.16,4,5.49h-6.88c0,2,.92,3.1,2.74,3.1a2.39,2.39,0,0,0,2.43-1.85Zm-1.51-2.51c-.09-1.45-.7-2.8-2.63-2.8a2.76,2.76,0,0,0-2.61,2.8Z" transform="translate(0 -3.36)"/></g><g class="cls-5"><path class="cls-6" d="M672.87,19.34h-9.54V6.41h9.42V8h-7.67v4h7.07v1.55h-7.07v4.32h7.79Z" transform="translate(0 -3.36)"/></g><g class="cls-5"><path class="cls-6" d="M676.24,19.34h-1.58V6.41h1.58Z" transform="translate(0 -3.36)"/></g><g class="cls-5"><path class="cls-6" d="M686.51,16.39a3.92,3.92,0,0,1-4.23,3.22c-2.64,0-4.21-2-4.21-4.72,0-2.91,1.4-5.24,4.52-5.24,2.72,0,4,2.16,4,5.49h-6.88c0,2,.92,3.1,2.74,3.1a2.39,2.39,0,0,0,2.43-1.85ZM685,13.88c-.09-1.45-.7-2.8-2.63-2.8a2.77,2.77,0,0,0-2.61,2.8Z" transform="translate(0 -3.36)"/></g><g class="cls-5"><path class="cls-6" d="M694.42,13.09a2.09,2.09,0,0,0-2.23-2c-2,0-2.6,1.87-2.6,3.54s.4,3.62,2.58,3.62A2.4,2.4,0,0,0,694.42,16H696a3.72,3.72,0,0,1-3.84,3.6c-2.64,0-4.21-2-4.21-4.72,0-2.91,1.4-5.24,4.52-5.24A3.4,3.4,0,0,1,696,13.09Z" transform="translate(0 -3.36)"/></g><g class="cls-5"><path class="cls-6" d="M699.51,11.24v6.12c0,.74.64.74,1,.74H701v1.24c-.58.05-1,.13-1.19.13-1.57,0-1.91-.89-1.91-2V11.24h-1.28V9.92h1.28V7.29h1.58V9.92H701v1.32Z" transform="translate(0 -3.36)"/></g><g class="cls-5"><path class="cls-6" d="M704.19,19.34h-1.58V9.92h1.49v1.57h0a3.06,3.06,0,0,1,2.64-1.84,1.21,1.21,0,0,1,.42.06v1.64h-.6a2.39,2.39,0,0,0-2.41,2.52Z" transform="translate(0 -3.36)"/></g><g class="cls-5"><path class="cls-6" d="M712.12,9.65c3,0,4.37,2.54,4.37,5s-1.37,5-4.37,5-4.38-2.54-4.38-5S709.11,9.65,712.12,9.65Zm0,8.57c2.26,0,2.73-2.34,2.73-3.6s-.47-3.6-2.73-3.6-2.74,2.34-2.74,3.6S709.85,18.22,712.12,18.22Z" transform="translate(0 -3.36)"/></g><g class="cls-5"><path class="cls-6" d="M719.87,19.34h-1.58V6.41h1.58Z" transform="translate(0 -3.36)"/></g><g class="cls-5"><path class="cls-6" d="M728.22,19.34V18l0,0a3.1,3.1,0,0,1-3,1.67,2.78,2.78,0,0,1-3.07-2.92V9.92h1.59v6.25c0,1.55.79,2.07,1.82,2.07,2,0,2.59-1.76,2.59-3.13V9.92h1.58v9.42Z" transform="translate(0 -3.36)"/></g><g class="cls-5"><path class="cls-6" d="M739.65,19.34h-2l-2.35-3.55L733,19.34h-2l3.31-4.84-3.15-4.58h2l2.18,3.32,2.18-3.32h1.95l-3.19,4.58Z" transform="translate(0 -3.36)"/></g><g class="cls-5"><path class="cls-6" d="M746,12.79c.07-2.25,1.56-3.14,3.89-3.14.75,0,3.49.22,3.49,2.63V17.7c0,.4.2.56.52.56a3.75,3.75,0,0,0,.52-.07v1.15a3,3,0,0,1-.86.18c-1.41,0-1.62-.72-1.68-1.44a4.25,4.25,0,0,1-3.4,1.53,2.71,2.71,0,0,1-3-2.72c0-.79.23-2.63,2.86-3l2.61-.33c.38,0,.83-.18.83-1.11S751.07,11,749.58,11a1.87,1.87,0,0,0-2.16,1.82Zm5.79,1.74c-.25.2-.64.35-2.61.6-.77.1-2,.34-2,1.53a1.49,1.49,0,0,0,1.71,1.64c1.47,0,2.91-1,2.91-2.22Z" transform="translate(0 -3.36)"/></g><g class="cls-5"><path class="cls-6" d="M755.81,9.92h1.5v1.34h0a3.17,3.17,0,0,1,2.81-1.61c2.51,0,3.93,2.06,3.93,4.7,0,2.25-.94,5.26-4.14,5.26a2.81,2.81,0,0,1-2.5-1.26h0v4.72h-1.59Zm4.09,8.32c1.73,0,2.54-1.57,2.54-3.64,0-1.2-.13-3.52-2.57-3.52s-2.54,2.46-2.54,4C757.33,17.58,758.89,18.24,759.9,18.24Z" transform="translate(0 -3.36)"/></g><g class="cls-5"><path class="cls-6" d="M765.82,9.92h1.5v1.34h0a3.17,3.17,0,0,1,2.81-1.61c2.51,0,3.93,2.06,3.93,4.7,0,2.25-.94,5.26-4.14,5.26a2.81,2.81,0,0,1-2.5-1.26h0v4.72h-1.59Zm4.09,8.32c1.73,0,2.54-1.57,2.54-3.64,0-1.2-.13-3.52-2.57-3.52-2.29,0-2.54,2.46-2.54,4C767.34,17.58,768.9,18.24,769.91,18.24Z" transform="translate(0 -3.36)"/></g><g class="cls-5"><path class="cls-6" d="M775.56,19.68h-1.21l4.43-13.61H780Z" transform="translate(0 -3.36)"/></g><g class="cls-5"><path class="cls-6" d="M785.57,12.61c0-.6-.24-1.59-2.24-1.59-.48,0-1.87.16-1.87,1.33,0,.78.49,1,1.71,1.26l1.59.4c2,.49,2.64,1.21,2.64,2.49,0,1.94-1.6,3.11-3.72,3.11-3.73,0-4-2.16-4-3.3h1.53c.05.74.27,1.93,2.5,1.93,1.13,0,2.16-.45,2.16-1.49,0-.76-.52-1-1.87-1.35L782.11,15c-1.31-.33-2.18-1-2.18-2.29,0-2.07,1.71-3,3.57-3,3.36,0,3.6,2.49,3.6,3Z" transform="translate(0 -3.36)"/></g><g class="cls-5"><path class="cls-6" d="M789.17,8.21V6.41h1.58v1.8Zm1.58,11.13h-1.58V9.92h1.58Z" transform="translate(0 -3.36)"/></g><g class="cls-5"><path class="cls-6" d="M795,11.24v6.12c0,.74.63.74,1,.74h.56v1.24c-.58.05-1,.13-1.19.13-1.57,0-1.91-.89-1.91-2V11.24H792.1V9.92h1.28V7.29H795V9.92h1.52v1.32Z" transform="translate(0 -3.36)"/></g><g class="cls-5"><path class="cls-6" d="M805.73,16.39a3.92,3.92,0,0,1-4.23,3.22c-2.64,0-4.21-2-4.21-4.72,0-2.91,1.4-5.24,4.52-5.24,2.72,0,4.05,2.16,4.05,5.49H799c0,2,.92,3.1,2.74,3.1a2.39,2.39,0,0,0,2.43-1.85Zm-1.51-2.51c-.09-1.45-.7-2.8-2.63-2.8a2.76,2.76,0,0,0-2.61,2.8Z" transform="translate(0 -3.36)"/></g><g class="cls-5"><path class="cls-6" d="M816.58,9.65c3,0,4.38,2.54,4.38,5s-1.37,5-4.38,5-4.37-2.54-4.37-5S813.58,9.65,816.58,9.65Zm0,8.57c2.27,0,2.74-2.34,2.74-3.6s-.47-3.6-2.74-3.6-2.73,2.34-2.73,3.6S814.32,18.22,816.58,18.22Z" transform="translate(0 -3.36)"/></g><g class="cls-5"><path class="cls-6" d="M830.37,19.34h-1.58v-5.8c0-1.64-.47-2.46-2-2.46-.9,0-2.48.57-2.48,3.13v5.13H822.7V9.92h1.5v1.34h0a3.41,3.41,0,0,1,2.85-1.61,3,3,0,0,1,3.29,3.28Z" transform="translate(0 -3.36)"/></g><g class="cls-5"><path class="cls-6" d="M839.65,11.24v6.12c0,.74.64.74,1,.74h.56v1.24c-.58.05-1,.13-1.19.13-1.57,0-1.91-.89-1.91-2V11.24h-1.28V9.92h1.28V7.29h1.58V9.92h1.52v1.32Z" transform="translate(0 -3.36)"/></g><g class="cls-5"><path class="cls-6" d="M850.32,19.34h-1.58V13.18c0-1.28-.36-2.1-1.88-2.1-1.29,0-2.63.75-2.63,3.13v5.13h-1.58V6.41h1.58v4.77h0A3.33,3.33,0,0,1,847,9.65a3,3,0,0,1,3.29,3.28Z" transform="translate(0 -3.36)"/></g><g class="cls-5"><path class="cls-6" d="M860.55,16.39a3.92,3.92,0,0,1-4.23,3.22c-2.64,0-4.21-2-4.21-4.72,0-2.91,1.4-5.24,4.52-5.24,2.72,0,4,2.16,4,5.49H853.8c0,2,.92,3.1,2.74,3.1A2.39,2.39,0,0,0,859,16.39ZM859,13.88c-.09-1.45-.7-2.8-2.63-2.8a2.77,2.77,0,0,0-2.61,2.8Z" transform="translate(0 -3.36)"/></g><g class="cls-5"><path class="cls-6" d="M872.93,12.61c0-.6-.24-1.59-2.23-1.59-.49,0-1.88.16-1.88,1.33,0,.78.49,1,1.71,1.26l1.59.4c2,.49,2.64,1.21,2.64,2.49,0,1.94-1.6,3.11-3.72,3.11-3.73,0-4-2.16-4-3.3h1.53c.05.74.27,1.93,2.5,1.93,1.13,0,2.16-.45,2.16-1.49,0-.76-.52-1-1.87-1.35L869.47,15c-1.31-.33-2.18-1-2.18-2.29,0-2.07,1.71-3,3.57-3,3.36,0,3.6,2.49,3.6,3Z" transform="translate(0 -3.36)"/><path class="cls-6" d="M876.58,9.92h1.5v1.34h0A3.29,3.29,0,0,1,881,9.65a2.55,2.55,0,0,1,2.5,1.53,3.45,3.45,0,0,1,2.88-1.53,2.84,2.84,0,0,1,2.92,3.17v6.52h-1.59V13.25c0-1.29-.39-2.17-1.75-2.17a2.39,2.39,0,0,0-2.21,2.52v5.74h-1.58V12.82c0-.79-.31-1.74-1.48-1.74-.9,0-2.48.57-2.48,3.13v5.13h-1.59Z" transform="translate(0 -3.36)"/></g><g class="cls-5"><path class="cls-6" d="M891.41,12.79c.07-2.25,1.56-3.14,3.88-3.14.76,0,3.5.22,3.5,2.63V17.7c0,.4.2.56.52.56a3.56,3.56,0,0,0,.52-.07v1.15a3,3,0,0,1-.86.18c-1.41,0-1.62-.72-1.68-1.44a4.25,4.25,0,0,1-3.4,1.53,2.71,2.71,0,0,1-2.95-2.72c0-.79.23-2.63,2.86-3l2.61-.33c.38,0,.83-.18.83-1.11S896.52,11,895,11c-1.81,0-2.06,1.1-2.16,1.82Zm5.79,1.74c-.25.2-.64.35-2.61.6-.77.1-2,.34-2,1.53a1.49,1.49,0,0,0,1.71,1.64c1.47,0,2.91-1,2.91-2.22Z" transform="translate(0 -3.36)"/></g><g class="cls-5"><path class="cls-6" d="M903,19.34h-1.58V9.92h1.49v1.57h0a3.06,3.06,0,0,1,2.64-1.84,1.21,1.21,0,0,1,.42.06v1.64h-.6A2.39,2.39,0,0,0,903,13.87Z" transform="translate(0 -3.36)"/></g><g class="cls-5"><path class="cls-6" d="M909.6,11.24v6.12c0,.74.64.74,1,.74h.56v1.24c-.58.05-1,.13-1.19.13-1.57,0-1.91-.89-1.91-2V11.24h-1.28V9.92H908V7.29h1.58V9.92h1.52v1.32Z" transform="translate(0 -3.36)"/></g><g class="cls-5"><path class="cls-6" d="M912.54,9.92H914v1.34h0a3.17,3.17,0,0,1,2.81-1.61c2.51,0,3.93,2.06,3.93,4.7,0,2.25-.94,5.26-4.14,5.26a2.81,2.81,0,0,1-2.5-1.26h0v4.72h-1.59Zm4.09,8.32c1.73,0,2.54-1.57,2.54-3.64,0-1.2-.13-3.52-2.57-3.52s-2.54,2.46-2.54,4C914.06,17.58,915.62,18.24,916.63,18.24Z" transform="translate(0 -3.36)"/></g><g class="cls-5"><path class="cls-6" d="M930.29,19.34h-1.58V13.18c0-1.28-.36-2.1-1.88-2.1-1.29,0-2.62.75-2.62,3.13v5.13h-1.59V6.41h1.59v4.77h0A3.33,3.33,0,0,1,927,9.65a3,3,0,0,1,3.29,3.28Z" transform="translate(0 -3.36)"/></g><g class="cls-5"><path class="cls-6" d="M936.4,9.65c3,0,4.37,2.54,4.37,5s-1.37,5-4.37,5-4.38-2.54-4.38-5S933.39,9.65,936.4,9.65Zm0,8.57c2.26,0,2.73-2.34,2.73-3.6s-.47-3.6-2.73-3.6-2.74,2.34-2.74,3.6S934.13,18.22,936.4,18.22Z" transform="translate(0 -3.36)"/></g><g class="cls-5"><path class="cls-6" d="M950.18,19.34H948.6v-5.8c0-1.64-.47-2.46-2-2.46-.9,0-2.49.57-2.49,3.13v5.13h-1.58V9.92H944v1.34h0a3.41,3.41,0,0,1,2.85-1.61,3,3,0,0,1,3.29,3.28Z" transform="translate(0 -3.36)"/></g><g class="cls-5"><path class="cls-6" d="M960.42,16.39a3.92,3.92,0,0,1-4.23,3.22c-2.64,0-4.21-2-4.21-4.72,0-2.91,1.4-5.24,4.52-5.24,2.72,0,4,2.16,4,5.49h-6.88c0,2,.92,3.1,2.74,3.1a2.39,2.39,0,0,0,2.43-1.85Zm-1.51-2.51c-.09-1.45-.7-2.8-2.63-2.8a2.77,2.77,0,0,0-2.61,2.8Z" transform="translate(0 -3.36)"/></g></g><g class="cls-5"><g class="cls-5"><path class="cls-6" d="M572.34,74.33h-4.41V72.71h4.41Z" transform="translate(0 -3.36)"/></g><g class="cls-5"><path class="cls-6" d="M585.27,69.09H587l-3.58,9.42h-1.7l-3.44-9.42h1.84l2.45,7.67h0Z" transform="translate(0 -3.36)"/></g><g class="cls-5"><path class="cls-6" d="M587.88,72c.07-2.25,1.56-3.14,3.89-3.14.75,0,3.49.22,3.49,2.63v5.42c0,.4.2.56.52.56a3.75,3.75,0,0,0,.52-.07v1.15a3,3,0,0,1-.86.18c-1.41,0-1.62-.72-1.68-1.44a4.25,4.25,0,0,1-3.4,1.53,2.71,2.71,0,0,1-3-2.72c0-.79.23-2.63,2.86-3l2.61-.33c.38,0,.83-.18.83-1.11s-.72-1.53-2.21-1.53A1.89,1.89,0,0,0,589.33,72Zm5.79,1.74c-.25.2-.64.35-2.61.6-.77.1-2,.34-2,1.53a1.49,1.49,0,0,0,1.71,1.64c1.47,0,2.91-1,2.91-2.22Z" transform="translate(0 -3.36)"/></g><g class="cls-5"><path class="cls-6" d="M599.43,78.51h-1.58V65.58h1.58Z" transform="translate(0 -3.36)"/></g><g class="cls-5"><path class="cls-6" d="M607.79,78.51V77.14l0,0a3.1,3.1,0,0,1-3,1.67,2.78,2.78,0,0,1-3.06-2.92V69.09h1.58v6.25c0,1.55.79,2.07,1.82,2.07,2,0,2.59-1.76,2.59-3.13V69.09h1.59v9.42Z" transform="translate(0 -3.36)"/><path class="cls-6" d="M619.65,75.56a3.92,3.92,0,0,1-4.23,3.22c-2.65,0-4.21-2-4.21-4.72,0-2.91,1.4-5.24,4.52-5.24,2.72,0,4,2.16,4,5.49H612.9c0,2,.92,3.1,2.74,3.1a2.4,2.4,0,0,0,2.43-1.85Zm-1.51-2.51c-.09-1.45-.7-2.8-2.63-2.8a2.76,2.76,0,0,0-2.61,2.8Z" transform="translate(0 -3.36)"/></g><g class="cls-5"><path class="cls-6" d="M626.83,71.78c0-.6-.24-1.59-2.24-1.59-.48,0-1.87.16-1.87,1.33,0,.78.49,1,1.71,1.26l1.59.4c2,.49,2.64,1.21,2.64,2.49,0,1.94-1.6,3.11-3.72,3.11-3.73,0-4-2.16-4.05-3.3h1.53c.05.74.27,1.93,2.5,1.93,1.13,0,2.16-.45,2.16-1.49,0-.76-.52-1-1.87-1.35l-1.84-.45c-1.31-.33-2.18-1-2.18-2.29,0-2.07,1.71-3,3.57-3,3.36,0,3.6,2.49,3.6,3Z" transform="translate(0 -3.36)"/></g><g class="cls-5"><path class="cls-6" d="M639.33,68.82c3,0,4.37,2.54,4.37,5s-1.37,5-4.37,5-4.38-2.54-4.38-5S636.32,68.82,639.33,68.82Zm0,8.57c2.26,0,2.73-2.34,2.73-3.6s-.47-3.6-2.73-3.6-2.74,2.34-2.74,3.6S637.06,77.39,639.33,77.39Z" transform="translate(0 -3.36)"/></g><g class="cls-5"><path class="cls-6" d="M647.22,70.41v8.1h-1.58v-8.1h-1.3V69.09h1.3V67.47c0-1.42.9-2.07,2.45-2.07.23,0,.47,0,.72,0v1.42c-.2,0-.45,0-.65,0-.69,0-.94.35-.94,1.1v1.17h1.59v1.32Z" transform="translate(0 -3.36)"/></g><g class="cls-5"><path class="cls-6" d="M655.31,67.38v-1.8h1.58v1.8Zm1.58,11.13h-1.58V69.09h1.58Z" transform="translate(0 -3.36)"/></g><g class="cls-5"><path class="cls-6" d="M666.81,78.51h-1.58v-5.8c0-1.64-.47-2.46-2-2.46-.9,0-2.49.57-2.49,3.13v5.13h-1.58V69.09h1.49v1.34h0a3.41,3.41,0,0,1,2.85-1.61,3,3,0,0,1,3.29,3.28Z" transform="translate(0 -3.36)"/></g><g class="cls-5"><path class="cls-6" d="M670.88,70.41v6.12c0,.74.62.74,1,.74h.56v1.24c-.58,0-1,.13-1.19.13-1.57,0-1.91-.89-1.91-2V70.41H668V69.09h1.28V66.46h1.59v2.63h1.51v1.32Z" transform="translate(0 -3.36)"/></g><g class="cls-5"><path class="cls-6" d="M681.63,75.56a3.92,3.92,0,0,1-4.23,3.22c-2.64,0-4.21-2-4.21-4.72,0-2.91,1.4-5.24,4.52-5.24,2.72,0,4,2.16,4,5.49h-6.88c0,2,.92,3.1,2.74,3.1a2.39,2.39,0,0,0,2.43-1.85Zm-1.51-2.51c-.09-1.45-.7-2.8-2.63-2.8a2.77,2.77,0,0,0-2.61,2.8Z" transform="translate(0 -3.36)"/></g><g class="cls-5"><path class="cls-6" d="M685.26,78.51h-1.58V69.09h1.49v1.57h0a3.06,3.06,0,0,1,2.64-1.84,1.21,1.21,0,0,1,.42.06v1.64h-.6A2.39,2.39,0,0,0,685.26,73Z" transform="translate(0 -3.36)"/></g><g class="cls-5"><path class="cls-6" d="M697.28,75.56a3.92,3.92,0,0,1-4.23,3.22c-2.64,0-4.21-2-4.21-4.72,0-2.91,1.4-5.24,4.52-5.24,2.72,0,4,2.16,4,5.49h-6.88c0,2,.92,3.1,2.74,3.1a2.39,2.39,0,0,0,2.43-1.85Zm-1.51-2.51c-.09-1.45-.7-2.8-2.63-2.8a2.76,2.76,0,0,0-2.61,2.8Z" transform="translate(0 -3.36)"/></g><g class="cls-5"><path class="cls-6" d="M704.56,71.78c0-.6-.24-1.59-2.23-1.59-.49,0-1.88.16-1.88,1.33,0,.78.49,1,1.71,1.26l1.59.4c2,.49,2.64,1.21,2.64,2.49,0,1.94-1.6,3.11-3.72,3.11-3.73,0-4-2.16-4-3.3h1.53c.05.74.27,1.93,2.5,1.93,1.13,0,2.16-.45,2.16-1.49,0-.76-.52-1-1.87-1.35l-1.84-.45c-1.31-.33-2.18-1-2.18-2.29,0-2.07,1.71-3,3.57-3,3.36,0,3.6,2.49,3.6,3Z" transform="translate(0 -3.36)"/></g><g class="cls-5"><path class="cls-6" d="M710,70.41v6.12c0,.74.64.74,1,.74h.56v1.24c-.58,0-1,.13-1.19.13-1.57,0-1.91-.89-1.91-2V70.41h-1.28V69.09h1.28V66.46H710v2.63h1.52v1.32Z" transform="translate(0 -3.36)"/></g><g class="cls-5"><path class="cls-6" d="M720.05,70.41v8.1h-1.58v-8.1h-1.3V69.09h1.3V67.47c0-1.42.9-2.07,2.45-2.07.23,0,.47,0,.72,0v1.42c-.2,0-.45,0-.65,0-.69,0-.94.35-.94,1.1v1.17h1.59v1.32Z" transform="translate(0 -3.36)"/></g><g class="cls-5"><path class="cls-6" d="M726.62,68.82c3,0,4.38,2.54,4.38,5s-1.37,5-4.38,5-4.37-2.54-4.37-5S723.62,68.82,726.62,68.82Zm0,8.57c2.27,0,2.74-2.34,2.74-3.6s-.47-3.6-2.74-3.6-2.73,2.34-2.73,3.6S724.36,77.39,726.62,77.39Z" transform="translate(0 -3.36)"/></g><g class="cls-5"><path class="cls-6" d="M734.43,78.51h-1.58V69.09h1.49v1.57h0A3.06,3.06,0,0,1,737,68.82a1.21,1.21,0,0,1,.42.06v1.64h-.6A2.39,2.39,0,0,0,734.43,73Z" transform="translate(0 -3.36)"/></g><g class="cls-5"><path class="cls-6" d="M745.58,70.41v6.12c0,.74.63.74.95.74h.56v1.24c-.58,0-1,.13-1.19.13-1.57,0-1.91-.89-1.91-2V70.41h-1.28V69.09H744V66.46h1.59v2.63h1.51v1.32Z" transform="translate(0 -3.36)"/></g><g class="cls-5"><path class="cls-6" d="M756.23,78.51h-1.58V72.35c0-1.28-.36-2.1-1.88-2.1-1.29,0-2.63.75-2.63,3.13v5.13h-1.58V65.58h1.58v4.77h0a3.33,3.33,0,0,1,2.76-1.53,3,3,0,0,1,3.29,3.28Z" transform="translate(0 -3.36)"/></g><g class="cls-5"><path class="cls-6" d="M766.47,75.56a3.92,3.92,0,0,1-4.23,3.22c-2.64,0-4.21-2-4.21-4.72,0-2.91,1.4-5.24,4.52-5.24,2.72,0,4.05,2.16,4.05,5.49h-6.88c0,2,.92,3.1,2.74,3.1a2.39,2.39,0,0,0,2.43-1.85ZM765,73.05c-.09-1.45-.7-2.8-2.63-2.8a2.77,2.77,0,0,0-2.61,2.8Z" transform="translate(0 -3.36)"/></g><g class="cls-5"><path class="cls-6" d="M773.44,72c.07-2.25,1.56-3.14,3.89-3.14.75,0,3.49.22,3.49,2.63v5.42c0,.4.2.56.52.56a3.75,3.75,0,0,0,.52-.07v1.15a3,3,0,0,1-.86.18c-1.41,0-1.62-.72-1.68-1.44a4.25,4.25,0,0,1-3.4,1.53A2.71,2.71,0,0,1,773,76.06c0-.79.23-2.63,2.86-3l2.61-.33c.38,0,.83-.18.83-1.11s-.72-1.53-2.21-1.53A1.88,1.88,0,0,0,774.89,72Zm5.79,1.74c-.25.2-.64.35-2.61.6-.77.1-2,.34-2,1.53a1.49,1.49,0,0,0,1.71,1.64c1.47,0,2.91-1,2.91-2.22Z" transform="translate(0 -3.36)"/></g><g class="cls-5"><path class="cls-6" d="M783.3,69.09h1.5v1.34h0a3.17,3.17,0,0,1,2.81-1.61c2.51,0,3.93,2.06,3.93,4.7,0,2.25-.94,5.26-4.14,5.26a2.84,2.84,0,0,1-2.51-1.26h0v4.72H783.3Zm4.09,8.32c1.73,0,2.54-1.57,2.54-3.64,0-1.2-.13-3.52-2.57-3.52s-2.54,2.46-2.54,4C784.82,76.75,786.38,77.41,787.39,77.41Z" transform="translate(0 -3.36)"/><path class="cls-6" d="M793.31,69.09h1.5v1.34h0a3.17,3.17,0,0,1,2.81-1.61c2.5,0,3.93,2.06,3.93,4.7,0,2.25-.94,5.26-4.14,5.26a2.83,2.83,0,0,1-2.51-1.26h0v4.72h-1.59Zm4.09,8.32c1.73,0,2.54-1.57,2.54-3.64,0-1.2-.13-3.52-2.58-3.52-2.28,0-2.54,2.46-2.54,4C794.82,76.75,796.39,77.41,797.4,77.41Z" transform="translate(0 -3.36)"/></g></g><line class="cls-3" x1="533.56" y1="172.63" x2="533.56" y2="88.66"/><g class="cls-5"><g class="cls-5"><path class="cls-6" d="M538,111.24H533.6v-1.62H538Z" transform="translate(0 -3.36)"/></g><g class="cls-5"><path class="cls-6" d="M553.69,102.49h1.75v12.93h-1.75v-6h-6.75v6H545.2V102.49h1.74v5.35h6.75Z" transform="translate(0 -3.36)"/></g><g class="cls-5"><path class="cls-6" d="M561.79,105.73c3,0,4.38,2.54,4.38,5s-1.37,5-4.38,5-4.37-2.54-4.37-5S558.79,105.73,561.79,105.73Zm0,8.57c2.27,0,2.74-2.34,2.74-3.6s-.47-3.6-2.74-3.6-2.73,2.34-2.73,3.6S559.53,114.3,561.79,114.3Z" transform="translate(0 -3.36)"/><path class="cls-6" d="M567.84,115.42V102.49h1.59v4.7h0a3.22,3.22,0,0,1,2.72-1.46c2.5,0,3.93,2.06,3.93,4.7,0,2.25-.94,5.26-4.15,5.26a2.82,2.82,0,0,1-2.59-1.44h0v1.17Zm4-8.26c-2.28,0-2.54,2.46-2.54,4,0,2.51,1.57,3.17,2.58,3.17,1.73,0,2.54-1.56,2.54-3.64C574.47,109.48,574.34,107.16,571.89,107.16Z" transform="translate(0 -3.36)"/></g><g class="cls-5"><path class="cls-6" d="M583,106h1.49v1.34h0a3.29,3.29,0,0,1,2.85-1.61,2.55,2.55,0,0,1,2.5,1.53,3.45,3.45,0,0,1,2.88-1.53,2.84,2.84,0,0,1,2.92,3.17v6.52h-1.59v-6.09c0-1.29-.39-2.17-1.74-2.17a2.39,2.39,0,0,0-2.22,2.52v5.74h-1.58V108.9c0-.79-.31-1.74-1.48-1.74-.9,0-2.49.57-2.49,3.13v5.13H583Z" transform="translate(0 -3.36)"/></g><g class="cls-5"><path class="cls-6" d="M601.76,105.73c3,0,4.37,2.54,4.37,5s-1.37,5-4.37,5-4.38-2.54-4.38-5S598.75,105.73,601.76,105.73Zm0,8.57c2.26,0,2.73-2.34,2.73-3.6s-.47-3.6-2.73-3.6-2.74,2.34-2.74,3.6S599.49,114.3,601.76,114.3Z" transform="translate(0 -3.36)"/><path class="cls-6" d="M615.74,115.42h-1.49v-1.3h0a2.83,2.83,0,0,1-2.68,1.57c-3.21,0-4.14-3-4.14-5.26,0-2.64,1.42-4.7,3.92-4.7a3.19,3.19,0,0,1,2.81,1.61l0-.13v-4.72h1.58Zm-4.17-1.1c1,0,2.57-.66,2.57-3.17,0-1.53-.25-4-2.54-4-2.45,0-2.57,2.32-2.57,3.52C609,112.76,609.84,114.32,611.57,114.32Z" transform="translate(0 -3.36)"/></g><g class="cls-5"><path class="cls-6" d="M625.92,112.47a3.92,3.92,0,0,1-4.23,3.22c-2.64,0-4.21-2-4.21-4.72,0-2.91,1.4-5.24,4.52-5.24,2.72,0,4,2.16,4,5.49h-6.88c0,2,.92,3.1,2.74,3.1a2.39,2.39,0,0,0,2.43-1.85ZM624.41,110c-.09-1.45-.7-2.8-2.63-2.8a2.77,2.77,0,0,0-2.61,2.8Z" transform="translate(0 -3.36)"/></g><g class="cls-5"><path class="cls-6" d="M629.47,115.42h-1.58V102.49h1.58Z" transform="translate(0 -3.36)"/></g><g class="cls-5"><path class="cls-6" d="M640.69,105.73c3,0,4.37,2.54,4.37,5s-1.37,5-4.37,5-4.38-2.54-4.38-5S637.68,105.73,640.69,105.73Zm0,8.57c2.26,0,2.73-2.34,2.73-3.6s-.47-3.6-2.73-3.6-2.74,2.34-2.74,3.6S638.42,114.3,640.69,114.3Z" transform="translate(0 -3.36)"/></g><g class="cls-5"><path class="cls-6" d="M648.49,115.42h-1.58V106h1.49v1.57h0a3.06,3.06,0,0,1,2.64-1.84,1.21,1.21,0,0,1,.42.06v1.64h-.6a2.39,2.39,0,0,0-2.41,2.52Z" transform="translate(0 -3.36)"/></g><g class="cls-5"><path class="cls-6" d="M663,108.69c0-.6-.24-1.59-2.24-1.59-.48,0-1.87.16-1.87,1.33,0,.78.49,1,1.71,1.26l1.59.4c2,.49,2.65,1.21,2.65,2.49,0,1.94-1.61,3.11-3.73,3.11-3.73,0-4-2.16-4-3.3h1.53c0,.74.27,1.93,2.5,1.93,1.13,0,2.16-.45,2.16-1.49,0-.76-.52-1-1.87-1.35l-1.84-.45c-1.31-.33-2.18-1-2.18-2.29,0-2.07,1.71-3,3.57-3,3.36,0,3.6,2.49,3.6,3Z" transform="translate(0 -3.36)"/></g><g class="cls-5"><path class="cls-6" d="M674.58,112.47a3.92,3.92,0,0,1-4.23,3.22c-2.64,0-4.21-2-4.21-4.72,0-2.91,1.4-5.24,4.52-5.24,2.72,0,4.05,2.16,4.05,5.49h-6.88c0,2,.92,3.1,2.74,3.1a2.39,2.39,0,0,0,2.43-1.85ZM673.07,110c-.09-1.45-.7-2.8-2.63-2.8a2.77,2.77,0,0,0-2.61,2.8Z" transform="translate(0 -3.36)"/></g><g class="cls-5"><path class="cls-6" d="M678.2,115.42h-1.58V106h1.49v1.57h0a3.06,3.06,0,0,1,2.64-1.84,1.21,1.21,0,0,1,.42.06v1.64h-.6A2.39,2.39,0,0,0,678.2,110Z" transform="translate(0 -3.36)"/></g><g class="cls-5"><path class="cls-6" d="M682.41,104.29v-1.8H684v1.8ZM684,115.42h-1.58V106H684Z" transform="translate(0 -3.36)"/></g><g class="cls-5"><path class="cls-6" d="M686.21,108.87c.07-2.25,1.56-3.14,3.89-3.14.75,0,3.49.22,3.49,2.63v5.42c0,.4.2.56.52.56a3.75,3.75,0,0,0,.52-.07v1.15a3,3,0,0,1-.86.18c-1.41,0-1.62-.72-1.68-1.44a4.25,4.25,0,0,1-3.4,1.53,2.71,2.71,0,0,1-3-2.72c0-.79.23-2.63,2.86-3l2.61-.33c.38,0,.83-.18.83-1.11s-.72-1.53-2.21-1.53a1.87,1.87,0,0,0-2.16,1.82Zm5.79,1.74c-.25.2-.64.35-2.61.6-.77.1-2,.34-2,1.53a1.49,1.49,0,0,0,1.71,1.64c1.47,0,2.91-1,2.91-2.22Z" transform="translate(0 -3.36)"/></g><g class="cls-5"><path class="cls-6" d="M697.76,115.42h-1.58V102.49h1.58Z" transform="translate(0 -3.36)"/></g><g class="cls-5"><path class="cls-6" d="M712.81,115.42h-1.58v-5.8c0-1.64-.47-2.46-2-2.46-.9,0-2.49.57-2.49,3.13v5.13h-1.58V106h1.49v1.34h0a3.41,3.41,0,0,1,2.85-1.61,3,3,0,0,1,3.29,3.28Z" transform="translate(0 -3.36)"/></g><g class="cls-5"><path class="cls-6" d="M721.13,115.42v-1.37l0,0a3.1,3.1,0,0,1-3,1.67,2.78,2.78,0,0,1-3.07-2.92V106h1.59v6.25c0,1.55.79,2.07,1.82,2.07,2,0,2.59-1.76,2.59-3.13V106h1.58v9.42Z" transform="translate(0 -3.36)"/></g><g class="cls-5"><path class="cls-6" d="M724.89,106h1.49v1.34h0a3.29,3.29,0,0,1,2.85-1.61,2.55,2.55,0,0,1,2.5,1.53,3.45,3.45,0,0,1,2.88-1.53,2.84,2.84,0,0,1,2.92,3.17v6.52H736v-6.09c0-1.29-.39-2.17-1.74-2.17a2.39,2.39,0,0,0-2.22,2.52v5.74h-1.58V108.9c0-.79-.31-1.74-1.48-1.74-.9,0-2.49.57-2.49,3.13v5.13h-1.58Z" transform="translate(0 -3.36)"/></g><g class="cls-5"><path class="cls-6" d="M739.75,115.42V102.49h1.59v4.7h0a3.21,3.21,0,0,1,2.71-1.46c2.51,0,3.93,2.06,3.93,4.7,0,2.25-.94,5.26-4.14,5.26a2.81,2.81,0,0,1-2.59-1.44h0v1.17Zm4.06-8.26c-2.29,0-2.54,2.46-2.54,4,0,2.51,1.56,3.17,2.57,3.17,1.73,0,2.54-1.56,2.54-3.64C746.38,109.48,746.25,107.16,743.81,107.16Z" transform="translate(0 -3.36)"/></g><g class="cls-5"><path class="cls-6" d="M757.81,112.47a3.92,3.92,0,0,1-4.23,3.22c-2.64,0-4.21-2-4.21-4.72,0-2.91,1.4-5.24,4.52-5.24,2.72,0,4.05,2.16,4.05,5.49h-6.88c0,2,.92,3.1,2.74,3.1a2.39,2.39,0,0,0,2.43-1.85ZM756.3,110c-.09-1.45-.7-2.8-2.63-2.8a2.76,2.76,0,0,0-2.61,2.8Z" transform="translate(0 -3.36)"/></g><g class="cls-5"><path class="cls-6" d="M761.43,115.42h-1.58V106h1.49v1.57h0a3.06,3.06,0,0,1,2.64-1.84,1.21,1.21,0,0,1,.42.06v1.64h-.6a2.39,2.39,0,0,0-2.41,2.52Z" transform="translate(0 -3.36)"/></g></g><g class="cls-5"><g class="cls-5"><path class="cls-6" d="M538,132.84H533.6v-1.62H538Z" transform="translate(0 -3.36)"/></g><g class="cls-5"><path class="cls-6" d="M547.19,137h-1.74V124.09h1.74Z" transform="translate(0 -3.36)"/></g><g class="cls-5"><path class="cls-6" d="M557.44,137h-1.58v-5.8c0-1.64-.47-2.46-2-2.46-.9,0-2.49.57-2.49,3.13V137h-1.58V127.6h1.49v1.34h0a3.41,3.41,0,0,1,2.85-1.61,3,3,0,0,1,3.29,3.28Z" transform="translate(0 -3.36)"/></g><g class="cls-5"><path class="cls-6" d="M565.05,130.29c0-.6-.24-1.59-2.23-1.59-.49,0-1.88.16-1.88,1.33,0,.78.49,1,1.71,1.26l1.59.4c2,.49,2.64,1.21,2.64,2.49,0,1.94-1.6,3.11-3.72,3.11-3.73,0-4-2.16-4-3.3h1.53c.05.74.27,1.93,2.5,1.93,1.13,0,2.16-.45,2.16-1.49,0-.76-.52-1-1.87-1.35l-1.84-.45c-1.31-.33-2.18-1-2.18-2.29,0-2.07,1.71-3,3.57-3,3.36,0,3.6,2.49,3.6,3Z" transform="translate(0 -3.36)"/></g><g class="cls-5"><path class="cls-6" d="M570.52,128.92V135c0,.74.64.74,1,.74H572V137c-.58,0-1,.13-1.19.13-1.57,0-1.91-.89-1.91-2v-6.21h-1.28V127.6h1.28V125h1.58v2.63H572v1.32Z" transform="translate(0 -3.36)"/></g><g class="cls-5"><path class="cls-6" d="M573.51,130.47c.07-2.25,1.56-3.14,3.89-3.14.75,0,3.49.22,3.49,2.63v5.42c0,.4.2.56.52.56a3.75,3.75,0,0,0,.52-.07V137a3,3,0,0,1-.86.18c-1.41,0-1.62-.72-1.68-1.44a4.25,4.25,0,0,1-3.4,1.53,2.71,2.71,0,0,1-3-2.72c0-.79.23-2.63,2.86-2.95l2.61-.33c.38,0,.83-.18.83-1.11s-.72-1.53-2.22-1.53a1.88,1.88,0,0,0-2.16,1.82Zm5.79,1.74c-.25.2-.64.35-2.61.6-.77.1-2,.34-2,1.53a1.49,1.49,0,0,0,1.71,1.64c1.47,0,2.91-1,2.91-2.22Z" transform="translate(0 -3.36)"/></g><g class="cls-5"><path class="cls-6" d="M585.08,137H583.5V124.09h1.58Z" transform="translate(0 -3.36)"/></g><g class="cls-5"><path class="cls-6" d="M588.93,137h-1.58V124.09h1.58Z" transform="translate(0 -3.36)"/></g><g class="cls-5"><path class="cls-6" d="M599.21,134.07a3.92,3.92,0,0,1-4.23,3.22c-2.64,0-4.21-2-4.21-4.72,0-2.91,1.4-5.24,4.52-5.24,2.72,0,4.05,2.16,4.05,5.49h-6.88c0,2,.92,3.1,2.74,3.1a2.39,2.39,0,0,0,2.43-1.85Zm-1.51-2.51c-.09-1.45-.7-2.8-2.63-2.8a2.77,2.77,0,0,0-2.61,2.8Z" transform="translate(0 -3.36)"/></g><g class="cls-5"><path class="cls-6" d="M609,137h-1.49v-1.3h0a2.83,2.83,0,0,1-2.68,1.57c-3.2,0-4.14-3-4.14-5.26,0-2.64,1.42-4.7,3.93-4.7a3.16,3.16,0,0,1,2.8,1.61l0-.13v-4.72H609Zm-4.17-1.1c1,0,2.57-.66,2.57-3.17,0-1.53-.25-4-2.54-4-2.45,0-2.57,2.32-2.57,3.52C602.29,134.36,603.1,135.92,604.83,135.92Z" transform="translate(0 -3.36)"/></g><g class="cls-5"><path class="cls-6" d="M616.07,127.6h1.5v1.34h0a3.19,3.19,0,0,1,2.81-1.61c2.51,0,3.93,2.06,3.93,4.7,0,2.25-.94,5.26-4.14,5.26a2.81,2.81,0,0,1-2.5-1.26h0v4.72h-1.59Zm4.09,8.32c1.73,0,2.54-1.56,2.54-3.64,0-1.2-.13-3.52-2.57-3.52-2.29,0-2.54,2.46-2.54,4C617.59,135.26,619.15,135.92,620.16,135.92Z" transform="translate(0 -3.36)"/></g><g class="cls-5"><path class="cls-6" d="M626,130.47c.07-2.25,1.56-3.14,3.89-3.14.75,0,3.49.22,3.49,2.63v5.42c0,.4.2.56.52.56a3.75,3.75,0,0,0,.52-.07V137a3,3,0,0,1-.86.18c-1.41,0-1.62-.72-1.68-1.44a4.25,4.25,0,0,1-3.4,1.53,2.71,2.71,0,0,1-2.95-2.72c0-.79.23-2.63,2.86-2.95l2.61-.33c.38,0,.83-.18.83-1.11s-.72-1.53-2.21-1.53a1.87,1.87,0,0,0-2.16,1.82Zm5.79,1.74c-.25.2-.64.35-2.61.6-.77.1-2,.34-2,1.53a1.49,1.49,0,0,0,1.71,1.64c1.47,0,2.91-1,2.91-2.22Z" transform="translate(0 -3.36)"/></g><g class="cls-5"><path class="cls-6" d="M637.66,137h-1.58V127.6h1.49v1.57h0a3.06,3.06,0,0,1,2.64-1.84,1.21,1.21,0,0,1,.42.06V129h-.6a2.39,2.39,0,0,0-2.41,2.52Z" transform="translate(0 -3.36)"/></g><g class="cls-5"><path class="cls-6" d="M644.25,128.92V135c0,.74.63.74,1,.74h.56V137c-.58,0-1,.13-1.19.13-1.57,0-1.91-.89-1.91-2v-6.21h-1.28V127.6h1.28V125h1.59v2.63h1.51v1.32Z" transform="translate(0 -3.36)"/></g><g class="cls-5"><path class="cls-6" d="M652.6,130.29c0-.6-.24-1.59-2.23-1.59-.49,0-1.88.16-1.88,1.33,0,.78.49,1,1.71,1.26l1.59.4c2,.49,2.64,1.21,2.64,2.49,0,1.94-1.6,3.11-3.72,3.11-3.73,0-4-2.16-4.05-3.3h1.53c0,.74.27,1.93,2.5,1.93,1.13,0,2.16-.45,2.16-1.49,0-.76-.52-1-1.87-1.35l-1.84-.45c-1.31-.33-2.18-1-2.18-2.29,0-2.07,1.71-3,3.57-3,3.36,0,3.6,2.49,3.6,3Z" transform="translate(0 -3.36)"/></g></g><g class="cls-5"><g class="cls-5"><path class="cls-6" d="M538,154.44H533.6v-1.62H538Z" transform="translate(0 -3.36)"/></g><g class="cls-5"><path class="cls-6" d="M554.9,158.62h-9.54V145.69h9.42v1.55H547.1v4h7.08v1.55H547.1v4.32h7.8Z" transform="translate(0 -3.36)"/></g><g class="cls-5"><path class="cls-6" d="M558.32,158.62h-1.58V149.2h1.49v1.57h0a3.06,3.06,0,0,1,2.64-1.84,1.21,1.21,0,0,1,.42.06v1.64h-.6a2.39,2.39,0,0,0-2.41,2.52Z" transform="translate(0 -3.36)"/><path class="cls-6" d="M564.15,158.62h-1.58V149.2h1.49v1.57h0a3.06,3.06,0,0,1,2.65-1.84,1.18,1.18,0,0,1,.41.06v1.64h-.59a2.4,2.4,0,0,0-2.42,2.52Z" transform="translate(0 -3.36)"/></g><g class="cls-5"><path class="cls-6" d="M572.12,148.93c3,0,4.38,2.54,4.38,5s-1.37,5-4.38,5-4.37-2.54-4.37-5S569.12,148.93,572.12,148.93Zm0,8.57c2.27,0,2.74-2.34,2.74-3.6s-.47-3.6-2.74-3.6-2.73,2.34-2.73,3.6S569.86,157.5,572.12,157.5Z" transform="translate(0 -3.36)"/></g><g class="cls-5"><path class="cls-6" d="M579.93,158.62h-1.58V149.2h1.49v1.57h0a3.06,3.06,0,0,1,2.64-1.84,1.21,1.21,0,0,1,.42.06v1.64h-.6a2.39,2.39,0,0,0-2.41,2.52Z" transform="translate(0 -3.36)"/></g><g class="cls-5"><path class="cls-6" d="M595,152.37a2.09,2.09,0,0,0-2.23-2c-2,0-2.6,1.87-2.6,3.54s.4,3.62,2.58,3.62a2.4,2.4,0,0,0,2.25-2.23h1.53a3.72,3.72,0,0,1-3.84,3.6c-2.64,0-4.21-2-4.21-4.72,0-2.91,1.4-5.24,4.52-5.24a3.4,3.4,0,0,1,3.53,3.44Z" transform="translate(0 -3.36)"/></g><g class="cls-5"><path class="cls-6" d="M602,148.93c3,0,4.37,2.54,4.37,5s-1.37,5-4.37,5-4.38-2.54-4.38-5S599,148.93,602,148.93Zm0,8.57c2.26,0,2.73-2.34,2.73-3.6s-.47-3.6-2.73-3.6-2.74,2.34-2.74,3.6S599.72,157.5,602,157.5Z" transform="translate(0 -3.36)"/><path class="cls-6" d="M616,158.62h-1.49v-1.3h0a2.83,2.83,0,0,1-2.68,1.57c-3.21,0-4.14-3-4.14-5.26,0-2.65,1.42-4.7,3.92-4.7a3.17,3.17,0,0,1,2.81,1.61l0-.13v-4.72H616Zm-4.18-1.1c1,0,2.58-.66,2.58-3.17,0-1.53-.25-4-2.54-4-2.45,0-2.57,2.32-2.57,3.52C609.26,156,610.07,157.52,611.79,157.52Z" transform="translate(0 -3.36)"/></g><g class="cls-5"><path class="cls-6" d="M626.16,155.67a3.92,3.92,0,0,1-4.23,3.22c-2.64,0-4.21-2-4.21-4.72,0-2.91,1.4-5.24,4.52-5.24,2.72,0,4,2.16,4,5.49h-6.88c0,2,.92,3.1,2.74,3.1a2.39,2.39,0,0,0,2.43-1.85Zm-1.51-2.51c-.09-1.45-.7-2.8-2.63-2.8a2.76,2.76,0,0,0-2.61,2.8Z" transform="translate(0 -3.36)"/></g><g class="cls-5"><path class="cls-6" d="M628.14,156.71H630v1.77c0,2.44-1.51,2.73-1.87,2.79v-.83c.75-.07,1-1,1-1.82h-1Z" transform="translate(0 -3.36)"/></g><g class="cls-5"><path class="cls-6" d="M637.79,147.49v-1.8h1.58v1.8Zm1.58,11.13h-1.58V149.2h1.58Z" transform="translate(0 -3.36)"/></g><g class="cls-5"><path class="cls-6" d="M643.6,150.52v8.1H642v-8.1h-1.3V149.2H642v-1.62c0-1.42.9-2.07,2.45-2.07.23,0,.47,0,.72,0V147c-.2,0-.45,0-.65,0-.69,0-.94.35-.94,1.1v1.17h1.59v1.32Z" transform="translate(0 -3.36)"/></g><g class="cls-5"><path class="cls-6" d="M653.59,150.52v6.12c0,.74.63.74,1,.74h.56v1.24c-.58,0-1,.13-1.19.13-1.57,0-1.91-.89-1.91-2v-6.21h-1.28V149.2H652v-2.63h1.58v2.63h1.52v1.32Z" transform="translate(0 -3.36)"/></g><g class="cls-5"><path class="cls-6" d="M664.25,158.62h-1.58v-6.16c0-1.28-.36-2.1-1.88-2.1-1.29,0-2.62.75-2.62,3.13v5.13h-1.59V145.69h1.59v4.77h0a3.33,3.33,0,0,1,2.76-1.53,3,3,0,0,1,3.29,3.28Z" transform="translate(0 -3.36)"/></g><g class="cls-5"><path class="cls-6" d="M674.48,155.67a3.92,3.92,0,0,1-4.23,3.22c-2.64,0-4.21-2-4.21-4.72,0-2.91,1.4-5.24,4.52-5.24,2.72,0,4.05,2.16,4.05,5.49h-6.88c0,2,.92,3.1,2.74,3.1a2.39,2.39,0,0,0,2.43-1.85ZM673,153.16c-.09-1.45-.7-2.8-2.63-2.8a2.76,2.76,0,0,0-2.61,2.8Z" transform="translate(0 -3.36)"/></g><g class="cls-5"><path class="cls-6" d="M678.11,158.62h-1.58V149.2H678v1.57h0a3.06,3.06,0,0,1,2.64-1.84,1.21,1.21,0,0,1,.42.06v1.64h-.6a2.39,2.39,0,0,0-2.41,2.52Z" transform="translate(0 -3.36)"/></g><g class="cls-5"><path class="cls-6" d="M690.13,155.67a3.92,3.92,0,0,1-4.23,3.22c-2.64,0-4.21-2-4.21-4.72,0-2.91,1.4-5.24,4.52-5.24,2.72,0,4,2.16,4,5.49h-6.88c0,2,.92,3.1,2.74,3.1a2.39,2.39,0,0,0,2.43-1.85Zm-1.51-2.51c-.09-1.45-.7-2.8-2.63-2.8a2.77,2.77,0,0,0-2.61,2.8Z" transform="translate(0 -3.36)"/></g><g class="cls-5"><path class="cls-6" d="M697.19,147.49v-1.8h1.58v1.8Zm1.58,11.13h-1.58V149.2h1.58Z" transform="translate(0 -3.36)"/></g><g class="cls-5"><path class="cls-6" d="M706.42,151.89c0-.6-.24-1.59-2.23-1.59-.49,0-1.88.16-1.88,1.33,0,.78.49,1,1.71,1.26l1.59.4c2,.49,2.64,1.21,2.64,2.49,0,1.94-1.6,3.11-3.72,3.11-3.73,0-4-2.16-4-3.3H702c0,.74.27,1.93,2.5,1.93,1.13,0,2.16-.45,2.16-1.49,0-.76-.52-1-1.87-1.35l-1.84-.45c-1.31-.33-2.18-1-2.18-2.29,0-2.07,1.71-3,3.57-3,3.36,0,3.6,2.49,3.6,3Z" transform="translate(0 -3.36)"/></g><g class="cls-5"><path class="cls-6" d="M718.92,148.93c3,0,4.37,2.54,4.37,5s-1.37,5-4.37,5-4.38-2.54-4.38-5S715.91,148.93,718.92,148.93Zm0,8.57c2.26,0,2.73-2.34,2.73-3.6s-.47-3.6-2.73-3.6-2.74,2.34-2.74,3.6S716.65,157.5,718.92,157.5Z" transform="translate(0 -3.36)"/></g><g class="cls-5"><path class="cls-6" d="M732.7,158.62h-1.58v-5.8c0-1.64-.47-2.46-2-2.46-.9,0-2.48.57-2.48,3.13v5.13H725V149.2h1.5v1.34h0a3.41,3.41,0,0,1,2.85-1.61,3,3,0,0,1,3.29,3.28Z" transform="translate(0 -3.36)"/></g><g class="cls-5"><path class="cls-6" d="M742.94,155.67a3.92,3.92,0,0,1-4.23,3.22c-2.64,0-4.21-2-4.21-4.72,0-2.91,1.4-5.24,4.52-5.24,2.72,0,4.05,2.16,4.05,5.49h-6.88c0,2,.92,3.1,2.74,3.1a2.39,2.39,0,0,0,2.43-1.85Zm-1.51-2.51c-.09-1.45-.7-2.8-2.63-2.8a2.76,2.76,0,0,0-2.61,2.8Z" transform="translate(0 -3.36)"/></g></g><g class="cls-5"><g class="cls-5"><path class="cls-6" d="M538,176H533.6v-1.62H538Z" transform="translate(0 -3.36)"/></g><g class="cls-5"><path class="cls-6" d="M547.14,180.22h-1.75V167.29h6c2.13,0,4.25.74,4.25,3.48a3.16,3.16,0,0,1-1.8,3.09c.74.31,1.48.63,1.55,2.44l.11,2.34c0,.72.1,1,.64,1.29v.29H554a16,16,0,0,1-.3-3.24c0-1.06-.22-2.31-2.31-2.31h-4.23Zm0-7h4.05c1.28,0,2.63-.32,2.63-2.23s-1.46-2.16-2.32-2.16h-4.36Z" transform="translate(0 -3.36)"/></g><g class="cls-5"><path class="cls-6" d="M565.82,177.27a3.92,3.92,0,0,1-4.23,3.22c-2.64,0-4.21-2-4.21-4.72,0-2.91,1.4-5.24,4.52-5.24,2.72,0,4.05,2.16,4.05,5.49h-6.88c0,2,.92,3.1,2.74,3.1a2.39,2.39,0,0,0,2.43-1.85Zm-1.51-2.51c-.09-1.45-.7-2.8-2.63-2.8a2.76,2.76,0,0,0-2.61,2.8Z" transform="translate(0 -3.36)"/></g><g class="cls-5"><path class="cls-6" d="M575.58,179.45c0,1.35,0,4.73-4.37,4.73-1.12,0-3.3-.3-3.6-2.81h1.58a1.94,1.94,0,0,0,2.13,1.5c2.73,0,2.68-2.2,2.68-3.32v-.39h0v.07a2.81,2.81,0,0,1-2.5,1.26c-3.2,0-4.14-3-4.14-5.26,0-2.64,1.42-4.7,3.93-4.7a3.14,3.14,0,0,1,2.8,1.61h0V170.8h1.49Zm-4.08-.33c1,0,2.57-.66,2.57-3.17,0-1.53-.25-4-2.54-4-2.45,0-2.57,2.32-2.57,3.52C569,177.55,569.77,179.12,571.5,179.12Z" transform="translate(0 -3.36)"/></g><g class="cls-5"><path class="cls-6" d="M577.78,169.09v-1.8h1.58v1.8Zm1.58,11.13h-1.58V170.8h1.58Z" transform="translate(0 -3.36)"/></g><g class="cls-5"><path class="cls-6" d="M587,173.49c0-.6-.24-1.59-2.24-1.59-.48,0-1.87.16-1.87,1.33,0,.78.49,1,1.71,1.26l1.59.4c2,.49,2.64,1.21,2.64,2.49,0,1.94-1.6,3.11-3.72,3.11-3.73,0-4-2.16-4-3.3h1.53c0,.74.27,1.93,2.5,1.93,1.13,0,2.16-.45,2.16-1.49,0-.76-.52-1-1.87-1.35l-1.84-.45c-1.31-.33-2.18-1-2.18-2.29,0-2.07,1.71-3,3.57-3,3.36,0,3.6,2.49,3.6,3Z" transform="translate(0 -3.36)"/></g><g class="cls-5"><path class="cls-6" d="M592.5,172.12v6.12c0,.74.62.74,1,.74H594v1.24c-.58.05-1,.13-1.19.13-1.57,0-1.91-.89-1.91-2v-6.21h-1.28V170.8h1.28v-2.63h1.59v2.63H594v1.32Z" transform="translate(0 -3.36)"/></g><g class="cls-5"><path class="cls-6" d="M597.18,180.22H595.6V170.8h1.49v1.57h0a3.06,3.06,0,0,1,2.64-1.84,1.21,1.21,0,0,1,.42.06v1.64h-.6a2.39,2.39,0,0,0-2.41,2.52Z" transform="translate(0 -3.36)"/></g><g class="cls-5"><path class="cls-6" d="M601.27,173.67c.07-2.25,1.56-3.14,3.89-3.14.75,0,3.49.22,3.49,2.63v5.42c0,.4.2.56.52.56a3.75,3.75,0,0,0,.52-.07v1.15a3,3,0,0,1-.86.18c-1.41,0-1.62-.72-1.68-1.44a4.25,4.25,0,0,1-3.4,1.53,2.71,2.71,0,0,1-3-2.72c0-.79.23-2.63,2.86-3l2.61-.33c.38,0,.83-.18.83-1.11s-.72-1.53-2.21-1.53a1.88,1.88,0,0,0-2.17,1.82Zm5.79,1.74c-.25.2-.64.35-2.61.6-.77.1-2,.34-2,1.53a1.49,1.49,0,0,0,1.71,1.64c1.47,0,2.91-1,2.91-2.22Z" transform="translate(0 -3.36)"/></g><g class="cls-5"><path class="cls-6" d="M612.94,172.12v6.12c0,.74.64.74,1,.74h.56v1.24c-.58.05-1,.13-1.19.13-1.57,0-1.91-.89-1.91-2v-6.21h-1.28V170.8h1.28v-2.63h1.58v2.63h1.52v1.32Z" transform="translate(0 -3.36)"/><path class="cls-6" d="M616,169.09v-1.8h1.58v1.8Zm1.58,11.13H616V170.8h1.58Z" transform="translate(0 -3.36)"/><path class="cls-6" d="M623.83,170.53c3,0,4.38,2.54,4.38,5s-1.37,5-4.38,5-4.37-2.54-4.37-5S620.83,170.53,623.83,170.53Zm0,8.57c2.27,0,2.74-2.34,2.74-3.6s-.47-3.6-2.74-3.6-2.73,2.34-2.73,3.6S621.57,179.1,623.83,179.1Z" transform="translate(0 -3.36)"/></g><g class="cls-5"><path class="cls-6" d="M637.52,180.22h-1.58v-5.8c0-1.64-.47-2.46-2-2.46-.9,0-2.49.57-2.49,3.13v5.13h-1.58V170.8h1.49v1.34h0a3.41,3.41,0,0,1,2.85-1.61,3,3,0,0,1,3.29,3.28Z" transform="translate(0 -3.36)"/></g><g class="cls-5"><path class="cls-6" d="M648.7,170.53c3,0,4.37,2.54,4.37,5s-1.37,5-4.37,5-4.38-2.54-4.38-5S645.69,170.53,648.7,170.53Zm0,8.57c2.26,0,2.73-2.34,2.73-3.6s-.47-3.6-2.73-3.6-2.74,2.34-2.74,3.6S646.43,179.1,648.7,179.1Z" transform="translate(0 -3.36)"/></g><g class="cls-5"><path class="cls-6" d="M656.5,180.22h-1.58V170.8h1.49v1.57h0a3.06,3.06,0,0,1,2.64-1.84,1.21,1.21,0,0,1,.42.06v1.64h-.6a2.39,2.39,0,0,0-2.41,2.52Z" transform="translate(0 -3.36)"/></g><g class="cls-5"><path class="cls-6" d="M673.37,180.22h-1.58v-5.8c0-1.64-.47-2.46-2-2.46-.9,0-2.48.57-2.48,3.13v5.13H665.7V170.8h1.5v1.34h0a3.41,3.41,0,0,1,2.85-1.61,3,3,0,0,1,3.29,3.28Z" transform="translate(0 -3.36)"/><path class="cls-6" d="M675.49,173.67c.07-2.25,1.57-3.14,3.89-3.14.76,0,3.5.22,3.5,2.63v5.42c0,.4.19.56.52.56a3.75,3.75,0,0,0,.52-.07v1.15a3,3,0,0,1-.87.18c-1.4,0-1.62-.72-1.67-1.44a4.27,4.27,0,0,1-3.4,1.53,2.72,2.72,0,0,1-3-2.72c0-.79.24-2.63,2.87-3l2.61-.33c.38,0,.83-.18.83-1.11s-.72-1.53-2.22-1.53a1.88,1.88,0,0,0-2.16,1.82Zm5.8,1.74c-.25.2-.65.35-2.61.6-.77.1-2,.34-2,1.53a1.49,1.49,0,0,0,1.71,1.64c1.48,0,2.92-1,2.92-2.22Z" transform="translate(0 -3.36)"/></g><g class="cls-5"><path class="cls-6" d="M685.47,170.8H687v1.34h0a3.29,3.29,0,0,1,2.85-1.61,2.55,2.55,0,0,1,2.5,1.53,3.45,3.45,0,0,1,2.88-1.53,2.84,2.84,0,0,1,2.92,3.17v6.52h-1.59v-6.09c0-1.29-.39-2.17-1.74-2.17a2.39,2.39,0,0,0-2.22,2.52v5.74H691V173.7c0-.79-.31-1.74-1.48-1.74-.9,0-2.49.57-2.49,3.13v5.13h-1.58Z" transform="translate(0 -3.36)"/></g><g class="cls-5"><path class="cls-6" d="M708.4,177.27a3.92,3.92,0,0,1-4.23,3.22c-2.64,0-4.21-2-4.21-4.72,0-2.91,1.4-5.24,4.52-5.24,2.72,0,4,2.16,4,5.49h-6.88c0,2,.92,3.1,2.74,3.1a2.39,2.39,0,0,0,2.43-1.85Zm-1.51-2.51c-.09-1.45-.7-2.8-2.63-2.8a2.76,2.76,0,0,0-2.61,2.8Z" transform="translate(0 -3.36)"/></g><g class="cls-5"><path class="cls-6" d="M719.26,170.53c3,0,4.37,2.54,4.37,5s-1.37,5-4.37,5-4.38-2.54-4.38-5S716.25,170.53,719.26,170.53Zm0,8.57c2.26,0,2.73-2.34,2.73-3.6s-.47-3.6-2.73-3.6-2.74,2.34-2.74,3.6S717,179.1,719.26,179.1Z" transform="translate(0 -3.36)"/></g><g class="cls-5"><path class="cls-6" d="M727.15,172.12v8.1h-1.58v-8.1h-1.3V170.8h1.3v-1.62c0-1.42.9-2.07,2.45-2.07.23,0,.47,0,.72,0v1.42c-.2,0-.45,0-.65,0-.69,0-.94.35-.94,1.1v1.17h1.59v1.32Z" transform="translate(0 -3.36)"/><path class="cls-6" d="M741.09,174a2.1,2.1,0,0,0-2.24-2c-2,0-2.59,1.87-2.59,3.54s.4,3.62,2.58,3.62a2.4,2.4,0,0,0,2.25-2.23h1.53a3.72,3.72,0,0,1-3.84,3.6c-2.65,0-4.21-2-4.21-4.72,0-2.91,1.4-5.24,4.52-5.24a3.4,3.4,0,0,1,3.53,3.44Z" transform="translate(0 -3.36)"/></g><g class="cls-5"><path class="cls-6" d="M750.34,180.22v-1.37l0,0a3.1,3.1,0,0,1-3,1.67,2.78,2.78,0,0,1-3.07-2.92V170.8h1.59v6.25c0,1.55.79,2.07,1.82,2.07,2,0,2.59-1.76,2.59-3.13V170.8h1.58v9.42Z" transform="translate(0 -3.36)"/></g><g class="cls-5"><path class="cls-6" d="M759.49,173.49c0-.6-.24-1.59-2.24-1.59-.48,0-1.87.16-1.87,1.33,0,.78.49,1,1.71,1.26l1.59.4c2,.49,2.64,1.21,2.64,2.49,0,1.94-1.6,3.11-3.72,3.11-3.73,0-4-2.16-4.05-3.3h1.53c0,.74.27,1.93,2.5,1.93,1.13,0,2.16-.45,2.16-1.49,0-.76-.52-1-1.87-1.35l-1.84-.45c-1.31-.33-2.18-1-2.18-2.29,0-2.07,1.71-3,3.57-3,3.36,0,3.6,2.49,3.6,3Z" transform="translate(0 -3.36)"/></g><g class="cls-5"><path class="cls-6" d="M765,172.12v6.12c0,.74.62.74.95.74h.56v1.24c-.58.05-1,.13-1.19.13-1.57,0-1.91-.89-1.91-2v-6.21h-1.28V170.8h1.28v-2.63H765v2.63h1.51v1.32Z" transform="translate(0 -3.36)"/></g><g class="cls-5"><path class="cls-6" d="M771.6,170.53c3,0,4.37,2.54,4.37,5s-1.37,5-4.37,5-4.38-2.54-4.38-5S768.59,170.53,771.6,170.53Zm0,8.57c2.26,0,2.73-2.34,2.73-3.6s-.47-3.6-2.73-3.6-2.74,2.34-2.74,3.6S769.33,179.1,771.6,179.1Z" transform="translate(0 -3.36)"/><path class="cls-6" d="M777.77,170.8h1.49v1.34h0a3.28,3.28,0,0,1,2.84-1.61,2.56,2.56,0,0,1,2.51,1.53,3.45,3.45,0,0,1,2.88-1.53,2.83,2.83,0,0,1,2.91,3.17v6.52h-1.58v-6.09c0-1.29-.4-2.17-1.75-2.17a2.39,2.39,0,0,0-2.21,2.52v5.74h-1.59V173.7c0-.79-.3-1.74-1.47-1.74-.9,0-2.49.57-2.49,3.13v5.13h-1.58Z" transform="translate(0 -3.36)"/></g><g class="cls-5"><path class="cls-6" d="M800.65,177.27a3.92,3.92,0,0,1-4.23,3.22c-2.64,0-4.21-2-4.21-4.72,0-2.91,1.4-5.24,4.52-5.24,2.72,0,4,2.16,4,5.49H793.9c0,2,.92,3.1,2.74,3.1a2.39,2.39,0,0,0,2.43-1.85Zm-1.51-2.51c-.09-1.45-.7-2.8-2.63-2.8a2.76,2.76,0,0,0-2.61,2.8Z" transform="translate(0 -3.36)"/></g><g class="cls-5"><path class="cls-6" d="M804.27,180.22h-1.58V170.8h1.49v1.57h0a3.06,3.06,0,0,1,2.64-1.84,1.21,1.21,0,0,1,.42.06v1.64h-.6a2.39,2.39,0,0,0-2.41,2.52Z" transform="translate(0 -3.36)"/></g></g><g class="cls-5"><g class="cls-5"><path class="cls-6" d="M69.87,173.33H68.23l-2.72-9.42h1.73l1.8,7.4h0l1.82-7.4h1.76l1.84,7.4h0l1.91-7.4H78l-2.74,9.42H73.65L71.74,166h0Z" transform="translate(0 -3.36)"/></g><g class="cls-5"><path class="cls-6" d="M81.05,173.33H79.47v-9.42H81v1.57h0a3.06,3.06,0,0,1,2.64-1.84,1.21,1.21,0,0,1,.42.06v1.64h-.6a2.39,2.39,0,0,0-2.41,2.52Z" transform="translate(0 -3.36)"/></g><g class="cls-5"><path class="cls-6" d="M85.26,162.2v-1.8h1.58v1.8Zm1.58,11.13H85.26v-9.42h1.58Z" transform="translate(0 -3.36)"/></g><g class="cls-5"><path class="cls-6" d="M91.05,165.23v6.12c0,.74.64.74,1,.74h.56v1.24c-.58,0-1,.13-1.19.13-1.57,0-1.91-.89-1.91-2v-6.21H88.19v-1.32h1.28v-2.63h1.58v2.63h1.52v1.32Z" transform="translate(0 -3.36)"/></g><g class="cls-5"><path class="cls-6" d="M101.82,170.38a3.92,3.92,0,0,1-4.23,3.22c-2.64,0-4.21-2-4.21-4.72,0-2.91,1.4-5.24,4.52-5.24,2.72,0,4,2.16,4,5.49H95.07c0,2,.92,3.1,2.74,3.1a2.39,2.39,0,0,0,2.43-1.85Zm-1.51-2.51c-.09-1.45-.7-2.8-2.63-2.8a2.77,2.77,0,0,0-2.61,2.8Z" transform="translate(0 -3.36)"/></g><g class="cls-5"><path class="cls-6" d="M109.09,166.6c0-.6-.24-1.59-2.24-1.59-.48,0-1.87.16-1.87,1.33,0,.78.49,1,1.71,1.26l1.59.4c2,.49,2.64,1.21,2.64,2.49,0,1.94-1.6,3.11-3.72,3.11-3.73,0-4-2.16-4-3.3h1.53c0,.74.27,1.93,2.5,1.93,1.13,0,2.16-.45,2.16-1.49,0-.76-.52-1-1.87-1.35l-1.84-.45c-1.31-.33-2.18-1-2.18-2.29,0-2.07,1.71-3,3.57-3,3.36,0,3.6,2.49,3.6,3Z" transform="translate(0 -3.36)"/></g><g class="cls-5"><path class="cls-6" d="M121.59,163.64c3,0,4.37,2.54,4.37,5s-1.37,5-4.37,5-4.38-2.54-4.38-5S118.58,163.64,121.59,163.64Zm0,8.57c2.26,0,2.73-2.34,2.73-3.6s-.47-3.6-2.73-3.6-2.74,2.34-2.74,3.6S119.32,172.21,121.59,172.21Z" transform="translate(0 -3.36)"/></g><g class="cls-5"><path class="cls-6" d="M135.37,173.33h-1.58v-5.8c0-1.64-.47-2.46-2-2.46-.9,0-2.49.57-2.49,3.13v5.13H127.7v-9.42h1.49v1.34h0a3.41,3.41,0,0,1,2.85-1.61,3,3,0,0,1,3.29,3.28Z" transform="translate(0 -3.36)"/></g></g><line class="cls-3" x1="101.95" y1="152.22" x2="101.95" y2="136.63"/><g class="cls-5"><g class="cls-5"><path class="cls-6" d="M42.2,106.64h1.49V108h0a3.29,3.29,0,0,1,2.85-1.61,2.55,2.55,0,0,1,2.5,1.53A3.45,3.45,0,0,1,52,106.37a2.84,2.84,0,0,1,2.92,3.17v6.52H53.29V110c0-1.29-.39-2.17-1.75-2.17a2.39,2.39,0,0,0-2.21,2.52v5.74H47.75v-6.52c0-.79-.31-1.74-1.48-1.74-.9,0-2.49.57-2.49,3.13v5.13H42.2Z" transform="translate(0 -3.36)"/></g><g class="cls-5"><path class="cls-6" d="M57.13,104.93v-1.8h1.58v1.8Zm1.58,11.13H57.13v-9.42h1.58Z" transform="translate(0 -3.36)"/></g><g class="cls-5"><path class="cls-6" d="M67,109.81a2.09,2.09,0,0,0-2.23-2c-2,0-2.6,1.87-2.6,3.54s.4,3.62,2.58,3.62A2.4,2.4,0,0,0,67,112.73H68.5a3.72,3.72,0,0,1-3.84,3.6c-2.64,0-4.21-2-4.21-4.72,0-2.91,1.4-5.24,4.52-5.24a3.4,3.4,0,0,1,3.53,3.44Z" transform="translate(0 -3.36)"/></g><g class="cls-5"><path class="cls-6" d="M71.81,116.06H70.23v-9.42h1.49v1.57h0a3.06,3.06,0,0,1,2.64-1.84,1.21,1.21,0,0,1,.42.06v1.64h-.6a2.39,2.39,0,0,0-2.41,2.52Z" transform="translate(0 -3.36)"/></g><g class="cls-5"><path class="cls-6" d="M79.72,106.37c3,0,4.37,2.54,4.37,5s-1.37,5-4.37,5-4.38-2.54-4.38-5S76.71,106.37,79.72,106.37Zm0,8.57c2.26,0,2.73-2.34,2.73-3.6s-.47-3.6-2.73-3.6S77,110.08,77,111.34,77.45,114.94,79.72,114.94Z" transform="translate(0 -3.36)"/></g><g class="cls-5"><path class="cls-6" d="M85.74,106.64h1.5V108h0a3.19,3.19,0,0,1,2.81-1.61c2.51,0,3.93,2.06,3.93,4.7,0,2.25-.94,5.26-4.14,5.26a2.81,2.81,0,0,1-2.5-1.26h0v4.72H85.74ZM89.83,115c1.73,0,2.54-1.56,2.54-3.64,0-1.2-.13-3.52-2.57-3.52-2.29,0-2.54,2.46-2.54,4C87.26,114.3,88.82,115,89.83,115Z" transform="translate(0 -3.36)"/></g><g class="cls-5"><path class="cls-6" d="M97.5,116.06H95.92v-9.42h1.49v1.57h0a3.06,3.06,0,0,1,2.64-1.84,1.21,1.21,0,0,1,.42.06v1.64h-.6a2.39,2.39,0,0,0-2.41,2.52Z" transform="translate(0 -3.36)"/></g><g class="cls-5"><path class="cls-6" d="M105.4,106.37c3,0,4.37,2.54,4.37,5s-1.37,5-4.37,5-4.38-2.54-4.38-5S102.39,106.37,105.4,106.37Zm0,8.57c2.26,0,2.73-2.34,2.73-3.6s-.47-3.6-2.73-3.6-2.74,2.34-2.74,3.6S103.13,114.94,105.4,114.94Z" transform="translate(0 -3.36)"/></g><g class="cls-5"><path class="cls-6" d="M117.48,109.81a2.09,2.09,0,0,0-2.23-2c-2,0-2.6,1.87-2.6,3.54s.4,3.62,2.58,3.62a2.4,2.4,0,0,0,2.25-2.23H119a3.72,3.72,0,0,1-3.84,3.6c-2.64,0-4.21-2-4.21-4.72,0-2.91,1.4-5.24,4.52-5.24a3.4,3.4,0,0,1,3.53,3.44Z" transform="translate(0 -3.36)"/></g><g class="cls-5"><path class="cls-6" d="M128.58,113.11a3.92,3.92,0,0,1-4.23,3.22c-2.64,0-4.21-2-4.21-4.72,0-2.91,1.4-5.24,4.52-5.24,2.72,0,4.05,2.16,4.05,5.49h-6.88c0,2,.92,3.1,2.74,3.1a2.39,2.39,0,0,0,2.43-1.85Zm-1.51-2.51c-.09-1.45-.7-2.8-2.63-2.8a2.76,2.76,0,0,0-2.61,2.8Z" transform="translate(0 -3.36)"/></g><g class="cls-5"><path class="cls-6" d="M135.84,109.33c0-.6-.24-1.59-2.24-1.59-.48,0-1.87.16-1.87,1.33,0,.78.49,1,1.71,1.26l1.59.4c2,.49,2.64,1.21,2.64,2.49,0,1.94-1.6,3.11-3.72,3.11-3.73,0-4-2.16-4-3.3h1.53c0,.74.27,1.93,2.5,1.93,1.13,0,2.16-.45,2.16-1.49,0-.76-.52-1-1.87-1.35l-1.84-.45c-1.31-.33-2.18-1-2.18-2.29,0-2.07,1.71-3,3.57-3,3.36,0,3.6,2.49,3.6,3Z" transform="translate(0 -3.36)"/></g><g class="cls-5"><path class="cls-6" d="M144.82,109.33c0-.6-.24-1.59-2.24-1.59-.48,0-1.87.16-1.87,1.33,0,.78.49,1,1.71,1.26l1.59.4c2,.49,2.64,1.21,2.64,2.49,0,1.94-1.6,3.11-3.72,3.11-3.73,0-4-2.16-4.05-3.3h1.53c.05.74.27,1.93,2.5,1.93,1.13,0,2.16-.45,2.16-1.49,0-.76-.52-1-1.87-1.35l-1.84-.45c-1.31-.33-2.18-1-2.18-2.29,0-2.07,1.71-3,3.57-3,3.36,0,3.6,2.49,3.6,3Z" transform="translate(0 -3.36)"/></g><g class="cls-5"><path class="cls-6" d="M152.2,106.37c3,0,4.37,2.54,4.37,5s-1.37,5-4.37,5-4.38-2.54-4.38-5S149.19,106.37,152.2,106.37Zm0,8.57c2.26,0,2.73-2.34,2.73-3.6s-.47-3.6-2.73-3.6-2.74,2.34-2.74,3.6S149.93,114.94,152.2,114.94Z" transform="translate(0 -3.36)"/></g><g class="cls-5"><path class="cls-6" d="M160,116.06h-1.58v-9.42h1.49v1.57h0a3.06,3.06,0,0,1,2.64-1.84,1.21,1.21,0,0,1,.42.06v1.64h-.6a2.39,2.39,0,0,0-2.41,2.52Z" transform="translate(0 -3.36)"/></g></g><g class="cls-5"><path class="cls-6" d="M529.91,34.62h2.19V41.1h6.48v2.19H532.1v6.48h-2.19V43.29H523.4V41.1h6.51Z" transform="translate(0 -3.36)"/></g><line class="cls-3" x1="399.21" y1="288.72" x2="202.23" y2="288.72"/></svg>