<svg xmlns="http://www.w3.org/2000/svg" viewBox="0 0 985.57 382.07" xmlns:v="https://vecta.io/nano"><style><![CDATA[.F{letter-spacing:-0.01em}.G{letter-spacing:-0.01em}.H{letter-spacing:-0.02em}.I{letter-spacing:-0.02em}.J{letter-spacing:-0.02em}.K{letter-spacing:-0.03em}.L{letter-spacing:-0.01em}.M{letter-spacing:-0.01em}.N{letter-spacing:-0.01em}.O{letter-spacing:-0.03em}.P{letter-spacing:-0.1em}.Q{letter-spacing:-0.04em}.S{letter-spacing:0em}.T{letter-spacing:-0.01em}.U{letter-spacing:0em}.V{letter-spacing:0em}.W{letter-spacing:-0.01em}.X{letter-spacing:0em}.Y{letter-spacing:-0.01em}.Z{letter-spacing:-0.01em}.a{letter-spacing:0em}.b{letter-spacing:-0.02em}.c{letter-spacing:-0.01em}.d{letter-spacing:-0.01em}.e{letter-spacing:-0.01em}.f{letter-spacing:0em}.g{letter-spacing:0em}.h{letter-spacing:0em}.i{letter-spacing:-0.02em}.j{letter-spacing:0em}.k{letter-spacing:-0.02em}.l{letter-spacing:-0.01em}.m{letter-spacing:-0.02em}.n{letter-spacing:-0.01em}.o{letter-spacing:-0.02em}.p{letter-spacing:-0.02em}.q{letter-spacing:-0.01em}.r{letter-spacing:0em}.s{letter-spacing:0em}.t{letter-spacing:-0.02em}.u{letter-spacing:-0.03em}.v{letter-spacing:-0.01em}.w{letter-spacing:-0.04em}.x{letter-spacing:-0.02em}.y{letter-spacing:0em}.z{letter-spacing:-0.01em}.AA{letter-spacing:0em}.AB{letter-spacing:-0.03em}.AC{letter-spacing:-0.02em}.AD{letter-spacing:0.03em}.AE{letter-spacing:-0.01em}.AF{letter-spacing:-0.01em}.AG{letter-spacing:-0.01em}.AH{letter-spacing:-0.02em}.AI{letter-spacing:0em}.AJ{letter-spacing:-0.01em}.AK{letter-spacing:-0.01em}.AL{letter-spacing:-0.01em}.AM{letter-spacing:0em}.AN{letter-spacing:-0.03em}.AO{letter-spacing:0em}.AP{letter-spacing:-0.02em}.AQ{letter-spacing:0em}.AR{letter-spacing:-0.01em}.AS{letter-spacing:-0.02em}.AT{letter-spacing:0em}.AU{letter-spacing:-0.01em}.AV{letter-spacing:-0.02em}.AW{letter-spacing:0em}.AX{fill:#1d1d1b}.AY{font-family:HelveticaLTStd-Roman,Helvetica LT Std}.AZ{fill:none}.Aa{font-size:18px}.Ab{stroke:#1d1d1b}.Ac{stroke-width:1.5}.Ad{font-size:30px}.Ae{clip-path:url(#A)}]]></style><defs><clipPath id="A" transform="translate(-83.96 -54.88)"><path d="M83.96 50.85h1003.45v386.1H83.96z" class="AZ"/></clipPath></defs><path d="M465.77 278.53h45.26v27.01h-45.26z" fill="#fff"/><path d="M465.77 278.53h45.26v27.01h-45.26z" class="AZ Ab Ac"/><path d="M748.62 241.1h236.2v90.92h-236.2z" fill="#fff"/><path d="M748.62 241.1h236.2v90.92h-236.2z" class="AZ Ab Ac"/><path d="M.75 11.2h202.41v120.95H.75z" fill="#fff"/><g class="Ae AZ Ab Ac"><path d="M.75 11.2h202.41v120.95H.75z"/></g><text transform="translate(764.49 285.47)" class="AX AY Ad"><tspan class="F">S</tspan><tspan class="G" x="19.8" y="0">M</tspan><tspan class="H" x="44.49" y="0">A</tspan><tspan class="I" x="63.99" y="0">R</tspan><tspan class="J" x="85.17" y="0">T</tspan><tspan class="K" x="102.96" y="0">P</tspan><tspan class="L" x="122.1" y="0">HO</tspan><tspan class="M" x="166.74" y="0">N</tspan><tspan x="188.04" y="0">E</tspan></text><g class="Ae"><path d="M100.88 381.32c49.323-.006 89.304-39.993 89.3-89.317s-39.99-89.305-89.313-89.303-89.307 39.987-89.307 89.31a89.31 89.31 0 0 0 89.32 89.31" fill="#fff"/><ellipse cx="100.88" cy="292.01" rx="89.32" ry="89.31" class="AZ Ab Ac"/></g><text transform="translate(37.78 294.72)" class="AX AY Ad"><tspan class="N">N</tspan><tspan class="O" x="21.33" y="0">F</tspan><tspan x="38.82" y="0">C </tspan><tspan class="P" x="68.82" y="0">T</tspan><tspan class="Q" x="84.15" y="0">A</tspan><tspan x="102.9" y="0">G</tspan></text><text transform="translate(61.71 317.57)" class="AX AY Aa"><tspan class="F">i</tspan><tspan class="S" x="3.87" y="0">n</tspan><tspan class="U" x="18.72" y="0">t</tspan><tspan class="V" x="23.65" y="0">h</tspan><tspan x="33.57" y="0">e</tspan><tspan class="X" x="48.42" y="0">h</tspan><tspan class="S" x="58.36" y="0">ob</tspan></text><text transform="translate(803.7 311.33)" class="AX AY Aa"><tspan class="Y">w</tspan><tspan class="Z" x="12.91" y="0">i</tspan><tspan class="a" x="16.79" y="0">t</tspan><tspan x="21.73" y="0">h </tspan><tspan class="F" x="36.74" y="0">N</tspan><tspan class="b" x="49.61" y="0">F</tspan><tspan x="60.17" y="0">C </tspan><tspan class="T" x="78.17" y="0">r</tspan><tspan class="c" x="84" y="0">e</tspan><tspan class="d" x="93.87" y="0">a</tspan><tspan x="103.64" y="0">d</tspan><tspan class="e" x="113.65" y="0">e</tspan><tspan class="f" x="123.46" y="0">r</tspan></text><path d="M520.53 291.33h206.69m-4.55-4.22l4.55 4.22-4.55 4.23" class="AZ Ab Ac"/><text transform="translate(408.25 297.8)" class="AX AY Aa"><tspan class="Z">s</tspan><tspan class="V" x="8.89" y="0">e</tspan><tspan class="g" x="18.81" y="0">n</tspan><tspan class="h" x="28.76" xml:space="preserve" y="0">ds   d</tspan><tspan class="i" x="72.79" y="0">a</tspan><tspan class="j" x="82.48" y="0">t</tspan><tspan x="87.46" y="0">a</tspan></text><text transform="translate(19.61 52.76)" class="AX AY Ad"><tspan class="k">I</tspan><tspan class="l" x="7.86" y="0">N</tspan><tspan class="m" x="29.25" y="0">D</tspan><tspan class="n" x="50.46" y="0">U</tspan><tspan class="o" x="71.76" y="0">C</tspan><tspan class="p" x="92.85" y="0">T</tspan><tspan class="q" x="110.55" y="0">I</tspan><tspan class="L" x="118.47" y="0">O</tspan><tspan x="141.63" y="0">N </tspan></text><text transform="translate(68.84 88.76)" class="AX AY Ad"><tspan class="r">H</tspan><tspan class="s" x="21.51" y="0">O</tspan><tspan x="44.73" y="0">B</tspan></text><path d="M101.95 195.89v-16.36m4.23 11.82l-4.23 4.54-4.22-4.54m391.33 77.92V15.79" class="AZ Ab Ac"/><text transform="translate(504.09 24.9)" class="AX AY Ad"><tspan class="t">A</tspan><tspan class="u" x="19.53" y="0">P</tspan><tspan x="38.58" y="0">P</tspan></text><text transform="translate(504.09 82.17)" class="AX AY Ad"><tspan class="v">C</tspan><tspan class="w" x="21.27" y="0">S</tspan><tspan x="40.17" y="0">V</tspan></text><path d="M488.31 16.54h9.26m-8.51 56.51h9.26" class="AZ Ab Ac"/><text transform="translate(567.14 19.34)" class="AX AY Aa">- o<tspan class="X" x="21.01" y="0">p</tspan><tspan class="V" x="30.94" y="0">en</tspan><tspan x="50.78" y="0">s </tspan><tspan class="X" x="64.78" y="0">t</tspan><tspan class="V" x="69.71" y="0">h</tspan><tspan x="79.63" y="0">e </tspan><tspan class="x" x="94.64" y="0">E</tspan><tspan class="V" x="106.31" y="0">l</tspan><tspan x="110.21" y="0">e</tspan><tspan class="y" x="120.22" y="0">c</tspan><tspan class="z" x="129.26" y="0">t</tspan><tspan class="Z" x="134.08" y="0">r</tspan><tspan class="AA" x="139.97" y="0">o</tspan><tspan class="T" x="149.94" y="0">l</tspan><tspan class="V" x="153.77" y="0">u</tspan><tspan x="163.69" y="0">x </tspan><tspan class="X" x="177.7" y="0">a</tspan><tspan x="187.63" y="0">p</tspan><tspan class="F" x="197.64" y="0">p</tspan><tspan class="AB" x="207.52" y="0">/</tspan><tspan class="V" x="211.91" y="0">s</tspan><tspan class="Z" x="220.82" y="0">i</tspan><tspan class="AC" x="224.71" y="0">t</tspan><tspan x="229.43" y="0">e </tspan><tspan class="g" x="244.44" y="0">o</tspan><tspan x="254.39" y="0">n </tspan><tspan class="a" x="269.4" y="0">t</tspan><tspan class="V" x="274.34" y="0">h</tspan><tspan x="284.25" y="0">e </tspan><tspan class="g" x="299.27" y="0">sm</tspan><tspan class="q" x="323.15" y="0">a</tspan><tspan class="AD" x="332.91" y="0">r</tspan><tspan x="339.35" y="0">t</tspan><tspan class="g" x="344.36" y="0">p</tspan><tspan class="X" x="354.31" y="0">h</tspan><tspan class="g" x="364.25" y="0">o</tspan><tspan class="V" x="374.2" y="0">n</tspan><tspan x="384.12" y="0">e</tspan></text><text transform="translate(567.14 78.51)" class="AX AY Aa">- <tspan class="p" x="11" y="0">v</tspan><tspan class="F" x="19.62" y="0">a</tspan><tspan class="T" x="29.5" y="0">l</tspan><tspan class="V" x="33.34" y="0">ue</tspan><tspan x="53.17" y="0">s </tspan><tspan class="AE" x="67.18" y="0">o</tspan><tspan x="76.95" y="0">f </tspan><tspan class="AF" x="86.96" y="0">i</tspan><tspan class="AG" x="90.83" y="0">n</tspan><tspan class="AC" x="100.62" y="0">t</tspan><tspan class="e" x="105.33" y="0">e</tspan><tspan class="T" x="115.15" y="0">r</tspan><tspan class="V" x="120.98" y="0">e</tspan><tspan class="F" x="130.9" y="0">s</tspan><tspan x="139.77" y="0">t </tspan><tspan class="AH" x="149.78" y="0">f</tspan><tspan class="T" x="154.48" y="0">o</tspan><tspan x="164.32" y="0">r </tspan><tspan class="X" x="175.32" y="0">t</tspan><tspan class="V" x="180.25" y="0">h</tspan><tspan x="190.17" y="0">e </tspan><tspan class="a" x="205.18" y="0">a</tspan><tspan x="215.12" y="0">pp</tspan></text><path d="M533.56 175.99V92.02" class="AZ Ab Ac"/><text transform="translate(532.81 115.42)" class="AX AY Aa">- <tspan class="AI" x="11" y="0">H</tspan><tspan x="23.98" y="0">ob </tspan><tspan class="g" x="49" y="0">m</tspan><tspan x="63.94" y="0">od</tspan><tspan class="V" x="83.95" y="0">e</tspan><tspan x="93.87" y="0">l </tspan><tspan class="T" x="102.87" y="0">o</tspan><tspan x="112.71" y="0">r </tspan><tspan class="AJ" x="123.71" y="0">s</tspan><tspan class="AK" x="132.61" y="0">e</tspan><tspan class="AI" x="142.42" y="0">r</tspan><tspan class="Z" x="148.39" y="0">i</tspan><tspan class="F" x="152.28" y="0">a</tspan><tspan x="162.16" y="0">l </tspan><tspan class="T" x="171.16" y="0">n</tspan><tspan class="AJ" x="181.01" y="0">u</tspan><tspan x="190.91" y="0">m</tspan><tspan class="X" x="205.9" y="0">b</tspan><tspan class="e" x="215.84" y="0">e</tspan><tspan class="f" x="225.65" y="0">r</tspan></text><text transform="translate(532.81 137.02)" class="AX AY Aa">- <tspan class="AG" x="11" y="0">I</tspan><tspan class="X" x="15.79" y="0">n</tspan><tspan class="F" x="25.72" y="0">s</tspan><tspan class="j" x="34.6" y="0">t</tspan><tspan class="Z" x="39.58" y="0">a</tspan><tspan class="AL" x="49.48" y="0">l</tspan><tspan class="Y" x="53.33" y="0">l</tspan><tspan class="AM" x="57.24" y="0">e</tspan><tspan class="h" x="67.21" y="0">d </tspan><tspan class="F" x="82.22" y="0">p</tspan><tspan class="AE" x="92.11" y="0">a</tspan><tspan class="AD" x="101.88" y="0">r</tspan><tspan class="g" x="108.32" y="0">t</tspan><tspan x="113.27" y="0">s</tspan></text><text transform="translate(532.81 158.62)" class="AX AY Aa">- <tspan class="AN" x="11" y="0">E</tspan><tspan class="Z" x="22.54" y="0">rr</tspan><tspan class="T" x="34.31" y="0">o</tspan><tspan x="44.15" y="0">r </tspan><tspan class="AO" x="55.15" y="0">c</tspan><tspan class="h" x="64.17" y="0">od</tspan><tspan class="AP" x="84.19" y="0">e</tspan><tspan x="93.76" y="0">, </tspan><tspan class="Z" x="103.77" y="0">i</tspan><tspan x="107.66" y="0">f </tspan><tspan class="X" x="117.67" y="0">t</tspan><tspan class="V" x="122.6" y="0">h</tspan><tspan class="e" x="132.51" y="0">e</tspan><tspan class="T" x="142.33" y="0">r</tspan><tspan x="148.16" y="0">e </tspan><tspan class="X" x="163.17" y="0">i</tspan><tspan x="167.09" y="0">s </tspan><tspan class="g" x="181.1" y="0">o</tspan><tspan class="V" x="191.05" y="0">n</tspan><tspan x="200.97" y="0">e</tspan></text><text transform="translate(532.81 180.22)" class="AX AY Aa">- <tspan class="c" x="11" y="0">R</tspan><tspan class="X" x="23.85" y="0">e</tspan><tspan class="AA" x="33.79" y="0">g</tspan><tspan class="AQ" x="43.76" y="0">i</tspan><tspan class="F" x="47.7" y="0">s</tspan><tspan class="AR" x="56.57" y="0">t</tspan><tspan class="AQ" x="61.4" y="0">r</tspan><tspan class="AS" x="67.34" y="0">a</tspan><tspan class="AQ" x="77.02" y="0">tio</tspan><tspan x="95.87" y="0">n </tspan><tspan class="T" x="110.88" y="0">o</tspan><tspan x="120.72" y="0">r </tspan><tspan class="F" x="131.72" y="0">na</tspan><tspan class="g" x="151.49" y="0">m</tspan><tspan x="166.43" y="0">e </tspan><tspan class="d" x="181.44" y="0">o</tspan><tspan x="191.21" y="0">f c</tspan><tspan class="X" x="210.22" y="0">u</tspan><tspan class="F" x="220.16" y="0">s</tspan><tspan class="q" x="229.03" y="0">t</tspan><tspan class="g" x="233.78" y="0">om</tspan><tspan class="AK" x="258.68" y="0">e</tspan><tspan x="268.49" y="0">r</tspan></text><text transform="translate(65.26 173.33)" class="AX AY Aa"><tspan class="AR">w</tspan><tspan class="AT" x="12.82" y="0">r</tspan><tspan class="AU" x="18.79" y="0">i</tspan><tspan class="AV" x="22.68" y="0">t</tspan><tspan class="V" x="27.4" y="0">e</tspan><tspan x="37.31" y="0">s </tspan><tspan class="g" x="51.32" y="0">o</tspan><tspan x="61.27" y="0">n</tspan></text><path d="M101.95 155.58v-15.59" class="AZ Ab Ac"/><text transform="translate(41.03 116.06)" class="AX AY Aa"><tspan class="AU">m</tspan><tspan class="S" x="14.89" y="0">i</tspan><tspan class="X" x="18.88" y="0">c</tspan><tspan class="F" x="27.81" y="0">r</tspan><tspan class="j" x="33.68" y="0">o</tspan><tspan class="AR" x="43.67" y="0">p</tspan><tspan class="F" x="53.5" y="0">r</tspan><tspan class="AW" x="59.36" y="0">o</tspan><tspan x="69.39" y="0">c</tspan><tspan class="AU" x="78.39" y="0">e</tspan><tspan class="j" x="88.29" y="0">s</tspan><tspan class="Z" x="97.27" y="0">s</tspan><tspan class="AR" x="106.16" y="0">o</tspan><tspan class="S" x="115.99" y="0">r</tspan></text><text transform="translate(522.23 49.77)" class="AX AY Ad">+</text><path d="M399.21 292.08H202.23" class="AZ Ab Ac"/></svg>