<svg id="Capa_1" data-name="Capa 1" xmlns="http://www.w3.org/2000/svg" xmlns:xlink="http://www.w3.org/1999/xlink" viewBox="0 0 985.57 382.07"><defs><style>.cls-1,.cls-3{fill:none;}.cls-2{fill:#fff;}.cls-3{stroke:#1d1d1b;stroke-width:1.5px;}.cls-4{clip-path:url(#clip-path);}.cls-5{font-size:30px;}.cls-18,.cls-5{fill:#1d1d1b;font-family:HelveticaLTStd-Roman, Helvetica LT Std;}.cls-6{letter-spacing:-0.01em;}.cls-7{letter-spacing:-0.01em;}.cls-8{letter-spacing:-0.02em;}.cls-9{letter-spacing:-0.02em;}.cls-10{letter-spacing:-0.02em;}.cls-11{letter-spacing:-0.03em;}.cls-12{letter-spacing:-0.01em;}.cls-13{letter-spacing:-0.01em;}.cls-14{letter-spacing:-0.01em;}.cls-15{letter-spacing:-0.03em;}.cls-16{letter-spacing:-0.1em;}.cls-17{letter-spacing:-0.04em;}.cls-18{font-size:18px;}.cls-19{letter-spacing:0em;}.cls-20{letter-spacing:-0.01em;}.cls-21{letter-spacing:0em;}.cls-22{letter-spacing:0em;}.cls-23{letter-spacing:-0.01em;}.cls-24{letter-spacing:0em;}.cls-25{letter-spacing:-0.01em;}.cls-26{letter-spacing:-0.01em;}.cls-27{letter-spacing:0em;}.cls-28{letter-spacing:-0.02em;}.cls-29{letter-spacing:-0.01em;}.cls-30{letter-spacing:-0.01em;}.cls-31{letter-spacing:-0.01em;}.cls-32{letter-spacing:0em;}.cls-33{letter-spacing:0em;}.cls-34{letter-spacing:0em;}.cls-35{letter-spacing:-0.02em;}.cls-36{letter-spacing:0em;}.cls-37{letter-spacing:-0.02em;}.cls-38{letter-spacing:-0.01em;}.cls-39{letter-spacing:-0.02em;}.cls-40{letter-spacing:-0.01em;}.cls-41{letter-spacing:-0.02em;}.cls-42{letter-spacing:-0.02em;}.cls-43{letter-spacing:-0.01em;}.cls-44{letter-spacing:0em;}.cls-45{letter-spacing:0em;}.cls-46{letter-spacing:-0.02em;}.cls-47{letter-spacing:-0.03em;}.cls-48{letter-spacing:-0.01em;}.cls-49{letter-spacing:-0.04em;}.cls-50{letter-spacing:-0.02em;}.cls-51{letter-spacing:0em;}.cls-52{letter-spacing:-0.01em;}.cls-53{letter-spacing:0em;}.cls-54{letter-spacing:-0.03em;}.cls-55{letter-spacing:-0.02em;}.cls-56{letter-spacing:0.03em;}.cls-57{letter-spacing:-0.01em;}.cls-58{letter-spacing:-0.01em;}.cls-59{letter-spacing:-0.01em;}.cls-60{letter-spacing:-0.02em;}.cls-61{letter-spacing:0em;}.cls-62{letter-spacing:-0.01em;}.cls-63{letter-spacing:-0.01em;}.cls-64{letter-spacing:-0.01em;}.cls-65{letter-spacing:0em;}.cls-66{letter-spacing:-0.03em;}.cls-67{letter-spacing:0em;}.cls-68{letter-spacing:-0.02em;}.cls-69{letter-spacing:0em;}.cls-70{letter-spacing:-0.01em;}.cls-71{letter-spacing:-0.02em;}.cls-72{letter-spacing:0em;}.cls-73{letter-spacing:-0.01em;}.cls-74{letter-spacing:-0.02em;}.cls-75{letter-spacing:0em;}</style><clipPath id="clip-path" transform="translate(-83.96 -54.88)"><rect class="cls-1" x="83.96" y="50.85" width="1003.45" height="386.1"/></clipPath></defs><rect class="cls-2" x="465.77" y="278.53" width="45.26" height="27.01"/><rect class="cls-3" x="465.77" y="278.53" width="45.26" height="27.01"/><rect class="cls-2" x="748.62" y="241.1" width="236.2" height="90.92"/><rect class="cls-3" x="748.62" y="241.1" width="236.2" height="90.92"/><rect class="cls-2" x="0.75" y="11.2" width="202.41" height="120.95"/><g class="cls-4"><rect class="cls-3" x="0.75" y="11.2" width="202.41" height="120.95"/></g><text class="cls-5" transform="translate(764.49 285.47)"><tspan class="cls-6">S</tspan><tspan class="cls-7" x="19.8" y="0">M</tspan><tspan class="cls-8" x="44.49" y="0">A</tspan><tspan class="cls-9" x="63.99" y="0">R</tspan><tspan class="cls-10" x="85.17" y="0">T</tspan><tspan class="cls-11" x="102.96" y="0">P</tspan><tspan class="cls-12" x="122.1" y="0">HO</tspan><tspan class="cls-13" x="166.74" y="0">N</tspan><tspan x="188.04" y="0">E</tspan></text><g class="cls-4"><path class="cls-2" d="M184.84,436.2a89.31,89.31,0,1,0-89.32-89.31,89.31,89.31,0,0,0,89.32,89.31" transform="translate(-83.96 -54.88)"/><ellipse class="cls-3" cx="100.88" cy="292.01" rx="89.32" ry="89.31"/></g><text class="cls-5" transform="translate(37.78 294.72)"><tspan class="cls-14">N</tspan><tspan class="cls-15" x="21.33" y="0">F</tspan><tspan x="38.82" y="0">C </tspan><tspan class="cls-16" x="68.82" y="0">T</tspan><tspan class="cls-17" x="84.15" y="0">A</tspan><tspan x="102.9" y="0">G</tspan></text><text class="cls-18" transform="translate(61.71 317.57)"><tspan class="cls-6">i</tspan><tspan class="cls-19" x="3.87" y="0">n</tspan><tspan class="cls-20" x="13.88" y="0"> </tspan><tspan class="cls-21" x="18.72" y="0">t</tspan><tspan class="cls-22" x="23.65" y="0">h</tspan><tspan x="33.57" y="0">e</tspan><tspan class="cls-23" x="43.58" y="0"> </tspan><tspan class="cls-24" x="48.42" y="0">h</tspan><tspan class="cls-19" x="58.36" y="0">ob</tspan></text><text class="cls-18" transform="translate(803.7 311.33)"><tspan class="cls-25">w</tspan><tspan class="cls-26" x="12.91" y="0">i</tspan><tspan class="cls-27" x="16.79" y="0">t</tspan><tspan x="21.73" y="0">h </tspan><tspan class="cls-6" x="36.74" y="0">N</tspan><tspan class="cls-28" x="49.61" y="0">F</tspan><tspan x="60.17" y="0">C </tspan><tspan class="cls-20" x="78.17" y="0">r</tspan><tspan class="cls-29" x="84" y="0">e</tspan><tspan class="cls-30" x="93.87" y="0">a</tspan><tspan x="103.64" y="0">d</tspan><tspan class="cls-31" x="113.65" y="0">e</tspan><tspan class="cls-32" x="123.46" y="0">r</tspan></text><line class="cls-3" x1="520.53" y1="291.33" x2="727.22" y2="291.33"/><polyline class="cls-3" points="722.67 287.11 727.22 291.33 722.67 295.56"/><text class="cls-18" transform="translate(408.25 297.8)"><tspan class="cls-26">s</tspan><tspan class="cls-22" x="8.89" y="0">e</tspan><tspan class="cls-33" x="18.81" y="0">n</tspan><tspan class="cls-34" x="28.76" y="0" xml:space="preserve">ds   d</tspan><tspan class="cls-35" x="72.79" y="0">a</tspan><tspan class="cls-36" x="82.48" y="0">t</tspan><tspan x="87.46" y="0">a</tspan></text><text class="cls-5" transform="translate(19.61 52.76)"><tspan class="cls-37">I</tspan><tspan class="cls-38" x="7.86" y="0">N</tspan><tspan class="cls-39" x="29.25" y="0">D</tspan><tspan class="cls-40" x="50.46" y="0">U</tspan><tspan class="cls-41" x="71.76" y="0">C</tspan><tspan class="cls-42" x="92.85" y="0">T</tspan><tspan class="cls-43" x="110.55" y="0">I</tspan><tspan class="cls-12" x="118.47" y="0">O</tspan><tspan x="141.63" y="0">N </tspan></text><text class="cls-5" transform="translate(68.84 88.76)"><tspan class="cls-44">H</tspan><tspan class="cls-45" x="21.51" y="0">O</tspan><tspan x="44.73" y="0">B</tspan></text><line class="cls-3" x1="101.95" y1="195.89" x2="101.95" y2="179.53"/><polyline class="cls-3" points="106.18 191.35 101.95 195.89 97.73 191.35"/><line class="cls-3" x1="489.06" y1="269.27" x2="489.06" y2="15.79"/><text class="cls-5" transform="translate(504.09 24.9)"><tspan class="cls-46">A</tspan><tspan class="cls-47" x="19.53" y="0">P</tspan><tspan x="38.58" y="0">P</tspan></text><text class="cls-5" transform="translate(504.09 82.17)"><tspan class="cls-48">C</tspan><tspan class="cls-49" x="21.27" y="0">S</tspan><tspan x="40.17" y="0">V</tspan></text><line class="cls-3" x1="488.31" y1="16.54" x2="497.57" y2="16.54"/><line class="cls-3" x1="489.06" y1="73.05" x2="498.32" y2="73.05"/><text class="cls-18" transform="translate(567.14 19.34)">- o<tspan class="cls-24" x="21.01" y="0">p</tspan><tspan class="cls-22" x="30.94" y="0">en</tspan><tspan x="50.78" y="0">s </tspan><tspan class="cls-24" x="64.78" y="0">t</tspan><tspan class="cls-22" x="69.71" y="0">h</tspan><tspan x="79.63" y="0">e </tspan><tspan class="cls-50" x="94.64" y="0">E</tspan><tspan class="cls-22" x="106.31" y="0">l</tspan><tspan x="110.21" y="0">e</tspan><tspan class="cls-51" x="120.22" y="0">c</tspan><tspan class="cls-52" x="129.26" y="0">t</tspan><tspan class="cls-26" x="134.08" y="0">r</tspan><tspan class="cls-53" x="139.97" y="0">o</tspan><tspan class="cls-20" x="149.94" y="0">l</tspan><tspan class="cls-22" x="153.77" y="0">u</tspan><tspan x="163.69" y="0">x </tspan><tspan class="cls-24" x="177.7" y="0">a</tspan><tspan x="187.63" y="0">p</tspan><tspan class="cls-6" x="197.64" y="0">p</tspan><tspan class="cls-54" x="207.52" y="0">/</tspan><tspan class="cls-22" x="211.91" y="0">s</tspan><tspan class="cls-26" x="220.82" y="0">i</tspan><tspan class="cls-55" x="224.71" y="0">t</tspan><tspan x="229.43" y="0">e </tspan><tspan class="cls-33" x="244.44" y="0">o</tspan><tspan x="254.39" y="0">n </tspan><tspan class="cls-27" x="269.4" y="0">t</tspan><tspan class="cls-22" x="274.34" y="0">h</tspan><tspan x="284.25" y="0">e </tspan><tspan class="cls-33" x="299.27" y="0">sm</tspan><tspan class="cls-43" x="323.15" y="0">a</tspan><tspan class="cls-56" x="332.91" y="0">r</tspan><tspan x="339.35" y="0">t</tspan><tspan class="cls-33" x="344.36" y="0">p</tspan><tspan class="cls-24" x="354.31" y="0">h</tspan><tspan class="cls-33" x="364.25" y="0">o</tspan><tspan class="cls-22" x="374.2" y="0">n</tspan><tspan x="384.12" y="0">e</tspan></text><text class="cls-18" transform="translate(567.14 78.51)">- <tspan class="cls-42" x="11" y="0">v</tspan><tspan class="cls-6" x="19.62" y="0">a</tspan><tspan class="cls-20" x="29.5" y="0">l</tspan><tspan class="cls-22" x="33.34" y="0">ue</tspan><tspan x="53.17" y="0">s </tspan><tspan class="cls-57" x="67.18" y="0">o</tspan><tspan x="76.95" y="0">f </tspan><tspan class="cls-58" x="86.96" y="0">i</tspan><tspan class="cls-59" x="90.83" y="0">n</tspan><tspan class="cls-55" x="100.62" y="0">t</tspan><tspan class="cls-31" x="105.33" y="0">e</tspan><tspan class="cls-20" x="115.15" y="0">r</tspan><tspan class="cls-22" x="120.98" y="0">e</tspan><tspan class="cls-6" x="130.9" y="0">s</tspan><tspan x="139.77" y="0">t </tspan><tspan class="cls-60" x="149.78" y="0">f</tspan><tspan class="cls-20" x="154.48" y="0">o</tspan><tspan x="164.32" y="0">r </tspan><tspan class="cls-24" x="175.32" y="0">t</tspan><tspan class="cls-22" x="180.25" y="0">h</tspan><tspan x="190.17" y="0">e </tspan><tspan class="cls-27" x="205.18" y="0">a</tspan><tspan x="215.12" y="0">pp</tspan></text><line class="cls-3" x1="533.56" y1="175.99" x2="533.56" y2="92.02"/><text class="cls-18" transform="translate(532.81 115.42)">- <tspan class="cls-61" x="11" y="0">H</tspan><tspan x="23.98" y="0">ob </tspan><tspan class="cls-33" x="49" y="0">m</tspan><tspan x="63.94" y="0">od</tspan><tspan class="cls-22" x="83.95" y="0">e</tspan><tspan x="93.87" y="0">l </tspan><tspan class="cls-20" x="102.87" y="0">o</tspan><tspan x="112.71" y="0">r </tspan><tspan class="cls-62" x="123.71" y="0">s</tspan><tspan class="cls-63" x="132.61" y="0">e</tspan><tspan class="cls-61" x="142.42" y="0">r</tspan><tspan class="cls-26" x="148.39" y="0">i</tspan><tspan class="cls-6" x="152.28" y="0">a</tspan><tspan x="162.16" y="0">l </tspan><tspan class="cls-20" x="171.16" y="0">n</tspan><tspan class="cls-62" x="181.01" y="0">u</tspan><tspan x="190.91" y="0">m</tspan><tspan class="cls-24" x="205.9" y="0">b</tspan><tspan class="cls-31" x="215.84" y="0">e</tspan><tspan class="cls-32" x="225.65" y="0">r</tspan></text><text class="cls-18" transform="translate(532.81 137.02)">- <tspan class="cls-59" x="11" y="0">I</tspan><tspan class="cls-24" x="15.79" y="0">n</tspan><tspan class="cls-6" x="25.72" y="0">s</tspan><tspan class="cls-36" x="34.6" y="0">t</tspan><tspan class="cls-26" x="39.58" y="0">a</tspan><tspan class="cls-64" x="49.48" y="0">l</tspan><tspan class="cls-25" x="53.33" y="0">l</tspan><tspan class="cls-65" x="57.24" y="0">e</tspan><tspan class="cls-34" x="67.21" y="0">d </tspan><tspan class="cls-6" x="82.22" y="0">p</tspan><tspan class="cls-57" x="92.11" y="0">a</tspan><tspan class="cls-56" x="101.88" y="0">r</tspan><tspan class="cls-33" x="108.32" y="0">t</tspan><tspan x="113.27" y="0">s</tspan></text><text class="cls-18" transform="translate(532.81 158.62)">- <tspan class="cls-66" x="11" y="0">E</tspan><tspan class="cls-26" x="22.54" y="0">rr</tspan><tspan class="cls-20" x="34.31" y="0">o</tspan><tspan x="44.15" y="0">r </tspan><tspan class="cls-67" x="55.15" y="0">c</tspan><tspan class="cls-34" x="64.17" y="0">od</tspan><tspan class="cls-68" x="84.19" y="0">e</tspan><tspan x="93.76" y="0">, </tspan><tspan class="cls-26" x="103.77" y="0">i</tspan><tspan x="107.66" y="0">f </tspan><tspan class="cls-24" x="117.67" y="0">t</tspan><tspan class="cls-22" x="122.6" y="0">h</tspan><tspan class="cls-31" x="132.51" y="0">e</tspan><tspan class="cls-20" x="142.33" y="0">r</tspan><tspan x="148.16" y="0">e </tspan><tspan class="cls-24" x="163.17" y="0">i</tspan><tspan x="167.09" y="0">s </tspan><tspan class="cls-33" x="181.1" y="0">o</tspan><tspan class="cls-22" x="191.05" y="0">n</tspan><tspan x="200.97" y="0">e</tspan></text><text class="cls-18" transform="translate(532.81 180.22)">- <tspan class="cls-29" x="11" y="0">R</tspan><tspan class="cls-24" x="23.85" y="0">e</tspan><tspan class="cls-53" x="33.79" y="0">g</tspan><tspan class="cls-69" x="43.76" y="0">i</tspan><tspan class="cls-6" x="47.7" y="0">s</tspan><tspan class="cls-70" x="56.57" y="0">t</tspan><tspan class="cls-69" x="61.4" y="0">r</tspan><tspan class="cls-71" x="67.34" y="0">a</tspan><tspan class="cls-69" x="77.02" y="0">tio</tspan><tspan x="95.87" y="0">n </tspan><tspan class="cls-20" x="110.88" y="0">o</tspan><tspan x="120.72" y="0">r </tspan><tspan class="cls-6" x="131.72" y="0">na</tspan><tspan class="cls-33" x="151.49" y="0">m</tspan><tspan x="166.43" y="0">e </tspan><tspan class="cls-30" x="181.44" y="0">o</tspan><tspan x="191.21" y="0">f c</tspan><tspan class="cls-24" x="210.22" y="0">u</tspan><tspan class="cls-6" x="220.16" y="0">s</tspan><tspan class="cls-43" x="229.03" y="0">t</tspan><tspan class="cls-33" x="233.78" y="0">om</tspan><tspan class="cls-63" x="258.68" y="0">e</tspan><tspan x="268.49" y="0">r</tspan></text><text class="cls-18" transform="translate(65.26 173.33)"><tspan class="cls-70">w</tspan><tspan class="cls-72" x="12.82" y="0">r</tspan><tspan class="cls-73" x="18.79" y="0">i</tspan><tspan class="cls-74" x="22.68" y="0">t</tspan><tspan class="cls-22" x="27.4" y="0">e</tspan><tspan x="37.31" y="0">s </tspan><tspan class="cls-33" x="51.32" y="0">o</tspan><tspan x="61.27" y="0">n</tspan></text><line class="cls-3" x1="101.95" y1="155.58" x2="101.95" y2="139.99"/><text class="cls-18" transform="translate(41.03 116.06)"><tspan class="cls-73">m</tspan><tspan class="cls-19" x="14.89" y="0">i</tspan><tspan class="cls-24" x="18.88" y="0">c</tspan><tspan class="cls-6" x="27.81" y="0">r</tspan><tspan class="cls-36" x="33.68" y="0">o</tspan><tspan class="cls-70" x="43.67" y="0">p</tspan><tspan class="cls-6" x="53.5" y="0">r</tspan><tspan class="cls-75" x="59.36" y="0">o</tspan><tspan x="69.39" y="0">c</tspan><tspan class="cls-73" x="78.39" y="0">e</tspan><tspan class="cls-36" x="88.29" y="0">s</tspan><tspan class="cls-26" x="97.27" y="0">s</tspan><tspan class="cls-70" x="106.16" y="0">o</tspan><tspan class="cls-19" x="115.99" y="0">r</tspan></text><text class="cls-5" transform="translate(522.23 49.77)">+</text><line class="cls-3" x1="399.21" y1="292.08" x2="202.23" y2="292.08"/></svg>