<svg id="Capa_1" data-name="Capa 1" xmlns="http://www.w3.org/2000/svg" xmlns:xlink="http://www.w3.org/1999/xlink" viewBox="0 0 1224 478.98"><defs><style>.cls-1,.cls-3{fill:none;}.cls-2{fill:#fff;}.cls-3{stroke:#1d1d1b;stroke-width:1.5px;}.cls-4,.cls-55{font-size:18px;}.cls-36,.cls-4,.cls-52,.cls-55{fill:#1d1d1b;}.cls-12,.cls-36,.cls-4,.cls-52,.cls-55{font-family:HelveticaLTStd-Roman, Helvetica LT Std;}.cls-5{letter-spacing:0em;}.cls-6{letter-spacing:0em;}.cls-7{letter-spacing:-0.03em;}.cls-8{letter-spacing:-0.01em;}.cls-9{letter-spacing:0em;}.cls-10{letter-spacing:0em;}.cls-11{letter-spacing:-0.01em;}.cls-12{font-size:30px;}.cls-13{letter-spacing:-0.01em;}.cls-14{letter-spacing:-0.01em;}.cls-15{letter-spacing:-0.01em;}.cls-16{letter-spacing:-0.01em;}.cls-17{letter-spacing:-0.01em;}.cls-18{letter-spacing:-0.01em;}.cls-19{letter-spacing:-0.01em;}.cls-20{letter-spacing:-0.02em;}.cls-21{letter-spacing:-0.01em;}.cls-22{letter-spacing:0em;}.cls-23{letter-spacing:-0.01em;}.cls-24{letter-spacing:-0.01em;}.cls-25{letter-spacing:-0.02em;}.cls-26{letter-spacing:-0.01em;}.cls-27{letter-spacing:-0.02em;}.cls-28{letter-spacing:-0.02em;}.cls-29{letter-spacing:0em;}.cls-30{letter-spacing:-0.02em;}.cls-31{letter-spacing:-0.02em;}.cls-32{letter-spacing:0em;}.cls-33{letter-spacing:0em;}.cls-34{letter-spacing:-0.01em;}.cls-35{clip-path:url(#clip-path);}.cls-36,.cls-52{font-size:18px;}.cls-37{letter-spacing:0em;}.cls-38{letter-spacing:0em;}.cls-39{letter-spacing:0em;}.cls-40{letter-spacing:0em;}.cls-41{letter-spacing:-0.02em;}.cls-42{letter-spacing:-0.03em;}.cls-43{letter-spacing:-0.01em;}.cls-44,.cls-52{letter-spacing:-0.01em;}.cls-45{letter-spacing:-0.01em;}.cls-46{letter-spacing:-0.01em;}.cls-47{letter-spacing:-0.01em;}.cls-48{letter-spacing:-0.01em;}.cls-49{letter-spacing:-0.02em;}.cls-50{letter-spacing:0em;}.cls-51{letter-spacing:0em;}.cls-53{letter-spacing:-0.01em;}.cls-54{letter-spacing:0em;}.cls-55{letter-spacing:0em;}.cls-56{letter-spacing:0em;}.cls-57{letter-spacing:-0.01em;}.cls-58{letter-spacing:-0.02em;}.cls-59{letter-spacing:0em;}.cls-60{letter-spacing:-0.01em;}.cls-61{letter-spacing:0em;}.cls-62{letter-spacing:-0.01em;}.cls-63{letter-spacing:0em;}.cls-64{letter-spacing:-0.01em;}.cls-65{letter-spacing:-0.03em;}.cls-66{letter-spacing:0em;}.cls-67{letter-spacing:-0.02em;}.cls-68{letter-spacing:0.01em;}.cls-69{letter-spacing:-0.1em;}.cls-70{letter-spacing:-0.02em;}.cls-71{letter-spacing:0em;}.cls-72{letter-spacing:-0.02em;}.cls-73{letter-spacing:-0.02em;}.cls-74{letter-spacing:0.01em;}.cls-75{letter-spacing:-0.1em;}.cls-76{letter-spacing:0em;}.cls-77{letter-spacing:-0.02em;}.cls-78{letter-spacing:-0.02em;}.cls-79{letter-spacing:0em;}.cls-80{letter-spacing:-0.03em;}.cls-81{letter-spacing:-0.01em;}.cls-82{letter-spacing:-0.01em;}.cls-83{letter-spacing:-0.04em;}.cls-84{letter-spacing:-0.03em;}.cls-85{letter-spacing:-0.01em;}.cls-86{letter-spacing:-0.03em;}.cls-87{letter-spacing:-0.05em;}.cls-88{letter-spacing:0em;}.cls-89{letter-spacing:-0.1em;}.cls-90{letter-spacing:-0.02em;}.cls-91{letter-spacing:-0.02em;}.cls-92{letter-spacing:-0.03em;}.cls-93{letter-spacing:-0.01em;}.cls-94{letter-spacing:-0.03em;}.cls-95{letter-spacing:-0.01em;}.cls-96{letter-spacing:0.02em;}.cls-97{letter-spacing:-0.02em;}.cls-98{letter-spacing:-0.03em;}.cls-99{letter-spacing:-0.03em;}.cls-100{letter-spacing:-0.09em;}.cls-101{letter-spacing:-0.02em;}.cls-102{letter-spacing:-0.01em;}.cls-103{letter-spacing:-0.08em;}.cls-104{letter-spacing:-0.09em;}</style><clipPath id="clip-path" transform="translate(0 -29.02)"><rect class="cls-1" x="-22.71" y="24.99" width="1264.07" height="483.01"/></clipPath></defs><rect class="cls-2" x="248.49" y="122.16" width="212.89" height="212.89" transform="translate(-57.69 288.91) rotate(-45)"/><rect class="cls-3" x="248.49" y="122.16" width="212.89" height="212.89" transform="translate(-57.69 288.91) rotate(-45)"/><rect class="cls-2" x="794.28" y="122.21" width="212.89" height="212.89" transform="translate(102.14 674.85) rotate(-45)"/><rect class="cls-3" x="794.28" y="122.21" width="212.89" height="212.89" transform="translate(102.14 674.85) rotate(-45)"/><line class="cls-3" x1="504.67" y1="199.57" x2="751.75" y2="199.57"/><text class="cls-4" transform="translate(247.1 141.02) rotate(-45)"><tspan class="cls-5">D</tspan><tspan class="cls-6" x="12.98" y="0">i</tspan><tspan class="cls-7" x="16.9" y="0">v</tspan><tspan class="cls-8" x="25.45" y="0">e</tspan><tspan class="cls-9" x="35.26" y="0">r</tspan><tspan class="cls-10" x="41.17" y="0">g</tspan><tspan class="cls-11" x="51.14" y="0">i</tspan><tspan class="cls-9" x="55.01" y="0">n</tspan><tspan x="64.93" y="0">g</tspan></text><text class="cls-12" transform="translate(163.61 24.9)"><tspan class="cls-13">D</tspan><tspan class="cls-14" x="21.45" y="0">O</tspan><tspan class="cls-15" x="44.46" y="0">I</tspan><tspan class="cls-16" x="52.35" y="0">N</tspan><tspan x="73.77" y="0">G </tspan><tspan class="cls-17" x="105.45" y="0">T</tspan><tspan class="cls-18" x="123.42" y="0">H</tspan><tspan x="144.75" y="0">E </tspan><tspan class="cls-19" x="173.1" y="0">R</tspan><tspan class="cls-20" x="194.31" y="0">I</tspan><tspan class="cls-21" x="202.17" y="0">G</tspan><tspan class="cls-18" x="225.21" y="0">H</tspan><tspan class="cls-22" x="246.54" y="0">T </tspan><tspan class="cls-23" x="273.21" y="0">T</tspan><tspan class="cls-24" x="291.18" y="0">H</tspan><tspan class="cls-25" x="312.42" y="0">I</tspan><tspan class="cls-26" x="320.31" y="0">N</tspan><tspan class="cls-27" x="341.73" y="0">G</tspan><tspan x="364.53" y="0">S</tspan></text><text class="cls-12" transform="translate(743.12 24.9)"><tspan class="cls-13">D</tspan><tspan class="cls-18" x="21.45" y="0">O</tspan><tspan class="cls-25" x="44.46" y="0">I</tspan><tspan class="cls-26" x="52.35" y="0">N</tspan><tspan x="73.77" y="0">G </tspan><tspan class="cls-17" x="105.45" y="0">T</tspan><tspan class="cls-24" x="123.42" y="0">H</tspan><tspan class="cls-19" x="144.66" y="0">I</tspan><tspan class="cls-16" x="152.55" y="0">N</tspan><tspan class="cls-27" x="173.97" y="0">G</tspan><tspan x="196.77" y="0">S </tspan><tspan class="cls-25" x="225.12" y="0">R</tspan><tspan class="cls-28" x="246.33" y="0">I</tspan><tspan class="cls-21" x="254.19" y="0">G</tspan><tspan class="cls-17" x="277.23" y="0">H</tspan><tspan x="298.53" y="0">T</tspan></text><text class="cls-4" transform="translate(409.89 85.41) rotate(45)"><tspan class="cls-10">C</tspan><tspan class="cls-29" x="12.96" y="0">o</tspan><tspan class="cls-30" x="22.91" y="0">n</tspan><tspan class="cls-31" x="32.53" y="0">v</tspan><tspan class="cls-8" x="41.09" y="0">e</tspan><tspan class="cls-32" x="50.9" y="0">r</tspan><tspan class="cls-33" x="56.83" y="0">g</tspan><tspan class="cls-34" x="66.8" y="0">i</tspan><tspan class="cls-9" x="70.67" y="0">n</tspan><tspan x="80.58" y="0">g</tspan></text><g class="cls-35"><line class="cls-3" x1="354.97" y1="478.98" x2="354.97" y2="49.32"/><line class="cls-3" x1="900.68" y1="478.98" x2="900.68" y2="49.27"/></g><text class="cls-36" transform="translate(259.09 205.28)"><tspan class="cls-37">D</tspan><tspan class="cls-38" x="12.98" y="0">i</tspan><tspan class="cls-39" x="16.9" y="0">s</tspan><tspan class="cls-40" x="25.88" y="0">c</tspan><tspan class="cls-41" x="34.9" y="0">o</tspan><tspan class="cls-42" x="44.55" y="0">v</tspan><tspan class="cls-43" x="53.1" y="0">e</tspan><tspan x="62.91" y="0">r</tspan></text><text class="cls-36" transform="translate(381.76 206.78)"><tspan class="cls-44">D</tspan><tspan class="cls-45" x="12.91" y="0">e</tspan><tspan class="cls-46" x="22.7" y="0">f</tspan><tspan class="cls-47" x="27.54" y="0">i</tspan><tspan class="cls-48" x="31.41" y="0">n</tspan><tspan x="41.31" y="0">e</tspan></text><text class="cls-36" transform="translate(807.49 205.28)"><tspan class="cls-44">D</tspan><tspan class="cls-49" x="12.91" y="0">e</tspan><tspan class="cls-42" x="22.5" y="0">v</tspan><tspan class="cls-50" x="31.05" y="0">e</tspan><tspan class="cls-51" x="40.97" y="0">l</tspan><tspan x="44.91" y="0">op</tspan></text><text class="cls-52" transform="translate(928.97 205.28)">De<tspan class="cls-26" x="22.82" y="0">l</tspan><tspan x="26.68" y="0">i</tspan><tspan class="cls-42" x="30.58" y="0">v</tspan><tspan class="cls-53" x="39.13" y="0">e</tspan><tspan class="cls-54" x="48.94" y="0">r</tspan></text><text class="cls-55" transform="translate(790.16 140.86) rotate(-45)">D<tspan class="cls-32" x="12.98" y="0">i</tspan><tspan class="cls-31" x="16.9" y="0">v</tspan><tspan class="cls-8" x="25.47" y="0">e</tspan><tspan class="cls-9" x="35.28" y="0">r</tspan><tspan class="cls-10" x="41.18" y="0">g</tspan><tspan class="cls-34" x="51.16" y="0">i</tspan><tspan class="cls-9" x="55.02" y="0">n</tspan><tspan class="cls-56" x="64.94" y="0">g</tspan></text><text class="cls-4" transform="translate(952.95 85.25) rotate(45)"><tspan class="cls-10">C</tspan><tspan class="cls-29" x="12.96" y="0">o</tspan><tspan class="cls-30" x="22.91" y="0">n</tspan><tspan class="cls-31" x="32.53" y="0">v</tspan><tspan class="cls-8" x="41.09" y="0">e</tspan><tspan class="cls-32" x="50.9" y="0">r</tspan><tspan class="cls-33" x="56.83" y="0">g</tspan><tspan class="cls-34" x="66.8" y="0">i</tspan><tspan class="cls-9" x="70.67" y="0">n</tspan><tspan x="80.58" y="0">g</tspan></text><line class="cls-3" x1="1050.52" y1="199.63" x2="1224" y2="199.63"/><line class="cls-3" y1="199.57" x2="204.99" y2="199.57"/><text class="cls-36" transform="translate(566.37 182)"><tspan class="cls-57">R</tspan><tspan class="cls-58" x="12.85" y="0">e</tspan><tspan class="cls-59" x="22.45" y="0">v</tspan><tspan class="cls-51" x="31.37" y="0">i</tspan><tspan class="cls-60" x="35.32" y="0">s</tspan><tspan class="cls-61" x="44.21" y="0">e </tspan><tspan class="cls-62" x="59.22" y="0">p</tspan><tspan class="cls-60" x="69.07" y="0">r</tspan><tspan x="74.95" y="0">o</tspan><tspan class="cls-63" x="84.96" y="0">b</tspan><tspan class="cls-50" x="94.91" y="0">le</tspan><tspan class="cls-54" x="108.74" y="0">m</tspan></text><line class="cls-3" x1="100.59" y1="183.28" x2="117.08" y2="199.76"/><line class="cls-3" x1="100.59" y1="215.88" x2="117.08" y2="199.4"/><line class="cls-3" x1="1130.8" y1="183.37" x2="1147.29" y2="199.85"/><line class="cls-3" x1="1130.8" y1="215.97" x2="1147.29" y2="199.49"/><text class="cls-12" transform="translate(626.32 431.61)"><tspan class="cls-27">U</tspan><tspan class="cls-64" x="21.12" y="0">S</tspan><tspan class="cls-65" x="40.74" y="0">E</tspan><tspan class="cls-66" x="59.88" y="0">R </tspan><tspan class="cls-17" x="89.88" y="0">N</tspan><tspan class="cls-67" x="111.18" y="0">A</tspan><tspan class="cls-64" x="130.68" y="0">R</tspan><tspan class="cls-68" x="151.95" y="0">R</tspan><tspan class="cls-69" x="173.82" y="0">A</tspan><tspan class="cls-70" x="190.98" y="0">T</tspan><tspan class="cls-64" x="208.74" y="0">I</tspan><tspan class="cls-71" x="216.69" y="0">O</tspan><tspan x="239.88" y="0">N</tspan></text><text class="cls-12" transform="translate(32.56 391.38)"><tspan class="cls-72">L</tspan><tspan class="cls-73" x="15.99" y="0">I</tspan><tspan class="cls-67" x="23.73" y="0">T</tspan><tspan class="cls-65" x="41.55" y="0">E</tspan><tspan class="cls-74" x="60.69" y="0">R</tspan><tspan class="cls-75" x="82.56" y="0">A</tspan><tspan class="cls-64" x="99.72" y="0">T</tspan><tspan class="cls-25" x="117.66" y="0">U</tspan><tspan class="cls-17" x="138.87" y="0">R</tspan><tspan x="160.17" y="0">E </tspan><tspan class="cls-17" x="188.52" y="0">R</tspan><tspan class="cls-76" x="209.82" y="0">E</tspan><tspan class="cls-77" x="229.68" y="0">V</tspan><tspan class="cls-78" x="249.03" y="0">I</tspan><tspan class="cls-79" x="256.77" y="0">E</tspan><tspan x="276.69" y="0">W</tspan></text><text class="cls-12" transform="translate(45.58 431.61)"><tspan class="cls-80">P</tspan><tspan class="cls-81" x="18.99" y="0">R</tspan><tspan class="cls-82" x="40.26" y="0">O</tspan><tspan class="cls-81" x="63.36" y="0">D</tspan><tspan class="cls-14" x="84.63" y="0">U</tspan><tspan class="cls-27" x="105.96" y="0">C</tspan><tspan x="127.08" y="0">T </tspan><tspan class="cls-83" x="153.75" y="0">A</tspan><tspan class="cls-81" x="172.5" y="0">U</tspan><tspan class="cls-84" x="193.77" y="0">T</tspan><tspan class="cls-85" x="211.05" y="0">O</tspan><tspan class="cls-86" x="234.09" y="0">P</tspan><tspan class="cls-87" x="253.32" y="0">S</tspan><tspan x="271.95" y="0">Y</tspan></text><text class="cls-12" transform="translate(367.36 390.69)"><tspan class="cls-88">M</tspan><tspan class="cls-71" x="24.9" y="0">O</tspan><tspan class="cls-14" x="48.09" y="0">C</tspan><tspan class="cls-23" x="69.42" y="0">K</tspan><tspan class="cls-24" x="89.07" y="0">U</tspan><tspan class="cls-86" x="110.31" y="0">P</tspan><tspan x="129.54" y="0">S</tspan></text><text class="cls-12" transform="translate(627.16 391.38)">A <tspan class="cls-87" x="28.35" y="0">D</tspan><tspan class="cls-89" x="48.63" y="0">A</tspan><tspan x="65.55" y="0">Y </tspan><tspan class="cls-19" x="93.9" y="0">I</tspan><tspan x="101.79" y="0">N </tspan><tspan class="cls-17" x="131.79" y="0">T</tspan><tspan class="cls-18" x="149.76" y="0">H</tspan><tspan x="171.09" y="0">E </tspan><tspan class="cls-90" x="199.44" y="0">L</tspan><tspan class="cls-78" x="215.46" y="0">I</tspan><tspan class="cls-91" x="223.2" y="0">F</tspan><tspan x="240.81" y="0">E</tspan></text><text class="cls-12" transform="translate(910.66 391.38)"><tspan class="cls-92">F</tspan><tspan class="cls-28" x="17.52" y="0">I</tspan><tspan class="cls-16" x="25.38" y="0">G</tspan><tspan class="cls-93" x="48.48" y="0">M</tspan><tspan x="73.2" y="0">A</tspan><tspan class="cls-23" x="93.21" y="0"> </tspan><tspan class="cls-94" x="101.19" y="0">P</tspan><tspan class="cls-95" x="120.18" y="0">R</tspan><tspan class="cls-94" x="141.42" y="0">OTO</tspan><tspan class="cls-96" x="203.37" y="0">T</tspan><tspan class="cls-97" x="222.27" y="0">Y</tspan><tspan class="cls-98" x="241.77" y="0">PE</tspan><tspan x="279.81" y="0">S</tspan></text><text class="cls-12" transform="translate(367.33 431.61)"><tspan class="cls-99">P</tspan><tspan class="cls-65" x="19.02" y="0">E</tspan><tspan class="cls-28" x="38.16" y="0">R</tspan><tspan class="cls-25" x="59.34" y="0">S</tspan><tspan class="cls-71" x="78.9" y="0">O</tspan><tspan class="cls-23" x="102.09" y="0">N</tspan><tspan class="cls-86" x="123.39" y="0">A</tspan><tspan x="142.62" y="0">S</tspan></text><text class="cls-12" transform="translate(910.66 431.61)"><tspan class="cls-93">M</tspan><tspan class="cls-100" x="24.72" y="0">A</tspan><tspan class="cls-27" x="41.91" y="0">T</tspan><tspan class="cls-19" x="59.7" y="0">R</tspan><tspan class="cls-101" x="80.91" y="0">I</tspan><tspan x="88.56" y="0">X</tspan><tspan class="cls-18" x="108.57" y="0"> </tspan><tspan class="cls-102" x="116.58" y="0">E</tspan><tspan class="cls-103" x="136.44" y="0">V</tspan><tspan class="cls-14" x="154.08" y="0">A</tspan><tspan class="cls-84" x="173.76" y="0">L</tspan><tspan class="cls-87" x="189.39" y="0">U</tspan><tspan class="cls-104" x="209.67" y="0">A</tspan><tspan class="cls-70" x="226.86" y="0">T</tspan><tspan class="cls-64" x="244.62" y="0">I</tspan><tspan class="cls-102" x="252.57" y="0">O</tspan><tspan class="cls-66" x="275.76" y="0">N</tspan></text></svg>