<svg id="Capa_1" data-name="Capa 1" xmlns="http://www.w3.org/2000/svg" xmlns:xlink="http://www.w3.org/1999/xlink" viewBox="0 0 1224 476.19"><defs><style>.cls-1,.cls-3,.cls-4{fill:none;}.cls-2{fill:#fff;}.cls-3,.cls-4{stroke:#1d1d1b;}.cls-3{stroke-width:1.5px;}.cls-4{stroke-width:1.5px;}.cls-5{isolation:isolate;}.cls-6{fill:#1d1d1b;}.cls-7{clip-path:url(#clip-path);}</style><clipPath id="clip-path" transform="translate(0 -2.79)"><rect class="cls-1" x="-22.71" y="-4.03" width="1264.07" height="483.01"/></clipPath></defs><rect class="cls-2" x="248.49" y="93.14" width="212.89" height="212.89" transform="translate(-37.17 306.64) rotate(-45)"/><rect class="cls-3" x="248.49" y="93.14" width="212.89" height="212.89" transform="translate(-37.17 306.64) rotate(-45)"/><rect class="cls-2" x="794.29" y="93.18" width="212.89" height="212.89" transform="translate(122.66 692.59) rotate(-45)"/><rect class="cls-3" x="794.29" y="93.18" width="212.89" height="212.89" transform="translate(122.66 692.59) rotate(-45)"/><line class="cls-4" x1="504.67" y1="196.78" x2="751.75" y2="196.78"/><g class="cls-5"><g class="cls-5"><path class="cls-6" d="M239,130.85l3.71-3.71c2.38-2.38,5.65-2,8.28.6,2.05,2,3.81,5.59.81,8.6L248.13,140Zm9.32,6.85,2.39-2.4c1.61-1.6,1.39-3.91-.91-6.21s-4.52-2.41-6.2-.73l-2.31,2.31Z" transform="translate(0 -2.79)"/></g><g class="cls-5"><path class="cls-6" d="M249.26,123.12,248,121.85l1.12-1.12,1.27,1.27Zm9,6.75L257.13,131l-6.66-6.66,1.12-1.12Z" transform="translate(0 -2.79)"/></g><g class="cls-5"><path class="cls-6" d="M257.43,117.37l1.23-1.22,4.12,9.19-1.2,1.2-9.09-4.23,1.3-1.3L261,124.7l0,0Z" transform="translate(0 -2.79)"/></g><g class="cls-5"><path class="cls-6" d="M269.49,114.46a4,4,0,0,1,.64,3,4.17,4.17,0,0,1-1.35,2.27c-1.88,1.87-4.4,1.56-6.32-.36s-2.71-4.7-.51-6.9c1.92-1.92,4.39-1.34,6.75,1l-4.87,4.86c1.39,1.39,2.84,1.54,4.13.26a2.39,2.39,0,0,0,.41-3Zm-2.84-.7c-1.1-1-2.48-1.49-3.85-.13a2.76,2.76,0,0,0,.14,3.83Z" transform="translate(0 -2.79)"/></g><g class="cls-5"><path class="cls-6" d="M274.13,114,273,115.11l-6.66-6.66,1.06-1.06,1.11,1.11,0,0a3.06,3.06,0,0,1,.58-3.17,1.1,1.1,0,0,1,.33-.25l1.16,1.16-.42.42a2.39,2.39,0,0,0,.07,3.49Z" transform="translate(0 -2.79)"/></g><g class="cls-5"><path class="cls-6" d="M282,105c1,.95,3.33,3.36.25,6.44-.79.79-2.54,2.11-4.53.56l1.12-1.12a1.94,1.94,0,0,0,2.56-.45c1.93-1.93.34-3.45-.45-4.24l-.28-.28,0,0,.05,0a2.83,2.83,0,0,1-.88,2.66c-2.27,2.27-5,.8-6.65-.79-1.87-1.87-2.31-4.33-.54-6.1a3.19,3.19,0,0,1,3.12-.85l0,0-.94-1,1.06-1Zm-3.12,2.66c.71-.71,1.35-2.29-.42-4.06-1.08-1.08-3-2.65-4.62-1s-.18,3.46.67,4.31C276,108.36,277.67,108.89,278.9,107.67Z" transform="translate(0 -2.79)"/></g><g class="cls-5"><path class="cls-6" d="M276.25,96.14,275,94.86l1.12-1.12L277.37,95Zm9,6.74L284.11,104l-6.65-6.66,1.12-1.12Z" transform="translate(0 -2.79)"/></g><g class="cls-5"><path class="cls-6" d="M292.25,95.87,291.13,97l-4.1-4.1c-1.16-1.16-2.08-1.41-3.17-.32-.64.64-1.35,2.17.46,4l3.63,3.62-1.12,1.12-6.66-6.65,1.05-1.06.95.94,0,0a3.43,3.43,0,0,1,.88-3.15,3,3,0,0,1,4.65,0Z" transform="translate(0 -2.79)"/></g><g class="cls-5"><path class="cls-6" d="M298.82,88.21c.95,1,3.33,3.36.25,6.44-.79.79-2.54,2.11-4.53.56l1.12-1.12a1.94,1.94,0,0,0,2.56-.45c1.93-1.93.34-3.45-.45-4.24l-.28-.28,0,0,0,0a2.83,2.83,0,0,1-.88,2.66c-2.27,2.27-5.05.8-6.64-.79-1.88-1.87-2.32-4.33-.55-6.1a3.19,3.19,0,0,1,3.12-.85l0,0-.94-.94,1.06-1.05Zm-3.12,2.66c.71-.72,1.35-2.29-.42-4.06-1.08-1.09-3-2.65-4.62-1s-.18,3.46.67,4.31C292.8,91.56,294.48,92.09,295.7,90.87Z" transform="translate(0 -2.79)"/></g></g><g class="cls-5"><g class="cls-5"><path d="M166,3.36h8.73c5.61,0,9.06,4.26,9.06,10.47,0,4.83-2.1,11.07-9.18,11.07H166ZM169,22.41h5.64c3.78,0,6.24-3,6.24-8.4s-2.49-8.16-6.45-8.16H169Z" transform="translate(0 -2.79)"/></g><g class="cls-5"><path d="M196.73,25.47c-8,0-10.5-6.69-10.5-11.34s2.46-11.34,10.5-11.34,10.5,6.69,10.5,11.34S204.77,25.47,196.73,25.47Zm0-20.1c-4.68,0-7.5,3.69-7.5,8.76s2.82,8.76,7.5,8.76,7.5-3.69,7.5-8.76S201.41,5.37,196.73,5.37Z" transform="translate(0 -2.79)"/></g><g class="cls-5"><path d="M213.71,24.9H210.8V3.36h2.91Z" transform="translate(0 -2.79)"/></g><g class="cls-5"><path d="M232.52,3.36h2.82V24.9h-3.27L221.12,7.5h-.06V24.9h-2.82V3.36h3.45l10.77,17.4h.06Z" transform="translate(0 -2.79)"/></g><g class="cls-5"><path d="M249.05,13.38h9.45V24.9h-1.89l-.69-2.79a8.79,8.79,0,0,1-7.11,3.36,8.63,8.63,0,0,1-6.6-2.43c-3.3-3.12-3.39-6.81-3.39-9.09C238.82,8.7,242,2.79,249,2.79c4,0,8.49,2.28,9.12,7.11h-2.82c-.93-3.75-4.08-4.53-6.45-4.53-3.87,0-7.05,3.09-7.05,8.73,0,4.38,1.44,8.88,7.17,8.88a6.85,6.85,0,0,0,4.41-1.38c1.89-1.5,2.37-3.42,2.37-5.73h-6.72Z" transform="translate(0 -2.79)"/></g><g class="cls-5"><path d="M269.48,3.36H287V5.94h-7.29v19h-2.91v-19h-7.29Z" transform="translate(0 -2.79)"/></g><g class="cls-5"><path d="M303.5,3.36h2.91V24.9H303.5v-10H292.25v10h-2.91V3.36h2.91v8.91H303.5Z" transform="translate(0 -2.79)"/></g><g class="cls-5"><path d="M326.84,24.9h-15.9V3.36h15.69V5.94H313.85v6.6h11.79v2.58H313.85v7.2h13Z" transform="translate(0 -2.79)"/></g><g class="cls-5"><path d="M342.26,24.9h-2.91V3.36h10c3.54,0,7.08,1.23,7.08,5.79a5.31,5.31,0,0,1-3,5.16c1.23.51,2.46,1,2.58,4l.18,3.9c0,1.2.18,1.65,1.08,2.16v.48h-3.57a26.41,26.41,0,0,1-.51-5.4c0-1.77-.36-3.84-3.84-3.84h-7.05Zm0-11.73H349c2.13,0,4.38-.54,4.38-3.72s-2.43-3.6-3.87-3.6h-7.26Z" transform="translate(0 -2.79)"/></g><g class="cls-5"><path d="M363.56,24.9h-2.91V3.36h2.91Z" transform="translate(0 -2.79)"/></g><g class="cls-5"><path d="M377.45,13.38h9.45V24.9H385l-.69-2.79a8.79,8.79,0,0,1-7.11,3.36,8.63,8.63,0,0,1-6.6-2.43c-3.3-3.12-3.39-6.81-3.39-9.09,0-5.25,3.18-11.16,10.2-11.16,4,0,8.49,2.28,9.12,7.11h-2.82c-.93-3.75-4.08-4.53-6.45-4.53-3.87,0-7,3.09-7,8.73,0,4.38,1.44,8.88,7.17,8.88a6.85,6.85,0,0,0,4.41-1.38c1.89-1.5,2.37-3.42,2.37-5.73h-6.72Z" transform="translate(0 -2.79)"/></g><g class="cls-5"><path d="M405.29,3.36h2.91V24.9h-2.91v-10H394v10h-2.91V3.36H394v8.91h11.25Z" transform="translate(0 -2.79)"/></g><g class="cls-5"><path d="M410.57,3.36h17.49V5.94h-7.29v19h-2.91v-19h-7.29Z" transform="translate(0 -2.79)"/></g><g class="cls-5"><path d="M437.24,3.36h17.49V5.94h-7.29v19h-2.91v-19h-7.29Z" transform="translate(0 -2.79)"/></g><g class="cls-5"><path d="M471.26,3.36h2.91V24.9h-2.91v-10H460v10H457.1V3.36H460v8.91h11.25Z" transform="translate(0 -2.79)"/></g><g class="cls-5"><path d="M481.67,24.9h-2.91V3.36h2.91Z" transform="translate(0 -2.79)"/></g><g class="cls-5"><path d="M500.48,3.36h2.82V24.9H500L489.08,7.5H489V24.9H486.2V3.36h3.45l10.77,17.4h.06Z" transform="translate(0 -2.79)"/></g><g class="cls-5"><path d="M517,13.38h9.45V24.9h-1.89l-.69-2.79a8.79,8.79,0,0,1-7.11,3.36,8.63,8.63,0,0,1-6.6-2.43c-3.3-3.12-3.39-6.81-3.39-9.09C506.78,8.7,510,2.79,517,2.79c4,0,8.49,2.28,9.12,7.11h-2.82c-.93-3.75-4.08-4.53-6.45-4.53-3.87,0-7.05,3.09-7.05,8.73,0,4.38,1.44,8.88,7.17,8.88a6.85,6.85,0,0,0,4.41-1.38c1.89-1.5,2.37-3.42,2.37-5.73H517Z" transform="translate(0 -2.79)"/></g><g class="cls-5"><path d="M543.41,9.66c-.15-3.33-2.91-4.38-5.34-4.38-1.83,0-4.92.51-4.92,3.78,0,1.83,1.29,2.43,2.55,2.73l6.15,1.41c2.79.66,4.89,2.34,4.89,5.76,0,5.1-4.74,6.51-8.43,6.51-4,0-5.55-1.2-6.51-2.07a6.63,6.63,0,0,1-2.19-5.46h2.73c0,3.9,3.18,5,5.94,5,2.1,0,5.64-.54,5.64-3.63,0-2.25-1-3-4.59-3.81l-4.41-1c-1.41-.33-4.59-1.32-4.59-5.07,0-3.36,2.19-6.66,7.41-6.66,7.53,0,8.28,4.5,8.4,6.87Z" transform="translate(0 -2.79)"/></g></g><g class="cls-5"><g class="cls-5"><path d="M745.55,3.36h8.73c5.61,0,9.06,4.26,9.06,10.47,0,4.83-2.1,11.07-9.18,11.07h-8.61Zm2.91,19.05h5.64c3.78,0,6.24-3,6.24-8.4s-2.49-8.16-6.45-8.16h-5.43Z" transform="translate(0 -2.79)"/></g><g class="cls-5"><path d="M776.24,25.47c-8,0-10.5-6.69-10.5-11.34s2.46-11.34,10.5-11.34,10.5,6.69,10.5,11.34S784.28,25.47,776.24,25.47Zm0-20.1c-4.68,0-7.5,3.69-7.5,8.76s2.82,8.76,7.5,8.76,7.5-3.69,7.5-8.76S780.92,5.37,776.24,5.37Z" transform="translate(0 -2.79)"/></g><g class="cls-5"><path d="M793.22,24.9h-2.91V3.36h2.91Z" transform="translate(0 -2.79)"/></g><g class="cls-5"><path d="M812,3.36h2.82V24.9h-3.27l-11-17.4h-.06V24.9h-2.82V3.36h3.45L812,20.76H812Z" transform="translate(0 -2.79)"/></g><g class="cls-5"><path d="M828.56,13.38H838V24.9h-1.89l-.69-2.79a8.79,8.79,0,0,1-7.11,3.36,8.63,8.63,0,0,1-6.6-2.43c-3.3-3.12-3.39-6.81-3.39-9.09,0-5.25,3.18-11.16,10.2-11.16,4,0,8.49,2.28,9.12,7.11h-2.82c-.93-3.75-4.08-4.53-6.45-4.53-3.87,0-7,3.09-7,8.73,0,4.38,1.44,8.88,7.17,8.88a6.85,6.85,0,0,0,4.41-1.38c1.89-1.5,2.37-3.42,2.37-5.73h-6.72Z" transform="translate(0 -2.79)"/></g><g class="cls-5"><path d="M849,3.36h17.49V5.94h-7.29v19h-2.91v-19H849Z" transform="translate(0 -2.79)"/></g><g class="cls-5"><path d="M883,3.36h2.91V24.9H883v-10H871.76v10h-2.91V3.36h2.91v8.91H883Z" transform="translate(0 -2.79)"/></g><g class="cls-5"><path d="M893.42,24.9h-2.91V3.36h2.91Z" transform="translate(0 -2.79)"/></g><g class="cls-5"><path d="M912.23,3.36h2.82V24.9h-3.27L900.83,7.5h-.06V24.9H898V3.36h3.45l10.77,17.4h.06Z" transform="translate(0 -2.79)"/></g><g class="cls-5"><path d="M928.76,13.38h9.45V24.9h-1.89l-.69-2.79a8.79,8.79,0,0,1-7.11,3.36,8.63,8.63,0,0,1-6.6-2.43c-3.3-3.12-3.39-6.81-3.39-9.09,0-5.25,3.18-11.16,10.2-11.16,4,0,8.49,2.28,9.12,7.11H935c-.93-3.75-4.08-4.53-6.45-4.53-3.87,0-7.05,3.09-7.05,8.73,0,4.38,1.44,8.88,7.17,8.88a6.85,6.85,0,0,0,4.41-1.38c1.89-1.5,2.37-3.42,2.37-5.73h-6.72Z" transform="translate(0 -2.79)"/></g><g class="cls-5"><path d="M955.16,9.66c-.15-3.33-2.91-4.38-5.34-4.38-1.83,0-4.92.51-4.92,3.78,0,1.83,1.29,2.43,2.55,2.73l6.15,1.41c2.79.66,4.89,2.34,4.89,5.76,0,5.1-4.74,6.51-8.43,6.51-4,0-5.55-1.2-6.51-2.07a6.63,6.63,0,0,1-2.19-5.46h2.73c0,3.9,3.18,5,5.94,5,2.1,0,5.64-.54,5.64-3.63,0-2.25-1-3-4.59-3.81l-4.41-1c-1.41-.33-4.59-1.32-4.59-5.07,0-3.36,2.19-6.66,7.41-6.66,7.53,0,8.28,4.5,8.4,6.87Z" transform="translate(0 -2.79)"/></g><g class="cls-5"><path d="M973.79,24.9h-2.91V3.36h10c3.54,0,7.08,1.23,7.08,5.79a5.31,5.31,0,0,1-3,5.16c1.23.51,2.46,1,2.58,4l.18,3.9c0,1.2.18,1.65,1.08,2.16v.48h-3.57a26.41,26.41,0,0,1-.51-5.4c0-1.77-.36-3.84-3.84-3.84h-7.05Zm0-11.73h6.75c2.13,0,4.38-.54,4.38-3.72s-2.43-3.6-3.87-3.6h-7.26Z" transform="translate(0 -2.79)"/></g><g class="cls-5"><path d="M995.09,24.9h-2.91V3.36h2.91Z" transform="translate(0 -2.79)"/></g><g class="cls-5"><path d="M1009,13.38h9.45V24.9h-1.89l-.69-2.79a8.79,8.79,0,0,1-7.11,3.36,8.63,8.63,0,0,1-6.6-2.43c-3.3-3.12-3.39-6.81-3.39-9.09,0-5.25,3.18-11.16,10.2-11.16,4,0,8.49,2.28,9.12,7.11h-2.82c-.93-3.75-4.08-4.53-6.45-4.53-3.87,0-7,3.09-7,8.73,0,4.38,1.44,8.88,7.17,8.88a6.85,6.85,0,0,0,4.41-1.38c1.89-1.5,2.37-3.42,2.37-5.73H1009Z" transform="translate(0 -2.79)"/></g><g class="cls-5"><path d="M1036.82,3.36h2.91V24.9h-2.91v-10h-11.25v10h-2.91V3.36h2.91v8.91h11.25Z" transform="translate(0 -2.79)"/></g><g class="cls-5"><path d="M1042.07,3.36h17.49V5.94h-7.29v19h-2.91v-19h-7.29Z" transform="translate(0 -2.79)"/></g></g><g class="cls-5"><g class="cls-5"><path class="cls-6" d="M423.67,86.4A3.36,3.36,0,0,0,423,82c-1.65-1.66-4.21-1.77-6.62.63-2.15,2.16-3,4.57-.77,6.84.8.8,2.57,1.81,5.12.1l1.19,1.2a5.45,5.45,0,0,1-7.6-.4c-2.07-2.07-2.76-5.46.75-9,2.82-2.82,6.37-3.16,9-.5,2.35,2.36,2.11,5,.76,6.75Z" transform="translate(0 -2.79)"/></g><g class="cls-5"><path class="cls-6" d="M429.44,91.26c2.13,2.13,1.3,4.89-.42,6.61s-4.48,2.55-6.6.42-1.3-4.89.42-6.61S427.32,89.14,429.44,91.26Zm-6.06,6.06c1.61,1.61,3.59.28,4.48-.61s2.22-2.87.62-4.48-3.6-.28-4.49.61S421.78,95.72,423.38,97.32Z" transform="translate(0 -2.79)"/></g><g class="cls-5"><path class="cls-6" d="M432.34,107.86l-1.12-1.12,4.1-4.1c1.16-1.16,1.41-2.07.32-3.17-.64-.64-2.17-1.35-4,.46L428,103.56l-1.12-1.12,6.66-6.66,1.05,1.06-.94.94,0,0a3.43,3.43,0,0,1,3.14.88,3,3,0,0,1,0,4.65Z" transform="translate(0 -2.79)"/></g><g class="cls-5"><path class="cls-6" d="M444.59,106.8l1.22,1.22-9.19,4.12L435.43,111l4.22-9.09,1.3,1.29-3.69,7.16,0,0Z" transform="translate(0 -2.79)"/></g><g class="cls-5"><path class="cls-6" d="M447.51,118.86a3.94,3.94,0,0,1-5.27-.71c-1.87-1.88-1.56-4.4.36-6.32s4.7-2.71,6.9-.51c1.92,1.92,1.34,4.39-1,6.75l-4.86-4.87c-1.39,1.39-1.54,2.84-.26,4.13a2.4,2.4,0,0,0,3,.41Zm.7-2.84c1-1.1,1.49-2.48.13-3.85a2.76,2.76,0,0,0-3.83.14Z" transform="translate(0 -2.79)"/></g><g class="cls-5"><path class="cls-6" d="M448,123.5l-1.12-1.12,6.66-6.66,1.06,1.06-1.11,1.11,0,0a3.07,3.07,0,0,1,3.17.58,1.1,1.1,0,0,1,.25.33L455.76,120l-.42-.42a2.39,2.39,0,0,0-3.49.07Z" transform="translate(0 -2.79)"/></g><g class="cls-5"><path class="cls-6" d="M457,131.4c-1,1-3.37,3.34-6.45.25-.79-.78-2.11-2.54-.56-4.53l1.12,1.12a1.94,1.94,0,0,0,.45,2.56c1.93,1.94,3.45.35,4.24-.44l.28-.28,0,0,0,0a2.83,2.83,0,0,1-2.66-.88c-2.27-2.26-.8-5,.79-6.64,1.87-1.87,4.33-2.32,6.1-.55a3.17,3.17,0,0,1,.85,3.12l0,0,.94-1,1.06,1.06Zm-2.67-3.12c.72.71,2.3,1.35,4.07-.42,1.08-1.08,2.64-3,1-4.62s-3.47-.18-4.32.67C453.63,125.38,453.09,127.06,454.31,128.28Z" transform="translate(0 -2.79)"/></g><g class="cls-5"><path class="cls-6" d="M459.1,134.62,458,133.5l6.66-6.66,1.12,1.12Zm6.75-9,1.27-1.27,1.12,1.12L467,126.75Z" transform="translate(0 -2.79)"/></g><g class="cls-5"><path class="cls-6" d="M466.11,141.63,465,140.51l4.1-4.1c1.16-1.16,1.41-2.07.32-3.17-.64-.63-2.16-1.35-4,.46l-3.63,3.63-1.12-1.12,6.66-6.66,1,1.06-.94.94,0,0a3.43,3.43,0,0,1,3.14.88,3,3,0,0,1,0,4.65Z" transform="translate(0 -2.79)"/></g><g class="cls-5"><path class="cls-6" d="M473.77,148.19c-1,1-3.36,3.34-6.44.26-.79-.79-2.12-2.55-.56-4.53l1.12,1.12a1.94,1.94,0,0,0,.44,2.56c1.94,1.93,3.45.34,4.24-.45l.28-.28,0,0-.05.06a2.87,2.87,0,0,1-2.67-.88c-2.26-2.27-.8-5.06.79-6.65,1.88-1.87,4.33-2.32,6.1-.55a3.2,3.2,0,0,1,.86,3.12l0,0,.94-.94,1.06,1.05Zm-2.66-3.12c.71.72,2.29,1.35,4.06-.42,1.08-1.08,2.65-3,1-4.62s-3.46-.17-4.31.68C470.42,142.17,469.89,143.85,471.11,145.07Z" transform="translate(0 -2.79)"/></g></g><g class="cls-7"><line class="cls-4" x1="354.97" y1="476.19" x2="354.97" y2="46.53"/><line class="cls-4" x1="900.68" y1="476.19" x2="900.68" y2="46.48"/></g><g class="cls-5"><g class="cls-5"><path class="cls-6" d="M260.55,192.35h5.24c3.36,0,5.44,2.56,5.44,6.29,0,2.89-1.27,6.64-5.51,6.64h-5.17Zm1.74,11.44h3.39c2.27,0,3.74-1.79,3.74-5s-1.49-4.89-3.87-4.89h-3.26Z" transform="translate(0 -2.79)"/></g><g class="cls-5"><path class="cls-6" d="M273.28,194.15v-1.8h1.58v1.8Zm1.58,11.13h-1.58v-9.42h1.58Z" transform="translate(0 -2.79)"/></g><g class="cls-5"><path class="cls-6" d="M282.51,198.55c0-.6-.24-1.59-2.23-1.59-.49,0-1.88.16-1.88,1.33,0,.78.49,1,1.71,1.26l1.59.4c2,.49,2.64,1.21,2.64,2.49,0,1.94-1.6,3.11-3.72,3.11-3.73,0-4-2.16-4.05-3.3h1.53c0,.74.27,1.93,2.5,1.93,1.13,0,2.16-.45,2.16-1.49,0-.76-.52-1-1.87-1.35l-1.84-.45c-1.31-.33-2.18-1-2.18-2.29,0-2.07,1.71-3,3.57-3,3.36,0,3.6,2.49,3.6,3Z" transform="translate(0 -2.79)"/></g><g class="cls-5"><path class="cls-6" d="M292,199a2.09,2.09,0,0,0-2.23-2c-2,0-2.6,1.87-2.6,3.54s.4,3.62,2.58,3.62A2.4,2.4,0,0,0,292,202h1.53a3.72,3.72,0,0,1-3.84,3.6c-2.64,0-4.21-2-4.21-4.72,0-2.91,1.4-5.24,4.52-5.24a3.4,3.4,0,0,1,3.53,3.44Z" transform="translate(0 -2.79)"/></g><g class="cls-5"><path class="cls-6" d="M299,195.59c3,0,4.37,2.54,4.37,5s-1.37,5-4.37,5-4.38-2.54-4.38-5S296,195.59,299,195.59Zm0,8.57c2.26,0,2.73-2.34,2.73-3.6s-.47-3.6-2.73-3.6-2.74,2.34-2.74,3.6S296.73,204.16,299,204.16Z" transform="translate(0 -2.79)"/></g><g class="cls-5"><path class="cls-6" d="M310.77,195.86h1.73l-3.58,9.42h-1.7l-3.44-9.42h1.84l2.45,7.67h0Z" transform="translate(0 -2.79)"/></g><g class="cls-5"><path class="cls-6" d="M321.35,202.33a3.92,3.92,0,0,1-4.23,3.22c-2.64,0-4.21-2-4.21-4.72,0-2.91,1.4-5.24,4.52-5.24,2.72,0,4.05,2.16,4.05,5.49H314.6c0,2,.92,3.1,2.74,3.1a2.39,2.39,0,0,0,2.43-1.85Zm-1.51-2.51c-.09-1.45-.7-2.8-2.63-2.8a2.76,2.76,0,0,0-2.61,2.8Z" transform="translate(0 -2.79)"/></g><g class="cls-5"><path class="cls-6" d="M325,205.28h-1.58v-9.42h1.49v1.57h0a3.06,3.06,0,0,1,2.64-1.84,1.21,1.21,0,0,1,.42.06v1.64h-.6a2.39,2.39,0,0,0-2.41,2.52Z" transform="translate(0 -2.79)"/></g></g><g class="cls-5"><g class="cls-5"><path class="cls-6" d="M383.22,193.85h5.24c3.37,0,5.44,2.56,5.44,6.29,0,2.89-1.27,6.64-5.51,6.64h-5.17ZM385,205.29h3.39c2.27,0,3.74-1.79,3.74-5s-1.49-4.89-3.87-4.89H385Z" transform="translate(0 -2.79)"/></g><g class="cls-5"><path class="cls-6" d="M403.83,203.83a3.92,3.92,0,0,1-4.23,3.22c-2.64,0-4.21-2-4.21-4.72,0-2.91,1.4-5.24,4.52-5.24,2.72,0,4,2.16,4,5.49h-6.88c0,2,.92,3.1,2.74,3.1a2.39,2.39,0,0,0,2.43-1.85Zm-1.51-2.51c-.09-1.45-.7-2.8-2.63-2.8a2.76,2.76,0,0,0-2.61,2.8Z" transform="translate(0 -2.79)"/></g><g class="cls-5"><path class="cls-6" d="M407.59,198.68v8.1H406v-8.1h-1.3v-1.32H406v-1.62c0-1.42.9-2.07,2.45-2.07.23,0,.47,0,.72,0v1.42c-.2,0-.45,0-.65,0-.69,0-.94.35-.94,1.1v1.17h1.59v1.32Z" transform="translate(0 -2.79)"/></g><g class="cls-5"><path class="cls-6" d="M410.51,195.65v-1.8h1.58v1.8Zm1.58,11.13h-1.58v-9.42h1.58Z" transform="translate(0 -2.79)"/></g><g class="cls-5"><path class="cls-6" d="M422,206.78h-1.58V201c0-1.64-.47-2.46-2-2.46-.9,0-2.49.57-2.49,3.13v5.13h-1.58v-9.42h1.49v1.34h0a3.41,3.41,0,0,1,2.85-1.61,3,3,0,0,1,3.29,3.28Z" transform="translate(0 -2.79)"/></g><g class="cls-5"><path class="cls-6" d="M432.23,203.83a3.92,3.92,0,0,1-4.23,3.22c-2.64,0-4.21-2-4.21-4.72,0-2.91,1.4-5.24,4.52-5.24,2.72,0,4.05,2.16,4.05,5.49h-6.88c0,2,.92,3.1,2.74,3.1a2.39,2.39,0,0,0,2.43-1.85Zm-1.51-2.51c-.09-1.45-.7-2.8-2.63-2.8a2.76,2.76,0,0,0-2.61,2.8Z" transform="translate(0 -2.79)"/></g></g><g class="cls-5"><g class="cls-5"><path class="cls-6" d="M809,192.35h5.24c3.36,0,5.44,2.56,5.44,6.29,0,2.89-1.26,6.64-5.51,6.64H809Zm1.75,11.44h3.38c2.27,0,3.75-1.79,3.75-5s-1.5-4.89-3.88-4.89H810.7Z" transform="translate(0 -2.79)"/></g><g class="cls-5"><path class="cls-6" d="M829.56,202.33a3.92,3.92,0,0,1-4.23,3.22c-2.64,0-4.21-2-4.21-4.72,0-2.91,1.4-5.24,4.52-5.24,2.72,0,4.05,2.16,4.05,5.49h-6.88c0,2,.92,3.1,2.74,3.1a2.39,2.39,0,0,0,2.43-1.85Zm-1.51-2.51c-.09-1.45-.7-2.8-2.63-2.8a2.76,2.76,0,0,0-2.61,2.8Z" transform="translate(0 -2.79)"/></g><g class="cls-5"><path class="cls-6" d="M837.12,195.86h1.73l-3.58,9.42h-1.7l-3.44-9.42H832l2.45,7.67h0Z" transform="translate(0 -2.79)"/></g><g class="cls-5"><path class="cls-6" d="M847.7,202.33a3.92,3.92,0,0,1-4.23,3.22c-2.64,0-4.21-2-4.21-4.72,0-2.91,1.4-5.24,4.52-5.24,2.72,0,4.05,2.16,4.05,5.49H841c0,2,.92,3.1,2.74,3.1a2.39,2.39,0,0,0,2.43-1.85Zm-1.51-2.51c-.09-1.45-.7-2.8-2.63-2.8a2.76,2.76,0,0,0-2.61,2.8Z" transform="translate(0 -2.79)"/></g><g class="cls-5"><path class="cls-6" d="M851.25,205.28h-1.58V192.35h1.58Z" transform="translate(0 -2.79)"/></g><g class="cls-5"><path class="cls-6" d="M857.41,195.59c3,0,4.37,2.54,4.37,5s-1.37,5-4.37,5-4.38-2.54-4.38-5S854.4,195.59,857.41,195.59Zm0,8.57c2.26,0,2.73-2.34,2.73-3.6s-.47-3.6-2.73-3.6-2.74,2.34-2.74,3.6S855.14,204.16,857.41,204.16Z" transform="translate(0 -2.79)"/><path class="cls-6" d="M863.45,195.86H865v1.34h0a3.17,3.17,0,0,1,2.81-1.61c2.5,0,3.93,2.06,3.93,4.7,0,2.25-.94,5.26-4.14,5.26a2.84,2.84,0,0,1-2.51-1.26h0V209h-1.59Zm4.09,8.32c1.73,0,2.54-1.57,2.54-3.64,0-1.2-.13-3.52-2.58-3.52-2.28,0-2.54,2.46-2.54,4C865,203.52,866.53,204.18,867.54,204.18Z" transform="translate(0 -2.79)"/></g></g><g class="cls-5"><g class="cls-5"><path class="cls-6" d="M930.43,192.35h5.24c3.37,0,5.44,2.56,5.44,6.29,0,2.89-1.27,6.64-5.51,6.64h-5.17Zm1.74,11.44h3.39c2.27,0,3.74-1.79,3.74-5s-1.49-4.89-3.87-4.89h-3.26Z" transform="translate(0 -2.79)"/><path class="cls-6" d="M951,202.33a4.09,4.09,0,0,1-1.68,2.57,4,4,0,0,1-2.55.65c-2.65,0-4.22-2-4.22-4.72,0-2.91,1.41-5.24,4.52-5.24,2.72,0,4.05,2.16,4.05,5.49h-6.87c0,2,.91,3.1,2.73,3.1a2.38,2.38,0,0,0,2.43-1.85Zm-1.51-2.51c-.09-1.45-.71-2.8-2.63-2.8a2.76,2.76,0,0,0-2.61,2.8Z" transform="translate(0 -2.79)"/></g><g class="cls-5"><path class="cls-6" d="M954.58,205.28H953V192.35h1.58Z" transform="translate(0 -2.79)"/></g><g class="cls-5"><path class="cls-6" d="M956.86,194.15v-1.8h1.58v1.8Zm1.58,11.13h-1.58v-9.42h1.58Z" transform="translate(0 -2.79)"/></g><g class="cls-5"><path class="cls-6" d="M966.68,195.86h1.73l-3.58,9.42h-1.7l-3.44-9.42h1.84l2.45,7.67h0Z" transform="translate(0 -2.79)"/></g><g class="cls-5"><path class="cls-6" d="M977.26,202.33a3.92,3.92,0,0,1-4.23,3.22c-2.64,0-4.21-2-4.21-4.72,0-2.91,1.4-5.24,4.52-5.24,2.72,0,4,2.16,4,5.49h-6.88c0,2,.92,3.1,2.74,3.1a2.39,2.39,0,0,0,2.43-1.85Zm-1.51-2.51c-.09-1.45-.7-2.8-2.63-2.8a2.77,2.77,0,0,0-2.61,2.8Z" transform="translate(0 -2.79)"/></g><g class="cls-5"><path class="cls-6" d="M980.88,205.28H979.3v-9.42h1.49v1.57h0a3.06,3.06,0,0,1,2.64-1.84,1.21,1.21,0,0,1,.42.06v1.64h-.6a2.39,2.39,0,0,0-2.41,2.52Z" transform="translate(0 -2.79)"/></g></g><g class="cls-5"><g class="cls-5"><path class="cls-6" d="M782.05,130.69l3.71-3.71c2.37-2.38,5.65-2,8.28.6,2.05,2,3.81,5.59.81,8.59l-3.66,3.66Zm9.32,6.85,2.39-2.4c1.61-1.6,1.39-3.91-.91-6.21s-4.52-2.41-6.2-.73l-2.31,2.31Z" transform="translate(0 -2.79)"/></g><g class="cls-5"><path class="cls-6" d="M792.32,123l-1.27-1.27,1.12-1.12,1.27,1.27Zm9,6.75-1.12,1.12-6.66-6.66,1.12-1.12Z" transform="translate(0 -2.79)"/></g><g class="cls-5"><path class="cls-6" d="M800.49,117.21l1.22-1.22,4.13,9.19-1.2,1.2-9.09-4.23,1.3-1.3,7.16,3.69,0,0Z" transform="translate(0 -2.79)"/></g><g class="cls-5"><path class="cls-6" d="M812.56,114.28a4.09,4.09,0,0,1,.64,3,4,4,0,0,1-1.35,2.26c-1.87,1.87-4.39,1.57-6.31-.35-2.07-2.07-2.72-4.7-.51-6.9,1.92-1.93,4.39-1.34,6.74,1l-4.86,4.87c1.39,1.39,2.84,1.54,4.12.25a2.39,2.39,0,0,0,.41-3Zm-2.84-.7c-1.09-1-2.48-1.49-3.84-.13a2.78,2.78,0,0,0,.14,3.84Z" transform="translate(0 -2.79)"/></g><g class="cls-5"><path class="cls-6" d="M817.21,113.81l-1.12,1.12-6.66-6.66,1.06-1,1.1,1.1,0,0a3.06,3.06,0,0,1,.57-3.17,1.24,1.24,0,0,1,.33-.25l1.16,1.15-.42.42a2.4,2.4,0,0,0,.08,3.49Z" transform="translate(0 -2.79)"/></g><g class="cls-5"><path class="cls-6" d="M825.08,104.84c1,1,3.34,3.36.26,6.44-.79.79-2.55,2.12-4.53.56l1.12-1.12a1.94,1.94,0,0,0,2.56-.44c1.93-1.94.34-3.45-.45-4.24l-.28-.28,0,0,.06,0a2.87,2.87,0,0,1-.88,2.67c-2.27,2.26-5.06.8-6.65-.79-1.87-1.88-2.32-4.33-.55-6.1a3.2,3.2,0,0,1,3.12-.86l0,0-.94-.94L819,98.73ZM822,107.5c.72-.71,1.35-2.29-.42-4.06-1.08-1.08-3-2.65-4.62-1s-.17,3.46.68,4.31C819.06,108.19,820.74,108.72,822,107.5Z" transform="translate(0 -2.79)"/></g><g class="cls-5"><path class="cls-6" d="M819.32,96l-1.27-1.27,1.12-1.12,1.27,1.27Zm9,6.75-1.12,1.12-6.66-6.66,1.12-1.12Z" transform="translate(0 -2.79)"/></g><g class="cls-5"><path class="cls-6" d="M835.32,95.7l-1.12,1.12-4.1-4.1c-1.16-1.15-2.08-1.41-3.17-.31-.64.63-1.35,2.16.45,4L831,100l-1.12,1.12-6.66-6.66,1.06-1.06.94.94,0,0a3.4,3.4,0,0,1,.88-3.15,3,3,0,0,1,4.64,0Z" transform="translate(0 -2.79)"/></g><g class="cls-5"><path class="cls-6" d="M841.88,88c1,.95,3.34,3.36.26,6.44-.79.79-2.55,2.12-4.53.56l1.12-1.12a2,2,0,0,0,2.56-.44c1.93-1.94.34-3.45-.45-4.24l-.28-.28,0,0,.05,0a2.85,2.85,0,0,1-.88,2.66c-2.27,2.27-5.06.81-6.65-.79-1.87-1.87-2.31-4.32-.55-6.09a3.2,3.2,0,0,1,3.12-.86l0,0-.94-.94,1-1.06Zm-3.11,2.66c.71-.71,1.35-2.29-.42-4.06-1.09-1.08-3-2.65-4.63-1s-.17,3.46.68,4.31C835.86,91.39,837.54,91.92,838.77,90.7Z" transform="translate(0 -2.79)"/></g></g><g class="cls-5"><g class="cls-5"><path class="cls-6" d="M966.73,86.24a3.36,3.36,0,0,0-.67-4.45c-1.65-1.66-4.21-1.77-6.62.63-2.15,2.16-3,4.57-.77,6.84.8.8,2.57,1.81,5.12.1l1.19,1.2a5.45,5.45,0,0,1-7.6-.4c-2.08-2.07-2.76-5.46.75-9,2.82-2.82,6.37-3.16,9-.5,2.35,2.36,2.11,5,.76,6.75Z" transform="translate(0 -2.79)"/></g><g class="cls-5"><path class="cls-6" d="M972.5,91.1c2.13,2.13,1.3,4.89-.42,6.61s-4.48,2.55-6.61.42-1.29-4.89.43-6.61S970.38,89,972.5,91.1Zm-6.06,6.06c1.61,1.61,3.59.28,4.48-.61s2.22-2.87.62-4.48-3.6-.28-4.49.61S964.84,95.56,966.44,97.16Z" transform="translate(0 -2.79)"/></g><g class="cls-5"><path class="cls-6" d="M975.4,107.7l-1.12-1.12,4.1-4.1c1.16-1.16,1.41-2.07.32-3.17-.64-.64-2.17-1.35-4,.46l-3.63,3.63L970,102.28l6.66-6.66,1.05,1-.94,1,0,0a3.43,3.43,0,0,1,3.14.88,3,3,0,0,1,0,4.65Z" transform="translate(0 -2.79)"/></g><g class="cls-5"><path class="cls-6" d="M987.65,106.64l1.23,1.22-9.2,4.12-1.19-1.19,4.22-9.1L984,103l-3.69,7.16,0,0Z" transform="translate(0 -2.79)"/></g><g class="cls-5"><path class="cls-6" d="M990.57,118.7a3.93,3.93,0,0,1-5.27-.72c-1.87-1.87-1.56-4.39.36-6.31s4.7-2.71,6.9-.51c1.92,1.92,1.34,4.39-1,6.75L986.68,113c-1.39,1.39-1.54,2.84-.26,4.13a2.4,2.4,0,0,0,3,.41Zm.7-2.84c1-1.1,1.49-2.48.13-3.85a2.76,2.76,0,0,0-3.83.14Z" transform="translate(0 -2.79)"/></g><g class="cls-5"><path class="cls-6" d="M991,123.34l-1.12-1.12,6.66-6.66,1.06,1.06-1.11,1.11,0,0a3.07,3.07,0,0,1,3.17.58,1.1,1.1,0,0,1,.25.33l-1.16,1.16-.42-.42a2.39,2.39,0,0,0-3.49.07Z" transform="translate(0 -2.79)"/></g><g class="cls-5"><path class="cls-6" d="M1000,131.24c-1,.95-3.37,3.34-6.45.25-.79-.78-2.11-2.54-.56-4.53l1.12,1.12a1.94,1.94,0,0,0,.45,2.56c1.94,1.94,3.45.35,4.24-.44l.28-.28,0,0-.05.05a2.83,2.83,0,0,1-2.66-.88c-2.26-2.26-.8-5,.79-6.64,1.87-1.87,4.33-2.32,6.1-.55a3.17,3.17,0,0,1,.85,3.12l0,0,.94-1,1.06,1.06Zm-2.66-3.12c.71.71,2.29,1.35,4.06-.42,1.08-1.08,2.64-3,1-4.62s-3.47-.18-4.32.67C996.69,125.22,996.15,126.9,997.38,128.12Z" transform="translate(0 -2.79)"/></g><g class="cls-5"><path class="cls-6" d="M1002.16,134.46l-1.12-1.12,6.66-6.66,1.12,1.12Zm6.75-9,1.27-1.27,1.12,1.12-1.27,1.27Z" transform="translate(0 -2.79)"/></g><g class="cls-5"><path class="cls-6" d="M1009.17,141.47l-1.12-1.12,4.1-4.1c1.16-1.16,1.42-2.07.32-3.17-.64-.63-2.16-1.35-4,.46l-3.63,3.63-1.12-1.12,6.66-6.66,1.05,1.06-.94.94,0,0a3.39,3.39,0,0,1,3.14.87,3,3,0,0,1,0,4.65Z" transform="translate(0 -2.79)"/></g><g class="cls-5"><path class="cls-6" d="M1016.83,148c-1,1-3.36,3.34-6.44.26-.79-.79-2.12-2.55-.56-4.53l1.12,1.12a1.93,1.93,0,0,0,.44,2.56c1.94,1.93,3.45.34,4.24-.45l.28-.28,0,0,0,0a2.84,2.84,0,0,1-2.67-.87c-2.26-2.27-.8-5.06.79-6.65,1.88-1.87,4.33-2.32,6.1-.55a3.2,3.2,0,0,1,.86,3.12l0,0,.94-.94,1.06,1Zm-2.66-3.12c.71.72,2.29,1.35,4.06-.42,1.08-1.08,2.65-3,1-4.62s-3.46-.17-4.31.68C1013.48,142,1013,143.69,1014.17,144.91Z" transform="translate(0 -2.79)"/></g></g><line class="cls-4" x1="1050.52" y1="196.84" x2="1224" y2="196.84"/><line class="cls-4" y1="196.78" x2="204.99" y2="196.78"/><g class="cls-5"><g class="cls-5"><path class="cls-6" d="M569.7,182H568V169.07h6c2.13,0,4.25.74,4.25,3.48a3.16,3.16,0,0,1-1.8,3.09c.74.31,1.48.63,1.55,2.44l.11,2.34c0,.72.11,1,.65,1.29V182h-2.15a15.9,15.9,0,0,1-.3-3.24c0-1.06-.22-2.31-2.31-2.31H569.7Zm0-7h4c1.28,0,2.63-.32,2.63-2.23s-1.46-2.16-2.32-2.16H569.7Z" transform="translate(0 -2.79)"/></g><g class="cls-5"><path class="cls-6" d="M588.38,179.05a3.92,3.92,0,0,1-4.23,3.22c-2.64,0-4.21-2-4.21-4.72,0-2.91,1.4-5.24,4.52-5.24,2.72,0,4,2.16,4,5.49h-6.88c0,2,.92,3.1,2.74,3.1a2.39,2.39,0,0,0,2.43-1.85Zm-1.51-2.51c-.09-1.45-.7-2.8-2.63-2.8a2.77,2.77,0,0,0-2.61,2.8Z" transform="translate(0 -2.79)"/></g><g class="cls-5"><path class="cls-6" d="M596,172.58h1.73L594.1,182h-1.7L589,172.58h1.84l2.45,7.67h0Z" transform="translate(0 -2.79)"/></g><g class="cls-5"><path class="cls-6" d="M599,170.87v-1.8h1.58v1.8ZM600.53,182H599v-9.42h1.58Z" transform="translate(0 -2.79)"/></g><g class="cls-5"><path class="cls-6" d="M608.21,175.27c0-.6-.24-1.59-2.23-1.59-.49,0-1.88.16-1.88,1.33,0,.78.49,1,1.71,1.26l1.59.4c2,.49,2.64,1.21,2.64,2.49,0,1.94-1.6,3.11-3.72,3.11-3.73,0-4-2.16-4.05-3.3h1.53c.05.74.27,1.93,2.5,1.93,1.13,0,2.16-.45,2.16-1.49,0-.76-.52-1-1.87-1.35l-1.84-.45c-1.31-.33-2.18-1-2.18-2.29,0-2.07,1.71-3,3.57-3,3.36,0,3.6,2.49,3.6,3Z" transform="translate(0 -2.79)"/></g><g class="cls-5"><path class="cls-6" d="M619.74,179.05a3.92,3.92,0,0,1-4.23,3.22c-2.64,0-4.21-2-4.21-4.72,0-2.91,1.4-5.24,4.52-5.24,2.72,0,4,2.16,4,5.49H613c0,2,.92,3.1,2.74,3.1a2.39,2.39,0,0,0,2.43-1.85Zm-1.51-2.51c-.09-1.45-.7-2.8-2.63-2.8a2.76,2.76,0,0,0-2.61,2.8Z" transform="translate(0 -2.79)"/></g><g class="cls-5"><path class="cls-6" d="M626.63,172.58h1.5v1.34h0a3.16,3.16,0,0,1,2.8-1.61c2.51,0,3.93,2.06,3.93,4.7,0,2.25-.94,5.26-4.14,5.26a2.84,2.84,0,0,1-2.51-1.26h0v4.72h-1.59Zm4.09,8.32c1.73,0,2.54-1.56,2.54-3.64,0-1.2-.13-3.52-2.57-3.52s-2.54,2.46-2.54,4C628.15,180.24,629.71,180.9,630.72,180.9Z" transform="translate(0 -2.79)"/></g><g class="cls-5"><path class="cls-6" d="M638.41,182h-1.58v-9.42h1.49v1.57h0a3.06,3.06,0,0,1,2.64-1.84,1.21,1.21,0,0,1,.42.06V174h-.6a2.39,2.39,0,0,0-2.41,2.52Z" transform="translate(0 -2.79)"/></g><g class="cls-5"><path class="cls-6" d="M646.33,172.31c3,0,4.37,2.54,4.37,5s-1.37,5-4.37,5-4.38-2.54-4.38-5S643.32,172.31,646.33,172.31Zm0,8.57c2.26,0,2.73-2.34,2.73-3.6s-.47-3.6-2.73-3.6-2.74,2.34-2.74,3.6S644.06,180.88,646.33,180.88Z" transform="translate(0 -2.79)"/></g><g class="cls-5"><path class="cls-6" d="M652.37,182V169.07H654v4.7h0a3.21,3.21,0,0,1,2.71-1.46c2.51,0,3.93,2.06,3.93,4.7,0,2.25-.94,5.26-4.14,5.26a2.83,2.83,0,0,1-2.6-1.44h0V182Zm4.06-8.26c-2.29,0-2.54,2.46-2.54,4,0,2.51,1.56,3.17,2.57,3.17,1.73,0,2.54-1.56,2.54-3.64C659,176.06,658.87,173.74,656.43,173.74Z" transform="translate(0 -2.79)"/></g><g class="cls-5"><path class="cls-6" d="M664.07,182h-1.58V169.07h1.58Z" transform="translate(0 -2.79)"/><path class="cls-6" d="M674.44,179.05a3.92,3.92,0,0,1-4.23,3.22c-2.65,0-4.21-2-4.21-4.72,0-2.91,1.4-5.24,4.52-5.24,2.71,0,4.05,2.16,4.05,5.49h-6.88c0,2,.92,3.1,2.73,3.1a2.4,2.4,0,0,0,2.44-1.85Zm-1.51-2.51c-.09-1.45-.7-2.8-2.63-2.8a2.76,2.76,0,0,0-2.61,2.8Z" transform="translate(0 -2.79)"/></g><g class="cls-5"><path class="cls-6" d="M676.28,172.58h1.5v1.34h0a3.29,3.29,0,0,1,2.85-1.61,2.55,2.55,0,0,1,2.5,1.53,3.45,3.45,0,0,1,2.88-1.53,2.84,2.84,0,0,1,2.92,3.17V182h-1.59v-6.09c0-1.29-.39-2.17-1.75-2.17a2.39,2.39,0,0,0-2.21,2.52V182h-1.58v-6.52c0-.79-.31-1.74-1.48-1.74-.9,0-2.48.57-2.48,3.13V182h-1.59Z" transform="translate(0 -2.79)"/></g></g><line class="cls-4" x1="100.59" y1="180.49" x2="117.08" y2="196.97"/><line class="cls-4" x1="100.59" y1="213.09" x2="117.08" y2="196.61"/><line class="cls-4" x1="1130.8" y1="180.58" x2="1147.29" y2="197.06"/><line class="cls-4" x1="1130.8" y1="213.18" x2="1147.29" y2="196.7"/><g class="cls-5"><g class="cls-5"><path d="M645.64,410.07v14c0,4.41-2.76,8.13-8.67,8.13s-8.28-3.72-8.28-7.74V410.07h2.91v13.56c0,4.68,2.85,6,5.46,6s5.67-1.23,5.67-5.91V410.07Z" transform="translate(0 -2.79)"/></g><g class="cls-5"><path d="M662.71,416.37c-.15-3.33-2.91-4.38-5.34-4.38-1.83,0-4.92.51-4.92,3.78,0,1.83,1.29,2.43,2.55,2.73l6.15,1.41c2.79.66,4.89,2.34,4.89,5.76,0,5.1-4.74,6.51-8.43,6.51-4,0-5.55-1.2-6.51-2.07a6.63,6.63,0,0,1-2.19-5.46h2.73c0,3.9,3.18,5,5.94,5,2.1,0,5.64-.54,5.64-3.63,0-2.25-1.05-3-4.59-3.81l-4.41-1c-1.41-.33-4.59-1.32-4.59-5.07,0-3.36,2.19-6.66,7.41-6.66,7.53,0,8.28,4.5,8.4,6.87Z" transform="translate(0 -2.79)"/></g><g class="cls-5"><path d="M685.54,431.61h-15.9V410.07h15.69v2.58H672.55v6.6h11.79v2.58H672.55V429h13Z" transform="translate(0 -2.79)"/></g><g class="cls-5"><path d="M691.75,431.61h-2.91V410.07h10c3.54,0,7.08,1.23,7.08,5.79a5.31,5.31,0,0,1-3,5.16c1.23.51,2.46,1.05,2.58,4.05l.18,3.9c0,1.2.18,1.65,1.08,2.16v.48h-3.57a26.41,26.41,0,0,1-.51-5.4c0-1.77-.36-3.84-3.84-3.84h-7Zm0-11.73h6.75c2.13,0,4.38-.54,4.38-3.72,0-3.33-2.43-3.6-3.87-3.6h-7.26Z" transform="translate(0 -2.79)"/></g><g class="cls-5"><path d="M732.76,410.07h2.82v21.54h-3.27l-10.95-17.4h-.06v17.4h-2.82V410.07h3.45l10.77,17.4h.06Z" transform="translate(0 -2.79)"/></g><g class="cls-5"><path d="M743.17,425.34l-2.25,6.27h-3l8.1-21.54h3.3l7.8,21.54h-3.18l-2.13-6.27Zm7.59-2.58-3.18-9.48h-.06l-3.45,9.48Z" transform="translate(0 -2.79)"/></g><g class="cls-5"><path d="M762.55,431.61h-2.91V410.07h10c3.54,0,7.08,1.23,7.08,5.79a5.31,5.31,0,0,1-3,5.16c1.23.51,2.46,1.05,2.58,4.05l.18,3.9c0,1.2.18,1.65,1.08,2.16v.48H774a26.41,26.41,0,0,1-.51-5.4c0-1.77-.36-3.84-3.84-3.84h-7.05Zm0-11.73h6.75c2.13,0,4.38-.54,4.38-3.72,0-3.33-2.43-3.6-3.87-3.6h-7.26Z" transform="translate(0 -2.79)"/></g><g class="cls-5"><path d="M783.82,431.61h-2.91V410.07h10c3.54,0,7.08,1.23,7.08,5.79a5.31,5.31,0,0,1-3,5.16c1.23.51,2.46,1.05,2.58,4.05l.18,3.9c0,1.2.18,1.65,1.08,2.16v.48h-3.57a26.41,26.41,0,0,1-.51-5.4c0-1.77-.36-3.84-3.84-3.84h-7Zm0-11.73h6.75c2.13,0,4.38-.54,4.38-3.72,0-3.33-2.43-3.6-3.87-3.6h-7.26Z" transform="translate(0 -2.79)"/></g><g class="cls-5"><path d="M805.81,425.34l-2.25,6.27h-3l8.1-21.54H812l7.8,21.54h-3.18l-2.13-6.27Zm7.59-2.58-3.18-9.48h-.06l-3.45,9.48Z" transform="translate(0 -2.79)"/></g><g class="cls-5"><path d="M817.72,410.07h17.49v2.58h-7.29v19H825v-19h-7.29Z" transform="translate(0 -2.79)"/></g><g class="cls-5"><path d="M840.7,431.61h-2.91V410.07h2.91Z" transform="translate(0 -2.79)"/></g><g class="cls-5"><path d="M854.68,432.18c-8,0-10.5-6.69-10.5-11.34s2.46-11.34,10.5-11.34,10.5,6.69,10.5,11.34S862.72,432.18,854.68,432.18Zm0-20.1c-4.68,0-7.5,3.69-7.5,8.76s2.82,8.76,7.5,8.76,7.5-3.69,7.5-8.76S859.36,412.08,854.68,412.08Z" transform="translate(0 -2.79)"/></g><g class="cls-5"><path d="M882.76,410.07h2.82v21.54h-3.27l-10.95-17.4h-.06v17.4h-2.82V410.07h3.45l10.77,17.4h.06Z" transform="translate(0 -2.79)"/></g></g><g class="cls-5"><g class="cls-5"><path d="M37.75,388.8H48.67v2.58H34.84V369.84h2.91Z" transform="translate(0 -2.79)"/></g><g class="cls-5"><path d="M54.19,391.38H51.28V369.84h2.91Z" transform="translate(0 -2.79)"/></g><g class="cls-5"><path d="M56.71,369.84H74.2v2.58H66.91v19H64v-19H56.71Z" transform="translate(0 -2.79)"/></g><g class="cls-5"><path d="M92.59,391.38H76.69V369.84H92.38v2.58H79.6V379H91.39v2.58H79.6v7.2h13Z" transform="translate(0 -2.79)"/></g><g class="cls-5"><path d="M98.8,391.38H95.89V369.84h10c3.54,0,7.08,1.23,7.08,5.79a5.31,5.31,0,0,1-3,5.16c1.23.51,2.46,1,2.58,4l.18,3.9c0,1.2.18,1.65,1.08,2.16v.48H110.2a26.41,26.41,0,0,1-.51-5.4c0-1.77-.36-3.84-3.84-3.84h-7Zm0-11.73h6.75c2.13,0,4.38-.54,4.38-3.72s-2.43-3.6-3.87-3.6H98.8Z" transform="translate(0 -2.79)"/></g><g class="cls-5"><path d="M120.79,385.11l-2.25,6.27h-3l8.1-21.54h3.3l7.8,21.54h-3.18l-2.13-6.27Zm7.59-2.58-3.18-9.48h-.06l-3.45,9.48Z" transform="translate(0 -2.79)"/></g><g class="cls-5"><path d="M132.7,369.84h17.49v2.58H142.9v19H140v-19H132.7Z" transform="translate(0 -2.79)"/></g><g class="cls-5"><path d="M169.54,369.84v14c0,4.41-2.76,8.13-8.67,8.13s-8.28-3.72-8.28-7.74V369.84h2.91V383.4c0,4.68,2.85,6,5.46,6s5.67-1.23,5.67-5.91V369.84Z" transform="translate(0 -2.79)"/></g><g class="cls-5"><path d="M177,391.38h-2.91V369.84h10c3.54,0,7.08,1.23,7.08,5.79a5.31,5.31,0,0,1-3,5.16c1.23.51,2.46,1,2.58,4l.18,3.9c0,1.2.18,1.65,1.08,2.16v.48h-3.57a26.41,26.41,0,0,1-.51-5.4c0-1.77-.36-3.84-3.84-3.84H177Zm0-11.73h6.75c2.13,0,4.38-.54,4.38-3.72s-2.43-3.6-3.87-3.6H177Z" transform="translate(0 -2.79)"/></g><g class="cls-5"><path d="M211.21,391.38h-15.9V369.84H211v2.58H198.22V379H210v2.58H198.22v7.2h13Z" transform="translate(0 -2.79)"/></g><g class="cls-5"><path d="M226.63,391.38h-2.91V369.84h10c3.54,0,7.08,1.23,7.08,5.79a5.31,5.31,0,0,1-3,5.16c1.23.51,2.46,1,2.58,4l.18,3.9c0,1.2.18,1.65,1.08,2.16v.48H238a26.41,26.41,0,0,1-.51-5.4c0-1.77-.36-3.84-3.84-3.84h-7.05Zm0-11.73h6.75c2.13,0,4.38-.54,4.38-3.72s-2.43-3.6-3.87-3.6h-7.26Z" transform="translate(0 -2.79)"/></g><g class="cls-5"><path d="M260.86,391.38H245V369.84h15.69v2.58H247.87V379h11.79v2.58H247.87v7.2h13Z" transform="translate(0 -2.79)"/></g><g class="cls-5"><path d="M278.38,369.84h3.27l-7.86,21.54H270.7l-7.86-21.54h3.24l6.15,18.36h.06Z" transform="translate(0 -2.79)"/></g><g class="cls-5"><path d="M287.23,391.38h-2.91V369.84h2.91Z" transform="translate(0 -2.79)"/></g><g class="cls-5"><path d="M307.81,391.38h-15.9V369.84H307.6v2.58H294.82V379h11.79v2.58H294.82v7.2h13Z" transform="translate(0 -2.79)"/></g><g class="cls-5"><path d="M318.4,391.38h-3.06l-5.61-21.54h3.15l4,17.52H317l4.83-17.52H325l4.83,17.52h.06l4-17.52h3.21l-5.67,21.54h-3.06l-4.92-17.85h-.06Z" transform="translate(0 -2.79)"/></g></g><g class="cls-5"><g class="cls-5"><path d="M51.07,431.61H48.16V410.07h9.69c4,0,6.39,2.58,6.39,6.06,0,3-1.71,6.39-6.39,6.39H51.07Zm0-11.58h5.79c2.61,0,4.38-1,4.38-3.87,0-2.73-1.86-3.6-4.26-3.6H51.07Z" transform="translate(0 -2.79)"/></g><g class="cls-5"><path d="M70.12,431.61H67.21V410.07h10c3.54,0,7.08,1.23,7.08,5.79a5.31,5.31,0,0,1-3,5.16c1.23.51,2.46,1.05,2.58,4.05L84,429c0,1.2.18,1.65,1.08,2.16v.48H81.52a26.41,26.41,0,0,1-.51-5.4c0-1.77-.36-3.84-3.84-3.84h-7Zm0-11.73h6.75c2.13,0,4.38-.54,4.38-3.72,0-3.33-2.43-3.6-3.87-3.6H70.12Z" transform="translate(0 -2.79)"/></g><g class="cls-5"><path d="M97.51,432.18c-8,0-10.5-6.69-10.5-11.34s2.46-11.34,10.5-11.34,10.5,6.69,10.5,11.34S105.55,432.18,97.51,432.18Zm0-20.1c-4.68,0-7.5,3.69-7.5,8.76s2.82,8.76,7.5,8.76,7.5-3.69,7.5-8.76S102.19,412.08,97.51,412.08Z" transform="translate(0 -2.79)"/></g><g class="cls-5"><path d="M111.37,410.07h8.73c5.61,0,9.06,4.26,9.06,10.47,0,4.83-2.1,11.07-9.18,11.07h-8.61Zm2.91,19.05h5.64c3.78,0,6.24-3,6.24-8.4s-2.49-8.16-6.45-8.16h-5.43Z" transform="translate(0 -2.79)"/></g><g class="cls-5"><path d="M149.53,410.07v14c0,4.41-2.76,8.13-8.67,8.13s-8.28-3.72-8.28-7.74V410.07h2.91v13.56c0,4.68,2.85,6,5.46,6s5.67-1.23,5.67-5.91V410.07Z" transform="translate(0 -2.79)"/></g><g class="cls-5"><path d="M168.94,416.55c-.81-3.78-4-4.47-6-4.47-3.9,0-7,2.88-7,8.55,0,5.07,1.8,9,7.14,9,1.89,0,5.16-.9,6.15-5.91H172c-1.2,8.13-7.8,8.49-9.42,8.49-4.89,0-9.69-3.18-9.69-11.46,0-6.63,3.78-11.22,10-11.22,5.55,0,8.43,3.45,8.85,7.05Z" transform="translate(0 -2.79)"/></g><g class="cls-5"><path d="M173.08,410.07h17.49v2.58h-7.29v19h-2.91v-19h-7.29Z" transform="translate(0 -2.79)"/></g><g class="cls-5"><path d="M205,425.34l-2.25,6.27h-3l8.1-21.54h3.3l7.8,21.54h-3.18l-2.13-6.27Zm7.59-2.58-3.18-9.48h-.06l-3.45,9.48Z" transform="translate(0 -2.79)"/></g><g class="cls-5"><path d="M237.4,410.07v14c0,4.41-2.76,8.13-8.67,8.13s-8.28-3.72-8.28-7.74V410.07h2.91v13.56c0,4.68,2.85,6,5.46,6s5.67-1.23,5.67-5.91V410.07Z" transform="translate(0 -2.79)"/></g><g class="cls-5"><path d="M239.77,410.07h17.49v2.58H250v19h-2.91v-19h-7.29Z" transform="translate(0 -2.79)"/></g><g class="cls-5"><path d="M268.3,432.18c-8,0-10.5-6.69-10.5-11.34s2.46-11.34,10.5-11.34,10.5,6.69,10.5,11.34S276.34,432.18,268.3,432.18Zm0-20.1c-4.68,0-7.5,3.69-7.5,8.76s2.82,8.76,7.5,8.76,7.5-3.69,7.5-8.76S273,412.08,268.3,412.08Z" transform="translate(0 -2.79)"/></g><g class="cls-5"><path d="M285.16,431.61h-2.91V410.07h9.69c4,0,6.39,2.58,6.39,6.06,0,3-1.71,6.39-6.39,6.39h-6.78Zm0-11.58H291c2.61,0,4.38-1,4.38-3.87,0-2.73-1.86-3.6-4.26-3.6h-5.91Z" transform="translate(0 -2.79)"/></g><g class="cls-5"><path d="M314.17,416.37C314,413,311.26,412,308.83,412c-1.83,0-4.92.51-4.92,3.78,0,1.83,1.29,2.43,2.55,2.73l6.15,1.41c2.79.66,4.89,2.34,4.89,5.76,0,5.1-4.74,6.51-8.43,6.51-4,0-5.55-1.2-6.51-2.07a6.63,6.63,0,0,1-2.19-5.46h2.73c0,3.9,3.18,5,5.94,5,2.1,0,5.64-.54,5.64-3.63,0-2.25-1.05-3-4.59-3.81l-4.41-1c-1.41-.33-4.59-1.32-4.59-5.07,0-3.36,2.19-6.66,7.41-6.66,7.53,0,8.28,4.5,8.4,6.87Z" transform="translate(0 -2.79)"/></g><g class="cls-5"><path d="M329,431.61h-2.91v-8.67L318,410.07h3.39l6.18,10.35,6.18-10.35h3.42L329,422.94Z" transform="translate(0 -2.79)"/></g></g><g class="cls-5"><g class="cls-5"><path d="M387.37,390.69V378c0-.63.06-3.36.06-5.37h-.06l-6.06,18.09h-2.88l-6.06-18.06h-.06c0,2,.06,4.71.06,5.34v12.72h-2.82V369.15h4.17l6.15,18.21h.06l6.12-18.21h4.14v21.54Z" transform="translate(0 -2.79)"/></g><g class="cls-5"><path d="M403.93,391.26c-8,0-10.5-6.69-10.5-11.34s2.46-11.34,10.5-11.34,10.5,6.69,10.5,11.34S412,391.26,403.93,391.26Zm0-20.1c-4.68,0-7.5,3.69-7.5,8.76s2.82,8.76,7.5,8.76,7.5-3.69,7.5-8.76S408.61,371.16,403.93,371.16Z" transform="translate(0 -2.79)"/></g><g class="cls-5"><path d="M432.85,375.63c-.81-3.78-4-4.47-6-4.47-3.9,0-7.05,2.88-7.05,8.55,0,5.07,1.8,9,7.14,9,1.89,0,5.16-.9,6.15-5.91h2.82c-1.2,8.13-7.8,8.49-9.42,8.49-4.89,0-9.69-3.18-9.69-11.46,0-6.63,3.78-11.22,10.05-11.22,5.55,0,8.43,3.45,8.85,7.05Z" transform="translate(0 -2.79)"/></g><g class="cls-5"><path d="M442,390.69h-2.91V369.15H442v10.44l10.44-10.44h4l-9,8.7,9.21,12.84h-3.78l-7.53-10.8L442,383.13Z" transform="translate(0 -2.79)"/></g><g class="cls-5"><path d="M475.75,369.15v14c0,4.41-2.76,8.13-8.67,8.13s-8.28-3.72-8.28-7.74V369.15h2.91v13.56c0,4.68,2.85,6,5.46,6s5.67-1.23,5.67-5.91V369.15Z" transform="translate(0 -2.79)"/></g><g class="cls-5"><path d="M483.16,390.69h-2.91V369.15h9.69c4,0,6.39,2.58,6.39,6.06,0,3-1.71,6.39-6.39,6.39h-6.78Zm0-11.58H489c2.61,0,4.38-1,4.38-3.87,0-2.73-1.86-3.6-4.26-3.6h-5.91Z" transform="translate(0 -2.79)"/></g><g class="cls-5"><path d="M512.17,375.45c-.15-3.33-2.91-4.38-5.34-4.38-1.83,0-4.92.51-4.92,3.78,0,1.83,1.29,2.43,2.55,2.73l6.15,1.41c2.79.66,4.89,2.34,4.89,5.76,0,5.1-4.74,6.51-8.43,6.51-4,0-5.55-1.2-6.51-2.07a6.63,6.63,0,0,1-2.19-5.46h2.73c0,3.9,3.18,5,5.94,5,2.1,0,5.64-.54,5.64-3.63,0-2.25-1-3-4.59-3.81l-4.41-1c-1.41-.33-4.59-1.32-4.59-5.07,0-3.36,2.19-6.66,7.41-6.66,7.53,0,8.28,4.5,8.4,6.87Z" transform="translate(0 -2.79)"/></g></g><g class="cls-5"><g class="cls-5"><path d="M632.83,385.11l-2.25,6.27h-3l8.1-21.54H639l7.8,21.54H643.6l-2.13-6.27Zm7.59-2.58-3.18-9.48h-.06l-3.45,9.48Z" transform="translate(0 -2.79)"/></g><g class="cls-5"><path d="M657.94,369.84h8.73c5.61,0,9.06,4.26,9.06,10.47,0,4.83-2.1,11.07-9.18,11.07h-8.61Zm2.91,19.05h5.64c3.78,0,6.24-3,6.24-8.4s-2.49-8.16-6.45-8.16h-5.43Z" transform="translate(0 -2.79)"/></g><g class="cls-5"><path d="M681.46,385.11l-2.25,6.27h-3l8.1-21.54h3.3l7.8,21.54h-3.18l-2.13-6.27Zm7.59-2.58-3.18-9.48h-.06l-3.45,9.48Z" transform="translate(0 -2.79)"/></g><g class="cls-5"><path d="M704.17,391.38h-2.91v-8.67l-8.13-12.87h3.39l6.18,10.35,6.18-10.35h3.42l-8.13,12.87Z" transform="translate(0 -2.79)"/></g><g class="cls-5"><path d="M726.7,391.38h-2.91V369.84h2.91Z" transform="translate(0 -2.79)"/></g><g class="cls-5"><path d="M745.51,369.84h2.82v21.54h-3.27L734.11,374h-.06v17.4h-2.82V369.84h3.45l10.77,17.4h.06Z" transform="translate(0 -2.79)"/></g><g class="cls-5"><path d="M759.37,369.84h17.49v2.58h-7.29v19h-2.91v-19h-7.29Z" transform="translate(0 -2.79)"/></g><g class="cls-5"><path d="M793.39,369.84h2.91v21.54h-2.91V381.33H782.14v10.05h-2.91V369.84h2.91v8.91h11.25Z" transform="translate(0 -2.79)"/></g><g class="cls-5"><path d="M816.73,391.38h-15.9V369.84h15.69v2.58H803.74V379h11.79v2.58H803.74v7.2h13Z" transform="translate(0 -2.79)"/></g><g class="cls-5"><path d="M831.79,388.8h10.92v2.58H828.88V369.84h2.91Z" transform="translate(0 -2.79)"/></g><g class="cls-5"><path d="M848.26,391.38h-2.91V369.84h2.91Z" transform="translate(0 -2.79)"/></g><g class="cls-5"><path d="M855.85,391.38h-2.91V369.84h14.91v2.58h-12V379h10.56v2.58H855.85Z" transform="translate(0 -2.79)"/></g><g class="cls-5"><path d="M886.45,391.38h-15.9V369.84h15.69v2.58H873.46V379h11.79v2.58H873.46v7.2h13Z" transform="translate(0 -2.79)"/></g></g><g class="cls-5"><g class="cls-5"><path d="M916.15,391.38h-2.91V369.84h14.91v2.58h-12V379h10.56v2.58H916.15Z" transform="translate(0 -2.79)"/></g><g class="cls-5"><path d="M933.82,391.38h-2.91V369.84h2.91Z" transform="translate(0 -2.79)"/></g><g class="cls-5"><path d="M947.71,379.86h9.45v11.52h-1.89l-.69-2.79a8.79,8.79,0,0,1-7.11,3.36,8.63,8.63,0,0,1-6.6-2.43c-3.3-3.12-3.39-6.81-3.39-9.09,0-5.25,3.18-11.16,10.2-11.16,4,0,8.49,2.28,9.12,7.11H954c-.93-3.75-4.08-4.53-6.45-4.53-3.87,0-7,3.09-7,8.73,0,4.38,1.44,8.88,7.17,8.88a6.85,6.85,0,0,0,4.41-1.38c1.89-1.5,2.37-3.42,2.37-5.73h-6.72Z" transform="translate(0 -2.79)"/></g><g class="cls-5"><path d="M979.15,391.38V378.66c0-.63.06-3.36.06-5.37h-.06l-6.06,18.09h-2.88l-6.06-18.06h-.06c0,2,.06,4.71.06,5.34v12.72h-2.82V369.84h4.17l6.15,18.21h.06l6.12-18.21H982v21.54Z" transform="translate(0 -2.79)"/></g><g class="cls-5"><path d="M989.53,385.11l-2.25,6.27h-3l8.1-21.54h3.3l7.8,21.54h-3.18l-2.13-6.27Zm7.59-2.58-3.18-9.48h-.06l-3.45,9.48Z" transform="translate(0 -2.79)"/></g><g class="cls-5"><path d="M1017.34,391.38h-2.91V369.84h9.69c4,0,6.39,2.58,6.39,6.06,0,3-1.71,6.39-6.39,6.39h-6.78Zm0-11.58h5.79c2.61,0,4.38-1,4.38-3.87,0-2.73-1.86-3.6-4.26-3.6h-5.91Z" transform="translate(0 -2.79)"/></g><g class="cls-5"><path d="M1036.39,391.38h-2.91V369.84h10c3.54,0,7.08,1.23,7.08,5.79a5.31,5.31,0,0,1-3,5.16c1.23.51,2.46,1,2.58,4l.18,3.9c0,1.2.18,1.65,1.08,2.16v.48h-3.57a26.41,26.41,0,0,1-.51-5.4c0-1.77-.36-3.84-3.84-3.84h-7Zm0-11.73h6.75c2.13,0,4.38-.54,4.38-3.72s-2.43-3.6-3.87-3.6h-7.26Z" transform="translate(0 -2.79)"/></g><g class="cls-5"><path d="M1063.75,392c-8,0-10.5-6.69-10.5-11.34s2.46-11.34,10.5-11.34,10.5,6.69,10.5,11.34S1071.79,392,1063.75,392Zm0-20.1c-4.68,0-7.5,3.69-7.5,8.76s2.82,8.76,7.5,8.76,7.5-3.69,7.5-8.76S1068.43,371.85,1063.75,371.85Z" transform="translate(0 -2.79)"/><path d="M1073.74,369.84h17.49v2.58h-7.29v19H1081v-19h-7.29Z" transform="translate(0 -2.79)"/><path d="M1101.22,392c-8,0-10.5-6.69-10.5-11.34s2.46-11.34,10.5-11.34,10.5,6.69,10.5,11.34S1109.26,392,1101.22,392Zm0-20.1c-4.68,0-7.5,3.69-7.5,8.76s2.82,8.76,7.5,8.76,7.5-3.69,7.5-8.76S1105.9,371.85,1101.22,371.85Z" transform="translate(0 -2.79)"/></g><g class="cls-5"><path d="M1114.45,369.84h17.49v2.58h-7.29v19h-2.91v-19h-7.29Z" transform="translate(0 -2.79)"/></g><g class="cls-5"><path d="M1144.39,391.38h-2.91v-8.67l-8.13-12.87h3.39l6.18,10.35,6.18-10.35h3.42l-8.13,12.87Z" transform="translate(0 -2.79)"/></g><g class="cls-5"><path d="M1157.92,391.38H1155V369.84h9.69c4,0,6.39,2.58,6.39,6.06,0,3-1.71,6.39-6.39,6.39h-6.78Zm0-11.58h5.79c2.61,0,4.38-1,4.38-3.87,0-2.73-1.86-3.6-4.26-3.6h-5.91Z" transform="translate(0 -2.79)"/><path d="M1190,391.38h-15.9V369.84h15.69v2.58H1177V379h11.79v2.58H1177v7.2h13Z" transform="translate(0 -2.79)"/></g><g class="cls-5"><path d="M1205.74,376.14c-.15-3.33-2.91-4.38-5.34-4.38-1.83,0-4.92.51-4.92,3.78,0,1.83,1.29,2.43,2.55,2.73l6.15,1.41c2.79.66,4.89,2.34,4.89,5.76,0,5.1-4.74,6.51-8.43,6.51-4,0-5.55-1.2-6.51-2.07a6.63,6.63,0,0,1-2.19-5.46h2.73c0,3.9,3.18,5,5.94,5,2.1,0,5.64-.54,5.64-3.63,0-2.25-1-3-4.59-3.81l-4.41-1c-1.41-.33-4.59-1.32-4.59-5.07,0-3.36,2.19-6.66,7.41-6.66,7.53,0,8.28,4.5,8.4,6.87Z" transform="translate(0 -2.79)"/></g></g><g class="cls-5"><g class="cls-5"><path d="M372.82,431.61h-2.91V410.07h9.69c4,0,6.39,2.58,6.39,6.06,0,3-1.71,6.39-6.39,6.39h-6.78Zm0-11.58h5.79c2.61,0,4.38-1,4.38-3.87,0-2.73-1.86-3.6-4.26-3.6h-5.91Z" transform="translate(0 -2.79)"/></g><g class="cls-5"><path d="M404.83,431.61h-15.9V410.07h15.69v2.58H391.84v6.6h11.79v2.58H391.84V429h13Z" transform="translate(0 -2.79)"/></g><g class="cls-5"><path d="M411,431.61h-2.91V410.07h10c3.54,0,7.08,1.23,7.08,5.79a5.31,5.31,0,0,1-3,5.16c1.23.51,2.46,1.05,2.58,4.05l.18,3.9c0,1.2.18,1.65,1.08,2.16v.48h-3.57a26.41,26.41,0,0,1-.51-5.4c0-1.77-.36-3.84-3.84-3.84h-7Zm0-11.73h6.75c2.13,0,4.38-.54,4.38-3.72,0-3.33-2.43-3.6-3.87-3.6H411Z" transform="translate(0 -2.79)"/></g><g class="cls-5"><path d="M441.94,416.37C441.79,413,439,412,436.6,412c-1.83,0-4.92.51-4.92,3.78,0,1.83,1.29,2.43,2.55,2.73l6.15,1.41c2.79.66,4.89,2.34,4.89,5.76,0,5.1-4.74,6.51-8.43,6.51-4,0-5.55-1.2-6.51-2.07a6.63,6.63,0,0,1-2.19-5.46h2.73c0,3.9,3.18,5,5.94,5,2.1,0,5.64-.54,5.64-3.63,0-2.25-1.05-3-4.59-3.81l-4.41-1c-1.41-.33-4.59-1.32-4.59-5.07,0-3.36,2.19-6.66,7.41-6.66,7.53,0,8.28,4.5,8.4,6.87Z" transform="translate(0 -2.79)"/></g><g class="cls-5"><path d="M457.9,432.18c-8,0-10.5-6.69-10.5-11.34s2.46-11.34,10.5-11.34,10.5,6.69,10.5,11.34S465.94,432.18,457.9,432.18Zm0-20.1c-4.68,0-7.5,3.69-7.5,8.76s2.82,8.76,7.5,8.76,7.5-3.69,7.5-8.76S462.58,412.08,457.9,412.08Z" transform="translate(0 -2.79)"/></g><g class="cls-5"><path d="M486,410.07h2.82v21.54h-3.27l-10.95-17.4h-.06v17.4H471.7V410.07h3.45l10.77,17.4H486Z" transform="translate(0 -2.79)"/></g><g class="cls-5"><path d="M496.39,425.34l-2.25,6.27h-3l8.1-21.54h3.3l7.8,21.54h-3.18L505,425.34Zm7.59-2.58-3.18-9.48h-.06l-3.45,9.48Z" transform="translate(0 -2.79)"/></g><g class="cls-5"><path d="M525.22,416.37c-.15-3.33-2.91-4.38-5.34-4.38-1.83,0-4.92.51-4.92,3.78,0,1.83,1.29,2.43,2.55,2.73l6.15,1.41c2.79.66,4.89,2.34,4.89,5.76,0,5.1-4.74,6.51-8.43,6.51-4,0-5.55-1.2-6.51-2.07a6.63,6.63,0,0,1-2.19-5.46h2.73c0,3.9,3.18,5,5.94,5,2.1,0,5.64-.54,5.64-3.63,0-2.25-1.05-3-4.59-3.81l-4.41-1c-1.41-.33-4.59-1.32-4.59-5.07,0-3.36,2.19-6.66,7.41-6.66,7.53,0,8.28,4.5,8.4,6.87Z" transform="translate(0 -2.79)"/></g></g><g class="cls-5"><g class="cls-5"><path d="M930.67,431.61V418.89c0-.63.06-3.36.06-5.37h-.06l-6.06,18.09h-2.88l-6.06-18.06h-.06c0,2,.06,4.71.06,5.34v12.72h-2.82V410.07H917l6.15,18.21h.06l6.12-18.21h4.14v21.54Z" transform="translate(0 -2.79)"/></g><g class="cls-5"><path d="M941.05,425.34l-2.25,6.27h-3l8.1-21.54h3.3l7.8,21.54h-3.18l-2.13-6.27Zm7.59-2.58-3.18-9.48h-.06L942,422.76Z" transform="translate(0 -2.79)"/></g><g class="cls-5"><path d="M953,410.07h17.49v2.58h-7.29v19h-2.91v-19H953Z" transform="translate(0 -2.79)"/></g><g class="cls-5"><path d="M975.91,431.61H973V410.07h10c3.54,0,7.08,1.23,7.08,5.79a5.31,5.31,0,0,1-3,5.16c1.23.51,2.46,1.05,2.58,4.05l.18,3.9c0,1.2.18,1.65,1.08,2.16v.48h-3.57a26.41,26.41,0,0,1-.51-5.4c0-1.77-.36-3.84-3.84-3.84h-7.05Zm0-11.73h6.75c2.13,0,4.38-.54,4.38-3.72,0-3.33-2.43-3.6-3.87-3.6h-7.26Z" transform="translate(0 -2.79)"/></g><g class="cls-5"><path d="M997.21,431.61H994.3V410.07h2.91Z" transform="translate(0 -2.79)"/></g><g class="cls-5"><path d="M1018.66,431.61h-3.6l-5.79-8.85-6,8.85h-3.51l7.71-11-7.23-10.5h3.66l5.46,8.25,5.46-8.25h3.48l-7.23,10.5Z" transform="translate(0 -2.79)"/></g><g class="cls-5"><path d="M1045.72,431.61h-15.9V410.07h15.69v2.58h-12.78v6.6h11.79v2.58h-11.79V429h13Z" transform="translate(0 -2.79)"/></g><g class="cls-5"><path d="M1063.24,410.07h3.27l-7.86,21.54h-3.09l-7.86-21.54h3.24l6.15,18.36h.06Z" transform="translate(0 -2.79)"/></g><g class="cls-5"><path d="M1070.41,425.34l-2.25,6.27h-3l8.1-21.54h3.3l7.8,21.54h-3.18l-2.13-6.27Zm7.59-2.58-3.18-9.48h-.06l-3.45,9.48Z" transform="translate(0 -2.79)"/></g><g class="cls-5"><path d="M1089.61,429h10.92v2.58H1086.7V410.07h2.91Z" transform="translate(0 -2.79)"/></g><g class="cls-5"><path d="M1119.37,410.07v14c0,4.41-2.76,8.13-8.67,8.13s-8.28-3.72-8.28-7.74V410.07h2.91v13.56c0,4.68,2.85,6,5.46,6s5.67-1.23,5.67-5.91V410.07Z" transform="translate(0 -2.79)"/></g><g class="cls-5"><path d="M1126,425.34l-2.25,6.27h-3l8.1-21.54h3.3l7.8,21.54h-3.18l-2.13-6.27Zm7.59-2.58-3.18-9.48h-.06l-3.45,9.48Z" transform="translate(0 -2.79)"/></g><g class="cls-5"><path d="M1137.94,410.07h17.49v2.58h-7.29v19h-2.91v-19h-7.29Z" transform="translate(0 -2.79)"/></g><g class="cls-5"><path d="M1160.92,431.61H1158V410.07h2.91Z" transform="translate(0 -2.79)"/></g><g class="cls-5"><path d="M1174.9,432.18c-8,0-10.5-6.69-10.5-11.34s2.46-11.34,10.5-11.34,10.5,6.69,10.5,11.34S1182.94,432.18,1174.9,432.18Zm0-20.1c-4.68,0-7.5,3.69-7.5,8.76s2.82,8.76,7.5,8.76,7.5-3.69,7.5-8.76S1179.58,412.08,1174.9,412.08Z" transform="translate(0 -2.79)"/></g><g class="cls-5"><path d="M1203,410.07h2.82v21.54h-3.27l-11-17.4h-.06v17.4h-2.82V410.07h3.45l10.77,17.4h.06Z" transform="translate(0 -2.79)"/></g></g></svg>