<svg id="Capa_1" data-name="Capa 1" xmlns="http://www.w3.org/2000/svg" xmlns:xlink="http://www.w3.org/1999/xlink" viewBox="0 0 1115.12 422.41"><defs><style>.cls-1,.cls-23{fill:none;}.cls-2{font-size:30px;}.cls-2,.cls-24,.cls-56,.cls-85{font-family:HelveticaLTStd-Roman, Helvetica LT Std;}.cls-3{letter-spacing:-0.01em;}.cls-4{letter-spacing:-0.01em;}.cls-5{letter-spacing:-0.02em;}.cls-6{letter-spacing:-0.01em;}.cls-7{letter-spacing:-0.01em;}.cls-8{letter-spacing:-0.03em;}.cls-9{letter-spacing:-0.02em;}.cls-10{letter-spacing:-0.01em;}.cls-11{letter-spacing:-0.03em;}.cls-12{letter-spacing:-0.01em;}.cls-13{letter-spacing:-0.02em;}.cls-14{letter-spacing:-0.03em;}.cls-15{letter-spacing:-0.02em;}.cls-16{letter-spacing:-0.01em;}.cls-17{letter-spacing:-0.01em;}.cls-18{letter-spacing:-0.02em;}.cls-19{letter-spacing:-0.02em;}.cls-20{letter-spacing:-0.03em;}.cls-21{letter-spacing:-0.02em;}.cls-22{letter-spacing:-0.02em;}.cls-23{stroke:#1d1d1b;stroke-miterlimit:10;stroke-width:0.9px;}.cls-24,.cls-56,.cls-85{font-size:18px;fill:#1d1d1b;}.cls-25{letter-spacing:-0.07em;}.cls-26{letter-spacing:-0.03em;}.cls-27{letter-spacing:0em;}.cls-28{letter-spacing:0em;}.cls-29{letter-spacing:0em;}.cls-30,.cls-56{letter-spacing:-0.01em;}.cls-31,.cls-85{letter-spacing:0em;}.cls-32{letter-spacing:-0.01em;}.cls-33{letter-spacing:-0.01em;}.cls-34{letter-spacing:-0.01em;}.cls-35{letter-spacing:-0.01em;}.cls-36{letter-spacing:-0.02em;}.cls-37{letter-spacing:-0.09em;}.cls-38{letter-spacing:0.01em;}.cls-39{letter-spacing:0em;}.cls-40{letter-spacing:-0.01em;}.cls-41{letter-spacing:-0.02em;}.cls-42{letter-spacing:-0.01em;}.cls-43{letter-spacing:-0.01em;}.cls-44{letter-spacing:0em;}.cls-45{letter-spacing:-0.01em;}.cls-46{letter-spacing:0em;}.cls-47{letter-spacing:0em;}.cls-48{letter-spacing:-0.01em;}.cls-49{letter-spacing:-0.03em;}.cls-50{letter-spacing:-0.04em;}.cls-51{letter-spacing:0em;}.cls-52{letter-spacing:-0.03em;}.cls-53{letter-spacing:0.02em;}.cls-54{letter-spacing:-0.02em;}.cls-55{letter-spacing:0em;}.cls-57{letter-spacing:0em;}.cls-58{letter-spacing:0em;}.cls-59{letter-spacing:-0.01em;}.cls-60{letter-spacing:0em;}.cls-61{letter-spacing:-0.01em;}.cls-62{letter-spacing:-0.01em;}.cls-63{letter-spacing:-0.02em;}.cls-64{letter-spacing:-0.02em;}.cls-65{clip-path:url(#clip-path);}.cls-66{clip-path:url(#clip-path-3);}.cls-67{clip-path:url(#clip-path-4);}.cls-68{letter-spacing:0em;}.cls-69{letter-spacing:-0.02em;}.cls-70{letter-spacing:-0.02em;}.cls-71{letter-spacing:-0.01em;}.cls-72{letter-spacing:-0.01em;}.cls-73{letter-spacing:0em;}.cls-74{letter-spacing:-0.02em;}.cls-75{letter-spacing:-0.01em;}.cls-76{letter-spacing:-0.03em;}.cls-77{letter-spacing:-0.07em;}.cls-78{letter-spacing:-0.02em;}.cls-79{letter-spacing:0em;}.cls-80{letter-spacing:0em;}.cls-81{letter-spacing:0em;}.cls-82{letter-spacing:0.01em;}.cls-83{letter-spacing:-0.01em;}.cls-84{letter-spacing:0em;}.cls-86{letter-spacing:-0.02em;}.cls-87{letter-spacing:-0.01em;}.cls-88{letter-spacing:-0.01em;}.cls-89{letter-spacing:-0.01em;}.cls-90{letter-spacing:-0.02em;}.cls-91{letter-spacing:-0.01em;}.cls-92{letter-spacing:0em;}.cls-93{letter-spacing:-0.01em;}.cls-94{letter-spacing:0em;}.cls-95{letter-spacing:-0.02em;}.cls-96{letter-spacing:-0.02em;}.cls-97{letter-spacing:-0.02em;}.cls-98{letter-spacing:-0.01em;}.cls-99{letter-spacing:0em;}.cls-100{letter-spacing:0em;}.cls-101{letter-spacing:0em;}.cls-102{letter-spacing:-0.01em;}.cls-103{letter-spacing:-0.03em;}.cls-104{letter-spacing:-0.07em;}.cls-105{letter-spacing:0em;}.cls-106{letter-spacing:-0.01em;}.cls-107{letter-spacing:0em;}.cls-108{letter-spacing:-0.02em;}.cls-109{letter-spacing:-0.11em;}.cls-110{letter-spacing:-0.01em;}.cls-111{letter-spacing:-0.01em;}.cls-112{letter-spacing:0em;}.cls-113{letter-spacing:-0.02em;}.cls-114{letter-spacing:-0.01em;}</style><clipPath id="clip-path" transform="translate(-23.05 -32.69)"><rect class="cls-1" x="23.82" y="32.69" width="69.31" height="69.31"/></clipPath><clipPath id="clip-path-3" transform="translate(-23.05 -32.69)"><rect class="cls-1" x="431.63" y="32.69" width="69.31" height="69.31"/></clipPath><clipPath id="clip-path-4" transform="translate(-23.05 -32.69)"><rect class="cls-1" x="831.29" y="32.69" width="69.31" height="69.31"/></clipPath></defs><text class="cls-2" transform="translate(0.78 104.59)"><tspan class="cls-3">T</tspan><tspan class="cls-4" x="17.97" y="0">H</tspan><tspan x="39.3" y="0">E </tspan><tspan class="cls-5" x="67.65" y="0">T</tspan><tspan class="cls-6" x="85.41" y="0">I</tspan><tspan class="cls-7" x="93.3" y="0">N</tspan><tspan class="cls-3" x="114.78" y="0">K</tspan><tspan class="cls-8" x="134.43" y="0">E</tspan><tspan class="cls-3" x="153.57" y="0">R</tspan><tspan class="cls-8" x="174.87" y="0">E</tspan><tspan class="cls-9" x="194.01" y="0">R</tspan><tspan x="215.19" y="0">S</tspan></text><text class="cls-2" transform="translate(408.57 104.59)"><tspan class="cls-10">T</tspan><tspan class="cls-4" x="17.97" y="0">H</tspan><tspan x="39.3" y="0">E </tspan><tspan class="cls-10" x="67.65" y="0">R</tspan><tspan class="cls-11" x="88.95" y="0">E</tspan><tspan class="cls-12" x="107.97" y="0">S</tspan><tspan x="127.59" y="0">E</tspan><tspan class="cls-13" x="147.6" y="0">A</tspan><tspan class="cls-12" x="167.1" y="0">R</tspan><tspan class="cls-4" x="188.37" y="0">CH</tspan><tspan class="cls-14" x="231.03" y="0">E</tspan><tspan class="cls-15" x="250.17" y="0">R</tspan><tspan x="271.35" y="0">S</tspan></text><text class="cls-2" transform="translate(808.23 104.59)"><tspan class="cls-16">T</tspan><tspan class="cls-17" x="17.97" y="0">H</tspan><tspan x="39.3" y="0">E </tspan><tspan class="cls-4" x="67.65" y="0">H</tspan><tspan class="cls-18" x="88.98" y="0">E</tspan><tspan class="cls-19" x="108.3" y="0">L</tspan><tspan class="cls-20" x="124.38" y="0">P</tspan><tspan class="cls-21" x="143.55" y="0">L</tspan><tspan class="cls-11" x="159.66" y="0">E</tspan><tspan class="cls-22" x="178.68" y="0">S</tspan><tspan x="198.24" y="0">S</tspan></text><line class="cls-23" x1="159.52" y1="217.8" x2="250.74" y2="217.8"/><line class="cls-23" x1="18.78" y1="304.2" x2="120.18" y2="304.2"/><text class="cls-24" transform="translate(0.78 172.8)"><tspan class="cls-25">1</tspan><tspan x="8.73" y="0">.</tspan></text><text class="cls-24" transform="translate(14.51 172.8)"> </text><text class="cls-24" transform="translate(18.78 172.8)"><tspan class="cls-26">K</tspan><tspan class="cls-27" x="11.43" y="0">e</tspan><tspan class="cls-28" x="21.37" y="0">e</tspan><tspan class="cls-29" x="31.28" y="0">n </tspan><tspan class="cls-30" x="46.3" y="0">a</tspan><tspan class="cls-31" x="56.18" y="0">n</tspan><tspan x="66.13" y="0">d </tspan><tspan class="cls-32" x="81.14" y="0">r</tspan><tspan class="cls-27" x="86.98" y="0">e</tspan><tspan class="cls-31" x="96.91" y="0">g</tspan><tspan class="cls-30" x="106.87" y="0">u</tspan><tspan class="cls-33" x="116.75" y="0">l</tspan><tspan class="cls-34" x="120.64" y="0">a</tspan><tspan x="130.39" y="0">r </tspan><tspan class="cls-35" x="141.39" y="0">D</tspan><tspan class="cls-36" x="154.19" y="0">I</tspan><tspan class="cls-37" x="158.88" y="0">Y</tspan><tspan class="cls-38" x="169.32" y="0">-</tspan><tspan class="cls-35" x="175.53" y="0">e</tspan><tspan class="cls-39" x="185.34" y="0">r</tspan><tspan x="191.39" y="0">s </tspan><tspan class="cls-27" x="205.4" y="0">wh</tspan><tspan x="228.26" y="0">o </tspan></text><text class="cls-24" transform="translate(18.78 194.4)">g<tspan class="cls-40" x="10.01" y="0">e</tspan><tspan class="cls-29" x="19.8" y="0">t </tspan><tspan class="cls-28" x="29.81" y="0">j</tspan><tspan class="cls-41" x="33.71" y="0">o</tspan><tspan x="43.33" y="0">y </tspan><tspan class="cls-42" x="57.33" y="0">f</tspan><tspan class="cls-43" x="62.08" y="0">r</tspan><tspan class="cls-44" x="67.97" y="0">o</tspan><tspan class="cls-29" x="77.92" y="0">m </tspan><tspan class="cls-31" x="97.92" y="0">m</tspan><tspan class="cls-45" x="112.86" y="0">a</tspan><tspan x="122.72" y="0">k</tspan><tspan class="cls-30" x="131.72" y="0">i</tspan><tspan class="cls-46" x="135.59" y="0">n</tspan><tspan x="145.51" y="0">g </tspan><tspan class="cls-28" x="160.52" y="0">s</tspan><tspan class="cls-31" x="169.43" y="0">o</tspan><tspan class="cls-27" x="179.39" y="0">m</tspan><tspan class="cls-40" x="194.31" y="0">e</tspan><tspan class="cls-47" x="204.1" y="0">t</tspan><tspan class="cls-33" x="209.03" y="0">h</tspan><tspan class="cls-48" x="218.93" y="0">i</tspan><tspan class="cls-28" x="222.8" y="0">n</tspan><tspan x="232.72" y="0">g </tspan></text><text class="cls-24" transform="translate(18.78 216)"><tspan class="cls-27">t</tspan><tspan class="cls-33" x="4.93" y="0">he</tspan><tspan class="cls-31" x="24.73" y="0">m</tspan><tspan class="cls-33" x="39.67" y="0">se</tspan><tspan class="cls-28" x="58.46" y="0">l</tspan><tspan class="cls-49" x="62.37" y="0">v</tspan><tspan class="cls-28" x="70.92" y="0">e</tspan><tspan class="cls-40" x="80.84" y="0">s</tspan><tspan x="89.62" y="0">. </tspan><tspan class="cls-28" x="99.63" y="0">S</tspan><tspan class="cls-27" x="111.55" y="0">e</tspan><tspan class="cls-50" x="121.48" y="0">e</tspan><tspan x="130.79" y="0">: </tspan></text><text class="cls-24" transform="translate(159.49 216)"><tspan class="cls-35">I</tspan><tspan class="cls-45" x="4.81" y="0">K</tspan><tspan class="cls-51" x="16.67" y="0">E</tspan><tspan x="28.75" y="0">A </tspan><tspan class="cls-52" x="45.76" y="0">E</tspan><tspan class="cls-53" x="57.22" y="0">f</tspan><tspan class="cls-54" x="62.53" y="0">f</tspan><tspan class="cls-29" x="67.18" y="0">e</tspan><tspan class="cls-55" x="77.18" y="0">c</tspan><tspan class="cls-29" x="86.22" y="0">t</tspan></text><text class="cls-56" transform="translate(0.78 237.6)">2<tspan class="cls-29" x="9.88" y="0">.</tspan></text><text class="cls-24" transform="translate(15.66 237.6)"> </text><text class="cls-24" transform="translate(18.78 237.6)"><tspan class="cls-57">N</tspan><tspan class="cls-47" x="12.96" y="0">e</tspan><tspan class="cls-57" x="22.9" y="0">e</tspan><tspan x="32.87" y="0">d </tspan><tspan class="cls-28" x="47.88" y="0">le</tspan><tspan x="61.7" y="0">ss </tspan><tspan class="cls-31" x="84.71" y="0">g</tspan><tspan class="cls-30" x="94.66" y="0">u</tspan><tspan class="cls-58" x="104.54" y="0">i</tspan><tspan class="cls-29" x="108.5" y="0">d</tspan><tspan class="cls-30" x="118.51" y="0">a</tspan><tspan class="cls-29" x="128.39" y="0">nce </tspan><tspan class="cls-27" x="162.41" y="0">w</tspan><tspan class="cls-28" x="175.34" y="0">he</tspan><tspan x="195.17" y="0">n </tspan><tspan class="cls-32" x="210.19" y="0">r</tspan><tspan class="cls-57" x="216.02" y="0">e</tspan><tspan class="cls-33" x="225.99" y="0">p</tspan><tspan class="cls-30" x="235.89" y="0">a</tspan><tspan class="cls-59" x="245.77" y="0">i</tspan><tspan class="cls-60" x="249.53" y="0">r</tspan><tspan class="cls-30" x="255.51" y="0">i</tspan><tspan class="cls-28" x="259.38" y="0">n</tspan><tspan class="cls-61" x="269.3" y="0">g</tspan><tspan x="279.12" y="0">, </tspan></text><text class="cls-24" transform="translate(18.78 259.2)"><tspan class="cls-30">a</tspan><tspan class="cls-31" x="9.88" y="0">n</tspan><tspan x="19.84" y="0">d g</tspan><tspan class="cls-40" x="44.86" y="0">e</tspan><tspan x="54.65" y="0">t </tspan><tspan class="cls-31" x="64.66" y="0">p</tspan><tspan class="cls-28" x="74.61" y="0">l</tspan><tspan class="cls-62" x="78.52" y="0">e</tspan><tspan class="cls-28" x="88.38" y="0">a</tspan><tspan class="cls-45" x="98.3" y="0">s</tspan><tspan class="cls-40" x="107.15" y="0">u</tspan><tspan class="cls-32" x="116.95" y="0">r</tspan><tspan class="cls-29" x="122.78" y="0">e </tspan><tspan class="cls-33" x="137.79" y="0">i</tspan><tspan x="141.68" y="0">f </tspan><tspan class="cls-27" x="151.69" y="0">t</tspan><tspan class="cls-28" x="156.62" y="0">h</tspan><tspan class="cls-63" x="166.54" y="0">e</tspan><tspan x="176.13" y="0">y </tspan><tspan class="cls-32" x="190.13" y="0">f</tspan><tspan class="cls-30" x="194.98" y="0">i</tspan><tspan class="cls-31" x="198.84" y="0">n</tspan><tspan class="cls-29" x="208.8" y="0">d </tspan></text><text class="cls-24" transform="translate(18.78 280.8)"><tspan class="cls-28">s</tspan><tspan class="cls-44" x="8.91" y="0">o</tspan><tspan class="cls-27" x="18.86" y="0">m</tspan><tspan class="cls-40" x="33.79" y="0">e</tspan><tspan class="cls-27" x="43.58" y="0">t</tspan><tspan class="cls-33" x="48.51" y="0">h</tspan><tspan class="cls-48" x="58.41" y="0">i</tspan><tspan class="cls-28" x="62.28" y="0">n</tspan><tspan x="72.2" y="0">g </tspan><tspan class="cls-33" x="87.21" y="0">o</tspan><tspan class="cls-48" x="97.11" y="0">u</tspan><tspan x="106.99" y="0">t </tspan><tspan class="cls-27" x="117" y="0">t</tspan><tspan class="cls-33" x="121.93" y="0">he</tspan><tspan class="cls-31" x="141.73" y="0">m</tspan><tspan class="cls-33" x="156.67" y="0">se</tspan><tspan class="cls-28" x="175.46" y="0">l</tspan><tspan class="cls-64" x="179.37" y="0">v</tspan><tspan class="cls-28" x="187.94" y="0">e</tspan><tspan class="cls-40" x="197.85" y="0">s</tspan><tspan x="206.64" y="0">. </tspan><tspan class="cls-28" x="216.65" y="0">S</tspan><tspan class="cls-27" x="228.56" y="0">e</tspan><tspan class="cls-50" x="238.5" y="0">e</tspan><tspan x="247.81" y="0">: </tspan></text><text class="cls-24" transform="translate(18.78 302.4)"><tspan class="cls-44">A</tspan><tspan class="cls-43" x="11.95" y="0">h</tspan><tspan x="21.85" y="0">a M</tspan><tspan class="cls-44" x="51.86" y="0">om</tspan><tspan class="cls-28" x="76.75" y="0">e</tspan><tspan class="cls-40" x="86.67" y="0">n</tspan><tspan x="96.46" y="0">t</tspan></text><g class="cls-65"><g class="cls-65"><path d="M23.82,56.35V53.49c.08-.13.21-.25.23-.39a10.65,10.65,0,0,1,6.07-8c1.73-.9,2.69-.32,2.7,1.61s0,3.59,0,5.38c0,.75,1.27,2.16,1.88,2.11a3.16,3.16,0,0,0,1.8-2.08c0-1.83,0-3.66,0-5.5s.93-2.4,2.53-1.58a11.89,11.89,0,0,1,4.49,3.79,10.73,10.73,0,0,1-2.87,15c-.36.23-.84.69-.83,1,.08,3,.26,6,.4,9,.26,0,.36,0,.41-.06a18.13,18.13,0,0,1,10.8-4.14,1.47,1.47,0,0,0,1-.46c.72-1,1.34-2,2-3.06a15,15,0,0,1-5.76-12.53c.06-1.43,0-2.87,0-4.3a3.2,3.2,0,0,0-.41-1.42c-.82-1.37-1.23-2.67,0-4,.22-.24.24-.66.37-1,1.49-3.93,3.88-7.08,7.83-8.78a45.22,45.22,0,0,1,4.6-1.4h2.39a4.08,4.08,0,0,1,.88.88c.53,1-.19,2-1.54,2a10.85,10.85,0,0,0-6.65,1.83,11.55,11.55,0,0,0-3.82,4.11,41.68,41.68,0,0,1,21.61,0c-.53-.74-1-1.3-1.35-1.89A1.26,1.26,0,0,1,73,37.71a1.17,1.17,0,0,1,1.78.25c.73,1.08,1.47,2.16,2.1,3.29.5.89.72,2,1.29,2.77a2.56,2.56,0,0,1,.23,3.11,5.37,5.37,0,0,0-.79,3.61,24.53,24.53,0,0,1,0,4.29,23.35,23.35,0,0,1-1.67,6.13c-.93,1.9-2.5,3.48-3.84,5.28.39.62,1,1.43,1.44,2.3a1.69,1.69,0,0,0,1.57,1c7.84.48,15.07,6.29,16,14.78.54,5,1.23,9.93,1.83,14.9.24,1.91-.15,2.33-2.11,2.33H35.55c-.28,0-.56,0-.84,0a1.34,1.34,0,0,1-1.41-1.64c.25-2.57.52-5.14.78-7.72.09-.88.2-1.77.31-2.65a6.61,6.61,0,0,1-5.88-7.56c.52-5.42.69-10.87,1.06-16.31a2.4,2.4,0,0,0-1.12-2.23A16.14,16.14,0,0,1,25.24,60,18.56,18.56,0,0,1,23.82,56.35ZM90,99c0-.45,0-.77-.06-1.08-.54-4.17-1.14-8.34-1.62-12.52a13.71,13.71,0,0,0-4.13-8.84,16.31,16.31,0,0,0-8.56-4.08c-1-.19-1.43,0-1.7,1-.76,2.79-1.61,5.56-2.42,8.34-.41,1.4-1.28,1.74-2.49.93-1.42-1-2.81-2-4.35-3.1,0,3.2,0,6.26,0,9.31,0,1.3-.48,1.93-1.42,1.93s-1.38-.55-1.39-1.94c0-2.47,0-4.94,0-7.41V79.59c-1.44,1.06-2.62,2-3.85,2.83-1.77,1.23-2.48.94-3.14-1.13-.84-2.69-1.75-5.35-2.59-8a1.08,1.08,0,0,0-1.4-.89,19.13,19.13,0,0,0-7.42,2.72c-2.21,1.47-3.49,3.16-2.81,6.1.58,2.54.32,5.24-2,6.9A3.86,3.86,0,0,0,37,91.58c0,.44-.09.87-.14,1.31-.21,2-.42,4-.64,6.08H42c0-.53,0-1,0-1.4,0-1.75,0-3.5,0-5.25,0-.91.38-1.54,1.4-1.55s1.27.68,1.4,1.46a8.17,8.17,0,0,1,0,1.31V99H80.94c0-2.29,0-4.48,0-6.67,0-.89.35-1.46,1.29-1.52s1.46.59,1.5,1.47c.07,1.31,0,2.63,0,3.94V99ZM74.69,50.91a13.76,13.76,0,0,1-3.52-.3A23.53,23.53,0,0,0,56,50.31a7,7,0,0,1-4.46.29c0,1.34,0,2.57,0,3.8A11.21,11.21,0,0,0,56.32,64a11.67,11.67,0,0,0,16.19-2.46C74.93,58.21,74.89,54.5,74.69,50.91ZM39.24,48.53c0,1.57,0,3.06,0,4.55a2,2,0,0,1-1,2,8.5,8.5,0,0,0-1.13.87c-2.4,1.91-2.34,1.84-4.85.08-1.65-1.15-2.57-2.46-2.23-4.55a21.22,21.22,0,0,0,0-3.11,12.43,12.43,0,0,0-1.32,1.11,8,8,0,0,0,2.37,12.61,2.25,2.25,0,0,1,1.32,2.48q-.62,9.36-1.12,18.71a3.25,3.25,0,0,0,3.3,3.59A3.31,3.31,0,0,0,38,83.31c0-1.55-.14-3.1-.23-4.65q-.42-7.34-.86-14.66a1.54,1.54,0,0,1,.93-1.72,8.39,8.39,0,0,0,4.74-6C43.17,53.84,41.72,49.72,39.24,48.53Zm11.12-2.66c.77,1.63,2.5,2.59,3.81,2.14a27.16,27.16,0,0,1,17.54-.13,3.32,3.32,0,0,0,4.13-2C72.06,42,55.44,41.51,50.36,45.87Zm11,30.63-5.23-8.39c-.61,1.41-1.62,2.61-1.43,3.55a75.59,75.59,0,0,0,2.5,7.91Zm7.89,3c.67-2.19,1.12-4.21,1.9-6.1s0-3.44-1.3-5l-4.81,8Zm-6.06-5.3,3.15-5.32H59.94Z" transform="translate(-23.05 -32.69)"/><path d="M69.26,36.66A1.22,1.22,0,0,1,68,35.3,1.17,1.17,0,0,1,69.23,34a1.24,1.24,0,0,1,1.39,1.29C70.64,36.14,70.15,36.59,69.26,36.66Z" transform="translate(-23.05 -32.69)"/><path d="M72.73,89.82h3.33c.91,0,1.55.55,1.44,1.35a2,2,0,0,1-1.28,1.39c-2.33.14-4.67.1-7,0a1.39,1.39,0,0,1,.19-2.78C70.51,89.85,71.62,89.82,72.73,89.82Z" transform="translate(-23.05 -32.69)"/><path d="M60.06,85.74c-.17,1.19-.51,1.75-1.43,1.71s-1.44-.64-1.3-1.35a2,2,0,0,1,1.35-1.28C59.15,84.77,59.7,85.48,60.06,85.74Z" transform="translate(-23.05 -32.69)"/><path d="M63.85,55.24c1.23,0,2.15.3,2.19,1.54,0,.8-.93,1.3-2.32,1.3-.68,0-1.36,0-2,0a1.39,1.39,0,0,1-1.22-2.18,30.47,30.47,0,0,0,1.34-3,1.37,1.37,0,0,1,2-1c.93.35.92,1.17.59,2C64.2,54.27,64.06,54.67,63.85,55.24Z" transform="translate(-23.05 -32.69)"/><path d="M36,82.38a1.25,1.25,0,0,1-1.34,1.37,1.2,1.2,0,0,1-1.29-1.37,1.18,1.18,0,0,1,1.27-1.27A1.2,1.2,0,0,1,36,82.38Z" transform="translate(-23.05 -32.69)"/></g></g><g class="cls-66"><path d="M464.59,32.69h3.83c1.72.43,3.47.74,5.15,1.3a21.53,21.53,0,0,1,14.48,20.55c-.13,7.53,0,15.05,0,22.58a1.56,1.56,0,0,0,.72,1.46,18.73,18.73,0,0,1,7.71,11.21c.24,1.09.7,1.28,1.66,1.24s2.08-.32,2.83.7v6.21a1.72,1.72,0,0,0-.25.35,5.08,5.08,0,0,1-5,3.47c-2.23,0-4.46,0-6.69,0-.94,0-1.64-.37-1.6-1.33S488,99.1,489,99.12c2.11,0,4.23.11,6.33,0,.82-.06,2-.46,2.32-1.06a18.79,18.79,0,0,0,.92-4.21H481.48c-2.55,0-5.1,0-7.64,0-2.72,0-5.86,3.07-5.7,5.29,2.71,0,5.41,0,8.12,0,1,0,1.68.42,1.68,1.39s-.75,1.26-1.68,1.26q-19.59,0-39.19,0A4.83,4.83,0,0,1,432.18,98a29.09,29.09,0,0,1-.29-5.68,1.32,1.32,0,0,1,1.54-1.3c.88,0,1.75,0,2.69,0,.14-.58.24-1.13.39-1.65a19,19,0,0,1,7.07-10.28,2.65,2.65,0,0,0,1.26-2.42c-.06-7.08,0-14.17,0-21.26a21.92,21.92,0,0,1,5.45-15.32,20.93,20.93,0,0,1,12-6.91C463.06,33,463.83,32.85,464.59,32.69ZM485.4,76.45V75.3c0-6.69,0-13.38,0-20.07a19.94,19.94,0,0,0-3.62-11.87,18.83,18.83,0,0,0-34.14,11.32q0,10.45,0,20.91c0,.33,0,.66,0,.8,3.35-.7,6.59-1.44,9.86-2a1.72,1.72,0,0,0,1.56-1.32,7.51,7.51,0,0,1,.35-1.14c.32-.71.09-1.1-.55-1.54-2.95-2-5.1-4.75-5.53-8.25A110,110,0,0,1,453,50.21a1.22,1.22,0,0,1,1.42-1.27c1.11,0,2.23.05,3.35,0a13,13,0,0,0,11.3-7c.39-.69.92-1.44,1.73-1.05a2.47,2.47,0,0,1,1.14,1.7,6.64,6.64,0,0,0,6.41,6.31c1.12.08,1.58.54,1.57,1.62,0,3,0,6,0,9.08a11.14,11.14,0,0,1-2.08,6.48c-1.31,1.79-2.9,3.39-4.51,5.23a16.19,16.19,0,0,1,.66,1.93c.19.81.67,1,1.42,1.1C478.7,75,482,75.73,485.4,76.45Zm-19,19c.11-.13.22-.24.31-.36A9.53,9.53,0,0,1,474.88,91c5.94,0,11.87,0,17.8,0h1.26a16.59,16.59,0,0,0-14.63-13,1.33,1.33,0,0,0-.87.57,14.21,14.21,0,0,1-14.19,6.08,14,14,0,0,1-9.86-6.19,1.07,1.07,0,0,0-.82-.44,24.46,24.46,0,0,0-3.6.74,16.42,16.42,0,0,0-8.83,6.86A14.29,14.29,0,0,0,439,91h1.45c5.69,0,11.38.07,17.08,0A9.93,9.93,0,0,1,466.43,95.5ZM455.69,51.78V59a10.47,10.47,0,0,0,2.71,7.29,10.24,10.24,0,0,0,10.32,3.4,10.54,10.54,0,0,0,7.64-6.83c1.49-3.65.68-7.46.93-11.24a10.11,10.11,0,0,1-7.51-5.77C466,50.17,461.29,51.89,455.69,51.78Zm-21,42.1c0,.62,0,1.1,0,1.57-.28,2.91,1.42,3.73,3.65,3.71,8.4-.07,16.8,0,25.19,0h1.35a7.77,7.77,0,0,0-.11-.8,6.54,6.54,0,0,0-6.32-4.51c-7.6,0-15.21,0-22.81,0C435.33,93.82,435.07,93.85,434.65,93.88ZM457,77.34a11.71,11.71,0,0,0,9.54,4.79,11.42,11.42,0,0,0,9.22-4.58c-1.29-.51-2.82-.69-3.61-1.56s-1-2.51-1.55-4a12,12,0,0,1-8.27,0c-.31,1-.6,1.81-.86,2.67-.4,1.29-1,2.33-2.59,2.3A10.72,10.72,0,0,0,457,77.34Z" transform="translate(-23.05 -32.69)"/><path d="M482.93,102c-1.09-.23-1.59-.59-1.59-1.43s.4-1.43,1.37-1.4a1.11,1.11,0,0,1,1.2,1.4C483.81,101.06,483.27,101.5,482.93,102Z" transform="translate(-23.05 -32.69)"/><path d="M466.44,64.65a5.62,5.62,0,0,1-5.42-5,1.47,1.47,0,0,1,1.2-1.78,1.31,1.31,0,0,1,1.57,1.38,2.72,2.72,0,0,0,2.69,2.62,2.66,2.66,0,0,0,2.64-2.67,1.33,1.33,0,0,1,1.49-1.33,1.39,1.39,0,0,1,1.3,1.69A5.58,5.58,0,0,1,466.44,64.65Z" transform="translate(-23.05 -32.69)"/></g><g class="cls-67"><path d="M831.29,99.37c.82-2.34,1.73-4.66,2.43-7,1-3.43,2.67-6.34,5.79-8.28a12.47,12.47,0,0,1,6.69-1.83c2.59,0,5.18,0,7.77,0h1.35c.28-1.78.58-3.45.79-5.14a1.49,1.49,0,0,0-.42-1,30,30,0,0,1-8-16.06c-1.14-6.85-.05-13.33,4.06-19s10.44-8.48,16.87-7.31c5.72,1,9.86,4.36,12.65,9.38,4.13,7.46,4,15.17,1.09,23A28.08,28.08,0,0,1,876,76.1a1.42,1.42,0,0,0-.31,1c.19,1.66.46,3.3.72,5.08H880c2.23,0,4.46,0,6.69,0,.92,0,1.7.39,1.61,1.48s-.83,1.32-1.78,1.31c-2.07,0-4.14,0-6.23,0,.78,1.34.71,1.63-.43,2.76q-3.6,3.56-7.16,7.16c-1.07,1.09-1.59,1.16-2.68.1-.8-.79-1.51-1.69-2.26-2.53l-.33.25v5.56h17.43c0-1.26,0-2.48,0-3.71,0-.94.38-1.64,1.34-1.6s1.34.7,1.3,1.66c0,1.19,0,2.38,0,3.64h9.67c-.63-1.91-1.25-3.79-1.88-5.67-.07-.22-.19-.43-.27-.66-.52-1.53-.33-2.29.66-2.59s1.6.3,2.06,1.76c.77,2.41,1.61,4.81,2.36,7.23s.28,2.82-2.07,2.82H851.14c-5.85,0-11.71,0-17.56,0a2.55,2.55,0,0,1-2.29-.91ZM880.81,49c-.1-.42-.14-.69-.23-.94-1.58-4.24-3.93-7.85-8-10.1a13.16,13.16,0,0,0-10.94-1c-5.92,2-9.35,6.55-10.71,12.41-2.26,9.72.4,18.22,7.31,25.35a10.81,10.81,0,0,0,7,3.5c4,.29,7-1.85,9.48-4.62a27.4,27.4,0,0,0,6.81-15.18,17.54,17.54,0,0,0-.16-6.57h-2.06a4.51,4.51,0,0,1-4.42-3,15,15,0,0,0-1.23-2.55,9.58,9.58,0,0,0-7.12-4.64c-1.14-.14-2,.36-2,1.22,0,1.11.8,1.32,1.71,1.39,3.61.28,6.5,3.46,6.12,6.87a43.57,43.57,0,0,1-1,4.63l2.9-.6c.15,0,.27-.17.41-.24a1.26,1.26,0,0,1,1.82.58,1.81,1.81,0,0,1-.41,1.63c-2,1.59-4.3,1.58-6.66.87-.51-.15-1.15-.44-1.57-.27-2.61,1.05-5.33.85-8,.75a6.79,6.79,0,0,1-6.45-5.5,4.79,4.79,0,0,1,6.18-5.82c1.71.48,2.66,1.86,3.73,3.17a32.52,32.52,0,0,0,4,3.82,1.5,1.5,0,0,0,1.41-.21c1.55-1.55,1.27-5-.59-6.12a10.56,10.56,0,0,0-3.12-.92,4,4,0,0,1-3-3.28,3.91,3.91,0,0,1,2-4.19c2.38-1.31,4.6-.35,6.71.61a13.23,13.23,0,0,1,6.87,7.84,1.53,1.53,0,0,0,1.7,1.15C879.69,48.93,880.17,49,880.81,49Zm-33.75,49.4h17.37V92.67A13.46,13.46,0,0,0,862,94.84c-1.27,1.33-1.84,1.28-3.13,0q-3.4-3.49-6.9-6.91c-.86-.84-1.54-1.63-.38-2.84-2.2,0-4.23-.07-6.25,0a8.45,8.45,0,0,0-6.92,3.62,20,20,0,0,0-2,4.26c-.67,1.76-1.2,3.57-1.8,5.38h9.58c0-1.2,0-2.31,0-3.42s.36-1.74,1.4-1.89c.75-.11,1.4.8,1.41,1.85S847.06,97.16,847.06,98.35Zm26.06-19.81c-4.86,3.16-9.58,3.13-14.37.07-.25,1.29-.53,2.41-.65,3.54a1.37,1.37,0,0,0,.54,1.1c2.23,1.36,4.5,2.65,6.78,3.93a1.14,1.14,0,0,0,.94,0q3.42-1.91,6.8-3.9a1.17,1.17,0,0,0,.53-.87C873.57,81.17,873.34,80,873.12,78.54Zm-9-22.82c-1.42-1.8-2.7-3.44-4-5.06a2.62,2.62,0,0,0-3.11-.77c-1,.45-1.26,1.29-.92,2.64a3.46,3.46,0,0,0,2.83,2.87C860.6,55.65,862.34,55.62,864.1,55.72Zm-.42,33.63-2.81-1.64c-.92-.53-1.88-1-2.78-1.58-1.63-1-2.06-1-3.32.48l5.73,5.8Zm13.44-2.72c-1.42-1.41-1.8-1.48-3.1-.72s-2.48,1.42-3.71,2.13c-.69.41-1.37.84-2,1.21l3,3.14Z" transform="translate(-23.05 -32.69)"/><path d="M891.09,86.29c.17-1.13.42-1.73,1.35-1.76a1.22,1.22,0,0,1,1.38,1.28,1.17,1.17,0,0,1-1.26,1.38C892,87.13,891.5,86.56,891.09,86.29Z" transform="translate(-23.05 -32.69)"/><path d="M865.94,68.74c1.62.68,3.15,1.26,4.63,2a1.17,1.17,0,0,1,.58,1.79,1.31,1.31,0,0,1-1.94.51,5.54,5.54,0,0,0-4.74-.88,18.65,18.65,0,0,0-1.81.86c-.81.37-1.53.37-2-.54a1.22,1.22,0,0,1,.72-1.84C862.82,69.94,864.33,69.39,865.94,68.74Z" transform="translate(-23.05 -32.69)"/></g><text class="cls-24" transform="translate(17.78 375.16)"><tspan class="cls-57">M</tspan><tspan class="cls-28" x="14.96" y="0">i</tspan><tspan class="cls-68" x="18.86" y="0">g</tspan><tspan class="cls-40" x="28.85" y="0">h</tspan><tspan x="38.65" y="0">t </tspan><tspan class="cls-44" x="48.65" y="0">b</tspan><tspan class="cls-29" x="58.61" y="0">e </tspan><tspan class="cls-30" x="73.62" y="0">a</tspan><tspan class="cls-28" x="83.5" y="0">n</tspan><tspan class="cls-27" x="93.42" y="0">n</tspan><tspan class="cls-69" x="103.36" y="0">o</tspan><tspan class="cls-70" x="112.99" y="0">y</tspan><tspan class="cls-68" x="121.54" y="0">e</tspan><tspan class="cls-35" x="131.53" y="0">d</tspan><tspan x="141.34" y="0">, </tspan><tspan class="cls-33" x="151.34" y="0">b</tspan><tspan class="cls-30" x="161.24" y="0">u</tspan><tspan x="171.13" y="0">t </tspan><tspan class="cls-62" x="181.13" y="0">li</tspan><tspan class="cls-64" x="188.84" y="0">k</tspan><tspan class="cls-28" x="197.4" y="0">e</tspan><tspan class="cls-43" x="207.32" y="0">l</tspan><tspan x="211.21" y="0">y </tspan><tspan class="cls-42" x="225.21" y="0">t</tspan><tspan x="229.97" y="0">o </tspan><tspan class="cls-27" x="244.98" y="0">b</tspan><tspan class="cls-29" x="254.91" y="0">e </tspan></text><text class="cls-24" transform="translate(17.78 396.76)"><tspan class="cls-28">l</tspan><tspan class="cls-45" x="3.91" y="0">e</tspan><tspan class="cls-28" x="13.77" y="0">a</tspan><tspan class="cls-30" x="23.69" y="0">s</tspan><tspan class="cls-29" x="32.56" y="0">t </tspan><tspan class="cls-30" x="42.57" y="0">s</tspan><tspan class="cls-71" x="51.44" y="0">t</tspan><tspan class="cls-72" x="56.27" y="0">r</tspan><tspan class="cls-28" x="62.1" y="0">e</tspan><tspan x="72.02" y="0">s</tspan><tspan class="cls-33" x="81.02" y="0">s</tspan><tspan class="cls-68" x="89.91" y="0">e</tspan><tspan class="cls-29" x="99.9" y="0">d </tspan><tspan class="cls-28" x="114.91" y="0">a</tspan><tspan x="124.83" y="0" xml:space="preserve">s  </tspan><tspan class="cls-27" x="143.84" y="0">t</tspan><tspan class="cls-28" x="148.77" y="0">h</tspan><tspan class="cls-35" x="158.69" y="0">e</tspan><tspan class="cls-72" x="168.5" y="0">r</tspan><tspan x="174.33" y="0">e </tspan><tspan class="cls-27" x="189.34" y="0">i</tspan><tspan x="193.27" y="0">s </tspan><tspan class="cls-31" x="207.27" y="0">m</tspan><tspan class="cls-72" x="222.21" y="0">or</tspan><tspan class="cls-29" x="237.89" y="0">e </tspan></text><text class="cls-24" transform="translate(17.78 418.36)"><tspan class="cls-73">c</tspan><tspan class="cls-33" x="9.04" y="0">h</tspan><tspan class="cls-45" x="18.94" y="0">a</tspan><tspan class="cls-29" x="28.8" y="0">nce </tspan><tspan class="cls-27" x="62.82" y="0">t</tspan><tspan class="cls-28" x="67.75" y="0">h</tspan><tspan class="cls-63" x="77.67" y="0">e</tspan><tspan x="87.26" y="0">y </tspan><tspan class="cls-73" x="101.27" y="0">c</tspan><tspan class="cls-30" x="110.3" y="0">a</tspan><tspan x="120.19" y="0">n </tspan><tspan class="cls-72" x="135.2" y="0">f</tspan><tspan class="cls-33" x="140.04" y="0">i</tspan><tspan x="143.93" y="0">x </tspan><tspan class="cls-33" x="157.93" y="0">i</tspan><tspan x="161.82" y="0">t </tspan><tspan class="cls-47" x="171.83" y="0">t</tspan><tspan class="cls-28" x="176.76" y="0">he</tspan><tspan class="cls-31" x="196.6" y="0">m</tspan><tspan class="cls-33" x="211.54" y="0">s</tspan><tspan class="cls-28" x="220.43" y="0">el</tspan><tspan class="cls-64" x="234.25" y="0">v</tspan><tspan class="cls-28" x="242.82" y="0">e</tspan><tspan class="cls-40" x="252.74" y="0">s</tspan><tspan x="261.52" y="0">.</tspan></text><text class="cls-24" transform="translate(0.77 144.73)"><tspan class="cls-44">W</tspan><tspan class="cls-27" x="16.94" y="0">h</tspan><tspan class="cls-29" x="26.87" y="0">o </tspan><tspan class="cls-59" x="41.89" y="0">a</tspan><tspan class="cls-72" x="51.66" y="0">r</tspan><tspan x="57.49" y="0">e </tspan><tspan class="cls-31" x="72.5" y="0">t</tspan><tspan class="cls-28" x="77.45" y="0">h</tspan><tspan class="cls-74" x="87.37" y="0">e</tspan><tspan class="cls-75" x="96.97" y="0">y</tspan><tspan x="105.7" y="0">:</tspan></text><text class="cls-24" transform="translate(0 344.91)"><tspan class="cls-27">W</tspan><tspan class="cls-28" x="16.92" y="0">he</tspan><tspan x="36.76" y="0">n </tspan><tspan class="cls-62" x="51.77" y="0">a</tspan><tspan x="61.63" y="0">n </tspan><tspan class="cls-27" x="76.64" y="0">a</tspan><tspan class="cls-29" x="86.58" y="0">p</tspan><tspan class="cls-44" x="96.59" y="0">p</tspan><tspan class="cls-62" x="106.54" y="0">l</tspan><tspan class="cls-33" x="110.39" y="0">i</tspan><tspan class="cls-30" x="114.28" y="0">a</tspan><tspan class="cls-29" x="124.16" y="0">nce </tspan><tspan class="cls-72" x="158.18" y="0">br</tspan><tspan class="cls-62" x="173.86" y="0">e</tspan><tspan class="cls-32" x="183.73" y="0">a</tspan><tspan class="cls-61" x="193.57" y="0">k</tspan><tspan class="cls-76" x="202.39" y="0">s</tspan><tspan x="210.87" y="0">:</tspan></text><text class="cls-24" transform="translate(405.7 172.79)"><tspan class="cls-77">1</tspan><tspan x="8.73" y="0">.</tspan></text><text class="cls-24" transform="translate(419.44 172.79)"> </text><text class="cls-24" transform="translate(423.7 172.79)">M<tspan class="cls-52" x="14.99" y="0">a</tspan><tspan x="24.46" y="0">y </tspan><tspan class="cls-30" x="38.47" y="0">h</tspan><tspan class="cls-20" x="48.35" y="0">a</tspan><tspan class="cls-78" x="57.85" y="0">v</tspan><tspan x="66.42" y="0">e d</tspan><tspan class="cls-31" x="91.44" y="0">o</tspan><tspan class="cls-28" x="101.39" y="0">n</tspan><tspan class="cls-79" x="111.31" y="0">e </tspan><tspan class="cls-80" x="126.32" y="0">o</tspan><tspan class="cls-81" x="136.28" y="0">n</tspan><tspan x="146.2" y="0">e </tspan><tspan class="cls-32" x="161.21" y="0">o</tspan><tspan x="171.05" y="0">r </tspan><tspan class="cls-82" x="182.05" y="0">t</tspan><tspan class="cls-42" x="187.31" y="0">w</tspan><tspan x="200.05" y="0">o </tspan><tspan class="cls-32" x="215.06" y="0">r</tspan><tspan class="cls-58" x="220.9" y="0">e</tspan><tspan class="cls-43" x="230.87" y="0">p</tspan><tspan class="cls-30" x="240.77" y="0">a</tspan><tspan class="cls-83" x="250.65" y="0">i</tspan><tspan class="cls-84" x="254.41" y="0">r</tspan><tspan x="260.46" y="0">s </tspan></text><text class="cls-85" transform="translate(423.7 194.39)">b<tspan class="cls-40" x="9.95" y="0">e</tspan><tspan class="cls-86" x="19.75" y="0">f</tspan><tspan class="cls-87" x="24.44" y="0">o</tspan><tspan class="cls-32" x="34.31" y="0">r</tspan><tspan class="cls-74" x="40.14" y="0">e</tspan><tspan class="cls-79" x="49.73" y="0">.</tspan></text><text class="cls-24" transform="translate(405.7 215.99)"><tspan class="cls-30">2</tspan><tspan x="9.88" y="0">.</tspan></text><text class="cls-24" transform="translate(420.59 215.99)"> </text><text class="cls-24" transform="translate(423.7 215.99)"><tspan class="cls-40">I</tspan><tspan class="cls-88" x="4.79" y="0">n</tspan><tspan class="cls-42" x="14.6" y="0">f</tspan><tspan class="cls-32" x="19.35" y="0">r</tspan><tspan class="cls-60" x="25.18" y="0">e</tspan><tspan class="cls-28" x="35.17" y="0">que</tspan><tspan class="cls-40" x="64.93" y="0">n</tspan><tspan class="cls-31" x="74.72" y="0">t</tspan><tspan class="cls-89" x="79.67" y="0">l</tspan><tspan x="83.56" y="0">y </tspan><tspan class="cls-80" x="97.56" y="0">m</tspan><tspan class="cls-14" x="112.5" y="0">a</tspan><tspan x="121.99" y="0">y </tspan><tspan class="cls-73" x="135.99" y="0">c</tspan><tspan class="cls-47" x="145.03" y="0">h</tspan><tspan class="cls-60" x="154.96" y="0">o</tspan><tspan class="cls-28" x="164.95" y="0">o</tspan><tspan class="cls-43" x="174.87" y="0">s</tspan><tspan x="183.76" y="0">e </tspan><tspan class="cls-42" x="198.77" y="0">t</tspan><tspan x="203.53" y="0">o </tspan></text><text class="cls-24" transform="translate(423.7 237.59)">do a <tspan class="cls-88" x="40.03" y="0">D</tspan><tspan class="cls-90" x="52.83" y="0">I</tspan><tspan x="57.55" y="0">Y </tspan><tspan class="cls-32" x="74.56" y="0">p</tspan><tspan class="cls-89" x="84.4" y="0">r</tspan><tspan class="cls-30" x="90.29" y="0">o</tspan><tspan class="cls-43" x="100.17" y="0">j</tspan><tspan x="104.06" y="0">e</tspan><tspan class="cls-73" x="114.07" y="0">c</tspan><tspan class="cls-28" x="123.1" y="0">t</tspan><tspan x="128.02" y="0">, </tspan><tspan class="cls-89" x="138.02" y="0">b</tspan><tspan class="cls-30" x="147.92" y="0">u</tspan><tspan class="cls-79" x="157.8" y="0">t </tspan><tspan class="cls-89" x="167.81" y="0">i</tspan><tspan x="171.7" y="0">t </tspan><tspan class="cls-91" x="181.71" y="0">w</tspan><tspan class="cls-62" x="194.61" y="0">il</tspan><tspan class="cls-92" x="202.32" y="0" xml:space="preserve">l  </tspan><tspan class="cls-31" x="216.32" y="0">b</tspan><tspan class="cls-79" x="226.28" y="0">e </tspan></text><text class="cls-24" transform="translate(423.7 259.19)"><tspan class="cls-47">m</tspan><tspan class="cls-40" x="14.92" y="0">e</tspan><tspan class="cls-31" x="24.71" y="0">t</tspan><tspan class="cls-92" x="29.66" y="0">ic</tspan><tspan class="cls-93" x="42.66" y="0">u</tspan><tspan class="cls-80" x="52.54" y="0">l</tspan><tspan class="cls-43" x="56.48" y="0">o</tspan><tspan class="cls-47" x="66.38" y="0">u</tspan><tspan class="cls-28" x="76.32" y="0">s</tspan><tspan class="cls-89" x="85.23" y="0">l</tspan><tspan x="89.12" y="0">y </tspan><tspan class="cls-31" x="103.12" y="0">p</tspan><tspan class="cls-89" x="113.08" y="0">l</tspan><tspan class="cls-62" x="116.96" y="0">a</tspan><tspan class="cls-28" x="126.83" y="0">nn</tspan><tspan class="cls-94" x="146.66" y="0">e</tspan><tspan class="cls-79" x="156.65" y="0">d </tspan><tspan class="cls-30" x="171.67" y="0">a</tspan><tspan class="cls-31" x="181.55" y="0">n</tspan><tspan x="191.5" y="0">d </tspan><tspan class="cls-95" x="206.51" y="0">b</tspan><tspan x="216.16" y="0">y </tspan><tspan class="cls-47" x="230.17" y="0">t</tspan><tspan class="cls-28" x="235.1" y="0">h</tspan><tspan x="245.01" y="0">e </tspan></text><text class="cls-24" transform="translate(423.7 280.79)"><tspan class="cls-60">bo</tspan><tspan class="cls-47" x="19.98" y="0">o</tspan><tspan x="29.92" y="0">k.</tspan></text><text class="cls-24" transform="translate(422.71 375.16)"><tspan class="cls-40">I</tspan><tspan class="cls-47" x="4.79" y="0">mm</tspan><tspan class="cls-58" x="34.63" y="0">ed</tspan><tspan class="cls-89" x="54.58" y="0">i</tspan><tspan class="cls-96" x="58.46" y="0">a</tspan><tspan class="cls-90" x="68.15" y="0">t</tspan><tspan class="cls-28" x="72.86" y="0">e</tspan><tspan class="cls-89" x="82.78" y="0">l</tspan><tspan x="86.67" y="0">y </tspan><tspan class="cls-95" x="100.67" y="0">f</tspan><tspan class="cls-47" x="105.32" y="0">e</tspan><tspan class="cls-28" x="115.25" y="0">e</tspan><tspan x="125.17" y="0">l </tspan><tspan class="cls-30" x="134.17" y="0">s</tspan><tspan class="cls-61" x="143.04" y="0">t</tspan><tspan class="cls-32" x="147.87" y="0">r</tspan><tspan class="cls-28" x="153.7" y="0">e</tspan><tspan x="163.62" y="0">s</tspan><tspan class="cls-89" x="172.62" y="0">s</tspan><tspan class="cls-60" x="181.51" y="0">e</tspan><tspan class="cls-88" x="191.5" y="0">d</tspan><tspan x="201.31" y="0">. </tspan><tspan class="cls-47" x="211.32" y="0">T</tspan><tspan class="cls-28" x="222.24" y="0">h</tspan><tspan class="cls-97" x="232.16" y="0">e</tspan><tspan x="241.76" y="0">y </tspan><tspan class="cls-19" x="255.76" y="0">f</tspan><tspan class="cls-62" x="260.4" y="0">e</tspan><tspan class="cls-42" x="270.27" y="0">a</tspan><tspan x="280.02" y="0">r </tspan></text><text class="cls-24" transform="translate(422.71 396.76)"><tspan class="cls-83">f</tspan><tspan class="cls-93" x="4.77" y="0">a</tspan><tspan class="cls-87" x="14.65" y="0">i</tspan><tspan class="cls-32" x="18.5" y="0">l</tspan><tspan class="cls-40" x="22.34" y="0">u</tspan><tspan class="cls-98" x="32.13" y="0">r</tspan><tspan class="cls-79" x="37.96" y="0">e </tspan><tspan class="cls-87" x="52.97" y="0">a</tspan><tspan class="cls-31" x="62.84" y="0">n</tspan><tspan x="72.79" y="0">d </tspan><tspan class="cls-28" x="87.8" y="0">n</tspan><tspan class="cls-47" x="97.72" y="0">e</tspan><tspan class="cls-60" x="107.66" y="0">e</tspan><tspan x="117.65" y="0">d </tspan><tspan class="cls-42" x="132.66" y="0">t</tspan><tspan x="137.41" y="0">o </tspan><tspan class="cls-95" x="152.42" y="0">f</tspan><tspan class="cls-47" x="157.07" y="0">e</tspan><tspan class="cls-28" x="167" y="0">e</tspan><tspan x="176.92" y="0">l </tspan><tspan class="cls-30" x="185.92" y="0">i</tspan><tspan x="189.79" y="0">n </tspan><tspan class="cls-99" x="204.8" y="0">c</tspan><tspan class="cls-31" x="213.82" y="0">o</tspan><tspan class="cls-40" x="223.77" y="0">n</tspan><tspan class="cls-61" x="233.57" y="0">t</tspan><tspan class="cls-89" x="238.39" y="0">r</tspan><tspan class="cls-31" x="244.28" y="0">o</tspan><tspan x="254.23" y="0">l </tspan></text><text class="cls-24" transform="translate(422.71 418.36)"><tspan class="cls-62">a</tspan><tspan class="cls-31" x="9.86" y="0">n</tspan><tspan x="19.82" y="0">d </tspan><tspan class="cls-32" x="34.83" y="0">r</tspan><tspan class="cls-87" x="40.66" y="0">e</tspan><tspan class="cls-28" x="50.53" y="0">a</tspan><tspan x="60.44" y="0">s</tspan><tspan class="cls-62" x="69.44" y="0">s</tspan><tspan class="cls-40" x="78.3" y="0">u</tspan><tspan class="cls-32" x="88.09" y="0">r</tspan><tspan class="cls-58" x="93.92" y="0">e</tspan><tspan x="103.9" y="0">d </tspan><tspan class="cls-93" x="118.91" y="0">a</tspan><tspan class="cls-80" x="128.79" y="0">lo</tspan><tspan class="cls-28" x="142.69" y="0">n</tspan><tspan x="152.6" y="0">g </tspan><tspan class="cls-100" x="167.62" y="0">t</tspan><tspan class="cls-28" x="172.55" y="0">h</tspan><tspan x="182.47" y="0">e </tspan><tspan class="cls-32" x="197.48" y="0">p</tspan><tspan class="cls-89" x="207.32" y="0">r</tspan><tspan class="cls-101" x="213.21" y="0">o</tspan><tspan x="223.27" y="0">c</tspan><tspan class="cls-28" x="232.27" y="0">e</tspan><tspan x="242.19" y="0">s</tspan><tspan class="cls-40" x="251.19" y="0">s</tspan><tspan x="259.97" y="0">.</tspan></text><text class="cls-24" transform="translate(405.7 144.73)"><tspan class="cls-31">W</tspan><tspan class="cls-47" x="16.94" y="0">h</tspan><tspan x="26.87" y="0">o </tspan><tspan class="cls-102" x="41.89" y="0">a</tspan><tspan class="cls-32" x="51.66" y="0">r</tspan><tspan x="57.49" y="0">e </tspan><tspan class="cls-31" x="72.5" y="0">t</tspan><tspan class="cls-28" x="77.45" y="0">h</tspan><tspan class="cls-74" x="87.37" y="0">e</tspan><tspan class="cls-75" x="96.97" y="0">y</tspan><tspan x="105.7" y="0">:</tspan></text><text class="cls-24" transform="translate(404.93 344.91)"><tspan class="cls-47">W</tspan><tspan class="cls-28" x="16.92" y="0">he</tspan><tspan x="36.76" y="0">n </tspan><tspan class="cls-62" x="51.77" y="0">a</tspan><tspan x="61.63" y="0">n </tspan><tspan class="cls-100" x="76.64" y="0">a</tspan><tspan x="86.58" y="0">p</tspan><tspan class="cls-31" x="96.59" y="0">p</tspan><tspan class="cls-87" x="106.54" y="0">l</tspan><tspan class="cls-89" x="110.39" y="0">i</tspan><tspan class="cls-30" x="114.28" y="0">a</tspan><tspan x="124.16" y="0">nce </tspan><tspan class="cls-32" x="158.18" y="0">br</tspan><tspan class="cls-87" x="173.86" y="0">ea</tspan><tspan class="cls-61" x="193.59" y="0">k</tspan><tspan class="cls-103" x="202.41" y="0">s</tspan><tspan x="210.89" y="0">:</tspan></text><text class="cls-24" transform="translate(808.09 172.79)"><tspan class="cls-104">1</tspan><tspan x="8.73" y="0">.</tspan></text><text class="cls-24" transform="translate(821.83 172.79)"> </text><text class="cls-24" transform="translate(826.09 172.79)"><tspan class="cls-87">U</tspan><tspan class="cls-30" x="12.85" y="0">n</tspan><tspan class="cls-62" x="22.73" y="0">li</tspan><tspan class="cls-49" x="30.44" y="0">k</tspan><tspan class="cls-28" x="38.99" y="0">e</tspan><tspan class="cls-89" x="48.91" y="0">l</tspan><tspan x="52.79" y="0">y </tspan><tspan class="cls-42" x="66.8" y="0">t</tspan><tspan x="71.55" y="0">o </tspan><tspan class="cls-43" x="86.56" y="0">h</tspan><tspan class="cls-20" x="96.46" y="0">a</tspan><tspan class="cls-49" x="105.96" y="0">v</tspan><tspan x="114.51" y="0">e </tspan><tspan class="cls-105" x="129.53" y="0">c</tspan><tspan class="cls-106" x="138.56" y="0">a</tspan><tspan class="cls-89" x="148.32" y="0">r</tspan><tspan class="cls-94" x="154.21" y="0">r</tspan><tspan class="cls-91" x="160.18" y="0">i</tspan><tspan class="cls-60" x="164.09" y="0">e</tspan><tspan x="174.08" y="0">d </tspan><tspan class="cls-43" x="189.09" y="0">o</tspan><tspan class="cls-30" x="198.99" y="0">u</tspan><tspan x="208.87" y="0">t </tspan><tspan class="cls-32" x="218.88" y="0">r</tspan><tspan class="cls-107" x="224.71" y="0">e</tspan><tspan class="cls-89" x="234.68" y="0">p</tspan><tspan class="cls-30" x="244.58" y="0">a</tspan><tspan class="cls-83" x="254.46" y="0">i</tspan><tspan class="cls-84" x="258.23" y="0">r</tspan><tspan x="264.27" y="0">s </tspan></text><text class="cls-24" transform="translate(826.09 194.39)"><tspan class="cls-47">t</tspan><tspan class="cls-43" x="4.93" y="0">h</tspan><tspan class="cls-28" x="14.83" y="0">e</tspan><tspan class="cls-80" x="24.75" y="0">m</tspan><tspan class="cls-43" x="39.69" y="0">s</tspan><tspan class="cls-28" x="48.58" y="0">el</tspan><tspan class="cls-108" x="62.41" y="0">v</tspan><tspan class="cls-28" x="70.96" y="0">e</tspan><tspan x="80.87" y="0">s </tspan><tspan class="cls-47" x="94.88" y="0">b</tspan><tspan class="cls-40" x="104.81" y="0">e</tspan><tspan class="cls-86" x="114.61" y="0">f</tspan><tspan class="cls-32" x="119.3" y="0">or</tspan><tspan x="134.98" y="0">e </tspan><tspan class="cls-62" x="149.99" y="0">a</tspan><tspan class="cls-31" x="159.86" y="0">n</tspan><tspan x="169.81" y="0">d </tspan><tspan class="cls-47" x="184.82" y="0">r</tspan><tspan class="cls-42" x="190.75" y="0">a</tspan><tspan class="cls-32" x="200.5" y="0">r</tspan><tspan class="cls-28" x="206.33" y="0">e</tspan><tspan class="cls-89" x="216.25" y="0">l</tspan><tspan x="220.14" y="0">y </tspan></text><text class="cls-24" transform="translate(826.09 215.99)">do <tspan class="cls-93" x="25.02" y="0">a</tspan><tspan class="cls-74" x="34.9" y="0">n</tspan><tspan x="44.5" y="0">y </tspan><tspan class="cls-88" x="58.5" y="0">D</tspan><tspan class="cls-90" x="71.3" y="0">I</tspan><tspan class="cls-109" x="76.01" y="0">Y</tspan><tspan x="85.99" y="0">, </tspan><tspan class="cls-43" x="95.99" y="0">un</tspan><tspan class="cls-91" x="115.79" y="0">le</tspan><tspan x="129.62" y="0">ss </tspan><tspan class="cls-86" x="152.62" y="0">f</tspan><tspan class="cls-32" x="157.32" y="0">o</tspan><tspan class="cls-47" x="167.17" y="0">r</tspan><tspan x="173.09" y="0">c</tspan><tspan class="cls-60" x="182.09" y="0">e</tspan><tspan x="192.08" y="0">d </tspan><tspan class="cls-42" x="207.09" y="0">t</tspan><tspan class="cls-20" x="211.84" y="0">o</tspan><tspan x="221.34" y="0" xml:space="preserve">,  </tspan></text><text class="cls-24" transform="translate(826.09 237.59)"><tspan class="cls-99">c</tspan><tspan class="cls-31" x="9.02" y="0">o</tspan><tspan class="cls-28" x="18.97" y="0">ns</tspan><tspan class="cls-58" x="37.8" y="0">i</tspan><tspan x="41.76" y="0">d</tspan><tspan class="cls-110" x="51.77" y="0">e</tspan><tspan class="cls-94" x="61.58" y="0">r</tspan><tspan class="cls-111" x="67.55" y="0">i</tspan><tspan class="cls-28" x="71.42" y="0">n</tspan><tspan class="cls-79" x="81.34" y="0">g </tspan><tspan class="cls-89" x="96.35" y="0">i</tspan><tspan x="100.24" y="0">t a </tspan><tspan class="cls-60" x="125.26" y="0">t</tspan><tspan class="cls-28" x="130.25" y="0">a</tspan><tspan class="cls-47" x="140.17" y="0">s</tspan><tspan x="149.09" y="0">k.</tspan></text><text class="cls-24" transform="translate(808.09 259.19)"><tspan class="cls-43">2</tspan><tspan x="9.9" y="0">.</tspan></text><text class="cls-24" transform="translate(822.98 259.19)"> </text><text class="cls-24" transform="translate(826.09 259.19)"><tspan class="cls-47">T</tspan><tspan class="cls-28" x="10.93" y="0">h</tspan><tspan class="cls-74" x="20.84" y="0">e</tspan><tspan x="30.44" y="0">y </tspan><tspan class="cls-28" x="44.44" y="0">w</tspan><tspan class="cls-87" x="57.35" y="0">il</tspan><tspan x="65.05" y="0">l </tspan><tspan class="cls-31" x="74.05" y="0">o</tspan><tspan class="cls-89" x="84" y="0">nl</tspan><tspan x="97.79" y="0">y </tspan><tspan class="cls-105" x="111.8" y="0">c</tspan><tspan class="cls-100" x="120.83" y="0">h</tspan><tspan class="cls-60" x="130.77" y="0">o</tspan><tspan class="cls-28" x="140.76" y="0">o</tspan><tspan class="cls-89" x="150.68" y="0">s</tspan><tspan x="159.57" y="0">e </tspan><tspan class="cls-42" x="174.58" y="0">t</tspan><tspan class="cls-79" x="179.33" y="0">o </tspan><tspan class="cls-32" x="194.34" y="0">r</tspan><tspan class="cls-58" x="200.18" y="0">e</tspan><tspan class="cls-89" x="210.15" y="0">p</tspan><tspan class="cls-93" x="220.05" y="0">a</tspan><tspan class="cls-83" x="229.93" y="0">i</tspan><tspan class="cls-92" x="233.69" y="0">r </tspan><tspan class="cls-42" x="244.69" y="0">t</tspan><tspan class="cls-79" x="249.44" y="0">o </tspan></text><text class="cls-24" transform="translate(826.09 280.79)"><tspan class="cls-58">s</tspan><tspan class="cls-20" x="8.96" y="0">a</tspan><tspan class="cls-49" x="18.47" y="0">v</tspan><tspan class="cls-79" x="27.02" y="0">e </tspan><tspan class="cls-31" x="42.03" y="0">t</tspan><tspan class="cls-111" x="46.98" y="0">i</tspan><tspan class="cls-31" x="50.85" y="0">m</tspan><tspan x="65.79" y="0">e</tspan></text><text class="cls-24" transform="translate(825.1 375.16)">M<tspan class="cls-28" x="14.99" y="0">o</tspan><tspan class="cls-89" x="24.91" y="0">s</tspan><tspan x="33.8" y="0">t </tspan><tspan class="cls-43" x="43.81" y="0">s</tspan><tspan class="cls-61" x="52.7" y="0">t</tspan><tspan class="cls-98" x="57.53" y="0">r</tspan><tspan class="cls-28" x="63.36" y="0">e</tspan><tspan x="73.28" y="0">s</tspan><tspan class="cls-43" x="82.28" y="0">s</tspan><tspan class="cls-58" x="91.17" y="0">e</tspan><tspan class="cls-110" x="101.14" y="0">d</tspan><tspan x="110.95" y="0">, </tspan><tspan class="cls-74" x="120.96" y="0">e</tspan><tspan class="cls-78" x="130.55" y="0">v</tspan><tspan class="cls-28" x="139.12" y="0">e</tspan><tspan x="149.04" y="0">n </tspan><tspan class="cls-30" x="164.05" y="0">pa</tspan><tspan class="cls-43" x="183.82" y="0">n</tspan><tspan class="cls-92" x="193.72" y="0">i</tspan><tspan class="cls-112" x="197.71" y="0">c</tspan><tspan class="cls-78" x="206.73" y="0">k</tspan><tspan class="cls-94" x="215.3" y="0">e</tspan><tspan x="225.29" y="0">d </tspan><tspan class="cls-47" x="240.3" y="0">a</tspan><tspan class="cls-60" x="250.24" y="0">b</tspan><tspan class="cls-89" x="260.23" y="0">o</tspan><tspan class="cls-93" x="270.13" y="0">u</tspan><tspan x="280.01" y="0">t </tspan></text><text class="cls-24" transform="translate(825.1 396.76)"><tspan class="cls-47">w</tspan><tspan class="cls-89" x="12.92" y="0">h</tspan><tspan class="cls-113" x="22.82" y="0">a</tspan><tspan x="32.51" y="0">t </tspan><tspan class="cls-42" x="42.52" y="0">t</tspan><tspan x="47.27" y="0">o do</tspan></text><text class="cls-24" transform="translate(808.09 144.73)"><tspan class="cls-80">W</tspan><tspan class="cls-100" x="16.94" y="0">h</tspan><tspan x="26.87" y="0">o </tspan><tspan class="cls-42" x="41.89" y="0">a</tspan><tspan class="cls-32" x="51.64" y="0">r</tspan><tspan x="57.47" y="0">e </tspan><tspan class="cls-31" x="72.49" y="0">t</tspan><tspan class="cls-28" x="77.44" y="0">h</tspan><tspan class="cls-74" x="87.35" y="0">e</tspan><tspan class="cls-75" x="96.95" y="0">y</tspan><tspan x="105.68" y="0">:</tspan></text><text class="cls-24" transform="translate(807.32 344.91)"><tspan class="cls-47">W</tspan><tspan class="cls-28" x="16.92" y="0">he</tspan><tspan x="36.76" y="0">n </tspan><tspan class="cls-30" x="51.77" y="0">a</tspan><tspan x="61.65" y="0">n </tspan><tspan class="cls-47" x="76.66" y="0">a</tspan><tspan x="86.6" y="0">p</tspan><tspan class="cls-31" x="96.61" y="0">p</tspan><tspan class="cls-87" x="106.56" y="0">l</tspan><tspan class="cls-89" x="110.41" y="0">i</tspan><tspan class="cls-30" x="114.3" y="0">a</tspan><tspan class="cls-79" x="124.18" y="0">nce </tspan><tspan class="cls-32" x="158.2" y="0">br</tspan><tspan class="cls-62" x="173.88" y="0">ea</tspan><tspan class="cls-114" x="193.61" y="0">k</tspan><tspan class="cls-14" x="202.43" y="0">s</tspan><tspan x="210.91" y="0">:</tspan></text></svg>