<svg id="Capa_1" data-name="Capa 1" xmlns="http://www.w3.org/2000/svg" xmlns:xlink="http://www.w3.org/1999/xlink" viewBox="0 0 563.56 500.05"><defs><style>.cls-1,.cls-4,.cls-7,.cls-8{fill:none;}.cls-2{clip-path:url(#clip-path);}.cls-3{fill:#fff;}.cls-4{stroke:#000;}.cls-4,.cls-8{stroke-width:0.75px;}.cls-5{fill:#4eac33;}.cls-6{fill:#e10d14;}.cls-7{stroke:#fff;}.cls-8{stroke:#dc3c8e;}.cls-9{fill:#dc3c8e;}</style><clipPath id="clip-path" transform="translate(-139.29 -55.37)"><rect class="cls-1" x="139.04" y="55.37" width="563.81" height="500.23"/></clipPath></defs><rect x="225.71" y="9.64" width="119.03" height="47.58"/><rect x="225.71" width="119.03" height="9.64"/><g class="cls-2"><path class="cls-3" d="M464,86.71v.05a7.07,7.07,0,0,1-.23,1.86,6.1,6.1,0,0,1-.59,1.46,5.18,5.18,0,0,1-.75,1,2.84,2.84,0,0,1-.73.6l-.18-.53a2.92,2.92,0,0,0,.56-.59,4.46,4.46,0,0,0,.52-.93,6.56,6.56,0,0,0,.39-1.27,8.81,8.81,0,0,0,.14-1.62V86.7a7.94,7.94,0,0,0-.15-1.61,6.32,6.32,0,0,0-.41-1.27,5,5,0,0,0-.52-.93,3.56,3.56,0,0,0-.53-.59l.18-.53a2.84,2.84,0,0,1,.73.6,5.18,5.18,0,0,1,.75,1,6.27,6.27,0,0,1,.59,1.46,7,7,0,0,1,.23,1.85m-4,1.44a.7.7,0,0,0-.42-.65,3.06,3.06,0,0,0-.75-.23,6.54,6.54,0,0,1-.77-.21,2.19,2.19,0,0,1-.57-.3,1.21,1.21,0,0,1-.37-.41,1.18,1.18,0,0,1-.12-.55,1.25,1.25,0,0,1,.13-.57,1.54,1.54,0,0,1,.38-.47,1.82,1.82,0,0,1,.6-.33,2.35,2.35,0,0,1,.77-.12,2.32,2.32,0,0,1,1,.22,1.74,1.74,0,0,1,.67.58,1.47,1.47,0,0,1,.23.8h-.87a.69.69,0,0,0-.13-.41.91.91,0,0,0-.36-.34,1.16,1.16,0,0,0-.58-.13,1.41,1.41,0,0,0-.59.11.8.8,0,0,0-.32.28.68.68,0,0,0,0,.61.48.48,0,0,0,.18.2,1.27,1.27,0,0,0,.35.17,4,4,0,0,0,.59.16,5.16,5.16,0,0,1,1,.34,1.5,1.5,0,0,1,.6.49,1.19,1.19,0,0,1,.2.69,1.41,1.41,0,0,1-.14.62,1.38,1.38,0,0,1-.4.47,1.91,1.91,0,0,1-.62.32,2.9,2.9,0,0,1-.81.1,2.45,2.45,0,0,1-1.13-.24,1.73,1.73,0,0,1-.71-.62,1.47,1.47,0,0,1-.24-.8h.88a.91.91,0,0,0,.2.57,1.06,1.06,0,0,0,.46.29,1.79,1.79,0,0,0,.54.09,1.51,1.51,0,0,0,.6-.1.78.78,0,0,0,.37-.25.58.58,0,0,0,.13-.38m-4.35,1.35h-.88V82.27h.88Zm-3-3.09V87h-.88a3.4,3.4,0,0,0-.67.06,1.3,1.3,0,0,0-.48.17.86.86,0,0,0-.3.3.76.76,0,0,0-.11.41.89.89,0,0,0,.11.43.76.76,0,0,0,.32.32,1.27,1.27,0,0,0,.54.11,1.46,1.46,0,0,0,.71-.17,1.49,1.49,0,0,0,.48-.41.83.83,0,0,0,.2-.48l.37.42a1.2,1.2,0,0,1-.18.44,1.8,1.8,0,0,1-.39.46,1.85,1.85,0,0,1-.57.36,1.78,1.78,0,0,1-.74.14,1.88,1.88,0,0,1-.91-.2,1.42,1.42,0,0,1-.81-1.31,1.53,1.53,0,0,1,.16-.72,1.43,1.43,0,0,1,.46-.52,2.16,2.16,0,0,1,.72-.32,3.93,3.93,0,0,1,1-.11Zm-.15,2.22V86a1.05,1.05,0,0,0-.13-.52.74.74,0,0,0-.35-.35,1.34,1.34,0,0,0-.6-.12,1.29,1.29,0,0,0-.57.11,1,1,0,0,0-.39.29.68.68,0,0,0-.13.4h-.87a1.09,1.09,0,0,1,.14-.54,1.66,1.66,0,0,1,.4-.49,2.05,2.05,0,0,1,.64-.34,2.47,2.47,0,0,1,.84-.14,2.43,2.43,0,0,1,1,.19,1.5,1.5,0,0,1,.67.57,1.74,1.74,0,0,1,.24,1v2.37a3.5,3.5,0,0,0,.05.54,1.93,1.93,0,0,0,.13.49v.08h-.9a1.5,1.5,0,0,1-.11-.4,4.09,4.09,0,0,1,0-.47m-7.66-1.87h-.36a3.34,3.34,0,0,1,.16-1A2.38,2.38,0,0,1,445,85a1.89,1.89,0,0,1,.65-.51,1.92,1.92,0,0,1,.84-.19,2.06,2.06,0,0,1,.68.11,1.14,1.14,0,0,1,.51.32,1.59,1.59,0,0,1,.33.57,3,3,0,0,1,.11.85V89.5h-.87V86.15a1.46,1.46,0,0,0-.12-.64.72.72,0,0,0-.34-.35,1.33,1.33,0,0,0-.56-.11,1.2,1.2,0,0,0-.59.14,1.47,1.47,0,0,0-.46.37,2.06,2.06,0,0,0-.29.55,2,2,0,0,0-.11.65M445,85.5v4h-.87V84.41H445Zm-5.61,1.41V87a3.31,3.31,0,0,0,.08.72,1.69,1.69,0,0,0,.24.58,1.14,1.14,0,0,0,1,.54,1.33,1.33,0,0,0,.72-.18,1.36,1.36,0,0,0,.44-.48,2.77,2.77,0,0,0,.27-.66V86.4a2.91,2.91,0,0,0-.16-.5,1.39,1.39,0,0,0-.28-.43,1.17,1.17,0,0,0-.41-.31,1.41,1.41,0,0,0-.57-.11,1.17,1.17,0,0,0-.61.15,1.24,1.24,0,0,0-.42.4,1.8,1.8,0,0,0-.24.6,3.22,3.22,0,0,0-.08.71m-.86.1v-.1a3.9,3.9,0,0,1,.13-1.06,2.73,2.73,0,0,1,.4-.82,2,2,0,0,1,.63-.53,1.92,1.92,0,0,1,.84-.19,2,2,0,0,1,.84.17A1.7,1.7,0,0,1,442,85a2.38,2.38,0,0,1,.4.76,5.64,5.64,0,0,1,.2,1v.44a4.78,4.78,0,0,1-.2,1,2.38,2.38,0,0,1-.4.76,1.7,1.7,0,0,1-.61.49,2,2,0,0,1-.85.16,1.78,1.78,0,0,1-.83-.19,1.88,1.88,0,0,1-.62-.54,2.52,2.52,0,0,1-.41-.82,3.77,3.77,0,0,1-.13-1m3.49-2.6h.79v5a2.3,2.3,0,0,1-.27,1.15,1.71,1.71,0,0,1-.76.72,2.34,2.34,0,0,1-1.12.25,2.64,2.64,0,0,1-.62-.09,2.47,2.47,0,0,1-.69-.27,1.7,1.7,0,0,1-.57-.53l.45-.51a2,2,0,0,0,.67.53,1.8,1.8,0,0,0,.7.15,1.58,1.58,0,0,0,.71-.15,1.08,1.08,0,0,0,.46-.46,1.44,1.44,0,0,0,.17-.75v-3.9Zm-5.62-1.35a.56.56,0,0,1,.12-.36.49.49,0,0,1,.39-.14.47.47,0,0,1,.38.14.52.52,0,0,1,.14.36.52.52,0,0,1-.14.35.51.51,0,0,1-.38.14.53.53,0,0,1-.39-.14.55.55,0,0,1-.12-.35m.94,6.44h-.88V84.41h.88Zm-2.88-1.73a1.18,1.18,0,0,0-.08-.43.77.77,0,0,0-.25-.33,2.06,2.06,0,0,0-.5-.29,7.85,7.85,0,0,0-.8-.28,8,8,0,0,1-.91-.33,3.1,3.1,0,0,1-.7-.43,1.56,1.56,0,0,1-.45-.55,1.61,1.61,0,0,1-.15-.71,1.67,1.67,0,0,1,.16-.74,1.78,1.78,0,0,1,.47-.59,2.18,2.18,0,0,1,.74-.39,2.83,2.83,0,0,1,.95-.14,2.67,2.67,0,0,1,1.31.29,2.11,2.11,0,0,1,.82.77,1.9,1.9,0,0,1,.28,1h-.9a1.41,1.41,0,0,0-.17-.69,1.17,1.17,0,0,0-.49-.47,2,2,0,0,0-.85-.17,2,2,0,0,0-.8.14,1,1,0,0,0-.62,1,.83.83,0,0,0,.09.39,1,1,0,0,0,.29.33,2.54,2.54,0,0,0,.5.28,7.55,7.55,0,0,0,.72.24,5.83,5.83,0,0,1,1,.37,2.84,2.84,0,0,1,.69.45,1.48,1.48,0,0,1,.41.57,1.81,1.81,0,0,1,.14.72,1.73,1.73,0,0,1-.17.76,1.63,1.63,0,0,1-.48.57,2.26,2.26,0,0,1-.76.38,3.7,3.7,0,0,1-1,.12,3.31,3.31,0,0,1-.93-.13,3,3,0,0,1-.83-.39,2.18,2.18,0,0,1-.6-.65,1.78,1.78,0,0,1-.22-.91h.9a1.28,1.28,0,0,0,.14.61,1.15,1.15,0,0,0,.37.42,1.89,1.89,0,0,0,.54.24,2.59,2.59,0,0,0,.63.07,2.15,2.15,0,0,0,.81-.13,1,1,0,0,0,.49-.37,1,1,0,0,0,.18-.58m-7.11-1v-.05a7,7,0,0,1,.23-1.85,6.74,6.74,0,0,1,.59-1.46,5.18,5.18,0,0,1,.75-1,3,3,0,0,1,.73-.6l.18.57a3.21,3.21,0,0,0-.56.59,4.28,4.28,0,0,0-.52.91,5.68,5.68,0,0,0-.38,1.26,7.77,7.77,0,0,0-.15,1.6v.07a7.87,7.87,0,0,0,.15,1.61,6,6,0,0,0,.38,1.27,4.64,4.64,0,0,0,.52.92,3.4,3.4,0,0,0,.56.61l-.18.53a3,3,0,0,1-.73-.6,5.18,5.18,0,0,1-.75-1,6.54,6.54,0,0,1-.59-1.46,7.07,7.07,0,0,1-.23-1.86m-6.29-2.35,1.28,4.12.14,1h-.55l-1.37-4.27-.11-.82Zm1.12,4.2,1.06-4.2h.87l-1.48,5.09h-.58Zm-4-4.2,1.11,4.23.08.86h-.59l-1.47-5.09Zm.87,4.19,1.31-4.19h.57l-.11.83L419.5,89.5h-.56Zm-4.27,1a2.7,2.7,0,0,1-1-.17,2.42,2.42,0,0,1-.74-.52,2.18,2.18,0,0,1-.46-.78,2.86,2.86,0,0,1-.17-1v-.19a3.15,3.15,0,0,1,.18-1.11,2.62,2.62,0,0,1,.5-.83,2.25,2.25,0,0,1,.72-.51,2,2,0,0,1,.82-.18,2.22,2.22,0,0,1,.94.19,1.62,1.62,0,0,1,.65.53,2.23,2.23,0,0,1,.38.79,3.84,3.84,0,0,1,.12,1v.39H413v-.71h2.92v-.07a2.23,2.23,0,0,0-.14-.66,1.16,1.16,0,0,0-.37-.52,1.25,1.25,0,0,0-1.25-.08,1.14,1.14,0,0,0-.43.36,2.08,2.08,0,0,0-.28.6,3.35,3.35,0,0,0-.1.82v.19a2.61,2.61,0,0,0,.1.69,1.72,1.72,0,0,0,.3.55,1.43,1.43,0,0,0,.47.38,1.47,1.47,0,0,0,.64.13,1.55,1.55,0,0,0,.78-.18,2.08,2.08,0,0,0,.56-.51l.53.42a2.63,2.63,0,0,1-.42.48,1.93,1.93,0,0,1-.63.36,2.25,2.25,0,0,1-.86.14m-4.45-6.53a.52.52,0,0,1,.13-.36.48.48,0,0,1,.38-.14.46.46,0,0,1,.38.14.48.48,0,0,1,.14.36.47.47,0,0,1-.14.35.49.49,0,0,1-.38.14.52.52,0,0,1-.38-.14.51.51,0,0,1-.13-.35m.94,6.44h-.87V84.41h.87Zm-6.61-6.85,2,5.81.25,1h-.7l-2.52-6.85Zm1.88,5.81,2-5.81h1L407,89.5h-.7Zm-9.38-1.7h-.36a3.34,3.34,0,0,1,.16-1,2.38,2.38,0,0,1,.42-.77,1.89,1.89,0,0,1,.65-.51,1.92,1.92,0,0,1,.84-.19,2,2,0,0,1,.67.11,1.17,1.17,0,0,1,.52.32,1.59,1.59,0,0,1,.33.57,3,3,0,0,1,.11.85V89.5h-.88V86.15a1.47,1.47,0,0,0-.11-.64.74.74,0,0,0-.35-.35,1.28,1.28,0,0,0-.55-.11,1.17,1.17,0,0,0-.59.14,1.37,1.37,0,0,0-.46.37,2.06,2.06,0,0,0-.29.55,2,2,0,0,0-.11.65m.21-1.26v4h-.87V84.41h.82Zm-3.2-2.44a.56.56,0,0,1,.12-.36.49.49,0,0,1,.39-.14.48.48,0,0,1,.38.14.52.52,0,0,1,.14.36.48.48,0,0,1-.52.49.53.53,0,0,1-.39-.14.55.55,0,0,1-.12-.35m.94,6.44h-.88V84.41h.88Zm-3-3.09V87h-.88a3.23,3.23,0,0,0-.66.06,1.28,1.28,0,0,0-.49.17.86.86,0,0,0-.3.3.76.76,0,0,0-.11.41.89.89,0,0,0,.11.43.73.73,0,0,0,.33.32,1.2,1.2,0,0,0,.54.11,1.45,1.45,0,0,0,.7-.17,1.49,1.49,0,0,0,.48-.41.83.83,0,0,0,.2-.48l.37.42a1.2,1.2,0,0,1-.18.44,1.8,1.8,0,0,1-.39.46,1.85,1.85,0,0,1-.57.36,1.78,1.78,0,0,1-.74.14,1.88,1.88,0,0,1-.91-.2,1.56,1.56,0,0,1-.6-.54,1.44,1.44,0,0,1-.21-.77,1.53,1.53,0,0,1,.16-.72,1.43,1.43,0,0,1,.46-.52,2.16,2.16,0,0,1,.72-.32,3.93,3.93,0,0,1,.95-.11Zm-.15,2.22V86a1,1,0,0,0-.13-.52.74.74,0,0,0-.35-.35,1.32,1.32,0,0,0-.59-.12,1.31,1.31,0,0,0-.58.11,1.05,1.05,0,0,0-.39.29.68.68,0,0,0-.13.4h-.87a1.21,1.21,0,0,1,.14-.54,1.66,1.66,0,0,1,.4-.49,2.05,2.05,0,0,1,.64-.34,2.47,2.47,0,0,1,.84-.14,2.43,2.43,0,0,1,1,.19,1.5,1.5,0,0,1,.67.57,1.74,1.74,0,0,1,.24,1v2.37a3.5,3.5,0,0,0,.05.54,1.93,1.93,0,0,0,.13.49v.08h-.9a1.5,1.5,0,0,1-.11-.4,4.09,4.09,0,0,1,0-.47m-5.24-6h.78V89.5h-.9V86.83Zm-6,0h.78l.13,4.18V89.5h-.91Zm.29,0h.88l2.24,5.58,2.24-5.58h.88l-2.78,6.85h-.69Z" transform="translate(-139.29 -55.37)"/><path class="cls-3" d="M370.41,59a1.21,1.21,0,1,1-1.2,1.21,1.21,1.21,0,0,1,1.2-1.21" transform="translate(-139.29 -55.37)"/><path class="cls-3" d="M375.22,59a1.21,1.21,0,1,1-1.2,1.21,1.21,1.21,0,0,1,1.2-1.21" transform="translate(-139.29 -55.37)"/><path class="cls-3" d="M380,59a1.21,1.21,0,1,1-1.2,1.21A1.2,1.2,0,0,1,380,59" transform="translate(-139.29 -55.37)"/></g><rect x="189.04" y="183.08" width="91.37" height="48.78"/><rect x="189.04" y="173.44" width="91.37" height="9.64"/><g class="cls-2"><path class="cls-3" d="M385.57,262.16a.82.82,0,0,0-.08-.35.79.79,0,0,0-.34-.3,2.47,2.47,0,0,0-.75-.23,5.87,5.87,0,0,1-.76-.21,2.42,2.42,0,0,1-.58-.3,1.16,1.16,0,0,1-.36-.41,1.09,1.09,0,0,1-.13-.55,1.25,1.25,0,0,1,.13-.57,1.58,1.58,0,0,1,.38-.48,2.14,2.14,0,0,1,.6-.32,2.35,2.35,0,0,1,.77-.12,2.32,2.32,0,0,1,1,.22,1.66,1.66,0,0,1,.67.58,1.46,1.46,0,0,1,.23.79h-.87a.73.73,0,0,0-.13-.41,1,1,0,0,0-.36-.33,1.16,1.16,0,0,0-.58-.13,1.36,1.36,0,0,0-.58.11.77.77,0,0,0-.33.28.75.75,0,0,0-.1.36.7.7,0,0,0,.05.25.48.48,0,0,0,.18.2,1.27,1.27,0,0,0,.35.17,4,4,0,0,0,.59.16,5.16,5.16,0,0,1,1,.34,1.48,1.48,0,0,1,.6.48,1.25,1.25,0,0,1,.2.7,1.37,1.37,0,0,1-.14.61,1.32,1.32,0,0,1-.4.48,1.9,1.9,0,0,1-.62.31,2.86,2.86,0,0,1-.8.11,2.46,2.46,0,0,1-1.14-.24,1.64,1.64,0,0,1-.7-.62,1.47,1.47,0,0,1-.24-.8h.87a.85.85,0,0,0,.21.56,1,1,0,0,0,.46.3,1.7,1.7,0,0,0,.54.09,1.49,1.49,0,0,0,.59-.1.75.75,0,0,0,.37-.26.56.56,0,0,0,.13-.37M380.63,261v-.1a3.38,3.38,0,0,0-.08-.72,1.84,1.84,0,0,0-.25-.59,1.15,1.15,0,0,0-.42-.4,1.21,1.21,0,0,0-.62-.15,1.21,1.21,0,0,0-1,.42,1.88,1.88,0,0,0-.28.43,2.64,2.64,0,0,0-.15.5v1.22a2.81,2.81,0,0,0,.26.62,1.41,1.41,0,0,0,.45.46,1.31,1.31,0,0,0,.71.18,1.17,1.17,0,0,0,.61-.15,1.27,1.27,0,0,0,.42-.41,1.84,1.84,0,0,0,.25-.59,3.38,3.38,0,0,0,.08-.72m.87-.1v.1a3.77,3.77,0,0,1-.13,1,2.69,2.69,0,0,1-.38.82,1.79,1.79,0,0,1-.62.54,1.74,1.74,0,0,1-.84.19,2,2,0,0,1-.85-.16,1.61,1.61,0,0,1-.63-.46,2.42,2.42,0,0,1-.42-.74,3.78,3.78,0,0,1-.2-1v-.53a3.76,3.76,0,0,1,.21-1,2.4,2.4,0,0,1,.41-.76,1.63,1.63,0,0,1,.62-.49,2.08,2.08,0,0,1,.85-.17,1.93,1.93,0,0,1,.85.19,1.74,1.74,0,0,1,.62.53,2.3,2.3,0,0,1,.38.82,3.9,3.9,0,0,1,.13,1.06m-3.42-1.52v6.06h-.87v-7H378Zm-5.33.89-.58.18a2.46,2.46,0,0,1,.14-.81,2.19,2.19,0,0,1,.39-.68,1.89,1.89,0,0,1,.63-.48,2,2,0,0,1,.86-.18,2.27,2.27,0,0,1,.72.11,1.23,1.23,0,0,1,.54.33,1.34,1.34,0,0,1,.33.57,2.59,2.59,0,0,1,.12.83v3.35H375v-3.36a1.36,1.36,0,0,0-.13-.66.72.72,0,0,0-.38-.33,1.42,1.42,0,0,0-.57-.1,1.19,1.19,0,0,0-.51.1.91.91,0,0,0-.37.27,1.09,1.09,0,0,0-.23.39,1.45,1.45,0,0,0-.08.47m-3.29.48h-.4a3.73,3.73,0,0,1,.13-1,2.38,2.38,0,0,1,.39-.78,1.67,1.67,0,0,1,.65-.5,1.91,1.91,0,0,1,.89-.19,2,2,0,0,1,.66.11,1.31,1.31,0,0,1,.52.31,1.56,1.56,0,0,1,.34.56,2.43,2.43,0,0,1,.12.81v3.4h-.87v-3.35a1.3,1.3,0,0,0-.13-.64.76.76,0,0,0-.38-.35,1.26,1.26,0,0,0-.57-.11,1.35,1.35,0,0,0-.64.13,1.1,1.1,0,0,0-.42.38,1.59,1.59,0,0,0-.22.55,2.7,2.7,0,0,0-.07.65m.18-1.34v4.08h-.87v-5.09h.82Zm-2.95,1V261h-.88a3.23,3.23,0,0,0-.66.06,1.48,1.48,0,0,0-.49.18.84.84,0,0,0-.3.29.8.8,0,0,0-.1.41.85.85,0,0,0,.43.76,1.27,1.27,0,0,0,.54.11,1.5,1.5,0,0,0,1.19-.58,1,1,0,0,0,.19-.48l.38.42a1.7,1.7,0,0,1-.18.44,2.33,2.33,0,0,1-.39.46,2.2,2.2,0,0,1-.58.36,1.88,1.88,0,0,1-.74.14,2,2,0,0,1-.9-.2,1.69,1.69,0,0,1-.61-.54,1.46,1.46,0,0,1-.21-.77,1.66,1.66,0,0,1,.16-.72,1.43,1.43,0,0,1,.46-.52,2.13,2.13,0,0,1,.73-.32,3.85,3.85,0,0,1,.94-.11Zm-.15,2.22V260a1.12,1.12,0,0,0-.12-.53.79.79,0,0,0-.36-.34,1.2,1.2,0,0,0-.59-.13,1.34,1.34,0,0,0-.58.12.94.94,0,0,0-.38.29.69.69,0,0,0-.14.4h-.87a1.21,1.21,0,0,1,.14-.54,1.7,1.7,0,0,1,.41-.49,2.24,2.24,0,0,1,.63-.35,2.79,2.79,0,0,1,.84-.13,2.48,2.48,0,0,1,1,.19,1.47,1.47,0,0,1,.66.57,1.66,1.66,0,0,1,.25.95v2.37a3.44,3.44,0,0,0,0,.54,2,2,0,0,0,.14.49v.08h-.91a1.66,1.66,0,0,1-.1-.4,2.71,2.71,0,0,1,0-.47m-7.14.87h-.91v-6.85h.91Zm3.24,0h-3.42v-.74h3.42Z" transform="translate(-139.29 -55.37)"/><path class="cls-3" d="M333.74,232.42a1.21,1.21,0,1,1-1.2,1.21,1.21,1.21,0,0,1,1.2-1.21" transform="translate(-139.29 -55.37)"/><path class="cls-3" d="M338.55,232.42a1.21,1.21,0,1,1-1.2,1.21,1.21,1.21,0,0,1,1.2-1.21" transform="translate(-139.29 -55.37)"/><path class="cls-3" d="M343.36,232.42a1.21,1.21,0,1,1-1.2,1.21,1.2,1.2,0,0,1,1.2-1.21" transform="translate(-139.29 -55.37)"/></g><rect x="472.18" y="428.18" width="91.37" height="48.78"/><rect x="472.18" y="418.55" width="91.37" height="9.64"/><g class="cls-2"><path class="cls-3" d="M671.91,503.52l1.27,4.12.15,1h-.56l-1.36-4.26-.12-.83Zm1.12,4.2,1.06-4.2H675l-1.47,5.09h-.58Zm-4-4.2,1.12,4.24.07.85h-.58l-1.48-5.09Zm.88,4.19,1.31-4.19h.57l-.11.84-1.33,4.25h-.56Zm-4.28,1a2.49,2.49,0,0,1-1-.18,2.13,2.13,0,0,1-.74-.51,2.3,2.3,0,0,1-.47-.79,2.84,2.84,0,0,1-.16-1v-.2a3.23,3.23,0,0,1,.18-1.11,2.41,2.41,0,0,1,.5-.82,2.2,2.2,0,0,1,.71-.52,2.16,2.16,0,0,1,.83-.17,2.1,2.1,0,0,1,.94.19,1.67,1.67,0,0,1,.65.52,2.32,2.32,0,0,1,.38.79,4,4,0,0,1,.12,1v.39h-3.8v-.71h2.93v-.06a2.1,2.1,0,0,0-.14-.66,1.13,1.13,0,0,0-.38-.53,1.06,1.06,0,0,0-.7-.21,1.27,1.27,0,0,0-.55.13,1.22,1.22,0,0,0-.42.37,1.86,1.86,0,0,0-.28.6,2.8,2.8,0,0,0-.1.81v.2a2.15,2.15,0,0,0,.1.68,1.72,1.72,0,0,0,.3.55,1.43,1.43,0,0,0,.47.38,1.47,1.47,0,0,0,.64.14,1.55,1.55,0,0,0,.78-.19,2,2,0,0,0,.56-.5l.52.41a2.61,2.61,0,0,1-.41.48,2.14,2.14,0,0,1-.63.37,2.48,2.48,0,0,1-.87.14m-4.44-6.54a.48.48,0,0,1,.13-.35.46.46,0,0,1,.38-.15.48.48,0,0,1,.38.15.48.48,0,0,1,.14.35.5.5,0,0,1-.14.35.51.51,0,0,1-.38.14.47.47,0,0,1-.51-.49m.94,6.44h-.87v-5.09h.87Zm-6.61-6.85,2,5.81.25,1h-.7l-2.53-6.85Zm1.88,5.81,2-5.81h1l-2.54,6.85h-.7Zm-7.56-5.28h.87v5.06a.67.67,0,0,0,.08.39.38.38,0,0,0,.2.18.86.86,0,0,0,.28,0l.22,0,.18,0v.71a.9.9,0,0,1-.27.06,1.59,1.59,0,0,1-.4,0,1.28,1.28,0,0,1-.59-.13,1,1,0,0,1-.43-.42,1.83,1.83,0,0,1-.15-.81Zm1.82,1.9H648.9v-.67h2.75Zm-4.47-2a.52.52,0,0,1,.13-.35.5.5,0,0,1,.39-.15.49.49,0,0,1,.38.15.48.48,0,0,1,.13.35.49.49,0,0,1-.13.35.52.52,0,0,1-.38.14.53.53,0,0,1-.39-.14.54.54,0,0,1-.13-.35m.94,6.44h-.87v-5.09h.87ZM642.41,506v.09a3.26,3.26,0,0,0,.07.72,2.1,2.1,0,0,0,.25.59,1.32,1.32,0,0,0,1.73.36,1.41,1.41,0,0,0,.45-.49,2.85,2.85,0,0,0,.26-.65v-1.14a2.24,2.24,0,0,0-.16-.5,1.73,1.73,0,0,0-.27-.43,1.12,1.12,0,0,0-.41-.3,1.26,1.26,0,0,0-.57-.12,1.24,1.24,0,0,0-.62.15,1.34,1.34,0,0,0-.41.41,2,2,0,0,0-.25.59,3.26,3.26,0,0,0-.07.72m-.88.09V506a3.83,3.83,0,0,1,.14-1.06,2.8,2.8,0,0,1,.41-.83,1.77,1.77,0,0,1,.64-.52,1.71,1.71,0,0,1,.82-.19,1.86,1.86,0,0,1,.84.17,1.67,1.67,0,0,1,.61.48,2.49,2.49,0,0,1,.4.76,4.85,4.85,0,0,1,.2,1v.43a4.3,4.3,0,0,1-.2,1,2.49,2.49,0,0,1-.4.76,1.67,1.67,0,0,1-.61.48,2,2,0,0,1-.85.17,1.7,1.7,0,0,1-.81-.2,1.73,1.73,0,0,1-.64-.54,2.74,2.74,0,0,1-.41-.82,3.72,3.72,0,0,1-.14-1m3.42,1.5v-6.23h.88v7.22H645Zm-4.14-5.11h-3.58v-.75h3.58Zm-.44,2.94h-3.14v-.74h3.14Zm-3,3.16h-.9v-6.85h.9Zm3.44,0h-3.62v-.73h3.62Z" transform="translate(-139.29 -55.37)"/><path class="cls-3" d="M616.89,477.53a1.21,1.21,0,1,1-1.21,1.2,1.2,1.2,0,0,1,1.21-1.2" transform="translate(-139.29 -55.37)"/><path class="cls-3" d="M621.69,477.53a1.21,1.21,0,1,1-1.2,1.2,1.21,1.21,0,0,1,1.2-1.2" transform="translate(-139.29 -55.37)"/><path class="cls-3" d="M626.5,477.53a1.21,1.21,0,1,1-1.2,1.2,1.21,1.21,0,0,1,1.2-1.2" transform="translate(-139.29 -55.37)"/></g><rect x="296.05" y="183.08" width="90.77" height="48.78"/><rect x="296.05" y="173.44" width="90.77" height="9.64"/><g class="cls-2"><path class="cls-3" d="M495.46,262.16a.7.7,0,0,0-.42-.65,2.68,2.68,0,0,0-.75-.23,5,5,0,0,1-.77-.22,2.62,2.62,0,0,1-.58-.29,1.4,1.4,0,0,1-.36-.41,1.21,1.21,0,0,1-.13-.55,1.26,1.26,0,0,1,.14-.57,1.44,1.44,0,0,1,.38-.48,2,2,0,0,1,.59-.32,2.41,2.41,0,0,1,.78-.12,2.25,2.25,0,0,1,1,.22,1.57,1.57,0,0,1,.66.58,1.38,1.38,0,0,1,.23.79h-.87a.78.78,0,0,0-.12-.41,1,1,0,0,0-.36-.33,1.16,1.16,0,0,0-.58-.13,1.41,1.41,0,0,0-.59.11.74.74,0,0,0-.32.28.65.65,0,0,0-.1.36.53.53,0,0,0,.05.25.52.52,0,0,0,.17.2,1.52,1.52,0,0,0,.36.17,5.23,5.23,0,0,0,.59.16,5.39,5.39,0,0,1,1,.34,1.48,1.48,0,0,1,.6.48,1.32,1.32,0,0,1,.05,1.31,1.23,1.23,0,0,1-.4.48,1.8,1.8,0,0,1-.62.31,2.76,2.76,0,0,1-.8.11,2.39,2.39,0,0,1-1.13-.24,1.81,1.81,0,0,1-.71-.62,1.47,1.47,0,0,1-.24-.8h.87a1,1,0,0,0,.21.57,1.16,1.16,0,0,0,.46.29,1.7,1.7,0,0,0,.54.09,1.51,1.51,0,0,0,.6-.1.85.85,0,0,0,.37-.26.62.62,0,0,0,.13-.37m-7.62-1.39-.36,0a3,3,0,0,1,.16-1,2.43,2.43,0,0,1,.42-.78,1.75,1.75,0,0,1,.65-.5,1.79,1.79,0,0,1,.84-.19,2,2,0,0,1,.67.11,1.17,1.17,0,0,1,.52.32,1.31,1.31,0,0,1,.32.57,2.64,2.64,0,0,1,.12.85v3.34h-.88v-3.35a1.64,1.64,0,0,0-.11-.64.74.74,0,0,0-.35-.35,1.15,1.15,0,0,0-.55-.11,1.28,1.28,0,0,0-.59.13,1.4,1.4,0,0,0-.46.38,1.92,1.92,0,0,0-.29.55,2,2,0,0,0-.11.65m.21-1.27v4h-.87v-5.09H488Zm-5.72,1.41V261a2.84,2.84,0,0,0,.09.72,1.88,1.88,0,0,0,.27.59,1.3,1.3,0,0,0,.46.41,1.4,1.4,0,0,0,1.26,0,1.36,1.36,0,0,0,.45-.41,2.11,2.11,0,0,0,.26-.59,2.46,2.46,0,0,0,.1-.72v-.11a2.34,2.34,0,0,0-.1-.71,1.83,1.83,0,0,0-.27-.6,1.36,1.36,0,0,0-.45-.41,1.4,1.4,0,0,0-1.26,0,1.36,1.36,0,0,0-.45.41,1.83,1.83,0,0,0-.27.6,2.71,2.71,0,0,0-.09.71m-.87.11v-.11a3.3,3.3,0,0,1,.16-1,2.29,2.29,0,0,1,.47-.82,2,2,0,0,1,.72-.55,2.32,2.32,0,0,1,1-.2,2.26,2.26,0,0,1,1,.2,2,2,0,0,1,.74.55,2.27,2.27,0,0,1,.46.82,3,3,0,0,1,.16,1V261a3,3,0,0,1-.16,1,2.36,2.36,0,0,1-.46.82,2.2,2.2,0,0,1-.73.55,2.52,2.52,0,0,1-1.92,0,2.1,2.1,0,0,1-.73-.55,2.38,2.38,0,0,1-.47-.82,3.3,3.3,0,0,1-.16-1m-.61-.07h-2.3v-.71h2.3Zm-6.58,0v.1a3.23,3.23,0,0,0,.07.71,1.74,1.74,0,0,0,.24.59,1.24,1.24,0,0,0,.42.4,1.17,1.17,0,0,0,.61.14,1.29,1.29,0,0,0,.71-.18,1.25,1.25,0,0,0,.45-.49,2.68,2.68,0,0,0,.26-.65v-1.13a2.66,2.66,0,0,0-.16-.5,1.28,1.28,0,0,0-.28-.43,1.11,1.11,0,0,0-.4-.31,1.26,1.26,0,0,0-.57-.11,1.24,1.24,0,0,0-.62.15,1.15,1.15,0,0,0-.42.4,1.83,1.83,0,0,0-.24.59,3.38,3.38,0,0,0-.07.72m-.88.1v-.1a3.89,3.89,0,0,1,.14-1.06,2.74,2.74,0,0,1,.41-.82,1.86,1.86,0,0,1,.63-.53,1.91,1.91,0,0,1,.83-.19,2,2,0,0,1,.84.17,1.6,1.6,0,0,1,.61.49,2.38,2.38,0,0,1,.4.76,5.47,5.47,0,0,1,.2,1v.43a4.2,4.2,0,0,1-.2,1,2.38,2.38,0,0,1-.4.76,1.81,1.81,0,0,1-.61.49,2,2,0,0,1-.85.16,1.77,1.77,0,0,1-.82-.19,2,2,0,0,1-.63-.54,2.86,2.86,0,0,1-.41-.82,3.77,3.77,0,0,1-.14-1m3.42,1.5v-6.24h.87v7.23h-.79Zm-8-1.6v.1a3.23,3.23,0,0,0,.07.71,1.75,1.75,0,0,0,.25.59,1.21,1.21,0,0,0,.41.4,1.17,1.17,0,0,0,.61.14,1.29,1.29,0,0,0,.71-.18,1.25,1.25,0,0,0,.45-.49,2.68,2.68,0,0,0,.26-.65v-1.13a2.09,2.09,0,0,0-.16-.5,1.43,1.43,0,0,0-.27-.43,1.14,1.14,0,0,0-.41-.31,1.26,1.26,0,0,0-.57-.11,1.24,1.24,0,0,0-.62.15,1.12,1.12,0,0,0-.41.4,1.84,1.84,0,0,0-.25.59,3.38,3.38,0,0,0-.07.72m-.88.1v-.1a3.89,3.89,0,0,1,.14-1.06,2.74,2.74,0,0,1,.41-.82,1.8,1.8,0,0,1,.64-.53,1.83,1.83,0,0,1,.82-.19,2,2,0,0,1,.84.17,1.6,1.6,0,0,1,.61.49,2.38,2.38,0,0,1,.4.76,4.75,4.75,0,0,1,.2,1v.43a4.2,4.2,0,0,1-.2,1,2.38,2.38,0,0,1-.4.76,1.81,1.81,0,0,1-.61.49,2,2,0,0,1-.85.16,1.7,1.7,0,0,1-.81-.19,2,2,0,0,1-.64-.54,2.86,2.86,0,0,1-.41-.82,3.77,3.77,0,0,1-.14-1m3.42,1.5v-6.24h.88v7.23h-.8Zm-5-.8h-3.84V261h3.84Zm.11,1.79-2.26-6.25,0-.6h.6l2.61,6.85Zm-1.89-6.25-2.27,6.25h-.92l2.6-6.85h.6Z" transform="translate(-139.29 -55.37)"/><path class="cls-3" d="M440.75,232.42a1.21,1.21,0,1,1-1.2,1.21,1.21,1.21,0,0,1,1.2-1.21" transform="translate(-139.29 -55.37)"/><path class="cls-3" d="M445.56,232.42a1.21,1.21,0,1,1-1.21,1.21,1.21,1.21,0,0,1,1.21-1.21" transform="translate(-139.29 -55.37)"/><path class="cls-3" d="M450.37,232.42a1.21,1.21,0,1,1-1.21,1.21,1.21,1.21,0,0,1,1.21-1.21" transform="translate(-139.29 -55.37)"/></g><rect x="402.45" y="183.68" width="90.77" height="48.78"/><rect x="402.45" y="174.04" width="90.77" height="9.64"/><g class="cls-2"><path class="cls-3" d="M602.52,262.76a.82.82,0,0,0-.08-.35.79.79,0,0,0-.34-.3,2.8,2.8,0,0,0-.75-.23,6.35,6.35,0,0,1-.76-.21,2.11,2.11,0,0,1-.58-.3,1.08,1.08,0,0,1-.36-.41,1.07,1.07,0,0,1-.13-.55,1.25,1.25,0,0,1,.13-.57,1.54,1.54,0,0,1,.38-.47,1.93,1.93,0,0,1,.6-.33,2.35,2.35,0,0,1,.77-.12,2.39,2.39,0,0,1,1.05.22,1.7,1.7,0,0,1,.66.58,1.47,1.47,0,0,1,.23.8h-.87a.69.69,0,0,0-.13-.41.91.91,0,0,0-.36-.34,1.16,1.16,0,0,0-.58-.13,1.36,1.36,0,0,0-.58.11.85.85,0,0,0-.33.28.75.75,0,0,0-.1.36.66.66,0,0,0,.05.25.67.67,0,0,0,.18.2,1.21,1.21,0,0,0,.36.17,3.88,3.88,0,0,0,.58.16,5.16,5.16,0,0,1,1,.34,1.5,1.5,0,0,1,.6.49,1.19,1.19,0,0,1,.2.69,1.34,1.34,0,0,1-.14.61,1.23,1.23,0,0,1-.4.48,1.91,1.91,0,0,1-.62.32,2.83,2.83,0,0,1-.8.1,2.46,2.46,0,0,1-1.14-.24,1.7,1.7,0,0,1-.7-.62,1.47,1.47,0,0,1-.24-.8h.87a.86.86,0,0,0,.21.57,1,1,0,0,0,.46.29,1.7,1.7,0,0,0,.54.09,1.45,1.45,0,0,0,.59-.1.74.74,0,0,0,.37-.25.58.58,0,0,0,.13-.38m-7.41-1.87-.59.18a2.63,2.63,0,0,1,.14-.8,2.13,2.13,0,0,1,.39-.69,1.89,1.89,0,0,1,.63-.48,2,2,0,0,1,.86-.18,2.29,2.29,0,0,1,.73.11,1.28,1.28,0,0,1,.53.34,1.34,1.34,0,0,1,.34.57,2.81,2.81,0,0,1,.11.82v3.35h-.88v-3.35a1.37,1.37,0,0,0-.13-.67.68.68,0,0,0-.38-.33,1.42,1.42,0,0,0-.57-.1,1.19,1.19,0,0,0-.51.1,1,1,0,0,0-.37.27,1.09,1.09,0,0,0-.23.39,1.49,1.49,0,0,0-.07.47m-3.3.48h-.4a3.34,3.34,0,0,1,.14-1,2,2,0,0,1,.39-.77,1.69,1.69,0,0,1,.64-.51,2.08,2.08,0,0,1,.89-.19,2,2,0,0,1,.66.11,1.31,1.31,0,0,1,.52.31,1.43,1.43,0,0,1,.34.56,2.43,2.43,0,0,1,.13.82v3.39h-.87v-3.35a1.29,1.29,0,0,0-.14-.64.76.76,0,0,0-.38-.35,1.41,1.41,0,0,0-.57-.11,1.24,1.24,0,0,0-.64.14,1,1,0,0,0-.41.37,1.69,1.69,0,0,0-.23.55,3.41,3.41,0,0,0-.07.65M592,260v4.08h-.87V259H592Zm-3.85,4.17a2.5,2.5,0,0,1-1-.18,2.09,2.09,0,0,1-.73-.51,2.2,2.2,0,0,1-.47-.78,2.86,2.86,0,0,1-.17-1v-.2a2.92,2.92,0,0,1,.19-1.1,2.43,2.43,0,0,1,.49-.83,2.11,2.11,0,0,1,.72-.51,2,2,0,0,1,.82-.18,2.22,2.22,0,0,1,.94.19,1.72,1.72,0,0,1,.66.53,2.22,2.22,0,0,1,.37.79,3.84,3.84,0,0,1,.12,1v.39h-3.79v-.71h2.92V261a2.23,2.23,0,0,0-.14-.66,1.06,1.06,0,0,0-1.08-.73,1.11,1.11,0,0,0-.54.13,1.14,1.14,0,0,0-.43.36,2.08,2.08,0,0,0-.28.6,3.35,3.35,0,0,0-.09.81v.2a2.48,2.48,0,0,0,.09.68,1.77,1.77,0,0,0,.3.56,1.43,1.43,0,0,0,.47.38,1.5,1.5,0,0,0,.64.13,1.46,1.46,0,0,0,.78-.19,1.77,1.77,0,0,0,.56-.5l.53.42a2.33,2.33,0,0,1-.42.48,2,2,0,0,1-.62.36,2.34,2.34,0,0,1-.87.14m-4.95-6.42h.87v5.07a.81.81,0,0,0,.08.39.35.35,0,0,0,.21.17.76.76,0,0,0,.27,0l.22,0,.19,0v.71l-.27.06a2.25,2.25,0,0,1-.4,0,1.45,1.45,0,0,1-.59-.12,1,1,0,0,1-.42-.43,1.69,1.69,0,0,1-.16-.81Zm1.82,1.91h-2.75V259H585Zm-4.14,3.07a.82.82,0,0,0-.08-.35.79.79,0,0,0-.34-.3,2.8,2.8,0,0,0-.75-.23,5.87,5.87,0,0,1-.76-.21,2.11,2.11,0,0,1-.58-.3A1.08,1.08,0,0,1,578,261a1.07,1.07,0,0,1-.13-.55,1.25,1.25,0,0,1,.13-.57,1.54,1.54,0,0,1,.38-.47,1.93,1.93,0,0,1,.6-.33,2.35,2.35,0,0,1,.77-.12,2.39,2.39,0,0,1,1,.22,1.78,1.78,0,0,1,.66.58,1.47,1.47,0,0,1,.23.8h-.87a.69.69,0,0,0-.13-.41.91.91,0,0,0-.36-.34,1.16,1.16,0,0,0-.58-.13,1.36,1.36,0,0,0-.58.11.85.85,0,0,0-.33.28.75.75,0,0,0-.1.36.66.66,0,0,0,0,.25.56.56,0,0,0,.18.2,1.21,1.21,0,0,0,.36.17,3.56,3.56,0,0,0,.58.16,5.16,5.16,0,0,1,1,.34,1.5,1.5,0,0,1,.6.49,1.19,1.19,0,0,1,.2.69,1.34,1.34,0,0,1-.14.61,1.23,1.23,0,0,1-.4.48,1.91,1.91,0,0,1-.62.32,2.87,2.87,0,0,1-.8.1,2.46,2.46,0,0,1-1.14-.24,1.7,1.7,0,0,1-.7-.62,1.47,1.47,0,0,1-.24-.8h.87a.86.86,0,0,0,.21.57,1,1,0,0,0,.46.29,1.7,1.7,0,0,0,.54.09,1.49,1.49,0,0,0,.59-.1.74.74,0,0,0,.37-.25.58.58,0,0,0,.13-.38M573.75,259l1.32,4,.22.92-.62.32L572.8,259Zm1,4.56L576.2,259h.93l-2,5.88a3.52,3.52,0,0,1-.19.4,1.66,1.66,0,0,1-.29.42,1.38,1.38,0,0,1-.43.32,1.4,1.4,0,0,1-.6.13l-.26,0-.23-.05v-.71h.23a1.3,1.3,0,0,0,.51-.08.71.71,0,0,0,.34-.26,1.4,1.4,0,0,0,.25-.49Zm-3.36-1.2a1.18,1.18,0,0,0-.07-.43.88.88,0,0,0-.26-.33,2,2,0,0,0-.49-.29c-.21-.09-.48-.18-.8-.28a7.49,7.49,0,0,1-.92-.33,3.62,3.62,0,0,1-.7-.43,1.82,1.82,0,0,1-.45-.55,1.64,1.64,0,0,1-.15-.71,1.67,1.67,0,0,1,.16-.74,1.78,1.78,0,0,1,.47-.59,2.27,2.27,0,0,1,.74-.39,2.87,2.87,0,0,1,.95-.14,2.64,2.64,0,0,1,1.31.29,2.11,2.11,0,0,1,.82.77,1.9,1.9,0,0,1,.28,1h-.9a1.41,1.41,0,0,0-.16-.69,1.2,1.2,0,0,0-.5-.47,1.89,1.89,0,0,0-.85-.17,2,2,0,0,0-.79.14,1,1,0,0,0-.47.4,1.1,1.1,0,0,0-.15.57.86.86,0,0,0,.09.39,1,1,0,0,0,.28.33,2.54,2.54,0,0,0,.5.28c.2.08.45.16.73.24a5.7,5.7,0,0,1,1,.37,2.64,2.64,0,0,1,.7.45,1.72,1.72,0,0,1,.41.57,1.81,1.81,0,0,1,.13.72,1.6,1.6,0,0,1-.17.76,1.55,1.55,0,0,1-.48.57,2.35,2.35,0,0,1-.76.38,3.63,3.63,0,0,1-1,.12,3.33,3.33,0,0,1-.94-.13,3,3,0,0,1-.83-.39,2.18,2.18,0,0,1-.6-.65,1.88,1.88,0,0,1-.22-.91h.91a1.28,1.28,0,0,0,.13.61,1.25,1.25,0,0,0,.37.42,1.89,1.89,0,0,0,.54.24,2.73,2.73,0,0,0,.64.07,2.13,2.13,0,0,0,.8-.13,1.06,1.06,0,0,0,.5-.37,1,1,0,0,0,.17-.58" transform="translate(-139.29 -55.37)"/><path class="cls-3" d="M547.15,233a1.21,1.21,0,1,1-1.2,1.2,1.2,1.2,0,0,1,1.2-1.2" transform="translate(-139.29 -55.37)"/><path class="cls-3" d="M552,233a1.21,1.21,0,1,1-1.2,1.2A1.2,1.2,0,0,1,552,233" transform="translate(-139.29 -55.37)"/><path class="cls-3" d="M556.77,233a1.21,1.21,0,1,1-1.2,1.2,1.2,1.2,0,0,1,1.2-1.2" transform="translate(-139.29 -55.37)"/></g><polygon points="115.1 257.15 82.64 289.67 115.1 322.19 147.56 289.67 115.1 257.15"/><g class="cls-2"><path class="cls-3" d="M267.65,348.28a.52.52,0,0,1,.14-.36.46.46,0,0,1,.38-.15.48.48,0,0,1,.38.15.52.52,0,0,1,.13.36.47.47,0,0,1-.51.49.49.49,0,0,1-.38-.14.52.52,0,0,1-.14-.35m.92-1.49h-.88a3.47,3.47,0,0,1,.08-.74,1.8,1.8,0,0,1,.26-.54,6.4,6.4,0,0,1,.47-.54l.4-.41a2.38,2.38,0,0,0,.3-.43,1.31,1.31,0,0,0,.11-.55,1.25,1.25,0,0,0-.12-.56.74.74,0,0,0-.34-.36,1,1,0,0,0-.55-.13,1.45,1.45,0,0,0-.51.1.89.89,0,0,0-.4.31.86.86,0,0,0-.15.53h-.87a1.57,1.57,0,0,1,.26-.91,1.62,1.62,0,0,1,.7-.59,2.34,2.34,0,0,1,1-.2,2.14,2.14,0,0,1,1,.22,1.47,1.47,0,0,1,.64.62,1.88,1.88,0,0,1,.22.95,1.85,1.85,0,0,1-.17.78,3.16,3.16,0,0,1-.44.66,6.37,6.37,0,0,1-.57.59,1.32,1.32,0,0,0-.35.55,2.63,2.63,0,0,0-.08.65M262,346l-.36,0a3.22,3.22,0,0,1,.16-1,2.43,2.43,0,0,1,.42-.78,1.89,1.89,0,0,1,.65-.51,1.92,1.92,0,0,1,.84-.18,2,2,0,0,1,.67.1,1.31,1.31,0,0,1,.52.32,1.55,1.55,0,0,1,.33.58,2.92,2.92,0,0,1,.11.85v3.33h-.88v-3.34a1.44,1.44,0,0,0-.11-.64.74.74,0,0,0-.35-.35,1.15,1.15,0,0,0-.55-.12,1.28,1.28,0,0,0-.59.14,1.4,1.4,0,0,0-.46.38,1.92,1.92,0,0,0-.29.55,2,2,0,0,0-.11.65m.21-1.27v4h-.87v-5.09h.82Zm-3.2-2.44a.51.51,0,0,1,.12-.35.5.5,0,0,1,.39-.15.48.48,0,0,1,.38.15.48.48,0,0,1,.14.35.5.5,0,0,1-.14.35.47.47,0,0,1-.38.14.49.49,0,0,1-.39-.14.53.53,0,0,1-.12-.35m.94,6.44h-.88v-5.09H260Zm-5.4-3.21-.59.18a2.75,2.75,0,0,1,.14-.81,2.13,2.13,0,0,1,.39-.69,1.74,1.74,0,0,1,.63-.47,2,2,0,0,1,.86-.18,2.29,2.29,0,0,1,.73.11,1.26,1.26,0,0,1,.53.33,1.34,1.34,0,0,1,.33.57,2.55,2.55,0,0,1,.12.83v3.34h-.88v-3.35a1.31,1.31,0,0,0-.13-.66.78.78,0,0,0-.38-.34,1.61,1.61,0,0,0-.57-.1,1.36,1.36,0,0,0-.51.1,1,1,0,0,0-.37.28,1.09,1.09,0,0,0-.23.39,1.41,1.41,0,0,0-.07.47m-3.3.48-.4,0a3.22,3.22,0,0,1,.14-1,2,2,0,0,1,.39-.78,1.69,1.69,0,0,1,.64-.51,2.08,2.08,0,0,1,.89-.18,2,2,0,0,1,.66.1,1.33,1.33,0,0,1,.52.32,1.39,1.39,0,0,1,.34.55,2.47,2.47,0,0,1,.13.82v3.39h-.87v-3.35a1.32,1.32,0,0,0-.14-.64.74.74,0,0,0-.38-.34,1.26,1.26,0,0,0-.57-.12,1.35,1.35,0,0,0-.64.14,1.18,1.18,0,0,0-.42.38,1.81,1.81,0,0,0-.22.55,3.32,3.32,0,0,0-.07.65m.18-1.34v4.07h-.87v-5.09h.82Zm-5.63,1.49v.1a3.23,3.23,0,0,0,.07.71,1.84,1.84,0,0,0,.25.59,1.21,1.21,0,0,0,.41.4,1.45,1.45,0,0,0,1.32,0,1.41,1.41,0,0,0,.45-.49,2.85,2.85,0,0,0,.26-.65v-1.14a2.91,2.91,0,0,0-.16-.5,1.52,1.52,0,0,0-.28-.43,1,1,0,0,0-.4-.3,1.26,1.26,0,0,0-.57-.12,1.13,1.13,0,0,0-1,.56,1.84,1.84,0,0,0-.25.59,3.26,3.26,0,0,0-.07.72m-.88.1v-.1a3.83,3.83,0,0,1,.14-1.06,2.8,2.8,0,0,1,.41-.83,1.88,1.88,0,0,1,.64-.52,1.71,1.71,0,0,1,.82-.19,2,2,0,0,1,.84.17,1.67,1.67,0,0,1,.61.48,2.44,2.44,0,0,1,.4.77,4.63,4.63,0,0,1,.2,1v.43a4.3,4.3,0,0,1-.2,1,2.49,2.49,0,0,1-.4.76,1.67,1.67,0,0,1-.61.48,2,2,0,0,1-.85.17,1.82,1.82,0,0,1-.81-.19,1.86,1.86,0,0,1-.64-.55,2.8,2.8,0,0,1-.41-.81,3.77,3.77,0,0,1-.14-1m3.42,1.5v-6.24h.87v7.22h-.79Zm-5-.81h-3.85v-.74h3.85Zm.11,1.79-2.26-6.24,0-.61h.6l2.61,6.85Zm-1.89-6.24-2.27,6.24h-.92l2.6-6.85h.6Z" transform="translate(-139.29 -55.37)"/></g><path class="cls-4" d="M268.75,298l-14.36,14.42L240,298m14.36-34.23v48.05" transform="translate(-139.29 -55.37)"/><g class="cls-2"><path class="cls-5" d="M314.51,431.76h36.07a12,12,0,0,1,0,24.09H314.51a12,12,0,0,1,0-24.09" transform="translate(-139.29 -55.37)"/><path class="cls-3" d="M339,446.07a.82.82,0,0,0-.08-.35.79.79,0,0,0-.34-.3,2.47,2.47,0,0,0-.75-.23A5.87,5.87,0,0,1,337,445a2.11,2.11,0,0,1-.58-.3,1.15,1.15,0,0,1-.49-1,1.25,1.25,0,0,1,.13-.57,1.43,1.43,0,0,1,.38-.47,1.93,1.93,0,0,1,.6-.33,2.35,2.35,0,0,1,.77-.12,2.39,2.39,0,0,1,1.05.22,1.7,1.7,0,0,1,.66.58,1.46,1.46,0,0,1,.23.79h-.87a.68.68,0,0,0-.13-.4.91.91,0,0,0-.36-.34,1.16,1.16,0,0,0-.58-.13,1.36,1.36,0,0,0-.58.11.77.77,0,0,0-.33.28.75.75,0,0,0-.1.36.66.66,0,0,0,.05.25.56.56,0,0,0,.18.2,1.21,1.21,0,0,0,.36.17,3.56,3.56,0,0,0,.58.16,5.16,5.16,0,0,1,1,.34,1.5,1.5,0,0,1,.6.49,1.19,1.19,0,0,1,.2.69,1.34,1.34,0,0,1-.14.61,1.23,1.23,0,0,1-.4.48,1.91,1.91,0,0,1-.62.32,2.87,2.87,0,0,1-.8.1,2.46,2.46,0,0,1-1.14-.24,1.7,1.7,0,0,1-.7-.62,1.47,1.47,0,0,1-.24-.8h.87a.86.86,0,0,0,.21.57,1.1,1.1,0,0,0,.46.29,1.7,1.7,0,0,0,.54.09,1.45,1.45,0,0,0,.59-.1.81.81,0,0,0,.37-.25.58.58,0,0,0,.13-.38M333,447.51a2.49,2.49,0,0,1-1-.18,2.13,2.13,0,0,1-.74-.51,2.36,2.36,0,0,1-.47-.78,2.86,2.86,0,0,1-.16-1v-.19a3.15,3.15,0,0,1,.18-1.11,2.45,2.45,0,0,1,.5-.83,2.17,2.17,0,0,1,.71-.51,2,2,0,0,1,.83-.18,2.28,2.28,0,0,1,.94.19,1.77,1.77,0,0,1,.65.53,2.42,2.42,0,0,1,.38.79,3.84,3.84,0,0,1,.12,1v.39h-3.8v-.71h2.93v-.07a2.23,2.23,0,0,0-.14-.66,1.23,1.23,0,0,0-.38-.52,1.06,1.06,0,0,0-.7-.21,1.14,1.14,0,0,0-.55.13,1.11,1.11,0,0,0-.42.36,1.85,1.85,0,0,0-.28.6,2.92,2.92,0,0,0-.1.82v.19a2.26,2.26,0,0,0,.1.69,1.72,1.72,0,0,0,.3.55,1.34,1.34,0,0,0,.47.38,1.47,1.47,0,0,0,.64.13,1.5,1.5,0,0,0,.78-.19,1.89,1.89,0,0,0,.56-.5l.52.42a2.63,2.63,0,0,1-.42.48,1.78,1.78,0,0,1-.62.36,2.27,2.27,0,0,1-.87.14m-7.13-6.94,1.78,3.44,1.78-3.44h1l-2.36,4.29v2.56h-.91v-2.56l-2.36-4.29Z" transform="translate(-139.29 -55.37)"/><path d="M457,454.65h43.88a12,12,0,0,1,0,24.09H457a12,12,0,0,1,0-24.09" transform="translate(-139.29 -55.37)"/><path class="cls-3" d="M485.24,465.21l1.28,4.12.15,1h-.56L484.74,466l-.11-.83Zm1.13,4.2,1.06-4.2h.86l-1.47,5.09h-.59Zm-4-4.2,1.11,4.24.08.85H483l-1.48-5.09Zm.88,4.19,1.3-4.19h.58l-.12.84-1.33,4.25h-.55Zm-4.28,1a2.45,2.45,0,0,1-1-.18,2.13,2.13,0,0,1-.74-.51,2.36,2.36,0,0,1-.47-.78,2.9,2.9,0,0,1-.17-1v-.2a3.23,3.23,0,0,1,.19-1.11,2.41,2.41,0,0,1,.5-.82,2.1,2.1,0,0,1,.71-.52,2.16,2.16,0,0,1,.83-.17,2.13,2.13,0,0,1,.94.19,1.74,1.74,0,0,1,.65.52,2.27,2.27,0,0,1,.37.8,3.42,3.42,0,0,1,.13,1V468h-3.8v-.71h2.93v-.06a2.43,2.43,0,0,0-.14-.66,1.21,1.21,0,0,0-.38-.53,1.08,1.08,0,0,0-.7-.21,1.27,1.27,0,0,0-.55.13,1.25,1.25,0,0,0-.43.37,1.66,1.66,0,0,0-.27.6,2.8,2.8,0,0,0-.1.81v.2a2.15,2.15,0,0,0,.1.68,1.75,1.75,0,0,0,.29.56,1.35,1.35,0,0,0,.48.37,1.47,1.47,0,0,0,.64.14,1.61,1.61,0,0,0,.78-.19,2,2,0,0,0,.55-.5l.53.41a2.33,2.33,0,0,1-.42.48,2.22,2.22,0,0,1-.62.37,2.56,2.56,0,0,1-.87.14m-3.58-6.95v6.85h-.92L471,465v5.28h-.9v-6.85h.9l3.46,5.3v-5.3Z" transform="translate(-139.29 -55.37)"/><path d="M457,528.72h43.88a12,12,0,0,1,0,24.09H457a12,12,0,0,1,0-24.09" transform="translate(-139.29 -55.37)"/><path class="cls-3" d="M490.19,539.29l1.32,4,.23.92-.63.32-1.87-5.19Zm1,4.56,1.41-4.56h.93l-2,5.87a3.61,3.61,0,0,1-.19.41,2.26,2.26,0,0,1-.29.42,1.51,1.51,0,0,1-.43.32,1.4,1.4,0,0,1-.6.12l-.26,0-.23,0v-.71h.23a1.41,1.41,0,0,0,.5-.08.69.69,0,0,0,.35-.26,1.49,1.49,0,0,0,.25-.49ZM488.84,540h-2.76v-.67h2.76Zm-1.08,4.42h-.87v-5.63a2,2,0,0,1,.19-.93,1.39,1.39,0,0,1,.58-.57,1.92,1.92,0,0,1,.89-.2l.3,0a1.33,1.33,0,0,1,.3.06l0,.71a.8.8,0,0,0-.23,0h-.24a.9.9,0,0,0-.48.11.72.72,0,0,0-.3.32,1.15,1.15,0,0,0-.1.52Zm-3.64-6.44a.57.57,0,0,1,.13-.36.5.5,0,0,1,.39-.15.49.49,0,0,1,.38.15.52.52,0,0,1,.13.36.51.51,0,0,1-.13.35.52.52,0,0,1-.38.14.53.53,0,0,1-.39-.14.56.56,0,0,1-.13-.35m.94,6.44h-.87v-5.09h.87Zm-5.71-2.59v.1a3.23,3.23,0,0,0,.07.71,2,2,0,0,0,.25.59,1.24,1.24,0,0,0,.42.4,1.16,1.16,0,0,0,.6.14,1.27,1.27,0,0,0,.71-.18,1.25,1.25,0,0,0,.45-.49,3.17,3.17,0,0,0,.27-.65v-1.13a2.67,2.67,0,0,0-.17-.5,1.57,1.57,0,0,0-.27-.43,1.27,1.27,0,0,0-.41-.31,1.41,1.41,0,0,0-.57-.11,1.17,1.17,0,0,0-.61.15,1.24,1.24,0,0,0-.42.4,2.1,2.1,0,0,0-.25.59,3.38,3.38,0,0,0-.07.72m-.87.1v-.1a3.53,3.53,0,0,1,.14-1.06,2.51,2.51,0,0,1,.4-.82,1.8,1.8,0,0,1,.64-.53,1.88,1.88,0,0,1,.83-.19,2,2,0,0,1,.83.17,1.53,1.53,0,0,1,.61.49,2.38,2.38,0,0,1,.4.76,4.2,4.2,0,0,1,.2,1v.43a4.2,4.2,0,0,1-.2,1,2.38,2.38,0,0,1-.4.76,1.72,1.72,0,0,1-.61.49,2,2,0,0,1-.84.16,1.74,1.74,0,0,1-.82-.19,2,2,0,0,1-.64-.54,2.61,2.61,0,0,1-.4-.82,3.42,3.42,0,0,1-.14-1m3.41,1.5v-6.24h.88v7.23H482Zm-8-1.61v.11a2.84,2.84,0,0,0,.08.72,1.88,1.88,0,0,0,.27.59,1.39,1.39,0,0,0,.46.41,1.4,1.4,0,0,0,1.26,0,1.36,1.36,0,0,0,.45-.41,1.86,1.86,0,0,0,.26-.59,2.46,2.46,0,0,0,.1-.72v-.11a2.34,2.34,0,0,0-.1-.71,1.93,1.93,0,0,0-.27-.6,1.36,1.36,0,0,0-.45-.41,1.4,1.4,0,0,0-1.26,0,1.36,1.36,0,0,0-.45.41,1.93,1.93,0,0,0-.27.6,2.71,2.71,0,0,0-.08.71m-.87.11v-.11a3,3,0,0,1,.16-1,2.13,2.13,0,0,1,.46-.82,2,2,0,0,1,.72-.55,2.32,2.32,0,0,1,1-.2,2.26,2.26,0,0,1,1,.2,2,2,0,0,1,.74.55,2.27,2.27,0,0,1,.46.82,3,3,0,0,1,.16,1v.11a3,3,0,0,1-.16,1,2.36,2.36,0,0,1-.46.82,2.07,2.07,0,0,1-.73.55,2.52,2.52,0,0,1-1.92,0,2,2,0,0,1-.73-.55,2.21,2.21,0,0,1-.46-.82,3,3,0,0,1-.16-1m-2-4.36h.77v6.85h-.9v-2.67Zm-6,0h.77l.13,4.18v2.67h-.9Zm.29,0h.87l2.24,5.58,2.24-5.58h.88l-2.78,6.85H468Z" transform="translate(-139.29 -55.37)"/><path class="cls-6" d="M157.61,431.76h36.07a12,12,0,0,1,0,24.09H157.61a12,12,0,0,1,0-24.09" transform="translate(-139.29 -55.37)"/><path class="cls-3" d="M177.63,444.82v.11a2.84,2.84,0,0,0,.09.72,1.88,1.88,0,0,0,.27.59,1.26,1.26,0,0,0,.45.41,1.34,1.34,0,0,0,.64.15,1.24,1.24,0,0,0,.62-.15,1.11,1.11,0,0,0,.45-.41,1.88,1.88,0,0,0,.27-.59,2.84,2.84,0,0,0,.1-.72v-.11a2.77,2.77,0,0,0-.1-.71,2,2,0,0,0-.27-.6,1.36,1.36,0,0,0-.45-.41,1.4,1.4,0,0,0-1.26,0,1.36,1.36,0,0,0-.45.41,2,2,0,0,0-.27.6,2.76,2.76,0,0,0-.09.71m-.87.11v-.11a3.35,3.35,0,0,1,.16-1,2.43,2.43,0,0,1,.46-.82,2.07,2.07,0,0,1,.73-.55,2.32,2.32,0,0,1,1-.2,2.26,2.26,0,0,1,1,.2,2,2,0,0,1,.73.55,2.29,2.29,0,0,1,.47.82,3.07,3.07,0,0,1,.16,1v.11a3,3,0,0,1-.16,1,2.52,2.52,0,0,1-.47.83,2.13,2.13,0,0,1-.72.54,2.52,2.52,0,0,1-1.92,0,2.21,2.21,0,0,1-.74-.54,2.69,2.69,0,0,1-.46-.83,3.3,3.3,0,0,1-.16-1m-1.24-4.36v6.85h-.91l-3.45-5.28v5.28h-.9v-6.85h.9l3.46,5.3v-5.3Z" transform="translate(-139.29 -55.37)"/></g><rect x="86.31" y="174.71" width="56.98" height="37.82"/><rect class="cls-7" x="86.31" y="174.71" width="56.98" height="37.82"/><g class="cls-2"><path class="cls-3" d="M258.29,250v.11a2.84,2.84,0,0,0,.09.72,1.88,1.88,0,0,0,.27.59,1.36,1.36,0,0,0,.45.41,1.32,1.32,0,0,0,.64.15,1.26,1.26,0,0,0,.62-.15,1.36,1.36,0,0,0,.45-.41,1.88,1.88,0,0,0,.27-.59,2.84,2.84,0,0,0,.09-.72V250a2.71,2.71,0,0,0-.09-.71,1.83,1.83,0,0,0-.27-.6,1.36,1.36,0,0,0-.45-.41,1.4,1.4,0,0,0-1.26,0,1.36,1.36,0,0,0-.45.41,1.83,1.83,0,0,0-.27.6,2.71,2.71,0,0,0-.09.71m-.87.11V250a3,3,0,0,1,.16-1,2.43,2.43,0,0,1,.46-.82,2,2,0,0,1,.73-.55,2.26,2.26,0,0,1,1-.2,2.29,2.29,0,0,1,1,.2,2,2,0,0,1,.73.55,2.29,2.29,0,0,1,.47.82,3.3,3.3,0,0,1,.16,1v.11a3.35,3.35,0,0,1-.16,1,2.38,2.38,0,0,1-.47.82,2.1,2.1,0,0,1-.73.55,2.24,2.24,0,0,1-.95.19,2.33,2.33,0,0,1-1-.19A2.2,2.2,0,0,1,258,252a2.53,2.53,0,0,1-.46-.82,3.07,3.07,0,0,1-.16-1m-.74-1.94h-2.75v-.66h2.75Zm-1.08,4.43h-.87V247a2,2,0,0,1,.2-.93,1.39,1.39,0,0,1,.58-.57,1.92,1.92,0,0,1,.89-.2l.3,0a1.33,1.33,0,0,1,.3.06l0,.71-.23,0h-.24a.9.9,0,0,0-.48.11.72.72,0,0,0-.3.32,1.14,1.14,0,0,0-.11.52Zm-5.95-2.74-.36,0a3,3,0,0,1,.16-1,2.43,2.43,0,0,1,.42-.78,1.75,1.75,0,0,1,.65-.5,1.79,1.79,0,0,1,.84-.19,2,2,0,0,1,.67.11,1.23,1.23,0,0,1,.52.32,1.31,1.31,0,0,1,.32.57,2.64,2.64,0,0,1,.12.85v3.34h-.88v-3.35a1.44,1.44,0,0,0-.11-.64.74.74,0,0,0-.35-.35,1.15,1.15,0,0,0-.55-.11,1.28,1.28,0,0,0-.59.13,1.4,1.4,0,0,0-.46.38,1.92,1.92,0,0,0-.29.55,2,2,0,0,0-.11.65m.21-1.27v4H249v-5.09h.82Zm-2.39,4h-.9v-6.85h.9Z" transform="translate(-139.29 -55.37)"/></g><path class="cls-7" d="M276.49,236.22l2.83-2.85m-2.83,0,2.83,2.85" transform="translate(-139.29 -55.37)"/><g class="cls-2"><path class="cls-4" d="M268.25,215.45l-14.41,14.43-14.41-14.43m14.41-10.23V154.69a18,18,0,0,1,18-18.05h96.08m23.42-24.06v6a18,18,0,0,1-18,18h-6m-113.5,68.58v24.06" transform="translate(-139.29 -55.37)"/><path d="M388.45,113.18a3,3,0,1,1,3,3,3,3,0,0,1-3-3" transform="translate(-139.29 -55.37)"/><path class="cls-8" d="M389.63,214.84l-14.39,14.44-14.38-14.44m14.38-10.22V149.88a13.22,13.22,0,0,1,13.19-13.24m23.37-24.06v6a18,18,0,0,1-18,18h-6M375.24,190v38.7" transform="translate(-139.29 -55.37)"/><path class="cls-9" d="M408.89,113.18a3,3,0,1,1,3,3,3,3,0,0,1-3-3" transform="translate(-139.29 -55.37)"/><path class="cls-8" d="M466.6,214.84,481,229.28l14.4-14.44M481,204.62V154.69a18,18,0,0,0-18-18.05h-9m-23.39-24.06v6a18,18,0,0,0,18,18h6M481,190v38.7" transform="translate(-139.29 -55.37)"/><path class="cls-9" d="M433.53,113.18a3,3,0,1,0-3,3,3,3,0,0,0,3-3" transform="translate(-139.29 -55.37)"/><path class="cls-8" d="M573,214.85l14.41,14.43,14.41-14.43m-14.41-10.23V154.69a18,18,0,0,0-18-18.05H475.08m-23.42-24.06v6a18,18,0,0,0,18,18h6M587.38,190v38.7" transform="translate(-139.29 -55.37)"/><path class="cls-9" d="M454.57,113.18a3,3,0,1,0-3,3,3,3,0,0,0,3-3" transform="translate(-139.29 -55.37)"/><path class="cls-9" d="M347.57,170.4h55.31a12,12,0,0,1,0,24.08H347.57a12,12,0,0,1,0-24.08" transform="translate(-139.29 -55.37)"/><path class="cls-3" d="M398.58,181l1.32,3.95.22.92-.62.32L397.63,181Zm1,4.57L401,181H402l-2,5.88a3.52,3.52,0,0,1-.19.4,1.66,1.66,0,0,1-.29.42,1.38,1.38,0,0,1-.43.32,1.24,1.24,0,0,1-.6.13l-.26,0a1.23,1.23,0,0,1-.22-.05v-.7h.24a1.5,1.5,0,0,0,.5-.08A.81.81,0,0,0,399,187a1.79,1.79,0,0,0,.25-.5Zm-2.32-4.6v.81l-.21,0h-.22a1.47,1.47,0,0,0-.53.09,1.16,1.16,0,0,0-.39.26,1.41,1.41,0,0,0-.25.41,1.91,1.91,0,0,0-.12.51l-.24.14a4,4,0,0,1,.09-.87,2.15,2.15,0,0,1,.28-.71,1.35,1.35,0,0,1,.49-.49,1.37,1.37,0,0,1,.72-.18l.21,0,.17,0m-1.59.83v4.29h-.86V181h.84Zm-5.71,1.7v.1a2.73,2.73,0,0,0,.09.72,1.93,1.93,0,0,0,.27.6,1.36,1.36,0,0,0,.45.41,1.49,1.49,0,0,0,1.26,0,1.36,1.36,0,0,0,.45-.41,1.93,1.93,0,0,0,.27-.6,2.73,2.73,0,0,0,.09-.72v-.1a2.71,2.71,0,0,0-.09-.71,1.83,1.83,0,0,0-.27-.6,1.24,1.24,0,0,0-.46-.42,1.21,1.21,0,0,0-.62-.15,1.23,1.23,0,0,0-1.08.57,1.83,1.83,0,0,0-.27.6,2.71,2.71,0,0,0-.09.71m-.87.1v-.1a3.13,3.13,0,0,1,.16-1,2.53,2.53,0,0,1,.46-.82,2,2,0,0,1,.73-.54,2.12,2.12,0,0,1,1-.2,2.17,2.17,0,0,1,1,.2,2,2,0,0,1,.73.54,2.55,2.55,0,0,1,.47.82,3.42,3.42,0,0,1,.16,1v.1a3.42,3.42,0,0,1-.16,1,2.66,2.66,0,0,1-.47.82,2.08,2.08,0,0,1-.73.54,2.26,2.26,0,0,1-1,.2,2.32,2.32,0,0,1-1-.2,2.17,2.17,0,0,1-.73-.54,2.63,2.63,0,0,1-.46-.82,3.13,3.13,0,0,1-.16-1m-4.51-.09v.09a3.24,3.24,0,0,0,.08.72,1.83,1.83,0,0,0,.24.59,1.21,1.21,0,0,0,.41.4,1.28,1.28,0,0,0,.61.14,1.19,1.19,0,0,0,.71-.19,1.3,1.3,0,0,0,.45-.48,2.85,2.85,0,0,0,.26-.65V183a2.24,2.24,0,0,0-.16-.5A1.73,1.73,0,0,0,387,182a1.27,1.27,0,0,0-.41-.31,1.41,1.41,0,0,0-.57-.11,1.13,1.13,0,0,0-1,.56,1.74,1.74,0,0,0-.24.59,3.24,3.24,0,0,0-.08.72m-.87.09v-.09a3.83,3.83,0,0,1,.14-1.06,2.56,2.56,0,0,1,.4-.83,1.66,1.66,0,0,1,.63-.52,2,2,0,0,1,1.67,0,1.59,1.59,0,0,1,.61.48,2.29,2.29,0,0,1,.4.76,4.83,4.83,0,0,1,.21,1v.43a4.87,4.87,0,0,1-.21,1,2.29,2.29,0,0,1-.4.76,1.59,1.59,0,0,1-.61.48,2,2,0,0,1-.84.17,1.76,1.76,0,0,1-.83-.2,1.79,1.79,0,0,1-.63-.54,2.51,2.51,0,0,1-.4-.82,3.72,3.72,0,0,1-.14-1m3.5-2.6H388v5a2.28,2.28,0,0,1-.27,1.15,1.76,1.76,0,0,1-.76.72,2.4,2.4,0,0,1-1.12.25,3.1,3.1,0,0,1-.62-.08,2.77,2.77,0,0,1-.7-.28,1.74,1.74,0,0,1-.56-.52l.45-.52a1.82,1.82,0,0,0,.67.54,1.72,1.72,0,0,0,.69.15,1.59,1.59,0,0,0,.72-.16,1.08,1.08,0,0,0,.46-.46,1.53,1.53,0,0,0,.17-.74v-3.91ZM381,186.15a2.5,2.5,0,0,1-1-.18,2.09,2.09,0,0,1-.73-.51,2.16,2.16,0,0,1-.47-.79,2.84,2.84,0,0,1-.17-1v-.2a3,3,0,0,1,.19-1.11,2.53,2.53,0,0,1,.49-.83A2.25,2.25,0,0,1,380,181a2.11,2.11,0,0,1,.82-.17,2.07,2.07,0,0,1,.94.19,1.7,1.7,0,0,1,.66.52,2.3,2.3,0,0,1,.37.79,3.89,3.89,0,0,1,.12,1v.39h-3.79V183h2.92V183a1.86,1.86,0,0,0-.14-.66,1.11,1.11,0,0,0-.37-.53,1.09,1.09,0,0,0-.71-.21,1.26,1.26,0,0,0-.54.13,1.08,1.08,0,0,0-.43.37,1.86,1.86,0,0,0-.28.6,3.23,3.23,0,0,0-.09.81v.2a2.48,2.48,0,0,0,.09.68,1.72,1.72,0,0,0,.3.55,1.37,1.37,0,0,0,.48.38,1.42,1.42,0,0,0,.63.14,1.55,1.55,0,0,0,.78-.19,1.9,1.9,0,0,0,.56-.5l.53.41a2.33,2.33,0,0,1-.42.48,2.22,2.22,0,0,1-.62.37,2.56,2.56,0,0,1-.87.14m-5-6.42h.87v5.06a.81.81,0,0,0,.08.39.37.37,0,0,0,.21.18,1.1,1.1,0,0,0,.27,0l.22,0,.19,0v.71a1.37,1.37,0,0,1-.27.06,1.54,1.54,0,0,1-.4,0,1.45,1.45,0,0,1-.59-.13.9.9,0,0,1-.42-.42,1.69,1.69,0,0,1-.16-.81Zm1.82,1.9h-2.75V181h2.75ZM373.63,183v.61h-.88a3.23,3.23,0,0,0-.66.06,1.75,1.75,0,0,0-.49.17.82.82,0,0,0-.41.71.93.93,0,0,0,.11.44.8.8,0,0,0,.32.31,1.15,1.15,0,0,0,.55.11,1.45,1.45,0,0,0,.7-.16,1.65,1.65,0,0,0,.48-.42.91.91,0,0,0,.2-.47l.37.42a1.17,1.17,0,0,1-.18.43,1.65,1.65,0,0,1-.39.46,2.08,2.08,0,0,1-.57.37,2,2,0,0,1-.74.14,1.88,1.88,0,0,1-.91-.21,1.56,1.56,0,0,1-.6-.54,1.43,1.43,0,0,1-.21-.76,1.47,1.47,0,0,1,.16-.72,1.36,1.36,0,0,1,.46-.52,2.17,2.17,0,0,1,.72-.33,4,4,0,0,1,.95-.1Zm-.15,2.21v-2.62a1,1,0,0,0-.13-.52.74.74,0,0,0-.35-.35,1.32,1.32,0,0,0-.59-.12,1.46,1.46,0,0,0-.58.11,1.1,1.1,0,0,0-.39.3.63.63,0,0,0-.13.39h-.87a1.09,1.09,0,0,1,.14-.54,1.51,1.51,0,0,1,.4-.48,1.88,1.88,0,0,1,.64-.35,2.47,2.47,0,0,1,.84-.13,2.27,2.27,0,0,1,1,.19,1.39,1.39,0,0,1,.67.57,1.7,1.7,0,0,1,.24.94v2.37a3.5,3.5,0,0,0,.05.54,2,2,0,0,0,.13.5v.07h-.9a1.5,1.5,0,0,1-.11-.4,4,4,0,0,1,0-.47m-6,.25a1.2,1.2,0,0,0,.57-.13,1.12,1.12,0,0,0,.43-.34,1,1,0,0,0,.2-.52h.82a1.49,1.49,0,0,1-.3.85,2.21,2.21,0,0,1-.73.62,2.07,2.07,0,0,1-1,.24,2.23,2.23,0,0,1-1-.21,1.92,1.92,0,0,1-.71-.55,2.58,2.58,0,0,1-.41-.81,3.12,3.12,0,0,1-.14-1v-.2a3.08,3.08,0,0,1,.14-1,2.38,2.38,0,0,1,.41-.81,2.06,2.06,0,0,1,.71-.56,2.38,2.38,0,0,1,1-.2,2.16,2.16,0,0,1,1,.24,1.78,1.78,0,0,1,.7.66,1.88,1.88,0,0,1,.28.94h-.82a1.36,1.36,0,0,0-.18-.57,1.21,1.21,0,0,0-1-.56,1.35,1.35,0,0,0-.67.16,1.26,1.26,0,0,0-.43.43,2.13,2.13,0,0,0-.23.58,3.68,3.68,0,0,0-.06.66v.2a3.49,3.49,0,0,0,.06.65,2.06,2.06,0,0,0,.22.59,1.26,1.26,0,0,0,.43.43,1.4,1.4,0,0,0,.68.15m-4-1.87v-.09a3.26,3.26,0,0,0-.07-.72,2,2,0,0,0-.22-.59,1.13,1.13,0,0,0-1-.56,1.41,1.41,0,0,0-.57.11,1.27,1.27,0,0,0-.41.31,2.12,2.12,0,0,0-.28.43,2.88,2.88,0,0,0-.15.5v1.14a2.41,2.41,0,0,0,.24.63,1.57,1.57,0,0,0,.46.5,1.38,1.38,0,0,0,.72.19,1.21,1.21,0,0,0,.6-.14,1.12,1.12,0,0,0,.41-.4,1.83,1.83,0,0,0,.24-.59,3.26,3.26,0,0,0,.07-.72m.88-.09v.09a3.72,3.72,0,0,1-.14,1,2.3,2.3,0,0,1-.38.82,1.68,1.68,0,0,1-.62.54,1.8,1.8,0,0,1-.84.2,2,2,0,0,1-.85-.17,1.59,1.59,0,0,1-.61-.48,2.49,2.49,0,0,1-.4-.76,4.3,4.3,0,0,1-.2-1v-.43a4.29,4.29,0,0,1,.2-1,2.49,2.49,0,0,1,.4-.76,1.59,1.59,0,0,1,.61-.48,1.86,1.86,0,0,1,.84-.17,1.8,1.8,0,0,1,.85.19,1.63,1.63,0,0,1,.62.52,2.35,2.35,0,0,1,.38.83,3.83,3.83,0,0,1,.14,1.06M360,178.83h.87v6.23l-.07,1H360Zm-2,5h.36a3.59,3.59,0,0,1-.11,1,2.17,2.17,0,0,1-.33.74,1.67,1.67,0,0,1-.62.49,2.13,2.13,0,0,1-.92.18,2.17,2.17,0,0,1-.69-.11,1.36,1.36,0,0,1-.52-.33,1.55,1.55,0,0,1-.34-.59,2.77,2.77,0,0,1-.12-.87V181h.87v3.3a1.89,1.89,0,0,0,.07.57,1.09,1.09,0,0,0,.21.35.92.92,0,0,0,.3.18,1.41,1.41,0,0,0,.35,0,1.61,1.61,0,0,0,.88-.21,1.19,1.19,0,0,0,.46-.58,2.18,2.18,0,0,0,.15-.82m-.16,1.08V181h.87v5.09h-.83Zm-5.05-.56a1.09,1.09,0,0,0-.07-.42.84.84,0,0,0-.26-.34,2,2,0,0,0-.49-.29c-.21-.09-.48-.18-.8-.28a7.49,7.49,0,0,1-.92-.33,3.19,3.19,0,0,1-.7-.43,1.65,1.65,0,0,1-.44-.55A1.49,1.49,0,0,1,349,181a1.67,1.67,0,0,1,.16-.74,1.74,1.74,0,0,1,.47-.58,2.29,2.29,0,0,1,.74-.4,3.16,3.16,0,0,1,.95-.14,2.76,2.76,0,0,1,1.31.29,2.18,2.18,0,0,1,.82.77,1.93,1.93,0,0,1,.28,1h-.9a1.34,1.34,0,0,0-.16-.68,1.14,1.14,0,0,0-.5-.47,1.76,1.76,0,0,0-.85-.18,1.82,1.82,0,0,0-.79.15,1.09,1.09,0,0,0-.47.39,1.1,1.1,0,0,0-.15.57.87.87,0,0,0,.09.4,1,1,0,0,0,.28.32,2.54,2.54,0,0,0,.5.28,4.46,4.46,0,0,0,.73.24,6.64,6.64,0,0,1,1,.37,2.74,2.74,0,0,1,.7.46,1.54,1.54,0,0,1,.41.57,1.8,1.8,0,0,1,.13.71,1.6,1.6,0,0,1-.17.76,1.58,1.58,0,0,1-.48.58,2.34,2.34,0,0,1-.76.37,3.61,3.61,0,0,1-1,.13,3.74,3.74,0,0,1-.94-.13,2.77,2.77,0,0,1-.83-.4,2.19,2.19,0,0,1-.6-.65,1.87,1.87,0,0,1-.22-.9h.91a1.17,1.17,0,0,0,.5,1,1.65,1.65,0,0,0,.54.24,2.74,2.74,0,0,0,.64.08,2.35,2.35,0,0,0,.8-.13,1.09,1.09,0,0,0,.5-.38,1,1,0,0,0,.17-.58" transform="translate(-139.29 -55.37)"/><path class="cls-9" d="M453.37,170.4h55.31a12,12,0,0,1,0,24.08H453.37a12,12,0,0,1,0-24.08" transform="translate(-139.29 -55.37)"/><path class="cls-3" d="M504.38,181l1.32,3.95.23.92-.63.32L503.43,181Zm1,4.57,1.41-4.57h.93l-2,5.88a3.34,3.34,0,0,1-.18.4,2.42,2.42,0,0,1-.29.42,1.43,1.43,0,0,1-.44.32,1.2,1.2,0,0,1-.59.13l-.27,0a1.23,1.23,0,0,1-.22-.05v-.7H504a1.46,1.46,0,0,0,.5-.08.81.81,0,0,0,.35-.26,1.55,1.55,0,0,0,.25-.5Zm-2.32-4.6v.81l-.21,0h-.21a1.44,1.44,0,0,0-.53.09,1,1,0,0,0-.39.26,1.43,1.43,0,0,0-.26.41,1.91,1.91,0,0,0-.12.51l-.24.14a4,4,0,0,1,.09-.87,2.16,2.16,0,0,1,.29-.71,1.33,1.33,0,0,1,.48-.49,1.4,1.4,0,0,1,.72-.18l.21,0a.7.7,0,0,1,.17,0m-1.58.83v4.29h-.87V181h.84Zm-5.72,1.7v.1a2.73,2.73,0,0,0,.09.72,1.93,1.93,0,0,0,.27.6,1.36,1.36,0,0,0,.45.41,1.47,1.47,0,0,0,.64.14,1.38,1.38,0,0,0,.62-.14,1.36,1.36,0,0,0,.45-.41,1.93,1.93,0,0,0,.27-.6,2.73,2.73,0,0,0,.09-.72v-.1a2.71,2.71,0,0,0-.09-.71,1.83,1.83,0,0,0-.27-.6,1.29,1.29,0,0,0-2.16,0,1.83,1.83,0,0,0-.27.6,2.71,2.71,0,0,0-.09.71m-.87.1v-.1a3.13,3.13,0,0,1,.16-1,2.53,2.53,0,0,1,.46-.82,2,2,0,0,1,.73-.54,2.12,2.12,0,0,1,1-.2,2.14,2.14,0,0,1,1,.2,2,2,0,0,1,.73.54,2.38,2.38,0,0,1,.47.82,3.42,3.42,0,0,1,.16,1v.1a3.42,3.42,0,0,1-.16,1,2.47,2.47,0,0,1-.47.82,2.13,2.13,0,0,1-.72.54,2.43,2.43,0,0,1-1.93,0,2.28,2.28,0,0,1-.73-.54,2.63,2.63,0,0,1-.46-.82,3.13,3.13,0,0,1-.16-1m-4.51-.09v.09a3.24,3.24,0,0,0,.08.72,1.83,1.83,0,0,0,.24.59,1.31,1.31,0,0,0,1.74.35,1.36,1.36,0,0,0,.44-.48,2.87,2.87,0,0,0,.27-.65V183a2.27,2.27,0,0,0-.17-.5,1.48,1.48,0,0,0-.27-.43,1.17,1.17,0,0,0-.41-.31,1.41,1.41,0,0,0-.57-.11,1.17,1.17,0,0,0-.61.15,1.27,1.27,0,0,0-.42.41,1.74,1.74,0,0,0-.24.59,3.24,3.24,0,0,0-.08.72m-.87.09v-.09a3.83,3.83,0,0,1,.14-1.06,2.56,2.56,0,0,1,.4-.83,1.74,1.74,0,0,1,.63-.52,1.79,1.79,0,0,1,.84-.19,1.86,1.86,0,0,1,.84.17,1.67,1.67,0,0,1,.61.48,2.49,2.49,0,0,1,.4.76,5.59,5.59,0,0,1,.2,1v.43a4.88,4.88,0,0,1-.2,1,2.49,2.49,0,0,1-.4.76,1.67,1.67,0,0,1-.61.48,2.08,2.08,0,0,1-.85.17,1.8,1.8,0,0,1-1.46-.74,2.51,2.51,0,0,1-.4-.82,3.72,3.72,0,0,1-.14-1m3.5-2.6h.79v5a2.28,2.28,0,0,1-.27,1.15,1.76,1.76,0,0,1-.76.72,2.37,2.37,0,0,1-1.12.25,3.19,3.19,0,0,1-.62-.08,2.71,2.71,0,0,1-.69-.28,1.67,1.67,0,0,1-.57-.52l.45-.52a1.9,1.9,0,0,0,.67.54,1.8,1.8,0,0,0,.7.15,1.58,1.58,0,0,0,.71-.16,1.08,1.08,0,0,0,.46-.46A1.42,1.42,0,0,0,493,186v-3.91Zm-6.28,5.19a2.45,2.45,0,0,1-1-.18,2.13,2.13,0,0,1-.74-.51,2.3,2.3,0,0,1-.47-.79,2.84,2.84,0,0,1-.17-1v-.2a3.19,3.19,0,0,1,.19-1.11,2.56,2.56,0,0,1,.5-.83,2.21,2.21,0,0,1,.71-.51,2.16,2.16,0,0,1,.83-.17,2.13,2.13,0,0,1,.94.19,1.74,1.74,0,0,1,.65.52,2.3,2.3,0,0,1,.37.79,3.49,3.49,0,0,1,.13,1v.39H485V183h2.93V183a2.1,2.1,0,0,0-.14-.66,1.21,1.21,0,0,0-.38-.53,1.08,1.08,0,0,0-.7-.21,1.27,1.27,0,0,0-.55.13,1.15,1.15,0,0,0-.43.37,1.85,1.85,0,0,0-.27.6,2.8,2.8,0,0,0-.1.81v.2a2.15,2.15,0,0,0,.1.68,1.7,1.7,0,0,0,.29.55,1.37,1.37,0,0,0,.48.38,1.47,1.47,0,0,0,.64.14,1.61,1.61,0,0,0,.78-.19,2,2,0,0,0,.55-.5l.53.41a2.33,2.33,0,0,1-.42.48,2.08,2.08,0,0,1-.62.37,2.56,2.56,0,0,1-.87.14m-4.95-6.42h.87v5.06a.81.81,0,0,0,.08.39.4.4,0,0,0,.21.18,1.1,1.1,0,0,0,.27,0l.23,0,.18,0v.71a1.33,1.33,0,0,1-.28.06,1.54,1.54,0,0,1-.4,0,1.41,1.41,0,0,1-.58-.13.92.92,0,0,1-.43-.42,1.82,1.82,0,0,1-.16-.81Zm1.82,1.9h-2.75V181h2.75ZM479.43,183v.61h-.88a3.23,3.23,0,0,0-.66.06,1.75,1.75,0,0,0-.49.17.86.86,0,0,0-.3.3.78.78,0,0,0-.1.41.92.92,0,0,0,.1.44.83.83,0,0,0,.33.31,1.11,1.11,0,0,0,.54.11,1.45,1.45,0,0,0,.7-.16,1.57,1.57,0,0,0,.49-.42.89.89,0,0,0,.19-.47l.37.42a1.32,1.32,0,0,1-.17.43,2.07,2.07,0,0,1-.39.46,2,2,0,0,1-.58.37,2.05,2.05,0,0,1-1.65-.07,1.56,1.56,0,0,1-.6-.54,1.43,1.43,0,0,1-.21-.76,1.47,1.47,0,0,1,.16-.72,1.36,1.36,0,0,1,.46-.52,2.17,2.17,0,0,1,.72-.33,4,4,0,0,1,.95-.1Zm-.15,2.21v-2.62a1.08,1.08,0,0,0-.12-.52.81.81,0,0,0-.36-.35,1.32,1.32,0,0,0-.59-.12,1.5,1.5,0,0,0-.58.11,1.19,1.19,0,0,0-.39.3.63.63,0,0,0-.13.39h-.87a1.21,1.21,0,0,1,.14-.54,1.65,1.65,0,0,1,.4-.48,2,2,0,0,1,.64-.35,2.47,2.47,0,0,1,.84-.13,2.35,2.35,0,0,1,1,.19,1.41,1.41,0,0,1,.66.57,1.63,1.63,0,0,1,.25.94v2.37a3.44,3.44,0,0,0,0,.54,2,2,0,0,0,.14.5v.07h-.91a1.54,1.54,0,0,1-.1-.4,2.63,2.63,0,0,1,0-.47m-6,.25a1.2,1.2,0,0,0,.57-.13,1.24,1.24,0,0,0,.44-.34,1,1,0,0,0,.19-.52h.83a1.58,1.58,0,0,1-.31.85,2.21,2.21,0,0,1-.73.62,2.07,2.07,0,0,1-1,.24,2.26,2.26,0,0,1-1-.21,1.81,1.81,0,0,1-.7-.55,2.41,2.41,0,0,1-.42-.81,3.45,3.45,0,0,1-.14-1v-.2a3.39,3.39,0,0,1,.14-1,2.23,2.23,0,0,1,.42-.81,1.93,1.93,0,0,1,.7-.56,2.41,2.41,0,0,1,1-.2,2.13,2.13,0,0,1,1,.24,1.78,1.78,0,0,1,.7.66,1.89,1.89,0,0,1,.29.94h-.83a1.36,1.36,0,0,0-.18-.57,1.12,1.12,0,0,0-.41-.4,1.13,1.13,0,0,0-.61-.16,1.35,1.35,0,0,0-.67.16,1.26,1.26,0,0,0-.43.43,1.84,1.84,0,0,0-.22.58,3,3,0,0,0-.07.66v.2a2.81,2.81,0,0,0,.07.65,1.61,1.61,0,0,0,.22.59,1.24,1.24,0,0,0,.42.43,1.42,1.42,0,0,0,.68.15m-4-1.87v-.09a3.24,3.24,0,0,0-.08-.72,1.72,1.72,0,0,0-.22-.59,1.15,1.15,0,0,0-.41-.41,1.21,1.21,0,0,0-.62-.15,1.5,1.5,0,0,0-.58.11,1.39,1.39,0,0,0-.41.31,1.73,1.73,0,0,0-.27.43,2.91,2.91,0,0,0-.16.5v1.14a2.13,2.13,0,0,0,.25.63,1.47,1.47,0,0,0,.46.5,1.33,1.33,0,0,0,.72.19,1.27,1.27,0,0,0,.6-.14,1.1,1.1,0,0,0,.4-.4,1.83,1.83,0,0,0,.24-.59,3.24,3.24,0,0,0,.08-.72m.87-.09v.09a4.15,4.15,0,0,1-.13,1,2.5,2.5,0,0,1-.39.82,1.6,1.6,0,0,1-.62.54,1.74,1.74,0,0,1-.84.2,2,2,0,0,1-.85-.17,1.67,1.67,0,0,1-.61-.48,2.49,2.49,0,0,1-.4-.76,4.88,4.88,0,0,1-.2-1v-.43a4.85,4.85,0,0,1,.2-1,2.49,2.49,0,0,1,.4-.76,1.67,1.67,0,0,1,.61-.48,1.86,1.86,0,0,1,.84-.17,1.8,1.8,0,0,1,.85.19,1.56,1.56,0,0,1,.62.52,2.55,2.55,0,0,1,.39.83,4.27,4.27,0,0,1,.13,1.06m-4.31-4.64h.87v6.23l-.07,1h-.8Zm-2,5h.36a4.07,4.07,0,0,1-.1,1,2.19,2.19,0,0,1-.34.74,1.59,1.59,0,0,1-.62.49,2.13,2.13,0,0,1-.92.18,2.06,2.06,0,0,1-.68-.11,1.32,1.32,0,0,1-.53-.33,1.55,1.55,0,0,1-.34-.59,2.77,2.77,0,0,1-.12-.87V181h.87v3.3a1.89,1.89,0,0,0,.07.57,1.1,1.1,0,0,0,.22.35.92.92,0,0,0,.3.18,1.33,1.33,0,0,0,.34,0,1.59,1.59,0,0,0,.88-.21,1.27,1.27,0,0,0,.47-.58,2.39,2.39,0,0,0,.14-.82m-.16,1.08V181h.87v5.09h-.83Zm-5-.56a1.09,1.09,0,0,0-.07-.42.81.81,0,0,0-.25-.34,2.06,2.06,0,0,0-.5-.29c-.21-.09-.48-.18-.8-.28a8.14,8.14,0,0,1-.92-.33,3.19,3.19,0,0,1-.7-.43,1.65,1.65,0,0,1-.44-.55,1.49,1.49,0,0,1-.16-.71,1.68,1.68,0,0,1,.17-.74,1.63,1.63,0,0,1,.47-.58,2.15,2.15,0,0,1,.73-.4,3.22,3.22,0,0,1,1-.14,2.72,2.72,0,0,1,1.3.29,2.11,2.11,0,0,1,.82.77,1.94,1.94,0,0,1,.29,1h-.9a1.34,1.34,0,0,0-.17-.68,1.14,1.14,0,0,0-.5-.47,1.74,1.74,0,0,0-.84-.18,1.84,1.84,0,0,0-.8.15,1.09,1.09,0,0,0-.47.39,1.1,1.1,0,0,0-.15.57.87.87,0,0,0,.09.4,1.07,1.07,0,0,0,.29.32,2.44,2.44,0,0,0,.49.28,4.81,4.81,0,0,0,.73.24,7.24,7.24,0,0,1,1,.37,2.85,2.85,0,0,1,.69.46,1.44,1.44,0,0,1,.41.57,1.8,1.8,0,0,1,.14.71,1.73,1.73,0,0,1-.17.76,1.71,1.71,0,0,1-.49.58,2.39,2.39,0,0,1-.75.37,3.69,3.69,0,0,1-1,.13,3.6,3.6,0,0,1-.93-.13,2.71,2.71,0,0,1-.84-.4,2.16,2.16,0,0,1-.59-.65,1.77,1.77,0,0,1-.22-.9h.9a1.24,1.24,0,0,0,.13.6,1.28,1.28,0,0,0,.38.42,1.65,1.65,0,0,0,.54.24,2.59,2.59,0,0,0,.63.08,2.31,2.31,0,0,0,.8-.13,1.09,1.09,0,0,0,.5-.38,1,1,0,0,0,.17-.58" transform="translate(-139.29 -55.37)"/><path class="cls-9" d="M559.78,171h55.3a12,12,0,0,1,0,24.09h-55.3a12,12,0,0,1,0-24.09" transform="translate(-139.29 -55.37)"/><path class="cls-3" d="M610.78,181.56l1.32,4,.23.91-.62.32-1.87-5.19Zm1,4.57,1.42-4.57h.93l-2,5.88a3.61,3.61,0,0,1-.19.41,2.19,2.19,0,0,1-.29.41,1.24,1.24,0,0,1-.43.32,1.26,1.26,0,0,1-.6.13l-.26,0-.23,0v-.71h.23a1.41,1.41,0,0,0,.5-.08.75.75,0,0,0,.35-.26,1.49,1.49,0,0,0,.25-.49Zm-2.31-4.59v.81l-.2,0h-.22a1.44,1.44,0,0,0-.53.09,1.05,1.05,0,0,0-.39.27,1.09,1.09,0,0,0-.25.4,1.91,1.91,0,0,0-.12.51l-.25.14a4,4,0,0,1,.09-.87,2.52,2.52,0,0,1,.29-.71,1.44,1.44,0,0,1,.49-.49,1.36,1.36,0,0,1,.71-.18l.22,0a.71.71,0,0,1,.17,0m-1.59.82v4.3h-.87v-5.1h.85Zm-5.72,1.7v.11a2.84,2.84,0,0,0,.09.72,1.88,1.88,0,0,0,.27.59,1.39,1.39,0,0,0,.46.41,1.49,1.49,0,0,0,1.26,0,1.36,1.36,0,0,0,.45-.41,1.86,1.86,0,0,0,.26-.59,2.46,2.46,0,0,0,.1-.72v-.11a2.34,2.34,0,0,0-.1-.71,1.65,1.65,0,0,0-.27-.6,1.26,1.26,0,0,0-.45-.41,1.4,1.4,0,0,0-1.26,0,1.26,1.26,0,0,0-.45.41,1.83,1.83,0,0,0-.27.6,2.71,2.71,0,0,0-.09.71m-.86.11v-.11a3,3,0,0,1,.16-1,2.4,2.4,0,0,1,.46-.83,2.13,2.13,0,0,1,.72-.54,2.32,2.32,0,0,1,1-.2,2.26,2.26,0,0,1,1,.2,2.12,2.12,0,0,1,.74.54,2.58,2.58,0,0,1,.46.83,3,3,0,0,1,.16,1v.11a3.11,3.11,0,0,1-.16,1,2.53,2.53,0,0,1-.46.82,2.34,2.34,0,0,1-.73.55A2.25,2.25,0,0,1,602,186a2.36,2.36,0,0,1-.46-.82,3.11,3.11,0,0,1-.16-1m-4.51-.1v.1a3.23,3.23,0,0,0,.07.71,2.43,2.43,0,0,0,.24.59,1.24,1.24,0,0,0,.42.4,1.28,1.28,0,0,0,.61.14,1.22,1.22,0,0,0,1.16-.67,2.85,2.85,0,0,0,.26-.65v-1.14a2.81,2.81,0,0,0-.16-.49,1.62,1.62,0,0,0-.27-.44,1.12,1.12,0,0,0-.41-.3,1.34,1.34,0,0,0-.58-.12,1.2,1.2,0,0,0-.61.15,1.27,1.27,0,0,0-.42.41,2.43,2.43,0,0,0-.24.59,3.26,3.26,0,0,0-.07.72m-.87.1v-.1a3.9,3.9,0,0,1,.13-1.06,2.61,2.61,0,0,1,.4-.82,1.8,1.8,0,0,1,.64-.53,1.72,1.72,0,0,1,.83-.19,2,2,0,0,1,.84.17,1.67,1.67,0,0,1,.61.48,2.44,2.44,0,0,1,.4.77,4.63,4.63,0,0,1,.2,1v.43a4.3,4.3,0,0,1-.2,1,2.38,2.38,0,0,1-.4.76,1.81,1.81,0,0,1-.61.49,2.18,2.18,0,0,1-.85.16,1.71,1.71,0,0,1-.82-.19,1.82,1.82,0,0,1-.63-.54,2.74,2.74,0,0,1-.41-.82,3.77,3.77,0,0,1-.13-1m3.5-2.61h.79v5a2.24,2.24,0,0,1-.28,1.14,1.71,1.71,0,0,1-.76.72,2.34,2.34,0,0,1-1.12.25,2.56,2.56,0,0,1-.62-.08,2.51,2.51,0,0,1-.69-.28,1.77,1.77,0,0,1-.57-.52l.46-.52A1.67,1.67,0,0,0,598,188a1.46,1.46,0,0,0,.71-.16,1,1,0,0,0,.47-.46,1.53,1.53,0,0,0,.17-.74v-3.91Zm-6.29,5.19a2.49,2.49,0,0,1-1-.18,2.23,2.23,0,0,1-.74-.51,2.36,2.36,0,0,1-.47-.78,2.86,2.86,0,0,1-.16-1v-.2A3.13,3.13,0,0,1,591,183a2.36,2.36,0,0,1,.5-.83,2.2,2.2,0,0,1,.71-.52,2.16,2.16,0,0,1,.83-.17,2.1,2.1,0,0,1,.94.19,1.61,1.61,0,0,1,.65.53,2.15,2.15,0,0,1,.38.79,3.81,3.81,0,0,1,.12,1v.4h-3.79v-.72h2.92v-.06a2.1,2.1,0,0,0-.14-.66,1.18,1.18,0,0,0-.38-.53,1.06,1.06,0,0,0-.7-.2,1.19,1.19,0,0,0-.54.12,1.17,1.17,0,0,0-.43.37,1.86,1.86,0,0,0-.28.6,3.2,3.2,0,0,0-.1.81v.2a2.48,2.48,0,0,0,.1.68,1.77,1.77,0,0,0,.3.56,1.4,1.4,0,0,0,.47.37,1.62,1.62,0,0,0,1.42-.05,1.89,1.89,0,0,0,.56-.5l.52.42a2.51,2.51,0,0,1-.41.47,2.14,2.14,0,0,1-.63.37,2.48,2.48,0,0,1-.87.14m-4.94-6.42h.87v5.06a.73.73,0,0,0,.08.4.41.41,0,0,0,.2.17,1.09,1.09,0,0,0,.5,0l.18,0v.72l-.27.06a2.33,2.33,0,0,1-.4,0,1.28,1.28,0,0,1-.59-.13.92.92,0,0,1-.43-.42,1.83,1.83,0,0,1-.15-.81Zm1.82,1.9H587.3v-.67h2.75Zm-4.22,1.34v.61H585a3.37,3.37,0,0,0-.66.06,1.56,1.56,0,0,0-.49.18.76.76,0,0,0-.3.29.78.78,0,0,0-.1.41.93.93,0,0,0,.11.44.74.74,0,0,0,.32.31,1.13,1.13,0,0,0,.54.12,1.49,1.49,0,0,0,.71-.17,1.4,1.4,0,0,0,.48-.42.91.91,0,0,0,.2-.47l.37.42a1.2,1.2,0,0,1-.18.44,2.65,2.65,0,0,1-.39.46,2.31,2.31,0,0,1-.57.36,2,2,0,0,1-.75.14,2,2,0,0,1-.9-.2,1.58,1.58,0,0,1-.6-.54,1.46,1.46,0,0,1-.21-.77,1.53,1.53,0,0,1,.16-.72,1.27,1.27,0,0,1,.46-.52,2.16,2.16,0,0,1,.72-.32,3.42,3.42,0,0,1,.94-.11Zm-.15,2.22v-2.63a1.08,1.08,0,0,0-.12-.52.87.87,0,0,0-.36-.35,1.29,1.29,0,0,0-.59-.12,1.5,1.5,0,0,0-.58.11,1.06,1.06,0,0,0-.38.3.65.65,0,0,0-.14.4h-.87a1.21,1.21,0,0,1,.14-.55,1.67,1.67,0,0,1,.41-.48,2.07,2.07,0,0,1,.64-.35,2.45,2.45,0,0,1,.83-.13,2.32,2.32,0,0,1,1,.19,1.43,1.43,0,0,1,.67.57,1.7,1.7,0,0,1,.24.94v2.38c0,.16,0,.34,0,.54a2,2,0,0,0,.14.49v.08h-.91a1.66,1.66,0,0,1-.1-.4,2.71,2.71,0,0,1,0-.47m-6,.24a1.4,1.4,0,0,0,.58-.12,1.23,1.23,0,0,0,.43-.35.94.94,0,0,0,.19-.51h.83a1.57,1.57,0,0,1-.31.84,2,2,0,0,1-.72.62,2.11,2.11,0,0,1-1,.24,2.41,2.41,0,0,1-1-.2,2,2,0,0,1-.7-.56,2.59,2.59,0,0,1-.42-.81,3.39,3.39,0,0,1-.13-1V184a3.44,3.44,0,0,1,.13-1,2.59,2.59,0,0,1,.42-.81,2,2,0,0,1,.7-.56,2.41,2.41,0,0,1,1-.2,2.2,2.2,0,0,1,1.05.24,1.93,1.93,0,0,1,.7.66,2,2,0,0,1,.28.94h-.83a1.06,1.06,0,0,0-.18-.56,1.08,1.08,0,0,0-.41-.41,1.17,1.17,0,0,0-.61-.15,1.28,1.28,0,0,0-.67.16,1.06,1.06,0,0,0-.42.42,1.91,1.91,0,0,0-.23.59,3.5,3.5,0,0,0-.07.65v.2a3.7,3.7,0,0,0,.07.66,2,2,0,0,0,.22.59,1.33,1.33,0,0,0,.43.42,1.38,1.38,0,0,0,.67.15m-4-1.86v-.1a4,4,0,0,0-.07-.72,1.82,1.82,0,0,0-.23-.59,1.15,1.15,0,0,0-.41-.41,1.19,1.19,0,0,0-.62-.15,1.26,1.26,0,0,0-.57.12,1.12,1.12,0,0,0-.41.3,1.65,1.65,0,0,0-.28.44,2.13,2.13,0,0,0-.15.49v1.14a2.41,2.41,0,0,0,.24.63,1.57,1.57,0,0,0,.46.5,1.25,1.25,0,0,0,.72.19,1.27,1.27,0,0,0,.6-.14,1.12,1.12,0,0,0,.41-.4,1.82,1.82,0,0,0,.23-.59,3.22,3.22,0,0,0,.08-.71m.87-.1v.1a3.77,3.77,0,0,1-.13,1,2.94,2.94,0,0,1-.38.82,1.88,1.88,0,0,1-.62.54,1.8,1.8,0,0,1-.85.19,2.26,2.26,0,0,1-.85-.16,1.81,1.81,0,0,1-.61-.49,2.59,2.59,0,0,1-.39-.76,4.87,4.87,0,0,1-.21-1v-.43a4.6,4.6,0,0,1,.21-1,2.65,2.65,0,0,1,.39-.77,1.67,1.67,0,0,1,.61-.48,2.08,2.08,0,0,1,.85-.17,1.83,1.83,0,0,1,.85.19,1.74,1.74,0,0,1,.62.53,2.59,2.59,0,0,1,.38.82,3.9,3.9,0,0,1,.13,1.06m-4.3-4.64h.87v6.24l-.08,1h-.79Zm-2,5h.36a4,4,0,0,1-.11.94,2,2,0,0,1-.34.74,1.58,1.58,0,0,1-.61.5,2.38,2.38,0,0,1-.93.17,2.11,2.11,0,0,1-.68-.11,1.39,1.39,0,0,1-.53-.33,1.61,1.61,0,0,1-.34-.59,2.77,2.77,0,0,1-.12-.87v-3.29h.87v3.3a1.82,1.82,0,0,0,.08.57.86.86,0,0,0,.21.35.78.78,0,0,0,.3.18,1.34,1.34,0,0,0,.35,0,1.61,1.61,0,0,0,.88-.21,1.2,1.2,0,0,0,.46-.58,2.12,2.12,0,0,0,.15-.81m-.17,1.07v-3.92h.88v5.1h-.84Zm-5-.56a1.08,1.08,0,0,0-.08-.42.79.79,0,0,0-.25-.34,2.45,2.45,0,0,0-.5-.29,6.14,6.14,0,0,0-.8-.27,6,6,0,0,1-.91-.34,2.52,2.52,0,0,1-.7-.43,1.56,1.56,0,0,1-.45-.55,1.58,1.58,0,0,1-.15-.71,1.63,1.63,0,0,1,.16-.73,1.68,1.68,0,0,1,.47-.59,2.38,2.38,0,0,1,.74-.4,3.11,3.11,0,0,1,1-.14,2.67,2.67,0,0,1,1.31.3,2.08,2.08,0,0,1,.82.76,1.93,1.93,0,0,1,.28,1H565a1.37,1.37,0,0,0-.17-.68,1.12,1.12,0,0,0-.49-.47,1.81,1.81,0,0,0-.85-.18,1.87,1.87,0,0,0-.8.15,1.1,1.1,0,0,0-.47.4,1,1,0,0,0-.15.56.87.87,0,0,0,.09.4,1,1,0,0,0,.29.32,2.12,2.12,0,0,0,.5.28,5.41,5.41,0,0,0,.72.25,6.85,6.85,0,0,1,1,.36,2.85,2.85,0,0,1,.69.46,1.48,1.48,0,0,1,.41.57,1.8,1.8,0,0,1,.14.71,1.7,1.7,0,0,1-.17.76,1.58,1.58,0,0,1-.48.58,2.45,2.45,0,0,1-.76.37,3.57,3.57,0,0,1-1.91,0,2.77,2.77,0,0,1-.83-.4,2,2,0,0,1-.6-.65,1.77,1.77,0,0,1-.22-.9h.9a1.28,1.28,0,0,0,.14.61,1.21,1.21,0,0,0,.37.41,1.91,1.91,0,0,0,.54.25,2.59,2.59,0,0,0,.63.07,2.15,2.15,0,0,0,.81-.13,1,1,0,0,0,.49-.38.93.93,0,0,0,.18-.58" transform="translate(-139.29 -55.37)"/><path class="cls-4" d="M296.48,486.49h72V520.2h-72Zm50.43-15L332.5,485.89l-14.41-14.44M332.5,455.8v29.49m-112.26-56-14.41,14.44,14.41,14.45m34.22-80.65v30.09a36.06,36.06,0,0,1-36,36.11h-12m82.24-14.44,14.41,14.44-14.41,14.45m-34.21-80.65v30.09a36.05,36.05,0,0,0,36,36.11h12" transform="translate(-139.29 -55.37)"/><path d="M350.42,504v.61h-.88a3.23,3.23,0,0,0-.66.06,1.48,1.48,0,0,0-.49.18.7.7,0,0,0-.3.29.78.78,0,0,0-.11.41.93.93,0,0,0,.11.44.74.74,0,0,0,.32.31,1.13,1.13,0,0,0,.54.12,1.46,1.46,0,0,0,.71-.17,1.52,1.52,0,0,0,.48-.42.83.83,0,0,0,.2-.47l.37.42a1.17,1.17,0,0,1-.18.43,1.84,1.84,0,0,1-.39.47,2.31,2.31,0,0,1-.57.36,2,2,0,0,1-.74.14,2,2,0,0,1-.91-.2,1.58,1.58,0,0,1-.6-.54,1.46,1.46,0,0,1-.21-.77,1.53,1.53,0,0,1,.16-.72,1.36,1.36,0,0,1,.46-.52,2.16,2.16,0,0,1,.72-.32,3.49,3.49,0,0,1,1-.11Zm-.15,2.21v-2.62a1,1,0,0,0-.13-.52.74.74,0,0,0-.35-.35,1.34,1.34,0,0,0-.6-.12,1.45,1.45,0,0,0-.57.11,1.1,1.1,0,0,0-.39.3.64.64,0,0,0-.13.4h-.87a1.1,1.1,0,0,1,.14-.55,1.63,1.63,0,0,1,.4-.48,2.07,2.07,0,0,1,.64-.35,2.47,2.47,0,0,1,.84-.13,2.27,2.27,0,0,1,1,.19,1.39,1.39,0,0,1,.67.57,1.7,1.7,0,0,1,.24.94v2.37a3.74,3.74,0,0,0,.05.55,2,2,0,0,0,.13.49v.07h-.9a1.53,1.53,0,0,1-.11-.39,4.12,4.12,0,0,1,0-.48m-5.84-5.45h.87v5.06a.76.76,0,0,0,.08.39.37.37,0,0,0,.21.18.77.77,0,0,0,.27,0l.23,0,.18,0v.71a1.31,1.31,0,0,1-.27.07,2.25,2.25,0,0,1-.4,0A1.31,1.31,0,0,1,345,507a.9.9,0,0,1-.42-.42,1.69,1.69,0,0,1-.16-.81Zm1.82,1.9H343.5V502h2.75ZM342,504v.61h-.88a3.23,3.23,0,0,0-.66.06,1.48,1.48,0,0,0-.49.18.76.76,0,0,0-.3.29.78.78,0,0,0-.11.41.93.93,0,0,0,.11.44.71.71,0,0,0,.33.31,1.08,1.08,0,0,0,.54.12,1.45,1.45,0,0,0,.7-.17,1.42,1.42,0,0,0,.48-.42.83.83,0,0,0,.2-.47l.37.42a1.17,1.17,0,0,1-.18.43,1.84,1.84,0,0,1-.39.47,2.14,2.14,0,0,1-.57.36,1.91,1.91,0,0,1-.74.14,2,2,0,0,1-.91-.2,1.74,1.74,0,0,1-.6-.54,1.46,1.46,0,0,1-.21-.77,1.53,1.53,0,0,1,.16-.72,1.36,1.36,0,0,1,.46-.52,2.16,2.16,0,0,1,.72-.32A3.54,3.54,0,0,1,341,504Zm-.15,2.21v-2.62a1.08,1.08,0,0,0-.12-.52.81.81,0,0,0-.36-.35,1.32,1.32,0,0,0-.59-.12,1.5,1.5,0,0,0-.58.11,1.19,1.19,0,0,0-.39.3.64.64,0,0,0-.13.4h-.87a1.21,1.21,0,0,1,.14-.55,1.63,1.63,0,0,1,.4-.48A2.07,2.07,0,0,1,340,502a2.47,2.47,0,0,1,.84-.13,2.35,2.35,0,0,1,1,.19,1.41,1.41,0,0,1,.66.57,1.71,1.71,0,0,1,.25.94v2.37a3.65,3.65,0,0,0,0,.55,2.66,2.66,0,0,0,.13.49v.07H342a1.53,1.53,0,0,1-.11-.39,4.12,4.12,0,0,1,0-.48m-8.27.87h-.91V500.2h.91Zm.94,0h-1.43v-.73h1.42a2.27,2.27,0,0,0,1.22-.31,1.84,1.84,0,0,0,.73-.87,3.08,3.08,0,0,0,.25-1.3v-.42a3.42,3.42,0,0,0-.14-1.05,2.1,2.1,0,0,0-.41-.77,1.64,1.64,0,0,0-.67-.49,2.28,2.28,0,0,0-.89-.16H333.1v-.75h1.55a3.23,3.23,0,0,1,1.22.23,2.62,2.62,0,0,1,.95.64,2.77,2.77,0,0,1,.62,1,3.77,3.77,0,0,1,.22,1.34v.41a3.81,3.81,0,0,1-.22,1.34,2.81,2.81,0,0,1-.62,1,2.65,2.65,0,0,1-1,.64,3.44,3.44,0,0,1-1.28.22m-7.2-6.32h.86v5.06a.76.76,0,0,0,.08.39.44.44,0,0,0,.21.18.84.84,0,0,0,.27,0l.23,0,.18,0v.71a1.26,1.26,0,0,1-.28.07,2.13,2.13,0,0,1-.39,0,1.28,1.28,0,0,1-.59-.13.92.92,0,0,1-.43-.42,1.83,1.83,0,0,1-.15-.81Zm1.81,1.9h-2.74V502h2.74Zm-4.46-2a.48.48,0,0,1,.13-.35.49.49,0,0,1,.38-.15.46.46,0,0,1,.38.15.45.45,0,0,1,.14.35.48.48,0,0,1-.52.49.48.48,0,0,1-.38-.14.49.49,0,0,1-.13-.35m.94,6.44h-.87V502h.87Zm-5.71-2.58v.1a3.23,3.23,0,0,0,.07.71,1.84,1.84,0,0,0,.25.59,1.21,1.21,0,0,0,.41.4,1.45,1.45,0,0,0,1.32,0,1.41,1.41,0,0,0,.45-.49,2.85,2.85,0,0,0,.26-.65V504a2.81,2.81,0,0,0-.16-.49,1.44,1.44,0,0,0-.28-.44,1,1,0,0,0-.4-.3,1.26,1.26,0,0,0-.57-.12,1.13,1.13,0,0,0-1,.56,1.84,1.84,0,0,0-.25.59,3.26,3.26,0,0,0-.07.72m-.88.1v-.1a3.89,3.89,0,0,1,.14-1.06,2.62,2.62,0,0,1,.41-.82,1.8,1.8,0,0,1,.64-.53,1.71,1.71,0,0,1,.82-.19,2,2,0,0,1,.84.17,1.67,1.67,0,0,1,.61.48,2.44,2.44,0,0,1,.4.77,4.63,4.63,0,0,1,.2,1v.43a4.3,4.3,0,0,1-.2,1,2.38,2.38,0,0,1-.4.76,1.67,1.67,0,0,1-.61.48,2,2,0,0,1-.85.17,1.82,1.82,0,0,1-.81-.19,1.86,1.86,0,0,1-.64-.55,2.8,2.8,0,0,1-.41-.81,3.77,3.77,0,0,1-.14-1m3.42,1.5v-6.24h.87v7.22h-.79ZM318.33,501h-3.57v-.75h3.57Zm-.43,2.94h-3.14v-.74h3.14Zm-3,3.16H314V500.2h.9Zm3.44,0h-3.62v-.73h3.62Z" transform="translate(-139.29 -55.37)"/><path class="cls-4" d="M139.66,486.52h72V520.2h-72Zm50.37-15-14.39,14.43-14.39-14.43m14.39-15.64v29.47" transform="translate(-139.29 -55.37)"/><path d="M197.87,502l1.32,4,.22.91-.62.32L196.92,502Zm1,4.57,1.41-4.57h.93l-2,5.88a2.44,2.44,0,0,1-.19.41,1.81,1.81,0,0,1-.29.41,1.24,1.24,0,0,1-.43.32,1.21,1.21,0,0,1-.6.13l-.26,0-.22,0v-.71h.24a1.5,1.5,0,0,0,.5-.08.81.81,0,0,0,.35-.26,1.71,1.71,0,0,0,.25-.49Zm-2.83.53h-.87v-7.23h.87Zm-5.59-2.74-.37,0a3.22,3.22,0,0,1,.16-1,2.43,2.43,0,0,1,.42-.78,1.89,1.89,0,0,1,.65-.51,1.92,1.92,0,0,1,.84-.18,2.07,2.07,0,0,1,.68.1,1.34,1.34,0,0,1,.51.32,1.55,1.55,0,0,1,.33.58,2.92,2.92,0,0,1,.11.85v3.34H193v-3.35a1.43,1.43,0,0,0-.12-.64.72.72,0,0,0-.34-.35,1.19,1.19,0,0,0-.56-.12,1.31,1.31,0,0,0-.59.14,1.36,1.36,0,0,0-.45.38,1.72,1.72,0,0,0-.3.55,2,2,0,0,0-.1.65m.2-1.27v4h-.87V502h.83ZM185,504.46v.11a2.84,2.84,0,0,0,.09.72,2.11,2.11,0,0,0,.26.59,1.5,1.5,0,0,0,.46.41,1.49,1.49,0,0,0,1.26,0,1.36,1.36,0,0,0,.45-.41,1.88,1.88,0,0,0,.27-.59,2.84,2.84,0,0,0,.09-.72v-.11a2.71,2.71,0,0,0-.09-.71,1.83,1.83,0,0,0-.27-.6,1.21,1.21,0,0,0-.46-.41,1.22,1.22,0,0,0-.63-.15,1.33,1.33,0,0,0-.63.15,1.45,1.45,0,0,0-.45.41,2.05,2.05,0,0,0-.26.6,2.71,2.71,0,0,0-.09.71m-.87.11v-.11a3,3,0,0,1,.16-1,2.4,2.4,0,0,1,.46-.83,2.08,2.08,0,0,1,.73-.54,2.24,2.24,0,0,1,.95-.2,2.34,2.34,0,0,1,1,.2,2.08,2.08,0,0,1,.73.54,2.6,2.6,0,0,1,.47.83,3.31,3.31,0,0,1,.15,1v.11a3.4,3.4,0,0,1-.15,1,2.55,2.55,0,0,1-.47.82,2.23,2.23,0,0,1-.73.55,2.42,2.42,0,0,1-1,.19,2.49,2.49,0,0,1-1-.19,2.26,2.26,0,0,1-1.19-1.37,3.11,3.11,0,0,1-.16-1m-4.17,1.14a.66.66,0,0,0-.42-.65,2.74,2.74,0,0,0-.75-.24,4.91,4.91,0,0,1-.76-.21,2.41,2.41,0,0,1-.58-.29,1.25,1.25,0,0,1-.36-.41,1.09,1.09,0,0,1-.13-.55,1.4,1.4,0,0,1,.13-.57,1.58,1.58,0,0,1,.38-.48,1.91,1.91,0,0,1,.6-.32,2.37,2.37,0,0,1,.78-.12,2.25,2.25,0,0,1,1,.22,1.5,1.5,0,0,1,.66.58,1.43,1.43,0,0,1,.23.79h-.87a.71.71,0,0,0-.13-.41.89.89,0,0,0-.36-.33,1.12,1.12,0,0,0-.57-.13,1.24,1.24,0,0,0-.59.11.71.71,0,0,0-.33.28.73.73,0,0,0-.09.35.71.71,0,0,0,0,.26.67.67,0,0,0,.18.2,1.35,1.35,0,0,0,.36.17,5.62,5.62,0,0,0,.58.16,4.59,4.59,0,0,1,1,.34,1.48,1.48,0,0,1,.6.48,1.16,1.16,0,0,1,.2.7,1.37,1.37,0,0,1-.14.61,1.23,1.23,0,0,1-.4.48,1.9,1.9,0,0,1-.62.31,2.81,2.81,0,0,1-.8.11,2.46,2.46,0,0,1-1.14-.24,1.78,1.78,0,0,1-.7-.62,1.5,1.5,0,0,1-.24-.81h.87a.86.86,0,0,0,.21.57,1,1,0,0,0,.46.3,1.68,1.68,0,0,0,.54.08,1.63,1.63,0,0,0,.59-.09.83.83,0,0,0,.38-.26.61.61,0,0,0,.12-.37m-5,0a.67.67,0,0,0-.08-.35.7.7,0,0,0-.33-.3,3,3,0,0,0-.76-.24,4.91,4.91,0,0,1-.76-.21,2.41,2.41,0,0,1-.58-.29,1.25,1.25,0,0,1-.36-.41,1.21,1.21,0,0,1-.13-.55,1.4,1.4,0,0,1,.13-.57,1.75,1.75,0,0,1,.38-.48,1.91,1.91,0,0,1,.6-.32,2.37,2.37,0,0,1,.78-.12,2.25,2.25,0,0,1,1,.22,1.5,1.5,0,0,1,.66.58,1.43,1.43,0,0,1,.23.79h-.87a.78.78,0,0,0-.12-.41,1,1,0,0,0-.37-.33,1.12,1.12,0,0,0-.57-.13,1.24,1.24,0,0,0-.59.11.7.7,0,0,0-.42.63.71.71,0,0,0,0,.26.67.67,0,0,0,.18.2,1.52,1.52,0,0,0,.36.17,5.23,5.23,0,0,0,.59.16,4.67,4.67,0,0,1,1,.34,1.59,1.59,0,0,1,.61.48,1.22,1.22,0,0,1,.19.7,1.25,1.25,0,0,1-.14.61,1.23,1.23,0,0,1-.4.48,1.9,1.9,0,0,1-.62.31,2.81,2.81,0,0,1-.8.11,2.46,2.46,0,0,1-1.14-.24,1.78,1.78,0,0,1-.7-.62,1.5,1.5,0,0,1-.24-.81h.87a.86.86,0,0,0,.21.57,1.08,1.08,0,0,0,.46.3,1.68,1.68,0,0,0,.54.08,1.72,1.72,0,0,0,.6-.09.85.85,0,0,0,.37-.26.61.61,0,0,0,.12-.37M169,507.15a2.49,2.49,0,0,1-1-.18,2.23,2.23,0,0,1-.74-.51,2.36,2.36,0,0,1-.47-.78,2.86,2.86,0,0,1-.16-1v-.2a3.13,3.13,0,0,1,.18-1.1,2.36,2.36,0,0,1,.5-.83,2,2,0,0,1,1.54-.69,2.1,2.1,0,0,1,.94.19,1.61,1.61,0,0,1,.65.53,2.15,2.15,0,0,1,.38.79,3.81,3.81,0,0,1,.12,1v.39h-3.79V504h2.92V504a2.1,2.1,0,0,0-.14-.66,1.24,1.24,0,0,0-.37-.53,1.11,1.11,0,0,0-.71-.2,1.19,1.19,0,0,0-.54.12,1.17,1.17,0,0,0-.43.37,1.86,1.86,0,0,0-.28.6,3.2,3.2,0,0,0-.1.81v.2a2.48,2.48,0,0,0,.1.68,1.77,1.77,0,0,0,.3.56,1.4,1.4,0,0,0,.47.37,1.62,1.62,0,0,0,1.42-.05,1.89,1.89,0,0,0,.56-.5l.53.42a2.58,2.58,0,0,1-.42.47,2.14,2.14,0,0,1-.63.37,2.48,2.48,0,0,1-.87.14m-5.11-.72a1.4,1.4,0,0,0,.58-.12,1.23,1.23,0,0,0,.43-.35.94.94,0,0,0,.19-.51h.83a1.57,1.57,0,0,1-.31.84,1.94,1.94,0,0,1-.73.62,2.07,2.07,0,0,1-1,.24,2.41,2.41,0,0,1-1-.2,2,2,0,0,1-.7-.56,2.23,2.23,0,0,1-.42-.81,3.45,3.45,0,0,1-.14-1v-.2a3.45,3.45,0,0,1,.14-1,2.23,2.23,0,0,1,.42-.81,2,2,0,0,1,.7-.56,2.41,2.41,0,0,1,1-.2,2.09,2.09,0,0,1,1.05.25,1.75,1.75,0,0,1,.7.65,2,2,0,0,1,.28.94h-.83a1.2,1.2,0,0,0-.59-1,1.17,1.17,0,0,0-.61-.15,1.28,1.28,0,0,0-.67.16,1.15,1.15,0,0,0-.43.42,2.06,2.06,0,0,0-.22.59,3.5,3.5,0,0,0-.07.65v.2a3.7,3.7,0,0,0,.07.66,2,2,0,0,0,.22.59,1.33,1.33,0,0,0,.43.42,1.36,1.36,0,0,0,.67.15m-5,0a1.32,1.32,0,0,0,.57-.12,1.15,1.15,0,0,0,.43-.35,1,1,0,0,0,.2-.51h.82a1.48,1.48,0,0,1-.3.84,2.1,2.1,0,0,1-.73.62,2.07,2.07,0,0,1-1,.24,2.38,2.38,0,0,1-1-.2,2.06,2.06,0,0,1-.71-.56,2.38,2.38,0,0,1-.41-.81,3.45,3.45,0,0,1-.14-1v-.2a3.45,3.45,0,0,1,.14-1,2.38,2.38,0,0,1,.41-.81,2.06,2.06,0,0,1,.71-.56,2.38,2.38,0,0,1,1-.2,2.05,2.05,0,0,1,1,.25,1.69,1.69,0,0,1,.7.65,1.88,1.88,0,0,1,.28.94h-.82a1.36,1.36,0,0,0-.18-.57,1.17,1.17,0,0,0-1-.55,1.26,1.26,0,0,0-.67.16,1.15,1.15,0,0,0-.43.42,2.07,2.07,0,0,0-.23.59,3.49,3.49,0,0,0-.06.65v.2a3.68,3.68,0,0,0,.06.66,2,2,0,0,0,.23.59,1.21,1.21,0,0,0,.42.42,1.4,1.4,0,0,0,.68.15M155,505.26h-3.84v-.74H155Zm.12,1.8-2.27-6.25v-.61h.59l2.62,6.86Zm-1.9-6.25L151,507.06h-.92l2.6-6.86h.6Z" transform="translate(-139.29 -55.37)"/><path class="cls-4" d="M274.72,503.64l3.16,3.17,6.33-6.34m-4.48-7.33a10.24,10.24,0,1,1-10.22,10.24A10.22,10.22,0,0,1,279.73,493.14ZM497.84,100.59,483.42,86.14l14.42-14.45M657.67,473.87V122.27a36.09,36.09,0,0,0-36-36.13H484M603,301.68l-14.42-14.45-14.42,14.45m14.42,10.24v99.34a18,18,0,0,0,18,18.06h27.64m23.43,24.08v-6a18,18,0,0,0-18-18.06h-6m-45.07-117.4V287.84m-93.13,13.84L481,287.23,466.6,301.68M481,311.92v99.34a18,18,0,0,0,18,18.06h135.2m23.43,24.08v-6a18,18,0,0,0-18-18.06h-6M481,311.92V287.84m-91.33,13.84-14.42-14.45-14.43,14.45m14.43,10.24v99.34a18,18,0,0,0,18,18.06h241m23.43,24.08v-6a18,18,0,0,0-18-18.06h-6M375.27,311.92V287.84m222.31,230L612,503.38l-14.43-14.45m-10.21,14.45H550.72a13.83,13.83,0,0,0-13.82,13.84m-24,23.48h6a18,18,0,0,0,18-18.06v-6m60.68-27.69L612,503.38l-14.43,14.45m-10.21-14.45H550.12a13.23,13.23,0,0,1-13.22-13.25m-24-23.48h6a18,18,0,0,1,18,18.06v6m50.47,12.65H612M430.54,481.1,445,466.65,430.54,452.2m-10.21,14.45H406.51a13.23,13.23,0,0,0-13.22,13.25m-24,23.48h6a18,18,0,0,0,18-18.07v-6m26-12.64h25m-13.82,59.6L445,540.7l-14.43,14.45M420.33,540.7H407.11a13.83,13.83,0,0,1-13.82-13.84m-24-23.48h6a18,18,0,0,1,18,18.06v6m26,13.24h25" transform="translate(-139.29 -55.37)"/></g></svg>