<svg id="Capa_1" data-name="Capa 1" xmlns="http://www.w3.org/2000/svg" xmlns:xlink="http://www.w3.org/1999/xlink" viewBox="0 0 1133.71 449"><defs><style>.cls-1,.cls-3{fill:none;}.cls-2{fill:#fff;}.cls-3{stroke:#1d1d1b;stroke-width:2px;}.cls-4,.cls-9{font-size:30px;}.cls-102,.cls-111,.cls-112,.cls-21,.cls-30,.cls-4,.cls-9{fill:#1d1d1b;font-family:HelveticaLTStd-Roman, Helvetica LT Std;}.cls-12,.cls-4{letter-spacing:0em;}.cls-5{letter-spacing:-0.01em;}.cls-6{letter-spacing:-0.01em;}.cls-7{letter-spacing:-0.02em;}.cls-8{letter-spacing:0em;}.cls-10{letter-spacing:-0.02em;}.cls-11{letter-spacing:-0.02em;}.cls-13{letter-spacing:-0.03em;}.cls-14{letter-spacing:-0.02em;}.cls-15{letter-spacing:-0.03em;}.cls-16{letter-spacing:0em;}.cls-17{letter-spacing:-0.01em;}.cls-18{letter-spacing:0em;}.cls-19{letter-spacing:-0.01em;}.cls-20{letter-spacing:-0.01em;}.cls-102,.cls-111,.cls-112,.cls-21,.cls-30{font-size:18px;}.cls-21,.cls-54{letter-spacing:-0.01em;}.cls-22{letter-spacing:-0.02em;}.cls-23{letter-spacing:0em;}.cls-24{letter-spacing:0em;}.cls-25{letter-spacing:0em;}.cls-26{letter-spacing:-0.01em;}.cls-27{letter-spacing:0em;}.cls-111,.cls-28{letter-spacing:0em;}.cls-29{letter-spacing:0em;}.cls-31{letter-spacing:-0.02em;}.cls-112,.cls-32{letter-spacing:-0.01em;}.cls-33{clip-path:url(#clip-path);}.cls-34{letter-spacing:-0.05em;}.cls-35{letter-spacing:-0.1em;}.cls-36{letter-spacing:-0.1em;}.cls-37{letter-spacing:-0.01em;}.cls-38{letter-spacing:-0.02em;}.cls-39{letter-spacing:-0.03em;}.cls-40{letter-spacing:-0.01em;}.cls-41{letter-spacing:-0.01em;}.cls-42{letter-spacing:0em;}.cls-43{letter-spacing:-0.01em;}.cls-102,.cls-44{letter-spacing:-0.01em;}.cls-45{letter-spacing:0em;}.cls-46{letter-spacing:-0.01em;}.cls-47{letter-spacing:0em;}.cls-48{letter-spacing:0.02em;}.cls-49{letter-spacing:-0.01em;}.cls-50{letter-spacing:-0.01em;}.cls-51{letter-spacing:0em;}.cls-52{letter-spacing:0em;}.cls-53{letter-spacing:-0.01em;}.cls-55{letter-spacing:-0.02em;}.cls-56{letter-spacing:-0.03em;}.cls-57{letter-spacing:-0.02em;}.cls-58{letter-spacing:-0.01em;}.cls-59{letter-spacing:-0.01em;}.cls-60{letter-spacing:-0.02em;}.cls-61{letter-spacing:0em;}.cls-62{letter-spacing:-0.01em;}.cls-63{letter-spacing:0em;}.cls-64{letter-spacing:-0.01em;}.cls-65{letter-spacing:-0.01em;}.cls-66{letter-spacing:-0.01em;}.cls-67{letter-spacing:-0.02em;}.cls-68{letter-spacing:-0.01em;}.cls-69{letter-spacing:0em;}.cls-70{letter-spacing:-0.01em;}.cls-71{letter-spacing:-0.01em;}.cls-72{letter-spacing:0.03em;}.cls-73{letter-spacing:0em;}.cls-74{letter-spacing:-0.02em;}.cls-75{letter-spacing:-0.01em;}.cls-76{letter-spacing:-0.01em;}.cls-77{letter-spacing:0em;}.cls-78{letter-spacing:-0.01em;}.cls-79{letter-spacing:-0.02em;}.cls-80{letter-spacing:0em;}.cls-81{letter-spacing:-0.01em;}.cls-82{letter-spacing:0em;}.cls-83{letter-spacing:-0.03em;}.cls-84{letter-spacing:-0.02em;}.cls-85{letter-spacing:-0.01em;}.cls-86{letter-spacing:-0.01em;}.cls-87{letter-spacing:-0.02em;}.cls-88{letter-spacing:0.02em;}.cls-89{letter-spacing:-0.01em;}.cls-90{letter-spacing:-0.03em;}.cls-91{letter-spacing:-0.15em;}.cls-92{letter-spacing:0.02em;}.cls-93{letter-spacing:0.02em;}.cls-94{letter-spacing:-0.01em;}.cls-95{letter-spacing:-0.01em;}.cls-96{letter-spacing:0.17em;}.cls-97{letter-spacing:0.06em;}.cls-98{letter-spacing:-0.05em;}.cls-99{letter-spacing:-0.05em;}.cls-100{letter-spacing:-0.02em;}.cls-101{letter-spacing:-0.01em;}.cls-103{letter-spacing:0em;}.cls-104{letter-spacing:0em;}.cls-105{letter-spacing:-0.02em;}.cls-106{letter-spacing:-0.01em;}.cls-107{letter-spacing:-0.06em;}.cls-108{letter-spacing:0em;}.cls-109{letter-spacing:0.01em;}.cls-110{letter-spacing:0em;}</style><clipPath id="clip-path" transform="translate(-12.05 -23.49)"><rect class="cls-1" x="12.3" y="23.74" width="1147.36" height="449.71"/></clipPath></defs><rect class="cls-2" x="598.37" y="46.71" width="211.88" height="90.92"/><rect class="cls-3" x="598.37" y="46.71" width="211.88" height="90.92"/><rect class="cls-2" x="916.83" y="46.71" width="211.88" height="90.92"/><rect class="cls-3" x="916.83" y="46.71" width="211.88" height="90.92"/><rect class="cls-2" x="329.64" y="286.04" width="146.5" height="48.78"/><rect class="cls-3" x="329.64" y="286.04" width="146.5" height="48.78"/><rect class="cls-2" x="524.66" y="286.04" width="122.52" height="48.78"/><rect class="cls-3" x="524.66" y="286.04" width="122.52" height="48.78"/><rect class="cls-2" x="690.09" y="286.04" width="156.67" height="48.78"/><rect class="cls-3" x="690.09" y="286.04" width="156.67" height="48.78"/><rect class="cls-2" x="887.57" y="286.04" width="152.7" height="48.78"/><rect class="cls-3" x="887.57" y="286.04" width="152.7" height="48.78"/><rect class="cls-2" x="272.85" y="46.71" width="211.88" height="90.92"/><rect class="cls-3" x="272.85" y="46.71" width="211.88" height="90.92"/><line class="cls-3" x1="517.14" y1="92.17" x2="565.96" y2="92.17"/><polyline class="cls-3" points="521.68 96.39 517.14 92.17 521.68 87.95"/><polyline class="cls-3" points="561.42 87.95 565.96 92.17 561.42 96.39"/><text class="cls-4" transform="translate(326.18 91.08)">M<tspan class="cls-5" x="24.9" y="0">O</tspan><tspan class="cls-6" x="48" y="0">D</tspan><tspan class="cls-7" x="69.27" y="0">E</tspan><tspan class="cls-8" x="88.59" y="0">L</tspan></text><text class="cls-9" transform="translate(957.11 90.81)"><tspan class="cls-10">V</tspan><tspan class="cls-11" x="19.35" y="0">I</tspan><tspan class="cls-12" x="27.09" y="0">E</tspan><tspan x="47.01" y="0">W </tspan><tspan class="cls-13" x="83.67" y="0">(</tspan><tspan class="cls-14" x="92.82" y="0">U</tspan><tspan class="cls-15" x="114" y="0">I</tspan><tspan class="cls-16" x="121.35" y="0">)</tspan></text><text class="cls-9" transform="translate(614.24 91.08)"><tspan class="cls-10">V</tspan><tspan class="cls-11" x="19.35" y="0">I</tspan><tspan class="cls-12" x="27.09" y="0">E</tspan><tspan class="cls-17" x="47.01" y="0">W</tspan><tspan class="cls-18" x="75.03" y="0">M</tspan><tspan class="cls-19" x="99.93" y="0">O</tspan><tspan class="cls-20" x="123.03" y="0">D</tspan><tspan class="cls-10" x="144.3" y="0">E</tspan><tspan x="163.65" y="0">L</tspan></text><text class="cls-21" transform="translate(494.09 71.81)">D<tspan class="cls-22" x="12.83" y="0">a</tspan><tspan class="cls-23" x="22.52" y="0">t</tspan><tspan class="cls-24" x="27.5" y="0">a</tspan><tspan class="cls-25" x="37.44" y="0">b</tspan><tspan class="cls-26" x="47.39" y="0">i</tspan><tspan class="cls-25" x="51.28" y="0">n</tspan><tspan class="cls-27" x="61.24" y="0">d</tspan><tspan class="cls-26" x="71.21" y="0">i</tspan><tspan class="cls-28" x="75.09" y="0">n</tspan><tspan class="cls-29" x="85.01" y="0">g</tspan></text><text class="cls-30" transform="translate(830.03 71.81)"><tspan class="cls-24">U</tspan><tspan x="12.92" y="0">pd</tspan><tspan class="cls-31" x="32.94" y="0">a</tspan><tspan class="cls-25" x="42.64" y="0">t</tspan><tspan class="cls-32" x="47.59" y="0">i</tspan><tspan class="cls-28" x="51.46" y="0">n</tspan><tspan x="61.38" y="0">g</tspan></text><g class="cls-33"><path class="cls-2" d="M102.37,203.1a89.31,89.31,0,1,0-89.32-89.3,89.31,89.31,0,0,0,89.32,89.3" transform="translate(-12.05 -23.49)"/><ellipse class="cls-3" cx="90.32" cy="90.31" rx="89.32" ry="89.31"/></g><text class="cls-9" transform="translate(15.11 95.78)"><tspan class="cls-34">D</tspan><tspan class="cls-35" x="20.25" y="0">A</tspan><tspan class="cls-36" x="37.41" y="0">T</tspan><tspan class="cls-37" x="52.74" y="0">A</tspan><tspan class="cls-38" x="72.42" y="0">B</tspan><tspan class="cls-39" x="91.74" y="0">A</tspan><tspan class="cls-40" x="110.94" y="0">S</tspan><tspan x="130.53" y="0">E</tspan></text><text class="cls-30" transform="translate(50.37 126.82)"><tspan class="cls-41">X</tspan><tspan class="cls-42" x="11.86" y="0">ML </tspan><tspan class="cls-43" x="41.87" y="0">F</tspan><tspan class="cls-19" x="52.65" y="0">i</tspan><tspan class="cls-28" x="56.5" y="0">l</tspan><tspan x="60.41" y="0">e</tspan></text><text class="cls-30" transform="translate(328.79 116.19)">C#<tspan class="cls-32" x="23" y="0" xml:space="preserve"> C</tspan><tspan class="cls-44" x="40.75" y="0">l</tspan><tspan class="cls-45" x="44.64" y="0">a</tspan><tspan x="54.58" y="0">s</tspan><tspan class="cls-44" x="63.58" y="0">s</tspan><tspan class="cls-45" x="72.47" y="0">e</tspan><tspan x="82.4" y="0">s</tspan></text><text class="cls-30" transform="translate(668.9 116.19)">C# <tspan class="cls-46" x="28.01" y="0">L</tspan><tspan class="cls-47" x="37.78" y="0">og</tspan><tspan x="57.73" y="0">ic</tspan></text><text class="cls-30" transform="translate(998.14 116.94)"><tspan class="cls-48">X</tspan><tspan class="cls-49" x="12.37" y="0">A</tspan><tspan x="24.28" y="0">ML</tspan></text><line class="cls-3" x1="839.13" y1="92.17" x2="887.95" y2="92.17"/><polyline class="cls-3" points="843.67 96.39 839.13 92.17 843.67 87.95"/><polyline class="cls-3" points="883.41 87.95 887.95 92.17 883.41 96.39"/><text class="cls-30" transform="translate(917.46 168.18)"><tspan class="cls-28">S</tspan><tspan class="cls-50" x="11.92" y="0">t</tspan><tspan class="cls-51" x="16.74" y="0">r</tspan><tspan x="22.72" y="0">u</tspan><tspan class="cls-52" x="32.72" y="0">c</tspan><tspan class="cls-53" x="41.76" y="0">tu</tspan><tspan class="cls-54" x="56.34" y="0">r</tspan><tspan class="cls-55" x="62.17" y="0">e</tspan><tspan x="71.75" y="0">, </tspan><tspan class="cls-26" x="81.76" y="0">l</tspan><tspan class="cls-56" x="85.64" y="0">a</tspan><tspan class="cls-57" x="95.13" y="0">y</tspan><tspan class="cls-58" x="103.75" y="0">o</tspan><tspan class="cls-32" x="113.65" y="0">u</tspan><tspan class="cls-28" x="123.53" y="0">t</tspan><tspan x="128.45" y="0">, </tspan><tspan class="cls-19" x="138.46" y="0">a</tspan><tspan class="cls-25" x="148.32" y="0">n</tspan><tspan x="158.27" y="0">d </tspan></text><text class="cls-30" transform="translate(917.46 189.78)"><tspan class="cls-24">a</tspan><tspan class="cls-29" x="9.94" y="0">p</tspan><tspan class="cls-25" x="19.94" y="0">p</tspan><tspan class="cls-59" x="29.9" y="0">e</tspan><tspan class="cls-40" x="39.76" y="0">a</tspan><tspan class="cls-24" x="49.52" y="0">r</tspan><tspan class="cls-19" x="55.44" y="0">a</tspan><tspan x="65.3" y="0">nce </tspan><tspan class="cls-46" x="99.32" y="0">o</tspan><tspan x="109.1" y="0">f </tspan><tspan class="cls-24" x="119.11" y="0">w</tspan><tspan class="cls-32" x="132.03" y="0">h</tspan><tspan class="cls-60" x="141.91" y="0">a</tspan><tspan x="151.6" y="0">t a </tspan><tspan class="cls-61" x="176.62" y="0">u</tspan><tspan class="cls-26" x="186.55" y="0">s</tspan><tspan class="cls-62" x="195.44" y="0">e</tspan><tspan class="cls-63" x="205.25" y="0">r </tspan></text><text class="cls-30" transform="translate(917.46 211.38)"><tspan class="cls-26">s</tspan><tspan class="cls-61" x="8.89" y="0">e</tspan><tspan class="cls-28" x="18.83" y="0">e</tspan><tspan x="28.75" y="0">s </tspan><tspan class="cls-25" x="42.75" y="0">o</tspan><tspan x="52.7" y="0">n </tspan><tspan class="cls-25" x="67.72" y="0">t</tspan><tspan class="cls-28" x="72.67" y="0">h</tspan><tspan x="82.58" y="0">e </tspan><tspan class="cls-23" x="97.6" y="0">s</tspan><tspan class="cls-25" x="106.58" y="0">c</tspan><tspan class="cls-64" x="115.52" y="0">r</tspan><tspan class="cls-61" x="121.36" y="0">e</tspan><tspan class="cls-28" x="131.29" y="0">e</tspan><tspan class="cls-65" x="141.21" y="0">n</tspan><tspan x="150.95" y="0">.</tspan></text><text class="cls-30" transform="translate(597.62 170)">A<tspan class="cls-24" x="12.01" y="0">b</tspan><tspan class="cls-32" x="21.94" y="0">s</tspan><tspan class="cls-50" x="30.82" y="0">t</tspan><tspan class="cls-25" x="35.64" y="0">r</tspan><tspan class="cls-66" x="41.58" y="0">a</tspan><tspan class="cls-52" x="51.41" y="0">c</tspan><tspan class="cls-25" x="60.44" y="0">tio</tspan><tspan class="cls-29" x="79.29" y="0">n </tspan><tspan class="cls-46" x="94.3" y="0">o</tspan><tspan x="104.08" y="0">f </tspan><tspan class="cls-25" x="114.08" y="0">t</tspan><tspan class="cls-28" x="119.03" y="0">h</tspan><tspan x="128.95" y="0">e </tspan><tspan class="cls-24" x="143.96" y="0">v</tspan><tspan class="cls-49" x="152.89" y="0">i</tspan><tspan class="cls-60" x="156.8" y="0">e</tspan><tspan class="cls-63" x="166.48" y="0">w </tspan></text><text class="cls-30" transform="translate(597.62 191.6)"><tspan class="cls-67">e</tspan><tspan x="9.59" y="0">x</tspan><tspan class="cls-23" x="18.59" y="0">p</tspan><tspan class="cls-28" x="28.58" y="0">os</tspan><tspan class="cls-68" x="47.41" y="0">i</tspan><tspan class="cls-69" x="51.28" y="0">n</tspan><tspan x="61.2" y="0">g </tspan><tspan class="cls-26" x="76.21" y="0">p</tspan><tspan class="cls-47" x="86.11" y="0">u</tspan><tspan class="cls-25" x="96.08" y="0">b</tspan><tspan class="cls-59" x="106.04" y="0">l</tspan><tspan class="cls-63" x="109.89" y="0">ic </tspan><tspan class="cls-70" x="127.89" y="0">p</tspan><tspan class="cls-26" x="137.74" y="0">r</tspan><tspan x="143.62" y="0">o</tspan><tspan class="cls-25" x="153.63" y="0">p</tspan><tspan class="cls-71" x="163.58" y="0">e</tspan><tspan class="cls-72" x="173.39" y="0">r</tspan><tspan class="cls-25" x="179.84" y="0">t</tspan><tspan class="cls-49" x="184.79" y="0">ie</tspan><tspan x="198.61" y="0">s </tspan></text><text class="cls-30" transform="translate(597.62 213.2)"><tspan class="cls-32">a</tspan><tspan class="cls-25" x="9.88" y="0">n</tspan><tspan x="19.84" y="0">d </tspan><tspan class="cls-73" x="34.85" y="0">c</tspan><tspan class="cls-27" x="43.87" y="0">o</tspan><tspan class="cls-24" x="53.84" y="0">m</tspan><tspan class="cls-25" x="68.76" y="0">m</tspan><tspan class="cls-32" x="83.7" y="0">a</tspan><tspan class="cls-25" x="93.58" y="0">n</tspan><tspan x="103.54" y="0">d</tspan><tspan class="cls-53" x="113.54" y="0">s</tspan><tspan x="122.33" y="0">.</tspan></text><line class="cls-3" x1="201.83" y1="89.78" x2="250.65" y2="89.78"/><polyline class="cls-3" points="206.38 94 201.83 89.78 206.38 85.56"/><polyline class="cls-3" points="246.11 85.56 250.65 89.78 246.11 94"/><text class="cls-30" transform="translate(214.46 69.54)"><tspan class="cls-27">I</tspan><tspan class="cls-74" x="4.97" y="0">/</tspan><tspan x="9.59" y="0">O</tspan></text><text class="cls-30" transform="translate(293.94 168.18)"><tspan class="cls-25">Dom</tspan><tspan class="cls-75" x="37.84" y="0">ai</tspan><tspan x="51.59" y="0">n </tspan><tspan class="cls-25" x="66.6" y="0">m</tspan><tspan class="cls-42" x="81.54" y="0">od</tspan><tspan class="cls-28" x="101.56" y="0">e</tspan><tspan class="cls-31" x="111.47" y="0">l</tspan><tspan x="115.16" y="0">. </tspan><tspan class="cls-76" x="125.17" y="0">S</tspan><tspan class="cls-50" x="137.09" y="0">t</tspan><tspan class="cls-51" x="141.91" y="0">r</tspan><tspan class="cls-29" x="147.89" y="0">u</tspan><tspan class="cls-77" x="157.9" y="0">c</tspan><tspan class="cls-53" x="166.93" y="0">tu</tspan><tspan class="cls-54" x="181.51" y="0">r</tspan><tspan x="187.34" y="0">e </tspan></text><text class="cls-30" transform="translate(293.94 189.78)"><tspan class="cls-78">o</tspan><tspan x="9.77" y="0">f </tspan><tspan class="cls-24" x="19.78" y="0">t</tspan><tspan class="cls-28" x="24.71" y="0">h</tspan><tspan class="cls-42" x="34.63" y="0">e d</tspan><tspan class="cls-79" x="59.65" y="0">a</tspan><tspan class="cls-80" x="69.34" y="0">t</tspan><tspan class="cls-42" x="74.32" y="0">a </tspan><tspan class="cls-81" x="89.33" y="0">o</tspan><tspan x="99.18" y="0">r </tspan><tspan class="cls-82" x="110.18" y="0">c</tspan><tspan class="cls-25" x="119.2" y="0">o</tspan><tspan class="cls-53" x="129.15" y="0">n</tspan><tspan class="cls-31" x="138.94" y="0">t</tspan><tspan class="cls-28" x="143.64" y="0">e</tspan><tspan class="cls-53" x="153.56" y="0">n</tspan><tspan x="163.35" y="0">t </tspan><tspan class="cls-46" x="173.36" y="0">o</tspan><tspan class="cls-29" x="183.13" y="0">f </tspan></text><text class="cls-30" transform="translate(293.94 211.38)"><tspan class="cls-25">t</tspan><tspan class="cls-28" x="4.95" y="0">h</tspan><tspan x="14.87" y="0">e </tspan><tspan class="cls-45" x="29.88" y="0">a</tspan><tspan class="cls-42" x="39.82" y="0">p</tspan><tspan class="cls-83" x="49.82" y="0">p</tspan><tspan x="59.31" y="0">.</tspan></text><text class="cls-9" transform="translate(339.51 321.2)"><tspan class="cls-84">SI</tspan><tspan class="cls-85" x="27.39" y="0">G</tspan><tspan class="cls-86" x="50.46" y="0">N</tspan><tspan class="cls-37" x="71.76" y="0">A</tspan><tspan class="cls-87" x="91.44" y="0">L</tspan><tspan x="107.61" y="0" xml:space="preserve">S   =   </tspan><tspan class="cls-88" x="195.18" y="0">L</tspan><tspan class="cls-17" x="212.34" y="0">A</tspan><tspan class="cls-89" x="232.05" y="0">M</tspan><tspan class="cls-90" x="256.77" y="0">P</tspan><tspan x="276" y="0" xml:space="preserve">S   +  </tspan><tspan class="cls-91" x="355.23" y="0"> </tspan><tspan class="cls-40" x="359.1" y="0">A</tspan><tspan class="cls-37" x="378.69" y="0">D</tspan><tspan class="cls-92" x="400.02" y="0">D</tspan><tspan class="cls-93" x="422.13" y="0">-</tspan><tspan class="cls-94" x="432.66" y="0">O</tspan><tspan class="cls-95" x="455.85" y="0">N</tspan><tspan x="477.18" y="0">S </tspan><tspan class="cls-96" x="505.53" y="0"> </tspan><tspan class="cls-8" x="518.97" y="0">+ </tspan><tspan class="cls-97" x="544.83" y="0"> </tspan><tspan class="cls-98" x="554.97" y="0">S</tspan><tspan class="cls-99" x="573.6" y="0">Y</tspan><tspan class="cls-100" x="592.17" y="0">S</tspan><tspan class="cls-87" x="611.57" y="0">T</tspan><tspan class="cls-57" x="629.4" y="0">E</tspan><tspan class="cls-101" x="648.77" y="0">M</tspan><tspan x="673.52" y="0">S</tspan></text><line class="cls-3" x1="276.87" y1="285.48" x2="276.87" y2="155.26"/><polyline class="cls-3" points="281.09 280.94 276.87 285.48 272.64 280.94"/><text class="cls-30" transform="translate(338.9 360.91)"><tspan class="cls-40">I</tspan><tspan x="4.75" y="0">D</tspan></text><text class="cls-102" transform="translate(338.9 380.87)">D<tspan class="cls-28" x="12.89" y="0">e</tspan><tspan class="cls-80" x="22.81" y="0">s</tspan><tspan class="cls-25" x="31.79" y="0">c</tspan><tspan class="cls-80" x="40.73" y="0">r</tspan><tspan class="cls-25" x="46.71" y="0">i</tspan><tspan class="cls-53" x="50.65" y="0">p</tspan><tspan class="cls-45" x="60.44" y="0">t</tspan><tspan class="cls-103" x="65.38" y="0">io</tspan><tspan class="cls-104" x="79.27" y="0">n</tspan></text><text class="cls-30" transform="translate(338.9 402.77)"><tspan class="cls-13">P</tspan><tspan class="cls-105" x="11.5" y="0">o</tspan><tspan class="cls-31" x="21.22" y="0">w</tspan><tspan class="cls-106" x="33.91" y="0">e</tspan><tspan x="43.72" y="0">r </tspan><tspan class="cls-107" x="54.72" y="0">V</tspan><tspan class="cls-75" x="65.68" y="0">a</tspan><tspan class="cls-54" x="75.56" y="0">l</tspan><tspan class="cls-28" x="79.4" y="0">u</tspan><tspan x="89.31" y="0">e </tspan><tspan class="cls-108" x="104.33" y="0">(</tspan><tspan class="cls-109" x="110.41" y="0">V</tspan><tspan x="122.54" y="0">)</tspan></text><text class="cls-30" transform="translate(338.9 423.4)"><tspan class="cls-110">C</tspan><tspan x="12.96" y="0">ode</tspan></text><text class="cls-111" transform="translate(338.9 444.48)">S<tspan class="cls-80" x="11.92" y="0">t</tspan><tspan class="cls-79" x="16.9" y="0">a</tspan><tspan class="cls-105" x="26.59" y="0">t</tspan><tspan class="cls-42" x="31.3" y="0">e</tspan></text><text class="cls-30" transform="translate(301.98 360.92)"><tspan class="cls-32">i</tspan><tspan class="cls-53" x="3.87" y="0">n</tspan><tspan x="13.66" y="0">t</tspan></text><text class="cls-112" transform="translate(277.25 381.34)">s<tspan class="cls-50" x="8.87" y="0">t</tspan><tspan class="cls-80" x="13.7" y="0">r</tspan><tspan class="cls-44" x="19.67" y="0">i</tspan><tspan class="cls-28" x="23.56" y="0">n</tspan><tspan class="cls-42" x="33.48" y="0">g</tspan></text><text class="cls-30" transform="translate(287.35 403.24)"><tspan class="cls-54">f</tspan><tspan class="cls-25" x="4.84" y="0">l</tspan><tspan class="cls-44" x="8.78" y="0">o</tspan><tspan class="cls-79" x="18.68" y="0">a</tspan><tspan x="28.37" y="0">t</tspan></text><text class="cls-112" transform="translate(277.25 423.87)">s<tspan class="cls-50" x="8.87" y="0">t</tspan><tspan class="cls-80" x="13.7" y="0">r</tspan><tspan class="cls-44" x="19.67" y="0">i</tspan><tspan class="cls-28" x="23.56" y="0">n</tspan><tspan class="cls-42" x="33.48" y="0">g</tspan></text><text class="cls-30" transform="translate(286.77 444.95)"><tspan class="cls-23">bo</tspan><tspan class="cls-25" x="19.98" y="0">o</tspan><tspan x="29.93" y="0">l</tspan></text><line class="cls-3" x1="330.14" y1="445.37" x2="330.14" y2="347.38"/><text class="cls-30" transform="translate(242.5 316.89)"><tspan class="cls-32">C</tspan><tspan class="cls-44" x="12.87" y="0">l</tspan><tspan class="cls-28" x="16.76" y="0">a</tspan><tspan x="26.68" y="0">s</tspan><tspan class="cls-44" x="35.68" y="0">s</tspan><tspan class="cls-45" x="44.57" y="0">e</tspan><tspan class="cls-83" x="54.5" y="0">s</tspan><tspan x="62.98" y="0">:</tspan></text></svg>