<svg id="Capa_1" data-name="Capa 1" xmlns="http://www.w3.org/2000/svg" viewBox="0 0 805.63 321.34"><defs><style>.cls-1,.cls-11{font-size:21.88px;}.cls-1,.cls-106,.cls-108,.cls-11,.cls-119,.cls-121,.cls-19,.cls-24,.cls-50,.cls-83{font-family:HelveticaLTStd-Roman, Helvetica LT Std;}.cls-1,.cls-12{letter-spacing:-0.01em;}.cls-2{letter-spacing:-0.01em;}.cls-3{letter-spacing:-0.02em;}.cls-4{letter-spacing:-0.03em;}.cls-5{letter-spacing:-0.03em;}.cls-6{letter-spacing:-0.02em;}.cls-7{letter-spacing:-0.02em;}.cls-8{letter-spacing:0em;}.cls-9{letter-spacing:-0.03em;}.cls-10{letter-spacing:0em;}.cls-13{letter-spacing:-0.01em;}.cls-14{letter-spacing:-0.01em;}.cls-15{letter-spacing:0em;}.cls-16{letter-spacing:-0.02em;}.cls-17,.cls-18{fill:none;stroke:#1d1d1b;}.cls-17{stroke-width:1.5px;}.cls-18{stroke-miterlimit:10;stroke-width:0.9px;}.cls-106,.cls-108,.cls-119,.cls-121,.cls-19,.cls-24,.cls-50,.cls-83{font-size:13.13px;fill:#1d1d1b;}.cls-20{letter-spacing:-0.01em;}.cls-21{letter-spacing:-0.01em;}.cls-22{letter-spacing:-0.01em;}.cls-23{letter-spacing:0em;}.cls-24,.cls-35{letter-spacing:-0.01em;}.cls-25{letter-spacing:0em;}.cls-26{letter-spacing:0em;}.cls-27{letter-spacing:0em;}.cls-28{letter-spacing:-0.02em;}.cls-29{letter-spacing:-0.03em;}.cls-30{letter-spacing:-0.01em;}.cls-31{letter-spacing:0em;}.cls-32{letter-spacing:0em;}.cls-33{letter-spacing:0em;}.cls-34{letter-spacing:-0.01em;}.cls-36{letter-spacing:0em;}.cls-37{letter-spacing:-0.02em;}.cls-38{letter-spacing:-0.01em;}.cls-39{letter-spacing:0em;}.cls-40{letter-spacing:-0.01em;}.cls-41{letter-spacing:-0.01em;}.cls-42{letter-spacing:-0.02em;}.cls-43{letter-spacing:-0.01em;}.cls-44{letter-spacing:-0.03em;}.cls-45{letter-spacing:0em;}.cls-46{letter-spacing:-0.01em;}.cls-47{letter-spacing:-0.02em;}.cls-48{letter-spacing:-0.01em;}.cls-49{letter-spacing:-0.02em;}.cls-50{letter-spacing:-0.07em;}.cls-51{letter-spacing:-0.01em;}.cls-52{letter-spacing:-0.02em;}.cls-53{letter-spacing:-0.01em;}.cls-54{letter-spacing:0.03em;}.cls-55{letter-spacing:-0.01em;}.cls-56{letter-spacing:0em;}.cls-57{letter-spacing:-0.01em;}.cls-58{letter-spacing:-0.01em;}.cls-59{letter-spacing:0em;}.cls-60{letter-spacing:-0.01em;}.cls-61{letter-spacing:0.03em;}.cls-62{letter-spacing:-0.02em;}.cls-63{letter-spacing:0em;}.cls-64{letter-spacing:-0.02em;}.cls-65{letter-spacing:-0.03em;}.cls-66{letter-spacing:-0.02em;}.cls-67{letter-spacing:-0.03em;}.cls-68{letter-spacing:-0.03em;}.cls-69{letter-spacing:-0.02em;}.cls-70{letter-spacing:-0.02em;}.cls-106,.cls-71{letter-spacing:0em;}.cls-72{letter-spacing:0em;}.cls-121,.cls-73{letter-spacing:-0.01em;}.cls-74{letter-spacing:0em;}.cls-75{letter-spacing:-0.02em;}.cls-76{letter-spacing:0.02em;}.cls-77,.cls-83{letter-spacing:0em;}.cls-78{letter-spacing:-0.01em;}.cls-79{letter-spacing:-0.01em;}.cls-80{letter-spacing:0.01em;}.cls-81{letter-spacing:0em;}.cls-82{letter-spacing:-0.02em;}.cls-84{letter-spacing:-0.01em;}.cls-85{letter-spacing:0.01em;}.cls-86{letter-spacing:0.02em;}.cls-87{letter-spacing:0em;}.cls-88{letter-spacing:0em;}.cls-89{letter-spacing:-0.02em;}.cls-90{letter-spacing:-0.01em;}.cls-91{letter-spacing:-0.02em;}.cls-92{letter-spacing:-0.01em;}.cls-93{letter-spacing:-0.05em;}.cls-94{letter-spacing:-0.01em;}.cls-95{letter-spacing:-0.01em;}.cls-96{letter-spacing:0em;}.cls-97{letter-spacing:-0.01em;}.cls-98{letter-spacing:-0.02em;}.cls-99{letter-spacing:-0.02em;}.cls-100{letter-spacing:-0.02em;}.cls-101{letter-spacing:0em;}.cls-102{letter-spacing:-0.07em;}.cls-103{letter-spacing:-0.02em;}.cls-104{letter-spacing:0em;}.cls-105{letter-spacing:0.02em;}.cls-107{letter-spacing:-0.02em;}.cls-108{letter-spacing:-0.07em;}.cls-109{letter-spacing:-0.02em;}.cls-110{letter-spacing:-0.01em;}.cls-111{letter-spacing:0em;}.cls-112{letter-spacing:-0.03em;}.cls-113{letter-spacing:-0.01em;}.cls-114{letter-spacing:-0.05em;}.cls-115{letter-spacing:-0.02em;}.cls-116{letter-spacing:-0.04em;}.cls-117{letter-spacing:-0.01em;}.cls-118{letter-spacing:0em;}.cls-119{letter-spacing:-0.02em;}.cls-120{letter-spacing:0em;}.cls-122{letter-spacing:-0.01em;}.cls-123{letter-spacing:-0.02em;}.cls-124{letter-spacing:-0.04em;}</style></defs><text class="cls-1" transform="translate(0.01 18.16)">I<tspan class="cls-2" x="5.75" y="0">N</tspan><tspan class="cls-3" x="21.29" y="0">T</tspan><tspan class="cls-4" x="34.29" y="0">E</tspan><tspan class="cls-5" x="48.25" y="0">R</tspan><tspan class="cls-6" x="63.32" y="0">V</tspan><tspan class="cls-7" x="77.44" y="0">I</tspan><tspan class="cls-8" x="83.08" y="0">E</tspan><tspan class="cls-9" x="97.61" y="0">W</tspan><tspan class="cls-10" x="117.68" y="0">S</tspan></text><text class="cls-11" transform="translate(187.66 18.16)"><tspan class="cls-12">P</tspan><tspan class="cls-2" x="14.27" y="0">O</tspan><tspan class="cls-12" x="31.03" y="0">I</tspan><tspan class="cls-13" x="36.78" y="0">N</tspan><tspan x="52.34" y="0">T </tspan><tspan class="cls-14" x="71.79" y="0">O</tspan><tspan class="cls-15" x="88.6" y="0">F </tspan><tspan class="cls-16" x="108.05" y="0">V</tspan><tspan class="cls-7" x="122.16" y="0">I</tspan><tspan class="cls-8" x="127.81" y="0">E</tspan><tspan x="142.34" y="0">W</tspan></text><line class="cls-17" x1="149.65" y1="10.31" x2="175.6" y2="10.31"/><polyline class="cls-17" points="172.29 7.22 175.6 10.31 172.29 13.39"/><line class="cls-18" x1="225.24" y1="48.53" x2="291.58" y2="48.53"/><line class="cls-18" x1="391.47" y1="48.53" x2="440.72" y2="48.53"/><text class="cls-19" transform="translate(187.65 47.21)"><tspan class="cls-20">U</tspan><tspan class="cls-21" x="9.35" y="0">s</tspan><tspan class="cls-22" x="15.83" y="0">e</tspan><tspan class="cls-23" x="22.98" y="0">r</tspan><tspan x="27.39" y="0">s </tspan></text><text class="cls-24" transform="translate(225.23 47.21)">n<tspan class="cls-25" x="7.23" y="0">e</tspan><tspan class="cls-26" x="14.48" y="0">e</tspan><tspan class="cls-27" x="21.77" y="0">d a </tspan><tspan class="cls-28" x="43.67" y="0">w</tspan><tspan class="cls-29" x="52.91" y="0">a</tspan><tspan class="cls-27" x="59.83" y="0">y</tspan></text><text class="cls-19" transform="translate(291.58 47.21)"> <tspan class="cls-30" x="3.65" y="0">t</tspan><tspan x="7.12" y="0">o do </tspan><tspan class="cls-31" x="36.31" y="0">s</tspan><tspan class="cls-32" x="42.81" y="0">o</tspan><tspan class="cls-33" x="50.07" y="0">m</tspan><tspan class="cls-22" x="60.96" y="0">e</tspan><tspan class="cls-25" x="68.1" y="0">t</tspan><tspan class="cls-21" x="71.7" y="0">h</tspan><tspan class="cls-34" x="78.92" y="0">i</tspan><tspan class="cls-35" x="81.74" y="0">n</tspan><tspan class="cls-27" x="88.97" y="0">g </tspan></text><text class="cls-19" transform="translate(391.46 47.21)"><tspan class="cls-25">b</tspan><tspan x="7.25" y="0">e</tspan><tspan class="cls-36" x="14.55" y="0">c</tspan><tspan class="cls-37" x="21.14" y="0">a</tspan><tspan class="cls-25" x="28.23" y="0">u</tspan><tspan class="cls-21" x="35.47" y="0">s</tspan><tspan x="41.96" y="0">e</tspan></text><text class="cls-19" transform="translate(440.72 47.21)"> <tspan class="cls-38" x="3.65" y="0">o</tspan><tspan class="cls-39" x="10.78" y="0">f a </tspan><tspan class="cls-40" x="29.03" y="0">r</tspan><tspan class="cls-41" x="33.28" y="0">e</tspan><tspan class="cls-31" x="40.48" y="0">a</tspan><tspan class="cls-25" x="47.71" y="0">s</tspan><tspan class="cls-32" x="54.22" y="0">o</tspan><tspan class="cls-42" x="61.48" y="0">n</tspan><tspan class="cls-39" x="68.58" y="0">.</tspan></text><text class="cls-11" transform="translate(554.38 18.27)"><tspan class="cls-43">H</tspan><tspan class="cls-44" x="15.67" y="0">O</tspan><tspan class="cls-45" x="32.12" y="0">W </tspan><tspan class="cls-46" x="58.86" y="0">M</tspan><tspan class="cls-47" x="76.85" y="0">I</tspan><tspan class="cls-14" x="82.58" y="0">G</tspan><tspan class="cls-48" x="99.38" y="0">H</tspan><tspan class="cls-45" x="114.94" y="0">T </tspan><tspan class="cls-49" x="134.39" y="0">W</tspan><tspan x="154.68" y="0">E</tspan></text><line class="cls-17" x1="371.37" y1="10.38" x2="534.31" y2="10.38"/><polyline class="cls-17" points="531 7.3 534.31 10.38 531 13.46"/><line class="cls-18" x1="238.37" y1="93.81" x2="304.71" y2="93.81"/><line class="cls-18" x1="392.56" y1="93.81" x2="441.82" y2="93.81"/><line class="cls-18" x1="238.37" y1="137.7" x2="304.71" y2="137.7"/><line class="cls-18" x1="441.76" y1="137.7" x2="491.01" y2="137.7"/><line class="cls-18" x1="238.37" y1="181.58" x2="304.71" y2="181.58"/><line class="cls-18" x1="257.88" y1="198.36" x2="307.14" y2="198.36"/><line class="cls-18" x1="238.37" y1="242.25" x2="304.71" y2="242.25"/><line class="cls-18" x1="413.32" y1="242.25" x2="462.57" y2="242.25"/><line class="cls-18" x1="238.37" y1="286.14" x2="304.71" y2="286.14"/><line class="cls-18" x1="433.72" y1="286.14" x2="482.98" y2="286.14"/><text class="cls-50" transform="translate(187.65 92.49)">1<tspan class="cls-27" x="6.37" y="0">.</tspan></text><text class="cls-19" transform="translate(197.67 92.49)"> </text><text class="cls-19" transform="translate(200.78 92.49)"><tspan class="cls-51">U</tspan><tspan class="cls-21" x="9.35" y="0">s</tspan><tspan class="cls-22" x="15.83" y="0">e</tspan><tspan class="cls-23" x="22.98" y="0">r</tspan><tspan x="27.39" y="0">s </tspan></text><text class="cls-24" transform="translate(238.36 92.49)">n<tspan class="cls-25" x="7.23" y="0">e</tspan><tspan class="cls-26" x="14.48" y="0">e</tspan><tspan class="cls-27" x="21.77" y="0">d a </tspan><tspan class="cls-52" x="43.67" y="0">w</tspan><tspan class="cls-29" x="52.91" y="0">a</tspan><tspan class="cls-27" x="59.83" y="0">y</tspan></text><text class="cls-19" transform="translate(304.71 92.49)"> <tspan class="cls-30" x="3.65" y="0">t</tspan><tspan x="7.12" y="0">o </tspan><tspan class="cls-31" x="18.06" y="0">s</tspan><tspan class="cls-53" x="24.56" y="0">o</tspan><tspan class="cls-54" x="31.75" y="0">r</tspan><tspan x="36.45" y="0">t </tspan><tspan class="cls-31" x="43.74" y="0">s</tspan><tspan class="cls-25" x="50.24" y="0">i</tspan><tspan class="cls-26" x="53.11" y="0">g</tspan><tspan class="cls-55" x="60.39" y="0">na</tspan><tspan class="cls-25" x="74.81" y="0">l</tspan><tspan x="77.67" y="0">s </tspan></text><text class="cls-19" transform="translate(392.57 92.49)"><tspan class="cls-25">b</tspan><tspan x="7.25" y="0">e</tspan><tspan class="cls-36" x="14.55" y="0">c</tspan><tspan class="cls-37" x="21.14" y="0">a</tspan><tspan class="cls-56" x="28.23" y="0">u</tspan><tspan class="cls-21" x="35.49" y="0">s</tspan><tspan x="41.97" y="0">e</tspan></text><text class="cls-19" transform="translate(441.82 92.49)"> <tspan class="cls-57" x="3.65" y="0">i</tspan><tspan x="6.49" y="0">t </tspan><tspan class="cls-25" x="13.79" y="0">i</tspan><tspan x="16.65" y="0">s </tspan><tspan class="cls-58" x="26.86" y="0">n</tspan><tspan x="34.09" y="0">ec</tspan><tspan class="cls-58" x="47.96" y="0">e</tspan><tspan x="55.19" y="0">s</tspan><tspan class="cls-59" x="61.76" y="0">s</tspan><tspan class="cls-60" x="68.29" y="0">a</tspan><tspan class="cls-61" x="75.41" y="0">r</tspan><tspan x="80.14" y="0">y </tspan></text><text class="cls-19" transform="translate(200.78 109.27)"><tspan class="cls-62">f</tspan><tspan class="cls-53" x="3.43" y="0">o</tspan><tspan class="cls-63" x="10.61" y="0">r </tspan><tspan class="cls-33" x="18.63" y="0">t</tspan><tspan class="cls-35" x="22.23" y="0">h</tspan><tspan class="cls-27" x="29.46" y="0">e </tspan><tspan class="cls-30" x="40.41" y="0">w</tspan><tspan class="cls-40" x="49.71" y="0">o</tspan><tspan class="cls-26" x="56.89" y="0">r</tspan><tspan x="61.25" y="0">k </tspan><tspan class="cls-25" x="71.46" y="0">t</tspan><tspan class="cls-55" x="75.06" y="0">h</tspan><tspan class="cls-28" x="82.26" y="0">a</tspan><tspan class="cls-27" x="89.33" y="0">t </tspan><tspan class="cls-25" x="96.63" y="0">t</tspan><tspan class="cls-35" x="100.22" y="0">h</tspan><tspan class="cls-64" x="107.46" y="0">e</tspan><tspan class="cls-27" x="114.46" y="0">y </tspan><tspan class="cls-55" x="124.67" y="0">h</tspan><tspan class="cls-65" x="131.88" y="0">a</tspan><tspan class="cls-66" x="138.81" y="0">v</tspan><tspan class="cls-27" x="145.06" y="0">e </tspan><tspan class="cls-30" x="156.01" y="0">t</tspan><tspan x="159.47" y="0">o d</tspan><tspan class="cls-67" x="177.72" y="0">o</tspan><tspan class="cls-27" x="184.67" y="0">.</tspan></text><text class="cls-19" transform="translate(187.65 136.38)"><tspan class="cls-55">2</tspan><tspan x="7.21" y="0">.</tspan></text><text class="cls-19" transform="translate(198.51 136.38)"> </text><text class="cls-19" transform="translate(200.78 136.38)"><tspan class="cls-51">U</tspan><tspan class="cls-21" x="9.35" y="0">s</tspan><tspan class="cls-22" x="15.83" y="0">e</tspan><tspan class="cls-23" x="22.98" y="0">r</tspan><tspan x="27.39" y="0">s </tspan></text><text class="cls-19" transform="translate(238.36 136.38)"><tspan class="cls-35">n</tspan><tspan class="cls-25" x="7.23" y="0">e</tspan><tspan class="cls-26" x="14.48" y="0">e</tspan><tspan class="cls-27" x="21.77" y="0">d a </tspan><tspan class="cls-52" x="43.67" y="0">w</tspan><tspan class="cls-68" x="52.91" y="0">a</tspan><tspan x="59.81" y="0">y</tspan></text><text class="cls-19" transform="translate(304.71 136.38)"> <tspan class="cls-30" x="3.65" y="0">t</tspan><tspan x="7.12" y="0">o </tspan><tspan class="cls-40" x="18.06" y="0">o</tspan><tspan class="cls-33" x="25.25" y="0">r</tspan><tspan class="cls-27" x="29.57" y="0">g</tspan><tspan class="cls-34" x="36.87" y="0">a</tspan><tspan class="cls-21" x="44.07" y="0">n</tspan><tspan class="cls-69" x="51.29" y="0">i</tspan><tspan class="cls-70" x="54" y="0">z</tspan><tspan class="cls-27" x="60.27" y="0">e </tspan><tspan class="cls-25" x="71.22" y="0">t</tspan><tspan class="cls-35" x="74.82" y="0">h</tspan><tspan x="82.05" y="0">e </tspan><tspan class="cls-31" x="93" y="0">si</tspan><tspan class="cls-71" x="102.35" y="0">g</tspan><tspan class="cls-21" x="109.64" y="0">n</tspan><tspan class="cls-34" x="116.86" y="0">a</tspan><tspan class="cls-25" x="124.07" y="0">l</tspan><tspan x="126.93" y="0">s </tspan></text><text class="cls-19" transform="translate(441.75 136.38)"><tspan class="cls-25">b</tspan><tspan x="7.25" y="0">e</tspan><tspan class="cls-36" x="14.55" y="0">c</tspan><tspan class="cls-37" x="21.14" y="0">a</tspan><tspan class="cls-25" x="28.23" y="0">u</tspan><tspan class="cls-21" x="35.47" y="0">s</tspan><tspan x="41.96" y="0">e</tspan></text><text class="cls-19" transform="translate(491.02 136.38)"> <tspan class="cls-72" x="3.65" y="0">t</tspan><tspan class="cls-31" x="7.25" y="0">h</tspan><tspan class="cls-73" x="14.48" y="0">e</tspan><tspan class="cls-40" x="21.62" y="0">r</tspan><tspan class="cls-74" x="25.88" y="0">e </tspan></text><text class="cls-19" transform="translate(200.78 153.16)"><tspan class="cls-30">a</tspan><tspan class="cls-40" x="7.12" y="0">r</tspan><tspan x="11.37" y="0">e </tspan><tspan class="cls-30" x="22.32" y="0">t</tspan><tspan class="cls-26" x="25.78" y="0">o</tspan><tspan class="cls-27" x="33.07" y="0">o </tspan><tspan class="cls-56" x="44.02" y="0">m</tspan><tspan class="cls-41" x="54.92" y="0">a</tspan><tspan class="cls-75" x="62.11" y="0">n</tspan><tspan x="69.11" y="0">y </tspan><tspan class="cls-38" x="79.32" y="0">o</tspan><tspan class="cls-27" x="86.45" y="0">f </tspan><tspan class="cls-25" x="93.75" y="0">t</tspan><tspan class="cls-35" x="97.35" y="0">he</tspan><tspan class="cls-38" x="111.82" y="0">m</tspan><tspan x="122.58" y="0">.</tspan></text><text class="cls-19" transform="translate(187.65 180.27)"><tspan class="cls-21">3</tspan><tspan x="7.22" y="0">.</tspan></text><text class="cls-19" transform="translate(198.52 180.27)"> </text><text class="cls-19" transform="translate(200.78 180.27)"><tspan class="cls-51">U</tspan><tspan class="cls-21" x="9.35" y="0">s</tspan><tspan class="cls-22" x="15.83" y="0">e</tspan><tspan class="cls-23" x="22.98" y="0">r</tspan><tspan x="27.39" y="0">s </tspan></text><text class="cls-19" transform="translate(238.36 180.27)"><tspan class="cls-35">n</tspan><tspan class="cls-25" x="7.23" y="0">e</tspan><tspan class="cls-26" x="14.48" y="0">e</tspan><tspan class="cls-27" x="21.77" y="0">d a </tspan><tspan class="cls-52" x="43.67" y="0">w</tspan><tspan class="cls-68" x="52.91" y="0">a</tspan><tspan x="59.81" y="0">y</tspan></text><text class="cls-19" transform="translate(304.71 180.27)"> <tspan class="cls-30" x="3.65" y="0">t</tspan><tspan x="7.12" y="0">o </tspan><tspan class="cls-22" x="18.06" y="0">e</tspan><tspan class="cls-76" x="25.21" y="0">f</tspan><tspan class="cls-40" x="29.08" y="0">f</tspan><tspan class="cls-27" x="32.61" y="0">i</tspan><tspan class="cls-23" x="35.53" y="0">c</tspan><tspan class="cls-35" x="42.13" y="0">ie</tspan><tspan class="cls-22" x="52.21" y="0">n</tspan><tspan class="cls-77" x="59.35" y="0">t</tspan><tspan class="cls-78" x="62.96" y="0">l</tspan><tspan class="cls-27" x="65.8" y="0">y g</tspan><tspan class="cls-22" x="83.31" y="0">e</tspan><tspan class="cls-27" x="90.46" y="0">t </tspan><tspan class="cls-79" x="97.76" y="0">a</tspan><tspan class="cls-80" x="104.92" y="0">c</tspan><tspan class="cls-74" x="111.55" y="0">c</tspan><tspan class="cls-31" x="118.12" y="0">e</tspan><tspan x="125.35" y="0">ss </tspan><tspan class="cls-60" x="142.13" y="0">t</tspan><tspan x="145.6" y="0">o </tspan><tspan class="cls-25" x="156.55" y="0">t</tspan><tspan class="cls-31" x="160.14" y="0">h</tspan><tspan class="cls-74" x="167.38" y="0">e </tspan><tspan class="cls-31" x="178.33" y="0">si</tspan><tspan class="cls-81" x="187.67" y="0">g</tspan><tspan class="cls-21" x="194.96" y="0">n</tspan><tspan class="cls-34" x="202.18" y="0">a</tspan><tspan class="cls-25" x="209.39" y="0">l</tspan><tspan x="212.25" y="0">s </tspan></text><text class="cls-19" transform="translate(200.78 197.05)">d<tspan class="cls-82" x="7.3" y="0">a</tspan><tspan class="cls-26" x="14.36" y="0">t</tspan><tspan class="cls-25" x="18" y="0">a</tspan><tspan class="cls-55" x="25.25" y="0">b</tspan><tspan class="cls-35" x="32.45" y="0">a</tspan><tspan class="cls-34" x="39.69" y="0">s</tspan><tspan class="cls-27" x="46.16" y="0">e </tspan></text><text class="cls-83" transform="translate(257.88 197.05)">b<tspan class="cls-27" x="7.26" y="0">e</tspan><tspan class="cls-36" x="14.56" y="0">c</tspan><tspan class="cls-69" x="21.15" y="0">a</tspan><tspan x="28.24" y="0">u</tspan><tspan class="cls-78" x="35.5" y="0">s</tspan><tspan class="cls-27" x="41.99" y="0">e</tspan></text><text class="cls-19" transform="translate(307.13 197.05)"> <tspan class="cls-21" x="3.65" y="0">i</tspan><tspan x="6.49" y="0">t </tspan><tspan class="cls-25" x="13.79" y="0">i</tspan><tspan x="16.65" y="0">s </tspan><tspan class="cls-84" x="26.86" y="0">a</tspan><tspan class="cls-27" x="34.06" y="0">n </tspan><tspan class="cls-75" x="45" y="0">e</tspan><tspan class="cls-76" x="52" y="0">x</tspan><tspan class="cls-20" x="58.79" y="0">t</tspan><tspan class="cls-40" x="62.31" y="0">r</tspan><tspan class="cls-35" x="66.56" y="0">e</tspan><tspan class="cls-33" x="73.8" y="0">m</tspan><tspan class="cls-35" x="84.68" y="0">e</tspan><tspan class="cls-21" x="91.91" y="0">l</tspan><tspan class="cls-63" x="94.75" y="0">y </tspan><tspan class="cls-56" x="104.96" y="0">t</tspan><tspan class="cls-34" x="108.57" y="0">i</tspan><tspan class="cls-25" x="111.4" y="0">m</tspan><tspan class="cls-85" x="122.28" y="0">e</tspan><tspan class="cls-86" x="129.72" y="0">-</tspan><tspan class="cls-87" x="134.33" y="0">c</tspan><tspan class="cls-56" x="140.91" y="0">o</tspan><tspan class="cls-25" x="148.17" y="0">n</tspan><tspan class="cls-41" x="155.42" y="0">s</tspan><tspan class="cls-21" x="161.88" y="0">u</tspan><tspan class="cls-31" x="169.1" y="0">m</tspan><tspan class="cls-34" x="179.97" y="0">i</tspan><tspan class="cls-58" x="182.79" y="0">n</tspan><tspan x="190.02" y="0">g </tspan><tspan class="cls-31" x="200.97" y="0">j</tspan><tspan class="cls-74" x="203.82" y="0">ob </tspan><tspan class="cls-60" x="222.07" y="0">t</tspan><tspan class="cls-74" x="225.54" y="0">o </tspan></text><text class="cls-19" transform="translate(200.78 213.83)"><tspan class="cls-77">l</tspan><tspan class="cls-26" x="2.88" y="0">o</tspan><tspan class="cls-25" x="10.16" y="0">o</tspan><tspan class="cls-27" x="17.41" y="0">k </tspan><tspan class="cls-28" x="27.62" y="0">a</tspan><tspan x="34.69" y="0">t </tspan><tspan class="cls-25" x="41.99" y="0">t</tspan><tspan class="cls-31" x="45.58" y="0">h</tspan><tspan class="cls-27" x="52.82" y="0">e c</tspan><tspan class="cls-22" x="70.33" y="0">u</tspan><tspan class="cls-78" x="77.47" y="0">r</tspan><tspan class="cls-40" x="81.77" y="0">r</tspan><tspan class="cls-35" x="86.02" y="0">e</tspan><tspan class="cls-22" x="93.25" y="0">n</tspan><tspan x="100.4" y="0">t </tspan><tspan class="cls-88" x="107.69" y="0">E</tspan><tspan class="cls-89" x="116.5" y="0">x</tspan><tspan x="122.79" y="0">c</tspan><tspan class="cls-35" x="129.36" y="0">e</tspan><tspan x="136.59" y="0">l </tspan><tspan class="cls-40" x="143.15" y="0">f</tspan><tspan class="cls-84" x="146.69" y="0">i</tspan><tspan class="cls-35" x="149.5" y="0">l</tspan><tspan class="cls-75" x="152.34" y="0">e</tspan><tspan x="159.34" y="0">. </tspan></text><text class="cls-19" transform="translate(187.65 240.94)"><tspan class="cls-89">4</tspan><tspan x="7.02" y="0">.</tspan></text><text class="cls-19" transform="translate(198.31 240.94)"> </text><text class="cls-19" transform="translate(200.78 240.94)"><tspan class="cls-51">U</tspan><tspan class="cls-21" x="9.35" y="0">s</tspan><tspan class="cls-22" x="15.83" y="0">e</tspan><tspan class="cls-23" x="22.98" y="0">r</tspan><tspan x="27.39" y="0">s </tspan></text><text class="cls-19" transform="translate(238.36 240.94)"><tspan class="cls-35">n</tspan><tspan class="cls-25" x="7.23" y="0">e</tspan><tspan class="cls-26" x="14.48" y="0">e</tspan><tspan class="cls-27" x="21.77" y="0">d a </tspan><tspan class="cls-52" x="43.67" y="0">w</tspan><tspan class="cls-68" x="52.91" y="0">a</tspan><tspan x="59.81" y="0">y</tspan></text><text class="cls-19" transform="translate(304.71 240.94)"> <tspan class="cls-30" x="3.65" y="0">t</tspan><tspan x="7.12" y="0">o </tspan><tspan class="cls-59" x="18.06" y="0">ed</tspan><tspan class="cls-21" x="32.61" y="0">i</tspan><tspan x="35.45" y="0">t </tspan><tspan class="cls-25" x="42.75" y="0">t</tspan><tspan class="cls-35" x="46.34" y="0">h</tspan><tspan x="53.58" y="0">e </tspan><tspan class="cls-31" x="64.53" y="0">si</tspan><tspan class="cls-26" x="73.88" y="0">g</tspan><tspan class="cls-21" x="81.16" y="0">n</tspan><tspan class="cls-55" x="88.38" y="0">a</tspan><tspan class="cls-25" x="95.59" y="0">l</tspan><tspan class="cls-27" x="98.45" y="0">s </tspan></text><text class="cls-19" transform="translate(413.31 240.94)"><tspan class="cls-25">b</tspan><tspan x="7.25" y="0">e</tspan><tspan class="cls-36" x="14.55" y="0">c</tspan><tspan class="cls-37" x="21.14" y="0">a</tspan><tspan class="cls-25" x="28.23" y="0">u</tspan><tspan class="cls-21" x="35.47" y="0">s</tspan><tspan x="41.96" y="0">e</tspan></text><text class="cls-19" transform="translate(462.58 240.94)"> <tspan class="cls-57" x="3.65" y="0">i</tspan><tspan x="6.49" y="0">t </tspan><tspan class="cls-25" x="13.79" y="0">i</tspan><tspan x="16.65" y="0">s </tspan><tspan class="cls-90" x="26.86" y="0">a</tspan><tspan x="34.07" y="0">n </tspan></text><text class="cls-19" transform="translate(200.78 257.72)"><tspan class="cls-75">e</tspan><tspan class="cls-91" x="7" y="0">v</tspan><tspan class="cls-92" x="13.23" y="0">e</tspan><tspan class="cls-93" x="20.39" y="0">r</tspan><tspan class="cls-86" x="24.16" y="0">-</tspan><tspan class="cls-36" x="28.76" y="0">c</tspan><tspan class="cls-55" x="35.36" y="0">ha</tspan><tspan class="cls-21" x="49.77" y="0">n</tspan><tspan class="cls-59" x="56.99" y="0">g</tspan><tspan class="cls-55" x="64.27" y="0">i</tspan><tspan class="cls-21" x="67.09" y="0">n</tspan><tspan x="74.31" y="0">g </tspan><tspan class="cls-21" x="85.26" y="0">e</tspan><tspan class="cls-35" x="92.48" y="0">le</tspan><tspan class="cls-33" x="102.56" y="0">m</tspan><tspan class="cls-35" x="113.44" y="0">e</tspan><tspan class="cls-22" x="120.68" y="0">n</tspan><tspan class="cls-27" x="127.82" y="0">t </tspan><tspan class="cls-38" x="135.12" y="0">o</tspan><tspan x="142.25" y="0">f </tspan><tspan class="cls-25" x="149.55" y="0">t</tspan><tspan class="cls-21" x="153.15" y="0">h</tspan><tspan x="160.37" y="0">e </tspan><tspan class="cls-20" x="171.32" y="0">t</tspan><tspan class="cls-33" x="174.83" y="0">r</tspan><tspan class="cls-20" x="179.15" y="0">a</tspan><tspan class="cls-87" x="186.32" y="0">c</tspan><tspan class="cls-20" x="192.9" y="0">k</tspan><tspan class="cls-94" x="199.33" y="0">s</tspan><tspan class="cls-63" x="205.74" y="0">.</tspan></text><text class="cls-19" transform="translate(187.65 284.83)"><tspan class="cls-22">5</tspan><tspan x="7.14" y="0">.</tspan></text><text class="cls-19" transform="translate(198.43 284.83)"> </text><text class="cls-19" transform="translate(200.78 284.83)"><tspan class="cls-51">U</tspan><tspan class="cls-21" x="9.35" y="0">s</tspan><tspan class="cls-22" x="15.83" y="0">e</tspan><tspan class="cls-23" x="22.98" y="0">r</tspan><tspan x="27.39" y="0">s </tspan></text><text class="cls-24" transform="translate(238.36 284.83)">n<tspan class="cls-25" x="7.23" y="0">e</tspan><tspan class="cls-26" x="14.48" y="0">e</tspan><tspan class="cls-27" x="21.77" y="0">d a </tspan><tspan class="cls-52" x="43.67" y="0">w</tspan><tspan class="cls-29" x="52.91" y="0">a</tspan><tspan class="cls-27" x="59.83" y="0">y</tspan></text><text class="cls-19" transform="translate(304.71 284.83)"> <tspan class="cls-30" x="3.65" y="0">t</tspan><tspan x="7.12" y="0">o </tspan><tspan class="cls-59" x="18.06" y="0">i</tspan><tspan x="20.95" y="0">d</tspan><tspan class="cls-35" x="28.25" y="0">e</tspan><tspan class="cls-22" x="35.49" y="0">n</tspan><tspan class="cls-77" x="42.63" y="0">t</tspan><tspan class="cls-21" x="46.24" y="0">i</tspan><tspan class="cls-86" x="49.07" y="0">f</tspan><tspan x="52.96" y="0">y </tspan><tspan class="cls-33" x="63.17" y="0">t</tspan><tspan class="cls-35" x="66.77" y="0">h</tspan><tspan class="cls-27" x="74.01" y="0">e </tspan><tspan class="cls-35" x="84.96" y="0">si</tspan><tspan class="cls-81" x="94.3" y="0">g</tspan><tspan class="cls-57" x="101.59" y="0">n</tspan><tspan class="cls-90" x="108.81" y="0">a</tspan><tspan class="cls-72" x="116.02" y="0">l</tspan><tspan x="118.88" y="0">s </tspan></text><text class="cls-19" transform="translate(433.72 284.83)"><tspan class="cls-25">b</tspan><tspan x="7.25" y="0">e</tspan><tspan class="cls-36" x="14.55" y="0">c</tspan><tspan class="cls-37" x="21.14" y="0">a</tspan><tspan class="cls-25" x="28.23" y="0">u</tspan><tspan class="cls-21" x="35.47" y="0">s</tspan><tspan x="41.96" y="0">e</tspan></text><text class="cls-19" transform="translate(482.98 284.83)"> <tspan class="cls-72" x="3.65" y="0">t</tspan><tspan class="cls-31" x="7.25" y="0">h</tspan><tspan class="cls-95" x="14.48" y="0">e</tspan><tspan class="cls-40" x="21.64" y="0">r</tspan><tspan x="25.89" y="0">e </tspan><tspan class="cls-56" x="36.84" y="0">i</tspan><tspan x="39.71" y="0">s </tspan></text><text class="cls-19" transform="translate(200.78 301.61)"><tspan class="cls-25">n</tspan><tspan x="7.25" y="0">o</tspan><tspan class="cls-81" x="14.55" y="0"> </tspan><tspan class="cls-96" x="18.18" y="0">c</tspan><tspan class="cls-77" x="24.76" y="0">o</tspan><tspan class="cls-25" x="32.02" y="0">n</tspan><tspan class="cls-21" x="39.27" y="0">s</tspan><tspan class="cls-31" x="45.75" y="0">e</tspan><tspan class="cls-25" x="52.99" y="0">n</tspan><tspan class="cls-41" x="60.23" y="0">s</tspan><tspan class="cls-25" x="66.69" y="0">u</tspan><tspan x="73.94" y="0">s </tspan><tspan class="cls-55" x="84.16" y="0">i</tspan><tspan x="86.98" y="0">n</tspan><tspan class="cls-26" x="94.28" y="0"> </tspan><tspan class="cls-25" x="97.91" y="0">t</tspan><tspan class="cls-35" x="101.51" y="0">h</tspan><tspan x="108.75" y="0">e</tspan><tspan class="cls-81" x="116.04" y="0"> </tspan><tspan class="cls-28" x="119.68" y="0">w</tspan><tspan class="cls-68" x="128.92" y="0">a</tspan><tspan x="135.83" y="0">y</tspan><tspan class="cls-26" x="142.39" y="0"> </tspan><tspan class="cls-25" x="146.03" y="0">t</tspan><tspan class="cls-35" x="149.63" y="0">h</tspan><tspan class="cls-75" x="156.86" y="0">e</tspan><tspan x="163.86" y="0">y </tspan><tspan class="cls-77" x="174.07" y="0">s</tspan><tspan class="cls-25" x="180.6" y="0">h</tspan><tspan class="cls-21" x="187.85" y="0">o</tspan><tspan class="cls-55" x="195.07" y="0">u</tspan><tspan class="cls-59" x="202.27" y="0">l</tspan><tspan class="cls-27" x="205.16" y="0">d </tspan><tspan class="cls-25" x="216.11" y="0">b</tspan><tspan class="cls-74" x="223.36" y="0">e</tspan><tspan class="cls-71" x="230.66" y="0"> </tspan><tspan class="cls-21" x="234.29" y="0">n</tspan><tspan class="cls-97" x="241.52" y="0">a</tspan><tspan class="cls-25" x="248.71" y="0">m</tspan><tspan class="cls-81" x="259.59" y="0">e</tspan><tspan x="266.88" y="0">d </tspan><tspan class="cls-40" x="277.83" y="0">o</tspan><tspan class="cls-74" x="285.01" y="0">r </tspan><tspan class="cls-36" x="293.03" y="0">c</tspan><tspan class="cls-98" x="299.62" y="0">a</tspan><tspan class="cls-99" x="306.69" y="0">t</tspan><tspan class="cls-25" x="310.13" y="0">e</tspan><tspan class="cls-74" x="317.37" y="0">g</tspan><tspan class="cls-40" x="324.67" y="0">o</tspan><tspan class="cls-81" x="331.85" y="0">r</tspan><tspan class="cls-39" x="336.21" y="0">i</tspan></text><text class="cls-19" transform="translate(539.63 301.61)">-</text><text class="cls-19" transform="translate(200.78 318.39)"><tspan class="cls-100">z</tspan><tspan class="cls-59" x="6.28" y="0">e</tspan><tspan class="cls-92" x="13.55" y="0">d</tspan><tspan x="20.7" y="0">, </tspan><tspan class="cls-34" x="28" y="0">a</tspan><tspan class="cls-77" x="35.21" y="0">n</tspan><tspan class="cls-27" x="42.47" y="0">d </tspan><tspan class="cls-25" x="53.42" y="0">t</tspan><tspan class="cls-21" x="57.02" y="0">h</tspan><tspan class="cls-25" x="64.24" y="0">i</tspan><tspan x="67.1" y="0">s </tspan><tspan class="cls-77" x="77.31" y="0">m</tspan><tspan class="cls-40" x="88.21" y="0">a</tspan><tspan class="cls-66" x="95.39" y="0">k</tspan><tspan class="cls-35" x="101.64" y="0">e</tspan><tspan class="cls-27" x="108.88" y="0">s </tspan><tspan class="cls-78" x="119.09" y="0">i</tspan><tspan class="cls-27" x="121.93" y="0">t </tspan><tspan class="cls-55" x="129.23" y="0">h</tspan><tspan class="cls-38" x="136.43" y="0">a</tspan><tspan class="cls-101" x="143.56" y="0">r</tspan><tspan x="147.91" y="0">d </tspan><tspan class="cls-60" x="158.86" y="0">t</tspan><tspan class="cls-27" x="162.32" y="0">o </tspan><tspan class="cls-59" x="173.27" y="0">i</tspan><tspan class="cls-27" x="176.16" y="0">d</tspan><tspan class="cls-35" x="183.46" y="0">e</tspan><tspan class="cls-22" x="190.69" y="0">n</tspan><tspan class="cls-77" x="197.84" y="0">t</tspan><tspan class="cls-78" x="201.45" y="0">i</tspan><tspan class="cls-86" x="204.28" y="0">f</tspan><tspan class="cls-102" x="208.17" y="0">y</tspan><tspan x="213.83" y="0">.</tspan></text><text class="cls-19" transform="translate(0 47.23)"><tspan class="cls-20">U</tspan><tspan class="cls-35" x="9.35" y="0">s</tspan><tspan class="cls-55" x="15.85" y="0">i</tspan><tspan class="cls-31" x="18.67" y="0">n</tspan><tspan class="cls-27" x="25.9" y="0">g a </tspan><tspan class="cls-40" x="47.8" y="0">p</tspan><tspan class="cls-26" x="54.98" y="0">r</tspan><tspan class="cls-34" x="59.34" y="0">i</tspan><tspan class="cls-38" x="62.16" y="0">n</tspan><tspan class="cls-69" x="69.29" y="0">t</tspan><tspan class="cls-59" x="72.73" y="0">e</tspan><tspan class="cls-27" x="80.01" y="0">d </tspan><tspan class="cls-26" x="90.96" y="0">s</tspan><tspan class="cls-77" x="97.51" y="0">c</tspan><tspan class="cls-71" x="104.03" y="0">r</tspan><tspan class="cls-77" x="108.39" y="0">i</tspan><tspan class="cls-92" x="111.27" y="0">p</tspan><tspan class="cls-35" x="118.42" y="0">t</tspan><tspan x="122" y="0">, </tspan><tspan class="cls-60" x="129.3" y="0">t</tspan><tspan class="cls-27" x="132.77" y="0">o </tspan></text><text class="cls-19" transform="translate(0 62.98)"><tspan class="cls-78">s</tspan><tspan class="cls-100" x="6.49" y="0">e</tspan><tspan class="cls-103" x="13.5" y="0">v</tspan><tspan class="cls-92" x="19.75" y="0">e</tspan><tspan class="cls-33" x="26.9" y="0">r</tspan><tspan class="cls-21" x="31.22" y="0">a</tspan><tspan x="38.44" y="0">l </tspan><tspan class="cls-26" x="45" y="0">p</tspan><tspan class="cls-38" x="52.29" y="0">o</tspan><tspan class="cls-69" x="59.42" y="0">t</tspan><tspan class="cls-31" x="62.86" y="0">e</tspan><tspan class="cls-73" x="70.09" y="0">n</tspan><tspan class="cls-77" x="77.24" y="0">t</tspan><tspan class="cls-78" x="80.85" y="0">ia</tspan><tspan x="90.9" y="0">l </tspan><tspan class="cls-25" x="97.47" y="0">u</tspan><tspan class="cls-34" x="104.71" y="0">s</tspan><tspan class="cls-92" x="111.19" y="0">e</tspan><tspan class="cls-23" x="118.34" y="0">r</tspan><tspan x="122.75" y="0">s </tspan></text><text class="cls-19" transform="translate(0 78.74)"><tspan class="cls-55">i</tspan><tspan x="2.82" y="0">n </tspan><tspan class="cls-77" x="13.77" y="0">t</tspan><tspan class="cls-35" x="17.38" y="0">h</tspan><tspan class="cls-27" x="24.62" y="0">e d</tspan><tspan class="cls-104" x="42.87" y="0">e</tspan><tspan class="cls-78" x="50.14" y="0">p</tspan><tspan class="cls-38" x="57.36" y="0">a</tspan><tspan class="cls-105" x="64.49" y="0">r</tspan><tspan class="cls-77" x="69.19" y="0">t</tspan><tspan class="cls-33" x="72.8" y="0">m</tspan><tspan class="cls-35" x="83.68" y="0">e</tspan><tspan class="cls-22" x="90.92" y="0">n</tspan><tspan class="cls-25" x="98.06" y="0">t</tspan><tspan x="101.66" y="0">.</tspan></text><line class="cls-18" x1="554.38" y1="48.53" x2="636.02" y2="48.53"/><text class="cls-106" transform="translate(554.38 47.21)">H<tspan class="cls-37" x="9.47" y="0">o</tspan><tspan class="cls-39" x="16.55" y="0">w </tspan><tspan class="cls-25" x="29.68" y="0">mi</tspan><tspan x="43.43" y="0">g</tspan><tspan class="cls-73" x="50.72" y="0">h</tspan><tspan class="cls-39" x="57.86" y="0">t </tspan><tspan class="cls-107" x="65.16" y="0">w</tspan><tspan class="cls-74" x="74.41" y="0">e</tspan></text><text class="cls-19" transform="translate(636.02 47.21)"><tspan xml:space="preserve"> do </tspan><tspan class="cls-57" x="21.9" y="0">i</tspan><tspan class="cls-72" x="24.73" y="0">t</tspan><tspan class="cls-74" x="28.33" y="0">?</tspan></text><line class="cls-18" x1="567.5" y1="93.81" x2="649.15" y2="93.81"/><line class="cls-18" x1="567.5" y1="137.7" x2="649.15" y2="137.7"/><line class="cls-18" x1="567.5" y1="181.58" x2="649.15" y2="181.58"/><line class="cls-18" x1="567.5" y1="242.25" x2="649.15" y2="242.25"/><line class="cls-18" x1="567.5" y1="282" x2="649.15" y2="282"/><text class="cls-108" transform="translate(554.38 92.49)">1<tspan class="cls-39" x="6.37" y="0">.</tspan></text><text class="cls-19" transform="translate(564.39 92.49)"> </text><text class="cls-106" transform="translate(567.5 92.49)">H<tspan class="cls-37" x="9.47" y="0">o</tspan><tspan class="cls-39" x="16.55" y="0">w </tspan><tspan class="cls-25" x="29.68" y="0">mi</tspan><tspan x="43.43" y="0">g</tspan><tspan class="cls-73" x="50.72" y="0">h</tspan><tspan class="cls-39" x="57.86" y="0">t </tspan><tspan class="cls-107" x="65.16" y="0">w</tspan><tspan class="cls-74" x="74.41" y="0">e</tspan></text><text class="cls-19" transform="translate(649.15 92.49)"> <tspan class="cls-56" x="3.65" y="0">m</tspan><tspan class="cls-41" x="14.55" y="0">a</tspan><tspan class="cls-91" x="21.74" y="0">k</tspan><tspan class="cls-74" x="27.98" y="0">e </tspan><tspan class="cls-21" x="38.93" y="0">i</tspan><tspan class="cls-39" x="41.76" y="0">t </tspan><tspan class="cls-41" x="49.06" y="0">e</tspan><tspan class="cls-31" x="56.26" y="0">a</tspan><tspan class="cls-109" x="63.49" y="0">s</tspan><tspan x="69.83" y="0">y </tspan><tspan class="cls-107" x="80.05" y="0">f</tspan><tspan class="cls-110" x="83.47" y="0">o</tspan><tspan x="90.65" y="0">r </tspan><tspan class="cls-25" x="98.67" y="0">u</tspan><tspan class="cls-57" x="105.92" y="0">s</tspan><tspan class="cls-95" x="112.41" y="0">e</tspan><tspan class="cls-111" x="119.56" y="0">r</tspan><tspan class="cls-74" x="123.97" y="0">s </tspan><tspan class="cls-60" x="134.19" y="0">t</tspan><tspan x="137.65" y="0">o </tspan></text><text class="cls-19" transform="translate(567.5 109.27)"><tspan class="cls-31">s</tspan><tspan class="cls-110" x="6.5" y="0">o</tspan><tspan class="cls-105" x="13.68" y="0">r</tspan><tspan class="cls-39" x="18.38" y="0">t </tspan><tspan class="cls-31" x="25.68" y="0">si</tspan><tspan class="cls-81" x="35.03" y="0">g</tspan><tspan class="cls-34" x="42.31" y="0">na</tspan><tspan class="cls-72" x="56.73" y="0">l</tspan><tspan x="59.59" y="0">s </tspan><tspan class="cls-72" x="69.8" y="0">w</tspan><tspan class="cls-58" x="79.23" y="0">h</tspan><tspan class="cls-21" x="86.46" y="0">e</tspan><tspan class="cls-31" x="93.69" y="0">n</tspan><tspan class="cls-64" x="100.92" y="0">e</tspan><tspan class="cls-112" x="107.92" y="0">v</tspan><tspan class="cls-92" x="114.15" y="0">e</tspan><tspan x="121.31" y="0">r </tspan><tspan class="cls-72" x="129.33" y="0">t</tspan><tspan class="cls-21" x="132.93" y="0">h</tspan><tspan class="cls-64" x="140.15" y="0">e</tspan><tspan class="cls-74" x="147.15" y="0">y </tspan><tspan class="cls-58" x="157.36" y="0">n</tspan><tspan class="cls-25" x="164.59" y="0">e</tspan><tspan class="cls-59" x="171.84" y="0">e</tspan><tspan x="179.11" y="0">d </tspan><tspan class="cls-113" x="190.06" y="0">t</tspan><tspan class="cls-114" x="193.53" y="0">o</tspan><tspan x="200.15" y="0">?</tspan></text><text class="cls-19" transform="translate(554.38 136.38)"><tspan class="cls-21">2</tspan><tspan x="7.22" y="0">.</tspan></text><text class="cls-19" transform="translate(565.23 136.38)"> </text><text class="cls-106" transform="translate(567.5 136.38)">H<tspan class="cls-37" x="9.47" y="0">o</tspan><tspan class="cls-39" x="16.55" y="0">w </tspan><tspan class="cls-25" x="29.68" y="0">mi</tspan><tspan x="43.43" y="0">g</tspan><tspan class="cls-73" x="50.72" y="0">h</tspan><tspan class="cls-39" x="57.86" y="0">t </tspan><tspan class="cls-107" x="65.16" y="0">w</tspan><tspan class="cls-74" x="74.41" y="0">e</tspan></text><text class="cls-19" transform="translate(649.15 136.38)"> <tspan class="cls-40" x="3.65" y="0">o</tspan><tspan class="cls-25" x="10.83" y="0">r</tspan><tspan x="15.15" y="0">g</tspan><tspan class="cls-90" x="22.45" y="0">a</tspan><tspan class="cls-57" x="29.66" y="0">n</tspan><tspan class="cls-115" x="36.88" y="0">i</tspan><tspan class="cls-100" x="39.58" y="0">z</tspan><tspan x="45.86" y="0">e </tspan><tspan class="cls-72" x="56.81" y="0">t</tspan><tspan class="cls-58" x="60.41" y="0">h</tspan><tspan x="67.64" y="0">e </tspan><tspan class="cls-56" x="78.59" y="0">m</tspan><tspan class="cls-110" x="89.49" y="0">or</tspan><tspan x="100.92" y="0">e </tspan><tspan class="cls-72" x="111.87" y="0">t</tspan><tspan class="cls-21" x="115.47" y="0">h</tspan><tspan class="cls-41" x="122.69" y="0">a</tspan><tspan x="129.88" y="0">n </tspan></text><text class="cls-19" transform="translate(567.5 153.16)"><tspan class="cls-31">5</tspan><tspan class="cls-85" x="7.23" y="0">0</tspan><tspan x="14.68" y="0">0 </tspan><tspan class="cls-31" x="25.63" y="0">s</tspan><tspan class="cls-72" x="32.13" y="0">i</tspan><tspan class="cls-81" x="34.99" y="0">g</tspan><tspan class="cls-21" x="42.27" y="0">n</tspan><tspan class="cls-34" x="49.5" y="0">a</tspan><tspan class="cls-25" x="56.7" y="0">l</tspan><tspan class="cls-116" x="59.56" y="0">s</tspan><tspan x="65.62" y="0">?</tspan></text><text class="cls-19" transform="translate(554.38 180.27)"><tspan class="cls-31">3</tspan><tspan x="7.23" y="0">.</tspan></text><text class="cls-19" transform="translate(565.25 180.27)"> </text><text class="cls-106" transform="translate(567.5 180.27)">H<tspan class="cls-37" x="9.47" y="0">o</tspan><tspan class="cls-39" x="16.55" y="0">w </tspan><tspan class="cls-25" x="29.68" y="0">mi</tspan><tspan x="43.43" y="0">g</tspan><tspan class="cls-73" x="50.72" y="0">h</tspan><tspan class="cls-39" x="57.86" y="0">t </tspan><tspan class="cls-107" x="65.16" y="0">w</tspan><tspan class="cls-74" x="74.41" y="0">e</tspan></text><text class="cls-19" transform="translate(649.15 180.27)"> <tspan class="cls-56" x="3.65" y="0">m</tspan><tspan class="cls-41" x="14.55" y="0">a</tspan><tspan class="cls-91" x="21.74" y="0">k</tspan><tspan class="cls-74" x="27.98" y="0">e </tspan><tspan class="cls-21" x="38.93" y="0">i</tspan><tspan class="cls-39" x="41.76" y="0">t </tspan><tspan class="cls-117" x="49.06" y="0">f</tspan><tspan class="cls-58" x="52.54" y="0">a</tspan><tspan class="cls-34" x="59.77" y="0">s</tspan><tspan class="cls-115" x="66.25" y="0">t</tspan><tspan class="cls-92" x="69.69" y="0">e</tspan><tspan x="76.84" y="0">r </tspan><tspan class="cls-113" x="84.86" y="0">t</tspan><tspan class="cls-74" x="88.33" y="0">o </tspan><tspan class="cls-79" x="99.28" y="0">a</tspan><tspan class="cls-118" x="106.45" y="0">c</tspan><tspan x="113.08" y="0">c</tspan><tspan class="cls-31" x="119.64" y="0">e</tspan><tspan x="126.88" y="0">ss </tspan></text><text class="cls-19" transform="translate(567.5 197.05)"><tspan class="cls-56">t</tspan><tspan class="cls-31" x="3.61" y="0">h</tspan><tspan class="cls-74" x="10.84" y="0">e </tspan><tspan class="cls-34" x="21.79" y="0">i</tspan><tspan class="cls-92" x="24.62" y="0">n</tspan><tspan class="cls-107" x="31.77" y="0">f</tspan><tspan class="cls-110" x="35.2" y="0">o</tspan><tspan x="42.38" y="0">r</tspan><tspan class="cls-32" x="46.75" y="0">m</tspan><tspan class="cls-28" x="57.65" y="0">a</tspan><tspan class="cls-72" x="64.71" y="0">t</tspan><tspan class="cls-56" x="68.31" y="0">io</tspan><tspan x="78.44" y="0">n </tspan><tspan class="cls-38" x="89.39" y="0">o</tspan><tspan class="cls-39" x="96.52" y="0">f </tspan><tspan class="cls-56" x="103.82" y="0">t</tspan><tspan class="cls-31" x="107.43" y="0">h</tspan><tspan class="cls-74" x="114.67" y="0">e </tspan><tspan class="cls-31" x="125.62" y="0">si</tspan><tspan class="cls-81" x="134.96" y="0">g</tspan><tspan class="cls-34" x="142.25" y="0">na</tspan><tspan class="cls-56" x="156.66" y="0">l</tspan><tspan class="cls-116" x="159.54" y="0">s</tspan><tspan x="165.59" y="0">?</tspan></text><text class="cls-119" transform="translate(554.38 240.94)">4<tspan class="cls-39" x="7.02" y="0">.</tspan></text><text class="cls-19" transform="translate(565.04 240.94)"> </text><text class="cls-106" transform="translate(567.5 240.94)">H<tspan class="cls-37" x="9.47" y="0">o</tspan><tspan class="cls-39" x="16.55" y="0">w </tspan><tspan class="cls-25" x="29.68" y="0">mi</tspan><tspan x="43.43" y="0">g</tspan><tspan class="cls-73" x="50.72" y="0">h</tspan><tspan class="cls-39" x="57.86" y="0">t </tspan><tspan class="cls-107" x="65.16" y="0">w</tspan><tspan class="cls-74" x="74.41" y="0">e</tspan></text><text class="cls-19" transform="translate(649.15 240.94)"> <tspan class="cls-34" x="3.65" y="0">a</tspan><tspan class="cls-97" x="10.86" y="0">l</tspan><tspan class="cls-56" x="13.67" y="0">l</tspan><tspan class="cls-37" x="16.54" y="0">o</tspan><tspan class="cls-39" x="23.63" y="0">w </tspan><tspan class="cls-25" x="36.76" y="0">u</tspan><tspan class="cls-21" x="44.01" y="0">s</tspan><tspan class="cls-92" x="50.49" y="0">e</tspan><tspan class="cls-120" x="57.65" y="0">r</tspan><tspan x="62.06" y="0">s </tspan><tspan class="cls-60" x="72.27" y="0">t</tspan><tspan class="cls-74" x="75.74" y="0">o </tspan><tspan class="cls-79" x="86.69" y="0">a</tspan><tspan class="cls-118" x="93.86" y="0">c</tspan><tspan x="100.49" y="0">c</tspan><tspan class="cls-31" x="107.05" y="0">e</tspan><tspan x="114.29" y="0">ss </tspan><tspan class="cls-34" x="131.06" y="0">a</tspan><tspan class="cls-32" x="138.27" y="0">n</tspan><tspan x="145.53" y="0">d </tspan></text><text class="cls-19" transform="translate(567.5 257.72)"><tspan class="cls-59">ed</tspan><tspan class="cls-21" x="14.55" y="0">i</tspan><tspan class="cls-39" x="17.38" y="0">t </tspan><tspan class="cls-72" x="24.68" y="0">t</tspan><tspan class="cls-58" x="28.28" y="0">h</tspan><tspan x="35.51" y="0">e </tspan><tspan class="cls-31" x="46.46" y="0">si</tspan><tspan class="cls-71" x="55.81" y="0">g</tspan><tspan class="cls-90" x="63.1" y="0">na</tspan><tspan class="cls-25" x="77.51" y="0">l</tspan><tspan x="80.37" y="0">s </tspan><tspan class="cls-59" x="90.59" y="0">o</tspan><tspan class="cls-74" x="97.86" y="0">n d</tspan><tspan class="cls-58" x="116.11" y="0">e</tspan><tspan class="cls-32" x="123.34" y="0">m</tspan><tspan class="cls-34" x="134.24" y="0">a</tspan><tspan class="cls-32" x="141.45" y="0">n</tspan><tspan class="cls-100" x="148.71" y="0">d</tspan><tspan x="155.72" y="0">?</tspan></text><text class="cls-121" transform="translate(554.38 280.69)">5<tspan class="cls-39" x="7.14" y="0">.</tspan></text><text class="cls-19" transform="translate(565.15 280.69)"> </text><text class="cls-106" transform="translate(567.5 280.69)">H<tspan class="cls-37" x="9.47" y="0">o</tspan><tspan class="cls-39" x="16.55" y="0">w </tspan><tspan class="cls-25" x="29.68" y="0">mi</tspan><tspan x="43.43" y="0">g</tspan><tspan class="cls-73" x="50.72" y="0">h</tspan><tspan class="cls-39" x="57.86" y="0">t </tspan><tspan class="cls-107" x="65.16" y="0">w</tspan><tspan class="cls-74" x="74.41" y="0">e</tspan></text><text class="cls-19" transform="translate(649.15 280.69)"> <tspan class="cls-56" x="3.65" y="0">c</tspan><tspan class="cls-40" x="10.17" y="0">r</tspan><tspan class="cls-41" x="14.43" y="0">e</tspan><tspan class="cls-28" x="21.62" y="0">a</tspan><tspan class="cls-115" x="28.69" y="0">t</tspan><tspan x="32.13" y="0">e </tspan><tspan class="cls-34" x="43.08" y="0">a</tspan><tspan class="cls-74" x="50.28" y="0">n </tspan><tspan class="cls-59" x="61.23" y="0">i</tspan><tspan x="64.12" y="0">d</tspan><tspan class="cls-31" x="71.42" y="0">e</tspan><tspan class="cls-73" x="78.65" y="0">n</tspan><tspan class="cls-56" x="85.8" y="0">t</tspan><tspan class="cls-57" x="89.41" y="0">i</tspan><tspan class="cls-42" x="92.24" y="0">f</tspan><tspan class="cls-36" x="95.69" y="0">c</tspan><tspan class="cls-28" x="102.29" y="0">a</tspan><tspan class="cls-56" x="109.35" y="0">t</tspan><tspan class="cls-72" x="112.96" y="0">i</tspan><tspan class="cls-32" x="115.82" y="0">o</tspan><tspan x="123.08" y="0">n </tspan></text><text class="cls-19" transform="translate(567.5 297.47)"><tspan class="cls-109">s</tspan><tspan class="cls-122" x="6.34" y="0">y</tspan><tspan class="cls-90" x="12.71" y="0">s</tspan><tspan class="cls-99" x="19.18" y="0">t</tspan><tspan class="cls-58" x="22.62" y="0">e</tspan><tspan x="29.85" y="0">m </tspan><tspan class="cls-107" x="44.44" y="0">f</tspan><tspan class="cls-40" x="47.87" y="0">o</tspan><tspan x="55.05" y="0">r </tspan><tspan class="cls-72" x="63.07" y="0">t</tspan><tspan class="cls-58" x="66.67" y="0">h</tspan><tspan x="73.9" y="0">e </tspan><tspan class="cls-31" x="84.85" y="0">si</tspan><tspan class="cls-81" x="94.2" y="0">g</tspan><tspan class="cls-34" x="101.48" y="0">na</tspan><tspan class="cls-25" x="115.9" y="0">l</tspan><tspan x="118.76" y="0">s </tspan><tspan class="cls-25" x="128.98" y="0">t</tspan><tspan class="cls-21" x="132.57" y="0">h</tspan><tspan class="cls-28" x="139.79" y="0">a</tspan><tspan x="146.86" y="0">t </tspan><tspan class="cls-123" x="154.16" y="0">e</tspan><tspan class="cls-31" x="161.15" y="0">x</tspan><tspan class="cls-72" x="167.65" y="0">i</tspan><tspan class="cls-90" x="170.52" y="0">s</tspan><tspan class="cls-39" x="176.99" y="0">t </tspan><tspan class="cls-107" x="184.29" y="0">f</tspan><tspan class="cls-40" x="187.71" y="0">o</tspan><tspan class="cls-74" x="194.9" y="0">r </tspan><tspan class="cls-41" x="202.92" y="0">e</tspan><tspan class="cls-31" x="210.11" y="0">a</tspan><tspan class="cls-109" x="217.35" y="0">s</tspan><tspan x="223.69" y="0">y </tspan></text><text class="cls-19" transform="translate(567.5 314.25)"><tspan class="cls-36">c</tspan><tspan class="cls-28" x="6.59" y="0">a</tspan><tspan class="cls-115" x="13.65" y="0">t</tspan><tspan class="cls-25" x="17.09" y="0">e</tspan><tspan x="24.34" y="0">g</tspan><tspan class="cls-110" x="31.64" y="0">o</tspan><tspan class="cls-71" x="38.82" y="0">r</tspan><tspan class="cls-115" x="43.18" y="0">i</tspan><tspan class="cls-32" x="45.88" y="0">z</tspan><tspan class="cls-28" x="52.41" y="0">a</tspan><tspan class="cls-56" x="59.47" y="0">tio</tspan><tspan class="cls-124" x="73.22" y="0">n</tspan><tspan x="79.95" y="0">?</tspan></text></svg>