<svg id="Capa_1" data-name="Capa 1" xmlns="http://www.w3.org/2000/svg" viewBox="0 0 794.29 142.33"><defs><style>.cls-1,.cls-10,.cls-14,.cls-19,.cls-47,.cls-50,.cls-55,.cls-63{font-size:20.68px;}.cls-1{fill:#2b4c9b;}.cls-1,.cls-10,.cls-14,.cls-19,.cls-26,.cls-47,.cls-50,.cls-55,.cls-63{font-family:HelveticaLTStd-Roman, Helvetica LT Std;}.cls-2{letter-spacing:-0.01em;}.cls-3{letter-spacing:-0.01em;}.cls-4{letter-spacing:-0.01em;}.cls-5{letter-spacing:-0.03em;}.cls-6{letter-spacing:-0.02em;}.cls-7{letter-spacing:-0.02em;}.cls-8{letter-spacing:-0.1em;}.cls-9{letter-spacing:-0.01em;}.cls-10{fill:#c04c96;}.cls-11{letter-spacing:0em;}.cls-12{letter-spacing:-0.01em;}.cls-13{letter-spacing:-0.03em;}.cls-14{fill:#eb5f61;}.cls-15{letter-spacing:-0.02em;}.cls-16{letter-spacing:-0.01em;}.cls-17{letter-spacing:-0.09em;}.cls-18{letter-spacing:-0.02em;}.cls-19{fill:#ebac1b;}.cls-20{letter-spacing:-0.03em;}.cls-21{letter-spacing:-0.01em;}.cls-22{letter-spacing:-0.03em;}.cls-23{letter-spacing:0.02em;}.cls-24{letter-spacing:-0.03em;}.cls-25{fill:none;stroke:#1d1d1b;stroke-width:1.5px;}.cls-26{font-size:12.41px;fill:#1d1d1b;}.cls-27{letter-spacing:-0.01em;}.cls-28{letter-spacing:0em;}.cls-29{letter-spacing:0em;}.cls-30{letter-spacing:0em;}.cls-31{letter-spacing:-0.01em;}.cls-32{letter-spacing:0em;}.cls-33{letter-spacing:-0.02em;}.cls-34{letter-spacing:0em;}.cls-35{letter-spacing:0em;}.cls-36{letter-spacing:-0.01em;}.cls-37{letter-spacing:-0.01em;}.cls-38{letter-spacing:-0.02em;}.cls-39{letter-spacing:-0.01em;}.cls-40{letter-spacing:-0.01em;}.cls-41{letter-spacing:-0.02em;}.cls-42{letter-spacing:0em;}.cls-43{letter-spacing:0em;}.cls-44{letter-spacing:0em;}.cls-45{letter-spacing:-0.01em;}.cls-46{letter-spacing:-0.01em;}.cls-47{fill:#3cae62;}.cls-48{letter-spacing:-0.03em;}.cls-49{letter-spacing:-0.02em;}.cls-50{fill:#0295ad;}.cls-51{letter-spacing:-0.01em;}.cls-52{letter-spacing:-0.03em;}.cls-53{letter-spacing:-0.02em;}.cls-54{letter-spacing:-0.01em;}.cls-56{letter-spacing:-0.02em;}.cls-57{letter-spacing:-0.02em;}.cls-58,.cls-63{letter-spacing:0em;}.cls-59{letter-spacing:-0.03em;}.cls-60{letter-spacing:-0.01em;}.cls-61{letter-spacing:-0.01em;}.cls-62{letter-spacing:-0.01em;}.cls-64{letter-spacing:-0.01em;}.cls-65{letter-spacing:-0.01em;}.cls-66{letter-spacing:-0.03em;}.cls-67{letter-spacing:0em;}.cls-68{letter-spacing:-0.02em;}.cls-69{letter-spacing:-0.01em;}.cls-70{letter-spacing:0em;}.cls-71{letter-spacing:-0.01em;}.cls-72{letter-spacing:-0.02em;}.cls-73{letter-spacing:-0.04em;}.cls-74{letter-spacing:-0.03em;}.cls-75{letter-spacing:-0.01em;}.cls-76{letter-spacing:-0.04em;}.cls-77{letter-spacing:0.01em;}.cls-78{letter-spacing:-0.01em;}.cls-79{letter-spacing:-0.01em;}.cls-80{letter-spacing:-0.02em;}</style></defs><text class="cls-1" transform="translate(0 17.16)"><tspan class="cls-2">U</tspan><tspan class="cls-3" x="14.74" y="0">N</tspan><tspan class="cls-4" x="29.5" y="0">D</tspan><tspan class="cls-5" x="44.16" y="0">E</tspan><tspan class="cls-6" x="57.35" y="0">R</tspan><tspan class="cls-7" x="71.95" y="0">S</tspan><tspan class="cls-8" x="85.33" y="0">T</tspan><tspan class="cls-9" x="95.89" y="0">A</tspan><tspan class="cls-3" x="109.46" y="0">N</tspan><tspan x="124.22" y="0">D</tspan></text><text class="cls-10" transform="translate(183.6 17.16)"><tspan class="cls-11">O</tspan><tspan class="cls-12" x="16" y="0">B</tspan><tspan class="cls-4" x="29.57" y="0">S</tspan><tspan class="cls-5" x="43.09" y="0">E</tspan><tspan class="cls-13" x="56.28" y="0">R</tspan><tspan class="cls-7" x="70.52" y="0">V</tspan><tspan x="83.9" y="0">E</tspan></text><text class="cls-14" transform="translate(324.88 17.16)"><tspan class="cls-15">I</tspan><tspan class="cls-16" x="5.38" y="0">D</tspan><tspan x="20.03" y="0">E</tspan><tspan class="cls-17" x="33.83" y="0">A</tspan><tspan class="cls-18" x="45.67" y="0">T</tspan><tspan x="57.95" y="0">E</tspan></text><text class="cls-19" transform="translate(437.6 17.16)"><tspan class="cls-20">P</tspan><tspan class="cls-21" x="13.09" y="0">R</tspan><tspan class="cls-22" x="27.73" y="0">O</tspan><tspan class="cls-20" x="43.09" y="0">T</tspan><tspan class="cls-22" x="55.02" y="0">O</tspan><tspan class="cls-23" x="70.38" y="0">T</tspan><tspan class="cls-18" x="83.41" y="0">Y</tspan><tspan class="cls-24" x="96.84" y="0">P</tspan><tspan x="109.95" y="0">E</tspan></text><line class="cls-25" y1="30.25" x2="793.19" y2="30.25"/><polyline class="cls-25" points="790.06 27.34 793.19 30.25 790.06 33.16"/><text class="cls-26" transform="translate(112.34 51.16)"><tspan class="cls-27">I</tspan><tspan class="cls-28" x="3.3" y="0">n</tspan><tspan class="cls-29" x="10.15" y="0">s</tspan><tspan class="cls-30" x="16.35" y="0">p</tspan><tspan class="cls-31" x="23.21" y="0">i</tspan><tspan class="cls-32" x="25.8" y="0">r</tspan><tspan class="cls-33" x="29.9" y="0">a</tspan><tspan class="cls-32" x="36.57" y="0">tio</tspan><tspan x="49.56" y="0">n</tspan></text><text class="cls-26" transform="translate(312.42 51.16)"><tspan class="cls-34">C</tspan><tspan class="cls-32" x="8.93" y="0">o</tspan><tspan x="15.79" y="0">nc</tspan><tspan class="cls-34" x="28.89" y="0">e</tspan><tspan class="cls-27" x="35.76" y="0">pt</tspan><tspan class="cls-35" x="45.81" y="0">u</tspan><tspan class="cls-36" x="52.66" y="0">a</tspan><tspan class="cls-37" x="59.47" y="0">l</tspan><tspan class="cls-38" x="62.13" y="0">i</tspan><tspan class="cls-32" x="64.68" y="0">z</tspan><tspan class="cls-33" x="70.85" y="0">a</tspan><tspan class="cls-32" x="77.52" y="0">ti</tspan><tspan class="cls-34" x="83.65" y="0">o</tspan><tspan x="90.52" y="0">n</tspan></text><text class="cls-26" transform="translate(527.82 51.16)"><tspan class="cls-39">I</tspan><tspan class="cls-38" x="3.31" y="0">t</tspan><tspan class="cls-40" x="6.56" y="0">e</tspan><tspan class="cls-28" x="13.32" y="0">r</tspan><tspan class="cls-41" x="17.4" y="0">a</tspan><tspan class="cls-28" x="24.08" y="0">t</tspan><tspan class="cls-32" x="27.48" y="0">io</tspan><tspan x="37.05" y="0">n</tspan></text><text class="cls-26" transform="translate(705.15 51.16)"><tspan class="cls-42">E</tspan><tspan class="cls-43" x="8.32" y="0">x</tspan><tspan class="cls-44" x="14.53" y="0">p</tspan><tspan class="cls-45" x="21.41" y="0">o</tspan><tspan class="cls-28" x="28.25" y="0">s</tspan><tspan class="cls-46" x="34.4" y="0">i</tspan><tspan class="cls-32" x="37.08" y="0">tio</tspan><tspan x="50.07" y="0">n</tspan></text><text class="cls-47" transform="translate(609.99 17.16)"><tspan class="cls-18">T</tspan><tspan class="cls-48" x="12.28" y="0">E</tspan><tspan class="cls-49" x="25.41" y="0">S</tspan><tspan x="38.79" y="0">T</tspan></text><text class="cls-50" transform="translate(697.94 17.16)"><tspan class="cls-20">P</tspan><tspan class="cls-51" x="13.09" y="0">R</tspan><tspan class="cls-52" x="27.77" y="0">E</tspan><tspan class="cls-16" x="40.88" y="0">S</tspan><tspan class="cls-53" x="54.4" y="0">E</tspan><tspan class="cls-54" x="67.71" y="0">N</tspan><tspan x="82.39" y="0">T</tspan></text><line class="cls-25" y1="47.33" x2="106.83" y2="47.33"/><line class="cls-25" x1="175.45" y1="47.33" x2="282.28" y2="47.33"/><line class="cls-25" x1="295.54" y1="47.22" x2="307.58" y2="47.22"/><line class="cls-25" x1="414.66" y1="47.22" x2="426.7" y2="47.22"/><line class="cls-25" x1="437.59" y1="46.7" x2="524.55" y2="46.7"/><line class="cls-25" x1="574.97" y1="46.7" x2="665.6" y2="46.7"/><line class="cls-25" x1="673.22" y1="46.7" x2="702.06" y2="46.7"/><line class="cls-25" x1="765.12" y1="46.7" x2="793.95" y2="46.7"/><text class="cls-55" transform="translate(78.1 108.38)"><tspan class="cls-56">I</tspan><tspan class="cls-54" x="5.44" y="0">N</tspan><tspan class="cls-18" x="20.12" y="0">T</tspan><tspan class="cls-5" x="32.4" y="0">E</tspan><tspan class="cls-13" x="45.59" y="0">R</tspan><tspan class="cls-57" x="59.83" y="0">V</tspan><tspan class="cls-7" x="73.17" y="0">I</tspan><tspan class="cls-58" x="78.5" y="0">E</tspan><tspan class="cls-59" x="92.23" y="0">W</tspan><tspan x="111.19" y="0">S</tspan></text><text class="cls-55" transform="translate(63.49 137.67)"><tspan class="cls-60">P</tspan><tspan class="cls-61" x="13.48" y="0">O</tspan><tspan class="cls-60" x="29.32" y="0">I</tspan><tspan class="cls-9" x="34.76" y="0">N</tspan><tspan x="49.46" y="0">T </tspan><tspan class="cls-62" x="67.84" y="0">O</tspan><tspan x="83.72" y="0">F </tspan><tspan class="cls-57" x="102.1" y="0">V</tspan><tspan class="cls-7" x="115.43" y="0">I</tspan><tspan class="cls-58" x="120.77" y="0">E</tspan><tspan x="134.49" y="0">W</tspan></text><text class="cls-63" transform="translate(309.63 109.76)">M<tspan class="cls-64" x="17.16" y="0">O</tspan><tspan class="cls-9" x="33.14" y="0">C</tspan><tspan class="cls-54" x="47.84" y="0">K</tspan><tspan class="cls-65" x="61.39" y="0">U</tspan><tspan class="cls-66" x="76.02" y="0">P</tspan><tspan class="cls-67" x="89.28" y="0">S</tspan></text><text class="cls-55" transform="translate(432.49 108.38)"><tspan class="cls-68">U</tspan><tspan class="cls-69" x="14.56" y="0">S</tspan><tspan class="cls-5" x="28.08" y="0">E</tspan><tspan class="cls-70" x="41.27" y="0">R</tspan><tspan class="cls-71" x="56.2" y="0"> </tspan><tspan class="cls-72" x="61.65" y="0">F</tspan><tspan class="cls-73" x="73.89" y="0">L</tspan><tspan class="cls-74" x="84.58" y="0">O</tspan><tspan x="100.13" y="0">W</tspan><tspan class="cls-21" x="119.65" y="0"> </tspan><tspan class="cls-75" x="125.11" y="0">D</tspan><tspan class="cls-49" x="139.73" y="0">I</tspan><tspan class="cls-76" x="145.06" y="0">A</tspan><tspan class="cls-56" x="157.98" y="0">G</tspan><tspan class="cls-77" x="173.76" y="0">R</tspan><tspan class="cls-78" x="188.83" y="0">A</tspan><tspan class="cls-79" x="202.41" y="0">M</tspan><tspan x="219.47" y="0">S</tspan></text><text class="cls-55" transform="translate(711.53 105.85)"><tspan class="cls-54">M</tspan><tspan class="cls-80" x="16.97" y="0">V</tspan><tspan x="30.37" y="0">P</tspan></text><line class="cls-25" y1="63.8" x2="793.19" y2="63.8"/><polyline class="cls-25" points="790.06 60.89 793.19 63.8 790.06 66.71"/><line class="cls-25" x1="141.05" y1="82.35" x2="141.05" y2="63.8"/><polyline class="cls-25" points="143.96 79.21 141.05 82.34 138.14 79.21"/><line class="cls-25" x1="360.6" y1="82.35" x2="360.6" y2="63.8"/><polyline class="cls-25" points="363.51 79.21 360.6 82.34 357.69 79.21"/><line class="cls-25" x1="548.52" y1="82.35" x2="548.52" y2="63.8"/><polyline class="cls-25" points="551.43 79.21 548.52 82.34 545.61 79.21"/><line class="cls-25" x1="734.1" y1="82.35" x2="734.1" y2="63.8"/><polyline class="cls-25" points="737.01 79.21 734.1 82.34 731.19 79.21"/></svg>