<svg id="Capa_1" data-name="Capa 1" xmlns="http://www.w3.org/2000/svg" xmlns:xlink="http://www.w3.org/1999/xlink" viewBox="0 0 1129.71 445.37"><defs><style>.cls-1,.cls-3{fill:none;}.cls-2{fill:#fff;}.cls-3{stroke:#1d1d1b;stroke-width:2px;}.cls-4{isolation:isolate;}.cls-5{fill:#1d1d1b;}.cls-6{clip-path:url(#clip-path);}</style><clipPath id="clip-path" transform="translate(0 0)"><rect class="cls-1" x="0.25" y="0.25" width="1147.36" height="449.71"/></clipPath></defs><rect class="cls-2" x="598.37" y="46.71" width="211.88" height="90.92"/><rect class="cls-3" x="598.37" y="46.71" width="211.88" height="90.92"/><rect class="cls-2" x="916.83" y="46.71" width="211.88" height="90.92"/><rect class="cls-3" x="916.83" y="46.71" width="211.88" height="90.92"/><rect class="cls-2" x="329.64" y="286.04" width="146.5" height="48.78"/><rect class="cls-3" x="329.64" y="286.04" width="146.5" height="48.78"/><rect class="cls-2" x="524.66" y="286.04" width="122.52" height="48.78"/><rect class="cls-3" x="524.66" y="286.04" width="122.52" height="48.78"/><rect class="cls-2" x="690.09" y="286.04" width="156.67" height="48.78"/><rect class="cls-3" x="690.09" y="286.04" width="156.67" height="48.78"/><rect class="cls-2" x="887.57" y="286.04" width="152.7" height="48.78"/><rect class="cls-3" x="887.57" y="286.04" width="152.7" height="48.78"/><rect class="cls-2" x="272.85" y="46.71" width="211.88" height="90.92"/><rect class="cls-3" x="272.85" y="46.71" width="211.88" height="90.92"/><line class="cls-3" x1="517.14" y1="92.17" x2="565.96" y2="92.17"/><polyline class="cls-3" points="521.68 96.39 517.14 92.17 521.68 87.95"/><polyline class="cls-3" points="561.42 87.95 565.96 92.17 561.42 96.39"/><g class="cls-4"><g class="cls-4"><path class="cls-5" d="M346.19,91.08V78.36c0-.63.06-3.36.06-5.37h-.06l-6.06,18.09h-2.88L331.19,73h-.06c0,2,.06,4.71.06,5.34V91.08h-2.82V69.54h4.17l6.15,18.21h.06l6.12-18.21H349V91.08Z" transform="translate(0 0)"/></g><g class="cls-4"><path class="cls-5" d="M362.75,91.65c-8,0-10.5-6.69-10.5-11.34S354.71,69,362.75,69s10.5,6.69,10.5,11.34S370.79,91.65,362.75,91.65Zm0-20.1c-4.68,0-7.5,3.69-7.5,8.76s2.82,8.76,7.5,8.76,7.5-3.69,7.5-8.76S367.43,71.55,362.75,71.55Z" transform="translate(0 0)"/></g><g class="cls-4"><path class="cls-5" d="M376.61,69.54h8.73c5.61,0,9.06,4.26,9.06,10.47,0,4.83-2.1,11.07-9.18,11.07h-8.61Zm2.91,19h5.64c3.78,0,6.24-3,6.24-8.4S388.91,72,385,72h-5.43Z" transform="translate(0 0)"/></g><g class="cls-4"><path class="cls-5" d="M413.93,91.08H398V69.54h15.69v2.58H400.94v6.6h11.79V81.3H400.94v7.2h13Z" transform="translate(0 0)"/></g><g class="cls-4"><path class="cls-5" d="M420,88.5h10.92v2.58H417.05V69.54H420Z" transform="translate(0 0)"/></g></g><g class="cls-4"><g class="cls-4"><path class="cls-5" d="M973.25,69.27h3.27l-7.86,21.54h-3.09l-7.86-21.54H961l6.15,18.36h.06Z" transform="translate(0 0)"/></g><g class="cls-4"><path class="cls-5" d="M982.1,90.81h-2.91V69.27h2.91Z" transform="translate(0 0)"/></g><g class="cls-4"><path class="cls-5" d="M1002.68,90.81h-15.9V69.27h15.69v2.58H989.69v6.6h11.79V81H989.69v7.2h13Z" transform="translate(0 0)"/></g><g class="cls-4"><path class="cls-5" d="M1013.27,90.81h-3.06l-5.61-21.54h3.15l4,17.52h.06l4.83-17.52h3.18l4.83,17.52h.06l4-17.52H1032l-5.67,21.54h-3.06L1018.31,73h-.06Z" transform="translate(0 0)"/></g><g class="cls-4"><path class="cls-5" d="M1049.72,68.82c-2.55,4.8-4.08,7.68-4.08,14.88,0,5,1.71,8.61,4.11,13.32H1048c-3.12-4.68-5.16-8.43-5.16-14,0-5.28,1.83-9.54,5.07-14.16Z" transform="translate(0 0)"/></g><g class="cls-4"><path class="cls-5" d="M1069.25,69.27v14c0,4.41-2.76,8.13-8.67,8.13s-8.28-3.72-8.28-7.74V69.27h2.91V82.83c0,4.68,2.85,6,5.46,6s5.67-1.23,5.67-5.91V69.27Z" transform="translate(0 0)"/></g><g class="cls-4"><path class="cls-5" d="M1076.75,90.81h-2.91V69.27h2.91Z" transform="translate(0 0)"/></g><g class="cls-4"><path class="cls-5" d="M1079.51,97c2.55-4.8,4.08-7.68,4.08-14.88,0-5-1.71-8.61-4.11-13.32h1.77c3.12,4.68,5.16,8.43,5.16,14,0,5.28-1.83,9.54-5.07,14.16Z" transform="translate(0 0)"/></g></g><g class="cls-4"><g class="cls-4"><path class="cls-5" d="M630.38,69.54h3.27l-7.86,21.54H622.7l-7.86-21.54h3.24l6.15,18.36h.06Z" transform="translate(0 0)"/></g><g class="cls-4"><path class="cls-5" d="M639.23,91.08h-2.91V69.54h2.91Z" transform="translate(0 0)"/></g><g class="cls-4"><path class="cls-5" d="M659.81,91.08h-15.9V69.54H659.6v2.58H646.82v6.6h11.79V81.3H646.82v7.2h13Z" transform="translate(0 0)"/></g><g class="cls-4"><path class="cls-5" d="M670.4,91.08h-3.06l-5.61-21.54h3.15l4,17.52H669l4.83-17.52H677l4.83,17.52h.06l4-17.52h3.21l-5.67,21.54h-3.06l-4.92-17.85h-.06Z" transform="translate(0 0)"/></g><g class="cls-4"><path class="cls-5" d="M709.28,91.08V78.36c0-.63.06-3.36.06-5.37h-.06l-6.06,18.09h-2.88L694.28,73h-.06c0,2,.06,4.71.06,5.34V91.08h-2.82V69.54h4.17l6.15,18.21h.06L708,69.54h4.14V91.08Z" transform="translate(0 0)"/></g><g class="cls-4"><path class="cls-5" d="M725.84,91.65c-8,0-10.5-6.69-10.5-11.34S717.8,69,725.84,69s10.5,6.69,10.5,11.34S733.88,91.65,725.84,91.65Zm0-20.1c-4.68,0-7.5,3.69-7.5,8.76s2.82,8.76,7.5,8.76,7.5-3.69,7.5-8.76S730.52,71.55,725.84,71.55Z" transform="translate(0 0)"/></g><g class="cls-4"><path class="cls-5" d="M739.7,69.54h8.73c5.61,0,9.06,4.26,9.06,10.47,0,4.83-2.1,11.07-9.18,11.07H739.7Zm2.91,19h5.64c3.78,0,6.24-3,6.24-8.4S752,72,748,72h-5.43Z" transform="translate(0 0)"/></g><g class="cls-4"><path class="cls-5" d="M777,91.08h-15.9V69.54h15.69v2.58H764v6.6h11.79V81.3H764v7.2h13Z" transform="translate(0 0)"/></g><g class="cls-4"><path class="cls-5" d="M783.08,88.5H794v2.58H780.17V69.54h2.91Z" transform="translate(0 0)"/></g></g><g class="cls-4"><g class="cls-4"><path class="cls-5" d="M495.55,58.88h5.24c3.36,0,5.44,2.56,5.44,6.29,0,2.9-1.27,6.64-5.51,6.64h-5.17Zm1.74,11.44h3.39c2.27,0,3.74-1.79,3.74-5s-1.49-4.89-3.87-4.89h-3.26Z" transform="translate(0 0)"/></g><g class="cls-4"><path class="cls-5" d="M508,65.26c.07-2.25,1.56-3.14,3.89-3.14.75,0,3.49.22,3.49,2.63v5.42c0,.4.2.56.52.56a3.75,3.75,0,0,0,.52-.07v1.15a3,3,0,0,1-.86.18c-1.41,0-1.62-.72-1.68-1.44a4.25,4.25,0,0,1-3.4,1.53,2.71,2.71,0,0,1-2.95-2.72c0-.79.23-2.63,2.86-3l2.61-.33c.38,0,.83-.18.83-1.11s-.72-1.53-2.21-1.53a1.88,1.88,0,0,0-2.17,1.82ZM513.83,67c-.25.2-.64.35-2.61.6-.77.1-2,.34-2,1.53a1.49,1.49,0,0,0,1.71,1.64c1.47,0,2.91-1,2.91-2.22Z" transform="translate(0 0)"/></g><g class="cls-4"><path class="cls-5" d="M519.72,63.71v6.12c0,.74.63.74,1,.74h.56v1.24c-.58,0-1,.13-1.19.13-1.57,0-1.91-.89-1.91-2V63.71h-1.28V62.39h1.28V59.76h1.58v2.63h1.52v1.32Z" transform="translate(0 0)"/></g><g class="cls-4"><path class="cls-5" d="M522.71,65.26c.07-2.25,1.56-3.14,3.89-3.14.75,0,3.49.22,3.49,2.63v5.42c0,.4.2.56.52.56a3.75,3.75,0,0,0,.52-.07v1.15a3,3,0,0,1-.86.18c-1.41,0-1.62-.72-1.68-1.44a4.25,4.25,0,0,1-3.4,1.53,2.71,2.71,0,0,1-3-2.72c0-.79.23-2.63,2.86-3l2.61-.33c.38,0,.83-.18.83-1.11s-.72-1.53-2.21-1.53a1.88,1.88,0,0,0-2.17,1.82ZM528.5,67c-.25.2-.64.35-2.61.6-.77.1-2,.34-2,1.53a1.49,1.49,0,0,0,1.71,1.64c1.47,0,2.91-1,2.91-2.22Z" transform="translate(0 0)"/></g><g class="cls-4"><path class="cls-5" d="M532.57,71.81V58.88h1.59v4.7h0a3.22,3.22,0,0,1,2.72-1.46c2.51,0,3.93,2.06,3.93,4.7,0,2.25-.94,5.26-4.14,5.26a2.83,2.83,0,0,1-2.6-1.44h0v1.17Zm4.06-8.26c-2.29,0-2.54,2.46-2.54,4,0,2.51,1.56,3.17,2.57,3.17,1.73,0,2.54-1.56,2.54-3.64C539.2,65.87,539.07,63.55,536.63,63.55Z" transform="translate(0 0)"/></g><g class="cls-4"><path class="cls-5" d="M542.69,60.68v-1.8h1.58v1.8Zm1.58,11.13h-1.58V62.39h1.58Z" transform="translate(0 0)"/></g><g class="cls-4"><path class="cls-5" d="M554.21,71.81h-1.58V66c0-1.64-.47-2.46-2-2.46-.9,0-2.49.57-2.49,3.13v5.13h-1.58V62.39H548v1.34h0a3.41,3.41,0,0,1,2.85-1.61,3,3,0,0,1,3.29,3.28Z" transform="translate(0 0)"/></g><g class="cls-4"><path class="cls-5" d="M564.31,71.81h-1.49v-1.3h0a2.83,2.83,0,0,1-2.68,1.57c-3.2,0-4.14-3-4.14-5.26,0-2.64,1.42-4.7,3.93-4.7a3.16,3.16,0,0,1,2.8,1.61l0-.13V58.88h1.58Zm-4.17-1.1c1,0,2.57-.66,2.57-3.17,0-1.53-.25-4-2.54-4-2.45,0-2.57,2.32-2.57,3.52C557.6,69.15,558.41,70.71,560.14,70.71Z" transform="translate(0 0)"/></g><g class="cls-4"><path class="cls-5" d="M566.51,60.68v-1.8h1.58v1.8Zm1.58,11.13h-1.58V62.39h1.58Z" transform="translate(0 0)"/></g><g class="cls-4"><path class="cls-5" d="M578,71.81h-1.58V66c0-1.64-.47-2.46-2-2.46-.9,0-2.49.57-2.49,3.13v5.13h-1.58V62.39h1.49v1.34h0a3.41,3.41,0,0,1,2.85-1.61A3,3,0,0,1,578,65.4Z" transform="translate(0 0)"/></g><g class="cls-4"><path class="cls-5" d="M588.08,71c0,1.35,0,4.73-4.37,4.73-1.12,0-3.3-.3-3.6-2.81h1.58a1.94,1.94,0,0,0,2.13,1.5c2.73,0,2.68-2.2,2.68-3.32v-.39h0v.07a2.81,2.81,0,0,1-2.5,1.26c-3.2,0-4.14-3-4.14-5.26,0-2.64,1.42-4.7,3.93-4.7a3.16,3.16,0,0,1,2.8,1.61h0V62.39h1.49ZM584,70.71c1,0,2.57-.66,2.57-3.17,0-1.53-.25-4-2.54-4-2.45,0-2.57,2.32-2.57,3.52C581.46,69.15,582.27,70.71,584,70.71Z" transform="translate(0 0)"/></g></g><g class="cls-4"><g class="cls-4"><path class="cls-5" d="M841.63,58.88v8.39c0,2.65-1.66,4.88-5.21,4.88s-5-2.23-5-4.64V58.88h1.75V67c0,2.81,1.71,3.58,3.28,3.58s3.4-.73,3.4-3.54V58.88Z" transform="translate(0 0)"/></g><g class="cls-4"><path class="cls-5" d="M844,62.39h1.5v1.34h0a3.19,3.19,0,0,1,2.81-1.61c2.51,0,3.93,2.06,3.93,4.7,0,2.25-.94,5.26-4.14,5.26a2.81,2.81,0,0,1-2.5-1.26h0v4.72H844Zm4.09,8.32c1.73,0,2.54-1.56,2.54-3.64,0-1.2-.13-3.52-2.57-3.52-2.29,0-2.54,2.46-2.54,4C845.51,70.05,847.07,70.71,848.08,70.71Z" transform="translate(0 0)"/><path class="cls-5" d="M861.94,71.81h-1.49v-1.3h0a2.83,2.83,0,0,1-2.68,1.57c-3.21,0-4.14-3-4.14-5.26,0-2.64,1.42-4.7,3.92-4.7a3.19,3.19,0,0,1,2.81,1.61l0-.13V58.88h1.58Zm-4.17-1.1c1,0,2.57-.66,2.57-3.17,0-1.53-.25-4-2.54-4-2.45,0-2.57,2.32-2.57,3.52C855.23,69.15,856,70.71,857.77,70.71Z" transform="translate(0 0)"/></g><g class="cls-4"><path class="cls-5" d="M864.09,65.26c.07-2.25,1.56-3.14,3.89-3.14.75,0,3.49.22,3.49,2.63v5.42c0,.4.2.56.52.56a3.75,3.75,0,0,0,.52-.07v1.15a3,3,0,0,1-.86.18c-1.41,0-1.62-.72-1.68-1.44a4.25,4.25,0,0,1-3.4,1.53,2.71,2.71,0,0,1-3-2.72c0-.79.23-2.63,2.86-3l2.61-.33c.38,0,.83-.18.83-1.11s-.72-1.53-2.21-1.53a1.89,1.89,0,0,0-2.17,1.82ZM869.88,67c-.25.2-.64.35-2.61.6-.77.1-2,.34-2,1.53A1.49,1.49,0,0,0,867,70.77c1.47,0,2.91-1,2.91-2.22Z" transform="translate(0 0)"/></g><g class="cls-4"><path class="cls-5" d="M875.79,63.71v6.12c0,.74.63.74,1,.74h.56v1.24c-.58,0-1,.13-1.19.13-1.57,0-1.91-.89-1.91-2V63.71h-1.28V62.39h1.28V59.76h1.59v2.63h1.51v1.32Z" transform="translate(0 0)"/></g><g class="cls-4"><path class="cls-5" d="M878.83,60.68v-1.8h1.58v1.8Zm1.58,11.13h-1.58V62.39h1.58Z" transform="translate(0 0)"/></g><g class="cls-4"><path class="cls-5" d="M890.33,71.81h-1.58V66c0-1.64-.47-2.46-2-2.46-.9,0-2.48.57-2.48,3.13v5.13h-1.59V62.39h1.5v1.34h0A3.41,3.41,0,0,1,887,62.12a3,3,0,0,1,3.29,3.28Z" transform="translate(0 0)"/></g><g class="cls-4"><path class="cls-5" d="M900.39,71c0,1.35,0,4.73-4.37,4.73-1.12,0-3.3-.3-3.6-2.81H894a1.94,1.94,0,0,0,2.13,1.5c2.73,0,2.68-2.2,2.68-3.32v-.39h0v.07a2.81,2.81,0,0,1-2.5,1.26c-3.2,0-4.14-3-4.14-5.26,0-2.64,1.42-4.7,3.93-4.7a3.16,3.16,0,0,1,2.8,1.61h0V62.39h1.49Zm-4.08-.33c1,0,2.57-.66,2.57-3.17,0-1.53-.25-4-2.54-4-2.45,0-2.57,2.32-2.57,3.52C893.77,69.15,894.58,70.71,896.31,70.71Z" transform="translate(0 0)"/></g></g><g class="cls-6"><path class="cls-2" d="M90.32,179.61A89.31,89.31,0,1,0,1,90.31a89.32,89.32,0,0,0,89.32,89.3h0" transform="translate(0 0)"/><ellipse class="cls-3" cx="90.32" cy="90.31" rx="89.32" ry="89.31"/></g><g class="cls-4"><g class="cls-4"><path class="cls-5" d="M17.54,74.24h8.73c5.61,0,9.06,4.26,9.06,10.47,0,4.83-2.1,11.07-9.18,11.07H17.54Zm2.91,19.05h5.64c3.78,0,6.24-3,6.24-8.4s-2.49-8.16-6.45-8.16H20.45Z" transform="translate(0 0)"/></g><g class="cls-4"><path class="cls-5" d="M41,89.51l-2.25,6.27h-3l8.1-21.54h3.3L55,95.78H51.8l-2.13-6.27Zm7.59-2.58-3.18-9.48h-.06l-3.45,9.48Z" transform="translate(0 0)"/></g><g class="cls-4"><path class="cls-5" d="M52.94,74.24H70.43v2.58H63.14v19H60.23v-19H52.94Z" transform="translate(0 0)"/></g><g class="cls-4"><path class="cls-5" d="M73.52,89.51l-2.25,6.27h-3l8.1-21.54h3.3l7.8,21.54H84.29l-2.13-6.27Zm7.59-2.58-3.18-9.48h-.06l-3.45,9.48Z" transform="translate(0 0)"/></g><g class="cls-4"><path class="cls-5" d="M89.75,74.24h9.48c4,0,6.09,2.49,6.09,5.43a4.74,4.74,0,0,1-2.88,4.5c1.41.57,3.9,1.56,3.9,5.25,0,3.45-2.55,6.36-7.32,6.36H89.75Zm2.91,9.12h5.25c2.79,0,4.5-.84,4.5-3.48,0-2-1.23-3.15-4.47-3.15H92.66Zm0,9.93h6.21c3,0,4.56-1.53,4.56-3.93,0-3-2.67-3.63-5-3.63H92.66Z" transform="translate(0 0)"/></g><g class="cls-4"><path class="cls-5" d="M112.52,89.51l-2.25,6.27h-3l8.1-21.54h3.3l7.8,21.54h-3.18l-2.13-6.27Zm7.59-2.58-3.18-9.48h-.06l-3.45,9.48Z" transform="translate(0 0)"/></g><g class="cls-4"><path class="cls-5" d="M141.32,80.54c-.15-3.33-2.91-4.38-5.34-4.38-1.83,0-4.92.51-4.92,3.78,0,1.83,1.29,2.43,2.55,2.73l6.15,1.41c2.79.66,4.89,2.34,4.89,5.76,0,5.1-4.74,6.51-8.43,6.51-4,0-5.55-1.2-6.51-2.07a6.63,6.63,0,0,1-2.19-5.46h2.73c0,3.9,3.18,5,5.94,5,2.1,0,5.64-.54,5.64-3.63,0-2.25-1.05-3-4.59-3.81l-4.41-1c-1.41-.33-4.59-1.32-4.59-5.07,0-3.36,2.19-6.66,7.41-6.66,7.53,0,8.28,4.5,8.4,6.87Z" transform="translate(0 0)"/></g><g class="cls-4"><path class="cls-5" d="M164.12,95.78h-15.9V74.24h15.69v2.58H151.13v6.6h11.79V86H151.13v7.2h13Z" transform="translate(0 0)"/></g></g><g class="cls-4"><g class="cls-4"><path class="cls-5" d="M62,126.82H59.88l-3.48-5.31-3.58,5.31H50.71l4.63-6.63L51,113.89h2.2l3.27,5,3.28-5h2.09l-4.34,6.3Z" transform="translate(0 0)"/></g><g class="cls-4"><path class="cls-5" d="M74.24,126.82v-7.63c0-.38,0-2,0-3.23h0L70.6,126.82H68.87L65.24,116h0c0,1.19,0,2.83,0,3.21v7.63h-1.7V113.89h2.51l3.69,10.93h0l3.68-10.93h2.48v12.93Z" transform="translate(0 0)"/><path class="cls-5" d="M80.34,125.27h6.55v1.55h-8.3V113.89h1.75Z" transform="translate(0 0)"/></g><g class="cls-4"><path class="cls-5" d="M95.54,126.82H93.79V113.89h8.95v1.55h-7.2v4h6.33V121H95.54Z" transform="translate(0 0)"/></g><g class="cls-4"><path class="cls-5" d="M104.23,115.69v-1.8h1.58v1.8Zm1.58,11.13h-1.58V117.4h1.58Z" transform="translate(0 0)"/></g><g class="cls-4"><path class="cls-5" d="M109.66,126.82h-1.58V113.89h1.58Z" transform="translate(0 0)"/></g><g class="cls-4"><path class="cls-5" d="M119.94,123.87a3.92,3.92,0,0,1-4.23,3.22c-2.64,0-4.21-2-4.21-4.72,0-2.91,1.4-5.24,4.52-5.24,2.72,0,4,2.16,4,5.49h-6.88c0,2,.92,3.1,2.74,3.1a2.39,2.39,0,0,0,2.43-1.85Zm-1.51-2.51c-.09-1.45-.7-2.8-2.63-2.8a2.76,2.76,0,0,0-2.61,2.8Z" transform="translate(0 0)"/></g></g><g class="cls-4"><g class="cls-4"><path class="cls-5" d="M339.23,107.15a3.36,3.36,0,0,0-3.62-2.68c-2.34,0-4.23,1.73-4.23,5.13,0,3,1.08,5.38,4.29,5.38,1.13,0,3.1-.54,3.69-3.54h1.69a5.45,5.45,0,0,1-5.65,5.09c-2.94,0-5.82-1.91-5.82-6.88,0-4,2.27-6.73,6-6.73,3.34,0,5.06,2.07,5.32,4.23Z" transform="translate(0 0)"/><path class="cls-5" d="M348.25,116.19h-1.19l.52-3.78h-2.25l-.52,3.78h-1.19l.52-3.78h-1.85l.16-1.13h1.86l.34-2.56h-1.86l.17-1.14h1.85l.52-3.78h1.21l-.52,3.78h2.23l.52-3.78H350l-.52,3.78h1.85l-.16,1.14h-1.86l-.36,2.56h1.86l-.16,1.13h-1.86Zm-2.4-7.47-.36,2.56h2.26l.34-2.56Z" transform="translate(0 0)"/></g><g class="cls-4"><path class="cls-5" d="M367.08,107.15a3.37,3.37,0,0,0-3.62-2.68c-2.34,0-4.24,1.73-4.24,5.13,0,3,1.08,5.38,4.29,5.38,1.13,0,3.1-.54,3.69-3.54h1.69a5.45,5.45,0,0,1-5.65,5.09c-2.94,0-5.82-1.91-5.82-6.88,0-4,2.27-6.73,6-6.73,3.33,0,5.06,2.07,5.31,4.23Z" transform="translate(0 0)"/></g><g class="cls-4"><path class="cls-5" d="M372.33,116.19h-1.58V103.26h1.58Z" transform="translate(0 0)"/></g><g class="cls-4"><path class="cls-5" d="M374.55,109.64c.07-2.25,1.56-3.14,3.89-3.14.75,0,3.49.22,3.49,2.63v5.42c0,.4.2.56.52.56A3.75,3.75,0,0,0,383,115v1.15a3,3,0,0,1-.86.18c-1.41,0-1.62-.72-1.68-1.44a4.25,4.25,0,0,1-3.4,1.53,2.71,2.71,0,0,1-2.95-2.72c0-.79.23-2.63,2.86-2.95l2.61-.33c.38,0,.83-.18.83-1.11s-.72-1.53-2.21-1.53a1.89,1.89,0,0,0-2.17,1.82Zm5.79,1.74c-.25.2-.64.35-2.61.6-.77.1-2,.34-2,1.53a1.49,1.49,0,0,0,1.71,1.64c1.47,0,2.91-1,2.91-2.22Z" transform="translate(0 0)"/></g><g class="cls-4"><path class="cls-5" d="M389.89,109.46c0-.6-.24-1.59-2.23-1.59-.49,0-1.88.16-1.88,1.33,0,.78.49,1,1.71,1.26l1.59.4c2,.49,2.64,1.21,2.64,2.49,0,1.94-1.6,3.11-3.72,3.11-3.73,0-4-2.16-4.05-3.3h1.53c0,.74.27,1.93,2.5,1.93,1.13,0,2.16-.45,2.16-1.49,0-.76-.52-1-1.87-1.35l-1.84-.45c-1.31-.33-2.18-1-2.18-2.29,0-2.07,1.71-3,3.57-3,3.36,0,3.6,2.49,3.6,3Z" transform="translate(0 0)"/></g><g class="cls-4"><path class="cls-5" d="M398.89,109.46c0-.6-.24-1.59-2.23-1.59-.49,0-1.88.16-1.88,1.33,0,.78.49,1,1.71,1.26l1.59.4c2,.49,2.64,1.21,2.64,2.49,0,1.94-1.6,3.11-3.72,3.11-3.73,0-4-2.16-4.05-3.3h1.53c0,.74.27,1.93,2.5,1.93,1.13,0,2.16-.45,2.16-1.49,0-.76-.52-1-1.87-1.35l-1.84-.45c-1.31-.33-2.18-1-2.18-2.29,0-2.07,1.71-3,3.57-3,3.36,0,3.6,2.49,3.6,3Z" transform="translate(0 0)"/></g><g class="cls-4"><path class="cls-5" d="M410.42,113.24a3.92,3.92,0,0,1-4.23,3.22c-2.64,0-4.21-2-4.21-4.72,0-2.91,1.4-5.24,4.52-5.24,2.72,0,4.05,2.16,4.05,5.49h-6.88c0,2,.92,3.1,2.74,3.1a2.39,2.39,0,0,0,2.43-1.85Zm-1.51-2.51c-.09-1.45-.7-2.8-2.63-2.8a2.77,2.77,0,0,0-2.61,2.8Z" transform="translate(0 0)"/></g><g class="cls-4"><path class="cls-5" d="M417.71,109.46c0-.6-.24-1.59-2.23-1.59-.49,0-1.88.16-1.88,1.33,0,.78.49,1,1.71,1.26l1.59.4c2,.49,2.64,1.21,2.64,2.49,0,1.94-1.6,3.11-3.72,3.11-3.73,0-4-2.16-4.05-3.3h1.53c.05.74.27,1.93,2.5,1.93,1.13,0,2.16-.45,2.16-1.49,0-.76-.52-1-1.87-1.35l-1.84-.45c-1.31-.33-2.18-1-2.18-2.29,0-2.07,1.71-3,3.57-3,3.36,0,3.6,2.49,3.6,3Z" transform="translate(0 0)"/></g></g><g class="cls-4"><g class="cls-4"><path class="cls-5" d="M679.34,107.15a3.36,3.36,0,0,0-3.62-2.68c-2.34,0-4.23,1.73-4.23,5.13,0,3,1.08,5.38,4.29,5.38,1.13,0,3.1-.54,3.69-3.54h1.69a5.45,5.45,0,0,1-5.65,5.09c-2.94,0-5.82-1.91-5.82-6.88,0-4,2.27-6.73,6-6.73,3.34,0,5.06,2.07,5.32,4.23Z" transform="translate(0 0)"/><path class="cls-5" d="M688.36,116.19h-1.19l.52-3.78h-2.25l-.52,3.78h-1.19l.52-3.78H682.4l.16-1.13h1.86l.34-2.56H682.9l.17-1.14h1.85l.52-3.78h1.21l-.52,3.78h2.23l.52-3.78h1.21l-.52,3.78h1.85l-.16,1.14H689.4l-.36,2.56h1.86l-.16,1.13h-1.86Zm-2.4-7.47-.36,2.56h2.26l.34-2.56Z" transform="translate(0 0)"/></g><g class="cls-4"><path class="cls-5" d="M700,114.64h6.56v1.55h-8.3V103.26H700Z" transform="translate(0 0)"/></g><g class="cls-4"><path class="cls-5" d="M711.69,106.5c3,0,4.37,2.54,4.37,5s-1.37,5-4.37,5-4.38-2.54-4.38-5S708.68,106.5,711.69,106.5Zm0,8.57c2.26,0,2.73-2.34,2.73-3.6s-.47-3.6-2.73-3.6-2.74,2.34-2.74,3.6S709.42,115.07,711.69,115.07Z" transform="translate(0 0)"/><path class="cls-5" d="M725.67,115.42c0,1.35,0,4.73-4.37,4.73-1.12,0-3.3-.3-3.6-2.81h1.58a1.94,1.94,0,0,0,2.13,1.5c2.73,0,2.68-2.2,2.68-3.32v-.39h0v.07a2.81,2.81,0,0,1-2.5,1.26c-3.21,0-4.14-3-4.14-5.26,0-2.64,1.42-4.7,3.92-4.7a3.19,3.19,0,0,1,2.81,1.61h0v-1.34h1.49Zm-4.09-.33c1,0,2.58-.66,2.58-3.17,0-1.53-.25-4-2.54-4-2.45,0-2.57,2.32-2.57,3.52C719.05,113.53,719.86,115.09,721.58,115.09Z" transform="translate(0 0)"/></g><g class="cls-4"><path class="cls-5" d="M727.84,105.06v-1.8h1.58v1.8Zm1.58,11.13h-1.58v-9.42h1.58Z" transform="translate(0 0)"/><path class="cls-5" d="M737.68,109.94a2.09,2.09,0,0,0-2.23-2c-2,0-2.59,1.87-2.59,3.54s.39,3.62,2.57,3.62a2.39,2.39,0,0,0,2.25-2.23h1.53a3.72,3.72,0,0,1-3.83,3.6c-2.65,0-4.21-2-4.21-4.72,0-2.91,1.4-5.24,4.52-5.24a3.39,3.39,0,0,1,3.52,3.44Z" transform="translate(0 0)"/></g></g><g class="cls-4"><g class="cls-4"><path class="cls-5" d="M1009.81,116.94h-2.16l-3.48-5.31-3.58,5.31h-2.11l4.63-6.63-4.34-6.3h2.2l3.27,4.95,3.28-4.95h2.09l-4.34,6.3Z" transform="translate(0 0)"/></g><g class="cls-4"><path class="cls-5" d="M1013.91,113.18l-1.35,3.76h-1.8l4.86-12.93h2l4.69,12.93h-1.91l-1.28-3.76Zm4.56-1.55-1.91-5.69h0l-2.07,5.69Z" transform="translate(0 0)"/></g><g class="cls-4"><path class="cls-5" d="M1034.43,116.94v-7.63c0-.38,0-2,0-3.23h0l-3.64,10.86h-1.73l-3.63-10.84h0c0,1.19,0,2.83,0,3.21v7.63h-1.7V104h2.51l3.69,10.93h0l3.68-10.93h2.48v12.93Z" transform="translate(0 0)"/><path class="cls-5" d="M1040.53,115.39h6.55v1.55h-8.3V104h1.75Z" transform="translate(0 0)"/></g></g><line class="cls-3" x1="839.13" y1="92.17" x2="887.95" y2="92.17"/><polyline class="cls-3" points="843.67 96.39 839.13 92.17 843.67 87.95"/><polyline class="cls-3" points="883.41 87.95 887.95 92.17 883.41 96.39"/><g class="cls-4"><g class="cls-4"><path class="cls-5" d="M926.62,159c-.08-2-1.74-2.63-3.2-2.63-1.1,0-2.95.31-2.95,2.27,0,1.1.77,1.46,1.53,1.64l3.69.85a3.35,3.35,0,0,1,2.93,3.45c0,3.07-2.84,3.91-5.06,3.91-2.39,0-3.33-.72-3.9-1.24a4,4,0,0,1-1.32-3.28H920c0,2.34,1.91,3,3.57,3,1.26,0,3.38-.33,3.38-2.18,0-1.35-.63-1.78-2.75-2.29l-2.65-.61a3.11,3.11,0,0,1-2.76-3c0-2,1.32-4,4.45-4,4.52,0,5,2.7,5,4.12Z" transform="translate(0 0)"/></g><g class="cls-4"><path class="cls-5" d="M932.5,160.08v6.12c0,.74.62.74,1,.74H934v1.24c-.58,0-1,.13-1.19.13-1.57,0-1.91-.89-1.91-2v-6.21h-1.28v-1.32h1.28v-2.63h1.59v2.63H934v1.32Z" transform="translate(0 0)"/></g><g class="cls-4"><path class="cls-5" d="M937.17,168.18h-1.58v-9.42h1.49v1.57h0a3.06,3.06,0,0,1,2.64-1.84,1.21,1.21,0,0,1,.42.06v1.64h-.6a2.39,2.39,0,0,0-2.41,2.52Z" transform="translate(0 0)"/></g><g class="cls-4"><path class="cls-5" d="M947.49,168.18v-1.37l0,0a3.1,3.1,0,0,1-3,1.67,2.78,2.78,0,0,1-3.06-2.92v-6.77H943V165c0,1.55.79,2.07,1.82,2.07,2,0,2.59-1.76,2.59-3.13v-5.19H949v9.42Z" transform="translate(0 0)"/></g><g class="cls-4"><path class="cls-5" d="M957.24,161.93a2.1,2.1,0,0,0-2.24-2c-2,0-2.59,1.87-2.59,3.54s.4,3.62,2.58,3.62a2.4,2.4,0,0,0,2.25-2.23h1.53a3.72,3.72,0,0,1-3.84,3.6c-2.64,0-4.21-2-4.21-4.72,0-2.91,1.4-5.24,4.52-5.24a3.4,3.4,0,0,1,3.53,3.44Z" transform="translate(0 0)"/></g><g class="cls-4"><path class="cls-5" d="M962.33,160.08v6.12c0,.74.63.74,1,.74h.56v1.24c-.58,0-1,.13-1.19.13-1.57,0-1.91-.89-1.91-2v-6.21h-1.28v-1.32h1.28v-2.63h1.58v2.63h1.52v1.32Z" transform="translate(0 0)"/><path class="cls-5" d="M971.37,168.18v-1.37l0,0a3.12,3.12,0,0,1-3,1.67,2.78,2.78,0,0,1-3.06-2.92v-6.77h1.58V165c0,1.55.79,2.07,1.82,2.07,2,0,2.59-1.76,2.59-3.13v-5.19h1.59v9.42Z" transform="translate(0 0)"/></g><g class="cls-4"><path class="cls-5" d="M976.77,168.18h-1.58v-9.42h1.49v1.57h0a3.06,3.06,0,0,1,2.64-1.84,1.21,1.21,0,0,1,.42.06v1.64h-.6a2.39,2.39,0,0,0-2.41,2.52Z" transform="translate(0 0)"/></g><g class="cls-4"><path class="cls-5" d="M988.79,165.23a3.92,3.92,0,0,1-4.23,3.22c-2.64,0-4.21-2-4.21-4.72,0-2.91,1.4-5.24,4.52-5.24,2.72,0,4,2.16,4,5.49H982c0,2,.92,3.1,2.74,3.1a2.39,2.39,0,0,0,2.43-1.85Zm-1.51-2.51c-.09-1.45-.7-2.8-2.63-2.8a2.77,2.77,0,0,0-2.61,2.8Z" transform="translate(0 0)"/></g><g class="cls-4"><path class="cls-5" d="M990.78,166.27h1.87V168c0,2.44-1.51,2.73-1.87,2.79V170c.75-.07,1-1,1-1.82h-1Z" transform="translate(0 0)"/></g><g class="cls-4"><path class="cls-5" d="M1002,168.18h-1.58V155.25H1002Z" transform="translate(0 0)"/></g><g class="cls-4"><path class="cls-5" d="M1004.22,161.63c.07-2.25,1.56-3.14,3.89-3.14.75,0,3.49.22,3.49,2.63v5.42c0,.4.2.56.52.56a3.75,3.75,0,0,0,.52-.07v1.15a3,3,0,0,1-.86.18c-1.41,0-1.62-.72-1.68-1.44a4.25,4.25,0,0,1-3.4,1.53,2.71,2.71,0,0,1-3-2.72c0-.79.23-2.63,2.86-2.95l2.61-.33c.38,0,.83-.18.83-1.11s-.72-1.53-2.22-1.53a1.88,1.88,0,0,0-2.16,1.82Zm5.79,1.74c-.25.2-.64.34-2.61.6-.77.1-2,.34-2,1.53a1.49,1.49,0,0,0,1.71,1.64c1.47,0,2.91-1,2.91-2.22Z" transform="translate(0 0)"/></g><g class="cls-4"><path class="cls-5" d="M1019.65,158.76h1.74c-1.09,3.08-2.17,6.16-3.38,9.24-1.49,3.82-1.66,4-3.69,4a2.36,2.36,0,0,1-.67-.14v-1.44a2.84,2.84,0,0,0,1,.16c.82,0,.92-.23,1.67-2.18l-3.49-9.67h1.8l2.5,7.67h0Z" transform="translate(0 0)"/></g><g class="cls-4"><path class="cls-5" d="M1026.22,158.49c3,0,4.37,2.54,4.37,5s-1.37,5-4.37,5-4.38-2.54-4.38-5S1023.21,158.49,1026.22,158.49Zm0,8.57c2.26,0,2.73-2.34,2.73-3.6s-.47-3.6-2.73-3.6-2.74,2.34-2.74,3.6S1024,167.06,1026.22,167.06Z" transform="translate(0 0)"/></g><g class="cls-4"><path class="cls-5" d="M1038.42,168.18v-1.37l0,0a3.1,3.1,0,0,1-3,1.67,2.78,2.78,0,0,1-3.07-2.92v-6.77h1.59V165c0,1.55.79,2.07,1.82,2.07,2,0,2.59-1.76,2.59-3.13v-5.19h1.59v9.42Z" transform="translate(0 0)"/></g><g class="cls-4"><path class="cls-5" d="M1044.1,160.08v6.12c0,.74.64.74,1,.74h.56v1.24c-.58,0-1,.13-1.19.13-1.57,0-1.91-.89-1.91-2v-6.21h-1.28v-1.32h1.28v-2.63h1.58v2.63h1.52v1.32Z" transform="translate(0 0)"/></g><g class="cls-4"><path class="cls-5" d="M1047.48,166.27h1.87V168c0,2.44-1.51,2.73-1.87,2.79V170c.75-.07,1-1,1-1.82h-1Z" transform="translate(0 0)"/></g><g class="cls-4"><path class="cls-5" d="M1057,161.63c.07-2.25,1.56-3.14,3.89-3.14.75,0,3.49.22,3.49,2.63v5.42c0,.4.2.56.52.56a3.75,3.75,0,0,0,.52-.07v1.15a3,3,0,0,1-.86.18c-1.41,0-1.62-.72-1.68-1.44a4.25,4.25,0,0,1-3.4,1.53,2.71,2.71,0,0,1-3-2.72c0-.79.23-2.63,2.86-2.95l2.61-.33c.38,0,.83-.18.83-1.11s-.72-1.53-2.21-1.53a1.87,1.87,0,0,0-2.16,1.82Zm5.79,1.74c-.25.2-.64.34-2.61.6-.77.1-2,.34-2,1.53a1.49,1.49,0,0,0,1.71,1.64c1.47,0,2.91-1,2.91-2.22Z" transform="translate(0 0)"/></g><g class="cls-4"><path class="cls-5" d="M1074.62,168.18H1073v-5.8c0-1.64-.47-2.46-2-2.46-.9,0-2.48.57-2.48,3.13v5.13H1067v-9.42h1.5v1.34h0a3.41,3.41,0,0,1,2.85-1.61,3,3,0,0,1,3.29,3.28Z" transform="translate(0 0)"/></g><g class="cls-4"><path class="cls-5" d="M1084.71,168.18h-1.49v-1.3h0a2.83,2.83,0,0,1-2.68,1.57c-3.2,0-4.14-3-4.14-5.26,0-2.64,1.42-4.7,3.93-4.7a3.14,3.14,0,0,1,2.8,1.61l0-.13v-4.72h1.58Zm-4.17-1.1c1,0,2.57-.66,2.57-3.17,0-1.53-.25-4-2.54-4-2.45,0-2.57,2.32-2.57,3.52C1078,165.51,1078.81,167.08,1080.54,167.08Z" transform="translate(0 0)"/></g></g><g class="cls-4"><g class="cls-4"><path class="cls-5" d="M918.58,183.23c.07-2.25,1.56-3.14,3.89-3.14.75,0,3.49.22,3.49,2.63v5.42c0,.4.2.56.52.56a3.75,3.75,0,0,0,.52-.07v1.15a3,3,0,0,1-.86.18c-1.41,0-1.62-.72-1.68-1.44a4.25,4.25,0,0,1-3.4,1.53,2.71,2.71,0,0,1-2.95-2.72c0-.79.23-2.63,2.86-3l2.61-.33c.38,0,.83-.18.83-1.11s-.72-1.53-2.21-1.53a1.87,1.87,0,0,0-2.16,1.82Zm5.79,1.74c-.25.2-.64.35-2.61.6-.77.1-2,.34-2,1.53a1.49,1.49,0,0,0,1.71,1.64c1.47,0,2.91-1,2.91-2.22Z" transform="translate(0 0)"/></g><g class="cls-4"><path class="cls-5" d="M928.44,180.36h1.5v1.34h0a3.17,3.17,0,0,1,2.81-1.61c2.51,0,3.93,2.06,3.93,4.7,0,2.25-.94,5.26-4.14,5.26a2.81,2.81,0,0,1-2.5-1.26h0v4.72h-1.59Zm4.09,8.32c1.73,0,2.54-1.57,2.54-3.64,0-1.2-.13-3.52-2.57-3.52-2.29,0-2.54,2.46-2.54,4C930,188,931.52,188.68,932.53,188.68Z" transform="translate(0 0)"/></g><g class="cls-4"><path class="cls-5" d="M938.44,180.36h1.5v1.34h0a3.17,3.17,0,0,1,2.81-1.61c2.51,0,3.93,2.06,3.93,4.7,0,2.25-.94,5.26-4.14,5.26a2.81,2.81,0,0,1-2.5-1.26h0v4.72h-1.59Zm4.09,8.32c1.73,0,2.54-1.57,2.54-3.64,0-1.2-.13-3.52-2.57-3.52-2.29,0-2.54,2.46-2.54,4C940,188,941.52,188.68,942.53,188.68Z" transform="translate(0 0)"/></g><g class="cls-4"><path class="cls-5" d="M956.52,186.83a3.92,3.92,0,0,1-4.23,3.22c-2.64,0-4.21-2-4.21-4.72,0-2.91,1.4-5.24,4.52-5.24,2.72,0,4,2.16,4,5.49h-6.88c0,2,.92,3.1,2.74,3.1a2.39,2.39,0,0,0,2.43-1.85ZM955,184.32c-.09-1.45-.7-2.8-2.63-2.8a2.76,2.76,0,0,0-2.61,2.8Z" transform="translate(0 0)"/></g><g class="cls-4"><path class="cls-5" d="M958.34,183.23c.07-2.25,1.56-3.14,3.89-3.14.75,0,3.49.22,3.49,2.63v5.42c0,.4.2.56.52.56a3.75,3.75,0,0,0,.52-.07v1.15a3,3,0,0,1-.86.18c-1.41,0-1.62-.72-1.68-1.44a4.25,4.25,0,0,1-3.4,1.53,2.71,2.71,0,0,1-3-2.72c0-.79.23-2.63,2.86-3l2.61-.33c.38,0,.83-.18.83-1.11s-.72-1.53-2.21-1.53a1.89,1.89,0,0,0-2.17,1.82Zm5.79,1.74c-.25.2-.64.35-2.61.6-.77.1-2,.34-2,1.53a1.49,1.49,0,0,0,1.71,1.64c1.47,0,2.91-1,2.91-2.22Z" transform="translate(0 0)"/></g><g class="cls-4"><path class="cls-5" d="M970,189.78h-1.58v-9.42h1.49v1.57h0a3.06,3.06,0,0,1,2.64-1.84,1.21,1.21,0,0,1,.42.06v1.64h-.6a2.39,2.39,0,0,0-2.41,2.52Z" transform="translate(0 0)"/></g><g class="cls-4"><path class="cls-5" d="M974,183.23c.07-2.25,1.56-3.14,3.89-3.14.75,0,3.49.22,3.49,2.63v5.42c0,.4.2.56.52.56a3.75,3.75,0,0,0,.52-.07v1.15a3,3,0,0,1-.86.18c-1.41,0-1.62-.72-1.68-1.44a4.25,4.25,0,0,1-3.4,1.53,2.71,2.71,0,0,1-3-2.72c0-.79.23-2.63,2.86-3l2.61-.33c.38,0,.83-.18.83-1.11s-.72-1.53-2.21-1.53a1.88,1.88,0,0,0-2.17,1.82Zm5.79,1.74c-.25.2-.64.35-2.61.6-.77.1-2,.34-2,1.53a1.49,1.49,0,0,0,1.71,1.64c1.47,0,2.91-1,2.91-2.22Z" transform="translate(0 0)"/></g><g class="cls-4"><path class="cls-5" d="M991.6,189.78H990V184c0-1.64-.47-2.46-2-2.46-.9,0-2.49.57-2.49,3.13v5.13h-1.58v-9.42h1.49v1.34h0a3.41,3.41,0,0,1,2.85-1.61,3,3,0,0,1,3.29,3.28Z" transform="translate(0 0)"/><path class="cls-5" d="M999.83,183.53a2.1,2.1,0,0,0-2.24-2c-2,0-2.59,1.87-2.59,3.54s.4,3.62,2.58,3.62a2.4,2.4,0,0,0,2.25-2.23h1.53a3.73,3.73,0,0,1-3.84,3.6c-2.65,0-4.21-2-4.21-4.72,0-2.91,1.4-5.24,4.52-5.24a3.4,3.4,0,0,1,3.53,3.44Z" transform="translate(0 0)"/><path class="cls-5" d="M1010.93,186.83a3.92,3.92,0,0,1-4.23,3.22c-2.65,0-4.21-2-4.21-4.72,0-2.91,1.4-5.24,4.52-5.24,2.72,0,4,2.16,4,5.49h-6.88c0,2,.92,3.1,2.74,3.1a2.4,2.4,0,0,0,2.43-1.85Zm-1.51-2.51c-.09-1.45-.7-2.8-2.63-2.8a2.76,2.76,0,0,0-2.61,2.8Z" transform="translate(0 0)"/></g><g class="cls-4"><path class="cls-5" d="M1021.79,180.09c3,0,4.37,2.54,4.37,5s-1.37,5-4.37,5-4.38-2.54-4.38-5S1018.78,180.09,1021.79,180.09Zm0,8.57c2.26,0,2.73-2.34,2.73-3.6s-.47-3.6-2.73-3.6-2.74,2.34-2.74,3.6S1019.52,188.66,1021.79,188.66Z" transform="translate(0 0)"/></g><g class="cls-4"><path class="cls-5" d="M1029.69,181.68v8.1h-1.58v-8.1h-1.3v-1.32h1.3v-1.62c0-1.42.9-2.07,2.45-2.07.23,0,.47,0,.72,0v1.42c-.2,0-.45,0-.65,0-.68,0-.94.35-.94,1.1v1.17h1.59v1.32Z" transform="translate(0 0)"/></g><g class="cls-4"><path class="cls-5" d="M1041.18,189.78h-1.64l-2.72-9.42h1.73l1.8,7.4h0l1.82-7.4H1044l1.84,7.4h0l1.91-7.4h1.59l-2.74,9.42H1045l-1.91-7.29h0Z" transform="translate(0 0)"/></g><g class="cls-4"><path class="cls-5" d="M1058.33,189.78h-1.58v-6.16c0-1.28-.36-2.1-1.88-2.1-1.29,0-2.62.75-2.62,3.13v5.13h-1.59V176.85h1.59v4.77h0a3.33,3.33,0,0,1,2.76-1.53,3,3,0,0,1,3.29,3.28Z" transform="translate(0 0)"/></g><g class="cls-4"><path class="cls-5" d="M1060.49,183.23c.07-2.25,1.56-3.14,3.89-3.14.75,0,3.49.22,3.49,2.63v5.42c0,.4.2.56.52.56a3.75,3.75,0,0,0,.52-.07v1.15a3,3,0,0,1-.86.18c-1.41,0-1.62-.72-1.68-1.44a4.25,4.25,0,0,1-3.4,1.53,2.71,2.71,0,0,1-3-2.72c0-.79.23-2.63,2.86-3l2.61-.33c.38,0,.83-.18.83-1.11s-.72-1.53-2.21-1.53a1.88,1.88,0,0,0-2.17,1.82Zm5.79,1.74c-.25.2-.64.35-2.61.6-.77.1-2,.34-2,1.53a1.49,1.49,0,0,0,1.71,1.64c1.47,0,2.91-1,2.91-2.22Z" transform="translate(0 0)"/></g><g class="cls-4"><path class="cls-5" d="M1072.17,181.68v6.12c0,.74.63.74,1,.74h.56v1.24c-.58.05-1,.13-1.19.13-1.57,0-1.91-.89-1.91-2v-6.21h-1.28v-1.32h1.28v-2.63h1.58v2.63h1.52v1.32Z" transform="translate(0 0)"/><path class="cls-5" d="M1080.18,183.23c.08-2.25,1.57-3.14,3.89-3.14.76,0,3.5.22,3.5,2.63v5.42c0,.4.19.56.52.56a3.75,3.75,0,0,0,.52-.07v1.15a3,3,0,0,1-.86.18c-1.41,0-1.62-.72-1.68-1.44a4.25,4.25,0,0,1-3.4,1.53,2.71,2.71,0,0,1-3-2.72c0-.79.23-2.63,2.86-3l2.61-.33c.38,0,.83-.18.83-1.11s-.72-1.53-2.22-1.53a1.88,1.88,0,0,0-2.16,1.82ZM1086,185c-.25.2-.65.35-2.61.6-.77.1-2,.34-2,1.53a1.49,1.49,0,0,0,1.71,1.64c1.48,0,2.92-1,2.92-2.22Z" transform="translate(0 0)"/></g><g class="cls-4"><path class="cls-5" d="M1101.39,189.78v-1.37l0,0a3.1,3.1,0,0,1-3,1.67,2.78,2.78,0,0,1-3.07-2.92v-6.77h1.59v6.25c0,1.55.79,2.07,1.82,2.07,2,0,2.59-1.76,2.59-3.13v-5.19h1.58v9.42Z" transform="translate(0 0)"/></g><g class="cls-4"><path class="cls-5" d="M1110.53,183.05c0-.6-.24-1.59-2.24-1.59-.48,0-1.87.16-1.87,1.33,0,.78.49,1,1.71,1.26l1.59.4c2,.49,2.64,1.21,2.64,2.49,0,1.94-1.6,3.11-3.72,3.11-3.73,0-4-2.16-4.05-3.3h1.53c.05.74.27,1.93,2.5,1.93,1.13,0,2.16-.45,2.16-1.49,0-.76-.52-1-1.87-1.35l-1.84-.45c-1.31-.33-2.18-1-2.18-2.29,0-2.07,1.71-3,3.57-3,3.36,0,3.6,2.49,3.6,3Z" transform="translate(0 0)"/></g><g class="cls-4"><path class="cls-5" d="M1122.06,186.83a3.92,3.92,0,0,1-4.23,3.22c-2.64,0-4.21-2-4.21-4.72,0-2.91,1.4-5.24,4.52-5.24,2.72,0,4,2.16,4,5.49h-6.88c0,2,.92,3.1,2.74,3.1a2.39,2.39,0,0,0,2.43-1.85Zm-1.51-2.51c-.09-1.45-.7-2.8-2.63-2.8a2.76,2.76,0,0,0-2.61,2.8Z" transform="translate(0 0)"/></g><g class="cls-4"><path class="cls-5" d="M1125.68,189.78h-1.58v-9.42h1.49v1.57h0a3.06,3.06,0,0,1,2.64-1.84,1.21,1.21,0,0,1,.42.06v1.64h-.6a2.39,2.39,0,0,0-2.41,2.52Z" transform="translate(0 0)"/></g></g><g class="cls-4"><g class="cls-4"><path class="cls-5" d="M924,204.65c0-.6-.24-1.59-2.23-1.59-.49,0-1.88.16-1.88,1.33,0,.78.49,1,1.71,1.26l1.59.4c2,.49,2.64,1.21,2.64,2.49,0,1.94-1.6,3.11-3.72,3.11-3.73,0-4-2.16-4.05-3.3h1.53c0,.74.27,1.93,2.5,1.93,1.13,0,2.16-.45,2.16-1.49,0-.76-.52-1-1.87-1.35l-1.84-.45c-1.31-.33-2.18-1-2.18-2.29,0-2.07,1.71-3,3.57-3,3.36,0,3.6,2.49,3.6,3Z" transform="translate(0 0)"/></g><g class="cls-4"><path class="cls-5" d="M935.51,208.43a3.92,3.92,0,0,1-4.23,3.22c-2.64,0-4.21-2-4.21-4.72,0-2.91,1.4-5.24,4.52-5.24,2.72,0,4,2.16,4,5.49h-6.88c0,2,.92,3.1,2.74,3.1a2.39,2.39,0,0,0,2.43-1.85ZM934,205.92c-.09-1.45-.7-2.8-2.63-2.8a2.77,2.77,0,0,0-2.61,2.8Z" transform="translate(0 0)"/></g><g class="cls-4"><path class="cls-5" d="M945.46,208.43a4.09,4.09,0,0,1-1.68,2.57,4,4,0,0,1-2.56.65c-2.64,0-4.21-2-4.21-4.72,0-2.91,1.4-5.24,4.52-5.24,2.72,0,4.05,2.16,4.05,5.49H938.7c0,2,.92,3.1,2.74,3.1a2.39,2.39,0,0,0,2.43-1.85Zm-1.52-2.51c-.09-1.45-.7-2.8-2.63-2.8a2.77,2.77,0,0,0-2.61,2.8Z" transform="translate(0 0)"/></g><g class="cls-4"><path class="cls-5" d="M952.73,204.65c0-.6-.24-1.59-2.23-1.59-.49,0-1.88.16-1.88,1.33,0,.78.49,1,1.71,1.26l1.59.4c2,.49,2.64,1.21,2.64,2.49,0,1.94-1.6,3.11-3.72,3.11-3.73,0-4-2.16-4.05-3.3h1.53c0,.74.27,1.93,2.5,1.93,1.13,0,2.16-.45,2.16-1.49,0-.76-.52-1-1.87-1.35l-1.84-.45c-1.31-.33-2.18-1-2.18-2.29,0-2.07,1.71-3,3.57-3,3.36,0,3.6,2.49,3.6,3Z" transform="translate(0 0)"/></g><g class="cls-4"><path class="cls-5" d="M965.22,201.69c3,0,4.37,2.54,4.37,5s-1.37,5-4.37,5-4.38-2.54-4.38-5S962.21,201.69,965.22,201.69Zm0,8.57c2.26,0,2.73-2.34,2.73-3.6s-.47-3.6-2.73-3.6-2.74,2.34-2.74,3.6S963,210.26,965.22,210.26Z" transform="translate(0 0)"/></g><g class="cls-4"><path class="cls-5" d="M979,211.38h-1.58v-5.8c0-1.64-.47-2.46-2-2.46-.9,0-2.48.57-2.48,3.13v5.13h-1.59V202h1.5v1.34h0a3.4,3.4,0,0,1,2.85-1.61A3,3,0,0,1,979,205Z" transform="translate(0 0)"/></g><g class="cls-4"><path class="cls-5" d="M988.29,203.28v6.12c0,.74.63.74,1,.74h.56v1.24c-.58.05-1,.13-1.19.13-1.57,0-1.91-.89-1.91-2v-6.21h-1.28V202h1.28v-2.63h1.58V202h1.52v1.32Z" transform="translate(0 0)"/></g><g class="cls-4"><path class="cls-5" d="M999,211.38h-1.58v-6.16c0-1.28-.36-2.1-1.88-2.1-1.29,0-2.63.75-2.63,3.13v5.13H991.3V198.45h1.58v4.77h0a3.33,3.33,0,0,1,2.76-1.53A3,3,0,0,1,999,205Z" transform="translate(0 0)"/></g><g class="cls-4"><path class="cls-5" d="M1009.21,208.43a4.09,4.09,0,0,1-1.68,2.57,4,4,0,0,1-2.56.65c-2.64,0-4.21-2-4.21-4.72,0-2.91,1.4-5.24,4.52-5.24,2.72,0,4.05,2.16,4.05,5.49h-6.88c0,2,.92,3.1,2.74,3.1a2.39,2.39,0,0,0,2.43-1.85Zm-1.52-2.51c-.09-1.45-.7-2.8-2.63-2.8a2.77,2.77,0,0,0-2.61,2.8Z" transform="translate(0 0)"/></g><g class="cls-4"><path class="cls-5" d="M1021.58,204.65c0-.6-.24-1.59-2.24-1.59-.48,0-1.87.16-1.87,1.33,0,.78.49,1,1.71,1.26l1.59.4c2,.49,2.64,1.21,2.64,2.49,0,1.94-1.6,3.11-3.72,3.11-3.73,0-4-2.16-4.05-3.3h1.53c.05.74.27,1.93,2.5,1.93,1.13,0,2.16-.45,2.16-1.49,0-.76-.52-1-1.87-1.35l-1.84-.45c-1.31-.33-2.18-1-2.18-2.29,0-2.07,1.71-3,3.57-3,3.36,0,3.6,2.49,3.6,3Z" transform="translate(0 0)"/></g><g class="cls-4"><path class="cls-5" d="M1031.1,205.13a2.09,2.09,0,0,0-2.23-2c-2,0-2.6,1.87-2.6,3.54s.4,3.62,2.58,3.62a2.4,2.4,0,0,0,2.25-2.23h1.53a3.72,3.72,0,0,1-3.84,3.6c-2.64,0-4.21-2-4.21-4.72,0-2.91,1.4-5.24,4.52-5.24a3.4,3.4,0,0,1,3.53,3.44Z" transform="translate(0 0)"/></g><g class="cls-4"><path class="cls-5" d="M1036,211.38h-1.58V202h1.49v1.57h0a3.06,3.06,0,0,1,2.64-1.84,1.21,1.21,0,0,1,.42.06v1.64h-.6a2.39,2.39,0,0,0-2.41,2.52Z" transform="translate(0 0)"/></g><g class="cls-4"><path class="cls-5" d="M1048,208.43a3.92,3.92,0,0,1-4.23,3.22c-2.64,0-4.21-2-4.21-4.72,0-2.91,1.4-5.24,4.52-5.24,2.72,0,4,2.16,4,5.49h-6.88c0,2,.92,3.1,2.74,3.1a2.39,2.39,0,0,0,2.43-1.85Zm-1.51-2.51c-.09-1.45-.7-2.8-2.63-2.8a2.76,2.76,0,0,0-2.61,2.8Z" transform="translate(0 0)"/></g><g class="cls-4"><path class="cls-5" d="M1057.91,208.43a3.92,3.92,0,0,1-4.23,3.22c-2.64,0-4.21-2-4.21-4.72,0-2.91,1.41-5.24,4.52-5.24,2.72,0,4,2.16,4,5.49h-6.88c0,2,.92,3.1,2.74,3.1a2.39,2.39,0,0,0,2.43-1.85Zm-1.51-2.51c-.09-1.45-.7-2.8-2.63-2.8a2.76,2.76,0,0,0-2.61,2.8Z" transform="translate(0 0)"/></g><g class="cls-4"><path class="cls-5" d="M1067.51,211.38h-1.58v-5.8c0-1.64-.47-2.46-2-2.46-.9,0-2.49.57-2.49,3.13v5.13h-1.58V202h1.49v1.34h0a3.41,3.41,0,0,1,2.85-1.61,3,3,0,0,1,3.29,3.28Z" transform="translate(0 0)"/></g><g class="cls-4"><path class="cls-5" d="M1071.85,211.38H1070v-1.91h1.87Z" transform="translate(0 0)"/></g></g><g class="cls-4"><g class="cls-4"><path class="cls-5" d="M601,166.24,599.67,170h-1.8l4.86-12.93h2L609.4,170h-1.91l-1.28-3.76Zm4.56-1.55L603.67,159h0l-2.07,5.69Z" transform="translate(0 0)"/></g><g class="cls-4"><path class="cls-5" d="M610.67,170V157.07h1.59v4.7h0a3.24,3.24,0,0,1,2.72-1.46c2.51,0,3.93,2.06,3.93,4.7,0,2.25-.94,5.26-4.14,5.26a2.81,2.81,0,0,1-2.59-1.44h0V170Zm4.06-8.26c-2.29,0-2.54,2.46-2.54,4,0,2.51,1.56,3.17,2.57,3.17,1.73,0,2.54-1.56,2.54-3.64C617.3,164.06,617.17,161.74,614.73,161.74Z" transform="translate(0 0)"/></g><g class="cls-4"><path class="cls-5" d="M626.08,163.27c0-.6-.24-1.59-2.24-1.59-.48,0-1.87.16-1.87,1.33,0,.78.49,1,1.71,1.26l1.59.4c2,.49,2.64,1.21,2.64,2.49,0,1.94-1.6,3.11-3.72,3.11-3.73,0-4-2.16-4.05-3.3h1.53c.05.74.27,1.93,2.5,1.93,1.13,0,2.16-.45,2.16-1.49,0-.76-.52-1-1.87-1.35l-1.84-.45c-1.31-.33-2.18-1-2.18-2.29,0-2.07,1.71-3,3.57-3,3.36,0,3.6,2.49,3.6,3Z" transform="translate(0 0)"/></g><g class="cls-4"><path class="cls-5" d="M631.55,161.9V168c0,.74.64.74,1,.74h.56V170c-.58.05-1,.13-1.19.13-1.57,0-1.91-.89-1.91-2V161.9h-1.28v-1.32H630V158h1.58v2.63h1.52v1.32Z" transform="translate(0 0)"/></g><g class="cls-4"><path class="cls-5" d="M636.23,170h-1.58v-9.42h1.49v1.57h0a3.06,3.06,0,0,1,2.64-1.84,1.21,1.21,0,0,1,.42.06V162h-.6a2.39,2.39,0,0,0-2.41,2.52Z" transform="translate(0 0)"/></g><g class="cls-4"><path class="cls-5" d="M640.32,163.45c.07-2.25,1.56-3.14,3.89-3.14.75,0,3.49.22,3.49,2.63v5.42c0,.4.2.56.52.56a3.75,3.75,0,0,0,.52-.07V170a3,3,0,0,1-.86.18c-1.41,0-1.62-.72-1.68-1.44a4.25,4.25,0,0,1-3.4,1.53,2.71,2.71,0,0,1-2.95-2.72c0-.79.23-2.63,2.86-3l2.61-.33c.38,0,.83-.18.83-1.11s-.72-1.53-2.21-1.53a1.88,1.88,0,0,0-2.17,1.82Zm5.79,1.74c-.25.2-.64.35-2.61.6-.77.1-2,.34-2,1.53A1.49,1.49,0,0,0,643.2,169c1.47,0,2.91-1,2.91-2.22Z" transform="translate(0 0)"/></g><g class="cls-4"><path class="cls-5" d="M656.09,163.75a2.09,2.09,0,0,0-2.23-2c-2,0-2.6,1.87-2.6,3.54s.4,3.62,2.58,3.62a2.4,2.4,0,0,0,2.25-2.23h1.53a3.72,3.72,0,0,1-3.84,3.6c-2.64,0-4.21-2-4.21-4.72,0-2.91,1.4-5.24,4.52-5.24a3.4,3.4,0,0,1,3.53,3.44Z" transform="translate(0 0)"/></g><g class="cls-4"><path class="cls-5" d="M661.17,161.9V168c0,.74.63.74,1,.74h.56V170c-.58.05-1,.13-1.19.13-1.57,0-1.91-.89-1.91-2V161.9h-1.28v-1.32h1.28V158h1.58v2.63h1.52v1.32Z" transform="translate(0 0)"/><path class="cls-5" d="M664.27,158.87v-1.8h1.58v1.8ZM665.85,170h-1.58v-9.42h1.58Z" transform="translate(0 0)"/><path class="cls-5" d="M672.06,160.31c3,0,4.38,2.54,4.38,5s-1.37,5-4.38,5-4.37-2.54-4.37-5S669.06,160.31,672.06,160.31Zm0,8.57c2.27,0,2.74-2.34,2.74-3.6s-.47-3.6-2.74-3.6-2.73,2.34-2.73,3.6S669.8,168.88,672.06,168.88Z" transform="translate(0 0)"/></g><g class="cls-4"><path class="cls-5" d="M685.75,170h-1.58v-5.8c0-1.64-.47-2.46-2-2.46-.9,0-2.48.57-2.48,3.13V170h-1.59v-9.42h1.5v1.34h0a3.4,3.4,0,0,1,2.85-1.61,3,3,0,0,1,3.29,3.28Z" transform="translate(0 0)"/></g><g class="cls-4"><path class="cls-5" d="M696.93,160.31c3,0,4.37,2.54,4.37,5s-1.37,5-4.37,5-4.38-2.54-4.38-5S693.92,160.31,696.93,160.31Zm0,8.57c2.26,0,2.73-2.34,2.73-3.6s-.47-3.6-2.73-3.6-2.74,2.34-2.74,3.6S694.66,168.88,696.93,168.88Z" transform="translate(0 0)"/></g><g class="cls-4"><path class="cls-5" d="M704.83,161.9V170h-1.58v-8.1H702v-1.32h1.3V159c0-1.42.9-2.07,2.45-2.07.23,0,.47,0,.72,0v1.42c-.2,0-.45,0-.65,0-.69,0-.94.35-.94,1.1v1.17h1.59v1.32Z" transform="translate(0 0)"/></g><g class="cls-4"><path class="cls-5" d="M714.81,161.9V168c0,.74.64.74,1,.74h.56V170c-.58.05-1,.13-1.19.13-1.57,0-1.91-.89-1.91-2V161.9H712v-1.32h1.28V158h1.58v2.63h1.52v1.32Z" transform="translate(0 0)"/></g><g class="cls-4"><path class="cls-5" d="M725.49,170h-1.58v-6.16c0-1.28-.36-2.1-1.88-2.1-1.29,0-2.62.75-2.62,3.13V170h-1.59V157.07h1.59v4.77h0a3.33,3.33,0,0,1,2.76-1.53,3,3,0,0,1,3.29,3.28Z" transform="translate(0 0)"/></g><g class="cls-4"><path class="cls-5" d="M735.73,167.05a3.92,3.92,0,0,1-4.23,3.22c-2.64,0-4.21-2-4.21-4.72,0-2.91,1.4-5.24,4.52-5.24,2.72,0,4.05,2.16,4.05,5.49H729c0,2,.92,3.1,2.74,3.1a2.39,2.39,0,0,0,2.43-1.85Zm-1.51-2.51c-.09-1.45-.7-2.8-2.63-2.8a2.76,2.76,0,0,0-2.61,2.8Z" transform="translate(0 0)"/></g><g class="cls-4"><path class="cls-5" d="M748.71,160.58h1.73L746.86,170h-1.7l-3.44-9.42h1.84l2.45,7.67h0Z" transform="translate(0 0)"/></g><g class="cls-4"><path class="cls-5" d="M751.72,158.87v-1.8h1.58v1.8ZM753.3,170h-1.58v-9.42h1.58Z" transform="translate(0 0)"/></g><g class="cls-4"><path class="cls-5" d="M763.58,167.05a3.92,3.92,0,0,1-4.23,3.22c-2.64,0-4.21-2-4.21-4.72,0-2.91,1.4-5.24,4.52-5.24,2.72,0,4.05,2.16,4.05,5.49h-6.88c0,2,.92,3.1,2.74,3.1a2.39,2.39,0,0,0,2.43-1.85Zm-1.51-2.51c-.09-1.45-.7-2.8-2.63-2.8a2.77,2.77,0,0,0-2.61,2.8Z" transform="translate(0 0)"/></g><g class="cls-4"><path class="cls-5" d="M768.71,170h-1.64l-2.72-9.42h1.73l1.8,7.4h0l1.82-7.4h1.76l1.84,7.4h0l1.91-7.4h1.59L774.13,170h-1.64l-1.91-7.29h0Z" transform="translate(0 0)"/></g></g><g class="cls-4"><g class="cls-4"><path class="cls-5" d="M606.78,188.65a3.92,3.92,0,0,1-4.23,3.22c-2.64,0-4.21-2-4.21-4.72,0-2.91,1.4-5.24,4.52-5.24,2.72,0,4,2.16,4,5.49H600c0,2,.92,3.1,2.74,3.1a2.39,2.39,0,0,0,2.43-1.85Zm-1.51-2.51c-.09-1.45-.7-2.8-2.63-2.8a2.76,2.76,0,0,0-2.61,2.8Z" transform="translate(0 0)"/></g><g class="cls-4"><path class="cls-5" d="M616,191.6h-2l-2.34-3.55-2.27,3.55h-2l3.31-4.84-3.15-4.58h2l2.18,3.32,2.18-3.32h1.95l-3.19,4.58Z" transform="translate(0 0)"/></g><g class="cls-4"><path class="cls-5" d="M617.25,182.18h1.5v1.34h0a3.16,3.16,0,0,1,2.8-1.61c2.51,0,3.93,2.06,3.93,4.7,0,2.25-.94,5.26-4.14,5.26a2.81,2.81,0,0,1-2.5-1.26h0v4.72h-1.59Zm4.09,8.32c1.73,0,2.54-1.56,2.54-3.64,0-1.2-.13-3.52-2.57-3.52-2.29,0-2.54,2.46-2.54,4C618.77,189.84,620.33,190.5,621.34,190.5Z" transform="translate(0 0)"/></g><g class="cls-4"><path class="cls-5" d="M631.21,181.91c3,0,4.37,2.54,4.37,5s-1.37,5-4.37,5-4.38-2.54-4.38-5S628.2,181.91,631.21,181.91Zm0,8.57c2.26,0,2.73-2.34,2.73-3.6s-.47-3.6-2.73-3.6-2.74,2.34-2.74,3.6S628.94,190.48,631.21,190.48Z" transform="translate(0 0)"/><path class="cls-5" d="M642.73,184.87c0-.6-.24-1.59-2.24-1.59-.48,0-1.87.16-1.87,1.33,0,.78.49,1,1.71,1.26l1.59.4c2,.49,2.64,1.21,2.64,2.49,0,1.94-1.6,3.11-3.73,3.11-3.72,0-4-2.16-4.05-3.3h1.53c.06.74.27,1.93,2.51,1.93,1.13,0,2.16-.45,2.16-1.49,0-.76-.52-1-1.87-1.35l-1.84-.45c-1.32-.33-2.18-1-2.18-2.29,0-2.07,1.71-3,3.57-3,3.36,0,3.6,2.49,3.6,3Z" transform="translate(0 0)"/></g><g class="cls-4"><path class="cls-5" d="M646.24,180.47v-1.8h1.58v1.8Zm1.58,11.13h-1.58v-9.42h1.58Z" transform="translate(0 0)"/></g><g class="cls-4"><path class="cls-5" d="M657.74,191.6h-1.58v-5.8c0-1.64-.47-2.46-2-2.46-.9,0-2.48.57-2.48,3.13v5.13h-1.59v-9.42h1.5v1.34h0a3.41,3.41,0,0,1,2.85-1.61,3,3,0,0,1,3.29,3.28Z" transform="translate(0 0)"/></g><g class="cls-4"><path class="cls-5" d="M667.8,190.83c0,1.35,0,4.73-4.37,4.73-1.12,0-3.3-.3-3.6-2.81h1.58a1.94,1.94,0,0,0,2.13,1.5c2.73,0,2.68-2.2,2.68-3.32v-.39h0v.07a2.81,2.81,0,0,1-2.5,1.26c-3.2,0-4.14-3-4.14-5.26,0-2.64,1.42-4.7,3.93-4.7a3.16,3.16,0,0,1,2.8,1.61h0v-1.34h1.49Zm-4.08-.33c1,0,2.57-.66,2.57-3.17,0-1.53-.25-4-2.54-4-2.45,0-2.57,2.32-2.57,3.52C661.18,188.94,662,190.5,663.72,190.5Z" transform="translate(0 0)"/></g><g class="cls-4"><path class="cls-5" d="M674.87,182.18h1.5v1.34h0a3.19,3.19,0,0,1,2.81-1.61c2.51,0,3.93,2.06,3.93,4.7,0,2.25-.94,5.26-4.14,5.26a2.81,2.81,0,0,1-2.5-1.26h0v4.72h-1.59ZM679,190.5c1.73,0,2.54-1.56,2.54-3.64,0-1.2-.13-3.52-2.57-3.52-2.29,0-2.54,2.46-2.54,4C676.39,189.84,678,190.5,679,190.5Z" transform="translate(0 0)"/></g><g class="cls-4"><path class="cls-5" d="M691,191.6v-1.37l0,0a3.1,3.1,0,0,1-3,1.67A2.78,2.78,0,0,1,685,189v-6.77h1.58v6.25c0,1.55.79,2.07,1.82,2.07,2,0,2.59-1.76,2.59-3.13v-5.19h1.59v9.42Z" transform="translate(0 0)"/></g><g class="cls-4"><path class="cls-5" d="M694.74,191.6V178.67h1.59v4.7h0a3.21,3.21,0,0,1,2.71-1.46c2.51,0,3.93,2.06,3.93,4.7,0,2.25-.94,5.26-4.14,5.26a2.83,2.83,0,0,1-2.6-1.44h0v1.17Zm4.06-8.26c-2.29,0-2.54,2.46-2.54,4,0,2.51,1.56,3.17,2.57,3.17,1.73,0,2.54-1.56,2.54-3.64C701.37,185.66,701.24,183.34,698.8,183.34Z" transform="translate(0 0)"/></g><g class="cls-4"><path class="cls-5" d="M706.45,191.6h-1.58V178.67h1.58Z" transform="translate(0 0)"/></g><g class="cls-4"><path class="cls-5" d="M708.72,180.47v-1.8h1.58v1.8Zm1.58,11.13h-1.58v-9.42h1.58Z" transform="translate(0 0)"/><path class="cls-5" d="M718.56,185.35a2.09,2.09,0,0,0-2.23-2c-2,0-2.59,1.87-2.59,3.54s.39,3.62,2.57,3.62a2.39,2.39,0,0,0,2.25-2.23h1.53a3.72,3.72,0,0,1-3.83,3.6c-2.65,0-4.21-2-4.21-4.72,0-2.91,1.4-5.24,4.52-5.24a3.39,3.39,0,0,1,3.52,3.44Z" transform="translate(0 0)"/></g><g class="cls-4"><path class="cls-5" d="M726.55,182.18h1.5v1.34h0a3.19,3.19,0,0,1,2.81-1.61c2.51,0,3.93,2.06,3.93,4.7,0,2.25-.94,5.26-4.14,5.26a2.84,2.84,0,0,1-2.51-1.26h0v4.72h-1.59Zm4.09,8.32c1.73,0,2.54-1.56,2.54-3.64,0-1.2-.13-3.52-2.57-3.52s-2.54,2.46-2.54,4C728.07,189.84,729.63,190.5,730.64,190.5Z" transform="translate(0 0)"/></g><g class="cls-4"><path class="cls-5" d="M738.33,191.6h-1.58v-9.42h1.49v1.57h0a3.06,3.06,0,0,1,2.64-1.84,1.21,1.21,0,0,1,.42.06v1.64h-.6a2.39,2.39,0,0,0-2.41,2.52Z" transform="translate(0 0)"/></g><g class="cls-4"><path class="cls-5" d="M746.25,181.91c3,0,4.37,2.54,4.37,5s-1.37,5-4.37,5-4.38-2.54-4.38-5S743.24,181.91,746.25,181.91Zm0,8.57c2.26,0,2.73-2.34,2.73-3.6s-.47-3.6-2.73-3.6-2.74,2.34-2.74,3.6S744,190.48,746.25,190.48Z" transform="translate(0 0)"/></g><g class="cls-4"><path class="cls-5" d="M752.29,182.18h1.5v1.34h0a3.19,3.19,0,0,1,2.81-1.61c2.51,0,3.93,2.06,3.93,4.7,0,2.25-.94,5.26-4.14,5.26a2.81,2.81,0,0,1-2.5-1.26h0v4.72h-1.59Zm4.09,8.32c1.73,0,2.54-1.56,2.54-3.64,0-1.2-.13-3.52-2.57-3.52s-2.54,2.46-2.54,4C753.81,189.84,755.37,190.5,756.38,190.5Z" transform="translate(0 0)"/></g><g class="cls-4"><path class="cls-5" d="M770.36,188.65a3.92,3.92,0,0,1-4.23,3.22c-2.64,0-4.21-2-4.21-4.72,0-2.91,1.4-5.24,4.52-5.24,2.72,0,4,2.16,4,5.49h-6.88c0,2,.92,3.1,2.74,3.1a2.39,2.39,0,0,0,2.43-1.85Zm-1.51-2.51c-.09-1.45-.7-2.8-2.63-2.8a2.76,2.76,0,0,0-2.61,2.8Z" transform="translate(0 0)"/></g><g class="cls-4"><path class="cls-5" d="M774,191.6H772.4v-9.42h1.49v1.57h0a3.06,3.06,0,0,1,2.64-1.84,1.21,1.21,0,0,1,.42.06v1.64h-.6a2.39,2.39,0,0,0-2.41,2.52Z" transform="translate(0 0)"/></g><g class="cls-4"><path class="cls-5" d="M780.57,183.5v6.12c0,.74.64.74,1,.74h.56v1.24c-.58.05-1,.13-1.19.13-1.57,0-1.91-.89-1.91-2V183.5h-1.28v-1.32H779v-2.63h1.58v2.63h1.52v1.32Z" transform="translate(0 0)"/></g><g class="cls-4"><path class="cls-5" d="M783.62,180.47v-1.8h1.58v1.8Zm1.58,11.13h-1.58v-9.42h1.58Z" transform="translate(0 0)"/><path class="cls-5" d="M795.41,188.65a4.09,4.09,0,0,1-1.68,2.57,4,4,0,0,1-2.55.65c-2.65,0-4.22-2-4.22-4.72,0-2.91,1.41-5.24,4.52-5.24,2.72,0,4,2.16,4,5.49h-6.87c0,2,.91,3.1,2.73,3.1a2.38,2.38,0,0,0,2.43-1.85Zm-1.51-2.51c-.09-1.45-.71-2.8-2.63-2.8a2.76,2.76,0,0,0-2.61,2.8Z" transform="translate(0 0)"/></g><g class="cls-4"><path class="cls-5" d="M802.75,184.87c0-.6-.24-1.59-2.23-1.59-.49,0-1.88.16-1.88,1.33,0,.78.49,1,1.71,1.26l1.59.4c2,.49,2.64,1.21,2.64,2.49,0,1.94-1.6,3.11-3.72,3.11-3.73,0-4-2.16-4.05-3.3h1.53c0,.74.27,1.93,2.5,1.93,1.13,0,2.16-.45,2.16-1.49,0-.76-.52-1-1.87-1.35l-1.84-.45c-1.31-.33-2.18-1-2.18-2.29,0-2.07,1.71-3,3.57-3,3.36,0,3.6,2.49,3.6,3Z" transform="translate(0 0)"/></g></g><g class="cls-4"><g class="cls-4"><path class="cls-5" d="M598.74,206.65c.07-2.25,1.56-3.14,3.88-3.14.76,0,3.5.22,3.5,2.63v5.42c0,.4.2.56.52.56a3.75,3.75,0,0,0,.52-.07v1.15a3,3,0,0,1-.86.18c-1.41,0-1.62-.72-1.68-1.44a4.25,4.25,0,0,1-3.4,1.53,2.71,2.71,0,0,1-3-2.72c0-.79.23-2.63,2.86-2.95l2.61-.33c.38,0,.83-.18.83-1.11s-.72-1.53-2.21-1.53a1.88,1.88,0,0,0-2.17,1.82Zm5.79,1.74c-.25.2-.64.34-2.61.6-.77.1-2,.34-2,1.53a1.49,1.49,0,0,0,1.71,1.64c1.47,0,2.91-1,2.91-2.22Z" transform="translate(0 0)"/></g><g class="cls-4"><path class="cls-5" d="M616.34,213.2h-1.58v-5.8c0-1.64-.47-2.46-2-2.46-.9,0-2.49.57-2.49,3.13v5.13h-1.58v-9.42h1.5v1.34h0a3.41,3.41,0,0,1,2.85-1.61,3,3,0,0,1,3.29,3.28Z" transform="translate(0 0)"/></g><g class="cls-4"><path class="cls-5" d="M626.45,213.2H625v-1.3h0a2.83,2.83,0,0,1-2.68,1.57c-3.2,0-4.14-3-4.14-5.26,0-2.64,1.42-4.7,3.93-4.7a3.14,3.14,0,0,1,2.8,1.61l0-.13v-4.72h1.59Zm-4.18-1.1c1,0,2.57-.66,2.57-3.17,0-1.53-.25-4-2.54-4-2.45,0-2.57,2.32-2.57,3.52C619.73,210.53,620.54,212.1,622.27,212.1Z" transform="translate(0 0)"/></g><g class="cls-4"><path class="cls-5" d="M639.53,207a2.1,2.1,0,0,0-2.24-2c-2,0-2.59,1.87-2.59,3.54s.4,3.62,2.58,3.62a2.4,2.4,0,0,0,2.25-2.23h1.53a3.72,3.72,0,0,1-3.84,3.6c-2.64,0-4.21-2-4.21-4.72,0-2.91,1.4-5.24,4.52-5.24a3.4,3.4,0,0,1,3.53,3.44Z" transform="translate(0 0)"/></g><g class="cls-4"><path class="cls-5" d="M646.5,203.51c3,0,4.37,2.54,4.37,5s-1.37,5-4.37,5-4.38-2.54-4.38-5S643.49,203.51,646.5,203.51Zm0,8.57c2.26,0,2.73-2.34,2.73-3.6s-.47-3.6-2.73-3.6-2.74,2.34-2.74,3.6S644.23,212.08,646.5,212.08Z" transform="translate(0 0)"/></g><g class="cls-4"><path class="cls-5" d="M652.63,203.78h1.49v1.34h0a3.29,3.29,0,0,1,2.85-1.61,2.55,2.55,0,0,1,2.5,1.53,3.45,3.45,0,0,1,2.88-1.53,2.84,2.84,0,0,1,2.92,3.17v6.52h-1.59v-6.09c0-1.29-.39-2.17-1.74-2.17a2.39,2.39,0,0,0-2.22,2.52v5.74h-1.58v-6.52c0-.79-.31-1.74-1.48-1.74-.9,0-2.49.57-2.49,3.13v5.13h-1.58Z" transform="translate(0 0)"/></g><g class="cls-4"><path class="cls-5" d="M667.55,203.78H669v1.34h0a3.29,3.29,0,0,1,2.85-1.61,2.55,2.55,0,0,1,2.5,1.53,3.45,3.45,0,0,1,2.88-1.53,2.84,2.84,0,0,1,2.92,3.17v6.52h-1.59v-6.09c0-1.29-.39-2.17-1.74-2.17a2.39,2.39,0,0,0-2.22,2.52v5.74H673.1v-6.52c0-.79-.31-1.74-1.48-1.74-.9,0-2.49.57-2.49,3.13v5.13h-1.58Z" transform="translate(0 0)"/></g><g class="cls-4"><path class="cls-5" d="M682.44,206.65c.07-2.25,1.56-3.14,3.89-3.14.75,0,3.49.22,3.49,2.63v5.42c0,.4.2.56.52.56a3.75,3.75,0,0,0,.52-.07v1.15a3,3,0,0,1-.86.18c-1.41,0-1.62-.72-1.68-1.44a4.25,4.25,0,0,1-3.4,1.53,2.71,2.71,0,0,1-2.95-2.72c0-.79.23-2.63,2.86-2.95l2.61-.33c.38,0,.83-.18.83-1.11s-.72-1.53-2.21-1.53a1.88,1.88,0,0,0-2.17,1.82Zm5.79,1.74c-.25.2-.64.34-2.61.6-.77.1-2,.34-2,1.53a1.49,1.49,0,0,0,1.71,1.64c1.47,0,2.91-1,2.91-2.22Z" transform="translate(0 0)"/></g><g class="cls-4"><path class="cls-5" d="M700,213.2h-1.58v-5.8c0-1.64-.47-2.46-2-2.46-.9,0-2.48.57-2.48,3.13v5.13h-1.59v-9.42h1.5v1.34h0a3.4,3.4,0,0,1,2.85-1.61,3,3,0,0,1,3.29,3.28Z" transform="translate(0 0)"/></g><g class="cls-4"><path class="cls-5" d="M710.14,213.2h-1.49v-1.3h0a2.83,2.83,0,0,1-2.68,1.57c-3.2,0-4.14-3-4.14-5.26,0-2.64,1.42-4.7,3.92-4.7a3.15,3.15,0,0,1,2.81,1.61l0-.13v-4.72h1.58ZM706,212.1c1,0,2.57-.66,2.57-3.17,0-1.53-.25-4-2.54-4-2.45,0-2.57,2.32-2.57,3.52C703.43,210.53,704.24,212.1,706,212.1Z" transform="translate(0 0)"/></g><g class="cls-4"><path class="cls-5" d="M717.68,206.47c0-.6-.24-1.59-2.23-1.59-.49,0-1.88.16-1.88,1.33,0,.78.49,1,1.71,1.26l1.59.4c2,.49,2.64,1.21,2.64,2.49,0,1.94-1.6,3.11-3.72,3.11-3.73,0-4-2.16-4-3.3h1.53c.05.74.27,1.93,2.5,1.93,1.13,0,2.16-.45,2.16-1.49,0-.76-.52-1-1.87-1.35l-1.84-.45c-1.31-.33-2.18-1-2.18-2.29,0-2.07,1.71-3,3.57-3,3.36,0,3.6,2.49,3.6,3Z" transform="translate(0 0)"/></g><g class="cls-4"><path class="cls-5" d="M723.39,213.2h-1.87v-1.91h1.87Z" transform="translate(0 0)"/></g></g><line class="cls-3" x1="201.83" y1="89.78" x2="250.65" y2="89.78"/><polyline class="cls-3" points="206.38 94 201.83 89.78 206.38 85.56"/><polyline class="cls-3" points="246.11 85.56 250.65 89.78 246.11 94"/><g class="cls-4"><g class="cls-4"><path class="cls-5" d="M217.84,69.54H216.1V56.61h1.74Z" transform="translate(0 0)"/></g><g class="cls-4"><path class="cls-5" d="M220.33,69.88h-1.21l4.43-13.61h1.19Z" transform="translate(0 0)"/></g><g class="cls-4"><path class="cls-5" d="M231.05,69.88c-4.82,0-6.3-4-6.3-6.8s1.48-6.81,6.3-6.81,6.31,4,6.31,6.81S235.88,69.88,231.05,69.88Zm0-12.06c-2.8,0-4.5,2.21-4.5,5.26s1.7,5.25,4.5,5.25,4.51-2.21,4.51-5.25S233.86,57.82,231.05,57.82Z" transform="translate(0 0)"/></g></g><g class="cls-4"><g class="cls-4"><path class="cls-5" d="M295.4,155.25h5.24c3.36,0,5.44,2.56,5.44,6.29,0,2.89-1.27,6.64-5.51,6.64H295.4Zm1.75,11.44h3.38c2.27,0,3.74-1.79,3.74-5.05s-1.49-4.89-3.87-4.89h-3.25Z" transform="translate(0 0)"/><path class="cls-5" d="M311.94,158.49c3,0,4.38,2.54,4.38,5s-1.37,5-4.38,5-4.37-2.54-4.37-5S308.93,158.49,311.94,158.49Zm0,8.57c2.27,0,2.74-2.34,2.74-3.6s-.47-3.6-2.74-3.6-2.74,2.34-2.74,3.6S309.67,167.06,311.94,167.06Z" transform="translate(0 0)"/><path class="cls-5" d="M318.11,158.76h1.5v1.34h0a3.32,3.32,0,0,1,2.85-1.61A2.55,2.55,0,0,1,325,160a3.45,3.45,0,0,1,2.88-1.53,2.84,2.84,0,0,1,2.92,3.17v6.52h-1.58v-6.09c0-1.29-.4-2.17-1.75-2.17a2.4,2.4,0,0,0-2.22,2.52v5.74h-1.58v-6.52c0-.79-.31-1.74-1.48-1.74-.9,0-2.48.57-2.48,3.13v5.13h-1.59Z" transform="translate(0 0)"/></g><g class="cls-4"><path class="cls-5" d="M332.9,161.63c.07-2.25,1.56-3.14,3.89-3.14.75,0,3.49.22,3.49,2.63v5.42c0,.4.2.56.52.56a3.75,3.75,0,0,0,.52-.07v1.15a3,3,0,0,1-.86.18c-1.41,0-1.62-.72-1.68-1.44a4.25,4.25,0,0,1-3.4,1.53,2.71,2.71,0,0,1-2.95-2.72c0-.79.23-2.63,2.86-2.95l2.61-.33c.38,0,.83-.18.83-1.11s-.72-1.53-2.21-1.53a1.88,1.88,0,0,0-2.17,1.82Zm5.79,1.74c-.25.2-.64.34-2.61.6-.77.1-2,.34-2,1.53a1.49,1.49,0,0,0,1.71,1.64c1.47,0,2.91-1,2.91-2.22Z" transform="translate(0 0)"/><path class="cls-5" d="M342.83,157.05v-1.8h1.59v1.8Zm1.59,11.13h-1.59v-9.42h1.59Z" transform="translate(0 0)"/></g><g class="cls-4"><path class="cls-5" d="M354.37,168.18h-1.58v-5.8c0-1.64-.47-2.46-2-2.46-.9,0-2.49.57-2.49,3.13v5.13H346.7v-9.42h1.49v1.34h0a3.41,3.41,0,0,1,2.85-1.61,3,3,0,0,1,3.29,3.28Z" transform="translate(0 0)"/></g><g class="cls-4"><path class="cls-5" d="M361.71,158.76h1.5v1.34h0a3.29,3.29,0,0,1,2.85-1.61,2.55,2.55,0,0,1,2.5,1.53,3.45,3.45,0,0,1,2.88-1.53,2.84,2.84,0,0,1,2.92,3.17v6.52H372.8v-6.09c0-1.29-.39-2.17-1.74-2.17a2.39,2.39,0,0,0-2.22,2.52v5.74h-1.58v-6.52c0-.79-.31-1.74-1.48-1.74-.9,0-2.49.57-2.49,3.13v5.13h-1.58Z" transform="translate(0 0)"/></g><g class="cls-4"><path class="cls-5" d="M380.49,158.49c3,0,4.37,2.54,4.37,5s-1.37,5-4.37,5-4.38-2.54-4.38-5S377.48,158.49,380.49,158.49Zm0,8.57c2.26,0,2.73-2.34,2.73-3.6s-.47-3.6-2.73-3.6-2.74,2.34-2.74,3.6S378.22,167.06,380.49,167.06Z" transform="translate(0 0)"/><path class="cls-5" d="M394.47,168.18H393v-1.3h0a2.83,2.83,0,0,1-2.68,1.57c-3.21,0-4.14-3-4.14-5.26,0-2.64,1.42-4.7,3.92-4.7a3.17,3.17,0,0,1,2.81,1.61l0-.13v-4.72h1.58Zm-4.17-1.1c1,0,2.57-.66,2.57-3.17,0-1.53-.25-4-2.54-4-2.45,0-2.57,2.32-2.57,3.52C387.76,165.51,388.57,167.08,390.3,167.08Z" transform="translate(0 0)"/></g><g class="cls-4"><path class="cls-5" d="M404.66,165.23a3.92,3.92,0,0,1-4.23,3.22c-2.64,0-4.21-2-4.21-4.72,0-2.91,1.4-5.24,4.52-5.24,2.72,0,4.05,2.16,4.05,5.49h-6.88c0,2,.92,3.1,2.74,3.1a2.39,2.39,0,0,0,2.43-1.85Zm-1.51-2.51c-.09-1.45-.7-2.8-2.63-2.8a2.76,2.76,0,0,0-2.61,2.8Z" transform="translate(0 0)"/></g><g class="cls-4"><path class="cls-5" d="M408.2,168.18h-1.58V155.25h1.58Z" transform="translate(0 0)"/></g><g class="cls-4"><path class="cls-5" d="M412.54,168.18h-1.87v-1.91h1.87Z" transform="translate(0 0)"/></g><g class="cls-4"><path class="cls-5" d="M428.27,159c-.09-2-1.74-2.63-3.2-2.63-1.1,0-2.95.31-2.95,2.27,0,1.1.77,1.46,1.53,1.64l3.69.85a3.35,3.35,0,0,1,2.93,3.45c0,3.07-2.84,3.91-5.06,3.91-2.39,0-3.33-.72-3.9-1.24A4,4,0,0,1,420,164h1.64c0,2.34,1.91,3,3.57,3,1.26,0,3.38-.33,3.38-2.18,0-1.35-.63-1.78-2.75-2.29l-2.65-.61a3.11,3.11,0,0,1-2.76-3c0-2,1.32-4,4.45-4,4.52,0,5,2.7,5,4.12Z" transform="translate(0 0)"/></g><g class="cls-4"><path class="cls-5" d="M434.14,160.08v6.12c0,.74.63.74,1,.74h.56v1.24c-.58,0-1,.13-1.19.13-1.57,0-1.91-.89-1.91-2v-6.21h-1.28v-1.32h1.28v-2.63h1.58v2.63h1.52v1.32Z" transform="translate(0 0)"/></g><g class="cls-4"><path class="cls-5" d="M438.82,168.18h-1.58v-9.42h1.49v1.57h0a3.06,3.06,0,0,1,2.64-1.84,1.21,1.21,0,0,1,.42.06v1.64h-.6a2.39,2.39,0,0,0-2.41,2.52Z" transform="translate(0 0)"/></g><g class="cls-4"><path class="cls-5" d="M449.14,168.18v-1.37l0,0a3.1,3.1,0,0,1-3,1.67,2.78,2.78,0,0,1-3.07-2.92v-6.77h1.59V165c0,1.55.79,2.07,1.82,2.07,2,0,2.59-1.76,2.59-3.13v-5.19h1.58v9.42Z" transform="translate(0 0)"/></g><g class="cls-4"><path class="cls-5" d="M458.9,161.93a2.09,2.09,0,0,0-2.23-2c-2,0-2.6,1.87-2.6,3.54s.4,3.62,2.58,3.62a2.4,2.4,0,0,0,2.25-2.23h1.53a3.72,3.72,0,0,1-3.84,3.6c-2.64,0-4.21-2-4.21-4.72,0-2.91,1.4-5.24,4.52-5.24a3.4,3.4,0,0,1,3.53,3.44Z" transform="translate(0 0)"/></g><g class="cls-4"><path class="cls-5" d="M464,160.08v6.12c0,.74.64.74,1,.74h.56v1.24c-.58,0-1,.13-1.19.13-1.57,0-1.91-.89-1.91-2v-6.21h-1.28v-1.32h1.28v-2.63H464v2.63h1.52v1.32Z" transform="translate(0 0)"/><path class="cls-5" d="M473,168.18v-1.37l0,0a3.12,3.12,0,0,1-3,1.67,2.78,2.78,0,0,1-3.06-2.92v-6.77h1.58V165c0,1.55.79,2.07,1.82,2.07,2,0,2.59-1.76,2.59-3.13v-5.19h1.59v9.42Z" transform="translate(0 0)"/></g><g class="cls-4"><path class="cls-5" d="M478.42,168.18h-1.58v-9.42h1.49v1.57h0a3.06,3.06,0,0,1,2.64-1.84,1.21,1.21,0,0,1,.42.06v1.64h-.6a2.39,2.39,0,0,0-2.41,2.52Z" transform="translate(0 0)"/></g><g class="cls-4"><path class="cls-5" d="M490.44,165.23a3.92,3.92,0,0,1-4.23,3.22c-2.64,0-4.21-2-4.21-4.72,0-2.91,1.4-5.24,4.52-5.24,2.72,0,4.05,2.16,4.05,5.49h-6.88c0,2,.92,3.1,2.74,3.1a2.39,2.39,0,0,0,2.43-1.85Zm-1.51-2.51c-.09-1.45-.7-2.8-2.63-2.8a2.76,2.76,0,0,0-2.61,2.8Z" transform="translate(0 0)"/></g></g><g class="cls-4"><g class="cls-4"><path class="cls-5" d="M299,180.09c3,0,4.37,2.54,4.37,5s-1.37,5-4.37,5-4.38-2.54-4.38-5S295.94,180.09,299,180.09Zm0,8.57c2.26,0,2.73-2.34,2.73-3.6s-.47-3.6-2.73-3.6-2.74,2.34-2.74,3.6S296.68,188.66,299,188.66Z" transform="translate(0 0)"/></g><g class="cls-4"><path class="cls-5" d="M306.84,181.68v8.1h-1.58v-8.1H304v-1.32h1.3v-1.62c0-1.42.9-2.07,2.45-2.07.23,0,.47,0,.72,0v1.42c-.2,0-.45,0-.65,0-.69,0-.94.35-.94,1.1v1.17h1.59v1.32Z" transform="translate(0 0)"/></g><g class="cls-4"><path class="cls-5" d="M316.83,181.68v6.12c0,.74.64.74,1,.74h.56v1.24c-.58.05-1,.13-1.19.13-1.57,0-1.91-.89-1.91-2v-6.21H314v-1.32h1.28v-2.63h1.58v2.63h1.52v1.32Z" transform="translate(0 0)"/></g><g class="cls-4"><path class="cls-5" d="M327.49,189.78h-1.58v-6.16c0-1.28-.36-2.1-1.88-2.1-1.29,0-2.63.75-2.63,3.13v5.13h-1.58V176.85h1.58v4.77h0a3.33,3.33,0,0,1,2.76-1.53,3,3,0,0,1,3.29,3.28Z" transform="translate(0 0)"/></g><g class="cls-4"><path class="cls-5" d="M337.73,186.83a3.92,3.92,0,0,1-4.23,3.22c-2.64,0-4.21-2-4.21-4.72,0-2.91,1.4-5.24,4.52-5.24,2.72,0,4.05,2.16,4.05,5.49H331c0,2,.92,3.1,2.74,3.1a2.39,2.39,0,0,0,2.43-1.85Zm-1.51-2.51c-.09-1.45-.7-2.8-2.63-2.8a2.76,2.76,0,0,0-2.61,2.8Z" transform="translate(0 0)"/><path class="cls-5" d="M352.57,189.78h-1.5v-1.3h0a2.85,2.85,0,0,1-2.69,1.57c-3.2,0-4.14-3-4.14-5.26,0-2.64,1.42-4.7,3.93-4.7A3.17,3.17,0,0,1,351,181.7l0-.13v-4.72h1.59Zm-4.18-1.1c1,0,2.57-.66,2.57-3.17,0-1.53-.25-4-2.53-4-2.45,0-2.58,2.32-2.58,3.52C345.85,187.11,346.66,188.68,348.39,188.68Z" transform="translate(0 0)"/></g><g class="cls-4"><path class="cls-5" d="M354.71,183.23c.07-2.25,1.56-3.14,3.89-3.14.75,0,3.49.22,3.49,2.63v5.42c0,.4.2.56.52.56a3.75,3.75,0,0,0,.52-.07v1.15a3,3,0,0,1-.86.18c-1.41,0-1.62-.72-1.68-1.44a4.25,4.25,0,0,1-3.4,1.53,2.71,2.71,0,0,1-2.95-2.72c0-.79.23-2.63,2.86-3l2.61-.33c.38,0,.83-.18.83-1.11s-.72-1.53-2.21-1.53a1.88,1.88,0,0,0-2.17,1.82ZM360.5,185c-.25.2-.64.35-2.61.6-.77.1-2,.34-2,1.53a1.49,1.49,0,0,0,1.71,1.64c1.47,0,2.91-1,2.91-2.22Z" transform="translate(0 0)"/></g><g class="cls-4"><path class="cls-5" d="M366.39,181.68v6.12c0,.74.63.74,1,.74h.56v1.24c-.58.05-1,.13-1.19.13-1.57,0-1.91-.89-1.91-2v-6.21h-1.28v-1.32h1.28v-2.63h1.58v2.63h1.52v1.32Z" transform="translate(0 0)"/></g><g class="cls-4"><path class="cls-5" d="M369.38,183.23c.07-2.25,1.56-3.14,3.89-3.14.75,0,3.49.22,3.49,2.63v5.42c0,.4.2.56.52.56a3.75,3.75,0,0,0,.52-.07v1.15a3,3,0,0,1-.86.18c-1.41,0-1.62-.72-1.68-1.44a4.25,4.25,0,0,1-3.4,1.53,2.71,2.71,0,0,1-2.95-2.72c0-.79.23-2.63,2.86-3l2.61-.33c.38,0,.83-.18.83-1.11s-.72-1.53-2.21-1.53a1.89,1.89,0,0,0-2.17,1.82Zm5.79,1.74c-.25.2-.64.35-2.61.6-.77.1-2,.34-2,1.53a1.49,1.49,0,0,0,1.71,1.64c1.47,0,2.91-1,2.91-2.22Z" transform="translate(0 0)"/></g><g class="cls-4"><path class="cls-5" d="M388.28,180.09c3,0,4.37,2.54,4.37,5s-1.37,5-4.37,5-4.38-2.54-4.38-5S385.27,180.09,388.28,180.09Zm0,8.57c2.26,0,2.73-2.34,2.73-3.6s-.47-3.6-2.73-3.6-2.74,2.34-2.74,3.6S386,188.66,388.28,188.66Z" transform="translate(0 0)"/></g><g class="cls-4"><path class="cls-5" d="M396.09,189.78h-1.58v-9.42H396v1.57h0a3.06,3.06,0,0,1,2.64-1.84,1.21,1.21,0,0,1,.42.06v1.64h-.6a2.39,2.39,0,0,0-2.41,2.52Z" transform="translate(0 0)"/></g><g class="cls-4"><path class="cls-5" d="M411.18,183.53a2.09,2.09,0,0,0-2.23-2c-2,0-2.6,1.87-2.6,3.54s.4,3.62,2.58,3.62a2.4,2.4,0,0,0,2.25-2.23h1.53a3.72,3.72,0,0,1-3.84,3.6c-2.64,0-4.21-2-4.21-4.72,0-2.91,1.4-5.24,4.52-5.24a3.4,3.4,0,0,1,3.53,3.44Z" transform="translate(0 0)"/></g><g class="cls-4"><path class="cls-5" d="M418.15,180.09c3,0,4.37,2.54,4.37,5s-1.37,5-4.37,5-4.38-2.54-4.38-5S415.14,180.09,418.15,180.09Zm0,8.57c2.26,0,2.73-2.34,2.73-3.6s-.47-3.6-2.73-3.6-2.74,2.34-2.74,3.6S415.88,188.66,418.15,188.66Z" transform="translate(0 0)"/></g><g class="cls-4"><path class="cls-5" d="M431.93,189.78h-1.58V184c0-1.64-.47-2.46-2-2.46-.9,0-2.49.57-2.49,3.13v5.13h-1.58v-9.42h1.49v1.34h0a3.41,3.41,0,0,1,2.85-1.61,3,3,0,0,1,3.29,3.28Z" transform="translate(0 0)"/></g><g class="cls-4"><path class="cls-5" d="M436,181.68v6.12c0,.74.63.74,1,.74h.56v1.24c-.58.05-1,.13-1.19.13-1.57,0-1.91-.89-1.91-2v-6.21h-1.28v-1.32h1.28v-2.63H436v2.63h1.52v1.32Z" transform="translate(0 0)"/></g><g class="cls-4"><path class="cls-5" d="M446.74,186.83a3.92,3.92,0,0,1-4.23,3.22c-2.64,0-4.21-2-4.21-4.72,0-2.91,1.4-5.24,4.52-5.24,2.72,0,4.05,2.16,4.05,5.49H440c0,2,.92,3.1,2.74,3.1a2.39,2.39,0,0,0,2.43-1.85Zm-1.51-2.51c-.09-1.45-.7-2.8-2.63-2.8a2.77,2.77,0,0,0-2.61,2.8Z" transform="translate(0 0)"/></g><g class="cls-4"><path class="cls-5" d="M456.34,189.78h-1.58V184c0-1.64-.47-2.46-2-2.46-.9,0-2.49.57-2.49,3.13v5.13h-1.58v-9.42h1.5v1.34h0a3.41,3.41,0,0,1,2.85-1.61,3,3,0,0,1,3.29,3.28Z" transform="translate(0 0)"/></g><g class="cls-4"><path class="cls-5" d="M460.4,181.68v6.12c0,.74.64.74,1,.74h.56v1.24c-.58.05-1,.13-1.19.13-1.57,0-1.91-.89-1.91-2v-6.21h-1.28v-1.32h1.28v-2.63h1.58v2.63h1.52v1.32Z" transform="translate(0 0)"/></g><g class="cls-4"><path class="cls-5" d="M472.31,180.09c3,0,4.37,2.54,4.37,5s-1.37,5-4.37,5-4.38-2.54-4.38-5S469.3,180.09,472.31,180.09Zm0,8.57c2.26,0,2.73-2.34,2.73-3.6s-.47-3.6-2.73-3.6-2.74,2.34-2.74,3.6S470,188.66,472.31,188.66Z" transform="translate(0 0)"/></g><g class="cls-4"><path class="cls-5" d="M480.2,181.68v8.1h-1.58v-8.1h-1.3v-1.32h1.3v-1.62c0-1.42.9-2.07,2.45-2.07.23,0,.47,0,.72,0v1.42c-.2,0-.45,0-.65,0-.69,0-.94.35-.94,1.1v1.17h1.59v1.32Z" transform="translate(0 0)"/></g></g><g class="cls-4"><g class="cls-4"><path class="cls-5" d="M297.05,203.28v6.12c0,.74.64.74,1,.74h.56v1.24c-.58.05-1,.13-1.19.13-1.57,0-1.91-.89-1.91-2v-6.21h-1.28V202h1.28v-2.63h1.58V202h1.52v1.32Z" transform="translate(0 0)"/></g><g class="cls-4"><path class="cls-5" d="M307.73,211.38h-1.58v-6.16c0-1.28-.36-2.1-1.88-2.1-1.29,0-2.62.75-2.62,3.13v5.13h-1.59V198.45h1.59v4.77h0a3.33,3.33,0,0,1,2.76-1.53,3,3,0,0,1,3.29,3.28Z" transform="translate(0 0)"/></g><g class="cls-4"><path class="cls-5" d="M318,208.43a3.92,3.92,0,0,1-4.23,3.22c-2.64,0-4.21-2-4.21-4.72,0-2.91,1.4-5.24,4.52-5.24,2.72,0,4.05,2.16,4.05,5.49h-6.88c0,2,.92,3.1,2.74,3.1a2.39,2.39,0,0,0,2.43-1.85Zm-1.51-2.51c-.09-1.45-.7-2.8-2.63-2.8a2.77,2.77,0,0,0-2.61,2.8Z" transform="translate(0 0)"/></g><g class="cls-4"><path class="cls-5" d="M324.94,204.83c.07-2.25,1.56-3.14,3.89-3.14.75,0,3.49.22,3.49,2.63v5.42c0,.4.2.56.52.56a3.75,3.75,0,0,0,.52-.07v1.15a3,3,0,0,1-.86.18c-1.41,0-1.62-.72-1.68-1.44a4.25,4.25,0,0,1-3.4,1.53,2.71,2.71,0,0,1-2.95-2.72c0-.79.23-2.63,2.86-3l2.61-.33c.38,0,.83-.18.83-1.11s-.72-1.53-2.21-1.53a1.88,1.88,0,0,0-2.17,1.82Zm5.79,1.74c-.25.2-.64.35-2.61.6-.77.1-2,.34-2,1.53a1.49,1.49,0,0,0,1.71,1.64c1.47,0,2.91-1,2.91-2.22Z" transform="translate(0 0)"/></g><g class="cls-4"><path class="cls-5" d="M334.8,202h1.5v1.34h0a3.19,3.19,0,0,1,2.81-1.61c2.51,0,3.93,2.06,3.93,4.7,0,2.25-.94,5.26-4.14,5.26a2.84,2.84,0,0,1-2.51-1.26h0v4.72H334.8Zm4.09,8.32c1.73,0,2.54-1.57,2.54-3.64,0-1.2-.13-3.52-2.57-3.52s-2.54,2.46-2.54,4C336.32,209.62,337.88,210.28,338.89,210.28Z" transform="translate(0 0)"/></g><g class="cls-4"><path class="cls-5" d="M344.8,202h1.5v1.34h0a3.19,3.19,0,0,1,2.81-1.61c2.51,0,3.93,2.06,3.93,4.7,0,2.25-.94,5.26-4.14,5.26a2.84,2.84,0,0,1-2.51-1.26h0v4.72H344.8Zm4.09,8.32c1.73,0,2.54-1.57,2.54-3.64,0-1.2-.13-3.52-2.57-3.52s-2.54,2.46-2.54,4C346.32,209.62,347.88,210.28,348.89,210.28Z" transform="translate(0 0)"/></g><g class="cls-4"><path class="cls-5" d="M356.69,211.38h-1.87v-1.91h1.87Z" transform="translate(0 0)"/></g></g><g class="cls-4"><g class="cls-4"><path class="cls-5" d="M354.78,306c-.15-3.33-2.91-4.38-5.34-4.38-1.83,0-4.92.51-4.92,3.78,0,1.83,1.29,2.43,2.55,2.73l6.15,1.41c2.79.66,4.89,2.34,4.89,5.76,0,5.1-4.74,6.51-8.43,6.51-4,0-5.55-1.2-6.51-2.07a6.63,6.63,0,0,1-2.19-5.46h2.73c0,3.9,3.18,5,5.94,5,2.1,0,5.64-.54,5.64-3.63,0-2.25-1.05-3-4.59-3.81l-4.41-1c-1.41-.33-4.59-1.32-4.59-5.07,0-3.36,2.19-6.66,7.41-6.66,7.53,0,8.28,4.5,8.4,6.87Z" transform="translate(0 0)"/><path class="cls-5" d="M364.59,321.2h-2.91V299.66h2.91Z" transform="translate(0 0)"/></g><g class="cls-4"><path class="cls-5" d="M378.57,309.68H388V321.2h-1.89l-.69-2.79a8.79,8.79,0,0,1-7.11,3.36,8.63,8.63,0,0,1-6.6-2.43c-3.3-3.12-3.39-6.81-3.39-9.09,0-5.25,3.18-11.16,10.2-11.16,4,0,8.49,2.28,9.12,7.11h-2.82c-.93-3.75-4.08-4.53-6.45-4.53-3.87,0-7.05,3.09-7.05,8.73,0,4.38,1.44,8.88,7.17,8.88a6.85,6.85,0,0,0,4.41-1.38c1.89-1.5,2.37-3.42,2.37-5.73h-6.72Z" transform="translate(0 0)"/></g><g class="cls-4"><path class="cls-5" d="M406.53,299.66h2.82V321.2h-3.27l-10.95-17.4h-.06v17.4h-2.82V299.66h3.45l10.77,17.4h.06Z" transform="translate(0 0)"/></g><g class="cls-4"><path class="cls-5" d="M416.94,314.93l-2.25,6.27h-3l8.1-21.54h3.3l7.8,21.54h-3.18l-2.13-6.27Zm7.59-2.58-3.18-9.48h-.06l-3.45,9.48Z" transform="translate(0 0)"/></g><g class="cls-4"><path class="cls-5" d="M436.14,318.62h10.92v2.58H433.23V299.66h2.91Z" transform="translate(0 0)"/></g><g class="cls-4"><path class="cls-5" d="M462.39,306c-.15-3.33-2.91-4.38-5.34-4.38-1.83,0-4.92.51-4.92,3.78,0,1.83,1.29,2.43,2.55,2.73l6.15,1.41c2.79.66,4.89,2.34,4.89,5.76,0,5.1-4.74,6.51-8.43,6.51-4,0-5.55-1.2-6.51-2.07a6.63,6.63,0,0,1-2.19-5.46h2.73c0,3.9,3.18,5,5.94,5,2.1,0,5.64-.54,5.64-3.63,0-2.25-1-3-4.59-3.81l-4.41-1c-1.41-.33-4.59-1.32-4.59-5.07,0-3.36,2.19-6.66,7.41-6.66,7.53,0,8.28,4.5,8.4,6.87Z" transform="translate(0 0)"/><path class="cls-5" d="M508.5,311.69H493.32V309.5H508.5Zm0,6.06H493.32v-2.19H508.5Z" transform="translate(0 0)"/></g><g class="cls-4"><path class="cls-5" d="M539.88,318.62H550.8v2.58H537V299.66h2.91Z" transform="translate(0 0)"/></g><g class="cls-4"><path class="cls-5" d="M557.52,314.93l-2.25,6.27h-3l8.1-21.54h3.3l7.8,21.54h-3.18l-2.13-6.27Zm7.59-2.58-3.18-9.48h-.06l-3.45,9.48Z" transform="translate(0 0)"/></g><g class="cls-4"><path class="cls-5" d="M591.57,321.2V308.48c0-.63.06-3.36.06-5.37h-.06l-6.06,18.09h-2.88l-6.06-18.06h-.06c0,2,.06,4.71.06,5.34V321.2h-2.82V299.66h4.17l6.15,18.21h.06l6.12-18.21h4.14V321.2Z" transform="translate(0 0)"/></g><g class="cls-4"><path class="cls-5" d="M601.77,321.2h-2.91V299.66h9.69c4,0,6.39,2.58,6.39,6.06,0,3-1.71,6.39-6.39,6.39h-6.78Zm0-11.58h5.79c2.61,0,4.38-1,4.38-3.87,0-2.73-1.86-3.6-4.26-3.6h-5.91Z" transform="translate(0 0)"/></g><g class="cls-4"><path class="cls-5" d="M630.78,306c-.15-3.33-2.91-4.38-5.34-4.38-1.83,0-4.92.51-4.92,3.78,0,1.83,1.29,2.43,2.55,2.73l6.15,1.41c2.79.66,4.89,2.34,4.89,5.76,0,5.1-4.74,6.51-8.43,6.51-4,0-5.55-1.2-6.51-2.07a6.63,6.63,0,0,1-2.19-5.46h2.73c0,3.9,3.18,5,5.94,5,2.1,0,5.64-.54,5.64-3.63,0-2.25-1-3-4.59-3.81l-4.41-1c-1.41-.33-4.59-1.32-4.59-5.07,0-3.36,2.19-6.66,7.41-6.66,7.53,0,8.28,4.5,8.4,6.87Z" transform="translate(0 0)"/><path class="cls-5" d="M668.22,306.05h2.19v6.48h6.48v2.19h-6.48v6.48h-2.19v-6.48h-6.51v-2.19h6.51Z" transform="translate(0 0)"/></g><g class="cls-4"><path class="cls-5" d="M704.28,314.93,702,321.2h-3l8.1-21.54h3.3l7.8,21.54h-3.18l-2.13-6.27Zm7.59-2.58-3.18-9.48h-.06l-3.45,9.48Z" transform="translate(0 0)"/></g><g class="cls-4"><path class="cls-5" d="M720.63,299.66h8.73c5.61,0,9.06,4.26,9.06,10.47,0,4.83-2.1,11.07-9.18,11.07h-8.61Zm2.91,19h5.64c3.78,0,6.24-3,6.24-8.4s-2.49-8.16-6.45-8.16h-5.43Z" transform="translate(0 0)"/></g><g class="cls-4"><path class="cls-5" d="M742,299.66h8.73c5.61,0,9.06,4.26,9.06,10.47,0,4.83-2.1,11.07-9.18,11.07H742Zm2.91,19h5.64c3.78,0,6.24-3,6.24-8.4s-2.49-8.16-6.45-8.16h-5.43Z" transform="translate(0 0)"/></g><g class="cls-4"><path class="cls-5" d="M770.31,314.24H763v-2.7h7.35Z" transform="translate(0 0)"/></g><g class="cls-4"><path class="cls-5" d="M783.84,321.77c-8,0-10.5-6.69-10.5-11.34s2.46-11.34,10.5-11.34,10.5,6.69,10.5,11.34S791.88,321.77,783.84,321.77Zm0-20.1c-4.68,0-7.5,3.69-7.5,8.76s2.82,8.76,7.5,8.76,7.5-3.69,7.5-8.76S788.52,301.67,783.84,301.67Z" transform="translate(0 0)"/></g><g class="cls-4"><path class="cls-5" d="M811.92,299.66h2.82V321.2h-3.27l-11-17.4h-.06v17.4h-2.82V299.66h3.45l10.77,17.4h.06Z" transform="translate(0 0)"/></g><g class="cls-4"><path class="cls-5" d="M832,306c-.15-3.33-2.91-4.38-5.34-4.38-1.83,0-4.92.51-4.92,3.78,0,1.83,1.29,2.43,2.55,2.73l6.15,1.41c2.79.66,4.89,2.34,4.89,5.76,0,5.1-4.74,6.51-8.43,6.51-4,0-5.55-1.2-6.51-2.07a6.63,6.63,0,0,1-2.19-5.46h2.73c0,3.9,3.18,5,5.94,5,2.1,0,5.64-.54,5.64-3.63,0-2.25-1.05-3-4.59-3.81l-4.41-1c-1.41-.33-4.59-1.32-4.59-5.07,0-3.36,2.19-6.66,7.41-6.66,7.53,0,8.28,4.5,8.4,6.87Z" transform="translate(0 0)"/></g><g class="cls-4"><path class="cls-5" d="M866.16,306.05h2.19v6.48h6.48v2.19h-6.48v6.48h-2.19v-6.48h-6.51v-2.19h6.51Z" transform="translate(0 0)"/></g><g class="cls-4"><path class="cls-5" d="M909.75,306c-.15-3.33-2.91-4.38-5.34-4.38-1.83,0-4.92.51-4.92,3.78,0,1.83,1.29,2.43,2.55,2.73l6.15,1.41c2.79.66,4.89,2.34,4.89,5.76,0,5.1-4.74,6.51-8.43,6.51-4,0-5.55-1.2-6.51-2.07a6.63,6.63,0,0,1-2.19-5.46h2.73c0,3.9,3.18,5,5.94,5,2.1,0,5.64-.54,5.64-3.63,0-2.25-1-3-4.59-3.81l-4.41-1c-1.41-.33-4.59-1.32-4.59-5.07,0-3.36,2.19-6.66,7.41-6.66,7.53,0,8.28,4.5,8.4,6.87Z" transform="translate(0 0)"/></g><g class="cls-4"><path class="cls-5" d="M924.57,321.2h-2.91v-8.67l-8.13-12.87h3.39L923.1,310l6.18-10.35h3.42l-8.13,12.87Z" transform="translate(0 0)"/></g><g class="cls-4"><path class="cls-5" d="M947,306c-.15-3.33-2.91-4.38-5.34-4.38-1.83,0-4.92.51-4.92,3.78,0,1.83,1.29,2.43,2.55,2.73l6.15,1.41c2.79.66,4.89,2.34,4.89,5.76,0,5.1-4.74,6.51-8.43,6.51-4,0-5.55-1.2-6.51-2.07a6.63,6.63,0,0,1-2.19-5.46h2.73c0,3.9,3.18,5,5.94,5,2.1,0,5.64-.54,5.64-3.63,0-2.25-1.05-3-4.59-3.81l-4.41-1c-1.41-.33-4.59-1.32-4.59-5.07,0-3.36,2.19-6.66,7.41-6.66,7.53,0,8.28,4.5,8.4,6.87Z" transform="translate(0 0)"/></g><g class="cls-4"><path class="cls-5" d="M951.5,299.66H969v2.58H961.7v19h-2.91v-19H951.5Z" transform="translate(0 0)"/></g><g class="cls-4"><path class="cls-5" d="M987.39,321.2h-15.9V299.66h15.69v2.58H974.4v6.6h11.79v2.58H974.4v7.2h13Z" transform="translate(0 0)"/></g><g class="cls-4"><path class="cls-5" d="M1008.29,321.2V308.48c0-.63.06-3.36.06-5.37h-.06l-6.06,18.09h-2.88l-6.06-18.06h-.06c0,2,.06,4.71.06,5.34V321.2h-2.82V299.66h4.17l6.15,18.21h.06l6.12-18.21h4.14V321.2Z" transform="translate(0 0)"/></g><g class="cls-4"><path class="cls-5" d="M1028.3,306c-.15-3.33-2.91-4.38-5.34-4.38-1.83,0-4.92.51-4.92,3.78,0,1.83,1.29,2.43,2.55,2.73l6.15,1.41c2.79.66,4.89,2.34,4.89,5.76,0,5.1-4.74,6.51-8.43,6.51-4,0-5.55-1.2-6.51-2.07a6.63,6.63,0,0,1-2.19-5.46h2.73c0,3.9,3.18,5,5.94,5,2.1,0,5.64-.54,5.64-3.63,0-2.25-1-3-4.59-3.81l-4.41-1c-1.41-.33-4.59-1.32-4.59-5.07,0-3.36,2.19-6.66,7.41-6.66,7.53,0,8.28,4.5,8.4,6.87Z" transform="translate(0 0)"/></g></g><line class="cls-3" x1="276.87" y1="285.48" x2="276.87" y2="155.26"/><polyline class="cls-3" points="281.09 280.94 276.87 285.48 272.64 280.94"/><g class="cls-4"><g class="cls-4"><path class="cls-5" d="M342.28,360.91h-1.74V348h1.74Z" transform="translate(0 0)"/></g><g class="cls-4"><path class="cls-5" d="M345.11,348h5.24c3.36,0,5.44,2.56,5.44,6.29,0,2.89-1.27,6.64-5.51,6.64h-5.17Zm1.74,11.44h3.39c2.27,0,3.74-1.79,3.74-5.05s-1.49-4.89-3.87-4.89h-3.26Z" transform="translate(0 0)"/></g></g><g class="cls-4"><g class="cls-4"><path class="cls-5" d="M340.36,367.94h5.24c3.36,0,5.44,2.56,5.44,6.29,0,2.89-1.27,6.64-5.51,6.64h-5.17Zm1.74,11.44h3.39c2.27,0,3.74-1.79,3.74-5.05s-1.49-4.89-3.87-4.89H342.1Z" transform="translate(0 0)"/></g><g class="cls-4"><path class="cls-5" d="M361,377.92a3.92,3.92,0,0,1-4.23,3.22c-2.64,0-4.21-2-4.21-4.72,0-2.91,1.4-5.24,4.52-5.24,2.72,0,4.05,2.16,4.05,5.49H354.2c0,2,.92,3.1,2.74,3.1a2.39,2.39,0,0,0,2.43-1.85Zm-1.51-2.51c-.09-1.45-.7-2.8-2.63-2.8a2.76,2.76,0,0,0-2.61,2.8Z" transform="translate(0 0)"/></g><g class="cls-4"><path class="cls-5" d="M368.23,374.14c0-.6-.24-1.59-2.23-1.59-.49,0-1.88.16-1.88,1.33,0,.78.49,1,1.71,1.26l1.59.4c2,.49,2.64,1.21,2.64,2.49,0,1.94-1.6,3.11-3.72,3.11-3.73,0-4-2.16-4-3.3h1.53c.05.74.27,1.93,2.5,1.93,1.13,0,2.16-.45,2.16-1.49,0-.76-.52-1-1.87-1.35l-1.84-.45c-1.31-.33-2.18-1-2.18-2.29,0-2.07,1.71-3,3.57-3,3.36,0,3.6,2.49,3.6,3Z" transform="translate(0 0)"/></g><g class="cls-4"><path class="cls-5" d="M377.75,374.62a2.09,2.09,0,0,0-2.23-2c-2,0-2.6,1.87-2.6,3.54s.4,3.62,2.58,3.62a2.4,2.4,0,0,0,2.25-2.23h1.53a3.72,3.72,0,0,1-3.84,3.6c-2.64,0-4.21-2-4.21-4.72,0-2.91,1.4-5.24,4.52-5.24a3.4,3.4,0,0,1,3.53,3.44Z" transform="translate(0 0)"/></g><g class="cls-4"><path class="cls-5" d="M382.6,380.87H381v-9.42h1.49V373h0a3.06,3.06,0,0,1,2.64-1.84,1.21,1.21,0,0,1,.42.06v1.64H385a2.39,2.39,0,0,0-2.41,2.52Z" transform="translate(0 0)"/></g><g class="cls-4"><path class="cls-5" d="M386.82,369.74v-1.8h1.58v1.8Zm1.58,11.13h-1.58v-9.42h1.58Z" transform="translate(0 0)"/></g><g class="cls-4"><path class="cls-5" d="M390.59,371.45h1.5v1.34h0a3.17,3.17,0,0,1,2.81-1.61c2.51,0,3.93,2.05,3.93,4.7,0,2.25-.94,5.26-4.14,5.26a2.84,2.84,0,0,1-2.51-1.26h0v4.72h-1.59Zm4.09,8.32c1.73,0,2.54-1.57,2.54-3.64,0-1.2-.13-3.52-2.57-3.52-2.29,0-2.54,2.46-2.54,4C392.11,379.11,393.67,379.77,394.68,379.77Z" transform="translate(0 0)"/></g><g class="cls-4"><path class="cls-5" d="M402.45,372.77v6.12c0,.74.63.74,1,.74H404v1.24c-.58.05-1,.13-1.19.13-1.57,0-1.91-.89-1.91-2v-6.21h-1.28v-1.32h1.28v-2.63h1.58v2.63H404v1.32Z" transform="translate(0 0)"/></g><g class="cls-4"><path class="cls-5" d="M405.49,369.74v-1.8h1.58v1.8Zm1.58,11.13h-1.58v-9.42h1.58Z" transform="translate(0 0)"/><path class="cls-5" d="M413.28,371.18c3,0,4.38,2.54,4.38,5s-1.37,5-4.38,5-4.37-2.54-4.37-5S410.27,371.18,413.28,371.18Zm0,8.57c2.27,0,2.74-2.34,2.74-3.6s-.47-3.6-2.74-3.6-2.74,2.34-2.74,3.6S411,379.75,413.28,379.75Z" transform="translate(0 0)"/></g><g class="cls-4"><path class="cls-5" d="M427,380.87h-1.58v-5.8c0-1.64-.47-2.46-2-2.46-.9,0-2.49.57-2.49,3.13v5.13h-1.58v-9.42h1.49v1.34h0a3.41,3.41,0,0,1,2.85-1.61,3,3,0,0,1,3.29,3.28Z" transform="translate(0 0)"/></g></g><g class="cls-4"><g class="cls-4"><path class="cls-5" d="M342.19,402.77h-1.74V389.84h5.81a3.54,3.54,0,0,1,3.84,3.64,3.6,3.6,0,0,1-3.84,3.83h-4.07Zm0-6.95h3.48c1.57,0,2.63-.58,2.63-2.32s-1.12-2.16-2.56-2.16h-3.55Z" transform="translate(0 0)"/></g><g class="cls-4"><path class="cls-5" d="M355.41,393.08c3,0,4.37,2.54,4.37,5s-1.37,5-4.37,5-4.38-2.54-4.38-5S352.4,393.08,355.41,393.08Zm0,8.57c2.26,0,2.73-2.34,2.73-3.6s-.47-3.6-2.73-3.6-2.74,2.34-2.74,3.6S353.14,401.65,355.41,401.65Z" transform="translate(0 0)"/></g><g class="cls-4"><path class="cls-5" d="M364.73,402.77h-1.64l-2.72-9.42h1.73l1.8,7.4h0l1.82-7.4h1.76l1.84,7.4h0l1.91-7.4h1.59l-2.74,9.42h-1.64l-1.91-7.29h0Z" transform="translate(0 0)"/></g><g class="cls-4"><path class="cls-5" d="M382,399.82a3.92,3.92,0,0,1-4.23,3.22c-2.64,0-4.21-2-4.21-4.72,0-2.91,1.4-5.24,4.52-5.24,2.72,0,4.05,2.16,4.05,5.49h-6.88c0,2,.92,3.1,2.74,3.1a2.39,2.39,0,0,0,2.43-1.85Zm-1.51-2.51c-.09-1.45-.7-2.8-2.63-2.8a2.77,2.77,0,0,0-2.61,2.8Z" transform="translate(0 0)"/></g><g class="cls-4"><path class="cls-5" d="M385.59,402.77H384v-9.42h1.49v1.57h0a3.06,3.06,0,0,1,2.64-1.84,1.21,1.21,0,0,1,.42.06v1.64H388a2.39,2.39,0,0,0-2.41,2.52Z" transform="translate(0 0)"/></g><g class="cls-4"><path class="cls-5" d="M403.31,389.84h2l-4.72,12.93H398.7L394,389.84h1.94l3.7,11h0Z" transform="translate(0 0)"/></g><g class="cls-4"><path class="cls-5" d="M405.7,396.22c.07-2.25,1.56-3.14,3.89-3.14.75,0,3.49.22,3.49,2.63v5.42c0,.4.2.56.52.56a3.75,3.75,0,0,0,.52-.07v1.15a3,3,0,0,1-.86.18c-1.41,0-1.62-.72-1.68-1.44a4.25,4.25,0,0,1-3.4,1.53,2.71,2.71,0,0,1-2.95-2.72c0-.79.23-2.63,2.86-2.95l2.61-.33c.38,0,.83-.18.83-1.11s-.72-1.53-2.21-1.53a1.89,1.89,0,0,0-2.17,1.82Zm5.79,1.74c-.25.2-.64.35-2.61.6-.77.1-2,.34-2,1.53a1.49,1.49,0,0,0,1.71,1.64c1.47,0,2.91-1,2.91-2.22Z" transform="translate(0 0)"/></g><g class="cls-4"><path class="cls-5" d="M417.25,402.77h-1.58V389.84h1.58Z" transform="translate(0 0)"/></g><g class="cls-4"><path class="cls-5" d="M425.61,402.77V401.4l0,0a3.1,3.1,0,0,1-3,1.67,2.78,2.78,0,0,1-3.06-2.92v-6.77h1.59v6.25c0,1.55.79,2.07,1.82,2.07,2,0,2.59-1.76,2.59-3.13v-5.19h1.58v9.42Z" transform="translate(0 0)"/></g><g class="cls-4"><path class="cls-5" d="M437.37,399.82a3.92,3.92,0,0,1-4.23,3.22c-2.64,0-4.21-2-4.21-4.72,0-2.91,1.4-5.24,4.52-5.24,2.72,0,4.05,2.16,4.05,5.49h-6.88c0,2,.92,3.1,2.74,3.1a2.39,2.39,0,0,0,2.43-1.85Zm-1.51-2.51c-.09-1.45-.7-2.8-2.63-2.8a2.76,2.76,0,0,0-2.61,2.8Z" transform="translate(0 0)"/></g><g class="cls-4"><path class="cls-5" d="M448.6,389.57c-1.54,2.88-2.45,4.61-2.45,8.93,0,3,1,5.17,2.46,8h-1.06c-1.87-2.81-3.1-5.06-3.1-8.43a14.18,14.18,0,0,1,3.05-8.5Z" transform="translate(0 0)"/></g><g class="cls-4"><path class="cls-5" d="M459,389.84h2l-4.72,12.93h-1.85l-4.72-12.93h1.94l3.7,11h0Z" transform="translate(0 0)"/></g><g class="cls-4"><path class="cls-5" d="M462.07,406.5c1.53-2.88,2.45-4.61,2.45-8.93,0-3-1-5.17-2.47-8h1.06c1.88,2.81,3.1,5.06,3.1,8.43a14.23,14.23,0,0,1-3,8.5Z" transform="translate(0 0)"/></g></g><g class="cls-4"><g class="cls-4"><path class="cls-5" d="M349.34,414.36a3.36,3.36,0,0,0-3.62-2.68c-2.34,0-4.23,1.73-4.23,5.13,0,3,1.08,5.38,4.29,5.38,1.13,0,3.1-.54,3.69-3.54h1.69a5.45,5.45,0,0,1-5.65,5.09c-2.94,0-5.82-1.91-5.82-6.88,0-4,2.27-6.73,6-6.73,3.34,0,5.06,2.07,5.32,4.23Z" transform="translate(0 0)"/></g><g class="cls-4"><path class="cls-5" d="M356.87,413.71c3,0,4.37,2.54,4.37,5s-1.37,5-4.37,5-4.38-2.54-4.38-5S353.86,413.71,356.87,413.71Zm0,8.57c2.26,0,2.73-2.34,2.73-3.6s-.47-3.6-2.73-3.6-2.74,2.34-2.74,3.6S354.6,422.28,356.87,422.28Z" transform="translate(0 0)"/><path class="cls-5" d="M370.85,423.4h-1.49v-1.3h0a2.83,2.83,0,0,1-2.68,1.57c-3.21,0-4.14-3-4.14-5.26,0-2.64,1.42-4.7,3.92-4.7a3.19,3.19,0,0,1,2.81,1.61l0-.13v-4.72h1.58Zm-4.17-1.1c1,0,2.57-.66,2.57-3.17,0-1.53-.25-4-2.54-4-2.45,0-2.57,2.32-2.57,3.52C364.14,420.73,365,422.3,366.68,422.3Z" transform="translate(0 0)"/><path class="cls-5" d="M381,420.45a3.92,3.92,0,0,1-4.23,3.22c-2.65,0-4.21-2-4.21-4.72,0-2.91,1.4-5.24,4.52-5.24,2.71,0,4.05,2.16,4.05,5.49h-6.88c0,2,.92,3.1,2.74,3.1a2.4,2.4,0,0,0,2.43-1.85Zm-1.51-2.51c-.09-1.45-.7-2.8-2.63-2.8a2.76,2.76,0,0,0-2.61,2.8Z" transform="translate(0 0)"/></g></g><g class="cls-4"><g class="cls-4"><path class="cls-5" d="M348.06,435.33c-.09-2-1.74-2.63-3.2-2.63-1.1,0-2.95.31-2.95,2.27,0,1.1.77,1.46,1.53,1.64l3.69.85a3.35,3.35,0,0,1,2.93,3.45c0,3.07-2.84,3.91-5.06,3.91-2.39,0-3.33-.72-3.9-1.24a4,4,0,0,1-1.32-3.28h1.64c0,2.34,1.91,3,3.57,3,1.26,0,3.38-.33,3.38-2.18,0-1.35-.63-1.78-2.75-2.29l-2.65-.61a3.11,3.11,0,0,1-2.76-3c0-2,1.32-4,4.45-4,4.52,0,5,2.7,5,4.12Z" transform="translate(0 0)"/></g><g class="cls-4"><path class="cls-5" d="M353.93,436.38v6.12c0,.74.63.74,1,.74h.56v1.24c-.58,0-1,.13-1.19.13-1.57,0-1.91-.89-1.91-2v-6.21h-1.28v-1.32h1.28v-2.63h1.58v2.63h1.52v1.32Z" transform="translate(0 0)"/></g><g class="cls-4"><path class="cls-5" d="M356.92,437.93c.07-2.25,1.56-3.14,3.89-3.14.75,0,3.49.22,3.49,2.63v5.42c0,.4.2.56.52.56a3.75,3.75,0,0,0,.52-.07v1.15a3,3,0,0,1-.86.18c-1.41,0-1.62-.72-1.68-1.44a4.25,4.25,0,0,1-3.4,1.53,2.71,2.71,0,0,1-2.95-2.72c0-.79.23-2.63,2.86-2.95l2.61-.33c.38,0,.83-.18.83-1.11s-.72-1.53-2.21-1.53a1.88,1.88,0,0,0-2.17,1.82Zm5.79,1.74c-.25.2-.64.35-2.61.6-.77.1-2,.34-2,1.53a1.49,1.49,0,0,0,1.71,1.64c1.47,0,2.91-1,2.91-2.22Z" transform="translate(0 0)"/></g><g class="cls-4"><path class="cls-5" d="M368.6,436.38v6.12c0,.74.64.74,1,.74h.56v1.24c-.58,0-1,.13-1.19.13-1.57,0-1.91-.89-1.91-2v-6.21h-1.28v-1.32H367v-2.63h1.58v2.63h1.52v1.32Z" transform="translate(0 0)"/></g><g class="cls-4"><path class="cls-5" d="M379.36,441.53a3.92,3.92,0,0,1-4.23,3.22c-2.64,0-4.21-2-4.21-4.72,0-2.91,1.4-5.24,4.52-5.24,2.72,0,4.05,2.16,4.05,5.49h-6.88c0,2,.92,3.1,2.74,3.1a2.39,2.39,0,0,0,2.43-1.85ZM377.85,439c-.09-1.45-.7-2.8-2.63-2.8a2.77,2.77,0,0,0-2.61,2.8Z" transform="translate(0 0)"/></g></g><g class="cls-4"><g class="cls-4"><path class="cls-5" d="M303.19,349.79V348h1.58v1.8Zm1.58,11.13h-1.58V351.5h1.58Z" transform="translate(0 0)"/></g><g class="cls-4"><path class="cls-5" d="M314.69,360.92h-1.58v-5.8c0-1.64-.47-2.47-2-2.47-.9,0-2.49.58-2.49,3.14v5.13H307V351.5h1.5v1.34h0a3.41,3.41,0,0,1,2.85-1.61,3,3,0,0,1,3.29,3.28Z" transform="translate(0 0)"/></g><g class="cls-4"><path class="cls-5" d="M318.75,352.82v6.12c0,.74.64.74,1,.74h.56v1.24c-.58.05-1,.13-1.19.13-1.57,0-1.91-.89-1.91-2v-6.21h-1.28V351.5h1.28v-2.63h1.58v2.63h1.52v1.32Z" transform="translate(0 0)"/></g></g><g class="cls-4"><g class="cls-4"><path class="cls-5" d="M283.77,374.61c0-.6-.24-1.59-2.23-1.59-.49,0-1.88.16-1.88,1.33,0,.78.49,1,1.71,1.26l1.59.4c2,.49,2.64,1.21,2.64,2.49,0,1.94-1.6,3.11-3.72,3.11-3.73,0-4-2.16-4.05-3.29h1.53c.05.73.27,1.92,2.5,1.92,1.13,0,2.16-.45,2.16-1.49,0-.76-.52-1-1.87-1.35l-1.84-.45c-1.31-.33-2.18-1-2.18-2.29,0-2.07,1.71-3,3.57-3,3.36,0,3.6,2.49,3.6,3Z" transform="translate(0 0)"/></g><g class="cls-4"><path class="cls-5" d="M289.23,373.24v6.12c0,.74.64.74,1,.74h.56v1.24c-.58.05-1,.13-1.19.13-1.57,0-1.91-.89-1.91-2v-6.21h-1.28v-1.32h1.28v-2.63h1.58v2.63h1.52v1.32Z" transform="translate(0 0)"/></g><g class="cls-4"><path class="cls-5" d="M293.92,381.34h-1.58v-9.42h1.49v1.57h0a3.06,3.06,0,0,1,2.64-1.84,1.21,1.21,0,0,1,.42.06v1.64h-.6a2.39,2.39,0,0,0-2.41,2.52Z" transform="translate(0 0)"/></g><g class="cls-4"><path class="cls-5" d="M298.13,370.21v-1.8h1.58v1.8Zm1.58,11.13h-1.58v-9.42h1.58Z" transform="translate(0 0)"/></g><g class="cls-4"><path class="cls-5" d="M309.65,381.34h-1.58v-5.8c0-1.64-.47-2.46-2-2.46-.9,0-2.49.57-2.49,3.13v5.13H302v-9.42h1.5v1.34h0a3.41,3.41,0,0,1,2.85-1.61,3,3,0,0,1,3.29,3.28Z" transform="translate(0 0)"/></g><g class="cls-4"><path class="cls-5" d="M319.71,380.57c0,1.35,0,4.73-4.37,4.73-1.12,0-3.3-.3-3.6-2.81h1.58a1.94,1.94,0,0,0,2.13,1.5c2.73,0,2.68-2.2,2.68-3.32v-.39h0v.07a2.81,2.81,0,0,1-2.5,1.26c-3.2,0-4.14-3-4.14-5.26,0-2.64,1.42-4.7,3.93-4.7a3.16,3.16,0,0,1,2.8,1.61h0v-1.34h1.49Zm-4.08-.33c1,0,2.57-.66,2.57-3.17,0-1.53-.25-4-2.54-4-2.45,0-2.57,2.32-2.57,3.53C313.09,378.68,313.9,380.24,315.63,380.24Z" transform="translate(0 0)"/></g></g><g class="cls-4"><g class="cls-4"><path class="cls-5" d="M290.48,395.14v8.1H288.9v-8.1h-1.3v-1.32h1.3V392.2c0-1.42.9-2.07,2.45-2.07.23,0,.47,0,.72,0v1.42c-.2,0-.45,0-.65,0-.69,0-.94.35-.94,1.1v1.17h1.59v1.32Z" transform="translate(0 0)"/></g><g class="cls-4"><path class="cls-5" d="M295,403.24H293.4V390.31H295Z" transform="translate(0 0)"/></g><g class="cls-4"><path class="cls-5" d="M301.14,393.55c3,0,4.37,2.54,4.37,5s-1.37,5-4.37,5-4.38-2.54-4.38-5S298.13,393.55,301.14,393.55Zm0,8.57c2.26,0,2.73-2.34,2.73-3.6s-.47-3.6-2.73-3.6-2.74,2.34-2.74,3.6S298.87,402.12,301.14,402.12Z" transform="translate(0 0)"/></g><g class="cls-4"><path class="cls-5" d="M307.15,396.69c.07-2.25,1.56-3.14,3.89-3.14.75,0,3.49.22,3.49,2.63v5.42c0,.4.2.56.52.56a3.75,3.75,0,0,0,.52-.07v1.15a3,3,0,0,1-.86.18c-1.41,0-1.62-.72-1.68-1.44a4.25,4.25,0,0,1-3.4,1.53,2.71,2.71,0,0,1-2.95-2.72c0-.79.23-2.63,2.86-3l2.61-.33c.38,0,.83-.18.83-1.11s-.72-1.53-2.21-1.53a1.88,1.88,0,0,0-2.17,1.82Zm5.79,1.74c-.25.2-.64.35-2.61.6-.77.1-2,.34-2,1.53A1.49,1.49,0,0,0,310,402.2c1.47,0,2.91-1,2.91-2.22Z" transform="translate(0 0)"/></g><g class="cls-4"><path class="cls-5" d="M318.83,395.14v6.12c0,.74.64.74,1,.74h.56v1.24c-.58.05-1,.13-1.19.13-1.57,0-1.91-.89-1.91-2v-6.21H316v-1.32h1.28v-2.63h1.58v2.63h1.52v1.32Z" transform="translate(0 0)"/></g></g><g class="cls-4"><g class="cls-4"><path class="cls-5" d="M283.77,417.14c0-.6-.24-1.59-2.23-1.59-.49,0-1.88.16-1.88,1.33,0,.78.49,1,1.71,1.26l1.59.4c2,.49,2.64,1.21,2.64,2.49,0,1.94-1.6,3.11-3.72,3.11-3.73,0-4-2.16-4.05-3.3h1.53c.05.74.27,1.93,2.5,1.93,1.13,0,2.16-.45,2.16-1.49,0-.76-.52-1-1.87-1.35l-1.84-.45c-1.31-.33-2.18-1-2.18-2.29,0-2.07,1.71-3,3.57-3,3.36,0,3.6,2.49,3.6,3Z" transform="translate(0 0)"/></g><g class="cls-4"><path class="cls-5" d="M289.23,415.77v6.12c0,.74.64.74,1,.74h.56v1.24c-.58.05-1,.13-1.19.13-1.57,0-1.91-.89-1.91-2v-6.21h-1.28v-1.32h1.28v-2.63h1.58v2.63h1.52v1.32Z" transform="translate(0 0)"/></g><g class="cls-4"><path class="cls-5" d="M293.92,423.87h-1.58v-9.42h1.49V416h0a3.06,3.06,0,0,1,2.64-1.84,1.21,1.21,0,0,1,.42.06v1.64h-.6a2.39,2.39,0,0,0-2.41,2.52Z" transform="translate(0 0)"/></g><g class="cls-4"><path class="cls-5" d="M298.13,412.74v-1.8h1.58v1.8Zm1.58,11.13h-1.58v-9.42h1.58Z" transform="translate(0 0)"/></g><g class="cls-4"><path class="cls-5" d="M309.65,423.87h-1.58v-5.8c0-1.64-.47-2.46-2-2.46-.9,0-2.49.57-2.49,3.13v5.13H302v-9.42h1.5v1.34h0a3.41,3.41,0,0,1,2.85-1.61,3,3,0,0,1,3.29,3.28Z" transform="translate(0 0)"/></g><g class="cls-4"><path class="cls-5" d="M319.71,423.1c0,1.35,0,4.73-4.37,4.73-1.12,0-3.3-.3-3.6-2.81h1.58a1.94,1.94,0,0,0,2.13,1.5c2.73,0,2.68-2.2,2.68-3.32v-.39h0v.07a2.81,2.81,0,0,1-2.5,1.26c-3.2,0-4.14-3-4.14-5.26,0-2.65,1.42-4.7,3.93-4.7a3.14,3.14,0,0,1,2.8,1.61h0v-1.34h1.49Zm-4.08-.33c1,0,2.57-.66,2.57-3.17,0-1.53-.25-4-2.54-4-2.45,0-2.57,2.32-2.57,3.52C313.09,421.2,313.9,422.77,315.63,422.77Z" transform="translate(0 0)"/></g></g><g class="cls-4"><g class="cls-4"><path class="cls-5" d="M287.81,445V432h1.59v4.7h0a3.21,3.21,0,0,1,2.71-1.46c2.51,0,3.93,2.06,3.93,4.7,0,2.25-.94,5.26-4.14,5.26a2.83,2.83,0,0,1-2.6-1.44h0V445Zm4.06-8.26c-2.29,0-2.54,2.46-2.54,4,0,2.51,1.56,3.17,2.57,3.17,1.73,0,2.54-1.57,2.54-3.64C294.44,439,294.31,436.69,291.87,436.69Z" transform="translate(0 0)"/><path class="cls-5" d="M301.78,435.26c3,0,4.38,2.54,4.38,5s-1.37,5-4.38,5-4.37-2.54-4.37-5S298.78,435.26,301.78,435.26Zm0,8.57c2.27,0,2.74-2.34,2.74-3.6s-.47-3.6-2.74-3.6-2.73,2.34-2.73,3.6S299.51,443.83,301.78,443.83Z" transform="translate(0 0)"/></g><g class="cls-4"><path class="cls-5" d="M311.76,435.26c3,0,4.37,2.54,4.37,5s-1.37,5-4.37,5-4.38-2.54-4.38-5S308.75,435.26,311.76,435.26Zm0,8.57c2.26,0,2.73-2.34,2.73-3.6s-.47-3.6-2.73-3.6S309,439,309,440.23,309.49,443.83,311.76,443.83Z" transform="translate(0 0)"/></g><g class="cls-4"><path class="cls-5" d="M319.49,445h-1.58V432h1.58Z" transform="translate(0 0)"/></g></g><line class="cls-3" x1="330.14" y1="445.37" x2="330.14" y2="347.38"/><g class="cls-4"><g class="cls-4"><path class="cls-5" d="M252.94,307.85a3.36,3.36,0,0,0-3.62-2.68c-2.34,0-4.23,1.73-4.23,5.13,0,3,1.08,5.38,4.29,5.38,1.13,0,3.1-.54,3.69-3.54h1.69a5.45,5.45,0,0,1-5.65,5.09c-2.94,0-5.82-1.91-5.82-6.88,0-4,2.27-6.73,6-6.73,3.34,0,5.06,2.07,5.32,4.23Z" transform="translate(0 0)"/></g><g class="cls-4"><path class="cls-5" d="M258.16,316.89h-1.58V304h1.58Z" transform="translate(0 0)"/></g><g class="cls-4"><path class="cls-5" d="M260.38,310.34c.07-2.25,1.56-3.14,3.89-3.14.75,0,3.49.22,3.49,2.63v5.42c0,.4.2.56.52.56a3.75,3.75,0,0,0,.52-.07v1.15a3,3,0,0,1-.86.18c-1.41,0-1.62-.72-1.68-1.44a4.25,4.25,0,0,1-3.4,1.53,2.71,2.71,0,0,1-2.95-2.72c0-.79.23-2.63,2.86-2.95l2.61-.33c.38,0,.83-.18.83-1.11s-.72-1.53-2.21-1.53a1.89,1.89,0,0,0-2.17,1.82Zm5.79,1.74c-.25.2-.64.35-2.61.6-.77.1-2,.34-2,1.53a1.49,1.49,0,0,0,1.71,1.64c1.47,0,2.91-1,2.91-2.22Z" transform="translate(0 0)"/></g><g class="cls-4"><path class="cls-5" d="M275.7,310.16c0-.6-.24-1.59-2.23-1.59-.49,0-1.88.16-1.88,1.33,0,.78.49,1,1.71,1.26l1.59.4c2,.49,2.64,1.21,2.64,2.49,0,1.94-1.6,3.11-3.72,3.11-3.73,0-4-2.16-4.05-3.3h1.53c0,.74.27,1.93,2.5,1.93,1.13,0,2.16-.45,2.16-1.49,0-.76-.52-1-1.87-1.35l-1.84-.45c-1.31-.33-2.18-1-2.18-2.29,0-2.07,1.71-3,3.57-3,3.36,0,3.6,2.49,3.6,3Z" transform="translate(0 0)"/></g><g class="cls-4"><path class="cls-5" d="M284.7,310.16c0-.6-.24-1.59-2.23-1.59-.49,0-1.88.16-1.88,1.33,0,.78.49,1,1.71,1.26l1.59.4c2,.49,2.64,1.21,2.64,2.49,0,1.94-1.6,3.11-3.72,3.11-3.73,0-4-2.16-4.05-3.3h1.53c0,.74.27,1.93,2.5,1.93,1.13,0,2.16-.45,2.16-1.49,0-.76-.52-1-1.87-1.35l-1.84-.45c-1.31-.33-2.18-1-2.18-2.29,0-2.07,1.71-3,3.57-3,3.36,0,3.6,2.49,3.6,3Z" transform="translate(0 0)"/></g><g class="cls-4"><path class="cls-5" d="M296.23,313.94a3.92,3.92,0,0,1-4.23,3.22c-2.64,0-4.21-2-4.21-4.72,0-2.91,1.4-5.24,4.52-5.24,2.72,0,4.05,2.16,4.05,5.49h-6.88c0,2,.92,3.1,2.74,3.1a2.39,2.39,0,0,0,2.43-1.85Zm-1.51-2.51c-.09-1.45-.7-2.8-2.63-2.8a2.76,2.76,0,0,0-2.61,2.8Z" transform="translate(0 0)"/></g><g class="cls-4"><path class="cls-5" d="M303.52,310.16c0-.6-.24-1.59-2.23-1.59-.49,0-1.88.16-1.88,1.33,0,.78.49,1,1.71,1.26l1.59.4c2,.49,2.64,1.21,2.64,2.49,0,1.94-1.6,3.11-3.72,3.11-3.73,0-4-2.16-4.05-3.3h1.53c.05.74.27,1.93,2.5,1.93,1.13,0,2.16-.45,2.16-1.49,0-.76-.52-1-1.87-1.35l-1.84-.45c-1.31-.33-2.18-1-2.18-2.29,0-2.07,1.71-3,3.57-3,3.36,0,3.6,2.49,3.6,3Z" transform="translate(0 0)"/></g><g class="cls-4"><path class="cls-5" d="M308.92,309.51h-1.87V307.6h1.87Zm0,7.38h-1.87V315h1.87Z" transform="translate(0 0)"/></g></g></svg>