<svg id="Capa_1" data-name="Capa 1" xmlns="http://www.w3.org/2000/svg" viewBox="0 0 794.29 136.14"><defs><style>.cls-1{isolation:isolate;}.cls-2{fill:#2b4c9b;}.cls-3{fill:#c04c96;}.cls-4{fill:#eb5f61;}.cls-5{fill:#ebac1b;}.cls-6{fill:none;stroke:#1d1d1b;stroke-width:1.5px;}.cls-7{fill:#1d1d1b;}.cls-8{fill:#3cae62;}.cls-9{fill:#0295ad;}</style></defs><g class="cls-1"><g class="cls-1"><path class="cls-2" d="M13.31,2.32V12c0,3-1.9,5.6-6,5.6S1.63,15,1.63,12.22V2.32h2v9.34c0,3.23,2,4.11,3.76,4.11s3.91-.84,3.91-4.07V2.32Z" transform="translate(0 -1.92)"/></g><g class="cls-1"><path class="cls-2" d="M26.15,2.32h2V17.16H25.84l-7.54-12h-.05v12H16.31V2.32h2.38l7.42,12h0Z" transform="translate(0 -1.92)"/></g><g class="cls-1"><path class="cls-2" d="M31.17,2.32h6c3.87,0,6.25,2.93,6.25,7.21,0,3.33-1.45,7.63-6.33,7.63H31.17Zm2,13.12h3.89c2.6,0,4.3-2,4.3-5.79S39.65,4,36.92,4H33.18Z" transform="translate(0 -1.92)"/></g><g class="cls-1"><path class="cls-2" d="M56.9,17.16h-11V2.32H56.75V4.09H47.94V8.64h8.13v1.78H47.94v5h9Z" transform="translate(0 -1.92)"/></g><g class="cls-1"><path class="cls-2" d="M61.18,17.16h-2V2.32H66c2.44,0,4.88.84,4.88,4a3.65,3.65,0,0,1-2.06,3.55c.84.35,1.69.72,1.77,2.79l.13,2.69c0,.83.12,1.14.74,1.49v.33H69a18.13,18.13,0,0,1-.35-3.72c0-1.22-.25-2.65-2.65-2.65H61.18Zm0-8.08h4.65c1.46,0,3-.38,3-2.57S67.17,4,66.18,4h-5Z" transform="translate(0 -1.92)"/></g><g class="cls-1"><path class="cls-2" d="M82.47,6.66c-.1-2.3-2-3-3.68-3-1.26,0-3.39.35-3.39,2.6,0,1.26.89,1.68,1.76,1.88l4.24,1c1.92.45,3.37,1.61,3.37,4,0,3.51-3.27,4.48-5.81,4.48-2.75,0-3.83-.82-4.49-1.42A4.58,4.58,0,0,1,73,12.36h1.88c0,2.69,2.2,3.48,4.1,3.48,1.45,0,3.89-.38,3.89-2.51,0-1.55-.73-2-3.17-2.62l-3-.7a3.58,3.58,0,0,1-3.16-3.5c0-2.31,1.51-4.59,5.11-4.59,5.19,0,5.7,3.1,5.79,4.74Z" transform="translate(0 -1.92)"/></g><g class="cls-1"><path class="cls-2" d="M85.62,2.32h12V4.09h-5V17.16h-2V4.09h-5Z" transform="translate(0 -1.92)"/></g><g class="cls-1"><path class="cls-2" d="M99.8,12.84l-1.55,4.32H96.18l5.58-14.84H104l5.37,14.84h-2.19l-1.47-4.32ZM105,11.06l-2.19-6.53h0l-2.38,6.53Z" transform="translate(0 -1.92)"/></g><g class="cls-1"><path class="cls-2" d="M120.87,2.32h1.95V17.16h-2.26L113,5.17h0v12H111V2.32h2.38l7.42,12h0Z" transform="translate(0 -1.92)"/></g><g class="cls-1"><path class="cls-2" d="M125.9,2.32h6c3.87,0,6.25,2.93,6.25,7.21,0,3.33-1.45,7.63-6.33,7.63H125.9Zm2,13.12h3.89c2.6,0,4.3-2,4.3-5.79S134.37,4,131.64,4H127.9Z" transform="translate(0 -1.92)"/></g></g><g class="cls-1"><g class="cls-1"><path class="cls-3" d="M191.64,17.55c-5.54,0-7.23-4.61-7.23-7.81s1.69-7.82,7.23-7.82,7.24,4.61,7.24,7.82S197.18,17.55,191.64,17.55Zm0-13.85c-3.22,0-5.17,2.54-5.17,6s1.95,6,5.17,6,5.17-2.54,5.17-6S194.87,3.7,191.64,3.7Z" transform="translate(0 -1.92)"/></g><g class="cls-1"><path class="cls-3" d="M201.13,2.32h6.53c2.77,0,4.2,1.71,4.2,3.74a3.27,3.27,0,0,1-2,3.1,3.57,3.57,0,0,1,2.68,3.62c0,2.37-1.75,4.38-5,4.38h-6.39Zm2,6.28h3.61c1.93,0,3.1-.58,3.1-2.4,0-1.38-.84-2.17-3.08-2.17h-3.63Zm0,6.84h4.28c2.08,0,3.14-1,3.14-2.71,0-2.08-1.84-2.5-3.48-2.5h-3.94Z" transform="translate(0 -1.92)"/></g><g class="cls-1"><path class="cls-3" d="M223.69,6.66c-.1-2.3-2-3-3.68-3-1.26,0-3.39.35-3.39,2.6,0,1.26.89,1.68,1.76,1.88l4.24,1c1.92.45,3.37,1.61,3.37,4,0,3.51-3.27,4.48-5.81,4.48-2.75,0-3.83-.82-4.49-1.42a4.58,4.58,0,0,1-1.51-3.77h1.88c0,2.69,2.2,3.48,4.1,3.48,1.45,0,3.89-.38,3.89-2.51,0-1.55-.73-2-3.17-2.62l-3-.7a3.58,3.58,0,0,1-3.16-3.5c0-2.31,1.51-4.59,5.11-4.59,5.19,0,5.7,3.1,5.79,4.74Z" transform="translate(0 -1.92)"/></g><g class="cls-1"><path class="cls-3" d="M239.43,17.16h-11V2.32h10.81V4.09h-8.81V8.64h8.13v1.78h-8.13v5h9Z" transform="translate(0 -1.92)"/></g><g class="cls-1"><path class="cls-3" d="M243.71,17.16h-2V2.32h6.86c2.44,0,4.88.84,4.88,4a3.65,3.65,0,0,1-2.06,3.55c.84.35,1.69.72,1.77,2.79l.13,2.69c0,.83.12,1.14.74,1.49v.33h-2.46a18.13,18.13,0,0,1-.35-3.72c0-1.22-.25-2.65-2.65-2.65h-4.85Zm0-8.08h4.65c1.46,0,3-.38,3-2.57S249.7,4,248.71,4h-5Z" transform="translate(0 -1.92)"/></g><g class="cls-1"><path class="cls-3" d="M265.24,2.32h2.26l-5.42,14.84H260L254.53,2.32h2.24L261,15h.05Z" transform="translate(0 -1.92)"/></g><g class="cls-1"><path class="cls-3" d="M280.24,17.16h-11V2.32h10.81V4.09h-8.81V8.64h8.13v1.78h-8.13v5h9Z" transform="translate(0 -1.92)"/></g></g><g class="cls-1"><g class="cls-1"><path class="cls-4" d="M328.77,17.16h-2V2.32h2Z" transform="translate(0 -1.92)"/></g><g class="cls-1"><path class="cls-4" d="M331.93,2.32h6c3.87,0,6.25,2.93,6.25,7.21,0,3.33-1.45,7.63-6.33,7.63h-5.94Zm2,13.12h3.89c2.6,0,4.3-2,4.3-5.79S340.41,4,337.68,4h-3.74Z" transform="translate(0 -1.92)"/></g><g class="cls-1"><path class="cls-4" d="M357.65,17.16h-11V2.32H357.5V4.09h-8.81V8.64h8.13v1.78h-8.13v5h9Z" transform="translate(0 -1.92)"/></g><g class="cls-1"><path class="cls-4" d="M362.62,12.84l-1.55,4.32H359l5.58-14.84h2.28l5.37,14.84H370l-1.47-4.32Zm5.23-1.78-2.19-6.53h0l-2.38,6.53Z" transform="translate(0 -1.92)"/></g><g class="cls-1"><path class="cls-4" d="M370.84,2.32h12.05V4.09h-5V17.16h-2V4.09h-5Z" transform="translate(0 -1.92)"/></g><g class="cls-1"><path class="cls-4" d="M395.57,17.16h-11V2.32h10.81V4.09h-8.81V8.64h8.13v1.78h-8.13v5h9Z" transform="translate(0 -1.92)"/></g></g><g class="cls-1"><g class="cls-1"><path class="cls-5" d="M441.38,17.16h-2V2.32h6.68a4,4,0,0,1,4.4,4.17,4.14,4.14,0,0,1-4.4,4.41h-4.68Zm0-8h4c1.8,0,3-.66,3-2.67S447.11,4,445.46,4h-4.08Z" transform="translate(0 -1.92)"/></g><g class="cls-1"><path class="cls-5" d="M454.52,17.16h-2V2.32h6.86c2.44,0,4.88.84,4.88,4a3.65,3.65,0,0,1-2.06,3.55c.84.35,1.69.72,1.77,2.79l.13,2.69c0,.83.12,1.14.74,1.49v.33h-2.46a18.13,18.13,0,0,1-.35-3.72c0-1.22-.25-2.65-2.65-2.65h-4.85Zm0-8.08h4.65c1.46,0,3-.38,3-2.57S460.51,4,459.52,4h-5Z" transform="translate(0 -1.92)"/></g><g class="cls-1"><path class="cls-5" d="M473.37,17.55c-5.54,0-7.23-4.61-7.23-7.81s1.69-7.82,7.23-7.82,7.24,4.61,7.24,7.82S478.91,17.55,473.37,17.55Zm0-13.85c-3.22,0-5.17,2.54-5.17,6s1.95,6,5.17,6,5.17-2.54,5.17-6S476.6,3.7,473.37,3.7Z" transform="translate(0 -1.92)"/></g><g class="cls-1"><path class="cls-5" d="M481,2.32h12V4.09h-5V17.16h-2V4.09h-5Z" transform="translate(0 -1.92)"/></g><g class="cls-1"><path class="cls-5" d="M500.66,17.55c-5.54,0-7.23-4.61-7.23-7.81s1.69-7.82,7.23-7.82,7.24,4.61,7.24,7.82S506.2,17.55,500.66,17.55Zm0-13.85c-3.22,0-5.17,2.54-5.17,6s1.95,6,5.17,6,5.17-2.54,5.17-6S503.89,3.7,500.66,3.7Z" transform="translate(0 -1.92)"/></g><g class="cls-1"><path class="cls-5" d="M508.27,2.32h12.05V4.09h-5V17.16h-2V4.09h-5Z" transform="translate(0 -1.92)"/></g><g class="cls-1"><path class="cls-5" d="M528.91,17.16h-2v-6l-5.6-8.86h2.34l4.25,7.13,4.26-7.13h2.36l-5.6,8.86Z" transform="translate(0 -1.92)"/></g><g class="cls-1"><path class="cls-5" d="M538.22,17.16h-2V2.32h6.68a4,4,0,0,1,4.4,4.17,4.14,4.14,0,0,1-4.4,4.41h-4.68Zm0-8h4c1.8,0,3-.66,3-2.67S544,4,542.3,4h-4.08Z" transform="translate(0 -1.92)"/></g><g class="cls-1"><path class="cls-5" d="M560.29,17.16h-11V2.32h10.81V4.09h-8.81V8.64h8.13v1.78h-8.13v5h9Z" transform="translate(0 -1.92)"/></g></g><line class="cls-6" y1="28.33" x2="793.19" y2="28.33"/><polyline class="cls-6" points="790.06 25.42 793.19 28.33 790.06 31.24"/><g class="cls-1"><g class="cls-1"><path class="cls-7" d="M114.67,51.16h-1.2V42.25h1.2Z" transform="translate(0 -1.92)"/></g><g class="cls-1"><path class="cls-7" d="M121.73,51.16h-1.09v-4c0-1.13-.32-1.7-1.39-1.7-.62,0-1.71.39-1.71,2.15v3.54h-1.09V44.67h1v.92h0a2.35,2.35,0,0,1,2-1.1,2,2,0,0,1,2.27,2.25Z" transform="translate(0 -1.92)"/></g><g class="cls-1"><path class="cls-7" d="M127,46.52c0-.41-.16-1.09-1.54-1.09-.33,0-1.29.11-1.29.92,0,.53.34.65,1.18.86l1.09.28c1.35.33,1.83.83,1.83,1.71,0,1.34-1.11,2.15-2.57,2.15-2.57,0-2.76-1.49-2.79-2.27h1c0,.5.19,1.32,1.73,1.32.78,0,1.48-.31,1.48-1,0-.52-.36-.69-1.29-.93l-1.26-.31c-.91-.22-1.5-.68-1.5-1.57,0-1.43,1.18-2.07,2.45-2.07,2.32,0,2.49,1.71,2.49,2Z" transform="translate(0 -1.92)"/></g><g class="cls-1"><path class="cls-7" d="M129.41,44.67h1v.92h0a2.2,2.2,0,0,1,1.94-1.1c1.72,0,2.7,1.41,2.7,3.23,0,1.55-.64,3.63-2.85,3.63a1.93,1.93,0,0,1-1.72-.87h0v3.25h-1.09Zm2.82,5.73c1.19,0,1.74-1.08,1.74-2.5,0-.83-.08-2.43-1.77-2.43s-1.75,1.7-1.75,2.75C130.45,49.94,131.53,50.4,132.23,50.4Z" transform="translate(0 -1.92)"/></g><g class="cls-1"><path class="cls-7" d="M136.38,43.49V42.25h1.09v1.24Zm1.09,7.67h-1.09V44.67h1.09Z" transform="translate(0 -1.92)"/></g><g class="cls-1"><path class="cls-7" d="M140.19,51.16H139.1V44.67h1v1.08h0A2.09,2.09,0,0,1,142,44.49a1.12,1.12,0,0,1,.29,0v1.13h-.41a1.65,1.65,0,0,0-1.66,1.74Z" transform="translate(0 -1.92)"/></g><g class="cls-1"><path class="cls-7" d="M143,46.64c.05-1.55,1.08-2.15,2.68-2.15.52,0,2.41.14,2.41,1.81V50c0,.27.13.39.36.39a2.67,2.67,0,0,0,.35-.05v.79a1.92,1.92,0,0,1-.59.12c-1,0-1.12-.49-1.15-1a3,3,0,0,1-2.35,1.06,1.87,1.87,0,0,1-2-1.88,2,2,0,0,1,2-2l1.8-.23c.26,0,.57-.12.57-.76s-.5-1.06-1.53-1.06A1.3,1.3,0,0,0,144,46.64Zm4,1.21c-.17.13-.44.23-1.79.41-.54.07-1.39.23-1.39,1.05A1,1,0,0,0,145,50.44c1,0,2-.66,2-1.53Z" transform="translate(0 -1.92)"/></g><g class="cls-1"><path class="cls-7" d="M151.06,45.58V49.8c0,.5.43.5.65.5h.39v.86c-.4,0-.71.09-.82.09-1.08,0-1.32-.61-1.32-1.39V45.58h-.88v-.91H150V42.86h1.1v1.81h1v.91Z" transform="translate(0 -1.92)"/><path class="cls-7" d="M153.19,43.49V42.25h1.09v1.24Zm1.09,7.67h-1.09V44.67h1.09Z" transform="translate(0 -1.92)"/><path class="cls-7" d="M158.56,44.49c2.08,0,3,1.74,3,3.42s-.94,3.42-3,3.42-3-1.75-3-3.42S156.49,44.49,158.56,44.49Zm0,5.9c1.57,0,1.89-1.61,1.89-2.48s-.32-2.48-1.89-2.48-1.88,1.61-1.88,2.48S157,50.39,158.56,50.39Z" transform="translate(0 -1.92)"/></g><g class="cls-1"><path class="cls-7" d="M168,51.16H166.9v-4c0-1.13-.32-1.7-1.39-1.7-.62,0-1.71.39-1.71,2.15v3.54h-1.09V44.67h1v.92h0a2.35,2.35,0,0,1,2-1.1A2,2,0,0,1,168,46.74Z" transform="translate(0 -1.92)"/></g></g><g class="cls-1"><g class="cls-1"><path class="cls-7" d="M319.62,44.93a2.33,2.33,0,0,0-2.5-1.85c-1.61,0-2.91,1.2-2.91,3.54,0,2.1.74,3.71,3,3.71.78,0,2.13-.37,2.54-2.45h1.17A3.77,3.77,0,0,1,317,51.4c-2,0-4-1.32-4-4.74,0-2.75,1.56-4.64,4.15-4.64a3.36,3.36,0,0,1,3.66,2.91Z" transform="translate(0 -1.92)"/></g><g class="cls-1"><path class="cls-7" d="M324.8,44.49c2.07,0,3,1.74,3,3.42s-.94,3.42-3,3.42-3-1.75-3-3.42S322.73,44.49,324.8,44.49Zm0,5.9c1.56,0,1.88-1.61,1.88-2.48s-.32-2.48-1.88-2.48-1.89,1.61-1.89,2.48S323.24,50.39,324.8,50.39Z" transform="translate(0 -1.92)"/></g><g class="cls-1"><path class="cls-7" d="M334.3,51.16h-1.09v-4c0-1.13-.32-1.7-1.39-1.7-.62,0-1.71.39-1.71,2.15v3.54H329V44.67h1v.92h0a2.35,2.35,0,0,1,2-1.1,2,2,0,0,1,2.27,2.25Z" transform="translate(0 -1.92)"/><path class="cls-7" d="M340,46.86a1.44,1.44,0,0,0-1.54-1.39c-1.35,0-1.78,1.29-1.78,2.44s.27,2.49,1.77,2.49A1.64,1.64,0,0,0,340,48.86H341a2.58,2.58,0,0,1-2.65,2.49c-1.82,0-2.9-1.38-2.9-3.25s1-3.61,3.12-3.61A2.34,2.34,0,0,1,341,46.86Z" transform="translate(0 -1.92)"/></g><g class="cls-1"><path class="cls-7" d="M347.62,49.13a2.7,2.7,0,0,1-2.91,2.22c-1.82,0-2.9-1.38-2.9-3.25s1-3.61,3.11-3.61c1.87,0,2.79,1.48,2.79,3.78H343c0,1.35.63,2.13,1.89,2.13a1.63,1.63,0,0,0,1.67-1.27Zm-1-1.73c-.06-1-.48-1.93-1.81-1.93A1.91,1.91,0,0,0,343,47.4Z" transform="translate(0 -1.92)"/></g><g class="cls-1"><path class="cls-7" d="M348.9,44.67h1v.92h0a2.2,2.2,0,0,1,1.94-1.1c1.72,0,2.7,1.41,2.7,3.23,0,1.55-.64,3.63-2.85,3.63a1.93,1.93,0,0,1-1.72-.87h0v3.25H348.9Zm2.82,5.73c1.19,0,1.74-1.08,1.74-2.5,0-.83-.08-2.43-1.77-2.43s-1.75,1.7-1.75,2.75C349.94,49.94,351,50.4,351.72,50.4Z" transform="translate(0 -1.92)"/><path class="cls-7" d="M357.11,45.58V49.8c0,.5.44.5.66.5h.39v.86c-.4,0-.71.09-.82.09-1.08,0-1.32-.61-1.32-1.39V45.58h-.88v-.91H356V42.86h1.09v1.81h1.05v.91Z" transform="translate(0 -1.92)"/></g><g class="cls-1"><path class="cls-7" d="M363.27,51.16v-.94l0,0a2.14,2.14,0,0,1-2.06,1.16,1.92,1.92,0,0,1-2.11-2V44.67h1.1V49c0,1.06.54,1.42,1.25,1.42,1.38,0,1.78-1.21,1.78-2.16V44.67h1.1v6.49Z" transform="translate(0 -1.92)"/></g><g class="cls-1"><path class="cls-7" d="M365.85,46.64c0-1.55,1.08-2.15,2.68-2.15.52,0,2.41.14,2.41,1.81V50c0,.27.13.39.36.39a2.67,2.67,0,0,0,.35-.05v.79a1.92,1.92,0,0,1-.59.12c-1,0-1.12-.49-1.15-1a3,3,0,0,1-2.35,1.06,1.87,1.87,0,0,1-2-1.88,2,2,0,0,1,2-2l1.8-.23c.26,0,.57-.12.57-.76s-.5-1.06-1.53-1.06a1.3,1.3,0,0,0-1.49,1.25Zm4,1.21c-.17.13-.44.23-1.8.41-.53.07-1.38.23-1.38,1.05a1,1,0,0,0,1.17,1.13c1,0,2-.66,2-1.53Z" transform="translate(0 -1.92)"/></g><g class="cls-1"><path class="cls-7" d="M373.81,51.16h-1.09V42.25h1.09Z" transform="translate(0 -1.92)"/></g><g class="cls-1"><path class="cls-7" d="M375.38,43.49V42.25h1.09v1.24Zm1.09,7.67h-1.09V44.67h1.09Z" transform="translate(0 -1.92)"/></g><g class="cls-1"><path class="cls-7" d="M378.94,50.25h4v.91h-5.44V50.3l3.91-4.72h-3.61v-.91h5v.9Z" transform="translate(0 -1.92)"/></g><g class="cls-1"><path class="cls-7" d="M384,46.64c0-1.55,1.08-2.15,2.68-2.15.52,0,2.41.14,2.41,1.81V50c0,.27.13.39.36.39a2.67,2.67,0,0,0,.35-.05v.79a1.92,1.92,0,0,1-.59.12c-1,0-1.12-.49-1.15-1a3,3,0,0,1-2.35,1.06,1.87,1.87,0,0,1-2-1.88,2,2,0,0,1,2-2l1.8-.23c.26,0,.57-.12.57-.76s-.5-1.06-1.53-1.06A1.3,1.3,0,0,0,385,46.64Zm4,1.21c-.17.13-.44.23-1.8.41-.53.07-1.38.23-1.38,1.05A1,1,0,0,0,386,50.44c1,0,2-.66,2-1.53Z" transform="translate(0 -1.92)"/></g><g class="cls-1"><path class="cls-7" d="M392.09,45.58V49.8c0,.5.43.5.65.5h.39v.86c-.4,0-.71.09-.82.09-1.08,0-1.32-.61-1.32-1.39V45.58h-.88v-.91H391V42.86h1.1v1.81h1v.91Z" transform="translate(0 -1.92)"/><path class="cls-7" d="M394.22,43.49V42.25h1.09v1.24Zm1.09,7.67h-1.09V44.67h1.09Z" transform="translate(0 -1.92)"/></g><g class="cls-1"><path class="cls-7" d="M399.52,44.49c2.07,0,3,1.74,3,3.42s-.94,3.42-3,3.42-3-1.75-3-3.42S397.45,44.49,399.52,44.49Zm0,5.9c1.56,0,1.88-1.61,1.88-2.48s-.32-2.48-1.88-2.48-1.89,1.61-1.89,2.48S398,50.39,399.52,50.39Z" transform="translate(0 -1.92)"/></g><g class="cls-1"><path class="cls-7" d="M409,51.16h-1.09v-4c0-1.13-.32-1.7-1.39-1.7-.62,0-1.71.39-1.71,2.15v3.54h-1.09V44.67h1v.92h0a2.35,2.35,0,0,1,2-1.1A2,2,0,0,1,409,46.74Z" transform="translate(0 -1.92)"/></g></g><g class="cls-1"><g class="cls-1"><path class="cls-7" d="M530.15,51.16H529V42.25h1.2Z" transform="translate(0 -1.92)"/></g><g class="cls-1"><path class="cls-7" d="M533.28,45.58V49.8c0,.5.43.5.65.5h.39v.86c-.4,0-.71.09-.82.09-1.08,0-1.32-.61-1.32-1.39V45.58h-.88v-.91h.88V42.86h1.1v1.81h1v.91Z" transform="translate(0 -1.92)"/></g><g class="cls-1"><path class="cls-7" d="M540.69,49.13a2.7,2.7,0,0,1-2.91,2.22c-1.82,0-2.9-1.38-2.9-3.25s1-3.61,3.11-3.61c1.87,0,2.79,1.48,2.79,3.78H536c0,1.35.63,2.13,1.89,2.13a1.63,1.63,0,0,0,1.67-1.27Zm-1-1.73c-.06-1-.48-1.93-1.81-1.93A1.91,1.91,0,0,0,536,47.4Z" transform="translate(0 -1.92)"/></g><g class="cls-1"><path class="cls-7" d="M543.19,51.16h-1.1V44.67h1v1.08h0A2.09,2.09,0,0,1,545,44.49a1.12,1.12,0,0,1,.29,0v1.13h-.41a1.65,1.65,0,0,0-1.66,1.74Z" transform="translate(0 -1.92)"/></g><g class="cls-1"><path class="cls-7" d="M546,46.64c0-1.55,1.08-2.15,2.68-2.15.52,0,2.41.14,2.41,1.81V50c0,.27.13.39.36.39a2.67,2.67,0,0,0,.35-.05v.79a1.92,1.92,0,0,1-.59.12c-1,0-1.12-.49-1.15-1a3,3,0,0,1-2.35,1.06,1.87,1.87,0,0,1-2-1.88,2,2,0,0,1,2-2l1.8-.23c.26,0,.57-.12.57-.76s-.5-1.06-1.53-1.06A1.3,1.3,0,0,0,547,46.64Zm4,1.21c-.17.13-.44.23-1.8.41-.53.07-1.38.23-1.38,1.05A1,1,0,0,0,548,50.44c1,0,2-.66,2-1.53Z" transform="translate(0 -1.92)"/></g><g class="cls-1"><path class="cls-7" d="M554.05,45.58V49.8c0,.5.43.5.65.5h.39v.86c-.4,0-.71.09-.82.09-1.08,0-1.31-.61-1.31-1.39V45.58h-.89v-.91H553V42.86h1.09v1.81h1v.91Z" transform="translate(0 -1.92)"/></g><g class="cls-1"><path class="cls-7" d="M556.13,43.49V42.25h1.09v1.24Zm1.09,7.67h-1.09V44.67h1.09Z" transform="translate(0 -1.92)"/><path class="cls-7" d="M561.5,44.49c2.08,0,3,1.74,3,3.42s-.94,3.42-3,3.42-3-1.75-3-3.42S559.43,44.49,561.5,44.49Zm0,5.9c1.57,0,1.89-1.61,1.89-2.48s-.32-2.48-1.89-2.48-1.88,1.61-1.88,2.48S559.94,50.39,561.5,50.39Z" transform="translate(0 -1.92)"/></g><g class="cls-1"><path class="cls-7" d="M571,51.16h-1.09v-4c0-1.13-.32-1.7-1.39-1.7-.62,0-1.71.39-1.71,2.15v3.54h-1.09V44.67h1v.92h0a2.35,2.35,0,0,1,2-1.1A2,2,0,0,1,571,46.74Z" transform="translate(0 -1.92)"/></g></g><g class="cls-1"><g class="cls-1"><path class="cls-7" d="M712.79,51.16h-6.57V42.25h6.49v1.07h-5.29v2.73h4.88v1.07h-4.88v3h5.37Z" transform="translate(0 -1.92)"/></g><g class="cls-1"><path class="cls-7" d="M719.55,51.16h-1.39l-1.61-2.44L715,51.16h-1.37l2.28-3.34-2.17-3.15h1.4l1.5,2.28,1.5-2.28h1.34l-2.19,3.15Z" transform="translate(0 -1.92)"/></g><g class="cls-1"><path class="cls-7" d="M720.4,44.67h1v.92h0a2.2,2.2,0,0,1,1.94-1.1c1.72,0,2.7,1.41,2.7,3.23,0,1.55-.64,3.63-2.85,3.63a1.93,1.93,0,0,1-1.72-.87h0v3.25H720.4Zm2.82,5.73c1.19,0,1.74-1.08,1.74-2.5,0-.83-.08-2.43-1.77-2.43s-1.75,1.7-1.75,2.75C721.44,49.94,722.52,50.4,723.22,50.4Z" transform="translate(0 -1.92)"/></g><g class="cls-1"><path class="cls-7" d="M730,44.49c2.07,0,3,1.74,3,3.42s-.94,3.42-3,3.42-3-1.75-3-3.42S727.94,44.49,730,44.49Zm0,5.9c1.56,0,1.88-1.61,1.88-2.48s-.32-2.48-1.88-2.48-1.89,1.61-1.89,2.48S728.45,50.39,730,50.39Z" transform="translate(0 -1.92)"/></g><g class="cls-1"><path class="cls-7" d="M737.89,46.52c0-.41-.16-1.09-1.54-1.09-.33,0-1.29.11-1.29.92,0,.53.34.65,1.18.86l1.09.28c1.35.33,1.83.83,1.83,1.71,0,1.34-1.11,2.15-2.57,2.15-2.57,0-2.76-1.49-2.79-2.27h1.05c0,.5.19,1.32,1.73,1.32.78,0,1.48-.31,1.48-1,0-.52-.35-.69-1.29-.93l-1.26-.31c-.91-.22-1.5-.68-1.5-1.57,0-1.43,1.18-2.07,2.45-2.07,2.32,0,2.49,1.71,2.49,2Z" transform="translate(0 -1.92)"/></g><g class="cls-1"><path class="cls-7" d="M740.38,43.49V42.25h1.09v1.24Zm1.09,7.67h-1.09V44.67h1.09Z" transform="translate(0 -1.92)"/></g><g class="cls-1"><path class="cls-7" d="M744.38,45.58V49.8c0,.5.43.5.65.5h.39v.86c-.4,0-.71.09-.82.09-1.08,0-1.31-.61-1.31-1.39V45.58h-.89v-.91h.89V42.86h1.09v1.81h1v.91Z" transform="translate(0 -1.92)"/><path class="cls-7" d="M746.51,43.49V42.25h1.09v1.24Zm1.09,7.67h-1.09V44.67h1.09Z" transform="translate(0 -1.92)"/><path class="cls-7" d="M751.88,44.49c2.08,0,3,1.74,3,3.42s-.94,3.42-3,3.42-3-1.75-3-3.42S749.81,44.49,751.88,44.49Zm0,5.9c1.57,0,1.89-1.61,1.89-2.48s-.32-2.48-1.89-2.48S750,47,750,47.91,750.32,50.39,751.88,50.39Z" transform="translate(0 -1.92)"/></g><g class="cls-1"><path class="cls-7" d="M761.31,51.16h-1.09v-4c0-1.13-.32-1.7-1.39-1.7-.62,0-1.71.39-1.71,2.15v3.54H756V44.67h1v.92h0a2.35,2.35,0,0,1,2-1.1,2,2,0,0,1,2.27,2.25Z" transform="translate(0 -1.92)"/></g></g><g class="cls-1"><g class="cls-1"><path class="cls-8" d="M610.28,2.32h12.05V4.09h-5V17.16h-2V4.09h-5Z" transform="translate(0 -1.92)"/></g><g class="cls-1"><path class="cls-8" d="M635,17.16h-11V2.32h10.81V4.09h-8.81V8.64h8.13v1.78h-8.13v5h9Z" transform="translate(0 -1.92)"/></g><g class="cls-1"><path class="cls-8" d="M645.92,6.66c-.1-2.3-2-3-3.68-3-1.26,0-3.39.35-3.39,2.6,0,1.26.89,1.68,1.76,1.88l4.24,1c1.92.45,3.37,1.61,3.37,4,0,3.51-3.27,4.48-5.81,4.48-2.75,0-3.83-.82-4.49-1.42a4.58,4.58,0,0,1-1.51-3.77h1.88c0,2.69,2.2,3.48,4.1,3.48,1.45,0,3.89-.38,3.89-2.51,0-1.55-.73-2-3.17-2.62l-3-.7a3.58,3.58,0,0,1-3.16-3.5c0-2.31,1.51-4.59,5.11-4.59,5.19,0,5.7,3.1,5.79,4.74Z" transform="translate(0 -1.92)"/></g><g class="cls-1"><path class="cls-8" d="M649.07,2.32h12V4.09h-5V17.16h-2V4.09h-5Z" transform="translate(0 -1.92)"/></g></g><g class="cls-1"><g class="cls-1"><path class="cls-9" d="M701.72,17.16h-2V2.32h6.68a4,4,0,0,1,4.4,4.17,4.14,4.14,0,0,1-4.4,4.41h-4.68Zm0-8h4c1.8,0,3-.66,3-2.67S707.45,4,705.8,4h-4.08Z" transform="translate(0 -1.92)"/></g><g class="cls-1"><path class="cls-9" d="M714.86,17.16h-2V2.32h6.86c2.44,0,4.88.84,4.88,4a3.65,3.65,0,0,1-2.06,3.55c.84.35,1.69.72,1.77,2.79l.13,2.69c0,.83.12,1.14.74,1.49v.33h-2.46a18.13,18.13,0,0,1-.35-3.72c0-1.22-.25-2.65-2.65-2.65h-4.85Zm0-8.08h4.65c1.46,0,3-.38,3-2.57S720.85,4,719.86,4h-5Z" transform="translate(0 -1.92)"/></g><g class="cls-1"><path class="cls-9" d="M738.45,17.16h-11V2.32H738.3V4.09h-8.81V8.64h8.13v1.78h-8.13v5h9Z" transform="translate(0 -1.92)"/></g><g class="cls-1"><path class="cls-9" d="M749.34,6.66c-.1-2.3-2-3-3.68-3-1.26,0-3.39.35-3.39,2.6,0,1.26.89,1.68,1.76,1.88l4.24,1c1.92.45,3.37,1.61,3.37,4,0,3.51-3.27,4.48-5.81,4.48-2.75,0-3.83-.82-4.49-1.42a4.58,4.58,0,0,1-1.51-3.77h1.88c0,2.69,2.2,3.48,4.1,3.48,1.45,0,3.89-.38,3.89-2.51,0-1.55-.73-2-3.17-2.62l-3-.7a3.58,3.58,0,0,1-3.16-3.5c0-2.31,1.51-4.59,5.11-4.59,5.19,0,5.7,3.1,5.79,4.74Z" transform="translate(0 -1.92)"/></g><g class="cls-1"><path class="cls-9" d="M765.08,17.16h-11V2.32h10.81V4.09h-8.81V8.64h8.13v1.78h-8.13v5h9Z" transform="translate(0 -1.92)"/></g><g class="cls-1"><path class="cls-9" d="M777.06,2.32h2V17.16h-2.26l-7.54-12h0v12h-1.95V2.32h2.38l7.42,12h0Z" transform="translate(0 -1.92)"/></g><g class="cls-1"><path class="cls-9" d="M780.62,2.32h12V4.09h-5V17.16h-2V4.09h-5Z" transform="translate(0 -1.92)"/></g></g><line class="cls-6" y1="45.41" x2="106.83" y2="45.41"/><line class="cls-6" x1="175.45" y1="45.41" x2="282.28" y2="45.41"/><line class="cls-6" x1="295.54" y1="45.3" x2="307.58" y2="45.3"/><line class="cls-6" x1="414.66" y1="45.3" x2="426.7" y2="45.3"/><line class="cls-6" x1="437.59" y1="44.78" x2="524.55" y2="44.78"/><line class="cls-6" x1="574.97" y1="44.78" x2="665.6" y2="44.78"/><line class="cls-6" x1="673.22" y1="44.78" x2="702.06" y2="44.78"/><line class="cls-6" x1="765.12" y1="44.78" x2="793.95" y2="44.78"/><g class="cls-1"><g class="cls-1"><path d="M82,108.38H80V93.54h2Z" transform="translate(0 -1.92)"/></g><g class="cls-1"><path d="M95,93.54h2v14.84H94.64l-7.54-12h0v12H85.11V93.54h2.38l7.42,12h0Z" transform="translate(0 -1.92)"/></g><g class="cls-1"><path d="M98.51,93.54h12v1.77h-5v13.07h-2V95.31h-5Z" transform="translate(0 -1.92)"/></g><g class="cls-1"><path d="M123.24,108.38h-11V93.54h10.81v1.77h-8.81v4.55h8.13v1.78h-8.13v5h9Z" transform="translate(0 -1.92)"/></g><g class="cls-1"><path d="M127.52,108.38h-2V93.54h6.86c2.44,0,4.88.84,4.88,4a3.65,3.65,0,0,1-2.06,3.55c.84.35,1.69.73,1.77,2.79l.13,2.69c0,.83.12,1.14.74,1.49v.33h-2.46a18.13,18.13,0,0,1-.35-3.72c0-1.22-.25-2.65-2.65-2.65h-4.85Zm0-8.08h4.65c1.46,0,3-.38,3-2.57s-1.68-2.48-2.67-2.48h-5Z" transform="translate(0 -1.92)"/></g><g class="cls-1"><path d="M149.05,93.54h2.26l-5.42,14.84h-2.13l-5.42-14.84h2.24l4.23,12.65h.05Z" transform="translate(0 -1.92)"/></g><g class="cls-1"><path d="M155.16,108.38h-2V93.54h2Z" transform="translate(0 -1.92)"/></g><g class="cls-1"><path d="M169.34,108.38h-11V93.54h10.81v1.77h-8.81v4.55h8.13v1.78h-8.13v5h9Z" transform="translate(0 -1.92)"/></g><g class="cls-1"><path d="M176.64,108.38h-2.11l-3.87-14.84h2.17l2.77,12.07h0L179,93.54h2.19l3.33,12.07h0l2.77-12.07h2.22l-3.91,14.84H183.5l-3.39-12.3h0Z" transform="translate(0 -1.92)"/></g><g class="cls-1"><path d="M199.81,97.88c-.1-2.3-2-3-3.68-3-1.26,0-3.39.35-3.39,2.6,0,1.27.89,1.68,1.76,1.88l4.24,1c1.92.45,3.37,1.61,3.37,4,0,3.51-3.27,4.48-5.81,4.48-2.75,0-3.83-.82-4.49-1.42a4.58,4.58,0,0,1-1.51-3.77h1.88c0,2.69,2.2,3.48,4.1,3.48,1.45,0,3.89-.38,3.89-2.5,0-1.56-.73-2-3.17-2.63l-3-.7a3.58,3.58,0,0,1-3.16-3.5c0-2.31,1.51-4.59,5.11-4.59,5.19,0,5.7,3.1,5.79,4.74Z" transform="translate(0 -1.92)"/></g></g><g class="cls-1"><g class="cls-1"><path d="M67.27,137.67h-2V122.82H72a4.06,4.06,0,0,1,4.4,4.18,4.13,4.13,0,0,1-4.4,4.4H67.27Zm0-8h4c1.8,0,3-.66,3-2.67s-1.28-2.48-2.93-2.48H67.27Z" transform="translate(0 -1.92)"/></g><g class="cls-1"><path d="M85,138.06c-5.54,0-7.23-4.61-7.23-7.81s1.69-7.82,7.23-7.82,7.24,4.61,7.24,7.82S90.55,138.06,85,138.06Zm0-13.85c-3.22,0-5.17,2.54-5.17,6s2,6,5.17,6,5.17-2.54,5.17-6S88.24,124.21,85,124.21Z" transform="translate(0 -1.92)"/></g><g class="cls-1"><path d="M96.7,137.67h-2V122.82h2Z" transform="translate(0 -1.92)"/></g><g class="cls-1"><path d="M109.66,122.82h2v14.85h-2.26l-7.54-12h0v12H99.82V122.82h2.38l7.42,12h0Z" transform="translate(0 -1.92)"/></g><g class="cls-1"><path d="M113.24,122.82h12.05v1.78h-5v13.07h-2V124.6h-5Z" transform="translate(0 -1.92)"/></g><g class="cls-1"><path d="M139.37,138.06c-5.54,0-7.23-4.61-7.23-7.81s1.69-7.82,7.23-7.82,7.24,4.61,7.24,7.82S144.91,138.06,139.37,138.06Zm0-13.85c-3.22,0-5.17,2.54-5.17,6s2,6,5.17,6,5.17-2.54,5.17-6S142.6,124.21,139.37,124.21Z" transform="translate(0 -1.92)"/></g><g class="cls-1"><path d="M151,137.67h-2V122.82h10.27v1.78H151v4.55h7.28v1.78H151Z" transform="translate(0 -1.92)"/></g><g class="cls-1"><path d="M176.71,122.82H179l-5.42,14.85h-2.13L166,122.82h2.24l4.23,12.66h.05Z" transform="translate(0 -1.92)"/></g><g class="cls-1"><path d="M182.81,137.67h-2V122.82h2Z" transform="translate(0 -1.92)"/></g><g class="cls-1"><path d="M197,137.67H186V122.82h10.81v1.78H188v4.55h8.13v1.78H188v5h9Z" transform="translate(0 -1.92)"/></g><g class="cls-1"><path d="M204.29,137.67h-2.11l-3.87-14.85h2.17l2.77,12.08h0l3.33-12.08h2.19l3.33,12.08h0L215,122.82h2.22l-3.91,14.85h-2.11l-3.39-12.3h0Z" transform="translate(0 -1.92)"/></g></g><g class="cls-1"><g class="cls-1"><path d="M323.42,109.76V101c0-.43,0-2.31,0-3.7h0l-4.18,12.47h-2l-4.18-12.45h0c0,1.37,0,3.25,0,3.68v8.77h-1.94V94.92H314l4.24,12.55h0l4.22-12.55h2.85v14.84Z" transform="translate(0 -1.92)"/></g><g class="cls-1"><path d="M334.83,110.15c-5.54,0-7.23-4.61-7.23-7.81s1.69-7.82,7.23-7.82,7.24,4.61,7.24,7.82S340.37,110.15,334.83,110.15Zm0-13.85c-3.22,0-5.17,2.54-5.17,6s1.95,6,5.17,6,5.17-2.54,5.17-6S338.06,96.3,334.83,96.3Z" transform="translate(0 -1.92)"/></g><g class="cls-1"><path d="M354.76,99.38a3.87,3.87,0,0,0-4.15-3.08c-2.69,0-4.86,2-4.86,5.89,0,3.5,1.24,6.18,4.92,6.18,1.3,0,3.55-.62,4.24-4.07h1.94c-.83,5.6-5.38,5.85-6.49,5.85-3.37,0-6.68-2.19-6.68-7.89,0-4.57,2.6-7.74,6.93-7.74,3.82,0,5.81,2.38,6.1,4.86Z" transform="translate(0 -1.92)"/></g><g class="cls-1"><path d="M361.05,109.76h-2V94.92h2v7.19l7.19-7.19H371l-6.18,6,6.35,8.85h-2.61l-5.19-7.44-2.33,2.23Z" transform="translate(0 -1.92)"/></g><g class="cls-1"><path d="M384.33,94.92v9.63c0,3-1.9,5.6-6,5.6s-5.71-2.56-5.71-5.33v-9.9h2v9.34c0,3.23,2,4.11,3.76,4.11s3.91-.84,3.91-4.07V94.92Z" transform="translate(0 -1.92)"/></g><g class="cls-1"><path d="M389.43,109.76h-2V94.92h6.68a4,4,0,0,1,4.4,4.17,4.14,4.14,0,0,1-4.4,4.41h-4.68Zm0-8h4c1.8,0,3-.66,3-2.67s-1.28-2.48-2.93-2.48h-4.08Z" transform="translate(0 -1.92)"/></g><g class="cls-1"><path d="M409.43,99.26c-.1-2.3-2-3-3.68-3-1.26,0-3.39.35-3.39,2.6,0,1.27.89,1.68,1.76,1.89l4.24,1c1.92.45,3.37,1.61,3.37,4,0,3.51-3.27,4.48-5.81,4.48-2.75,0-3.83-.82-4.49-1.42a4.58,4.58,0,0,1-1.51-3.77h1.88c0,2.69,2.2,3.48,4.1,3.48,1.45,0,3.89-.37,3.89-2.5,0-1.56-.73-2-3.17-2.63l-3-.7a3.58,3.58,0,0,1-3.16-3.5c0-2.31,1.51-4.59,5.11-4.59,5.19,0,5.7,3.1,5.79,4.74Z" transform="translate(0 -1.92)"/></g></g><g class="cls-1"><g class="cls-1"><path d="M445.8,93.54v9.63c0,3-1.9,5.6-6,5.6s-5.71-2.56-5.71-5.33v-9.9h2v9.34c0,3.23,2,4.11,3.76,4.11s3.91-.84,3.91-4.07V93.54Z" transform="translate(0 -1.92)"/></g><g class="cls-1"><path d="M457.57,97.88c-.1-2.3-2-3-3.68-3-1.26,0-3.39.35-3.39,2.6,0,1.27.89,1.68,1.76,1.88l4.24,1c1.92.45,3.37,1.61,3.37,4,0,3.51-3.27,4.48-5.81,4.48-2.75,0-3.83-.82-4.49-1.42a4.58,4.58,0,0,1-1.51-3.77h1.88c0,2.69,2.2,3.48,4.1,3.48,1.45,0,3.89-.38,3.89-2.5,0-1.56-.73-2-3.17-2.63l-3-.7a3.58,3.58,0,0,1-3.16-3.5c0-2.31,1.51-4.59,5.11-4.59,5.19,0,5.7,3.1,5.79,4.74Z" transform="translate(0 -1.92)"/></g><g class="cls-1"><path d="M473.31,108.38h-11V93.54h10.81v1.77h-8.81v4.55h8.13v1.78h-8.13v5h9Z" transform="translate(0 -1.92)"/></g><g class="cls-1"><path d="M477.58,108.38h-2V93.54h6.86c2.44,0,4.88.84,4.88,4a3.65,3.65,0,0,1-2.06,3.55c.84.35,1.69.73,1.77,2.79l.13,2.69c0,.83.12,1.14.74,1.49v.33h-2.46a18.13,18.13,0,0,1-.35-3.72c0-1.22-.25-2.65-2.65-2.65h-4.86Zm0-8.08h4.66c1.47,0,3-.38,3-2.57s-1.68-2.48-2.67-2.48h-5Z" transform="translate(0 -1.92)"/></g><g class="cls-1"><path d="M497.92,108.38h-2V93.54h10.27v1.77h-8.27v4.55h7.28v1.78h-7.28Z" transform="translate(0 -1.92)"/></g><g class="cls-1"><path d="M510,106.6h7.52v1.78H508V93.54h2Z" transform="translate(0 -1.92)"/></g><g class="cls-1"><path d="M525.11,108.77c-5.54,0-7.23-4.61-7.23-7.81s1.69-7.82,7.23-7.82,7.24,4.61,7.24,7.82S530.65,108.77,525.11,108.77Zm0-13.85c-3.22,0-5.17,2.54-5.17,6s1.95,6,5.17,6,5.17-2.54,5.17-6S528.34,94.92,525.11,94.92Z" transform="translate(0 -1.92)"/></g><g class="cls-1"><path d="M538.93,108.38h-2.11L533,93.54h2.17l2.77,12.07h0l3.33-12.07h2.19l3.33,12.07h0l2.77-12.07h2.22l-3.91,14.84h-2.11l-3.39-12.3h0Z" transform="translate(0 -1.92)"/></g><g class="cls-1"><path d="M559.27,93.54h6c3.87,0,6.25,2.93,6.25,7.21,0,3.33-1.45,7.63-6.33,7.63h-5.94Zm2,13.12h3.89c2.6,0,4.3-2,4.3-5.78s-1.72-5.63-4.45-5.63h-3.74Z" transform="translate(0 -1.92)"/></g><g class="cls-1"><path d="M576.11,108.38h-2V93.54h2Z" transform="translate(0 -1.92)"/></g><g class="cls-1"><path d="M581.46,104.06l-1.55,4.32h-2.07l5.58-14.84h2.28l5.37,14.84h-2.19l-1.47-4.32Zm5.23-1.78-2.19-6.53h0l-2.38,6.53Z" transform="translate(0 -1.92)"/></g><g class="cls-1"><path d="M598.51,100.44H605v7.94h-1.31l-.47-1.92a6.09,6.09,0,0,1-4.9,2.31,6,6,0,0,1-4.55-1.67,7.93,7.93,0,0,1-2.34-6.27c0-3.61,2.19-7.69,7-7.69,2.77,0,5.85,1.57,6.29,4.9h-1.95c-.64-2.58-2.81-3.12-4.44-3.12-2.67,0-4.86,2.13-4.86,6,0,3,1,6.12,4.94,6.12a4.75,4.75,0,0,0,3-1,4.58,4.58,0,0,0,1.63-4h-4.63Z" transform="translate(0 -1.92)"/></g><g class="cls-1"><path d="M610.08,108.38h-2V93.54h6.86c2.44,0,4.88.84,4.88,4a3.65,3.65,0,0,1-2.06,3.55c.84.35,1.69.73,1.77,2.79l.13,2.69c0,.83.12,1.14.74,1.49v.33h-2.46a18.13,18.13,0,0,1-.35-3.72c0-1.22-.25-2.65-2.65-2.65h-4.85Zm0-8.08h4.65c1.47,0,3-.38,3-2.57s-1.68-2.48-2.67-2.48h-5Z" transform="translate(0 -1.92)"/></g><g class="cls-1"><path d="M625.23,104.06l-1.55,4.32h-2.07l5.58-14.84h2.28l5.37,14.84h-2.19l-1.47-4.32Zm5.23-1.78-2.19-6.53h0l-2.38,6.53Z" transform="translate(0 -1.92)"/></g><g class="cls-1"><path d="M648.69,108.38V99.61c0-.43,0-2.31,0-3.7h0l-4.18,12.47h-2l-4.18-12.45h0c0,1.37,0,3.25,0,3.68v8.77h-1.94V93.54h2.87l4.24,12.54h0l4.22-12.54h2.85v14.84Z" transform="translate(0 -1.92)"/></g><g class="cls-1"><path d="M662.48,97.88c-.1-2.3-2-3-3.68-3-1.26,0-3.39.35-3.39,2.6,0,1.27.89,1.68,1.76,1.88l4.24,1c1.92.45,3.37,1.61,3.37,4,0,3.51-3.27,4.48-5.81,4.48-2.75,0-3.83-.82-4.49-1.42a4.58,4.58,0,0,1-1.51-3.77h1.88c0,2.69,2.2,3.48,4.1,3.48,1.45,0,3.89-.38,3.89-2.5,0-1.56-.73-2-3.17-2.63l-3-.7a3.58,3.58,0,0,1-3.16-3.5c0-2.31,1.51-4.59,5.11-4.59,5.19,0,5.7,3.1,5.79,4.74Z" transform="translate(0 -1.92)"/></g></g><g class="cls-1"><g class="cls-1"><path d="M725.32,105.85V97.08c0-.43,0-2.31,0-3.7h0l-4.18,12.47h-2L715,93.4h0c0,1.37,0,3.25,0,3.68v8.77H713V91h2.87l4.24,12.55h0L724.41,91h2.85v14.84Z" transform="translate(0 -1.92)"/></g><g class="cls-1"><path d="M739.62,91h2.26l-5.42,14.84h-2.13L728.91,91h2.24l4.23,12.65h0Z" transform="translate(0 -1.92)"/></g><g class="cls-1"><path d="M745.68,105.85h-2V91h6.68a4,4,0,0,1,4.4,4.17,4.14,4.14,0,0,1-4.4,4.41h-4.68Zm0-8h4c1.8,0,3-.66,3-2.67s-1.28-2.48-2.93-2.48h-4.08Z" transform="translate(0 -1.92)"/></g></g><line class="cls-6" y1="61.88" x2="793.19" y2="61.88"/><polyline class="cls-6" points="790.06 58.97 793.19 61.88 790.06 64.79"/><line class="cls-6" x1="141.05" y1="80.43" x2="141.05" y2="61.88"/><polyline class="cls-6" points="143.96 77.29 141.05 80.42 138.14 77.29"/><line class="cls-6" x1="360.6" y1="80.43" x2="360.6" y2="61.88"/><polyline class="cls-6" points="363.51 77.29 360.6 80.42 357.69 77.29"/><line class="cls-6" x1="548.52" y1="80.43" x2="548.52" y2="61.88"/><polyline class="cls-6" points="551.43 77.29 548.52 80.42 545.61 77.29"/><line class="cls-6" x1="734.1" y1="80.43" x2="734.1" y2="61.88"/><polyline class="cls-6" points="737.01 77.29 734.1 80.42 731.19 77.29"/></svg>