<svg id="Capa_1" data-name="Capa 1" xmlns="http://www.w3.org/2000/svg" viewBox="0 0 1107.99 408.44"><defs><style>.cls-1,.cls-101,.cls-22{font-size:18px;}.cls-1,.cls-101,.cls-22,.cls-59{fill:#1d1d1b;font-family:HelveticaLTStd-Roman, Helvetica LT Std;}.cls-2{letter-spacing:-0.07em;}.cls-3{letter-spacing:0.01em;}.cls-4{letter-spacing:0em;}.cls-5{letter-spacing:0em;}.cls-6{letter-spacing:0em;}.cls-7{letter-spacing:0em;}.cls-8{letter-spacing:-0.01em;}.cls-9{letter-spacing:-0.01em;}.cls-10{letter-spacing:0em;}.cls-11{letter-spacing:-0.01em;}.cls-12{letter-spacing:0em;}.cls-13,.cls-22{letter-spacing:-0.01em;}.cls-14{letter-spacing:-0.07em;}.cls-15{letter-spacing:-0.01em;}.cls-16{letter-spacing:0.02em;}.cls-17{letter-spacing:-0.02em;}.cls-18{letter-spacing:-0.02em;}.cls-19{letter-spacing:0em;}.cls-20{letter-spacing:-0.01em;}.cls-21{letter-spacing:-0.02em;}.cls-23{letter-spacing:-0.01em;}.cls-24{letter-spacing:-0.01em;}.cls-25{letter-spacing:0em;}.cls-26{letter-spacing:-0.01em;}.cls-27{letter-spacing:0em;}.cls-28{letter-spacing:-0.01em;}.cls-29{letter-spacing:-0.01em;}.cls-30{letter-spacing:-0.1em;}.cls-31{letter-spacing:0.03em;}.cls-32{letter-spacing:-0.01em;}.cls-33{letter-spacing:-0.02em;}.cls-34{letter-spacing:-0.01em;}.cls-35{letter-spacing:-0.01em;}.cls-36{letter-spacing:-0.02em;}.cls-37{letter-spacing:-0.01em;}.cls-38{letter-spacing:-0.07em;}.cls-39{letter-spacing:-0.02em;}.cls-40{letter-spacing:0em;}.cls-41{letter-spacing:-0.01em;}.cls-42{letter-spacing:-0.01em;}.cls-43{letter-spacing:-0.01em;}.cls-44{letter-spacing:-0.07em;}.cls-45{letter-spacing:0em;}.cls-46{letter-spacing:-0.02em;}.cls-47{letter-spacing:-0.01em;}.cls-48{letter-spacing:0em;}.cls-49{letter-spacing:0em;}.cls-50{letter-spacing:0em;}.cls-51{letter-spacing:-0.02em;}.cls-52{letter-spacing:-0.03em;}.cls-53{letter-spacing:0.03em;}.cls-54{letter-spacing:-0.07em;}.cls-55{letter-spacing:-0.12em;}.cls-56{letter-spacing:-0.07em;}.cls-57{letter-spacing:-0.03em;}.cls-58{letter-spacing:-0.02em;}.cls-59{font-size:30px;}.cls-60{letter-spacing:-0.1em;}.cls-61{letter-spacing:-0.03em;}.cls-62{letter-spacing:-0.01em;}.cls-63{letter-spacing:-0.04em;}.cls-64{letter-spacing:-0.02em;}.cls-65{letter-spacing:-0.02em;}.cls-66{letter-spacing:-0.03em;}.cls-67{letter-spacing:0em;}.cls-68{letter-spacing:-0.03em;}.cls-69{letter-spacing:-0.01em;}.cls-70{letter-spacing:-0.02em;}.cls-71{letter-spacing:-0.01em;}.cls-72{letter-spacing:-0.01em;}.cls-73{letter-spacing:-0.03em;}.cls-74{letter-spacing:0em;}.cls-75{letter-spacing:0em;}.cls-76{letter-spacing:0em;}.cls-77{letter-spacing:-0.01em;}.cls-78{letter-spacing:0.02em;}.cls-79{fill:none;stroke:#1d1d1b;stroke-width:1.5px;}.cls-80{letter-spacing:-0.01em;}.cls-81{letter-spacing:0.01em;}.cls-82{letter-spacing:0em;}.cls-83{letter-spacing:-0.01em;}.cls-84{letter-spacing:0em;}.cls-85{letter-spacing:0.01em;}.cls-86{letter-spacing:-0.02em;}.cls-87{letter-spacing:0em;}.cls-88{letter-spacing:0.02em;}.cls-89{letter-spacing:-0.01em;}.cls-90{letter-spacing:-0.01em;}.cls-91{letter-spacing:-0.01em;}.cls-92{letter-spacing:-0.02em;}.cls-93{letter-spacing:-0.01em;}.cls-94{letter-spacing:-0.01em;}.cls-95{letter-spacing:0em;}.cls-101,.cls-96{letter-spacing:0em;}.cls-97{letter-spacing:0em;}.cls-98{letter-spacing:-0.02em;}.cls-99{letter-spacing:-0.02em;}.cls-100{letter-spacing:0em;}.cls-102{letter-spacing:-0.02em;}.cls-103{letter-spacing:0.03em;}</style></defs><text class="cls-1" transform="translate(0 69.1)"><tspan class="cls-2">1</tspan><tspan x="8.73" y="0">.</tspan></text><text class="cls-1" transform="translate(13.73 69.1)"> </text><text class="cls-1" transform="translate(18 69.1)"><tspan class="cls-3">O</tspan><tspan class="cls-4" x="14.09" y="0">p</tspan><tspan class="cls-5" x="24.05" y="0">e</tspan><tspan class="cls-6" x="33.97" y="0">n </tspan><tspan class="cls-4" x="48.98" y="0">t</tspan><tspan class="cls-7" x="53.93" y="0">h</tspan><tspan x="63.85" y="0">e </tspan><tspan class="cls-8" x="78.86" y="0">p</tspan><tspan class="cls-9" x="88.7" y="0">r</tspan><tspan class="cls-10" x="94.59" y="0">o</tspan><tspan class="cls-11" x="104.58" y="0">g</tspan><tspan class="cls-12" x="114.46" y="0">r</tspan><tspan class="cls-13" x="120.4" y="0">a</tspan><tspan x="130.28" y="0">m</tspan></text><text class="cls-1" transform="translate(0 104.09)"><tspan class="cls-14">1</tspan><tspan x="8.75" y="0">.</tspan></text><text class="cls-1" transform="translate(13.73 104.09)"> </text><text class="cls-1" transform="translate(18 104.09)"><tspan class="cls-13">I</tspan><tspan class="cls-6" x="4.88" y="0">d</tspan><tspan class="cls-5" x="14.89" y="0">e</tspan><tspan class="cls-15" x="24.8" y="0">n</tspan><tspan class="cls-4" x="34.6" y="0">t</tspan><tspan class="cls-9" x="39.55" y="0">i</tspan><tspan class="cls-16" x="43.43" y="0">f</tspan><tspan x="48.76" y="0">y a </tspan><tspan class="cls-17" x="77.78" y="0">w</tspan><tspan class="cls-11" x="90.45" y="0">a</tspan><tspan class="cls-15" x="100.33" y="0">n</tspan><tspan class="cls-18" x="110.12" y="0">t</tspan><tspan class="cls-19" x="114.84" y="0">e</tspan><tspan x="124.83" y="0">d k</tspan><tspan class="cls-13" x="148.84" y="0">i</tspan><tspan class="cls-12" x="152.71" y="0">n</tspan><tspan class="cls-6" x="162.67" y="0">d </tspan><tspan class="cls-20" x="177.68" y="0">o</tspan><tspan x="187.45" y="0">f </tspan><tspan class="cls-5" x="197.46" y="0">si</tspan><tspan class="cls-10" x="210.27" y="0">g</tspan><tspan class="cls-11" x="220.26" y="0">na</tspan><tspan class="cls-21" x="240.03" y="0">l</tspan><tspan x="243.72" y="0">.</tspan></text><text class="cls-22" transform="translate(0 139.08)">2<tspan class="cls-6" x="9.88" y="0">.</tspan></text><text class="cls-1" transform="translate(14.89 139.08)"> </text><text class="cls-1" transform="translate(18 139.08)"><tspan class="cls-23">U</tspan><tspan class="cls-24" x="12.82" y="0">s</tspan><tspan class="cls-6" x="21.71" y="0">e </tspan><tspan class="cls-25" x="36.72" y="0">t</tspan><tspan class="cls-5" x="41.65" y="0">h</tspan><tspan x="51.57" y="0">e </tspan><tspan class="cls-9" x="66.58" y="0">s</tspan><tspan class="cls-26" x="75.47" y="0">e</tspan><tspan class="cls-20" x="85.34" y="0">a</tspan><tspan class="cls-25" x="95.11" y="0">r</tspan><tspan class="cls-27" x="101.03" y="0">c</tspan><tspan class="cls-6" x="110.07" y="0">h </tspan><tspan class="cls-9" x="125.08" y="0">b</tspan><tspan class="cls-20" x="134.98" y="0">a</tspan><tspan class="cls-6" x="144.76" y="0">r </tspan><tspan class="cls-28" x="155.75" y="0">t</tspan><tspan x="160.51" y="0">o </tspan><tspan class="cls-29" x="175.52" y="0">f</tspan><tspan class="cls-13" x="180.36" y="0">i</tspan><tspan class="cls-12" x="184.23" y="0">n</tspan><tspan x="194.18" y="0">d a </tspan><tspan class="cls-5" x="224.21" y="0">si</tspan><tspan class="cls-10" x="237.02" y="0">g</tspan><tspan class="cls-11" x="247.01" y="0">na</tspan><tspan class="cls-21" x="266.78" y="0">l</tspan><tspan x="270.47" y="0">.</tspan></text><text class="cls-1" transform="translate(0 174.08)"><tspan class="cls-5">3</tspan><tspan x="9.92" y="0">.</tspan></text><text class="cls-1" transform="translate(14.9 174.08)"> </text><text class="cls-1" transform="translate(18 174.08)"><tspan class="cls-30">T</tspan><tspan class="cls-31" x="9.22" y="0">r</tspan><tspan x="15.7" y="0">y </tspan><tspan class="cls-28" x="29.7" y="0">t</tspan><tspan class="cls-6" x="34.45" y="0">o </tspan><tspan class="cls-29" x="49.46" y="0">f</tspan><tspan class="cls-13" x="54.31" y="0">i</tspan><tspan class="cls-12" x="58.18" y="0">n</tspan><tspan x="68.13" y="0">d a </tspan><tspan class="cls-5" x="98.15" y="0">si</tspan><tspan class="cls-10" x="110.97" y="0">g</tspan><tspan class="cls-32" x="120.96" y="0">n</tspan><tspan class="cls-13" x="130.86" y="0">a</tspan><tspan x="140.74" y="0">l </tspan><tspan class="cls-33" x="149.74" y="0">b</tspan><tspan x="159.39" y="0">y </tspan><tspan class="cls-4" x="173.39" y="0">o</tspan><tspan class="cls-32" x="183.35" y="0">nl</tspan><tspan x="197.13" y="0">y </tspan><tspan class="cls-25" x="211.14" y="0">u</tspan><tspan class="cls-34" x="221.07" y="0">s</tspan><tspan class="cls-11" x="229.98" y="0">i</tspan><tspan class="cls-5" x="233.85" y="0">n</tspan><tspan x="243.77" y="0">g </tspan><tspan class="cls-25" x="258.78" y="0">t</tspan><tspan class="cls-5" x="263.72" y="0">h</tspan><tspan x="273.63" y="0">e </tspan><tspan class="cls-29" x="288.65" y="0">f</tspan><tspan class="cls-35" x="293.49" y="0">i</tspan><tspan class="cls-9" x="297.34" y="0">l</tspan><tspan class="cls-36" x="301.23" y="0">t</tspan><tspan class="cls-37" x="305.94" y="0">e</tspan><tspan class="cls-38" x="315.75" y="0">r</tspan><tspan x="320.52" y="0">.</tspan></text><text class="cls-1" transform="translate(0 209.07)"><tspan class="cls-39">4</tspan><tspan x="9.63" y="0">.</tspan></text><text class="cls-1" transform="translate(14.62 209.07)"> </text><text class="cls-1" transform="translate(18 209.07)"><tspan class="cls-30">T</tspan><tspan class="cls-31" x="9.22" y="0">r</tspan><tspan x="15.7" y="0">y </tspan><tspan class="cls-28" x="29.7" y="0">t</tspan><tspan class="cls-6" x="34.45" y="0">o </tspan><tspan class="cls-29" x="49.46" y="0">f</tspan><tspan class="cls-13" x="54.31" y="0">i</tspan><tspan class="cls-12" x="58.18" y="0">n</tspan><tspan x="68.13" y="0">d a </tspan><tspan class="cls-5" x="98.15" y="0">si</tspan><tspan class="cls-10" x="110.97" y="0">g</tspan><tspan class="cls-32" x="120.96" y="0">n</tspan><tspan class="cls-13" x="130.86" y="0">a</tspan><tspan x="140.74" y="0">l </tspan><tspan class="cls-25" x="149.74" y="0">u</tspan><tspan class="cls-5" x="159.68" y="0">s</tspan><tspan class="cls-13" x="168.59" y="0">i</tspan><tspan class="cls-5" x="172.46" y="0">n</tspan><tspan class="cls-6" x="182.37" y="0">g </tspan><tspan class="cls-10" x="197.39" y="0">b</tspan><tspan class="cls-20" x="207.38" y="0">o</tspan><tspan class="cls-25" x="217.15" y="0">t</tspan><tspan x="222.08" y="0">h </tspan><tspan class="cls-40" x="237.09" y="0">t</tspan><tspan class="cls-5" x="242.03" y="0">h</tspan><tspan class="cls-6" x="251.94" y="0">e </tspan><tspan class="cls-9" x="266.96" y="0">s</tspan><tspan class="cls-35" x="275.85" y="0">e</tspan><tspan class="cls-41" x="285.71" y="0">a</tspan><tspan class="cls-25" x="295.47" y="0">r</tspan><tspan class="cls-27" x="301.39" y="0">c</tspan><tspan class="cls-6" x="310.43" y="0">h </tspan><tspan class="cls-35" x="325.44" y="0">a</tspan><tspan class="cls-12" x="335.3" y="0">n</tspan><tspan x="345.26" y="0">d </tspan><tspan class="cls-40" x="360.27" y="0">t</tspan><tspan class="cls-5" x="365.2" y="0">h</tspan><tspan class="cls-6" x="375.12" y="0">e </tspan><tspan class="cls-8" x="390.13" y="0">f</tspan><tspan class="cls-42" x="394.97" y="0">i</tspan><tspan class="cls-24" x="398.82" y="0">l</tspan><tspan class="cls-18" x="402.71" y="0">t</tspan><tspan class="cls-43" x="407.43" y="0">e</tspan><tspan class="cls-44" x="417.24" y="0">r</tspan><tspan x="422.01" y="0">.</tspan></text><text class="cls-1" transform="translate(0 244.06)"><tspan class="cls-15">5</tspan><tspan x="9.79" y="0">.</tspan></text><text class="cls-1" transform="translate(14.78 244.06)"> </text><text class="cls-1" transform="translate(18 244.06)"><tspan class="cls-12">D</tspan><tspan x="12.94" y="0">o </tspan><tspan class="cls-25" x="27.95" y="0">t</tspan><tspan class="cls-5" x="32.89" y="0">he</tspan><tspan class="cls-9" x="52.72" y="0">s</tspan><tspan x="61.61" y="0">e </tspan><tspan class="cls-13" x="76.63" y="0">s</tspan><tspan class="cls-36" x="85.5" y="0">t</tspan><tspan class="cls-45" x="90.22" y="0">e</tspan><tspan class="cls-25" x="100.19" y="0">p</tspan><tspan x="110.12" y="0">s </tspan><tspan class="cls-46" x="124.13" y="0">f</tspan><tspan class="cls-8" x="128.83" y="0">o</tspan><tspan x="138.67" y="0">r </tspan><tspan class="cls-26" x="149.67" y="0">e</tspan><tspan class="cls-47" x="159.53" y="0">a</tspan><tspan class="cls-48" x="169.36" y="0">c</tspan><tspan class="cls-6" x="178.4" y="0">h </tspan><tspan class="cls-4" x="193.41" y="0">o</tspan><tspan class="cls-7" x="203.36" y="0">n</tspan><tspan x="213.28" y="0">e </tspan><tspan class="cls-20" x="228.29" y="0">o</tspan><tspan x="238.07" y="0">f </tspan><tspan class="cls-40" x="248.08" y="0">t</tspan><tspan class="cls-5" x="253.01" y="0">h</tspan><tspan class="cls-6" x="262.93" y="0">e </tspan><tspan class="cls-35" x="277.94" y="0">s</tspan><tspan class="cls-49" x="286.79" y="0">u</tspan><tspan class="cls-50" x="296.77" y="0">b</tspan><tspan class="cls-48" x="306.79" y="0">c</tspan><tspan class="cls-51" x="315.83" y="0">a</tspan><tspan class="cls-46" x="325.51" y="0">t</tspan><tspan class="cls-25" x="330.21" y="0">e</tspan><tspan x="340.15" y="0">g</tspan><tspan class="cls-8" x="350.15" y="0">o</tspan><tspan class="cls-19" x="360" y="0">r</tspan><tspan class="cls-34" x="365.98" y="0">ie</tspan><tspan class="cls-15" x="379.8" y="0">s</tspan><tspan x="388.58" y="0">.</tspan></text><text class="cls-1" transform="translate(0 279.05)"><tspan class="cls-23">6</tspan><tspan x="9.83" y="0">.</tspan></text><text class="cls-1" transform="translate(14.83 279.05)"> </text><text class="cls-1" transform="translate(18.02 279.05)"><tspan class="cls-52">E</tspan><tspan class="cls-45" x="11.52" y="0">d</tspan><tspan class="cls-9" x="21.49" y="0">i</tspan><tspan class="cls-6" x="25.38" y="0">t </tspan><tspan class="cls-12" x="35.39" y="0">o</tspan><tspan class="cls-5" x="45.34" y="0">n</tspan><tspan x="55.26" y="0">e </tspan><tspan class="cls-5" x="70.27" y="0">si</tspan><tspan class="cls-10" x="83.09" y="0">g</tspan><tspan class="cls-9" x="93.08" y="0">n</tspan><tspan class="cls-11" x="102.98" y="0">a</tspan><tspan x="112.86" y="0">l </tspan><tspan class="cls-8" x="121.86" y="0">o</tspan><tspan x="131.71" y="0">r </tspan><tspan class="cls-26" x="142.7" y="0">s</tspan><tspan class="cls-45" x="151.56" y="0">u</tspan><tspan class="cls-50" x="161.53" y="0">b</tspan><tspan class="cls-48" x="171.56" y="0">c</tspan><tspan class="cls-51" x="180.59" y="0">a</tspan><tspan class="cls-18" x="190.28" y="0">t</tspan><tspan class="cls-25" x="194.99" y="0">e</tspan><tspan class="cls-6" x="204.93" y="0">g</tspan><tspan class="cls-29" x="214.94" y="0">o</tspan><tspan class="cls-53" x="224.78" y="0">r</tspan><tspan class="cls-54" x="231.24" y="0">y</tspan><tspan x="239" y="0">.</tspan></text><text class="cls-1" transform="translate(0.02 314.04)"><tspan class="cls-55">7</tspan><tspan x="7.78" y="0">.</tspan></text><text class="cls-1" transform="translate(12.8 314.04)"> </text><text class="cls-1" transform="translate(18.02 314.04)"><tspan class="cls-28">C</tspan><tspan class="cls-8" x="12.74" y="0">r</tspan><tspan class="cls-35" x="18.58" y="0">e</tspan><tspan class="cls-51" x="28.44" y="0">a</tspan><tspan class="cls-18" x="38.12" y="0">t</tspan><tspan class="cls-6" x="42.84" y="0">e a </tspan><tspan class="cls-5" x="72.86" y="0">n</tspan><tspan class="cls-17" x="82.78" y="0">e</tspan><tspan class="cls-6" x="92.47" y="0">w </tspan><tspan class="cls-5" x="110.47" y="0">si</tspan><tspan class="cls-10" x="123.28" y="0">g</tspan><tspan class="cls-13" x="133.27" y="0">na</tspan><tspan x="153.04" y="0">l </tspan><tspan class="cls-8" x="162.03" y="0">o</tspan><tspan x="171.88" y="0">r </tspan><tspan class="cls-35" x="182.88" y="0">s</tspan><tspan class="cls-49" x="191.73" y="0">u</tspan><tspan class="cls-50" x="201.71" y="0">b</tspan><tspan class="cls-48" x="211.73" y="0">c</tspan><tspan class="cls-51" x="220.77" y="0">a</tspan><tspan class="cls-18" x="230.45" y="0">t</tspan><tspan class="cls-25" x="235.17" y="0">e</tspan><tspan class="cls-6" x="245.1" y="0">g</tspan><tspan class="cls-29" x="255.11" y="0">o</tspan><tspan class="cls-53" x="264.96" y="0">r</tspan><tspan class="cls-56" x="271.42" y="0">y</tspan><tspan class="cls-6" x="279.18" y="0">.</tspan></text><text class="cls-22" transform="translate(0.02 349.04)">8<tspan class="cls-6" x="9.88" y="0">.</tspan></text><text class="cls-1" transform="translate(14.9 349.04)"> </text><text class="cls-1" transform="translate(18.02 349.04)"><tspan class="cls-30">T</tspan><tspan class="cls-31" x="9.22" y="0">r</tspan><tspan x="15.7" y="0">y </tspan><tspan class="cls-28" x="29.7" y="0">t</tspan><tspan class="cls-6" x="34.45" y="0">o </tspan><tspan class="cls-45" x="49.46" y="0">s</tspan><tspan class="cls-57" x="58.43" y="0">a</tspan><tspan class="cls-58" x="67.93" y="0">v</tspan><tspan x="76.48" y="0">e </tspan><tspan class="cls-25" x="91.49" y="0">t</tspan><tspan class="cls-5" x="96.43" y="0">h</tspan><tspan x="106.34" y="0">e </tspan><tspan class="cls-48" x="121.36" y="0">c</tspan><tspan class="cls-9" x="130.39" y="0">h</tspan><tspan class="cls-26" x="140.29" y="0">a</tspan><tspan class="cls-5" x="150.16" y="0">n</tspan><tspan x="160.07" y="0">g</tspan><tspan class="cls-5" x="170.08" y="0">e</tspan><tspan class="cls-15" x="180" y="0">s</tspan><tspan x="188.78" y="0">.</tspan></text><text class="cls-1" transform="translate(0.02 384.03)"><tspan class="cls-57">9</tspan><tspan x="9.5" y="0">.</tspan></text><text class="cls-1" transform="translate(14.51 384.03)"> </text><text class="cls-1" transform="translate(18.02 384.03)"><tspan class="cls-13">C</tspan><tspan class="cls-12" x="12.87" y="0">l</tspan><tspan class="cls-5" x="16.81" y="0">o</tspan><tspan class="cls-9" x="26.73" y="0">s</tspan><tspan x="35.62" y="0">e </tspan><tspan class="cls-25" x="50.63" y="0">t</tspan><tspan class="cls-5" x="55.57" y="0">h</tspan><tspan x="65.48" y="0">e </tspan><tspan class="cls-29" x="80.5" y="0">p</tspan><tspan class="cls-9" x="90.34" y="0">r</tspan><tspan class="cls-19" x="96.23" y="0">o</tspan><tspan class="cls-13" x="106.22" y="0">g</tspan><tspan class="cls-25" x="116.1" y="0">r</tspan><tspan class="cls-26" x="122.02" y="0">a</tspan><tspan x="131.89" y="0">m</tspan></text><text class="cls-59" transform="translate(0 24.9)"><tspan class="cls-60">T</tspan><tspan class="cls-61" x="15.33" y="0">A</tspan><tspan class="cls-62" x="34.56" y="0">S</tspan><tspan class="cls-63" x="54.33" y="0">K</tspan><tspan x="73.2" y="0">S</tspan></text><text class="cls-59" transform="translate(520.95 24.9)"><tspan class="cls-64">I</tspan><tspan class="cls-65" x="7.74" y="0">SS</tspan><tspan class="cls-28" x="46.86" y="0">U</tspan><tspan class="cls-66" x="68.1" y="0">E</tspan><tspan x="87.12" y="0">S &amp; </tspan><tspan class="cls-65" x="143.82" y="0">S</tspan><tspan class="cls-67" x="163.38" y="0">O</tspan><tspan class="cls-68" x="186.57" y="0">L</tspan><tspan class="cls-69" x="202.2" y="0">U</tspan><tspan class="cls-70" x="223.47" y="0">T</tspan><tspan class="cls-69" x="241.23" y="0">I</tspan><tspan class="cls-71" x="249.18" y="0">O</tspan><tspan class="cls-72" x="272.37" y="0">N</tspan><tspan x="293.7" y="0">S</tspan></text><text class="cls-1" transform="translate(520.94 64.66)"><tspan class="cls-73">P</tspan><tspan class="cls-24" x="11.56" y="0">r</tspan><tspan class="cls-74" x="17.44" y="0">o</tspan><tspan class="cls-75" x="27.45" y="0">b</tspan><tspan class="cls-5" x="37.4" y="0">le</tspan><tspan x="51.23" y="0">m</tspan></text><text class="cls-1" transform="translate(766.57 64.66)"><tspan class="cls-15">I</tspan><tspan x="4.79" y="0">m</tspan><tspan class="cls-76" x="19.78" y="0">p</tspan><tspan class="cls-77" x="29.77" y="0">o</tspan><tspan class="cls-78" x="39.62" y="0">r</tspan><tspan class="cls-19" x="46.06" y="0">t</tspan><tspan class="cls-13" x="51.05" y="0">a</tspan><tspan class="cls-19" x="60.93" y="0">n</tspan><tspan x="70.92" y="0">ce</tspan></text><text class="cls-1" transform="translate(890.16 64.66)"><tspan class="cls-57">P</tspan><tspan class="cls-5" x="11.5" y="0">o</tspan><tspan x="21.42" y="0">s</tspan><tspan class="cls-40" x="30.42" y="0">s</tspan><tspan class="cls-12" x="39.35" y="0">ib</tspan><tspan class="cls-40" x="53.24" y="0">l</tspan><tspan class="cls-74" x="57.17" y="0">e </tspan><tspan class="cls-40" x="72.18" y="0">s</tspan><tspan class="cls-12" x="81.11" y="0">o</tspan><tspan class="cls-29" x="91.06" y="0">l</tspan><tspan class="cls-13" x="94.9" y="0">u</tspan><tspan class="cls-75" x="104.78" y="0">tio</tspan><tspan x="123.62" y="0">n</tspan></text><line class="cls-79" x1="520.94" y1="79.44" x2="1107.99" y2="79.44"/><text class="cls-1" transform="translate(520.94 105.57)"><tspan class="cls-40">T</tspan><tspan class="cls-5" x="10.93" y="0">h</tspan><tspan x="20.84" y="0">e </tspan><tspan class="cls-32" x="35.86" y="0">s</tspan><tspan class="cls-26" x="44.75" y="0">e</tspan><tspan class="cls-28" x="54.61" y="0">a</tspan><tspan class="cls-40" x="64.37" y="0">r</tspan><tspan class="cls-48" x="70.29" y="0">c</tspan><tspan x="79.33" y="0">h </tspan><tspan class="cls-24" x="94.34" y="0">b</tspan><tspan class="cls-80" x="104.24" y="0">u</tspan><tspan class="cls-81" x="114.12" y="0">t</tspan><tspan class="cls-28" x="119.38" y="0">t</tspan><tspan class="cls-12" x="124.13" y="0">o</tspan><tspan x="134.08" y="0">n </tspan><tspan class="cls-40" x="149.09" y="0">i</tspan><tspan x="153.02" y="0">s </tspan></text><text class="cls-1" transform="translate(520.94 127.17)"><tspan class="cls-82">c</tspan><tspan class="cls-12" x="9.02" y="0">o</tspan><tspan class="cls-43" x="18.97" y="0">n</tspan><tspan class="cls-29" x="28.78" y="0">f</tspan><tspan class="cls-40" x="33.62" y="0">u</tspan><tspan class="cls-32" x="43.56" y="0">s</tspan><tspan class="cls-19" x="52.45" y="0">e</tspan><tspan x="62.44" y="0">d </tspan><tspan class="cls-83" x="77.45" y="0">w</tspan><tspan class="cls-24" x="90.36" y="0">i</tspan><tspan class="cls-84" x="94.25" y="0">t</tspan><tspan x="99.18" y="0">h </tspan><tspan class="cls-40" x="114.19" y="0">t</tspan><tspan class="cls-5" x="119.12" y="0">h</tspan><tspan class="cls-74" x="129.04" y="0">e </tspan><tspan class="cls-24" x="144.05" y="0">b</tspan><tspan class="cls-13" x="153.95" y="0">u</tspan><tspan class="cls-85" x="163.83" y="0">t</tspan><tspan class="cls-28" x="169.09" y="0">t</tspan><tspan class="cls-12" x="173.84" y="0">o</tspan><tspan x="183.8" y="0">n </tspan><tspan class="cls-28" x="198.81" y="0">t</tspan><tspan x="203.56" y="0">o </tspan></text><text class="cls-1" transform="translate(520.94 148.77)"><tspan class="cls-12">c</tspan><tspan class="cls-29" x="8.95" y="0">r</tspan><tspan class="cls-42" x="14.78" y="0">e</tspan><tspan class="cls-86" x="24.64" y="0">a</tspan><tspan class="cls-18" x="34.33" y="0">t</tspan><tspan x="39.04" y="0">e </tspan><tspan class="cls-5" x="54.05" y="0">n</tspan><tspan class="cls-86" x="63.97" y="0">e</tspan><tspan class="cls-87" x="73.66" y="0">w </tspan><tspan class="cls-5" x="91.66" y="0">si</tspan><tspan class="cls-76" x="104.47" y="0">g</tspan><tspan class="cls-80" x="114.46" y="0">n</tspan><tspan class="cls-24" x="124.34" y="0">a</tspan><tspan x="134.24" y="0">l</tspan></text><text class="cls-1" transform="translate(766.57 105.57)"><tspan class="cls-88">2</tspan><tspan class="cls-21" x="10.35" y="0">/</tspan><tspan x="15.05" y="0">5</tspan></text><text class="cls-1" transform="translate(890.16 105.57)"><tspan class="cls-40">G</tspan><tspan class="cls-15" x="13.93" y="0">e</tspan><tspan x="23.72" y="0">t </tspan><tspan class="cls-76" x="33.73" y="0">r</tspan><tspan class="cls-45" x="39.71" y="0">i</tspan><tspan x="43.67" y="0">d </tspan><tspan class="cls-89" x="58.68" y="0">o</tspan><tspan class="cls-74" x="68.45" y="0">f </tspan><tspan class="cls-40" x="78.46" y="0">t</tspan><tspan class="cls-5" x="83.39" y="0">h</tspan><tspan x="93.31" y="0">e </tspan><tspan class="cls-32" x="108.32" y="0">s</tspan><tspan class="cls-42" x="117.22" y="0">e</tspan><tspan class="cls-90" x="127.08" y="0">a</tspan><tspan class="cls-40" x="136.85" y="0">r</tspan><tspan class="cls-48" x="142.78" y="0">c</tspan><tspan x="151.81" y="0">h </tspan></text><text class="cls-1" transform="translate(890.16 127.17)"><tspan class="cls-32">b</tspan><tspan class="cls-13" x="9.9" y="0">u</tspan><tspan class="cls-81" x="19.78" y="0">t</tspan><tspan class="cls-28" x="25.04" y="0">t</tspan><tspan class="cls-12" x="29.79" y="0">o</tspan><tspan class="cls-91" x="39.74" y="0">n</tspan><tspan x="49.48" y="0">. </tspan><tspan class="cls-17" x="59.49" y="0">A</tspan><tspan class="cls-32" x="71.17" y="0">u</tspan><tspan class="cls-28" x="81.07" y="0">t</tspan><tspan class="cls-75" x="85.82" y="0">om</tspan><tspan class="cls-17" x="110.72" y="0">a</tspan><tspan class="cls-12" x="120.4" y="0">t</tspan><tspan x="125.35" y="0">ic </tspan><tspan class="cls-29" x="143.35" y="0">r</tspan><tspan class="cls-5" x="149.18" y="0">e</tspan><tspan class="cls-42" x="159.1" y="0">s</tspan><tspan class="cls-13" x="167.96" y="0">u</tspan><tspan class="cls-24" x="177.84" y="0">l</tspan><tspan class="cls-12" x="181.73" y="0">t</tspan><tspan x="186.68" y="0">s </tspan></text><text class="cls-1" transform="translate(890.16 148.77)"><tspan class="cls-24">i</tspan><tspan class="cls-40" x="3.89" y="0">n</tspan><tspan class="cls-13" x="13.82" y="0">s</tspan><tspan class="cls-92" x="22.7" y="0">t</tspan><tspan class="cls-42" x="27.41" y="0">e</tspan><tspan class="cls-90" x="37.28" y="0">a</tspan><tspan x="47.05" y="0">d</tspan></text><text class="cls-1" transform="translate(520.31 201.55)"><tspan class="cls-93">U</tspan><tspan class="cls-32" x="12.82" y="0">s</tspan><tspan class="cls-94" x="21.71" y="0">e</tspan><tspan class="cls-95" x="31.52" y="0">r</tspan><tspan x="37.57" y="0">s d</tspan><tspan class="cls-12" x="61.58" y="0">o</tspan><tspan class="cls-86" x="71.53" y="0">n</tspan><tspan class="cls-75" x="81.22" y="0">’</tspan><tspan x="85.16" y="0">t </tspan><tspan class="cls-96" x="95.17" y="0">k</tspan><tspan class="cls-40" x="104.18" y="0">n</tspan><tspan class="cls-18" x="114.12" y="0">o</tspan><tspan x="123.84" y="0">w </tspan><tspan class="cls-84" x="141.84" y="0">h</tspan><tspan class="cls-18" x="151.78" y="0">o</tspan><tspan x="161.5" y="0">w </tspan><tspan class="cls-28" x="179.5" y="0">t</tspan><tspan x="184.25" y="0">o </tspan><tspan class="cls-45" x="199.26" y="0">ed</tspan><tspan class="cls-24" x="219.2" y="0">i</tspan><tspan x="223.09" y="0">t </tspan></text><text class="cls-1" transform="translate(520.31 223.15)">a <tspan class="cls-5" x="15.01" y="0">si</tspan><tspan class="cls-76" x="27.83" y="0">g</tspan><tspan class="cls-32" x="37.82" y="0">na</tspan><tspan class="cls-87" x="57.62" y="0">l</tspan></text><text class="cls-1" transform="translate(765.94 201.55)">4<tspan class="cls-21" x="10.01" y="0">/</tspan><tspan x="14.71" y="0">5</tspan></text><text class="cls-1" transform="translate(889.53 201.55)"><tspan class="cls-42">C</tspan><tspan class="cls-32" x="12.85" y="0">h</tspan><tspan class="cls-13" x="22.75" y="0">a</tspan><tspan class="cls-5" x="32.63" y="0">n</tspan><tspan x="42.55" y="0">ge </tspan><tspan class="cls-19" x="67.57" y="0">e</tspan><tspan class="cls-97" x="77.56" y="0">d</tspan><tspan class="cls-24" x="87.53" y="0">i</tspan><tspan x="91.42" y="0">t </tspan><tspan class="cls-24" x="101.43" y="0">b</tspan><tspan class="cls-13" x="111.33" y="0">u</tspan><tspan class="cls-85" x="121.21" y="0">t</tspan><tspan class="cls-28" x="126.47" y="0">t</tspan><tspan class="cls-12" x="131.22" y="0">o</tspan><tspan x="141.17" y="0">n i</tspan><tspan class="cls-96" x="160.18" y="0">c</tspan><tspan class="cls-45" x="169.2" y="0">o</tspan><tspan x="179.17" y="0">n</tspan></text><text class="cls-1" transform="translate(520.29 270.85)"><tspan class="cls-93">U</tspan><tspan class="cls-32" x="12.82" y="0">s</tspan><tspan class="cls-94" x="21.71" y="0">e</tspan><tspan class="cls-95" x="31.52" y="0">r</tspan><tspan x="37.57" y="0">s d</tspan><tspan class="cls-12" x="61.58" y="0">o</tspan><tspan class="cls-21" x="71.53" y="0">n</tspan><tspan class="cls-12" x="81.23" y="0">’</tspan><tspan x="85.18" y="0">t </tspan><tspan class="cls-82" x="95.18" y="0">k</tspan><tspan class="cls-84" x="104.2" y="0">n</tspan><tspan class="cls-18" x="114.14" y="0">o</tspan><tspan class="cls-87" x="123.86" y="0">w </tspan><tspan class="cls-24" x="141.86" y="0">i</tspan><tspan x="145.75" y="0">f </tspan><tspan class="cls-40" x="155.75" y="0">t</tspan><tspan class="cls-5" x="160.68" y="0">h</tspan><tspan class="cls-98" x="170.6" y="0">e</tspan><tspan x="180.2" y="0">y </tspan><tspan class="cls-13" x="194.2" y="0">h</tspan><tspan class="cls-57" x="204.08" y="0">a</tspan><tspan class="cls-99" x="213.59" y="0">v</tspan><tspan class="cls-74" x="222.15" y="0">e </tspan></text><text class="cls-1" transform="translate(520.29 292.45)"><tspan class="cls-90">a</tspan><tspan class="cls-76" x="9.77" y="0">d</tspan><tspan class="cls-40" x="19.76" y="0">m</tspan><tspan class="cls-13" x="34.69" y="0">i</tspan><tspan class="cls-32" x="38.56" y="0">n</tspan><tspan class="cls-100" x="48.46" y="0">i</tspan><tspan class="cls-13" x="52.38" y="0">s</tspan><tspan class="cls-23" x="61.25" y="0">t</tspan><tspan class="cls-40" x="66.08" y="0">r</tspan><tspan class="cls-86" x="72" y="0">a</tspan><tspan class="cls-28" x="81.68" y="0">t</tspan><tspan class="cls-29" x="86.44" y="0">o</tspan><tspan x="96.28" y="0">r </tspan><tspan class="cls-29" x="107.28" y="0">p</tspan><tspan class="cls-76" x="117.13" y="0">r</tspan><tspan class="cls-40" x="123.1" y="0">iv</tspan><tspan class="cls-26" x="135.95" y="0">i</tspan><tspan class="cls-40" x="139.8" y="0">l</tspan><tspan class="cls-5" x="143.73" y="0">e</tspan><tspan x="153.65" y="0">g</tspan><tspan class="cls-5" x="163.65" y="0">e</tspan><tspan x="173.57" y="0">s</tspan></text><text class="cls-101" transform="translate(765.92 270.85)">3<tspan class="cls-102" x="10.03" y="0">/</tspan><tspan class="cls-74" x="14.72" y="0">5</tspan></text><text class="cls-1" transform="translate(890.12 340.15)">Mo<tspan class="cls-45" x="25" y="0">d</tspan><tspan class="cls-24" x="34.97" y="0">i</tspan><tspan class="cls-16" x="38.86" y="0">f</tspan><tspan x="44.19" y="0">y </tspan><tspan class="cls-12" x="58.19" y="0">t</tspan><tspan class="cls-5" x="63.14" y="0">h</tspan><tspan x="73.06" y="0">e </tspan><tspan class="cls-19" x="88.07" y="0">t</tspan><tspan class="cls-40" x="93.06" y="0">a</tspan><tspan class="cls-12" x="103" y="0">b</tspan><tspan class="cls-5" x="112.95" y="0">l</tspan><tspan x="116.86" y="0">e </tspan><tspan class="cls-12" x="131.87" y="0">m</tspan><tspan x="146.81" y="0">o</tspan><tspan class="cls-12" x="156.82" y="0">d</tspan><tspan class="cls-13" x="166.77" y="0">u</tspan><tspan class="cls-83" x="176.65" y="0">l</tspan><tspan x="180.56" y="0">e</tspan></text><text class="cls-1" transform="translate(520.27 340.15)"><tspan class="cls-90">Lo</tspan><tspan class="cls-12" x="19.55" y="0">t</tspan><tspan x="24.5" y="0">s </tspan><tspan class="cls-90" x="38.5" y="0">o</tspan><tspan x="48.28" y="0">f </tspan><tspan class="cls-21" x="58.28" y="0">f</tspan><tspan class="cls-29" x="62.98" y="0">o</tspan><tspan x="72.83" y="0">r</tspan><tspan class="cls-75" x="78.82" y="0">m</tspan><tspan class="cls-17" x="93.76" y="0">a</tspan><tspan class="cls-85" x="103.45" y="0">t</tspan><tspan class="cls-75" x="108.7" y="0">t</tspan><tspan class="cls-13" x="113.65" y="0">i</tspan><tspan class="cls-5" x="117.52" y="0">n</tspan><tspan x="127.44" y="0">g </tspan><tspan class="cls-43" x="142.45" y="0">e</tspan><tspan class="cls-24" x="152.26" y="0">rr</tspan><tspan class="cls-29" x="164.03" y="0">o</tspan><tspan class="cls-95" x="173.88" y="0">r</tspan><tspan x="179.93" y="0">s</tspan></text><text class="cls-1" transform="translate(765.9 340.15)">4<tspan class="cls-21" x="10.01" y="0">/</tspan><tspan x="14.71" y="0">5</tspan></text><text class="cls-1" transform="translate(890.1 270.85)"><tspan class="cls-57">P</tspan><tspan x="11.5" y="0">o</tspan><tspan class="cls-81" x="21.51" y="0">p</tspan><tspan class="cls-82" x="31.77" y="0">-</tspan><tspan class="cls-97" x="37.78" y="0">u</tspan><tspan x="47.75" y="0">p </tspan><tspan class="cls-17" x="62.77" y="0">a</tspan><tspan class="cls-74" x="72.45" y="0">t </tspan><tspan class="cls-40" x="82.46" y="0">t</tspan><tspan class="cls-5" x="87.39" y="0">h</tspan><tspan x="97.31" y="0">e </tspan><tspan class="cls-13" x="112.32" y="0">s</tspan><tspan class="cls-19" x="121.19" y="0">t</tspan><tspan class="cls-28" x="126.18" y="0">a</tspan><tspan class="cls-103" x="135.94" y="0">r</tspan><tspan class="cls-5" x="142.38" y="0">t</tspan><tspan x="147.29" y="0" xml:space="preserve">,  </tspan></text><text class="cls-1" transform="translate(890.1 292.45)"><tspan class="cls-48">c</tspan><tspan class="cls-24" x="9.04" y="0">h</tspan><tspan class="cls-80" x="18.94" y="0">a</tspan><tspan class="cls-5" x="28.82" y="0">n</tspan><tspan x="38.74" y="0">ge </tspan><tspan class="cls-84" x="63.76" y="0">a</tspan><tspan x="73.69" y="0">pp i</tspan><tspan class="cls-82" x="102.71" y="0">c</tspan><tspan class="cls-12" x="111.73" y="0">o</tspan><tspan x="121.68" y="0">n </tspan><tspan class="cls-96" x="136.69" y="0">c</tspan><tspan class="cls-12" x="145.71" y="0">ol</tspan><tspan class="cls-29" x="159.61" y="0">o</tspan><tspan x="169.45" y="0">r</tspan></text><text class="cls-1" transform="translate(890.1 382.79)"><tspan class="cls-24">D</tspan><tspan class="cls-45" x="12.89" y="0">e</tspan><tspan class="cls-32" x="22.86" y="0">b</tspan><tspan class="cls-5" x="32.76" y="0">u</tspan><tspan x="42.68" y="0">g </tspan><tspan class="cls-84" x="57.69" y="0">t</tspan><tspan class="cls-5" x="62.62" y="0">h</tspan><tspan x="72.54" y="0">e </tspan><tspan class="cls-40" x="87.55" y="0">a</tspan><tspan class="cls-74" x="97.49" y="0">pp</tspan></text><text class="cls-1" transform="translate(520.26 382.79)"><tspan class="cls-28">C</tspan><tspan class="cls-75" x="12.74" y="0">r</tspan><tspan class="cls-5" x="18.68" y="0">a</tspan><tspan class="cls-40" x="28.6" y="0">s</tspan><tspan class="cls-5" x="37.53" y="0">he</tspan><tspan class="cls-43" x="57.37" y="0">s</tspan><tspan x="66.17" y="0">, </tspan><tspan class="cls-98" x="76.18" y="0">e</tspan><tspan class="cls-39" x="85.77" y="0">x</tspan><tspan x="94.39" y="0">c</tspan><tspan class="cls-45" x="103.39" y="0">e</tspan><tspan class="cls-15" x="113.36" y="0">p</tspan><tspan class="cls-12" x="123.16" y="0">tio</tspan><tspan class="cls-5" x="142" y="0">n</tspan><tspan x="151.92" y="0">s </tspan><tspan class="cls-26" x="165.92" y="0">a</tspan><tspan class="cls-12" x="175.79" y="0">n</tspan><tspan x="185.74" y="0">d </tspan></text><text class="cls-1" transform="translate(520.26 404.39)"><tspan class="cls-40">p</tspan><tspan class="cls-43" x="9.94" y="0">e</tspan><tspan class="cls-78" x="19.75" y="0">r</tspan><tspan class="cls-21" x="26.19" y="0">f</tspan><tspan class="cls-29" x="30.89" y="0">o</tspan><tspan x="40.73" y="0">r</tspan><tspan class="cls-12" x="46.73" y="0">m</tspan><tspan class="cls-42" x="61.67" y="0">a</tspan><tspan class="cls-74" x="71.53" y="0">nce </tspan><tspan class="cls-75" x="105.55" y="0">i</tspan><tspan x="109.49" y="0">s</tspan><tspan class="cls-26" x="118.49" y="0">s</tspan><tspan class="cls-5" x="127.35" y="0">ue</tspan><tspan x="147.19" y="0">s</tspan></text><text class="cls-1" transform="translate(765.88 382.79)"><tspan class="cls-5">5</tspan><tspan class="cls-21" x="9.92" y="0">/</tspan><tspan x="14.62" y="0">5</tspan></text></svg>